<svg width="21" height="22" viewBox="0 0 21 22" fill="none" xmlns="http://www.w3.org/2000/svg">
<g clip-path="url(#clip0_673_3081)">
<path d="M20.04 16.85L17.04 13.65C18.1251 11.7553 18.4937 9.53391 18.0785 7.39031C17.6634 5.24671 16.4921 3.32351 14.7781 1.97094C13.064 0.618369 10.9212 -0.0736197 8.73985 0.0210181C6.55847 0.115656 4.48364 0.99063 2.89318 2.48656C1.30273 3.9825 0.302436 5.99988 0.0744881 8.17138C-0.15346 10.3429 0.406094 12.524 1.65124 14.3176C2.89639 16.1112 4.74431 17.3979 6.85848 17.9435C8.97266 18.4891 11.2124 18.2572 13.17 17.29L16.17 20.5C16.4097 20.7548 16.6972 20.9598 17.0161 21.1035C17.335 21.2471 17.6791 21.3266 18.0287 21.3372C18.3783 21.3479 18.7266 21.2897 19.0537 21.1657C19.3808 21.0418 19.6802 20.8547 19.935 20.615C20.1898 20.3754 20.3948 20.0878 20.5385 19.7689C20.6821 19.45 20.7616 19.1059 20.7723 18.7563C20.7829 18.4067 20.7246 18.0584 20.6007 17.7313C20.4768 17.4042 20.2897 17.1048 20.05 16.85H20.04ZM5.76 12.28C5.13446 11.6161 4.71992 10.7816 4.56886 9.88201C4.41779 8.98245 4.53699 8.05829 4.91136 7.22649C5.28573 6.3947 5.89844 5.69268 6.67196 5.20925C7.44548 4.72582 8.34502 4.48272 9.25675 4.51073C10.1685 4.53874 11.0514 4.8366 11.7938 5.3666C12.5362 5.8966 13.1047 6.63491 13.4273 7.48812C13.7499 8.34133 13.8121 9.27106 13.6061 10.1597C13.4001 11.0483 12.9351 11.8558 12.27 12.48C11.377 13.3131 10.19 13.7578 8.96949 13.7166C7.74896 13.6753 6.59468 13.1515 5.76 12.26V12.28Z" fill="#154734"/>
</g>
<defs>
<clipPath id="clip0_673_3081">
<rect width="20.75" height="21.31" fill="white"/>
</clipPath>
</defs>
</svg>
