<svg width="19" height="24" viewBox="0 0 19 24" fill="none" xmlns="http://www.w3.org/2000/svg">
<g clip-path="url(#clip0_673_2561)">
<path d="M18.4 9.2C18.4 6.76001 17.4307 4.41995 15.7054 2.69462C13.98 0.969284 11.64 0 9.19998 0C6.75999 0 4.41995 0.969284 2.69461 2.69462C0.969277 4.41995 -1.37478e-05 6.76001 -1.37478e-05 9.2C-0.00528268 10.4672 0.257113 11.7212 0.769991 12.88C2.64004 16.9914 5.54889 20.5448 9.20999 23.19C12.8706 20.5469 15.7767 16.9927 17.64 12.88C18.1444 11.7189 18.4031 10.466 18.4 9.2ZM9.19998 13.8C8.28736 13.802 7.3947 13.533 6.63506 13.0272C5.87542 12.5215 5.28299 11.8016 4.93283 10.9588C4.58267 10.116 4.49053 9.18828 4.66809 8.2931C4.84565 7.39792 5.28492 6.57557 5.93024 5.93025C6.57556 5.28493 7.39789 4.84566 8.29308 4.66811C9.18826 4.49055 10.116 4.58268 10.9588 4.93284C11.8016 5.283 12.5214 5.87542 13.0272 6.63506C13.533 7.3947 13.802 8.28738 13.8 9.2C13.8 10.42 13.3154 11.59 12.4527 12.4527C11.59 13.3154 10.42 13.8 9.19998 13.8Z" fill="white"/>
</g>
<defs>
<clipPath id="clip0_673_2561">
<rect width="18.4" height="23.19" fill="white"/>
</clipPath>
</defs>
</svg>
