<svg width="538" height="284" viewBox="0 0 538 284" fill="none" xmlns="http://www.w3.org/2000/svg">
<path d="M538 0H0V284H538V0Z" fill="white"/>
<path d="M238.4 0H167.143V170.421H238.4V0Z" fill="#E5E5E5"/>
<path d="M433.561 170.421V72.5195L177.181 72.5195V170.421H433.561Z" fill="#E5E5E5"/>
<path d="M370.507 93.0889H165.924C151.384 93.0889 139.598 104.389 139.598 118.328V118.338C139.598 132.278 151.384 143.578 165.924 143.578H370.507C385.047 143.578 396.834 132.278 396.834 118.338V118.328C396.834 104.389 385.047 93.0889 370.507 93.0889Z" fill="#FFCD00"/>
<g opacity="0.75">
<path opacity="0.75" d="M538 0H484.605V284H538V0Z" fill="#ACDAE5"/>
</g>
<path d="M115.011 185.768H0V284H115.011V185.768Z" fill="#E5E5E5"/>
<path d="M238.605 185.768H167.406V284H238.605V185.768Z" fill="#E5E5E5"/>
<path d="M299.59 185.768H249.186V284H299.59V185.768Z" fill="#E5E5E5"/>
<path d="M433.561 185.768H310.793V284H433.561V185.768Z" fill="#E5E5E5"/>
<path d="M115.011 0H0V60.1751H115.011V0Z" fill="#E5E5E5"/>
<path d="M115.011 72.5195H0V170.752H115.011V72.5195Z" fill="#E5E5E5"/>
<path d="M13.766 106.203C14.3925 106.2 15.0175 106.265 15.6299 106.398C16.1512 106.508 16.6523 106.699 17.1153 106.963C17.5022 107.172 17.8348 107.469 18.0861 107.83C18.3144 108.166 18.4362 108.564 18.4355 108.97C18.4447 109.422 18.2971 109.863 18.0181 110.217C17.7107 110.601 17.3185 110.908 16.8726 111.114V113.637H20.5907V114.777H6.91211V113.608H10.7953V111.172C10.2985 110.974 9.8558 110.66 9.50416 110.256C9.22812 109.912 9.0689 109.488 9.04969 109.046C9.03048 108.605 9.15229 108.168 9.39737 107.801C9.65176 107.442 9.98362 107.146 10.3682 106.934C10.8388 106.671 11.346 106.481 11.8729 106.369C12.4961 106.245 13.1308 106.189 13.766 106.203ZM19.3869 105.414H8.1062V104.254H19.4161L19.3869 105.414ZM13.766 107.285C13.3691 107.282 12.9728 107.315 12.5816 107.382C12.244 107.441 11.9169 107.549 11.6108 107.704C11.341 107.823 11.102 108.003 10.9118 108.23C10.7417 108.446 10.6493 108.714 10.6493 108.99C10.6493 109.265 10.7417 109.533 10.9118 109.75C11.102 109.976 11.341 110.156 11.6108 110.276C11.9198 110.419 12.2462 110.52 12.5816 110.578C12.9728 110.645 13.3691 110.678 13.766 110.675C14.1532 110.677 14.5398 110.645 14.9212 110.578C15.2559 110.517 15.5819 110.416 15.892 110.276C16.1618 110.156 16.4009 109.976 16.591 109.75C16.7726 109.539 16.8695 109.268 16.8628 108.99C16.8716 108.705 16.7747 108.427 16.591 108.21C16.4028 107.984 16.163 107.807 15.892 107.694C15.5824 107.55 15.2563 107.446 14.9212 107.382C14.5407 107.306 14.154 107.263 13.766 107.255V107.285ZM16.6784 103.134H10.7662V101.916H16.7075L16.6784 103.134ZM15.5328 111.523C15.2454 111.592 14.9534 111.641 14.6591 111.669C14.3582 111.669 14.0475 111.669 13.6883 111.669C13.3291 111.669 13.1155 111.669 12.8437 111.669C12.5719 111.669 12.3195 111.611 12.0768 111.572V113.598H15.5328V111.523Z" fill="#4D4D4D"/>
<path d="M22.4157 102.394H30.2403V103.524H26.959V104.976C26.9398 105.716 27.0149 106.456 27.1823 107.178C27.3391 107.833 27.5875 108.463 27.9201 109.048C28.2629 109.676 28.6946 110.25 29.2016 110.753C29.7652 111.283 30.3912 111.741 31.0655 112.117C30.9199 112.244 30.7549 112.4 30.5607 112.595C30.3665 112.79 30.2209 112.936 30.1141 113.063C29.7214 112.823 29.3481 112.552 28.9977 112.254C28.6451 111.96 28.3201 111.633 28.0269 111.279C27.6656 110.867 27.3408 110.424 27.0561 109.954C26.755 109.472 26.5045 108.959 26.3086 108.425C26.1602 108.94 25.9551 109.436 25.697 109.906C25.4325 110.387 25.1306 110.846 24.7941 111.279C24.4683 111.732 24.1045 112.156 23.7068 112.546C23.3485 112.898 22.9657 113.223 22.5613 113.52C22.4059 113.384 22.2118 113.228 21.9982 113.063C21.7846 112.897 21.5711 112.741 21.3672 112.605C22.0241 112.213 22.6277 111.739 23.1632 111.192C23.6891 110.649 24.1426 110.04 24.5126 109.38C24.8778 108.717 25.1552 108.01 25.3378 107.275C25.529 106.464 25.6235 105.633 25.6193 104.8V103.572H22.4157V102.394ZM33.4537 116.512H32.1334V101.526H33.4537V107.275H35.6671V108.473H33.4537V116.512Z" fill="#4D4D4D"/>
<path d="M49.9385 111.211H36.2793V110.1H42.4148V108.035H43.8127V110.1H49.9385V111.211ZM37.0171 107.577C37.5791 107.496 38.1364 107.385 38.6869 107.245C39.2448 107.114 39.7904 106.935 40.3178 106.71C40.7786 106.529 41.2079 106.275 41.5896 105.959C41.93 105.684 42.1775 105.309 42.2983 104.888H37.8617V103.826H48.3367V104.888H43.9098C44.0381 105.311 44.2921 105.685 44.6379 105.959C45.0335 106.276 45.4674 106.541 45.9291 106.749C46.4526 106.966 46.9912 107.145 47.5406 107.284C48.0722 107.416 48.6101 107.52 49.1522 107.596L48.3076 108.571C47.8707 108.493 47.4047 108.395 46.9096 108.259C46.4148 108.133 45.9311 107.967 45.4631 107.762C44.9976 107.564 44.5549 107.315 44.1428 107.021C43.7592 106.732 43.4304 106.375 43.172 105.969C42.9046 106.346 42.5765 106.675 42.2012 106.943C41.8097 107.232 41.3901 107.48 40.9489 107.684C40.4689 107.891 39.976 108.067 39.4732 108.21C38.9689 108.356 38.4568 108.473 37.9394 108.561L37.0171 107.577ZM38.4636 116.19C38.3636 116.198 38.2639 116.17 38.1821 116.112C38.1257 116.029 38.1016 115.929 38.1141 115.829V112.351H39.4441V115.04H48.657V116.19H38.4636ZM40.3276 101.409H45.832V102.471H40.3276V101.409Z" fill="#4D4D4D"/>
<path d="M62.5871 102.715C62.6368 102.707 62.6876 102.71 62.7361 102.724C62.7846 102.737 62.8298 102.761 62.8686 102.793C62.9286 102.87 62.9565 102.968 62.9463 103.066C62.9463 103.933 62.8395 104.82 62.7424 105.735C62.6453 106.651 62.5191 107.548 62.3735 108.434C62.2279 109.321 62.0629 110.178 61.8784 111.007C61.6939 111.835 61.4998 112.575 61.2959 113.248H64.6258V114.397H50.9277V113.248H59.9465C60.1504 112.595 60.3445 111.854 60.5484 111.016C60.7523 110.178 60.9173 109.34 61.0629 108.483C61.2085 107.626 61.3445 106.817 61.4415 106.008C61.5243 105.297 61.5697 104.581 61.5775 103.865H52.4907V102.715H62.5871Z" fill="#4D4D4D"/>
<path d="M67.0625 110.364C66.9652 110.374 66.8678 110.346 66.7907 110.286C66.7587 110.247 66.7353 110.201 66.7219 110.153C66.7085 110.104 66.7055 110.053 66.713 110.003V105.969C66.713 105.833 66.713 105.745 66.7907 105.697C66.8683 105.648 66.9266 105.619 67.0625 105.619H72.2174V103.222H66.713V102.091H73.1591C73.255 102.08 73.3516 102.105 73.431 102.16C73.4891 102.242 73.5166 102.342 73.5086 102.442V106.34C73.5184 106.44 73.4907 106.541 73.431 106.622C73.3516 106.677 73.255 106.701 73.1591 106.69H68.0042V109.175H69.6545C70.2661 109.175 70.868 109.175 71.4796 109.175C72.0912 109.175 72.6737 109.107 73.2368 109.058L74.7415 108.883C75.1978 108.814 75.5764 108.756 75.8774 108.688V109.818C75.5538 109.883 75.146 109.951 74.6542 110.023C74.1591 110.091 73.6251 110.149 73.0329 110.208C72.4407 110.266 71.8194 110.305 71.1496 110.344C70.4797 110.383 69.839 110.344 69.208 110.344L67.0625 110.364ZM68.6837 116.21C68.6339 116.224 68.5813 116.224 68.5312 116.211C68.4812 116.198 68.4355 116.172 68.399 116.135C68.3624 116.098 68.3362 116.052 68.3231 116.002C68.31 115.952 68.3105 115.899 68.3245 115.849V111.815H69.6545V115.06H78.3918V116.21H68.6837ZM76.6929 112.575V101.526H78.0034V112.575H76.6929Z" fill="#4D4D4D"/>
<path d="M81.6542 102.306H88.2266V103.485H82.5959V106.924H87.9936V108.074H82.5959V111.689H84.1977C84.6443 111.689 85.1685 111.689 85.6636 111.689L87.2364 111.582C87.7703 111.533 88.2654 111.484 88.7314 111.426C89.1974 111.367 89.6148 111.309 89.9643 111.241V112.351C89.4486 112.468 88.9268 112.556 88.4013 112.614C87.8188 112.692 87.2072 112.751 86.5859 112.79C85.9646 112.829 85.3239 112.868 84.7026 112.897H82.9357H81.6542C81.6045 112.904 81.5537 112.901 81.5052 112.888C81.4567 112.875 81.4116 112.851 81.3727 112.819C81.3127 112.741 81.2848 112.644 81.295 112.546V102.608C81.2848 102.51 81.3127 102.413 81.3727 102.335C81.46 102.292 81.5599 102.282 81.6542 102.306V102.306ZM90.6924 116.57V101.526H92.0321V106.837H94.2553V108.064H92.0321V116.521L90.6924 116.57Z" fill="#4D4D4D"/>
<path d="M108.624 110.246H102.673V113.471H101.343V110.246H94.9648V109.126H108.624V110.246ZM96.557 104.585C96.5582 104.117 96.6828 103.658 96.9181 103.254C97.1534 102.85 97.491 102.516 97.8967 102.286C99.1108 101.71 100.437 101.411 101.78 101.411C103.123 101.411 104.449 101.71 105.663 102.286C106.066 102.518 106.401 102.853 106.635 103.257C106.868 103.66 106.992 104.119 106.993 104.585C106.996 105.045 106.875 105.497 106.643 105.894C106.41 106.29 106.075 106.616 105.673 106.836C104.442 107.389 103.109 107.674 101.76 107.674C100.412 107.674 99.079 107.389 97.8481 106.836C97.4513 106.612 97.1219 106.285 96.8947 105.889C96.6675 105.492 96.5508 105.042 96.557 104.585V104.585ZM97.1492 116.19C97.0491 116.198 96.9494 116.17 96.8676 116.112C96.8113 116.029 96.7871 115.929 96.7997 115.829V111.932H98.052V115.04H107.304V116.19H97.1492ZM105.615 104.585C105.613 104.247 105.512 103.916 105.324 103.635C105.135 103.354 104.868 103.136 104.556 103.007C103.696 102.61 102.755 102.423 101.809 102.461C100.854 102.419 99.9034 102.603 99.0325 102.997C98.7234 103.131 98.4603 103.352 98.2756 103.635C98.0909 103.917 97.9929 104.248 97.9938 104.585C97.9873 104.905 98.0763 105.22 98.2492 105.489C98.4222 105.758 98.6713 105.969 98.9646 106.096C99.8492 106.464 100.804 106.634 101.76 106.592C102.705 106.631 103.646 106.462 104.518 106.096C104.834 105.99 105.11 105.788 105.307 105.517C105.504 105.246 105.611 104.92 105.615 104.585Z" fill="#4D4D4D"/>
<path d="M36.977 134.39C36.9631 133.407 37.0674 132.425 37.2877 131.467C37.4526 130.709 37.7518 129.986 38.1711 129.333C38.5022 128.801 38.959 128.359 39.5011 128.047C40.013 127.756 40.5922 127.605 41.1806 127.609C42.0888 127.57 42.9775 127.88 43.6659 128.476C44.3197 129.087 44.7244 129.921 44.8017 130.814H43.4717C43.4648 130.527 43.3982 130.244 43.2761 129.984C43.1541 129.724 42.9793 129.492 42.763 129.304C42.3298 128.928 41.7728 128.726 41.2 128.739C40.6514 128.721 40.1178 128.92 39.7147 129.294C39.2952 129.687 38.9642 130.166 38.7439 130.697C38.5026 131.278 38.3362 131.887 38.2488 132.51C38.1555 133.113 38.1068 133.722 38.1031 134.332C38.3101 133.66 38.7513 133.086 39.3458 132.714C39.9556 132.359 40.6503 132.177 41.3553 132.188C41.8504 132.165 42.3444 132.254 42.8 132.45C43.2557 132.646 43.6612 132.943 43.9862 133.318C44.6631 134.167 45.0083 135.234 44.957 136.319C44.9616 136.876 44.873 137.429 44.6949 137.956C44.5303 138.448 44.2696 138.902 43.928 139.291C43.5949 139.663 43.1882 139.962 42.7339 140.168C42.2287 140.388 41.6827 140.497 41.1321 140.489C40.3019 140.492 39.4937 140.222 38.8313 139.72C38.1999 139.249 37.7259 138.596 37.4721 137.849C37.2915 137.384 37.1613 136.9 37.0838 136.407C37.0003 135.738 36.9646 135.064 36.977 134.39V134.39ZM41.0447 133.192C40.6807 133.187 40.321 133.27 39.9962 133.435C39.6874 133.593 39.4108 133.808 39.1807 134.069C38.9376 134.354 38.7529 134.685 38.6371 135.043C38.5123 135.396 38.4499 135.769 38.4526 136.144C38.4495 136.579 38.5083 137.012 38.6274 137.43C38.7377 137.784 38.9121 138.114 39.1419 138.404C39.3582 138.688 39.6331 138.92 39.9477 139.086C40.2785 139.254 40.6451 139.337 41.0156 139.33C41.386 139.347 41.7553 139.276 42.0929 139.122C42.4305 138.968 42.7267 138.735 42.9572 138.443C43.4271 137.815 43.6702 137.046 43.6464 136.261C43.6478 135.864 43.5888 135.47 43.4717 135.092C43.372 134.735 43.2001 134.404 42.9669 134.117C42.7544 133.833 42.4784 133.603 42.1611 133.445C41.8143 133.273 41.4316 133.186 41.0447 133.192V133.192Z" fill="#4D4D4D"/>
<path d="M51.5976 128.165V140.168H50.2676V129.295C49.9286 129.663 49.5473 129.99 49.1318 130.269C48.6507 130.581 48.1514 130.864 47.6367 131.117V129.84C48.1318 129.617 48.6006 129.339 49.0347 129.012C49.4867 128.665 49.9149 128.287 50.3161 127.882H51.2869C51.3766 127.872 51.4667 127.897 51.5394 127.95C51.5802 128.014 51.6005 128.089 51.5976 128.165V128.165Z" fill="#4D4D4D"/>
<path d="M56.0059 138.902L56.7048 138.22L57.598 137.333C57.9183 137.002 58.2387 136.651 58.5688 136.281C58.8989 135.911 59.2386 135.531 59.5396 135.131C59.8405 134.732 60.1706 134.362 60.5104 133.982C60.7859 133.621 61.0388 133.243 61.2676 132.851C61.4777 132.521 61.6564 132.172 61.8016 131.809C61.9203 131.524 61.9861 131.221 61.9957 130.912C62.0177 130.607 61.9715 130.301 61.8607 130.016C61.7499 129.732 61.5771 129.475 61.355 129.266C60.8891 128.889 60.3025 128.695 59.7046 128.72C59.4067 128.711 59.1104 128.766 58.8357 128.882C58.5609 128.998 58.3143 129.172 58.1125 129.392C57.6921 129.877 57.4731 130.505 57.5009 131.146H56.1029C56.0947 130.643 56.1871 130.142 56.3748 129.675C56.539 129.243 56.7977 128.853 57.132 128.535C57.4595 128.21 57.8538 127.961 58.2873 127.804C58.9551 127.566 59.6705 127.495 60.3721 127.595C61.0737 127.695 61.7407 127.964 62.3161 128.379C62.6682 128.674 62.9457 129.049 63.1263 129.472C63.3068 129.895 63.3851 130.356 63.3549 130.815C63.332 131.607 63.1046 132.379 62.6947 133.056C62.2315 133.855 61.6987 134.612 61.1026 135.316C60.4813 136.047 59.8405 136.739 59.161 137.382C58.4814 138.025 57.9475 138.561 57.5106 138.999H63.6073V140.169H56.2389C56.1704 140.176 56.1016 140.159 56.0447 140.12C56.025 140.053 56.025 139.982 56.0447 139.915L56.0059 138.902Z" fill="#4D4D4D"/>
<path d="M67.3445 127.297H77.0525V128.398H68.3153V130.999H77.169V132.11H72.6548V134.137H78.8194V135.287H65.1602V134.137H71.2956V132.11H67.3445C67.2424 132.123 67.1389 132.099 67.0532 132.042C66.9999 131.962 66.9759 131.865 66.9853 131.769V127.638C66.9713 127.588 66.9708 127.535 66.9839 127.485C66.9969 127.435 67.0231 127.389 67.0597 127.352C67.0963 127.315 67.1419 127.289 67.192 127.276C67.242 127.263 67.2947 127.263 67.3445 127.278V127.297ZM66.6358 139.223C66.6526 138.783 66.7902 138.356 67.0335 137.99C67.2768 137.624 67.6162 137.332 68.0143 137.148C69.2443 136.532 70.613 136.25 71.9849 136.329C73.3537 136.252 74.7189 136.534 75.9458 137.148C76.3568 137.316 76.7086 137.603 76.9562 137.972C77.2039 138.342 77.3362 138.777 77.3362 139.223C77.3362 139.668 77.2039 140.104 76.9562 140.473C76.7086 140.843 76.3568 141.13 75.9458 141.298C74.7132 141.905 73.3459 142.183 71.9752 142.107C70.6045 142.183 69.2372 141.905 68.0046 141.298C67.6083 141.112 67.2709 140.82 67.0294 140.454C66.7879 140.088 66.6517 139.662 66.6358 139.223ZM68.1017 139.223C68.1133 139.536 68.2212 139.838 68.4107 140.088C68.6001 140.337 68.8618 140.522 69.1599 140.616C70.9799 141.253 72.9608 141.253 74.7808 140.616C75.0854 140.527 75.3548 140.345 75.5514 140.096C75.748 139.846 75.8622 139.541 75.8778 139.223C75.8778 138.648 75.5089 138.2 74.7808 137.869C73.8919 137.516 72.9403 137.35 71.9849 137.381C71.0207 137.347 70.0596 137.509 69.1599 137.859C68.8678 137.948 68.6099 138.124 68.4207 138.365C68.2316 138.605 68.1203 138.898 68.1017 139.203V139.223Z" fill="#4D4D4D"/>
<path d="M13.766 221.175C14.3925 221.172 15.0175 221.237 15.6299 221.37C16.1499 221.484 16.6503 221.675 17.1153 221.935C17.5027 222.147 17.8351 222.447 18.0861 222.812C18.3244 223.165 18.446 223.585 18.4338 224.011C18.4216 224.438 18.2762 224.85 18.0181 225.189C17.7113 225.576 17.3191 225.886 16.8726 226.095V228.609H20.5907V229.759H6.91211V228.609H10.7953V226.173C10.2964 225.979 9.85292 225.665 9.50416 225.257C9.19806 224.893 9.03573 224.428 9.04788 223.952C9.04279 223.544 9.16502 223.146 9.39737 222.812C9.65065 222.449 9.9826 222.15 10.3682 221.935C10.8407 221.676 11.3473 221.486 11.8729 221.37C12.495 221.236 13.1298 221.17 13.766 221.175V221.175ZM19.3869 220.386H8.1062V219.255H19.4161L19.3869 220.386ZM13.766 222.256C13.3688 222.257 12.9725 222.293 12.5816 222.364C12.244 222.422 11.9169 222.531 11.6108 222.685C11.3398 222.798 11.1 222.975 10.9118 223.201C10.7417 223.418 10.6493 223.686 10.6493 223.961C10.6493 224.237 10.7417 224.505 10.9118 224.721C11.102 224.948 11.341 225.128 11.6108 225.248C11.9198 225.391 12.2462 225.492 12.5816 225.55C12.9725 225.62 13.3688 225.656 13.766 225.657C14.1535 225.655 14.5401 225.62 14.9212 225.55C15.2559 225.489 15.5819 225.388 15.892 225.248C16.1618 225.128 16.4009 224.948 16.591 224.721C16.7669 224.506 16.863 224.235 16.863 223.957C16.863 223.678 16.7669 223.408 16.591 223.192C16.4009 222.965 16.1618 222.785 15.892 222.666C15.5819 222.526 15.2559 222.424 14.9212 222.364C14.5395 222.3 14.1529 222.271 13.766 222.276V222.256ZM16.6784 218.106H10.7662V216.927H16.7075L16.6784 218.106ZM15.5328 226.553C15.2461 226.624 14.9537 226.669 14.6591 226.69C14.3582 226.69 14.0475 226.738 13.6883 226.738C13.407 226.753 13.1251 226.753 12.8437 226.738C12.5863 226.721 12.3302 226.689 12.0768 226.641V228.668H15.5328V226.553Z" fill="#4D4D4D"/>
<path d="M22.4157 217.414H30.2403V218.544H26.959V219.996C26.9433 220.72 27.0183 221.444 27.1823 222.149C27.5214 223.502 28.2192 224.738 29.2016 225.725C29.7598 226.275 30.3863 226.749 31.0655 227.138C30.9199 227.265 30.7549 227.421 30.5607 227.615L30.1141 228.083C29.7214 227.843 29.3481 227.573 28.9977 227.274C28.6451 226.98 28.3201 226.654 28.0269 226.3C27.6634 225.889 27.3384 225.446 27.0561 224.975C26.755 224.492 26.5045 223.98 26.3086 223.445C26.1602 223.96 25.9551 224.457 25.697 224.926C25.4325 225.407 25.1306 225.867 24.7941 226.3C24.4708 226.754 24.1068 227.178 23.7068 227.567C23.351 227.921 22.968 228.247 22.5613 228.541C22.4059 228.405 22.2118 228.258 21.9982 228.083C21.7846 227.908 21.5711 227.762 21.3672 227.625C22.0241 227.234 22.6277 226.759 23.1632 226.212C24.221 225.131 24.9718 223.785 25.3378 222.315C25.5284 221.507 25.6229 220.68 25.6193 219.85V218.544H22.4157V217.414ZM33.4537 231.532H32.1334V216.557H33.4537V222.295H35.6671V223.494H33.4537V231.532Z" fill="#4D4D4D"/>
<path d="M49.9385 226.232H36.2793V225.072H42.4148V223.026H43.8127V225.072H49.9385V226.232ZM37.0171 222.597C37.5791 222.516 38.1364 222.405 38.6869 222.266C39.2445 222.138 39.7901 221.962 40.3178 221.74C40.7772 221.552 41.2059 221.296 41.5896 220.98C41.9298 220.708 42.1775 220.337 42.2983 219.918H37.8617V218.846H48.3367V219.918H43.9098C44.0434 220.341 44.3046 220.712 44.6573 220.98C45.053 221.296 45.4868 221.562 45.9485 221.769C46.472 221.987 47.0106 222.166 47.56 222.305C48.0916 222.436 48.6295 222.54 49.1716 222.617L48.327 223.65C47.8901 223.572 47.4241 223.464 46.929 223.338C46.4353 223.204 45.9519 223.035 45.4825 222.831C45.0151 222.637 44.572 222.388 44.1622 222.091C43.7812 221.802 43.4528 221.449 43.1914 221.048C42.922 221.423 42.5942 221.752 42.2206 222.022C41.8294 222.314 41.4098 222.565 40.9683 222.773C40.4865 222.972 39.9938 223.145 39.4927 223.289C38.9878 223.435 38.4733 223.552 37.9588 223.65L37.0171 222.597ZM38.4636 231.21C38.3636 231.218 38.2639 231.191 38.1821 231.132C38.1255 231.054 38.1012 230.956 38.1141 230.86V227.381H39.4441V230.061H48.657V231.21H38.4636ZM40.3276 216.439H45.832V217.501H40.3276V216.439Z" fill="#4D4D4D"/>
<path d="M62.5871 217.735C62.6873 217.726 62.7876 217.753 62.8686 217.813C62.9269 217.892 62.9545 217.989 62.9463 218.086C62.9463 218.953 62.8395 219.85 62.7424 220.756C62.6453 221.662 62.5191 222.568 62.3735 223.464C62.2279 224.361 62.0629 225.208 61.8784 226.027C61.6939 226.845 61.4998 227.596 61.2959 228.278H64.6258V229.418H50.9277V228.278H59.9465C60.1504 227.625 60.3445 226.875 60.5484 226.046C60.7523 225.218 60.9173 224.371 61.0629 223.513C61.2085 222.656 61.3445 221.837 61.4415 221.029C61.5243 220.317 61.5697 219.601 61.5775 218.885H52.4907V217.735H62.5871Z" fill="#4D4D4D"/>
<path d="M67.0625 225.384C66.9266 225.384 66.8392 225.384 66.7907 225.306C66.7421 225.228 66.713 225.17 66.713 225.033V221C66.7055 220.95 66.7085 220.899 66.7219 220.85C66.7353 220.801 66.7587 220.756 66.7907 220.717C66.8678 220.657 66.9652 220.629 67.0625 220.639H72.2174V218.252H66.713V217.122H73.1591C73.2073 217.111 73.2575 217.112 73.305 217.125C73.3526 217.139 73.3959 217.165 73.4308 217.2C73.4658 217.235 73.4913 217.278 73.5049 217.326C73.5185 217.374 73.5198 217.424 73.5086 217.473V221.37C73.5184 221.47 73.4907 221.571 73.431 221.652C73.3529 221.711 73.2562 221.739 73.1591 221.73H68.0042V224.215H69.6545C70.2661 224.215 70.868 224.215 71.4796 224.156C72.0912 224.098 72.6737 224.088 73.2368 224.04C73.7999 223.991 74.295 223.923 74.7415 223.864C75.1881 223.806 75.5764 223.738 75.8774 223.669V224.8C75.5538 224.871 75.146 224.939 74.6542 225.004C74.1591 225.072 73.6251 225.131 73.0329 225.189C72.4407 225.248 71.8194 225.287 71.1496 225.326C70.4797 225.365 69.839 225.326 69.208 225.326L67.0625 225.384ZM68.6837 231.23C68.5835 231.24 68.4832 231.212 68.4022 231.152C68.3422 231.075 68.3143 230.977 68.3245 230.879V226.836H69.6545V230.08H78.3918V231.23H68.6837ZM76.6929 227.596V216.557H78.0034V227.596H76.6929Z" fill="#4D4D4D"/>
<path d="M81.6552 217.278H88.2276V218.457H82.5969V221.906H87.9946V223.055H82.5969V226.661H84.1987C84.6453 226.661 85.1695 226.661 85.6646 226.661L87.2373 226.553C87.7713 226.553 88.2664 226.456 88.7324 226.397C89.1984 226.339 89.6158 226.281 89.9653 226.212V227.333C89.509 227.43 88.9945 227.518 88.4023 227.586C87.8101 227.654 87.2082 227.723 86.5869 227.771C85.9656 227.82 85.3249 227.849 84.7035 227.869H82.9367H81.6552C81.5562 227.881 81.4561 227.857 81.3737 227.801C81.3155 227.718 81.288 227.618 81.296 227.518V217.677C81.282 217.627 81.2815 217.574 81.2946 217.524C81.3077 217.474 81.3339 217.428 81.3705 217.391C81.407 217.355 81.4527 217.328 81.5027 217.315C81.5528 217.302 81.6054 217.303 81.6552 217.317V217.278ZM90.6934 231.552V216.557H92.0331V221.857H94.2563V223.124H92.0331V231.591L90.6934 231.552Z" fill="#4D4D4D"/>
<path d="M108.624 225.267H102.673V228.492H101.343V225.267H94.9648V224.097H108.624V225.267ZM96.557 219.606C96.5592 219.138 96.6842 218.679 96.9194 218.276C97.1546 217.872 97.4917 217.538 97.8967 217.306C99.1108 216.73 100.437 216.432 101.78 216.432C103.123 216.432 104.449 216.73 105.663 217.306C106.066 217.54 106.4 217.875 106.634 218.278C106.867 218.682 106.991 219.139 106.993 219.606C106.997 220.067 106.876 220.521 106.644 220.919C106.411 221.317 106.076 221.644 105.673 221.866C104.442 222.419 103.109 222.704 101.76 222.704C100.412 222.704 99.079 222.419 97.8481 221.866C97.4505 221.641 97.1208 221.312 96.8936 220.914C96.6664 220.516 96.5501 220.064 96.557 219.606V219.606ZM97.1492 231.21C97.0491 231.218 96.9494 231.191 96.8676 231.132C96.811 231.053 96.7867 230.956 96.7997 230.859V226.962H98.052V230.07H107.304V231.22L97.1492 231.21ZM105.615 219.606C105.613 219.267 105.512 218.937 105.324 218.656C105.135 218.375 104.868 218.156 104.556 218.027C103.696 217.631 102.755 217.444 101.809 217.482C100.854 217.442 99.9025 217.629 99.0325 218.027C98.7242 218.159 98.4614 218.379 98.2767 218.66C98.092 218.94 97.9936 219.269 97.9938 219.606C97.9854 219.928 98.0734 220.244 98.2465 220.515C98.4196 220.786 98.6697 220.999 98.9646 221.126C99.8492 221.494 100.804 221.664 101.76 221.623C102.705 221.662 103.646 221.492 104.518 221.126C104.836 221.02 105.113 220.816 105.31 220.543C105.507 220.27 105.613 219.943 105.615 219.606V219.606Z" fill="#4D4D4D"/>
<path d="M36.978 249.43C36.9646 248.447 37.0689 247.466 37.2886 246.507C37.4536 245.749 37.7528 245.026 38.1721 244.374C38.5031 243.841 38.96 243.4 39.5021 243.087C40.014 242.796 40.5931 242.645 41.1816 242.649C42.0854 242.598 42.9727 242.907 43.6507 243.509C44.3288 244.111 44.7427 244.958 44.8027 245.864H43.4727C43.4659 245.575 43.3994 245.291 43.2774 245.03C43.1554 244.768 42.9806 244.535 42.764 244.344C42.3285 243.972 41.773 243.771 41.201 243.779C40.9284 243.769 40.6566 243.814 40.4015 243.911C40.1465 244.008 39.9133 244.156 39.7157 244.344C39.2984 244.735 38.9677 245.21 38.7448 245.738C38.5049 246.319 38.3385 246.927 38.2497 247.55C38.1564 248.153 38.1078 248.762 38.1041 249.372C38.3131 248.704 38.7541 248.133 39.3467 247.764C39.9532 247.4 40.6496 247.214 41.3563 247.228C41.8511 247.207 42.3444 247.298 42.7997 247.493C43.255 247.689 43.6608 247.985 43.9872 248.359C44.6656 249.21 45.0108 250.28 44.958 251.369C44.9626 251.926 44.874 252.479 44.6959 253.006C44.5299 253.497 44.2693 253.951 43.9289 254.341C43.5959 254.713 43.1892 255.012 42.7349 255.218C42.2297 255.438 41.6836 255.547 41.133 255.539C40.2864 255.564 39.456 255.303 38.774 254.799C38.1442 254.331 37.6703 253.682 37.4148 252.938C37.2476 252.432 37.1369 251.909 37.0848 251.379C37.0044 250.733 36.9688 250.082 36.978 249.43ZM41.0457 248.232C40.6809 248.23 40.3212 248.317 39.9972 248.485C39.6868 248.637 39.4096 248.849 39.1817 249.109C38.9375 249.394 38.7526 249.725 38.6381 250.083C38.5132 250.433 38.4508 250.803 38.4536 251.174C38.4491 251.609 38.508 252.043 38.6284 252.461C38.7367 252.815 38.9113 253.146 39.1429 253.435C39.3563 253.721 39.6319 253.954 39.9486 254.117C40.2788 254.287 40.6453 254.374 41.0165 254.37C41.3867 254.385 41.7552 254.313 42.0924 254.159C42.4296 254.005 42.7261 253.773 42.9581 253.484C43.4281 252.852 43.6711 252.079 43.6474 251.291C43.6478 250.895 43.5889 250.501 43.4727 250.122C43.3765 249.765 43.2043 249.432 42.9678 249.148C42.7532 248.863 42.4779 248.63 42.1621 248.466C41.8153 248.294 41.4326 248.207 41.0457 248.212V248.232Z" fill="#4D4D4D"/>
<path d="M51.5976 243.185V255.189H50.2676V244.315C49.934 244.689 49.552 245.017 49.1318 245.29C48.6509 245.605 48.1517 245.891 47.6367 246.147V244.861C48.1337 244.641 48.603 244.363 49.0347 244.033C49.489 243.688 49.9173 243.31 50.3161 242.903H51.2869C51.3766 242.893 51.4667 242.917 51.5393 242.971C51.5791 243.035 51.5993 243.109 51.5976 243.185V243.185Z" fill="#4D4D4D"/>
<path d="M62.4125 251.779C62.4225 251.408 62.3425 251.04 62.1795 250.707C62.0322 250.418 61.8194 250.168 61.5582 249.977C61.2835 249.783 60.9782 249.639 60.6553 249.548C60.3378 249.461 60.0127 249.406 59.6845 249.382H59.0146C58.8787 249.382 58.8011 249.382 58.7719 249.382C58.7551 249.305 58.7551 249.225 58.7719 249.148V248.457C58.7569 248.366 58.7569 248.274 58.7719 248.184C58.7719 248.184 58.8787 248.116 59.0146 248.116H59.568C59.8958 248.117 60.2223 248.074 60.5388 247.989C60.8406 247.917 61.1247 247.785 61.3737 247.599C61.6244 247.429 61.8281 247.197 61.9659 246.927C62.1142 246.624 62.1875 246.29 62.1795 245.952C62.201 245.644 62.1487 245.334 62.0272 245.049C61.9056 244.765 61.7182 244.513 61.4805 244.316C60.9808 243.922 60.3583 243.718 59.7233 243.741C59.0986 243.707 58.4844 243.912 58.005 244.316C57.554 244.751 57.2894 245.345 57.2672 245.972H55.8887C55.8713 245.504 55.9582 245.038 56.143 244.609C56.3277 244.179 56.6056 243.796 56.9565 243.487C57.7424 242.858 58.7288 242.536 59.733 242.581C60.2149 242.578 60.695 242.64 61.1601 242.766C61.5957 242.89 62.0042 243.095 62.3639 243.371C62.7068 243.652 62.985 244.004 63.1794 244.403C63.3961 244.866 63.5025 245.373 63.4901 245.884C63.4957 246.577 63.2508 247.249 62.8008 247.775C62.343 248.326 61.7016 248.693 60.9951 248.807C61.7671 248.895 62.4795 249.266 62.9949 249.85C63.5028 250.423 63.7767 251.168 63.7619 251.935C63.7779 252.491 63.6579 253.043 63.4124 253.543C63.1933 253.976 62.8817 254.355 62.4998 254.653C62.0948 254.941 61.6408 255.153 61.1601 255.277C60.6667 255.413 60.1573 255.482 59.6457 255.482C58.5857 255.548 57.5415 255.199 56.7333 254.507C56.3768 254.163 56.0959 253.747 55.9087 253.288C55.7215 252.828 55.632 252.334 55.646 251.838H56.976C57.003 252.531 57.2909 253.189 57.7817 253.679C58.303 254.121 58.9741 254.345 59.6554 254.303C60.3621 254.332 61.0544 254.096 61.597 253.64C61.8595 253.408 62.0684 253.121 62.2092 252.8C62.35 252.478 62.4194 252.13 62.4125 251.779V251.779Z" fill="#4D4D4D"/>
<path d="M67.3445 242.327H77.0525V243.419H68.3153V246.02H77.169V247.141H72.6548V249.158H78.8194V250.307H65.1602V249.158H71.2956V247.141H67.3445C67.2427 247.149 67.1407 247.125 67.0532 247.072C67.0013 246.992 66.9775 246.896 66.9853 246.8V242.678C66.9773 242.578 67.0048 242.478 67.0629 242.396C67.1453 242.339 67.2455 242.315 67.3445 242.327V242.327ZM66.6358 254.244C66.6543 253.805 66.7928 253.381 67.036 253.016C67.2792 252.652 67.6176 252.362 68.0143 252.178C69.2443 251.563 70.613 251.281 71.9849 251.36C73.3537 251.282 74.7189 251.564 75.9458 252.178C76.3538 252.348 76.7026 252.635 76.948 253.003C77.1934 253.372 77.3243 253.805 77.3243 254.248C77.3243 254.692 77.1934 255.125 76.948 255.494C76.7026 255.862 76.3538 256.149 75.9458 256.319C74.7148 256.93 73.3463 257.209 71.9752 257.128C70.6041 257.209 69.2356 256.93 68.0046 256.319C67.607 256.135 67.2683 255.843 67.0266 255.476C66.7848 255.11 66.6495 254.683 66.6358 254.244ZM68.1017 254.244C68.1119 254.557 68.2193 254.86 68.4089 255.11C68.5986 255.36 68.8611 255.544 69.1599 255.637C70.9776 256.287 72.9631 256.287 74.7808 255.637C75.0861 255.549 75.3563 255.368 75.5532 255.118C75.75 254.868 75.8636 254.562 75.8778 254.244C75.8778 253.669 75.5089 253.221 74.7808 252.899C73.8941 252.538 72.9413 252.368 71.9849 252.402C71.0197 252.365 70.0575 252.531 69.1599 252.889C68.8686 252.976 68.611 253.151 68.4217 253.39C68.2325 253.628 68.1208 253.92 68.1017 254.224V254.244Z" fill="#4D4D4D"/>
<path d="M197.073 223.835C197.084 223.933 197.056 224.03 196.996 224.108C196.958 224.139 196.915 224.162 196.868 224.176C196.821 224.189 196.772 224.192 196.724 224.186H190.695C190.559 224.186 190.472 224.186 190.423 224.108C190.375 224.03 190.346 223.971 190.346 223.835V217.063H191.656V219.421H195.831V217.063H197.073V219.743H200.306V216.557H201.636V225.17H200.306V220.873H197.073V223.835ZM191.656 223.055H195.831V220.571H191.656V223.055ZM192.326 225.978H201.277C201.327 225.964 201.379 225.964 201.429 225.977C201.479 225.99 201.525 226.016 201.562 226.053C201.598 226.09 201.624 226.136 201.638 226.186C201.651 226.236 201.65 226.289 201.636 226.339V231.035C201.644 231.133 201.617 231.23 201.558 231.308C201.477 231.368 201.377 231.396 201.277 231.386H192.326C192.229 231.396 192.131 231.368 192.054 231.308C192.023 231.271 192 231.227 191.987 231.18C191.973 231.133 191.97 231.084 191.977 231.035V226.339C191.969 226.289 191.972 226.238 191.986 226.189C191.999 226.141 192.022 226.095 192.054 226.056C192.089 226.02 192.132 225.99 192.178 225.97C192.225 225.95 192.275 225.94 192.326 225.94V225.978ZM193.297 230.285H200.296V227.021H193.297V230.285Z" fill="#4D4D4D"/>
<path d="M204.422 218.681H212.975V219.743H204.422V218.681ZM208.723 226.047C207.772 226.092 206.833 225.829 206.043 225.297C205.73 225.069 205.476 224.77 205.3 224.425C205.124 224.079 205.033 223.697 205.033 223.309C205.033 222.921 205.124 222.539 205.3 222.193C205.476 221.848 205.73 221.549 206.043 221.321C206.846 220.831 207.768 220.571 208.708 220.571C209.648 220.571 210.57 220.831 211.373 221.321C211.689 221.546 211.948 221.844 212.126 222.19C212.304 222.536 212.397 222.92 212.397 223.309C212.397 223.698 212.304 224.082 212.126 224.428C211.948 224.774 211.689 225.072 211.373 225.297C210.591 225.822 209.663 226.085 208.723 226.047ZM208.723 225.072C209.305 225.097 209.882 224.941 210.373 224.624C210.577 224.483 210.742 224.291 210.853 224.068C210.963 223.845 211.015 223.597 211.004 223.348C211.015 223.1 210.963 222.854 210.853 222.632C210.742 222.41 210.577 222.221 210.373 222.081C209.885 221.757 209.307 221.597 208.723 221.623C208.119 221.595 207.522 221.755 207.014 222.081C206.81 222.221 206.645 222.41 206.534 222.632C206.424 222.854 206.372 223.1 206.383 223.348C206.372 223.597 206.424 223.845 206.534 224.068C206.645 224.291 206.81 224.483 207.014 224.624C207.533 224.917 208.13 225.043 208.723 224.985V225.072ZM210.887 217.687H206.48V216.605H210.887V217.687ZM207.004 231.328C206.956 231.339 206.906 231.338 206.858 231.324C206.811 231.31 206.767 231.285 206.732 231.25C206.698 231.215 206.672 231.171 206.658 231.123C206.645 231.076 206.644 231.025 206.655 230.977V227.021H208.014V230.061H216.489V231.191L207.004 231.328ZM214.693 216.713H216.004V221.273H218.091V222.452H216.004V227.732H214.693V216.713Z" fill="#4D4D4D"/>
<path d="M181.832 253.64H195.52V254.79H181.832V253.64ZM193.948 243.828H192.278V245.173C192.278 245.612 192.278 246.06 192.278 246.498V247.833C192.278 248.281 192.278 248.72 192.278 249.158H194.404V250.308H183.007V249.158H185.113V247.833C185.113 247.395 185.113 246.946 185.113 246.498C185.113 246.05 185.113 245.612 185.113 245.173C185.113 244.735 185.113 244.277 185.113 243.828H183.444V242.698H194.016L193.948 243.828ZM190.88 249.158C190.88 248.72 190.88 248.281 190.88 247.833C190.88 247.385 190.88 246.946 190.88 246.498C190.88 246.05 190.88 245.612 190.88 245.173V243.828H186.395V246.508C186.395 247.404 186.395 248.281 186.395 249.158H190.88Z" fill="#4D4D4D"/>
<path d="M197.462 242.61H203.655C203.704 242.598 203.754 242.6 203.801 242.613C203.849 242.627 203.892 242.653 203.927 242.688C203.962 242.723 203.988 242.766 204.001 242.814C204.015 242.862 204.016 242.912 204.005 242.96V248.066C204.015 248.164 203.987 248.261 203.927 248.339C203.89 248.37 203.846 248.393 203.799 248.407C203.753 248.42 203.704 248.423 203.655 248.417H198.724V251.963H200.151C200.762 251.963 201.355 251.963 201.956 251.915L203.636 251.788C204.16 251.739 204.607 251.681 205.073 251.613C205.539 251.544 205.869 251.486 206.179 251.418V252.587C205.849 252.658 205.451 252.727 204.985 252.792C204.51 252.86 204.015 252.918 203.432 252.977C202.85 253.035 202.277 253.074 201.636 253.113C200.995 253.152 200.345 253.162 199.694 253.162H197.753C197.703 253.176 197.65 253.176 197.6 253.163C197.55 253.15 197.505 253.124 197.468 253.087C197.432 253.05 197.405 253.005 197.392 252.954C197.379 252.904 197.38 252.851 197.394 252.801V247.618C197.385 247.52 197.413 247.423 197.471 247.345C197.552 247.285 197.653 247.257 197.753 247.267H202.607V243.759H197.462V242.61ZM206.917 256.893V241.879H208.267V247.384H210.47V248.621H208.267V256.893H206.917Z" fill="#4D4D4D"/>
<path d="M211.994 242.746H219.818V243.876H216.537V245.328C216.534 246.063 216.619 246.796 216.79 247.511C216.951 248.165 217.199 248.794 217.527 249.381C217.871 250.011 218.306 250.585 218.819 251.086C219.365 251.625 219.978 252.09 220.644 252.47C220.498 252.597 220.333 252.753 220.139 252.947C219.945 253.142 219.799 253.288 219.683 253.415C219.295 253.173 218.925 252.903 218.576 252.606C218.223 252.312 217.898 251.986 217.605 251.632C217.244 251.219 216.919 250.776 216.634 250.307C216.34 249.822 216.093 249.31 215.896 248.777C215.748 249.292 215.543 249.789 215.285 250.258C215.017 250.737 214.715 251.196 214.382 251.632C214.053 252.085 213.686 252.508 213.285 252.899C212.929 253.253 212.546 253.578 212.139 253.873C211.984 253.737 211.8 253.581 211.576 253.415C211.353 253.249 211.149 253.094 210.945 252.957C211.605 252.566 212.212 252.091 212.751 251.544C213.273 251.001 213.724 250.392 214.091 249.732C214.46 249.072 214.738 248.363 214.916 247.627C215.115 246.821 215.212 245.993 215.207 245.162V243.876H212.023L211.994 242.746ZM223.032 256.864H221.721V241.879H223.032V247.627H225.226V248.826H223.003L223.032 256.864Z" fill="#4D4D4D"/>
<path d="M358.071 225.422H352.12V228.609H350.79V225.422H344.432V224.273H358.023L358.071 225.422ZM346.198 222.363V216.702H347.49V218.544H354.955V216.702H356.285V222.363C356.293 222.463 356.266 222.563 356.208 222.646C356.125 222.702 356.025 222.726 355.926 222.714H346.577C346.529 222.728 346.477 222.729 346.428 222.716C346.379 222.704 346.334 222.678 346.299 222.643C346.263 222.607 346.237 222.562 346.225 222.513C346.212 222.463 346.213 222.412 346.228 222.363H346.198ZM346.597 231.21C346.499 231.22 346.402 231.192 346.325 231.132C346.266 231.083 346.247 230.996 346.247 230.859V226.962H347.548V230.08H356.78V231.23L346.597 231.21ZM347.49 221.584H354.955V219.635H347.49V221.584Z" fill="#4D4D4D"/>
<path d="M360.459 217.278H366.963V218.427H361.449V222.695H362.274C363.381 222.695 364.536 222.695 365.72 222.559C366.829 222.482 367.931 222.336 369.021 222.12V223.309C368.526 223.406 367.992 223.494 367.4 223.562C366.808 223.63 366.206 223.708 365.575 223.757C364.944 223.806 364.274 223.835 363.633 223.864H361.691H360.526C360.381 223.864 360.284 223.864 360.245 223.796C360.189 223.721 360.165 223.626 360.177 223.533V217.599C360.177 217.463 360.177 217.375 360.255 217.326C360.332 217.278 360.323 217.278 360.459 217.278ZM366.283 231.815C365.579 231.824 364.875 231.752 364.186 231.6C363.625 231.488 363.086 231.28 362.594 230.987C362.181 230.746 361.829 230.412 361.565 230.012C361.33 229.636 361.209 229.199 361.216 228.755C361.212 228.317 361.337 227.886 361.575 227.518C361.842 227.118 362.198 226.784 362.614 226.544C363.112 226.259 363.648 226.046 364.206 225.91C365.578 225.612 366.998 225.612 368.371 225.91C368.935 226.042 369.478 226.255 369.982 226.544C370.397 226.782 370.75 227.116 371.011 227.518C371.252 227.885 371.38 228.316 371.38 228.755C371.378 229.22 371.247 229.675 371.001 230.069C370.756 230.463 370.407 230.781 369.992 230.987C368.855 231.577 367.581 231.853 366.303 231.786L366.283 231.815ZM362.623 228.755C362.622 229.055 362.721 229.347 362.905 229.584C363.113 229.857 363.383 230.077 363.691 230.227C364.051 230.42 364.437 230.558 364.837 230.636C365.313 230.728 365.798 230.774 366.283 230.772C366.772 230.774 367.26 230.728 367.74 230.636C368.152 230.558 368.551 230.42 368.924 230.227C369.222 230.078 369.484 229.865 369.691 229.603C369.88 229.369 369.983 229.076 369.982 228.775C369.968 228.456 369.862 228.149 369.675 227.891C369.489 227.633 369.231 227.435 368.934 227.323C368.104 226.938 367.196 226.755 366.283 226.787C365.798 226.781 365.313 226.826 364.837 226.924C364.434 227.011 364.043 227.145 363.672 227.323C363.372 227.465 363.11 227.675 362.905 227.937C362.735 228.165 362.644 228.442 362.643 228.726L362.623 228.755ZM370.992 216.596V219.519H373.06V220.688H370.992V225.501H369.681V216.576L370.992 216.596Z" fill="#4D4D4D"/>
<path d="M379.051 220.084C379.047 220.816 379.132 221.545 379.303 222.257C379.661 223.604 380.376 224.83 381.371 225.803C381.912 226.323 382.511 226.778 383.157 227.158C382.992 227.294 382.808 227.46 382.624 227.645L382.167 228.122C381.79 227.874 381.43 227.601 381.09 227.304C380.739 227.007 380.415 226.681 380.119 226.329C379.763 225.916 379.438 225.476 379.148 225.014C378.852 224.527 378.605 224.011 378.41 223.475C378.267 223.988 378.061 224.482 377.799 224.946C377.256 225.922 376.576 226.815 375.779 227.596C375.432 227.956 375.052 228.282 374.643 228.57C374.508 228.444 374.323 228.298 374.1 228.122C373.877 227.947 373.673 227.801 373.479 227.674C374.138 227.263 374.745 226.772 375.284 226.212C375.814 225.663 376.271 225.047 376.643 224.381C376.998 223.725 377.263 223.023 377.43 222.296C377.615 221.52 377.707 220.725 377.702 219.928V217.21H379.061L379.051 220.084ZM381.633 221.058H384.895V216.586H386.235V231.542H384.895V222.257H381.633V221.058Z" fill="#4D4D4D"/>
<path d="M388.982 218.612H397.293V219.694H388.982V218.612ZM393.273 220.503C394.22 220.46 395.156 220.723 395.943 221.253C396.264 221.465 396.526 221.755 396.706 222.095C396.885 222.436 396.977 222.816 396.972 223.202C396.975 223.587 396.878 223.966 396.691 224.303C396.489 224.641 396.225 224.938 395.914 225.179C395.555 225.428 395.158 225.615 394.739 225.735C394.263 225.875 393.769 225.944 393.273 225.939C392.768 225.944 392.264 225.876 391.778 225.735C391.362 225.616 390.968 225.428 390.613 225.179C390.3 224.943 390.039 224.645 389.846 224.303C389.662 223.965 389.569 223.586 389.575 223.202C389.565 222.822 389.649 222.445 389.818 222.106C389.987 221.766 390.237 221.473 390.545 221.253C391.35 220.713 392.307 220.449 393.273 220.503ZM393.273 221.565C392.664 221.532 392.059 221.692 391.545 222.023C391.356 222.152 391.201 222.327 391.094 222.53C390.987 222.734 390.932 222.961 390.934 223.192C390.931 223.426 390.985 223.658 391.092 223.867C391.198 224.076 391.354 224.255 391.545 224.39C392.068 224.697 392.663 224.858 393.269 224.858C393.874 224.858 394.469 224.697 394.992 224.39C395.184 224.256 395.341 224.077 395.45 223.868C395.558 223.659 395.614 223.427 395.613 223.192C395.613 222.961 395.556 222.733 395.447 222.53C395.339 222.326 395.183 222.152 394.992 222.023C394.48 221.694 393.88 221.534 393.273 221.565V221.565ZM395.39 217.589H391.002V216.518H395.39V217.589ZM391.827 231.23C391.777 231.244 391.724 231.245 391.674 231.231C391.624 231.218 391.579 231.192 391.542 231.155C391.506 231.119 391.479 231.073 391.466 231.023C391.453 230.972 391.454 230.92 391.468 230.87V226.972H392.798V230.1H401.535V231.25L391.827 231.23ZM397.36 220.434H399.836V216.537H401.147V227.557H399.836V224.692H397.36V223.572H399.836V221.565H397.36V220.434Z" fill="#4D4D4D"/>
<path d="M327.385 249.889C327.887 249.733 328.364 249.507 328.802 249.217C329.263 248.924 329.686 248.578 330.064 248.184C330.422 247.777 330.725 247.325 330.967 246.839C331.214 246.359 331.368 245.837 331.423 245.3H328.394V244.199H335.899V245.3H332.831C332.862 245.81 333.008 246.306 333.258 246.752C333.499 247.187 333.811 247.579 334.18 247.911C334.543 248.255 334.951 248.547 335.394 248.778C335.819 249.013 336.268 249.199 336.734 249.334L335.908 250.308C335.15 249.988 334.44 249.562 333.802 249.041C333.149 248.532 332.593 247.908 332.161 247.2C331.742 248.007 331.194 248.741 330.54 249.372C329.91 250.001 329.17 250.507 328.356 250.863L327.385 249.889ZM330.045 241.851H334.316V242.952H330.074L330.045 241.851ZM335.141 257.099C333.868 257.156 332.6 256.895 331.452 256.339C331.042 256.152 330.694 255.851 330.449 255.471C330.205 255.09 330.075 254.648 330.074 254.195C330.072 253.758 330.201 253.331 330.443 252.968C330.704 252.581 331.058 252.266 331.472 252.052C331.974 251.781 332.514 251.588 333.074 251.477C333.753 251.334 334.447 251.265 335.141 251.272C336.423 251.215 337.699 251.483 338.85 252.052C339.262 252.239 339.611 252.541 339.856 252.922C340.101 253.303 340.231 253.747 340.231 254.2C340.231 254.654 340.101 255.098 339.856 255.479C339.611 255.86 339.262 256.162 338.85 256.349C337.693 256.897 336.42 257.155 335.141 257.099V257.099ZM331.491 254.176C331.485 254.471 331.585 254.758 331.773 254.985C331.979 255.239 332.246 255.437 332.549 255.56C332.917 255.728 333.306 255.846 333.705 255.91C334.179 255.995 334.66 256.037 335.141 256.037C336.044 256.065 336.943 255.906 337.782 255.569C338.081 255.485 338.345 255.304 338.533 255.055C338.721 254.806 338.822 254.503 338.822 254.191C338.822 253.878 338.721 253.575 338.533 253.326C338.345 253.077 338.081 252.897 337.782 252.812C336.938 252.482 336.037 252.326 335.132 252.354C334.65 252.351 334.17 252.39 333.695 252.471C333.293 252.54 332.899 252.651 332.52 252.802C332.232 252.94 331.974 253.136 331.763 253.377C331.574 253.606 331.477 253.898 331.491 254.195V254.176ZM338.695 251.156V247.336H335.967V246.235H338.695V241.851H340.005V251.156H338.695Z" fill="#4D4D4D"/>
<path d="M355.653 254.955H341.955V253.805H348.11V250.044H349.489V253.805H355.663L355.653 254.955ZM349.489 243.721C349.49 244.403 349.664 245.073 349.993 245.669C350.337 246.304 350.776 246.883 351.294 247.384C351.826 247.898 352.419 248.344 353.061 248.709C353.671 249.069 354.323 249.351 355.003 249.547L354.032 250.522C353.48 250.312 352.945 250.061 352.43 249.771C351.901 249.474 351.397 249.131 350.925 248.748C350.461 248.365 350.035 247.938 349.654 247.472C349.285 247.03 348.987 246.534 348.77 246.001C348.279 247.067 347.544 248.002 346.625 248.729C345.682 249.496 344.623 250.107 343.489 250.541L342.518 249.508C343.219 249.298 343.893 249.007 344.528 248.641C345.168 248.277 345.762 247.835 346.295 247.326C346.808 246.838 347.238 246.269 347.566 245.64C347.89 245.042 348.06 244.372 348.061 243.692V242.464H349.489V243.721Z" fill="#4D4D4D"/>
<path d="M358.091 250.19C358.041 250.196 357.991 250.193 357.943 250.179C357.894 250.166 357.849 250.143 357.81 250.112C357.753 250.033 357.729 249.936 357.742 249.839V242.308H359.052V248.992H360.169C360.712 248.992 361.295 248.992 361.906 248.943C362.518 248.894 363.101 248.865 363.664 248.806L365.188 248.631C365.534 248.587 365.878 248.522 366.217 248.436V249.566C365.955 249.635 365.595 249.703 365.149 249.791C364.702 249.878 364.178 249.937 363.634 249.985C363.091 250.034 362.469 250.093 361.838 250.132C361.207 250.171 360.567 250.19 359.897 250.19H358.091ZM359.635 256.543C359.538 256.551 359.441 256.523 359.363 256.465C359.303 256.383 359.275 256.283 359.285 256.182V251.963H360.635V255.393H369.294V256.543H359.635ZM363.596 246H367.634V244.383H363.596V243.301H367.615V241.879H368.906V252.86H367.615V247.082H363.576L363.596 246Z" fill="#4D4D4D"/>
<path d="M389.855 251.311H383.768V256.885H382.399V251.311H376.205V250.162H389.855V251.311ZM376.836 247.482C378.31 247.195 379.705 246.59 380.923 245.709C381.341 245.401 381.682 244.999 381.918 244.536C382.154 244.072 382.279 243.56 382.282 243.039V242.25H383.768V243.029C383.76 243.6 383.915 244.161 384.214 244.647C384.53 245.143 384.935 245.576 385.408 245.923C385.945 246.319 386.529 246.647 387.146 246.898C387.793 247.156 388.462 247.351 389.146 247.482L388.301 248.554C387.756 248.412 387.221 248.233 386.699 248.018C386.162 247.802 385.646 247.538 385.156 247.229C384.691 246.957 384.261 246.63 383.874 246.255C383.512 245.906 383.222 245.488 383.02 245.027C382.764 245.5 382.437 245.931 382.049 246.303C381.665 246.681 381.234 247.008 380.768 247.278C380.295 247.573 379.798 247.827 379.283 248.038C378.769 248.25 378.244 248.432 377.71 248.583L376.836 247.482Z" fill="#4D4D4D"/>
<path d="M392.312 250.716C392.212 250.724 392.112 250.697 392.031 250.638C391.974 250.556 391.95 250.455 391.963 250.356V246.458C391.948 246.41 391.947 246.358 391.96 246.309C391.972 246.26 391.998 246.215 392.034 246.179C392.069 246.143 392.114 246.117 392.163 246.105C392.212 246.092 392.264 246.093 392.312 246.107H397.166V243.584H392.001V242.454H398.03C398.126 242.441 398.223 242.465 398.302 242.522C398.333 242.562 398.356 242.607 398.369 242.655C398.382 242.704 398.386 242.755 398.38 242.804V246.809C398.38 246.945 398.38 247.033 398.302 247.082C398.224 247.131 398.166 247.16 398.03 247.16H393.176V249.557H394.147C394.749 249.557 395.36 249.557 395.972 249.508C396.584 249.459 397.166 249.44 397.729 249.391L399.234 249.216C399.69 249.147 400.069 249.089 400.37 249.021V250.151C400.04 250.219 399.632 250.287 399.137 250.356C398.642 250.424 398.108 250.482 397.525 250.541C396.943 250.599 396.302 250.638 395.642 250.677C394.982 250.716 394.322 250.726 393.7 250.726L392.312 250.716ZM393.924 256.562C393.827 256.57 393.73 256.543 393.652 256.484C393.592 256.403 393.564 256.302 393.574 256.202V252.168H394.904V255.412H403.641V256.562H393.924ZM399.331 243.808H401.913V241.859H403.243V252.908H401.913V247.822H399.321V246.731H401.913V244.89H399.321L399.331 243.808Z" fill="#4D4D4D"/>
<path d="M410.116 245.971V249.537C410.427 249.537 410.825 249.537 411.31 249.537C411.796 249.537 412.281 249.479 412.805 249.44C413.33 249.401 413.844 249.362 414.349 249.303C414.854 249.245 415.32 249.186 415.669 249.118V250.248C414.951 250.356 413.893 250.473 412.495 250.58C411.097 250.687 409.437 250.736 407.524 250.736H405.689V249.576H408.835V246.01L410.116 245.971ZM413.747 242.493C413.797 242.486 413.847 242.49 413.896 242.503C413.944 242.517 413.989 242.54 414.029 242.571C414.085 242.65 414.11 242.747 414.097 242.844C414.097 243.311 414.048 243.818 414 244.256C413.951 244.695 413.902 245.231 413.844 245.65C413.786 246.069 413.728 246.546 413.669 246.936C413.611 247.325 413.543 247.696 413.475 247.998H412.165C412.223 247.725 412.281 247.413 412.33 247.023C412.378 246.634 412.437 246.273 412.485 245.883C412.534 245.494 412.582 245.114 412.621 244.714C412.66 244.315 412.689 243.964 412.718 243.633H406.631V242.473L413.747 242.493ZM408.485 256.543C408.436 256.557 408.383 256.557 408.333 256.544C408.283 256.531 408.237 256.505 408.201 256.468C408.164 256.431 408.138 256.385 408.125 256.335C408.112 256.285 408.112 256.232 408.126 256.182V252.08H409.456V255.393H417.999V256.543H408.485ZM416.252 253.201V241.879H417.562V246.692H419.62V247.881H417.562V253.201H416.252Z" fill="#4D4D4D"/>
<path d="M518.351 119.551H512.4V122.767H511.07V119.551H504.711V118.402H518.351V119.551ZM506.478 116.502V110.841H507.73V112.682H515.205V110.841H516.516V116.502C516.526 116.599 516.498 116.697 516.438 116.775C516.357 116.835 516.257 116.862 516.157 116.852H506.788C506.691 116.863 506.594 116.835 506.517 116.775C506.497 116.726 506.478 116.638 506.478 116.502V116.502ZM506.876 125.349C506.779 125.359 506.681 125.331 506.604 125.271C506.544 125.189 506.517 125.089 506.526 124.988V121.091H507.837V124.218H517.079V125.368L506.876 125.349ZM507.769 115.722H515.244V113.774H507.73L507.769 115.722Z" fill="#4D4D4D"/>
<path d="M506.07 136.709H512.584V137.859H507.07V142.136H507.895C509.002 142.136 510.157 142.136 511.342 142C512.449 141.914 513.551 141.768 514.642 141.562V142.741C514.147 142.838 513.604 142.926 513.021 143.004L511.196 143.198C510.555 143.198 509.895 143.276 509.255 143.296C508.614 143.315 507.934 143.296 507.313 143.296H506.148C506.087 143.312 506.023 143.314 505.961 143.302C505.899 143.291 505.84 143.265 505.789 143.228C505.732 143.149 505.708 143.051 505.721 142.955V137.031C505.713 136.981 505.716 136.93 505.73 136.881C505.743 136.833 505.767 136.787 505.798 136.748C505.881 136.702 505.978 136.688 506.07 136.709ZM511.895 151.246C511.194 151.253 510.494 151.185 509.808 151.042C509.247 150.922 508.709 150.711 508.216 150.418C507.802 150.178 507.45 149.845 507.187 149.444C506.954 149.067 506.833 148.631 506.837 148.187C506.833 147.745 506.958 147.312 507.196 146.94C507.46 146.537 507.817 146.203 508.235 145.966C508.73 145.673 509.267 145.459 509.827 145.332C510.504 145.17 511.199 145.091 511.895 145.098C512.601 145.09 513.305 145.169 513.992 145.332C514.559 145.457 515.103 145.671 515.604 145.966C516.019 146.203 516.372 146.537 516.633 146.94C516.874 147.311 517.002 147.744 517.001 148.187C516.998 148.65 516.867 149.103 516.622 149.496C516.377 149.888 516.027 150.204 515.613 150.409C514.474 151.015 513.193 151.304 511.905 151.246H511.895ZM508.245 148.197C508.246 148.496 508.345 148.787 508.526 149.025C508.74 149.293 509.008 149.512 509.313 149.668C509.673 149.858 510.059 149.993 510.458 150.068C510.932 150.16 511.413 150.205 511.895 150.204C512.387 150.206 512.878 150.161 513.361 150.068C513.772 149.991 514.171 149.856 514.545 149.668C514.844 149.516 515.106 149.3 515.312 149.035C515.503 148.802 515.606 148.508 515.604 148.207C515.59 147.888 515.483 147.581 515.297 147.323C515.11 147.065 514.852 146.867 514.555 146.755C513.723 146.369 512.811 146.185 511.895 146.219C511.412 146.216 510.931 146.265 510.458 146.365C510.056 146.449 509.665 146.58 509.293 146.755C508.995 146.904 508.733 147.117 508.526 147.378C508.346 147.612 508.25 147.901 508.255 148.197H508.245ZM516.613 136.037V138.96H518.681V140.129H516.613V144.943H515.303V136.027L516.613 136.037Z" fill="#4D4D4D"/>
<path d="M504.818 169.808C505.342 169.601 505.843 169.339 506.313 169.028C506.788 168.721 507.222 168.354 507.605 167.937C507.984 167.525 508.295 167.055 508.527 166.544C508.755 166.01 508.883 165.438 508.905 164.858H505.789V163.747H513.303V164.858H510.294C510.301 165.396 510.427 165.925 510.663 166.407C510.9 166.88 511.208 167.313 511.575 167.693C511.942 168.075 512.36 168.403 512.818 168.668C513.256 168.943 513.725 169.166 514.216 169.33L513.342 170.305C512.582 169.949 511.871 169.497 511.226 168.96C510.559 168.413 510.014 167.733 509.624 166.963C509.252 167.798 508.714 168.547 508.041 169.165C507.391 169.796 506.64 170.314 505.818 170.694L504.818 169.808ZM507.478 161.302H511.75V162.364H507.478V161.302ZM508.129 176.005C507.993 176.005 507.906 176.004 507.857 175.927C507.808 175.849 507.779 175.79 507.779 175.654V171.425H509.109V174.855H517.846V176.005H508.129ZM517.448 161.389V172.399H516.157V167.031H513.381V165.93H516.157V161.35L517.448 161.389Z" fill="#4D4D4D"/>
<path d="M177.657 114.884C177.652 113.619 177.149 112.407 176.259 111.511C175.368 110.615 174.161 110.108 172.9 110.1H167.512V108.054C167.512 107.197 166.949 106.632 165.813 106.632C164.677 106.632 164.124 107.197 164.124 108.054V110.1H158.736C157.467 110.1 156.249 110.607 155.352 111.507C154.454 112.408 153.95 113.63 153.95 114.904C153.936 115.9 154.104 116.891 154.445 117.827C154.609 118.263 154.86 118.661 155.183 118.996L155.552 123.137C155.677 124.645 156.364 126.049 157.476 127.07C158.589 128.091 160.044 128.652 161.551 128.642H164.124C164.124 129.49 164.687 130.055 165.813 130.055C166.939 130.055 167.512 129.49 167.512 128.642H170.182C171.688 128.648 173.141 128.085 174.252 127.065C175.364 126.045 176.052 124.643 176.181 123.137L176.56 118.879C176.829 118.567 177.042 118.211 177.191 117.827C177.525 116.883 177.683 115.886 177.657 114.884Z" fill="#154734"/>
<path d="M189.962 154.072L186.739 148.47L183.516 142.867H189.962H196.408L193.185 148.47L189.962 154.072Z" fill="#FFCD00"/>
<path d="M195.92 114.961H188.282V113.593H195.92V114.961ZM197.858 110.724H195.92V112.149H188.282V110.724H186.344V116.443H197.858V110.724ZM188.149 124.575H197.915V120.509H186.173V121.972H195.996V123.188H186.211V127.444H198.409V125.943H188.149V124.575ZM184.33 117.659V119.217H199.872V117.659H184.33ZM211.404 118.191C209.067 118.571 207.053 118.647 204.374 118.647V116.5H210.093V111.446H202.417V113.023H208.155V115.018H202.455V120.243H203.804C206.844 120.243 208.991 120.186 211.556 119.787L211.404 118.191ZM204.374 123.435H214.026V127.634H215.983V121.858H204.374V123.435ZM214.026 110.439V114.505H211.062V116.082H214.026V120.965H215.983V110.439H214.026ZM224.398 113.916H227.229V112.301H219.477V113.916H222.498V115.151C222.498 118.21 221.358 121.307 218.926 122.827L220.104 124.271C221.757 123.226 222.859 121.383 223.467 119.217C224.075 121.212 225.139 122.903 226.754 123.853L227.894 122.428C225.5 121.041 224.398 118.077 224.398 115.151V113.916ZM228.502 116.462H225.975V118.058H228.502V126.76H230.345V110.762H228.502V116.462ZM231.96 110.42V127.577H233.822V110.42H231.96ZM245.734 118.077H244.233V115.645H245.734V118.077ZM247.368 111.655H245.734V114.106H244.233V111.655H242.618V119.654H247.368V111.655ZM240.11 118.077H238.552V115.645H240.11V118.077ZM241.725 111.655H240.11V114.106H238.552V111.655H236.937V119.654H241.725V111.655ZM244.803 126.076C242.333 126.076 240.927 125.468 240.927 124.385C240.927 123.283 242.333 122.694 244.803 122.694C247.273 122.694 248.679 123.283 248.679 124.385C248.679 125.468 247.273 126.076 244.803 126.076ZM244.803 121.174C241.155 121.174 238.951 122.352 238.951 124.385C238.951 126.418 241.155 127.596 244.803 127.596C248.451 127.596 250.674 126.418 250.674 124.385C250.674 122.352 248.451 121.174 244.803 121.174ZM250.541 114.676V110.439H248.622V120.87H250.541V116.291H252.46V114.676H250.541ZM268.912 118.552C265.53 117.982 262.775 115.436 262.775 112.776V111.484H260.704V112.776C260.704 115.417 257.949 117.982 254.548 118.552L255.384 120.186C258.177 119.635 260.609 117.925 261.749 115.645C262.851 117.925 265.283 119.635 268.095 120.186L268.912 118.552ZM262.699 123.853V119.844H260.742V123.853H254.035V125.468H269.577V123.853H262.699ZM287.238 116.386H279.6V114.467H287.238V116.386ZM289.176 110.99H287.238V112.966H279.6V110.99H277.662V117.925H289.176V110.99ZM279.505 122.58H277.548V127.273H289.48V125.677H279.505V122.58ZM275.648 119.369V120.946H282.602V124.005H284.559V120.946H291.209V119.369H275.648ZM302.931 117.203C300.841 117.659 298.998 117.754 295.711 117.773V113.27H301.392V111.674H293.754V119.369H295.141C298.865 119.369 300.898 119.255 303.14 118.799L302.931 117.203ZM300.955 126.019C298.58 126.019 297.174 125.373 297.174 124.214C297.174 123.055 298.58 122.428 300.955 122.428C303.33 122.428 304.736 123.055 304.736 124.214C304.736 125.373 303.33 126.019 300.955 126.019ZM300.955 120.851C297.44 120.851 295.236 122.124 295.236 124.214C295.236 126.323 297.44 127.615 300.955 127.615C304.47 127.615 306.674 126.323 306.674 124.214C306.674 122.124 304.47 120.851 300.955 120.851ZM306.522 114.714V110.439H304.527V120.509H306.522V116.329H308.916V114.714H306.522ZM316.723 111.826H314.747V114.657C314.747 117.868 313.075 121.174 310.396 122.485L311.631 124.043C313.588 123.036 314.994 121.041 315.754 118.609C316.495 120.908 317.882 122.789 319.82 123.758L320.979 122.181C318.357 120.965 316.723 117.849 316.723 114.657V111.826ZM322.784 110.401V116.044H319.117V117.64H322.784V127.615H324.76V110.401H322.784ZM340.187 123.53H342.144V110.439H340.187V114.866H337.565V116.462H340.187V118.514H337.565V120.091H340.187V123.53ZM337.489 112.396H333.784V110.42H331.827V112.396H327.97V113.954H337.489V112.396ZM330.706 118.077C330.706 116.975 331.561 116.272 332.796 116.272C334.05 116.272 334.905 116.975 334.905 118.077C334.905 119.198 334.05 119.863 332.796 119.863C331.561 119.863 330.706 119.198 330.706 118.077ZM336.748 118.077C336.748 116.082 335.133 114.752 332.796 114.752C330.478 114.752 328.863 116.082 328.863 118.077C328.863 120.053 330.478 121.402 332.796 121.402C335.133 121.402 336.748 120.053 336.748 118.077ZM332.948 125.677V122.428H330.972V127.273H342.543V125.677H332.948ZM349.267 122.466H347.291V127.273H359.128V125.677H349.267V122.466ZM349.286 114.562H356.924V116.462H349.286V114.562ZM354.074 119.673V118.02H358.862V111.104H356.924V113.042H349.286V111.104H347.348V118.02H352.098V119.673H345.315V121.25H360.876V119.673H354.074ZM372.959 118.457C370.413 117.564 368.95 115.417 368.95 113.289V113.004H372.522V111.427H363.345V113.004H366.974V113.289C366.974 115.626 365.416 117.887 362.756 118.818L363.763 120.357C365.796 119.654 367.24 118.153 368 116.31C368.722 117.982 370.109 119.312 372.009 119.977L372.959 118.457ZM367.639 122.751H375.068V125.829H367.639V122.751ZM365.72 127.387H376.987V121.193H365.72V127.387ZM375.03 110.42V114.6H371.99V116.196H375.03V120.414H376.987V110.42H375.03Z" fill="#154734"/>
</svg>
