<svg id="레이어_1" data-name="레이어 1" xmlns="http://www.w3.org/2000/svg" viewBox="0 0 554.18 291.48"><defs><style>.cls-1{fill:#fff;}.cls-2{fill:#e5e5e5;}.cls-3{fill:#ffcd00;}.cls-4{opacity:0.75;}.cls-5{fill:#acdae5;}.cls-6{fill:#4d4d4d;}.cls-7{fill:#154734;}</style></defs><rect class="cls-1" width="554.18" height="291.48"/><rect class="cls-2" x="172.17" width="73.4" height="174.91"/><rect class="cls-2" x="264.31" y="-7.38" width="100.48" height="264.09" transform="translate(439.22 -189.88) rotate(90)"/><rect class="cls-3" x="143.68" y="95.94" width="250.92" height="51.37" rx="25.68"/><g class="cls-4"><rect class="cls-5" x="499.18" width="55" height="291.48"/></g><rect class="cls-2" y="190.66" width="118.47" height="100.82"/><rect class="cls-2" x="172.44" y="190.66" width="73.34" height="100.82"/><rect class="cls-2" x="256.68" y="190.66" width="51.92" height="100.82"/><rect class="cls-2" x="320.14" y="190.66" width="126.46" height="100.82"/><rect class="cls-2" width="118.47" height="61.76"/><rect class="cls-2" y="74.43" width="118.47" height="100.82"/><path class="cls-6" d="M14.18,109a8.91,8.91,0,0,1,1.92.2,5.3,5.3,0,0,1,1.53.58,2.88,2.88,0,0,1,1,.89,2.07,2.07,0,0,1,.36,1.17,2,2,0,0,1-.43,1.28,3.26,3.26,0,0,1-1.18.92v2.59h3.83v1.17H7.12V116.6h4v-2.5a3.46,3.46,0,0,1-1.33-.94,2.13,2.13,0,0,1-.11-2.52,3,3,0,0,1,1-.89,5.55,5.55,0,0,1,1.55-.58A9,9,0,0,1,14.18,109Zm5.79-.81H8.35V107H20Zm-5.79,1.92a7,7,0,0,0-1.22.1,3.6,3.6,0,0,0-1,.33,2,2,0,0,0-.72.54,1.26,1.26,0,0,0,0,1.56,2,2,0,0,0,.72.54,4,4,0,0,0,1,.31,7,7,0,0,0,1.22.1,6.75,6.75,0,0,0,1.19-.1,4.29,4.29,0,0,0,1-.31,2,2,0,0,0,.72-.54,1.15,1.15,0,0,0,.28-.78,1.18,1.18,0,0,0-.28-.8,1.88,1.88,0,0,0-.72-.53,4.29,4.29,0,0,0-1-.32A6.75,6.75,0,0,0,14.18,110.08Zm3-4.26H11.09V104.6h6.12ZM16,114.46a6.5,6.5,0,0,1-.9.15c-.31,0-.63,0-1,0s-.59,0-.87,0-.54-.06-.79-.1v2.08H16Z"/><path class="cls-6" d="M23.09,105.09h8.06v1.16H27.77v1.49A8.94,8.94,0,0,0,28,110a7.33,7.33,0,0,0,.76,1.92,7.6,7.6,0,0,0,1.32,1.75A9.76,9.76,0,0,0,32,115.07c-.15.13-.32.29-.52.49s-.35.35-.46.48a9,9,0,0,1-1.15-.83,7.72,7.72,0,0,1-1-1,9.72,9.72,0,0,1-1-1.36,8.47,8.47,0,0,1-.77-1.57,7.4,7.4,0,0,1-.63,1.52,10.73,10.73,0,0,1-.93,1.41,10.07,10.07,0,0,1-1.12,1.3,10.87,10.87,0,0,1-1.18,1c-.16-.14-.36-.3-.58-.47s-.44-.33-.65-.47a9.12,9.12,0,0,0,1.85-1.45,9,9,0,0,0,1.39-1.86,8.92,8.92,0,0,0,.85-2.16,10.79,10.79,0,0,0,.29-2.54v-1.26H23.09Zm11.37,14.49H33.1V104.2h1.36v5.9h2.28v1.23H34.46Z"/><path class="cls-6" d="M51.44,114.14H37.37V113h6.32v-2.12h1.44V113h6.31Zm-13.31-3.73a16.82,16.82,0,0,0,1.72-.34,10.34,10.34,0,0,0,1.68-.55,4.82,4.82,0,0,0,1.31-.77,2.19,2.19,0,0,0,.73-1.1H39v-1.09H49.79v1.09H45.23a2.23,2.23,0,0,0,.75,1.1,6.2,6.2,0,0,0,1.33.81,12,12,0,0,0,1.66.55,16.6,16.6,0,0,0,1.66.32l-.87,1c-.45-.08-.93-.18-1.44-.32a9.7,9.7,0,0,1-1.49-.51,7.2,7.2,0,0,1-1.36-.76,4.14,4.14,0,0,1-1-1.08,4.27,4.27,0,0,1-1,1,7.42,7.42,0,0,1-1.29.76,12.42,12.42,0,0,1-1.52.54,14.43,14.43,0,0,1-1.58.36Zm1.49,8.84a.44.44,0,0,1-.29-.08.42.42,0,0,1-.07-.29v-3.57h1.37v2.76h9.49v1.18Zm1.92-15.17h5.67v1.09H41.54Z"/><path class="cls-6" d="M64.47,105.42a.37.37,0,0,1,.29.08.39.39,0,0,1,.08.28c0,.89-.11,1.8-.21,2.74s-.23,1.86-.38,2.77-.32,1.79-.51,2.64-.39,1.61-.6,2.3h3.43v1.18H52.46v-1.18h9.29c.21-.67.41-1.43.62-2.29s.38-1.72.53-2.6.29-1.71.39-2.54a20.92,20.92,0,0,0,.14-2.2H54.07v-1.18Z"/><path class="cls-6" d="M69.08,113.27a.39.39,0,0,1-.28-.08.37.37,0,0,1-.08-.29v-4.14c0-.14,0-.23.08-.28s.14-.08.28-.08h5.31v-2.46H68.72v-1.16h6.64a.41.41,0,0,1,.28.07.44.44,0,0,1,.08.29v4a.42.42,0,0,1-.08.29.41.41,0,0,1-.28.07H70.05v2.55h1.7c.63,0,1.25,0,1.88,0s1.23-.07,1.81-.12l1.55-.18c.47-.07.86-.13,1.17-.2v1.16q-.5.1-1.26.21c-.51.07-1.06.13-1.67.19s-1.25.1-1.94.14-1.35,0-2,0Zm1.67,6a.3.3,0,0,1-.37-.37v-4.14h1.37v3.33h9v1.18ZM79,115.54V104.2h1.35v11.34Z"/><path class="cls-6" d="M84.11,105l6.77,0v1.21h-5.8v3.53h5.56v1.18H85.08v3.71h1.65c.46,0,1,0,1.51,0l1.62-.11c.55-.05,1.06-.1,1.54-.16s.91-.12,1.27-.19v1.14a14.54,14.54,0,0,1-1.61.27c-.6.08-1.23.14-1.87.18s-1.3.08-1.94.11l-1.82,0H84.11a.37.37,0,0,1-.29-.08.39.39,0,0,1-.08-.28V105.31a.39.39,0,0,1,.08-.28A.42.42,0,0,1,84.11,105Zm9.31,14.64V104.2H94.8v5.45h2.29v1.26H94.8v8.68Z"/><path class="cls-6" d="M111.89,113.15h-6.13v3.31h-1.37v-3.31H97.82V112h14.07Zm-12.43-5.81a2.72,2.72,0,0,1,1.38-2.36,9.36,9.36,0,0,1,8,0,2.73,2.73,0,0,1,1.37,2.36,2.61,2.61,0,0,1-1.36,2.31,9.87,9.87,0,0,1-8.06,0A2.61,2.61,0,0,1,99.46,107.34Zm.61,11.91a.44.44,0,0,1-.29-.08.42.42,0,0,1-.07-.29v-4H101v3.19h9.53v1.18Zm8.72-11.91a1.76,1.76,0,0,0-1.09-1.62,6.19,6.19,0,0,0-2.83-.56,6.28,6.28,0,0,0-2.86.55,1.77,1.77,0,0,0-1.07,1.63,1.65,1.65,0,0,0,1,1.55,6.76,6.76,0,0,0,2.88.51,6.65,6.65,0,0,0,2.84-.51A1.65,1.65,0,0,0,108.79,107.34Z"/><path class="cls-6" d="M38.09,137.93a12.55,12.55,0,0,1,.32-3,6.66,6.66,0,0,1,.91-2.19,3.91,3.91,0,0,1,1.37-1.32,3.46,3.46,0,0,1,1.73-.45,3.68,3.68,0,0,1,2.56.89,3.72,3.72,0,0,1,1.17,2.4H44.78a2.12,2.12,0,0,0-.73-1.55,2.38,2.38,0,0,0-1.61-.58,2.15,2.15,0,0,0-1.53.57,4.15,4.15,0,0,0-1,1.44,7.58,7.58,0,0,0-.51,1.86,12.68,12.68,0,0,0-.15,1.87,3,3,0,0,1,1.28-1.66,4,4,0,0,1,2.07-.54,3.38,3.38,0,0,1,2.71,1.16,4.58,4.58,0,0,1,1,3.08,5.1,5.1,0,0,1-.27,1.68,4,4,0,0,1-.79,1.37,3.7,3.7,0,0,1-1.23.9,4,4,0,0,1-1.65.33A3.91,3.91,0,0,1,40,143.4a4,4,0,0,1-1.4-1.92A7.14,7.14,0,0,1,38.2,140,14.49,14.49,0,0,1,38.09,137.93Zm4.19-1.23a2.32,2.32,0,0,0-1.08.25,2.86,2.86,0,0,0-.84.65,2.94,2.94,0,0,0-.56,1,3.31,3.31,0,0,0-.19,1.13,4.68,4.68,0,0,0,.18,1.32,3.09,3.09,0,0,0,.53,1,2.53,2.53,0,0,0,.83.7,2.34,2.34,0,0,0,1.1.25,2.41,2.41,0,0,0,2-.91,3.55,3.55,0,0,0,.71-2.24,4,4,0,0,0-.18-1.2,2.76,2.76,0,0,0-.52-1,2.33,2.33,0,0,0-.83-.69A2.51,2.51,0,0,0,42.28,136.7Z"/><path class="cls-6" d="M53.15,131.54v12.32H51.78V132.7a6.53,6.53,0,0,1-1.17,1,14.82,14.82,0,0,1-1.54.87v-1.31a7.56,7.56,0,0,0,1.44-.85,13,13,0,0,0,1.32-1.16h1a.37.37,0,0,1,.26.07A.38.38,0,0,1,53.15,131.54Z"/><path class="cls-6" d="M57.69,142.56l.72-.7.92-.91c.33-.34.66-.7,1-1.08s.69-.77,1-1.18.65-.79,1-1.18a11.23,11.23,0,0,0,.78-1.16,6.43,6.43,0,0,0,.55-1.07,2.59,2.59,0,0,0,.2-.92,2.11,2.11,0,0,0-.66-1.69,2.54,2.54,0,0,0-1.7-.56,2.14,2.14,0,0,0-1.64.69,2.57,2.57,0,0,0-.63,1.8H57.79a3.87,3.87,0,0,1,.28-1.51,3.17,3.17,0,0,1,.78-1.17,3.26,3.26,0,0,1,1.19-.75,4.52,4.52,0,0,1,4.15.59,3,3,0,0,1,1.07,2.5,4.69,4.69,0,0,1-.68,2.3,16.07,16.07,0,0,1-1.64,2.32c-.64.75-1.3,1.46-2,2.12s-1.25,1.21-1.7,1.66h6.28v1.2H57.93a.3.3,0,0,1-.2-.05.37.37,0,0,1,0-.21Z"/><path class="cls-6" d="M69.37,130.65h10v1.13h-9v2.67h9.12v1.14H74.84v2.08h6.35v1.18H67.12v-1.18h6.32v-2.08H69.37a.44.44,0,0,1-.3-.07.43.43,0,0,1-.07-.28V131a.3.3,0,0,1,.37-.37Zm-.73,12.24a2.45,2.45,0,0,1,1.42-2.13,8.13,8.13,0,0,1,4.09-.84,8.12,8.12,0,0,1,4.08.84,2.3,2.3,0,0,1,0,4.26,8.25,8.25,0,0,1-4.09.83,8.25,8.25,0,0,1-4.09-.83A2.45,2.45,0,0,1,68.64,142.89Zm1.51,0a1.56,1.56,0,0,0,1.09,1.43,8.8,8.8,0,0,0,5.79,0,1.57,1.57,0,0,0,1.13-1.43c0-.59-.38-1.05-1.13-1.39a7.19,7.19,0,0,0-2.88-.5,7.34,7.34,0,0,0-2.91.49A1.54,1.54,0,0,0,70.15,142.87Z"/><path class="cls-7" d="M194.73,121.88a4.79,4.79,0,0,1-1.69-.29,4,4,0,0,1-1.32-.82,3.51,3.51,0,0,1-.83-1.24,4,4,0,0,1-.3-1.57,3.92,3.92,0,0,1,.3-1.54,3.57,3.57,0,0,1,.83-1.23,4,4,0,0,1,1.32-.82,4.76,4.76,0,0,1,3.38,0,4.1,4.1,0,0,1,1.31.82,3.85,3.85,0,0,1,1.15,2.77,3.86,3.86,0,0,1-.31,1.57,3.68,3.68,0,0,1-.84,1.24,4.1,4.1,0,0,1-1.31.82A4.79,4.79,0,0,1,194.73,121.88Zm0-6.15a2,2,0,0,0-1.6.64,2.58,2.58,0,0,0,0,3.21,2.31,2.31,0,0,0,3.21,0,2.58,2.58,0,0,0,0-3.21A2,2,0,0,0,194.73,115.73Zm-2,13.1v-6h1.94v1.64h6.31v-1.64h1.92v6a.49.49,0,0,1-.11.38.53.53,0,0,1-.37.11h-9.2a.55.55,0,0,1-.39-.11A.54.54,0,0,1,192.69,128.83Zm8.25-1.09V126h-6.31v1.7ZM202.88,114v3h2v1.67h-2v3.62h-2V114Z"/><path class="cls-7" d="M217.63,114.44a.42.42,0,0,1,.48.49c0,.36-.05.8-.1,1.33s-.11,1.07-.19,1.65-.17,1.15-.26,1.73-.19,1.08-.29,1.53h2.42v1.65H213.4v6.65h-2v-6.65h-6v-1.65h9.9c.09-.36.18-.76.27-1.21s.18-.89.25-1.34.12-.91.16-1.34.07-.82.08-1.17h-9.14v-1.67Z"/><path class="cls-7" d="M229,122.66a11.63,11.63,0,0,1-2.08-1.26,5.25,5.25,0,0,1-1.42-1.55,4.51,4.51,0,0,1-1.37,1.69,13.47,13.47,0,0,1-2.23,1.52l-1.46-1.3a7.16,7.16,0,0,0,3-2,4.31,4.31,0,0,0,1-2.81v-.71h-2.79v-1.63h7.71v1.63H226.5V117a3.79,3.79,0,0,0,1,2.62,5.83,5.83,0,0,0,2.67,1.64Zm-.26.55a10.17,10.17,0,0,1,2.2.23,6.51,6.51,0,0,1,1.76.64,3.58,3.58,0,0,1,1.15,1,2.53,2.53,0,0,1,0,2.79,3.49,3.49,0,0,1-1.15,1,6.5,6.5,0,0,1-1.76.62,11,11,0,0,1-2.21.21,10.74,10.74,0,0,1-2.2-.21,6.24,6.24,0,0,1-1.74-.62,3.3,3.3,0,0,1-1.15-1,2.45,2.45,0,0,1-.41-1.4,2.3,2.3,0,0,1,.43-1.37,3.61,3.61,0,0,1,1.17-1,6.31,6.31,0,0,1,1.75-.64A9.87,9.87,0,0,1,228.7,123.21Zm0,1.55a5.81,5.81,0,0,0-2.46.45,1.38,1.38,0,0,0-1,1.25,1.45,1.45,0,0,0,1,1.29,5.63,5.63,0,0,0,2.45.47,5.46,5.46,0,0,0,2.47-.48,1.46,1.46,0,0,0,1-1.28,1.36,1.36,0,0,0-.94-1.26A5.77,5.77,0,0,0,228.7,124.76Zm3.26-1.41V119h-2.87v-1.63H232v-3.4h1.94v9.41Z"/><path class="cls-7" d="M237.32,119.8v-5.72h1.94v1.53h7v-1.53h2v5.72a.49.49,0,0,1-.12.38.51.51,0,0,1-.37.11h-3.93v1.47h6.15v1.64H235.6v-1.64h6.14v-1.47h-4a.52.52,0,0,1-.38-.11A.6.6,0,0,1,237.32,119.8Zm4.57,4.75a.56.56,0,0,1,.38.11.54.54,0,0,1,.11.37v4.53h-2v-3.35H237v-1.66Zm4.32-5.86v-1.56h-7v1.56Zm1.56,5.86a.53.53,0,0,1,.37.11.5.5,0,0,1,.11.37v4.53H246.3v-3.35h-3.37v-1.66Z"/><path class="cls-7" d="M250.71,121.39H265v1.67h-14.3Zm2.26-1.87a.48.48,0,0,1-.37-.1.54.54,0,0,1-.1-.38V114h2v3.89h9v1.64Zm0,9.66a.48.48,0,0,1-.37-.11.53.53,0,0,1-.1-.38v-4.42h2v3.24h9.27v1.67Z"/><path class="cls-7" d="M271.18,120.37a6.77,6.77,0,0,1-1.31.2c-.45,0-.91,0-1.37,0h-1.81v-1.54h2.53c.49,0,.93,0,1.34,0a8.19,8.19,0,0,0,1.25-.18,11.08,11.08,0,0,0,.28-1.17,11.76,11.76,0,0,0,.17-1.23H267.2v-1.6h6.72a.53.53,0,0,1,.37.11.51.51,0,0,1,.12.38,14.33,14.33,0,0,1-1.77,6.25,14.76,14.76,0,0,1-4.78,5l-1.63-1.31a12.69,12.69,0,0,0,2.87-2.1A10.51,10.51,0,0,0,271.18,120.37Zm5.9,9.1v-8.34H274v-1.75h3.09V114H279v15.51Z"/><path class="cls-7" d="M290.75,116.56h-1.47l0,7.28,1.17-.09c.42,0,.8-.07,1.12-.12v1.61a28,28,0,0,1-3.81.31q-2.13.06-4.56.06h-1.68V124h1.7l-.06-7.4h-1.28v-1.68h8.91Zm-3.43,7.36,0-7.36h-2.27l0,7.38h1.46C286.83,123.94,287.08,123.94,287.32,123.92Zm7-10v15.51h-2V114Z"/><path class="cls-7" d="M315.38,123.39h-5.91v3h-2v-3h-6.38v-1.65h14.3ZM302.79,120v-5.91h1.95v1.65h6.95v-1.65h1.95V120a.48.48,0,0,1-.11.38.53.53,0,0,1-.37.11h-9.9a.49.49,0,0,1-.37-.11A.58.58,0,0,1,302.79,120Zm.54,9.19a.49.49,0,0,1-.37-.11.58.58,0,0,1-.1-.38v-4.21h2v3h9.27v1.67Zm8.36-10.32v-1.54h-6.95v1.54Z"/><path class="cls-7" d="M317.59,121.59a.51.51,0,0,1-.37-.11.6.6,0,0,1-.09-.38v-6a.53.53,0,0,1,.1-.37.49.49,0,0,1,.38-.12h6.9v1.65h-5.44v3.69l2.15,0c.32,0,.71,0,1.16,0l1.38-.11c.49,0,.95-.1,1.39-.17s.82-.13,1.13-.2V121c-.26.06-.6.12-1,.19s-.91.13-1.43.19-1.06.11-1.62.15-1.12.06-1.65.06h-3Zm6,1.62a10,10,0,0,1,2.18.23,6.43,6.43,0,0,1,1.75.64,3.34,3.34,0,0,1,1.14,1,2.53,2.53,0,0,1,0,2.79,3.27,3.27,0,0,1-1.14,1,6.43,6.43,0,0,1-1.75.62,10.74,10.74,0,0,1-2.2.21,10.57,10.57,0,0,1-2.19-.21,6.17,6.17,0,0,1-1.73-.62,3.32,3.32,0,0,1-1.13-1,2.45,2.45,0,0,1-.41-1.4,2.36,2.36,0,0,1,.42-1.37,3.47,3.47,0,0,1,1.16-1,6.24,6.24,0,0,1,1.74-.64A9.74,9.74,0,0,1,323.63,123.21Zm0,1.55a5.7,5.7,0,0,0-2.45.45,1.38,1.38,0,0,0-.93,1.25,1.44,1.44,0,0,0,.94,1.29,5.52,5.52,0,0,0,2.44.47,5.37,5.37,0,0,0,2.45-.48,1.45,1.45,0,0,0,.93-1.28,1.37,1.37,0,0,0-.92-1.26A5.7,5.7,0,0,0,323.63,124.76Zm3.2-1.67V114h2v3h2v1.65h-2v4.5Z"/><path class="cls-7" d="M335,124a3.06,3.06,0,0,1-1.2-.84,1.86,1.86,0,0,1-.41-1.2,2.18,2.18,0,0,1,1.38-2,10,10,0,0,1,7.41,0,2.18,2.18,0,0,1,1.4,2,1.83,1.83,0,0,1-.41,1.17A3.12,3.12,0,0,1,342,124v2.56h3.61v1.65H331.3v-1.65H335Zm-2.55-7.07h12v1.63h-12Zm2.7-2.68h6.57v1.57h-6.57Zm3.33,6.48a5.35,5.35,0,0,0-2.08.31,1,1,0,0,0-.71.92,1,1,0,0,0,.7.9,7.17,7.17,0,0,0,4.17,0,1,1,0,0,0,.71-.9,1,1,0,0,0-.72-.92A5.36,5.36,0,0,0,338.46,120.72Zm0,3.92q-.42,0-.81,0c-.27,0-.52,0-.77-.08v2h3.19v-2c-.25,0-.51.06-.79.08S338.74,124.64,338.46,124.64Z"/><path class="cls-7" d="M346,125.29a9,9,0,0,0,3.16-3.07,8.51,8.51,0,0,0,1.09-4.45v-1.26h-3.1v-1.63h8.37v1.63h-3.19v1.35a8.19,8.19,0,0,0,1,4.14,7.73,7.73,0,0,0,3,2.88l-1.41,1.33a10.85,10.85,0,0,1-2.11-1.79,8,8,0,0,1-1.51-2.26,7.69,7.69,0,0,1-1.43,2.39,11.74,11.74,0,0,1-2.21,2Zm13-11.35v5.86h2.15v1.75h-2.15v7.92h-2V113.94Z"/><path class="cls-7" d="M370,122.49a11.71,11.71,0,0,1-2.09-1.26,5.19,5.19,0,0,1-1.41-1.55,4.7,4.7,0,0,1-1.37,1.69,12.84,12.84,0,0,1-2.23,1.51l-1.46-1.29a7.13,7.13,0,0,0,3-2,4.24,4.24,0,0,0,1-2.81v-.53h-2.79v-1.63h7.72v1.63h-2.83v.55a3.82,3.82,0,0,0,1,2.63,5.91,5.91,0,0,0,2.67,1.64Zm-5,1.11h9.44a.51.51,0,0,1,.38.11.53.53,0,0,1,.11.37v4.73a.52.52,0,0,1-.11.38.56.56,0,0,1-.38.11H365a.41.41,0,0,1-.49-.49v-4.73a.53.53,0,0,1,.11-.37A.48.48,0,0,1,365,123.6Zm8,4.1v-2.49h-6.54v2.49Zm-3-10.34h3V114h2v9h-2V119h-3Z"/><path class="cls-6" d="M14.18,227a8.91,8.91,0,0,1,1.92.2,5.61,5.61,0,0,1,1.53.58,2.91,2.91,0,0,1,1,.9,2.09,2.09,0,0,1-.07,2.44,3.28,3.28,0,0,1-1.18.93v2.58h3.83v1.18H7.12v-1.18h4v-2.5a3.35,3.35,0,0,1-1.33-.94,2,2,0,0,1-.47-1.34,2,2,0,0,1,.36-1.17,3,3,0,0,1,1-.9,5.88,5.88,0,0,1,1.55-.58A9,9,0,0,1,14.18,227Zm5.79-.81H8.35v-1.16H20Zm-5.79,1.92a7,7,0,0,0-1.22.11,3.6,3.6,0,0,0-1,.33,1.88,1.88,0,0,0-.72.53,1.26,1.26,0,0,0,0,1.56,2,2,0,0,0,.72.54,4,4,0,0,0,1,.31,7,7,0,0,0,1.22.11,6.75,6.75,0,0,0,1.19-.11,4.29,4.29,0,0,0,1-.31,2,2,0,0,0,.72-.54,1.24,1.24,0,0,0,0-1.57,2,2,0,0,0-.72-.54,4.29,4.29,0,0,0-1-.31A6.75,6.75,0,0,0,14.18,228.13Zm3-4.26H11.09v-1.21h6.12ZM16,232.52a5.28,5.28,0,0,1-.9.14c-.31,0-.63.05-1,.05a8.19,8.19,0,0,1-.87,0,6.55,6.55,0,0,1-.79-.1v2.08H16Z"/><path class="cls-6" d="M23.09,223.14h8.06v1.16H27.77v1.49A8.88,8.88,0,0,0,28,228a7.93,7.93,0,0,0,2.08,3.67A9.37,9.37,0,0,0,32,233.12c-.15.13-.32.29-.52.49l-.46.48a9,9,0,0,1-1.15-.83,7.72,7.72,0,0,1-1-1,9.17,9.17,0,0,1-1-1.36,8.47,8.47,0,0,1-.77-1.57,7.4,7.4,0,0,1-.63,1.52,10.73,10.73,0,0,1-.93,1.41,9.44,9.44,0,0,1-1.12,1.3,9.84,9.84,0,0,1-1.18,1c-.16-.14-.36-.29-.58-.47s-.44-.33-.65-.47a9.12,9.12,0,0,0,1.85-1.45,8.73,8.73,0,0,0,2.24-4,10.77,10.77,0,0,0,.29-2.53V224.3H23.09Zm11.37,14.49H33.1V222.26h1.36v5.89h2.28v1.23H34.46Z"/><path class="cls-6" d="M51.44,232.19H37.37V231h6.32V228.9h1.44V231h6.31Zm-13.31-3.73a16.82,16.82,0,0,0,1.72-.34,10.33,10.33,0,0,0,1.68-.54,5.11,5.11,0,0,0,1.31-.78,2.16,2.16,0,0,0,.73-1.09H39v-1.1H49.79v1.1H45.23A2.2,2.2,0,0,0,46,226.8a6.2,6.2,0,0,0,1.33.81,12,12,0,0,0,1.66.55,16.6,16.6,0,0,0,1.66.32l-.87,1.06c-.45-.08-.93-.19-1.44-.32a10.94,10.94,0,0,1-1.49-.52,6.68,6.68,0,0,1-1.36-.76,4.27,4.27,0,0,1-1-1.07,4.42,4.42,0,0,1-1,1,7.46,7.46,0,0,1-1.29.77,14.31,14.31,0,0,1-1.52.53c-.52.15-1.05.27-1.58.37Zm1.49,8.84a.44.44,0,0,1-.29-.08.39.39,0,0,1-.07-.28v-3.57h1.37v2.75h9.49v1.18Zm1.92-15.16h5.67v1.09H41.54Z"/><path class="cls-6" d="M64.47,223.47a.42.42,0,0,1,.29.08.41.41,0,0,1,.08.28c0,.89-.11,1.81-.21,2.74s-.23,1.86-.38,2.78-.32,1.79-.51,2.63-.39,1.61-.6,2.31h3.43v1.17H52.46v-1.17h9.29c.21-.67.41-1.44.62-2.29s.38-1.72.53-2.6.29-1.72.39-2.55a20.92,20.92,0,0,0,.14-2.2H54.07v-1.18Z"/><path class="cls-6" d="M69.08,231.32c-.14,0-.23,0-.28-.08s-.08-.14-.08-.28v-4.14a.37.37,0,0,1,.08-.29.39.39,0,0,1,.28-.08h5.31V224H68.72v-1.16h6.64a.3.3,0,0,1,.36.36v4a.42.42,0,0,1-.08.29.41.41,0,0,1-.28.08H70.05v2.55h1.7c.63,0,1.25,0,1.88-.06s1.23-.07,1.81-.12,1.09-.12,1.55-.18.86-.13,1.17-.2v1.16q-.5.11-1.26.21c-.51.07-1.06.13-1.67.19s-1.25.1-1.94.14-1.35,0-2,0Zm1.67,6a.42.42,0,0,1-.29-.08.39.39,0,0,1-.08-.28v-4.15h1.37v3.33h9v1.18ZM79,233.59V222.26h1.35v11.33Z"/><path class="cls-6" d="M84.11,223l6.77,0v1.21h-5.8v3.54h5.56v1.18H85.08v3.7h1.65c.46,0,1,0,1.51,0l1.62-.11c.55,0,1.06-.1,1.54-.16s.91-.12,1.27-.19v1.15c-.47.1-1,.19-1.61.26s-1.23.14-1.87.19-1.3.08-1.94.1l-1.82,0H84.11a.42.42,0,0,1-.29-.07.44.44,0,0,1-.08-.29v-10.1a.3.3,0,0,1,.37-.37Zm9.31,14.65V222.26H94.8v5.44h2.29V229H94.8v8.69Z"/><path class="cls-6" d="M111.89,231.2h-6.13v3.31h-1.37V231.2H97.82V230h14.07Zm-12.43-5.81a2.73,2.73,0,0,1,1.38-2.36,9.36,9.36,0,0,1,8,0,2.74,2.74,0,0,1,1.37,2.36,2.62,2.62,0,0,1-1.36,2.32,9.87,9.87,0,0,1-8.06,0A2.62,2.62,0,0,1,99.46,225.39Zm.61,11.91a.44.44,0,0,1-.29-.08.39.39,0,0,1-.07-.28v-4H101v3.19h9.53v1.18Zm8.72-11.91a1.76,1.76,0,0,0-1.09-1.62,6.19,6.19,0,0,0-2.83-.56,6.27,6.27,0,0,0-2.86.56,1.76,1.76,0,0,0-1.07,1.62,1.65,1.65,0,0,0,1,1.56,6.76,6.76,0,0,0,2.88.51,6.65,6.65,0,0,0,2.84-.51A1.65,1.65,0,0,0,108.79,225.39Z"/><path class="cls-6" d="M38.09,256a12.61,12.61,0,0,1,.32-3,6.66,6.66,0,0,1,.91-2.19,3.91,3.91,0,0,1,1.37-1.32,3.46,3.46,0,0,1,1.73-.45,3.54,3.54,0,0,1,3.73,3.3H44.78a2.14,2.14,0,0,0-.73-1.56,2.43,2.43,0,0,0-1.61-.58,2.11,2.11,0,0,0-1.53.58,4.2,4.2,0,0,0-1,1.43,7.71,7.71,0,0,0-.51,1.86,12.68,12.68,0,0,0-.15,1.87,3,3,0,0,1,1.28-1.65,3.88,3.88,0,0,1,2.07-.55,3.41,3.41,0,0,1,2.71,1.16,4.59,4.59,0,0,1,1,3.09,5.1,5.1,0,0,1-.27,1.68,4.06,4.06,0,0,1-.79,1.37,3.7,3.7,0,0,1-1.23.9,4,4,0,0,1-1.65.33,3.91,3.91,0,0,1-2.43-.76,4,4,0,0,1-1.4-1.91A7.38,7.38,0,0,1,38.2,258,14.49,14.49,0,0,1,38.09,256Zm4.19-1.23a2.33,2.33,0,0,0-1.08.26,2.68,2.68,0,0,0-.84.64,2.89,2.89,0,0,0-.56,1,3.25,3.25,0,0,0-.19,1.12,4.58,4.58,0,0,0,.18,1.32,3,3,0,0,0,.53,1,2.41,2.41,0,0,0,.83.7,2.35,2.35,0,0,0,1.1.26,2.44,2.44,0,0,0,2-.91,3.58,3.58,0,0,0,.71-2.25,4.06,4.06,0,0,0-.18-1.2,2.63,2.63,0,0,0-.52-1,2.46,2.46,0,0,0-.83-.7A2.51,2.51,0,0,0,42.28,254.75Z"/><path class="cls-6" d="M53.15,249.59v12.32H51.78V250.75a5.78,5.78,0,0,1-1.17,1,14.84,14.84,0,0,1-1.54.88v-1.32a7.07,7.07,0,0,0,1.44-.85,11.92,11.92,0,0,0,1.32-1.16h1a.37.37,0,0,1,.26.07A.4.4,0,0,1,53.15,249.59Z"/><path class="cls-6" d="M64.29,258.41a2.35,2.35,0,0,0-.24-1.1,2.13,2.13,0,0,0-.64-.75,3.06,3.06,0,0,0-.93-.44,5.23,5.23,0,0,0-1-.17h-.69c-.14,0-.22,0-.25,0a.56.56,0,0,1,0-.24V255a.85.85,0,0,1,0-.28s.11-.07.25-.07h.57a3.78,3.78,0,0,0,1-.13,2.35,2.35,0,0,0,.86-.4,1.85,1.85,0,0,0,.61-.69,2.15,2.15,0,0,0,.22-1,2,2,0,0,0-.72-1.68,2.77,2.77,0,0,0-1.81-.59,2.54,2.54,0,0,0-1.77.59,2.48,2.48,0,0,0-.76,1.7H57.57a3.23,3.23,0,0,1,1.1-2.55,4.28,4.28,0,0,1,2.86-.93,5.49,5.49,0,0,1,1.47.19,3.7,3.7,0,0,1,1.24.62,3.16,3.16,0,0,1,.84,1.06,3.38,3.38,0,0,1,.32,1.52,2.94,2.94,0,0,1-.71,1.94,3.05,3.05,0,0,1-1.86,1.06,3.24,3.24,0,0,1,2.06,1.07,3.13,3.13,0,0,1,.79,2.14,3.5,3.5,0,0,1-.36,1.65,3.39,3.39,0,0,1-.94,1.14A4.2,4.2,0,0,1,63,262a5.87,5.87,0,0,1-1.56.21,4.22,4.22,0,0,1-3-1,3.66,3.66,0,0,1-1.12-2.74h1.37a2.82,2.82,0,0,0,.83,1.89,2.73,2.73,0,0,0,1.93.64,2.93,2.93,0,0,0,2-.68A2.48,2.48,0,0,0,64.29,258.41Z"/><path class="cls-6" d="M69.37,248.71h10v1.12h-9v2.67h9.12v1.15H74.84v2.07h6.35v1.18H67.12v-1.18h6.32v-2.07H69.37a.5.5,0,0,1-.3-.07.45.45,0,0,1-.07-.28v-4.23a.44.44,0,0,1,.08-.29A.42.42,0,0,1,69.37,248.71Zm-.73,12.23a2.45,2.45,0,0,1,1.42-2.12,8.13,8.13,0,0,1,4.09-.84,8.12,8.12,0,0,1,4.08.84,2.3,2.3,0,0,1,0,4.25,8.14,8.14,0,0,1-4.09.83,8.14,8.14,0,0,1-4.09-.83A2.43,2.43,0,0,1,68.64,260.94Zm1.51,0a1.55,1.55,0,0,0,1.09,1.43,8.63,8.63,0,0,0,5.79,0,1.56,1.56,0,0,0,1.13-1.43c0-.59-.38-1.05-1.13-1.38a7,7,0,0,0-2.88-.51,7.15,7.15,0,0,0-2.91.5A1.53,1.53,0,0,0,70.15,260.92Z"/><path class="cls-6" d="M203,229.73a.39.39,0,0,1-.08.28.36.36,0,0,1-.28.08h-6.21c-.14,0-.23,0-.28-.08s-.08-.14-.08-.28v-6.95h1.35v2.42h4.3v-2.42H203v2.75h3.33v-3.27h1.37v8.84h-1.37v-4.41H203Zm-5.58-.8h4.3v-2.55h-4.3Zm.69,3h9.22a.3.3,0,0,1,.37.37v4.82a.41.41,0,0,1-.08.28.42.42,0,0,1-.29.08h-9.22a.39.39,0,0,1-.28-.08.36.36,0,0,1-.08-.28v-4.82a.37.37,0,0,1,.08-.29A.39.39,0,0,1,198.11,231.89Zm1,4.42h7.21V233h-7.21Z"/><path class="cls-6" d="M210.57,224.44h8.81v1.09h-8.81ZM215,232a4.56,4.56,0,0,1-2.76-.77,2.52,2.52,0,0,1,0-4.08,5.28,5.28,0,0,1,5.49,0,2.5,2.5,0,0,1,0,4.08A4.58,4.58,0,0,1,215,232Zm0-1a2.92,2.92,0,0,0,1.7-.46,1.51,1.51,0,0,0,.65-1.31,1.49,1.49,0,0,0-.65-1.3,2.85,2.85,0,0,0-1.7-.47,3,3,0,0,0-1.76.47,1.49,1.49,0,0,0-.65,1.3,1.51,1.51,0,0,0,.65,1.31A3,3,0,0,0,215,230.91Zm2.23-7.58h-4.54v-1.11h4.54Zm-4,14a.3.3,0,0,1-.36-.36V233h1.4v3.12H223v1.16Zm7.92-15h1.35v4.68h2.15v1.21h-2.15v5.42h-1.35Z"/><path class="cls-6" d="M187.3,260.32h14.1v1.18H187.3Zm12.48-10.07h-1.72l0,1.38c0,.45,0,.91,0,1.36l0,1.37c0,.46,0,.91,0,1.36h2.19v1.18H188.51v-1.18h2.17l0-1.36c0-.45,0-.91,0-1.37s0-.91,0-1.36,0-.92,0-1.38h-1.72v-1.16h10.89Zm-3.16,5.47c0-.45,0-.9,0-1.36s0-.91,0-1.37,0-.91,0-1.36l0-1.38H192l0,2.75c0,.92,0,1.82,0,2.72Z"/><path class="cls-6" d="M203.4,249h6.38a.3.3,0,0,1,.36.36v5.24a.39.39,0,0,1-.08.28.36.36,0,0,1-.28.08l-5.08,0v3.64h1.47c.63,0,1.24,0,1.86-.05l1.73-.13c.54-.05,1-.11,1.48-.18s.82-.13,1.14-.2v1.2q-.51.11-1.23.21c-.49.07-1,.13-1.6.19s-1.19.1-1.85.14-1.33.05-2,.05h-2a.3.3,0,0,1-.37-.37v-5.32a.41.41,0,0,1,.08-.28.42.42,0,0,1,.29-.08h5v-3.6H203.4Zm9.74,14.66V248.25h1.39v5.65h2.27v1.27h-2.27v8.49Z"/><path class="cls-6" d="M218.37,249.14h8.06v1.16h-3.38v1.49a9.42,9.42,0,0,0,.26,2.24,7.69,7.69,0,0,0,.76,1.92,7.43,7.43,0,0,0,1.33,1.75,9.09,9.09,0,0,0,1.88,1.42c-.15.13-.32.29-.52.49s-.35.35-.47.48a9.71,9.71,0,0,1-1.14-.83,7.72,7.72,0,0,1-1-1,9.79,9.79,0,0,1-1-1.36,9.12,9.12,0,0,1-.76-1.57,7.4,7.4,0,0,1-.63,1.52,11.83,11.83,0,0,1-.93,1.41,10.13,10.13,0,0,1-1.13,1.3,10,10,0,0,1-1.18,1c-.16-.14-.35-.3-.58-.47s-.44-.33-.65-.47a9.19,9.19,0,0,0,1.86-1.45,9,9,0,0,0,1.38-1.86,8.53,8.53,0,0,0,.85-2.16,10.26,10.26,0,0,0,.3-2.53V250.3h-3.28Zm11.37,14.49h-1.35V248.25h1.35v5.9H232v1.23h-2.29Z"/><path class="cls-6" d="M368.84,231.36h-6.13v3.27h-1.37v-3.27h-6.55v-1.18h14Zm-12.23-3.14v-5.81h1.33v1.89h7.69v-1.89H367v5.81a.44.44,0,0,1-.08.29.42.42,0,0,1-.29.07H357a.29.29,0,0,1-.36-.36Zm.41,9.08a.39.39,0,0,1-.28-.08c-.06-.05-.08-.14-.08-.28v-4H358v3.2h9.51v1.18Zm.92-9.88h7.69v-2h-7.69Z"/><path class="cls-6" d="M371.3,223H378v1.18h-5.68v4.38h.85c1.14,0,2.33,0,3.55-.14a27.24,27.24,0,0,0,3.4-.45v1.22c-.51.1-1.06.19-1.67.26s-1.23.15-1.88.2-1.34.08-2,.11l-2,0h-1.2c-.15,0-.25,0-.29-.07a.37.37,0,0,1-.07-.27v-6.09c0-.14,0-.23.08-.28S371.16,223,371.3,223Zm6,14.92a9.51,9.51,0,0,1-2.16-.22,5.2,5.2,0,0,1-1.64-.63,3.2,3.2,0,0,1-1.06-1,2.36,2.36,0,0,1-.36-1.29,2.3,2.3,0,0,1,.37-1.27,3.23,3.23,0,0,1,1.07-1,6.31,6.31,0,0,1,1.64-.65,10.12,10.12,0,0,1,4.29,0,6.18,6.18,0,0,1,1.66.65,3.1,3.1,0,0,1,1.06,1,2.31,2.31,0,0,1,.38,1.27,2.57,2.57,0,0,1-1.43,2.29A7.43,7.43,0,0,1,377.32,237.89Zm-3.77-3.14a1.37,1.37,0,0,0,.29.85,2.26,2.26,0,0,0,.81.66,4.2,4.2,0,0,0,1.18.42,7.7,7.7,0,0,0,1.49.14,7.8,7.8,0,0,0,1.5-.14,4.48,4.48,0,0,0,1.22-.42,2.32,2.32,0,0,0,.79-.64,1.34,1.34,0,0,0,.3-.85,1.67,1.67,0,0,0-1.08-1.49,6,6,0,0,0-2.73-.55,7,7,0,0,0-1.49.14,5.45,5.45,0,0,0-1.2.41,2.2,2.2,0,0,0-.79.63A1.36,1.36,0,0,0,373.55,234.75Zm8.62-12.48v3h2.13v1.2h-2.13v4.94h-1.35v-9.16Z"/><path class="cls-6" d="M390.45,225.88a9.28,9.28,0,0,0,.26,2.23,7.93,7.93,0,0,0,2.13,3.64,9.87,9.87,0,0,0,1.84,1.39c-.17.14-.36.31-.55.5l-.47.49a10.13,10.13,0,0,1-1.11-.84,8.43,8.43,0,0,1-1-1,11.15,11.15,0,0,1-1-1.35,8.87,8.87,0,0,1-.76-1.58,6.73,6.73,0,0,1-.63,1.51,11.9,11.9,0,0,1-2.08,2.72,8.1,8.1,0,0,1-1.17,1c-.14-.13-.33-.28-.56-.46s-.44-.33-.64-.46a9.7,9.7,0,0,0,1.86-1.5,9.1,9.1,0,0,0,1.4-1.88,8.46,8.46,0,0,0,.81-2.14,10.11,10.11,0,0,0,.28-2.43v-2.79h1.4Zm2.66,1h3.36v-4.59h1.38v15.35h-1.38v-9.53h-3.36Z"/><path class="cls-6" d="M400.68,224.37h8.56v1.11h-8.56Zm4.42,1.94a4.57,4.57,0,0,1,2.75.77,2.36,2.36,0,0,1,1.06,2,2.29,2.29,0,0,1-.29,1.13,3.24,3.24,0,0,1-.8.9,4.11,4.11,0,0,1-1.21.57,5.2,5.2,0,0,1-1.51.21,5.36,5.36,0,0,1-1.54-.21,4,4,0,0,1-1.2-.57,2.92,2.92,0,0,1-.79-.9,2.28,2.28,0,0,1-.28-1.13,2.38,2.38,0,0,1,1-2A4.6,4.6,0,0,1,405.1,226.31Zm0,1.09a3,3,0,0,0-1.78.47,1.44,1.44,0,0,0-.63,1.2,1.48,1.48,0,0,0,.63,1.23,3.52,3.52,0,0,0,3.55,0,1.49,1.49,0,0,0,.64-1.23,1.45,1.45,0,0,0-.64-1.2A3,3,0,0,0,405.1,227.4Zm2.18-4.08h-4.52v-1.1h4.52Zm-3.67,14a.3.3,0,0,1-.37-.37v-4h1.37v3.21h9v1.18Zm5.7-11.08h2.55v-4h1.35v11.31h-1.35v-2.94h-2.55v-1.15h2.55V227.4h-2.55Z"/><path class="cls-6" d="M337.23,256.47a5.7,5.7,0,0,0,1.46-.69,7,7,0,0,0,1.3-1.06,6.43,6.43,0,0,0,.93-1.38,4.44,4.44,0,0,0,.47-1.58h-3.12v-1.13H346v1.13h-3.16a3.45,3.45,0,0,0,.44,1.49,4.57,4.57,0,0,0,.95,1.19,5.56,5.56,0,0,0,1.25.89,6.72,6.72,0,0,0,1.38.57l-.85,1a8.91,8.91,0,0,1-2.17-1.3,7.07,7.07,0,0,1-1.69-1.89,8.62,8.62,0,0,1-1.67,2.23,7.37,7.37,0,0,1-2.25,1.53Zm2.74-8.25h4.4v1.13H340Zm5.25,15.65a7.93,7.93,0,0,1-3.8-.78,2.42,2.42,0,0,1-1.42-2.2,2.25,2.25,0,0,1,.38-1.26,2.88,2.88,0,0,1,1.06-.94,5.91,5.91,0,0,1,1.65-.59,9.85,9.85,0,0,1,2.13-.21,7.86,7.86,0,0,1,3.82.8,2.42,2.42,0,0,1,0,4.41A8.12,8.12,0,0,1,345.22,263.87Zm-3.76-3a1.26,1.26,0,0,0,.29.83,2,2,0,0,0,.8.59,4.64,4.64,0,0,0,1.19.36,8.49,8.49,0,0,0,1.48.13,6.76,6.76,0,0,0,2.72-.48,1.47,1.47,0,0,0,0-2.83,6.93,6.93,0,0,0-2.73-.47,8.53,8.53,0,0,0-1.48.12,6,6,0,0,0-1.21.34,2.43,2.43,0,0,0-.78.59A1.23,1.23,0,0,0,341.46,260.89Zm7.42-3.1v-3.92h-2.81v-1.13h2.81v-4.5h1.35v9.55Z"/><path class="cls-6" d="M366.35,261.67H352.24v-1.18h6.34v-3.86H360v3.86h6.36ZM360,250.14a4.14,4.14,0,0,0,.52,2,7.27,7.27,0,0,0,1.34,1.76,9.09,9.09,0,0,0,1.82,1.36,8.68,8.68,0,0,0,2,.86l-1,1a12.21,12.21,0,0,1-1.65-.77,11.09,11.09,0,0,1-1.55-1.05,9.54,9.54,0,0,1-1.31-1.31,5.73,5.73,0,0,1-.91-1.51,7.64,7.64,0,0,1-2.21,2.8,11.81,11.81,0,0,1-3.23,1.86l-1-1.06a9.8,9.8,0,0,0,2.07-.89,9.25,9.25,0,0,0,1.82-1.35,6.59,6.59,0,0,0,1.31-1.73,4.22,4.22,0,0,0,.51-2v-1.26H360Z"/><path class="cls-6" d="M368.86,256.78a.39.39,0,0,1-.29-.08.39.39,0,0,1-.07-.28v-7.73h1.35v6.86H371c.56,0,1.16,0,1.79-.05s1.23-.08,1.81-.14l1.57-.18a8.88,8.88,0,0,0,1.06-.2v1.16c-.27.07-.64.14-1.1.23s-1,.15-1.56.2-1.2.11-1.85.15-1.31.06-2,.06Zm1.59,6.52a.41.41,0,0,1-.28-.08.42.42,0,0,1-.08-.29V258.6h1.39v3.52h8.92v1.18Zm4.08-10.82h4.16v-1.66h-4.16v-1.11h4.14v-1.46H380v11.27h-1.33v-5.93h-4.16Z"/><path class="cls-6" d="M401.58,257.93h-6.27v5.72H393.9v-5.72h-6.38v-1.18h14.06ZM388.17,254a10.7,10.7,0,0,0,4.21-1.82,3.43,3.43,0,0,0,1.4-2.74v-.81h1.53v.8a3.08,3.08,0,0,0,.46,1.66A4.88,4.88,0,0,0,397,252.4a8.24,8.24,0,0,0,1.79,1,11.31,11.31,0,0,0,2.06.6l-.87,1.1a12.76,12.76,0,0,1-1.65-.55,9.9,9.9,0,0,1-1.59-.81,6.89,6.89,0,0,1-1.32-1,3.94,3.94,0,0,1-.88-1.26,5.36,5.36,0,0,1-1,1.31,6.59,6.59,0,0,1-1.32,1,10,10,0,0,1-1.53.78,14.81,14.81,0,0,1-1.62.56Z"/><path class="cls-6" d="M404.11,257.32a.44.44,0,0,1-.29-.08.42.42,0,0,1-.07-.29v-4a.29.29,0,0,1,.36-.36h5V250h-5.32v-1.16H410a.39.39,0,0,1,.28.07.39.39,0,0,1,.08.29v4.11c0,.14,0,.23-.08.28s-.14.08-.28.08h-5v2.46h1c.62,0,1.25,0,1.88-.05s1.23-.07,1.81-.12l1.55-.18c.47-.07.86-.13,1.17-.2v1.16c-.34.07-.76.14-1.27.21s-1.06.13-1.66.19-1.26.1-1.94.14-1.36.05-2,.05Zm1.66,6a.41.41,0,0,1-.28-.08.42.42,0,0,1-.08-.29v-4.14h1.37v3.33h9v1.18Zm5.57-13.09H414v-2h1.37v11.34H414v-5.22h-2.67v-1.12H414v-1.89h-2.67Z"/><path class="cls-6" d="M422.45,252.45v3.66c.32,0,.73,0,1.23,0s1-.06,1.54-.1,1.07-.08,1.59-.14,1-.12,1.36-.19v1.16c-.74.11-1.83.23-3.27.34s-3.15.16-5.12.16h-1.89v-1.19h3.24v-3.66Zm3.74-3.57a.39.39,0,0,1,.29.08.39.39,0,0,1,.07.28c0,.48-.05,1-.1,1.45s-.1,1-.16,1.43-.12.92-.18,1.32-.13.78-.2,1.09h-1.35c.06-.28.12-.6.17-1s.11-.77.16-1.17.1-.79.14-1.2.07-.77.1-1.11h-6.27v-1.19Zm-5.42,14.42a.3.3,0,0,1-.37-.37v-4.21h1.37v3.4h8.8v1.18Zm8-3.43V248.25h1.35v4.94h2.12v1.22h-2.12v5.46Z"/><path class="cls-6" d="M533.94,122.7h-6.13V126h-1.37V122.7h-6.55v-1.18h14.05Zm-12.23-3.13v-5.81H523v1.89h7.7v-1.89h1.35v5.81a.39.39,0,0,1-.08.28.42.42,0,0,1-.29.08h-9.65a.39.39,0,0,1-.28-.08C521.73,119.8,521.71,119.71,521.71,119.57Zm.41,9.08a.39.39,0,0,1-.28-.08.42.42,0,0,1-.08-.29v-4h1.35v3.21h9.52v1.18Zm.92-9.88h7.7v-2H523Z"/><path class="cls-6" d="M521.29,140.31H528v1.18h-5.68v4.39h.85c1.14,0,2.33,0,3.55-.14a31.58,31.58,0,0,0,3.4-.45v1.21c-.51.1-1.07.19-1.67.27l-1.88.2c-.66,0-1.34.08-2,.1s-1.36,0-2,0h-1.2A.44.44,0,0,1,521,147a.39.39,0,0,1-.07-.28v-6.08a.37.37,0,0,1,.08-.29A.39.39,0,0,1,521.29,140.31Zm6,14.92a10.11,10.11,0,0,1-2.15-.21,5.45,5.45,0,0,1-1.64-.64,3.17,3.17,0,0,1-1.06-1,2.41,2.41,0,0,1-.36-1.29,2.33,2.33,0,0,1,.37-1.28,3.11,3.11,0,0,1,1.07-1,5.68,5.68,0,0,1,1.64-.65,8.79,8.79,0,0,1,2.13-.24,8.92,8.92,0,0,1,2.16.24,5.7,5.7,0,0,1,1.66.65,3.08,3.08,0,0,1,1.06,1,2.34,2.34,0,0,1,.38,1.28,2.56,2.56,0,0,1-1.43,2.28A7.45,7.45,0,0,1,527.3,155.23Zm-3.76-3.13a1.41,1.41,0,0,0,.29.85,2.48,2.48,0,0,0,.81.66,4.19,4.19,0,0,0,1.18.41,7.67,7.67,0,0,0,1.48.14,7.83,7.83,0,0,0,1.51-.14,4.6,4.6,0,0,0,1.22-.41,2.34,2.34,0,0,0,.79-.65,1.32,1.32,0,0,0,.3-.85,1.67,1.67,0,0,0-1.08-1.49,6,6,0,0,0-2.74-.55,6.94,6.94,0,0,0-1.48.15,5.45,5.45,0,0,0-1.2.4,2.34,2.34,0,0,0-.79.64A1.34,1.34,0,0,0,523.54,152.1Zm8.62-12.48v3h2.13v1.2h-2.13v4.94h-1.35v-9.15Z"/><path class="cls-6" d="M520,174.28a8.36,8.36,0,0,0,1.54-.8,6.87,6.87,0,0,0,1.33-1.12,5.4,5.4,0,0,0,.95-1.43,4.87,4.87,0,0,0,.39-1.73H521v-1.14h7.74v1.14h-3.1a3.72,3.72,0,0,0,.38,1.59,5.37,5.37,0,0,0,.94,1.32,5.78,5.78,0,0,0,1.28,1,6.73,6.73,0,0,0,1.44.68l-.9,1a10.07,10.07,0,0,1-2.18-1.38,6.39,6.39,0,0,1-1.65-2.05,6.84,6.84,0,0,1-1.63,2.26,8.29,8.29,0,0,1-2.29,1.57Zm2.74-8.73h4.4v1.09h-4.4Zm.67,15.09c-.14,0-.23,0-.28-.08s-.08-.14-.08-.28v-4.34h1.37v3.52h9v1.18Zm9.6-15v11.3h-1.33v-5.51h-2.86v-1.13h2.86V165.6Z"/><path class="cls-7" d="M183,117.91A4.93,4.93,0,0,0,178.1,113h-5.55v-2.1c0-.88-.58-1.46-1.75-1.46s-1.74.58-1.74,1.46V113h-5.55a4.93,4.93,0,0,0-4.93,4.93,8.37,8.37,0,0,0,.51,3,3.5,3.5,0,0,0,.76,1.2l.38,4.25a6.16,6.16,0,0,0,6.18,5.65h2.65c0,.87.58,1.45,1.74,1.45s1.75-.58,1.75-1.45h2.75a6.18,6.18,0,0,0,6.18-5.65l.39-4.37a3.7,3.7,0,0,0,.65-1.08A8.37,8.37,0,0,0,183,117.91Z"/><polygon class="cls-3" points="265.95 158.13 262.63 152.38 259.31 146.63 265.95 146.63 272.59 146.63 269.27 152.38 265.95 158.13"/></svg>