<svg id="레이어_1" data-name="레이어 1" xmlns="http://www.w3.org/2000/svg" viewBox="0 0 600 346.52"><defs><style>.cls-1{fill:#e5e5e5;}.cls-2{fill:#ffcd00;}.cls-3{opacity:0.75;}.cls-4{fill:#acdae5;}.cls-5{fill:#4d4d4d;}.cls-6{fill:#154734;}</style></defs><rect class="cls-1" x="195.07" y="29.26" width="73.4" height="174.91"/><rect class="cls-1" x="287.22" y="21.88" width="100.48" height="264.09" transform="translate(491.39 -183.53) rotate(90)"/><rect class="cls-2" x="166.59" y="125.2" width="250.92" height="51.37" rx="25.68"/><g class="cls-3"><rect class="cls-4" x="522.09" y="29.26" width="55" height="291.48"/></g><rect class="cls-1" x="22.91" y="219.92" width="118.47" height="100.82"/><rect class="cls-1" x="195.35" y="219.92" width="73.34" height="100.82"/><rect class="cls-1" x="279.59" y="219.92" width="51.92" height="100.82"/><rect class="cls-1" x="343.04" y="219.92" width="126.46" height="100.82"/><rect class="cls-1" x="22.91" y="29.26" width="118.47" height="61.76"/><rect class="cls-1" x="22.91" y="103.69" width="118.47" height="100.82"/><path class="cls-5" d="M37.09,138.23a8.91,8.91,0,0,1,1.92.2,5.3,5.3,0,0,1,1.53.58,2.88,2.88,0,0,1,1,.89,2.07,2.07,0,0,1,.36,1.17,2,2,0,0,1-.43,1.28,3.26,3.26,0,0,1-1.18.92v2.59h3.83V147H30v-1.18h4v-2.5a3.46,3.46,0,0,1-1.33-.94,2.09,2.09,0,0,1-.11-2.52,3,3,0,0,1,1-.89,5.55,5.55,0,0,1,1.55-.58A9,9,0,0,1,37.09,138.23Zm5.79-.81H31.26v-1.16H42.88Zm-5.79,1.92a8.14,8.14,0,0,0-1.22.1,3.6,3.6,0,0,0-1,.33,2,2,0,0,0-.72.54,1.26,1.26,0,0,0,0,1.56,2,2,0,0,0,.72.54,4,4,0,0,0,1,.31,7,7,0,0,0,1.22.1,6.56,6.56,0,0,0,1.18-.1,4.38,4.38,0,0,0,1-.31,2,2,0,0,0,.72-.54,1.15,1.15,0,0,0,.28-.78,1.18,1.18,0,0,0-.28-.8,2,2,0,0,0-.72-.53,4.37,4.37,0,0,0-1-.32A7.62,7.62,0,0,0,37.09,139.34Zm3-4.26H34v-1.22h6.12Zm-1.18,8.65a8.46,8.46,0,0,1-.9.14c-.31,0-.64,0-1,0s-.59,0-.87,0-.54-.06-.79-.1v2.08h3.53Z"/><path class="cls-5" d="M46,134.35h8v1.16H50.67V137a9.42,9.42,0,0,0,.26,2.24,7.71,7.71,0,0,0,.77,1.92A7.39,7.39,0,0,0,53,142.91a9.37,9.37,0,0,0,1.88,1.42c-.15.13-.32.29-.52.49l-.46.48a9,9,0,0,1-1.15-.83,7.72,7.72,0,0,1-1-1,9.79,9.79,0,0,1-1-1.36A9.12,9.12,0,0,1,50,140.5a7.4,7.4,0,0,1-.63,1.52,10.73,10.73,0,0,1-.93,1.41,10.07,10.07,0,0,1-1.12,1.3,10.87,10.87,0,0,1-1.18,1l-.58-.47-.65-.47a9.12,9.12,0,0,0,1.85-1.45,9,9,0,0,0,1.39-1.86,8.92,8.92,0,0,0,.85-2.16,10.77,10.77,0,0,0,.29-2.53v-1.27H46Zm11.36,14.49H56V133.47h1.35v5.89h2.29v1.23H57.36Z"/><path class="cls-5" d="M74.35,143.4H60.28v-1.18H66.6V140.1H68v2.12h6.31ZM61,139.67a16.82,16.82,0,0,0,1.72-.34,10.33,10.33,0,0,0,1.68-.54,5.11,5.11,0,0,0,1.31-.78,2.25,2.25,0,0,0,.73-1.1H61.92v-1.09H72.7v1.09H68.14a2.23,2.23,0,0,0,.75,1.1,6.2,6.2,0,0,0,1.33.81,12,12,0,0,0,1.66.55,16.43,16.43,0,0,0,1.65.32l-.86,1.05c-.45-.08-.93-.18-1.44-.32a9.7,9.7,0,0,1-1.49-.51,7.2,7.2,0,0,1-1.36-.76,4.27,4.27,0,0,1-1-1.07,4.42,4.42,0,0,1-1,1,7.42,7.42,0,0,1-1.29.76,12.42,12.42,0,0,1-1.52.54,14.43,14.43,0,0,1-1.58.36Zm1.49,8.84a.42.42,0,0,1-.29-.08.42.42,0,0,1-.07-.29v-3.57h1.36v2.76H73v1.18Zm1.92-15.17h5.67v1.1H64.45Z"/><path class="cls-5" d="M87.38,134.68a.37.37,0,0,1,.29.08.39.39,0,0,1,.08.28c0,.89-.11,1.8-.21,2.74s-.23,1.86-.38,2.77-.32,1.79-.51,2.64-.39,1.61-.6,2.3h3.43v1.18H75.37v-1.18h9.29c.21-.67.41-1.43.62-2.28s.37-1.73.52-2.6.3-1.72.39-2.55a18.73,18.73,0,0,0,.15-2.2H77v-1.18Z"/><path class="cls-5" d="M92,142.53a.39.39,0,0,1-.28-.08.36.36,0,0,1-.08-.28V138c0-.14,0-.23.08-.28a.39.39,0,0,1,.28-.08h5.3V135.2H91.63V134h6.64a.36.36,0,0,1,.28.08.39.39,0,0,1,.08.28v4a.42.42,0,0,1-.08.29.41.41,0,0,1-.28.08H93v2.54h1.7c.62,0,1.25,0,1.88-.05s1.23-.07,1.81-.12L99.9,141c.47-.07.86-.13,1.17-.2v1.16q-.5.1-1.26.21c-.51.07-1.07.13-1.67.19s-1.26.1-1.94.14-1.35.05-2,.05Zm1.67,6a.3.3,0,0,1-.37-.37V144h1.37v3.33h9v1.18Zm8.23-3.71V133.47h1.35V144.8Z"/><path class="cls-5" d="M107,134.21l6.77,0v1.21H108v3.53h5.56v1.18H108v3.71h1.64c.47,0,1,0,1.52,0l1.62-.11c.54,0,1.06-.1,1.54-.16s.91-.12,1.27-.19v1.14a15,15,0,0,1-1.61.27c-.6.08-1.23.14-1.87.18s-1.3.08-1.95.11l-1.82,0H107a.37.37,0,0,1-.29-.08.39.39,0,0,1-.08-.28V134.57a.41.41,0,0,1,.08-.28A.42.42,0,0,1,107,134.21Zm9.3,14.65V133.47h1.39v5.44H120v1.26h-2.29v8.69Z"/><path class="cls-5" d="M134.8,142.41h-6.14v3.31h-1.37v-3.31h-6.56v-1.18H134.8Zm-12.43-5.81a2.72,2.72,0,0,1,1.38-2.36,9.36,9.36,0,0,1,8.05,0,2.73,2.73,0,0,1,1.37,2.36,2.64,2.64,0,0,1-1.36,2.32,10,10,0,0,1-8.06,0A2.64,2.64,0,0,1,122.37,136.6Zm.61,11.91a.44.44,0,0,1-.29-.08.42.42,0,0,1-.07-.29v-4H124v3.19h9.53v1.18Zm8.72-11.91a1.76,1.76,0,0,0-1.09-1.62,6.19,6.19,0,0,0-2.83-.56,6.28,6.28,0,0,0-2.86.55,1.75,1.75,0,0,0-1.07,1.63,1.64,1.64,0,0,0,1.05,1.55,6.76,6.76,0,0,0,2.88.51,6.65,6.65,0,0,0,2.84-.51A1.64,1.64,0,0,0,131.7,136.6Z"/><path class="cls-5" d="M61,167.19a12.55,12.55,0,0,1,.32-3,6.66,6.66,0,0,1,.91-2.19,3.91,3.91,0,0,1,1.37-1.32,3.43,3.43,0,0,1,1.73-.45,3.51,3.51,0,0,1,3.72,3.29H67.69a2.14,2.14,0,0,0-.73-1.55,2.38,2.38,0,0,0-1.61-.58,2.13,2.13,0,0,0-1.53.57,4.15,4.15,0,0,0-1,1.44,7.71,7.71,0,0,0-.51,1.86,12.68,12.68,0,0,0-.15,1.87,3,3,0,0,1,1.28-1.66,3.94,3.94,0,0,1,2.07-.54,3.38,3.38,0,0,1,2.71,1.16,4.58,4.58,0,0,1,1,3.08,5.1,5.1,0,0,1-.27,1.68,4.13,4.13,0,0,1-.79,1.37,3.7,3.7,0,0,1-1.23.9,4,4,0,0,1-1.65.33,3.91,3.91,0,0,1-2.43-.75,4,4,0,0,1-1.4-1.92,7.14,7.14,0,0,1-.37-1.53A14.49,14.49,0,0,1,61,167.19ZM65.19,166a2.45,2.45,0,0,0-1.08.25,2.85,2.85,0,0,0-1.4,1.61,3.21,3.21,0,0,0-.19,1.12,4.63,4.63,0,0,0,.18,1.32,3.09,3.09,0,0,0,.53,1,2.53,2.53,0,0,0,.83.7,2.33,2.33,0,0,0,1.09.25,2.42,2.42,0,0,0,2-.91,3.53,3.53,0,0,0,.71-2.24,4,4,0,0,0-.18-1.2,2.76,2.76,0,0,0-.52-1,2.44,2.44,0,0,0-.83-.69A2.51,2.51,0,0,0,65.19,166Z"/><path class="cls-5" d="M76.06,160.8v12.32H74.69V162a6.91,6.91,0,0,1-1.17,1,13.19,13.19,0,0,1-1.54.87v-1.31a7.56,7.56,0,0,0,1.44-.85,13,13,0,0,0,1.32-1.16h1a.37.37,0,0,1,.26.07A.38.38,0,0,1,76.06,160.8Z"/><path class="cls-5" d="M80.6,171.82l.72-.69.92-.92c.33-.34.66-.7,1-1.08s.69-.77,1-1.18.65-.78,1-1.18a13.11,13.11,0,0,0,.78-1.16,6.82,6.82,0,0,0,.55-1.07,2.59,2.59,0,0,0,.2-.92,2.11,2.11,0,0,0-.66-1.69,2.56,2.56,0,0,0-1.7-.56,2.14,2.14,0,0,0-1.64.69,2.57,2.57,0,0,0-.63,1.8H80.7a3.87,3.87,0,0,1,.28-1.51,3.17,3.17,0,0,1,.78-1.17,3.45,3.45,0,0,1,1.18-.75,4.28,4.28,0,0,1,1.49-.26,4.22,4.22,0,0,1,2.67.85,3,3,0,0,1,1.07,2.5,4.66,4.66,0,0,1-.68,2.3,16.07,16.07,0,0,1-1.64,2.32,28.79,28.79,0,0,1-2,2.12c-.68.66-1.25,1.21-1.7,1.66h6.28v1.2H80.84a.28.28,0,0,1-.2-.05.37.37,0,0,1,0-.21Z"/><path class="cls-5" d="M92.28,159.91h10V161h-9v2.67h9.12v1.14H97.75v2.08h6.35v1.18H90v-1.18h6.33v-2.08H92.28a.44.44,0,0,1-.3-.07.42.42,0,0,1-.07-.27v-4.23a.3.3,0,0,1,.37-.37Zm-.73,12.24A2.44,2.44,0,0,1,93,170a10.24,10.24,0,0,1,8.17,0,2.3,2.3,0,0,1,0,4.25,10.49,10.49,0,0,1-8.18,0A2.44,2.44,0,0,1,91.55,172.15Zm1.51,0a1.56,1.56,0,0,0,1.09,1.43,8.8,8.8,0,0,0,5.79,0,1.56,1.56,0,0,0,1.12-1.43c0-.59-.37-1-1.12-1.39a8.63,8.63,0,0,0-5.79,0A1.53,1.53,0,0,0,93.06,172.13Z"/><path class="cls-6" d="M217.64,151.14a4.75,4.75,0,0,1-1.69-.29,4,4,0,0,1-1.32-.82,3.51,3.51,0,0,1-.83-1.24,4,4,0,0,1-.3-1.57,4,4,0,0,1,.3-1.54,3.57,3.57,0,0,1,.83-1.23,4,4,0,0,1,1.32-.82,4.76,4.76,0,0,1,3.38,0,4.1,4.1,0,0,1,1.31.82,3.74,3.74,0,0,1,.84,1.23,3.78,3.78,0,0,1,.31,1.54,3.86,3.86,0,0,1-.31,1.57,3.68,3.68,0,0,1-.84,1.24,4.1,4.1,0,0,1-1.31.82A4.79,4.79,0,0,1,217.64,151.14Zm0-6.15a2,2,0,0,0-1.6.64,2.58,2.58,0,0,0,0,3.21,2.31,2.31,0,0,0,3.21,0,2.58,2.58,0,0,0,0-3.21A2,2,0,0,0,217.64,145Zm-2,13.1v-6h1.94v1.64h6.31v-1.64h1.92v6a.52.52,0,0,1-.11.38.54.54,0,0,1-.37.11h-9.21a.54.54,0,0,1-.38-.11A.53.53,0,0,1,215.6,158.09Zm8.25-1.09v-1.7h-6.31V157Zm1.94-13.78v3h2v1.67h-2v3.62h-2v-8.25Z"/><path class="cls-6" d="M240.54,143.71a.41.41,0,0,1,.48.48c0,.36-.05.8-.1,1.33s-.11,1.07-.19,1.65-.17,1.15-.26,1.73-.19,1.08-.3,1.53h2.43v1.65h-6.29v6.65h-2v-6.65h-6v-1.65h9.89c.1-.36.19-.76.28-1.2s.17-.9.24-1.35.13-.91.17-1.34.07-.82.08-1.17h-9.14v-1.66Z"/><path class="cls-6" d="M251.87,151.92a11.71,11.71,0,0,1-2.09-1.26,5.08,5.08,0,0,1-1.41-1.55A4.51,4.51,0,0,1,247,150.8a13.47,13.47,0,0,1-2.23,1.52l-1.46-1.3a7.22,7.22,0,0,0,3-2,4.31,4.31,0,0,0,1-2.81v-.71h-2.8v-1.63h7.72v1.63h-2.83v.73a3.79,3.79,0,0,0,1,2.62,5.83,5.83,0,0,0,2.67,1.64Zm-.26.56a10.19,10.19,0,0,1,2.2.22,6.31,6.31,0,0,1,1.75.64,3.62,3.62,0,0,1,1.16,1,2.53,2.53,0,0,1,0,2.79,3.53,3.53,0,0,1-1.16,1,6.31,6.31,0,0,1-1.75.62,11,11,0,0,1-2.21.21,10.67,10.67,0,0,1-2.2-.21,6.12,6.12,0,0,1-1.74-.62,3.3,3.3,0,0,1-1.15-1,2.45,2.45,0,0,1-.41-1.4,2.3,2.3,0,0,1,.43-1.37,3.61,3.61,0,0,1,1.17-1,6.31,6.31,0,0,1,1.75-.64A9.88,9.88,0,0,1,251.61,152.48Zm0,1.54a5.81,5.81,0,0,0-2.46.45,1.38,1.38,0,0,0-1,1.25,1.45,1.45,0,0,0,1,1.29,5.63,5.63,0,0,0,2.45.47,5.46,5.46,0,0,0,2.47-.48,1.46,1.46,0,0,0,.95-1.28,1.36,1.36,0,0,0-.94-1.26A5.92,5.92,0,0,0,251.61,154Zm3.26-1.41v-4.38H252V146.6h2.88v-3.4h1.94v9.41Z"/><path class="cls-6" d="M260.23,149.06v-5.72h1.94v1.53h6.95v-1.53h2v5.72a.48.48,0,0,1-.12.38.53.53,0,0,1-.37.11h-3.93V151h6.15v1.65h-14.3V151h6.14v-1.47h-4a.51.51,0,0,1-.37-.11A.59.59,0,0,1,260.23,149.06Zm4.57,4.75a.42.42,0,0,1,.49.49v4.52h-2v-3.35h-3.47v-1.66Zm4.32-5.86v-1.56h-6.95V148Zm1.56,5.86a.53.53,0,0,1,.37.11.56.56,0,0,1,.11.38v4.52h-2v-3.35h-3.36v-1.66Z"/><path class="cls-6" d="M273.62,150.66h14.3v1.66h-14.3Zm2.26-1.88a.53.53,0,0,1-.38-.1.6.6,0,0,1-.09-.38v-5h2v3.88h9v1.64Zm0,9.66a.52.52,0,0,1-.38-.11.59.59,0,0,1-.09-.38v-4.42h2v3.24h9.28v1.67Z"/><path class="cls-6" d="M294.09,149.63a6.77,6.77,0,0,1-1.31.2c-.45,0-.91,0-1.37,0H289.6v-1.55h2.53c.49,0,.93,0,1.34,0a8.13,8.13,0,0,0,1.25-.17c.11-.39.21-.78.28-1.17a12.34,12.34,0,0,0,.17-1.24h-5.06v-1.6h6.72a.53.53,0,0,1,.37.11.51.51,0,0,1,.12.38,14.33,14.33,0,0,1-1.77,6.25,14.7,14.7,0,0,1-4.79,5l-1.62-1.31a12.69,12.69,0,0,0,2.87-2.1A10.51,10.51,0,0,0,294.09,149.63Zm5.89,9.1V150.4H296.9v-1.75H300v-5.43h2v15.51Z"/><path class="cls-6" d="M313.66,145.82h-1.47l0,7.28,1.17-.09c.42,0,.79-.07,1.12-.12v1.61a29.54,29.54,0,0,1-3.81.32c-1.42,0-2.94.05-4.56.05h-1.68v-1.65h1.69l-.05-7.4h-1.28v-1.68h8.91Zm-3.43,7.37,0-7.37H308l0,7.38h2.2Zm7-10v15.51h-2V143.22Z"/><path class="cls-6" d="M338.29,152.65h-5.91v3h-2v-3H324V151h14.3Zm-12.59-3.4v-5.91h1.94V145h6.95v-1.65h2v5.91a.52.52,0,0,1-.11.38.53.53,0,0,1-.37.11h-9.9a.49.49,0,0,1-.37-.11A.58.58,0,0,1,325.7,149.25Zm.54,9.19a.49.49,0,0,1-.37-.11.53.53,0,0,1-.1-.38v-4.21h2v3H337v1.67Zm8.35-10.31v-1.55h-6.95v1.55Z"/><path class="cls-6" d="M340.5,150.85a.49.49,0,0,1-.37-.11.59.59,0,0,1-.09-.38v-6a.53.53,0,0,1,.1-.37.49.49,0,0,1,.38-.12h6.9v1.65H342v3.69l2.15,0c.32,0,.71,0,1.16,0s.91-.06,1.38-.11.95-.1,1.39-.17.82-.13,1.13-.19v1.59c-.26.06-.6.12-1,.19s-.9.13-1.42.19-1.06.11-1.63.15-1.11.06-1.64.06h-3Zm6,1.63a10,10,0,0,1,2.18.22,6.43,6.43,0,0,1,1.75.64,3.44,3.44,0,0,1,1.14,1,2.53,2.53,0,0,1,0,2.79,3.36,3.36,0,0,1-1.14,1,6.43,6.43,0,0,1-1.75.62,10.74,10.74,0,0,1-2.2.21,10.57,10.57,0,0,1-2.19-.21,6.17,6.17,0,0,1-1.73-.62,3.32,3.32,0,0,1-1.13-1,2.38,2.38,0,0,1-.41-1.4,2.43,2.43,0,0,1,.41-1.37,3.61,3.61,0,0,1,1.17-1,6.24,6.24,0,0,1,1.74-.64A9.75,9.75,0,0,1,346.54,152.48Zm0,1.54a5.67,5.67,0,0,0-2.45.45,1.38,1.38,0,0,0-.93,1.25,1.44,1.44,0,0,0,.94,1.29,5.52,5.52,0,0,0,2.44.47A5.37,5.37,0,0,0,349,157a1.45,1.45,0,0,0,.93-1.28,1.37,1.37,0,0,0-.92-1.26A5.86,5.86,0,0,0,346.54,154Zm3.2-1.67v-9.13h2v3h2v1.65h-2v4.5Z"/><path class="cls-6" d="M357.89,153.26a3.08,3.08,0,0,1-1.2-.85,1.87,1.87,0,0,1-.42-1.2,2.2,2.2,0,0,1,1.39-2,10,10,0,0,1,7.41,0,2.19,2.19,0,0,1,1.4,2,1.83,1.83,0,0,1-.41,1.17,3.12,3.12,0,0,1-1.14.86v2.56h3.61v1.65H354.21V155.8h3.68Zm-2.55-7.08h12v1.63h-12Zm2.7-2.68h6.57v1.57H358Zm3.33,6.48a5.35,5.35,0,0,0-2.08.31,1,1,0,0,0-.71.92,1,1,0,0,0,.7.9,7.17,7.17,0,0,0,4.17,0,1,1,0,0,0,.71-.9,1,1,0,0,0-.72-.92A5.36,5.36,0,0,0,361.37,150Zm0,3.92q-.42,0-.81,0c-.27,0-.52,0-.77-.08v2H363v-2c-.25,0-.52.06-.79.08S361.65,153.9,361.37,153.9Z"/><path class="cls-6" d="M368.94,154.55a9,9,0,0,0,3.16-3.07,8.51,8.51,0,0,0,1.09-4.45v-1.26h-3.1v-1.63h8.37v1.63h-3.19v1.35a8.16,8.16,0,0,0,1,4.14,7.8,7.8,0,0,0,3,2.88l-1.4,1.33a10.85,10.85,0,0,1-2.11-1.79,7.84,7.84,0,0,1-1.51-2.26,7.57,7.57,0,0,1-1.43,2.39,11.74,11.74,0,0,1-2.21,2Zm13-11.35v5.86h2.14v1.75H382v7.92h-2V143.2Z"/><path class="cls-6" d="M392.91,151.75a11.71,11.71,0,0,1-2.09-1.26,5.19,5.19,0,0,1-1.41-1.55,4.7,4.7,0,0,1-1.37,1.69,13.9,13.9,0,0,1-2.23,1.52l-1.46-1.3a7.13,7.13,0,0,0,3-2,4.21,4.21,0,0,0,1-2.8v-.54h-2.79v-1.63h7.72v1.63h-2.83v.55a3.82,3.82,0,0,0,1,2.63,5.93,5.93,0,0,0,2.66,1.64Zm-5,1.11h9.44a.51.51,0,0,1,.38.11.53.53,0,0,1,.11.37v4.73a.52.52,0,0,1-.11.38.56.56,0,0,1-.38.11h-9.44a.41.41,0,0,1-.49-.49v-4.73a.53.53,0,0,1,.11-.37A.48.48,0,0,1,387.94,152.86Zm8,4.1v-2.49h-6.54V157Zm-3-10.34h3v-3.4h2v9h-2V148.3h-3Z"/><path class="cls-5" d="M37.09,256.28a8.91,8.91,0,0,1,1.92.2,5.61,5.61,0,0,1,1.53.58,3,3,0,0,1,1,.9,2.09,2.09,0,0,1-.07,2.44,3.18,3.18,0,0,1-1.18.93v2.58h3.83v1.18H30v-1.18h4v-2.5a3.35,3.35,0,0,1-1.33-.94A2.08,2.08,0,0,1,32.6,258a3.13,3.13,0,0,1,1-.9,5.88,5.88,0,0,1,1.55-.58A9,9,0,0,1,37.09,256.28Zm5.79-.81H31.26v-1.16H42.88Zm-5.79,1.92a7,7,0,0,0-1.22.11,3.6,3.6,0,0,0-1,.33,2.11,2.11,0,0,0-.72.53,1.19,1.19,0,0,0-.27.78,1.17,1.17,0,0,0,.27.78,2,2,0,0,0,.72.54,4,4,0,0,0,1,.31,7,7,0,0,0,1.22.11,6.56,6.56,0,0,0,1.18-.11,4.38,4.38,0,0,0,1-.31,2,2,0,0,0,.72-.54,1.13,1.13,0,0,0,.28-.78,1.16,1.16,0,0,0-.28-.79,2,2,0,0,0-.72-.54,4.38,4.38,0,0,0-1-.31A6.56,6.56,0,0,0,37.09,257.39Zm3-4.26H34v-1.21h6.12Zm-1.18,8.65a6.5,6.5,0,0,1-.9.15c-.31,0-.64,0-1,0a8.19,8.19,0,0,1-.87,0,6.55,6.55,0,0,1-.79-.1v2.08h3.53Z"/><path class="cls-5" d="M46,252.4h8v1.16H50.67v1.49a9.36,9.36,0,0,0,.26,2.24,7.71,7.71,0,0,0,.77,1.92A7.39,7.39,0,0,0,53,261a9.41,9.41,0,0,0,1.88,1.43,6.65,6.65,0,0,0-.52.48c-.19.2-.35.36-.46.49a9.12,9.12,0,0,1-1.15-.84,7.72,7.72,0,0,1-1-1,9.23,9.23,0,0,1-1-1.36,9.38,9.38,0,0,1-.76-1.56,7.55,7.55,0,0,1-.63,1.51,10.73,10.73,0,0,1-.93,1.41,9.44,9.44,0,0,1-1.12,1.3,9,9,0,0,1-1.18,1l-.58-.47c-.23-.17-.45-.33-.65-.46a9.53,9.53,0,0,0,1.85-1.46,9,9,0,0,0,1.39-1.85,8.84,8.84,0,0,0,.85-2.17,10.77,10.77,0,0,0,.29-2.53v-1.27H46Zm11.36,14.49H56V251.52h1.35v5.89h2.29v1.23H57.36Z"/><path class="cls-5" d="M74.35,261.45H60.28v-1.18H66.6v-2.11H68v2.11h6.31ZM61,257.72c.55-.08,1.13-.19,1.72-.33a11.41,11.41,0,0,0,1.68-.55,5.11,5.11,0,0,0,1.31-.78,2.23,2.23,0,0,0,.73-1.09H61.92v-1.09H72.7V255H68.14a2.2,2.2,0,0,0,.75,1.09,6.2,6.2,0,0,0,1.33.81,10.77,10.77,0,0,0,1.66.55,16.43,16.43,0,0,0,1.65.32l-.86,1.06c-.45-.08-.93-.19-1.44-.32a12.45,12.45,0,0,1-1.49-.51,7.24,7.24,0,0,1-1.36-.77,4.27,4.27,0,0,1-1-1.07,4.23,4.23,0,0,1-1,1,7.46,7.46,0,0,1-1.29.77,14.31,14.31,0,0,1-1.52.53c-.52.15-1,.27-1.58.37Zm1.49,8.84a.37.37,0,0,1-.29-.08.39.39,0,0,1-.07-.28v-3.57h1.36v2.75H73v1.18Zm1.92-15.16h5.67v1.09H64.45Z"/><path class="cls-5" d="M87.38,252.73a.3.3,0,0,1,.37.37q-.06,1.34-.21,2.73c-.11.94-.23,1.86-.38,2.78s-.32,1.79-.51,2.63-.39,1.61-.6,2.31h3.43v1.17H75.37v-1.17h9.29c.21-.67.41-1.44.62-2.29s.37-1.72.52-2.6.3-1.72.39-2.55a18.6,18.6,0,0,0,.15-2.2H77v-1.18Z"/><path class="cls-5" d="M92,260.58c-.14,0-.23,0-.28-.08s-.08-.14-.08-.28v-4.14a.37.37,0,0,1,.08-.29.39.39,0,0,1,.28-.08h5.3v-2.46H91.63v-1.16h6.64a.3.3,0,0,1,.36.36v4a.3.3,0,0,1-.36.36H93v2.55h1.7c.62,0,1.25,0,1.88-.06s1.23-.07,1.81-.12,1.09-.11,1.55-.18.86-.13,1.17-.2V260q-.5.11-1.26.21c-.51.07-1.07.13-1.67.19s-1.26.11-1.94.14-1.35.05-2,.05Zm1.67,6a.37.37,0,0,1-.29-.08.39.39,0,0,1-.08-.28v-4.14h1.37v3.32h9v1.18Zm8.23-3.71V251.52h1.35v11.33Z"/><path class="cls-5" d="M107,252.26l6.77,0v1.21H108V257h5.56v1.18H108v3.7h1.64c.47,0,1,0,1.52,0s1.09-.06,1.62-.11,1.06-.1,1.54-.16.91-.12,1.27-.19v1.15c-.48.1-1,.19-1.61.27s-1.23.13-1.87.18-1.3.08-1.95.1-1.25,0-1.82,0H107a.3.3,0,0,1-.37-.37v-10.1a.3.3,0,0,1,.37-.37Zm9.3,14.65V251.52h1.39V257H120v1.27h-2.29v8.68Z"/><path class="cls-5" d="M134.8,260.46h-6.14v3.31h-1.37v-3.31h-6.56v-1.18H134.8Zm-12.43-5.81a2.74,2.74,0,0,1,1.38-2.36,9.36,9.36,0,0,1,8.05,0,2.75,2.75,0,0,1,1.37,2.36,2.61,2.61,0,0,1-1.36,2.32,9.87,9.87,0,0,1-8.06,0A2.61,2.61,0,0,1,122.37,254.65Zm.61,11.91a.39.39,0,0,1-.29-.08.39.39,0,0,1-.07-.28v-4H124v3.19h9.53v1.18Zm8.72-11.91a1.76,1.76,0,0,0-1.09-1.62,6.19,6.19,0,0,0-2.83-.56,6.27,6.27,0,0,0-2.86.56,1.74,1.74,0,0,0-1.07,1.62,1.65,1.65,0,0,0,1.05,1.56,6.76,6.76,0,0,0,2.88.51,6.65,6.65,0,0,0,2.84-.51A1.65,1.65,0,0,0,131.7,254.65Z"/><path class="cls-5" d="M61,285.24a12.61,12.61,0,0,1,.32-3,6.66,6.66,0,0,1,.91-2.19,3.91,3.91,0,0,1,1.37-1.32,3.43,3.43,0,0,1,1.73-.45,3.65,3.65,0,0,1,2.56.9,3.62,3.62,0,0,1,1.16,2.4H67.69A2.1,2.1,0,0,0,67,280a2.39,2.39,0,0,0-1.61-.59,2.14,2.14,0,0,0-1.53.58,4.2,4.2,0,0,0-1,1.43,7.71,7.71,0,0,0-.51,1.86,12.68,12.68,0,0,0-.15,1.87,3,3,0,0,1,1.28-1.65,3.86,3.86,0,0,1,2.07-.55,3.41,3.41,0,0,1,2.71,1.16,4.61,4.61,0,0,1,1,3.09,5.1,5.1,0,0,1-.27,1.68,4.24,4.24,0,0,1-.79,1.37,3.7,3.7,0,0,1-1.23.9,4,4,0,0,1-1.65.33,3.85,3.85,0,0,1-2.43-.76,4,4,0,0,1-1.4-1.91,7.38,7.38,0,0,1-.37-1.54A14.4,14.4,0,0,1,61,285.24ZM65.19,284a2.33,2.33,0,0,0-1.08.26,2.57,2.57,0,0,0-.84.65,2.75,2.75,0,0,0-.56.95,3.27,3.27,0,0,0-.19,1.13,4.56,4.56,0,0,0,.18,1.31,3,3,0,0,0,.53,1,2.41,2.41,0,0,0,.83.7,2.34,2.34,0,0,0,1.09.26,2.44,2.44,0,0,0,2-.91,3.58,3.58,0,0,0,.71-2.25A3.94,3.94,0,0,0,67.7,286a2.6,2.6,0,0,0-.52-1,2.33,2.33,0,0,0-.83-.69A2.39,2.39,0,0,0,65.19,284Z"/><path class="cls-5" d="M76.06,278.85v12.32H74.69V280a6.07,6.07,0,0,1-1.17,1,14.84,14.84,0,0,1-1.54.88v-1.32a7.07,7.07,0,0,0,1.44-.85,11,11,0,0,0,1.32-1.16h1a.37.37,0,0,1,.26.07A.4.4,0,0,1,76.06,278.85Z"/><path class="cls-5" d="M87.2,287.67a2.17,2.17,0,0,0-.88-1.85,3.06,3.06,0,0,0-.93-.44,5.23,5.23,0,0,0-1-.17h-.69c-.14,0-.22,0-.25,0a.56.56,0,0,1,0-.24v-.64a.85.85,0,0,1,0-.28s.11-.06.25-.06h.57a4.3,4.3,0,0,0,1-.13,2.54,2.54,0,0,0,.86-.41,1.86,1.86,0,0,0,.61-.69,2.15,2.15,0,0,0,.22-1A2,2,0,0,0,86.2,280a2.77,2.77,0,0,0-1.81-.59,2.54,2.54,0,0,0-1.77.59,2.48,2.48,0,0,0-.76,1.7H80.48a3.26,3.26,0,0,1,1.1-2.55,4.28,4.28,0,0,1,2.86-.93,5.12,5.12,0,0,1,1.47.2,3.51,3.51,0,0,1,1.24.61A3.29,3.29,0,0,1,88,280.1a3.41,3.41,0,0,1,.32,1.52,2.94,2.94,0,0,1-.71,1.94,3.05,3.05,0,0,1-1.86,1.06,3.24,3.24,0,0,1,2.06,1.07,3.14,3.14,0,0,1,.79,2.14,3.5,3.5,0,0,1-.36,1.65,3.39,3.39,0,0,1-.94,1.14,4.16,4.16,0,0,1-1.36.64,5.76,5.76,0,0,1-1.56.21,4.21,4.21,0,0,1-3-1,3.62,3.62,0,0,1-1.12-2.74h1.37a2.87,2.87,0,0,0,.82,1.89,2.77,2.77,0,0,0,1.94.64,2.88,2.88,0,0,0,2-.67A2.47,2.47,0,0,0,87.2,287.67Z"/><path class="cls-5" d="M92.28,278h10v1.12h-9v2.67h9.12v1.15H97.75V285h6.35v1.17H90V285h6.33v-2.08H92.28a.5.5,0,0,1-.3-.07.45.45,0,0,1-.07-.28v-4.23A.44.44,0,0,1,92,278,.42.42,0,0,1,92.28,278Zm-.73,12.23A2.45,2.45,0,0,1,93,288.08a10.35,10.35,0,0,1,8.17,0,2.3,2.3,0,0,1,0,4.25,10.38,10.38,0,0,1-8.18,0A2.43,2.43,0,0,1,91.55,290.2Zm1.51,0a1.55,1.55,0,0,0,1.09,1.43,8.63,8.63,0,0,0,5.79,0,1.55,1.55,0,0,0,1.12-1.43c0-.58-.37-1.05-1.12-1.38a7,7,0,0,0-2.88-.5,7.16,7.16,0,0,0-2.91.49A1.53,1.53,0,0,0,93.06,290.18Z"/><path class="cls-5" d="M225.91,259a.39.39,0,0,1-.08.28.37.37,0,0,1-.29.08h-6.2a.39.39,0,0,1-.29-.08A.39.39,0,0,1,219,259v-7h1.35v2.42h4.3V252h1.28v2.75h3.33v-3.27h1.36v8.84h-1.36V256h-3.33Zm-5.58-.8h4.3v-2.55h-4.3Zm.69,3h9.22a.42.42,0,0,1,.29.08.42.42,0,0,1,.07.29v4.82a.39.39,0,0,1-.07.28.42.42,0,0,1-.29.08H221a.39.39,0,0,1-.28-.08c-.06-.05-.08-.14-.08-.28v-4.82a.37.37,0,0,1,.08-.29A.39.39,0,0,1,221,261.15Zm1,4.42h7.21v-3.29H222Z"/><path class="cls-5" d="M233.48,253.7h8.81v1.09h-8.81Zm4.39,7.51a4.54,4.54,0,0,1-2.76-.77,2.4,2.4,0,0,1-1-2,2.44,2.44,0,0,1,1-2,5.28,5.28,0,0,1,5.49,0,2.5,2.5,0,0,1,0,4.08A4.58,4.58,0,0,1,237.87,261.21Zm0-1a2.93,2.93,0,0,0,1.71-.46,1.64,1.64,0,0,0,0-2.61,2.86,2.86,0,0,0-1.71-.47,3,3,0,0,0-1.76.47,1.65,1.65,0,0,0,0,2.61A3.08,3.08,0,0,0,237.88,260.17Zm2.24-7.58h-4.54v-1.11h4.54Zm-4,14c-.14,0-.23,0-.28-.08s-.08-.14-.08-.28v-3.92h1.4v3.12h8.74v1.16Zm7.92-15h1.35v4.68h2.15v1.21h-2.15v5.43H244Z"/><path class="cls-5" d="M210.21,289.58h14.1v1.18h-14.1Zm12.48-10.07H221l0,1.38c0,.45,0,.91,0,1.36l0,1.37c0,.46,0,.91,0,1.37h2.19v1.17H211.42V285h2.17c0-.46,0-.91,0-1.37s0-.91,0-1.37,0-.91,0-1.36,0-.92,0-1.38H211.8v-1.16h10.89ZM219.53,285c0-.46,0-.91,0-1.37s0-.91,0-1.37,0-.91,0-1.36l0-1.38h-4.73l0,2.75c0,.92,0,1.82,0,2.73Z"/><path class="cls-5" d="M226.31,278.26h6.38a.3.3,0,0,1,.36.36v5.24a.39.39,0,0,1-.08.28.36.36,0,0,1-.28.08l-5.08,0v3.64h1.47c.62,0,1.24,0,1.85-.05l1.74-.12c.54-.06,1-.12,1.48-.19s.82-.13,1.13-.2v1.2q-.5.11-1.23.21c-.48.07-1,.13-1.59.19s-1.2.1-1.85.14-1.33.05-2,.05h-2a.42.42,0,0,1-.29-.08.41.41,0,0,1-.08-.28v-5.32a.3.3,0,0,1,.37-.37h5v-3.6h-5.37Zm9.74,14.66v-15.4h1.38v5.65h2.27v1.26h-2.27v8.49Z"/><path class="cls-5" d="M241.28,278.4h8.06v1.16H246v1.49a9.42,9.42,0,0,0,.26,2.24,7.69,7.69,0,0,0,.76,1.92,7.43,7.43,0,0,0,1.33,1.75,9.09,9.09,0,0,0,1.88,1.42c-.15.13-.32.29-.52.49s-.35.36-.47.48a9.71,9.71,0,0,1-1.14-.83,7.72,7.72,0,0,1-1-1,9.23,9.23,0,0,1-1-1.36,9.12,9.12,0,0,1-.76-1.57,6.92,6.92,0,0,1-.64,1.52,11.75,11.75,0,0,1-.92,1.41,10.13,10.13,0,0,1-1.13,1.3,10,10,0,0,1-1.18,1c-.16-.14-.35-.3-.58-.47s-.44-.33-.65-.47a9.19,9.19,0,0,0,1.86-1.45,9,9,0,0,0,1.38-1.86,8.53,8.53,0,0,0,.85-2.16,10.26,10.26,0,0,0,.3-2.53v-1.27h-3.28Zm11.37,14.49H251.3V277.52h1.35v5.89h2.29v1.23h-2.29Z"/><path class="cls-5" d="M391.75,260.62h-6.13v3.27h-1.37v-3.27H377.7v-1.18h14.05Zm-12.24-3.14v-5.81h1.34v1.89h7.69v-1.89h1.36v5.81a.44.44,0,0,1-.08.29.42.42,0,0,1-.29.07h-9.65a.42.42,0,0,1-.29-.07A.44.44,0,0,1,379.51,257.48Zm.42,9.08a.39.39,0,0,1-.29-.08.39.39,0,0,1-.07-.28v-4h1.35v3.2h9.51v1.18Zm.92-9.88h7.69v-2h-7.69Z"/><path class="cls-5" d="M394.21,252.23h6.67v1.18H395.2v4.38h.85c1.14,0,2.33,0,3.55-.14a27.24,27.24,0,0,0,3.4-.45v1.22c-.51.1-1.07.19-1.67.27s-1.23.14-1.88.19-1.34.09-2,.11l-2,0h-1.2c-.15,0-.25,0-.29-.07s-.07-.13-.07-.27v-6.09a.39.39,0,0,1,.07-.28A.39.39,0,0,1,394.21,252.23Zm6,14.92a9.48,9.48,0,0,1-2.15-.22,5.2,5.2,0,0,1-1.64-.63,3.17,3.17,0,0,1-1.06-1A2.42,2.42,0,0,1,395,264a2.3,2.3,0,0,1,.37-1.27,3.14,3.14,0,0,1,1.07-1,6.31,6.31,0,0,1,1.64-.65,9.33,9.33,0,0,1,2.13-.23,9.48,9.48,0,0,1,2.16.23,6.32,6.32,0,0,1,1.66.65,3.1,3.1,0,0,1,1.06,1,2.31,2.31,0,0,1,.38,1.27,2.57,2.57,0,0,1-1.43,2.29A7.45,7.45,0,0,1,400.22,267.15ZM396.46,264a1.37,1.37,0,0,0,.29.85,2.26,2.26,0,0,0,.81.66,3.91,3.91,0,0,0,1.18.42,7.67,7.67,0,0,0,1.48.14,7.83,7.83,0,0,0,1.51-.14,4.27,4.27,0,0,0,1.22-.42,2.32,2.32,0,0,0,.79-.64,1.34,1.34,0,0,0,.3-.85,1.67,1.67,0,0,0-1.08-1.49,6,6,0,0,0-2.74-.55,7.67,7.67,0,0,0-1.48.14,5.45,5.45,0,0,0-1.2.41,2.32,2.32,0,0,0-.79.63A1.36,1.36,0,0,0,396.46,264Zm8.62-12.47v3h2.13v1.2h-2.13v4.94h-1.35v-9.15Z"/><path class="cls-5" d="M413.36,255.14a9.28,9.28,0,0,0,.26,2.23,7.7,7.7,0,0,0,2.13,3.64,9.87,9.87,0,0,0,1.84,1.39c-.17.14-.36.31-.55.5s-.36.36-.47.49a10.13,10.13,0,0,1-1.11-.84,8.43,8.43,0,0,1-1-1.05,10.42,10.42,0,0,1-1-1.35,8.23,8.23,0,0,1-.76-1.58,6.73,6.73,0,0,1-.63,1.51,11.19,11.19,0,0,1-.93,1.42,10.36,10.36,0,0,1-1.15,1.3,7.64,7.64,0,0,1-1.18,1,6.56,6.56,0,0,0-.55-.46c-.23-.18-.45-.33-.64-.46a9,9,0,0,0,1.86-1.5,9.1,9.1,0,0,0,1.4-1.88,8.7,8.7,0,0,0,.81-2.14,10.05,10.05,0,0,0,.28-2.43v-2.79h1.4Zm2.65,1h3.37v-4.59h1.38v15.35h-1.38v-9.53H416Z"/><path class="cls-5" d="M423.59,253.63h8.56v1.11h-8.56Zm4.42,1.94a4.5,4.5,0,0,1,2.75.78,2.33,2.33,0,0,1,1.06,2,2.26,2.26,0,0,1-.29,1.13,3.11,3.11,0,0,1-.8.9,4.11,4.11,0,0,1-1.21.57,5.2,5.2,0,0,1-1.51.21,5.36,5.36,0,0,1-1.54-.21,3.93,3.93,0,0,1-1.2-.57,2.81,2.81,0,0,1-.79-.9,2.26,2.26,0,0,1-.29-1.13,2.36,2.36,0,0,1,1.06-2A4.54,4.54,0,0,1,428,255.57Zm0,1.1a3,3,0,0,0-1.78.46,1.44,1.44,0,0,0-.63,1.2,1.48,1.48,0,0,0,.63,1.23,3.44,3.44,0,0,0,3.54,0,1.48,1.48,0,0,0,.65-1.23,1.44,1.44,0,0,0-.65-1.2A2.92,2.92,0,0,0,428,256.67Zm2.18-4.09h-4.52v-1.1h4.52Zm-3.67,14a.3.3,0,0,1-.37-.37v-4h1.37v3.21h9v1.18Zm5.7-11.08h2.55v-4h1.35v11.32h-1.35v-2.95h-2.55v-1.14h2.55v-2.08h-2.55Z"/><path class="cls-5" d="M360.14,285.73a6,6,0,0,0,1.46-.68,7.06,7.06,0,0,0,1.29-1.07,6.23,6.23,0,0,0,.94-1.38,4.65,4.65,0,0,0,.47-1.58h-3.12v-1.13h7.75V281h-3.16a3.45,3.45,0,0,0,.44,1.49,4.57,4.57,0,0,0,1,1.19,5.69,5.69,0,0,0,1.25.9,7.27,7.27,0,0,0,1.38.56l-.85,1a8.91,8.91,0,0,1-2.17-1.3,7.07,7.07,0,0,1-1.69-1.89,8.62,8.62,0,0,1-1.67,2.23,7.37,7.37,0,0,1-2.25,1.53Zm2.74-8.25h4.4v1.13h-4.4Zm5.25,15.65a7.93,7.93,0,0,1-3.8-.78,2.42,2.42,0,0,1-1.42-2.2,2.25,2.25,0,0,1,.38-1.26,2.88,2.88,0,0,1,1.06-.94,6.25,6.25,0,0,1,1.65-.59,9.85,9.85,0,0,1,2.13-.21,7.86,7.86,0,0,1,3.82.8,2.44,2.44,0,0,1,1.43,2.2,2.41,2.41,0,0,1-1.43,2.21A8.12,8.12,0,0,1,368.13,293.13Zm-3.76-3a1.3,1.3,0,0,0,.28.83,2,2,0,0,0,.81.59,4.91,4.91,0,0,0,1.19.37,8.53,8.53,0,0,0,1.48.12,6.79,6.79,0,0,0,2.72-.48,1.47,1.47,0,0,0,0-2.83,6.93,6.93,0,0,0-2.73-.47,8.53,8.53,0,0,0-1.48.12,5.41,5.41,0,0,0-1.21.35,2.21,2.21,0,0,0-.79.59A1.23,1.23,0,0,0,364.37,290.15Zm7.42-3.1v-3.92H369V282h2.81v-4.5h1.35v9.55Z"/><path class="cls-5" d="M389.25,290.93h-14.1v-1.18h6.34v-3.86h1.4v3.86h6.36Zm-6.32-11.53a4.14,4.14,0,0,0,.52,2,7.29,7.29,0,0,0,1.33,1.76,9.45,9.45,0,0,0,1.83,1.36,8.68,8.68,0,0,0,2,.86l-1,1a12.21,12.21,0,0,1-1.65-.77,11.09,11.09,0,0,1-1.55-1.05,9.54,9.54,0,0,1-1.31-1.31,5.73,5.73,0,0,1-.91-1.51,7.64,7.64,0,0,1-2.21,2.8,11.81,11.81,0,0,1-3.23,1.86l-1-1.06a9.89,9.89,0,0,0,3.89-2.23,6.63,6.63,0,0,0,1.31-1.74,4.22,4.22,0,0,0,.51-2v-1.26h1.47Z"/><path class="cls-5" d="M391.77,286a.3.3,0,0,1-.37-.36V278h1.36v6.86h1.18c.56,0,1.16,0,1.79-.05s1.23-.08,1.81-.14l1.57-.18a7.22,7.22,0,0,0,1.06-.2v1.16c-.27.07-.64.15-1.1.23s-1,.15-1.57.2-1.19.11-1.84.15-1.31.06-2,.06Zm1.59,6.52a.39.39,0,0,1-.28-.08.41.41,0,0,1-.08-.28v-4.34h1.39v3.52h8.92v1.18Zm4.08-10.82h4.16v-1.66h-4.16V279h4.14v-1.45h1.35v11.26H401.6v-5.93h-4.16Z"/><path class="cls-5" d="M424.49,287.19h-6.28v5.72h-1.4v-5.72h-6.38V286h14.06Zm-13.42-3.94a10.55,10.55,0,0,0,4.22-1.82,3.43,3.43,0,0,0,1.4-2.74v-.81h1.52v.8a3.08,3.08,0,0,0,.47,1.66,4.88,4.88,0,0,0,1.25,1.32,8.24,8.24,0,0,0,1.79,1,12.19,12.19,0,0,0,2.06.61l-.87,1.09a12.76,12.76,0,0,1-1.65-.55,9.86,9.86,0,0,1-1.59-.8,8.28,8.28,0,0,1-1.33-1,4.23,4.23,0,0,1-.87-1.27,5.36,5.36,0,0,1-1,1.31,6.59,6.59,0,0,1-1.32,1,10,10,0,0,1-1.53.78,14.81,14.81,0,0,1-1.62.56Z"/><path class="cls-5" d="M427,286.58a.44.44,0,0,1-.29-.08.41.41,0,0,1-.07-.28v-4.06a.29.29,0,0,1,.36-.36h5v-2.55h-5.32v-1.16H433c.14,0,.23,0,.28.08s.08.14.08.28v4.11c0,.14,0,.23-.08.28s-.14.08-.28.08h-5v2.46h1c.62,0,1.25,0,1.88-.05s1.23-.07,1.81-.12l1.55-.18c.47-.06.86-.13,1.17-.2V286c-.34.07-.76.14-1.27.21s-1.06.13-1.66.19-1.26.1-1.94.14-1.36.05-2,.05Zm1.66,6a.39.39,0,0,1-.28-.08.41.41,0,0,1-.08-.28v-4.15h1.37v3.33h9v1.18Zm5.57-13.09h2.65v-2h1.37v11.33h-1.35v-5.22h-2.67v-1.12h2.67v-1.89h-2.67Z"/><path class="cls-5" d="M445.36,281.71v3.66c.32,0,.73,0,1.23,0s1-.06,1.54-.1,1.07-.08,1.59-.14,1-.12,1.36-.19v1.16c-.75.12-1.83.23-3.27.34s-3.15.16-5.12.16H440.8v-1.19H444v-3.66Zm3.74-3.57a.39.39,0,0,1,.28.08c.06,0,.08.14.08.28,0,.48,0,1-.1,1.45s-.1,1-.16,1.43-.12.92-.18,1.33-.13.77-.2,1.08h-1.35c.06-.28.11-.6.17-1s.11-.77.16-1.17.1-.79.14-1.2.07-.77.1-1.1h-6.27v-1.2Zm-5.43,14.42a.3.3,0,0,1-.36-.36V288h1.37v3.4h8.8v1.18Zm8-3.43V277.52H453v4.93h2.12v1.22H453v5.46Z"/><path class="cls-5" d="M556.85,152h-6.13v3.28h-1.37V152H542.8v-1.17h14.05Zm-12.23-3.13V143H546v1.89h7.7V143H555v5.81a.39.39,0,0,1-.08.28.37.37,0,0,1-.29.08H545a.39.39,0,0,1-.29-.08A.39.39,0,0,1,544.62,148.83Zm.41,9.08a.39.39,0,0,1-.28-.08.36.36,0,0,1-.08-.28v-4H546v3.21h9.52v1.18ZM546,148h7.7v-2H546Z"/><path class="cls-5" d="M544.2,169.57h6.67v1.18h-5.68v4.39H546c1.14,0,2.33,0,3.55-.14a31.92,31.92,0,0,0,3.4-.45v1.21c-.51.1-1.07.19-1.67.27l-1.89.2c-.65,0-1.33.08-2,.1s-1.37,0-2,0h-1.2a.44.44,0,0,1-.29-.07.39.39,0,0,1-.07-.28v-6.08a.42.42,0,0,1,.07-.29A.44.44,0,0,1,544.2,169.57Zm6,14.92a10.11,10.11,0,0,1-2.15-.21,5.73,5.73,0,0,1-1.64-.63,3.1,3.1,0,0,1-1.06-1,2.41,2.41,0,0,1-.36-1.29,2.33,2.33,0,0,1,.37-1.28,3.11,3.11,0,0,1,1.07-1,5.68,5.68,0,0,1,1.64-.65,8.79,8.79,0,0,1,2.13-.24,8.92,8.92,0,0,1,2.16.24,5.81,5.81,0,0,1,1.66.65,3.17,3.17,0,0,1,1.06,1,2.34,2.34,0,0,1,.38,1.28,2.59,2.59,0,0,1-1.43,2.29A7.55,7.55,0,0,1,550.21,184.49Zm-3.76-3.13a1.41,1.41,0,0,0,.29.85,2.55,2.55,0,0,0,.8.66,4.38,4.38,0,0,0,1.19.41,7.67,7.67,0,0,0,1.48.14,7.83,7.83,0,0,0,1.51-.14,4.6,4.6,0,0,0,1.22-.41,2.34,2.34,0,0,0,.79-.65,1.31,1.31,0,0,0,.3-.84,1.67,1.67,0,0,0-1.09-1.5,6.08,6.08,0,0,0-2.73-.55,6.94,6.94,0,0,0-1.48.15,5.45,5.45,0,0,0-1.2.4,2.34,2.34,0,0,0-.79.64A1.36,1.36,0,0,0,546.45,181.36Zm8.62-12.48v3h2.13v1.19h-2.13V178h-1.36v-9.15Z"/><path class="cls-5" d="M542.87,203.54a8.36,8.36,0,0,0,1.54-.8,6.53,6.53,0,0,0,1.33-1.12,5.4,5.4,0,0,0,1-1.43,4.87,4.87,0,0,0,.39-1.73h-3.17v-1.14h7.74v1.14h-3.1a3.72,3.72,0,0,0,.38,1.59,5.35,5.35,0,0,0,.94,1.33,6.41,6.41,0,0,0,1.28,1,7.19,7.19,0,0,0,1.44.67l-.9,1a9.7,9.7,0,0,1-2.18-1.38,6.39,6.39,0,0,1-1.65-2,6.84,6.84,0,0,1-1.63,2.26,8.29,8.29,0,0,1-2.29,1.57Zm2.73-8.73H550v1.09H545.6Zm.68,15.09a.39.39,0,0,1-.29-.08.39.39,0,0,1-.07-.28v-4.33h1.37v3.51h9v1.18Zm9.6-15v11.3h-1.33v-5.51h-2.86v-1.13h2.86v-4.66Z"/><path class="cls-6" d="M205.94,147.17a4.93,4.93,0,0,0-4.93-4.93h-5.55v-2.1c0-.87-.58-1.46-1.75-1.46s-1.74.59-1.74,1.46v2.1h-5.55a4.93,4.93,0,0,0-4.93,4.93,8.37,8.37,0,0,0,.51,3,3.63,3.63,0,0,0,.75,1.2l.39,4.25a6.16,6.16,0,0,0,6.17,5.65H192c0,.87.58,1.45,1.74,1.45s1.75-.58,1.75-1.45h2.75a6.18,6.18,0,0,0,6.18-5.65l.39-4.37a3.93,3.93,0,0,0,.65-1.08A8.37,8.37,0,0,0,205.94,147.17Z"/><polygon class="cls-2" points="288.86 187.4 285.54 181.65 282.22 175.9 288.86 175.9 295.5 175.9 292.18 181.65 288.86 187.4"/></svg>