<svg id="레이어_1" data-name="레이어 1" xmlns="http://www.w3.org/2000/svg" viewBox="0 0 156.87 18.51"><defs><style>.cls-1{fill:#ffcd00;}</style></defs><path class="cls-1" d="M.1,1A19,19,0,0,1,3.47,1c0,.36,0,1.2,0,2.15,1.28,0,3.51,0,4.75,0,0-1,0-1.79,0-2.15a18.74,18.74,0,0,1,3.35,0c.12,1.22.12,8.63,0,10-1,.1-10.35.12-11.51,0C0,9.21,0,2.19.1,1ZM.57,12A16.58,16.58,0,0,1,4,12c0,.67,0,2.08,0,2.62.93,0,11.81,0,12.71,0a14.18,14.18,0,0,1,0,3.19c-1.38.08-14.7.08-16.16,0A56.27,56.27,0,0,1,.57,12Zm2.9-4c.45,0,4.34,0,4.79,0l0-2.07C7,6,4.77,6,3.49,5.94ZM13.15.66a15.82,15.82,0,0,1,3.37,0c.06.43.11,2.46.11,4.78a17.32,17.32,0,0,1,1.74.08,15.24,15.24,0,0,1,0,3,17.32,17.32,0,0,1-1.74.08c0,2.28-.05,4.25-.11,4.65a23.63,23.63,0,0,1-3.37,0C13.07,12.28,13.07,1.68,13.15.66Z"/><path class="cls-1" d="M19.51,1.07a19.64,19.64,0,0,1,3.43,0c0,1,0,3.13,0,3.68a50.84,50.84,0,0,1,5.24,0,15.64,15.64,0,0,1,0,3.06c-1,.1-7.66.1-8.67,0C19.41,6.57,19.41,2.11,19.51,1.07ZM19.89,9a23.68,23.68,0,0,1,3.37,0c0,.34,0,1,0,1.7,1.57,0,4.65,0,6.17,0,0-.75,0-1.38,0-1.7A23,23,0,0,1,32.8,9c.09,1,.11,7.79,0,9.11-1,.11-11.75.13-12.91,0C19.77,16.38,19.81,10,19.89,9ZM23.26,15c.45,0,5.77,0,6.22,0l0-1.63c-1.52,0-4.6,0-6.17,0ZM29.45.66a15.63,15.63,0,0,1,3.35,0c.07.39.09,1.45.11,2.64a14.3,14.3,0,0,1,1.74.09,15.24,15.24,0,0,1,0,3,17.46,17.46,0,0,1-1.76.08,16,16,0,0,1-.09,1.67,23.35,23.35,0,0,1-3.35,0C29.35,7.16,29.35,1.68,29.45.66Z"/><path class="cls-1" d="M38.81,4.1c-1.44,0-2.54,0-2.82,0A16.16,16.16,0,0,1,36,1C37.17.79,47.83.79,48.86,1a16.14,16.14,0,0,1,0,3.11c-.32,0-1.28,0-2.56,0a43.62,43.62,0,0,1,3,3.71,10.43,10.43,0,0,1-2.64,2c-.59-.57-2.86-3.35-4.18-5.07-1.18,1.78-3.35,4.83-3.9,5.44a10.11,10.11,0,0,1-2.76-1.85A38.81,38.81,0,0,1,38.81,4.1Zm6.24,6.19c6.7,0,8.81,1.42,8.81,4.06s-2.11,4.06-8.81,4.06S36.23,17,36.23,14.35,38.35,10.29,45.05,10.29Zm0,5.22c4.46,0,5.27-.41,5.27-1.16s-.81-1.16-5.27-1.16-5.28.41-5.28,1.16S40.58,15.51,45.05,15.51ZM50,.66a15.63,15.63,0,0,1,3.35,0c.06.39.08,1.65.1,3.13.71,0,1.4,0,1.75.08a15.34,15.34,0,0,1,0,3c-.35,0-1,.08-1.75.08,0,1.42,0,2.64-.1,3A23.36,23.36,0,0,1,50,10C49.9,9,49.9,1.68,50,.66Z"/><path class="cls-1" d="M61.12.75c.73-.06,2.87-.06,3.62,0,1.5,2.25,4.14,6.53,5.5,8.83a11.3,11.3,0,0,1-3,1.93c-.73-1.08-3.53-5.69-4.32-7-.79,1.3-3.59,5.91-4.32,7a11.3,11.3,0,0,1-3-1.93C57,7.28,59.62,3,61.12.75Zm-5.3,13.94c.35,0,2.66-.06,5.34-.06,0-1.6,0-3.92,0-4.63a32.89,32.89,0,0,1,3.44,0c.06.71.08,3,0,4.63,2.64,0,4.93,0,5.34.06a10.94,10.94,0,0,1,0,3.13c-1,.08-13.36.08-14.2,0A11.72,11.72,0,0,1,55.82,14.69Z"/><path class="cls-1" d="M76.52,8.1c1-.07,10.78-.07,12,0a16.67,16.67,0,0,1,0,3c-1.26,0-11,0-12,0A15,15,0,0,1,76.52,8.1Zm6-7.78c4,0,5.68,1.46,5.68,3.67s-1.7,3.68-5.68,3.68S76.84,6.21,76.84,4,78.55.32,82.53.32ZM77,11.89c1-.1,10.19-.1,11.14,0a48.51,48.51,0,0,1,0,6.38c-1,.12-10.11.12-11.14,0A45.28,45.28,0,0,1,77,11.89Zm3.49,3.62c.71.06,3.43.06,4.16,0v-.86c-.71-.06-3.43-.06-4.16,0ZM82.53,4.87c1.6,0,2-.41,2-.88s-.45-.87-2-.87-2,.41-2,.87S80.93,4.87,82.53,4.87Z"/><path class="cls-1" d="M93,.87a20.92,20.92,0,0,1,3.54,0c.44.69,3.53,7.16,3.83,8a14.11,14.11,0,0,1-2.94,1.52C97,9.8,95.74,7.16,94.77,5c-.93,2.19-2.17,4.87-2.5,5.44a12.56,12.56,0,0,1-3.08-1.38C89.47,8.24,92.52,1.62,93,.87ZM90.26,11.22c1-.1,13.12-.1,14.13,0,.1.85.1,6.23,0,6.86a33.85,33.85,0,0,1-3.49,0c0-.6,0-3,0-3.79-.93,0-9.72,0-10.64,0A26.19,26.19,0,0,1,90.26,11.22ZM101,.66a15.63,15.63,0,0,1,3.35,0c.14,1,.14,8.84,0,9.85a23.36,23.36,0,0,1-3.35,0C100.94,9.52,100.94,1.68,101,.66Z"/><path class="cls-1" d="M108,4.1c-.92,0-1.63,0-1.87,0a16.16,16.16,0,0,1,0-3.11c1.18-.16,9.11-.16,10.15,0a16.14,16.14,0,0,1,0,3.11c-.28,0-1,0-1.87,0a50.29,50.29,0,0,1,2.07,4.71,10.86,10.86,0,0,1-3.06,1.36,50.58,50.58,0,0,1-2.22-5,53.49,53.49,0,0,1-2.09,5,11.45,11.45,0,0,1-3.08-1.22A44.89,44.89,0,0,1,108,4.1Zm-1.28,6.78c1.07-.12,14.47-.12,15.55,0a61.42,61.42,0,0,1,0,7.18c-1,.11-14.58.11-15.55,0A57.34,57.34,0,0,1,106.75,10.88Zm12.16,4.34a9.14,9.14,0,0,0,0-1.48c-.77,0-8-.06-8.75,0a9.14,9.14,0,0,0,0,1.48C110.91,15.28,118.16,15.28,118.91,15.22ZM116.53,4.38c.61,0,1.52-.06,2.34,0,0-1.73,0-3.25.08-3.68a15.63,15.63,0,0,1,3.35,0c.14,1,.14,8.49,0,9.51a23.36,23.36,0,0,1-3.35,0c0-.35-.06-1.45-.06-2.79-.84,0-1.75,0-2.36,0A16.23,16.23,0,0,1,116.53,4.38Z"/><path class="cls-1" d="M129.22,5c-.91,0-1.6,0-1.85,0a14.94,14.94,0,0,1,0-3c.43,0,1.75-.08,3.31-.08,0-.65,0-1.34.06-1.78a19.14,19.14,0,0,1,3.55,0c.05.44.07,1.13.07,1.78,1.56,0,2.86,0,3.24.08a13.58,13.58,0,0,1,0,3c-.28,0-1,0-1.84,0,.81,1.48,1.76,3.23,2,3.8A10.41,10.41,0,0,1,135,10.39a41.53,41.53,0,0,1-2.47-4.53A41.18,41.18,0,0,1,130,10.39a10.35,10.35,0,0,1-2.78-1.62C127.45,8.2,128.41,6.45,129.22,5Zm2,9.05c-1.61,0-2.82,0-3.13,0a14.64,14.64,0,0,1,0-3c1.18-.1,12.71-.1,13.75,0a14.62,14.62,0,0,1,0,3c-.35,0-1.57,0-3.13,0,1.62.8,3.13,1.55,3.53,1.81a8.7,8.7,0,0,1-1.62,2.68c-.63-.26-3.43-1.79-5.67-3.07-2.21,1.28-5,2.81-5.64,3.07a8.7,8.7,0,0,1-1.62-2.68C128.06,15.57,129.56,14.82,131.19,14ZM138.48.66a15.63,15.63,0,0,1,3.35,0c.06.41.08,1.79.1,3.42a17.32,17.32,0,0,1,1.74.08,13.86,13.86,0,0,1,0,3,17.32,17.32,0,0,1-1.74.08c0,1.46,0,2.68-.1,3.05a23.36,23.36,0,0,1-3.35,0C138.38,9.31,138.38,1.68,138.48.66Z"/><path class="cls-1" d="M144.22,1.13c1-.1,6.19-.1,7.21,0,.1,1.24.1,15.05,0,16.08a19.65,19.65,0,0,1-3.43,0c0-.95,0-11.77,0-12.77-1.16,0-2.85.06-3.78,0A18.3,18.3,0,0,1,144.22,1.13Zm8.69-.47a15.82,15.82,0,0,1,3.37,0c.14,1,.14,16.21,0,17.2a13.55,13.55,0,0,1-3.37,0C152.79,16.87,152.79,1.68,152.91.66Z"/><path class="cls-1" d="M72,8.1a20.88,20.88,0,0,1,3,0c0,1,0,2.15,0,3-.31,0-2.7,0-3,0C72,10.21,72,9.11,72,8.1Z"/></svg>