<svg width="87" height="19" viewBox="0 0 87 19" fill="none" xmlns="http://www.w3.org/2000/svg">
<path d="M0.181641 16.28C0.761641 16.62 2.66164 17.2 3.40164 17.26C3.64164 16.72 4.98164 11.8 6.12164 7.20002C7.30164 11.68 8.64164 16.58 8.88164 17.1C9.68164 17.02 11.5616 16.4 12.1016 16.08C11.9016 15.18 8.60164 4.10002 7.68164 1.34002C7.04164 1.24002 5.10164 1.24002 4.46164 1.34002C3.54164 4.14002 0.301641 15.4 0.181641 16.28ZM10.8616 8.80002C11.3816 8.86002 13.0016 8.88002 14.2216 8.86002C14.2016 13 14.2416 17.3 14.3016 17.8C15.0816 17.94 17.0416 17.94 17.6216 17.8C17.7616 16.82 17.7616 1.86002 17.6216 0.860019C16.9416 0.74002 14.9816 0.74002 14.3016 0.860019C14.2616 1.20002 14.2416 3.18002 14.2216 5.68002C13.0016 5.66002 11.3816 5.68002 10.8616 5.74002C10.7616 6.18002 10.7616 8.36002 10.8616 8.80002Z" fill="#FFCD00"/>
<path d="M19.4591 17.22C20.5991 17.34 26.8791 17.32 27.8391 17.22C27.9191 15.92 27.9191 3.04002 27.8391 1.24002C27.1991 1.14002 25.2991 1.14002 24.5791 1.24002C24.5591 1.90002 24.5591 3.52002 24.5591 5.40002C23.9991 5.40002 23.3191 5.40002 22.7591 5.42002C22.7591 3.54002 22.7591 1.90002 22.7391 1.24002C22.0591 1.14002 20.0391 1.14002 19.4591 1.24002C19.3591 3.06002 19.3391 15.56 19.4591 17.22ZM22.7391 14.18C22.7391 13.92 22.7591 11.34 22.7591 8.50002C23.3191 8.52002 23.9991 8.50002 24.5591 8.50002C24.5591 11.32 24.5791 13.92 24.5791 14.18C24.1391 14.22 23.1791 14.22 22.7391 14.18ZM29.1391 17.8C29.9191 17.94 31.8791 17.94 32.4591 17.8C32.5991 16.82 32.5991 1.86002 32.4591 0.860019C31.7791 0.74002 29.8191 0.74002 29.1391 0.860019C29.0191 1.86002 29.0191 16.82 29.1391 17.8Z" fill="#FFCD00"/>
<path d="M33.9029 17.76C34.7229 17.84 45.4829 17.84 46.4829 17.76C46.6429 17.04 46.6229 15.48 46.4829 14.68C45.4829 14.6 34.7229 14.58 33.9029 14.68C33.7629 15.44 33.7629 16.98 33.9029 17.76ZM33.9629 11.6C34.3829 12.06 36.3229 12.76 37.1029 12.92C37.5229 12.1 39.8629 6.58002 40.2029 5.62002C40.5229 6.58002 42.8829 12.1 43.3029 12.92C44.0629 12.76 46.0229 12.06 46.4229 11.6C45.4829 9.14002 42.5029 2.64002 41.6229 0.940019C41.0429 0.880019 39.3429 0.880019 38.7629 0.940019C37.8829 2.64002 34.9029 9.14002 33.9629 11.6Z" fill="#FFCD00"/>
<path d="M50.6941 16.36C51.2741 16.72 53.1341 17.26 53.8541 17.32C54.1541 16.64 56.0541 9.98002 57.1341 6.08002C58.1541 9.92002 59.9741 16.46 60.2541 17.1C61.0341 17.04 62.8941 16.46 63.4141 16.16C63.2741 15.38 61.1341 8.14002 60.0141 4.48002C61.3741 4.48002 62.4341 4.46002 62.7941 4.44002C62.8941 3.92002 62.8941 1.74002 62.7941 1.36002C61.7741 1.20002 52.3741 1.20002 51.2141 1.36002C51.1141 1.78002 51.1141 4.00002 51.2141 4.44002C51.5341 4.46002 52.7141 4.48002 54.2141 4.48002C53.0141 8.24002 50.7941 15.62 50.6941 16.36ZM64.2141 17.8C64.9941 17.94 66.9541 17.94 67.5341 17.8C67.6741 16.82 67.6741 1.86002 67.5341 0.860019C66.8541 0.74002 64.8941 0.74002 64.2141 0.860019C64.0941 1.86002 64.0941 16.82 64.2141 17.8Z" fill="#FFCD00"/>
<path d="M69.001 5.62002C69.001 8.66002 71.181 10.46 74.701 10.46C78.221 10.46 80.401 8.66002 80.401 5.62002C80.401 2.58002 78.221 0.780019 74.701 0.780019C71.181 0.780019 69.001 2.58002 69.001 5.62002ZM69.661 14.48C70.561 14.5 81.621 14.5 82.541 14.48C82.541 15.24 82.521 17.42 82.541 18.02C83.381 18.08 85.181 18.08 85.981 18.02C86.081 17.2 86.081 12.3 85.981 11.46C84.981 11.36 70.681 11.36 69.661 11.46C69.601 12.04 69.601 14 69.661 14.48ZM72.261 5.62002C72.261 4.36002 73.221 3.64002 74.701 3.64002C76.181 3.64002 77.141 4.36002 77.141 5.62002C77.141 6.88002 76.181 7.60002 74.701 7.60002C73.221 7.60002 72.261 6.88002 72.261 5.62002ZM80.901 9.34002C81.261 9.38002 81.941 9.40002 82.641 9.40002C82.661 10.06 82.661 10.56 82.681 10.76C83.461 10.84 85.401 10.84 85.981 10.76C86.121 9.76002 86.121 1.86002 85.981 0.860019C85.301 0.74002 83.361 0.74002 82.681 0.860019C82.661 1.02002 82.661 1.32002 82.641 1.74002C81.941 1.74002 81.261 1.76002 80.901 1.78002C80.801 2.40002 80.801 4.08002 80.901 4.68002C81.241 4.70002 81.921 4.72002 82.621 4.72002V6.38002C81.921 6.38002 81.241 6.40002 80.901 6.42002C80.801 7.06002 80.801 8.74002 80.901 9.34002Z" fill="#FFCD00"/>
</svg>
