<svg width="29" height="18" viewBox="0 0 29 18" fill="none" xmlns="http://www.w3.org/2000/svg">
<rect width="29" height="18" rx="2" fill="#EFF9F9"/>
<path d="M8.29686 10.613H6.22886V8.006H8.29686V10.613ZM8.29686 7.291H6.22886V4.882H5.37086V11.339H9.14386V4.882H8.29686V7.291ZM12.5429 3.947V7.852H11.2119V4.167H10.3649V13.33H11.2119V8.589H12.5429V13.814H13.4009V3.947H12.5429ZM23.124 3.958H22.222V11.042H23.124V3.958ZM19.274 8.666H16.425V5.531H19.274V8.666ZM20.154 4.805H15.545V9.392H20.154V4.805ZM17.679 12.758V10.371H16.777V13.484H23.421V12.758H17.679Z" fill="#5EBEBB"/>
</svg>
