<svg width="39" height="18" viewBox="0 0 39 18" fill="none" xmlns="http://www.w3.org/2000/svg">
<rect width="39" height="18" rx="2" fill="#F90050" fill-opacity="0.05"/>
<path d="M8.10529 9.48C8.51229 9.579 8.98529 9.634 9.46929 9.634C9.96429 9.634 10.4373 9.579 10.8553 9.48V11.801H8.10529V9.48ZM9.46929 5.278C11.0533 5.278 12.1973 6.004 12.1973 7.104C12.1973 8.204 11.0533 8.93 9.46929 8.93C7.88529 8.93 6.75229 8.204 6.75229 7.104C6.75229 6.004 7.88529 5.278 9.46929 5.278ZM11.7573 11.801V9.128C12.5713 8.699 13.0553 7.995 13.0553 7.104C13.0553 5.564 11.5703 4.574 9.46929 4.574C7.37929 4.574 5.88329 5.564 5.88329 7.104C5.88329 7.995 6.37829 8.71 7.20329 9.139V11.801H5.00329V12.549H13.9683V11.801H11.7573ZM15.6064 5.014V5.74H19.3134C19.1264 8.083 17.8064 9.975 15.1554 11.24L15.6394 11.977C18.9174 10.371 20.2264 7.863 20.2264 5.014H15.6064ZM22.2174 3.947V13.814H23.1194V3.947H22.2174ZM28.1236 9.48C28.5306 9.579 29.0036 9.634 29.4876 9.634C29.9826 9.634 30.4556 9.579 30.8736 9.48V11.801H28.1236V9.48ZM29.4876 5.278C31.0716 5.278 32.2156 6.004 32.2156 7.104C32.2156 8.204 31.0716 8.93 29.4876 8.93C27.9036 8.93 26.7706 8.204 26.7706 7.104C26.7706 6.004 27.9036 5.278 29.4876 5.278ZM31.7756 11.801V9.128C32.5896 8.699 33.0736 7.995 33.0736 7.104C33.0736 5.564 31.5886 4.574 29.4876 4.574C27.3976 4.574 25.9016 5.564 25.9016 7.104C25.9016 7.995 26.3966 8.71 27.2216 9.139V11.801H25.0216V12.549H33.9866V11.801H31.7756Z" fill="#F90050"/>
</svg>
