<svg width="49" height="18" viewBox="0 0 49 18" fill="none" xmlns="http://www.w3.org/2000/svg">
<rect width="49" height="18" rx="2" fill="#FDF2E6"/>
<path d="M13.9417 9.26H12.4457C12.7977 7.643 12.7977 6.499 12.7977 5.465V4.563H6.14272V5.3H11.9287V5.465C11.9287 5.861 11.9287 6.257 11.9067 6.686L5.85672 6.917L5.97772 7.676L11.8517 7.39C11.8077 7.951 11.7197 8.556 11.5547 9.26H5.02072V9.997H9.03572V13.814H9.93772V9.997H13.9417V9.26ZM17.1749 5.531H18.7479V8.457C18.2199 8.49 17.6919 8.512 17.1749 8.523V5.531ZM21.0579 8.248C20.5959 8.303 20.1119 8.358 19.6169 8.402V5.531H20.5959V4.805H15.3269V5.531H16.2949V8.534C15.8549 8.545 15.4259 8.545 15.0519 8.545L15.1509 9.293C16.8229 9.293 19.1329 9.26 21.1239 8.919L21.0579 8.248ZM19.5289 13.088C18.0659 13.088 17.1749 12.692 17.1749 11.999C17.1749 11.317 18.0659 10.921 19.5289 10.921C21.0029 10.921 21.8829 11.317 21.8829 11.999C21.8829 12.692 21.0029 13.088 19.5289 13.088ZM19.5289 10.206C17.5159 10.206 16.2839 10.855 16.2839 11.999C16.2839 13.143 17.5159 13.803 19.5289 13.803C21.5309 13.803 22.7739 13.143 22.7739 11.999C22.7739 10.855 21.5309 10.206 19.5289 10.206ZM22.6749 6.499V3.958H21.7729V9.997H22.6749V7.247H24.1379V6.499H22.6749ZM32.2 3.947V13.836H33.102V3.947H32.2ZM27.899 4.706C26.436 4.706 25.391 6.048 25.391 8.149C25.391 10.25 26.436 11.592 27.899 11.592C29.362 11.592 30.407 10.25 30.407 8.149C30.407 6.048 29.362 4.706 27.899 4.706ZM27.899 5.52C28.856 5.52 29.538 6.554 29.538 8.149C29.538 9.755 28.856 10.789 27.899 10.789C26.931 10.789 26.249 9.755 26.249 8.149C26.249 6.554 26.931 5.52 27.899 5.52ZM35.9281 10.162C37.5011 9.843 38.8981 9.007 39.5141 7.742C40.1191 9.007 41.5161 9.843 43.0781 10.162L43.4411 9.425C41.5491 9.095 39.9651 7.874 39.9651 6.257H43.1331V5.531H39.9651V4.189H39.0521V5.531H35.8731V6.257H39.0521C39.0521 7.874 37.4681 9.095 35.5761 9.425L35.9281 10.162ZM35.0371 11.812V12.549H43.9911V11.812H35.0371Z" fill="#EF8A33"/>
</svg>
