<svg width="224" height="78" viewBox="0 0 224 78" fill="none" xmlns="http://www.w3.org/2000/svg">
<g clip-path="url(#clip0_729_28)">
<path d="M0.159973 1.83997C2.25997 1.62997 17.59 1.62997 19.69 1.83997C19.9 4.39997 19.9 16.5 19.69 18.65C17.3614 18.8594 15.0186 18.8594 12.69 18.65C12.6 16.65 12.6 9.35998 12.69 8.22998C11.18 8.34998 2.09998 8.34998 0.169983 8.22998C-0.0433111 6.10549 -0.0466704 3.96512 0.159973 1.83997ZM1.83997 20.96C4.06997 20.7 27.59 20.7 29.84 20.96C30.13 26.3727 30.13 31.7972 29.84 37.21C27.84 37.42 3.83997 37.42 1.83997 37.21C1.54997 31.7972 1.54997 26.3727 1.83997 20.96ZM22.84 31.33C22.93 29.848 22.93 28.362 22.84 26.88C21.25 26.8 10.45 26.75 8.94 26.88C8.84999 28.362 8.84999 29.848 8.94 31.33C10.45 31.46 21.25 31.46 22.8 31.33H22.84ZM22.93 1.20996C25.2332 0.95996 27.5567 0.95996 29.86 1.20996C30.15 3.30996 30.15 17.39 29.86 19.49C27.5528 19.6503 25.2372 19.6503 22.93 19.49C22.67 17.43 22.67 3.30996 22.89 1.20996H22.93Z" fill="#234635"/>
<path d="M38.17 11.7602C35.82 11.7602 33.97 11.7101 33.38 11.6701C33.1699 9.51859 33.1699 7.35173 33.38 5.20018C34.26 5.08018 37.2501 4.99018 40.7301 4.95018C40.6497 3.35334 40.6797 1.75295 40.82 0.16026C43.2655 -0.0495136 45.7245 -0.0495136 48.17 0.16026C48.3064 1.7532 48.3331 3.35356 48.25 4.95018C51.78 4.95018 54.76 5.08018 55.56 5.20018C55.7703 7.35172 55.7703 9.51861 55.56 11.6701C54.89 11.6701 53.1299 11.6702 50.8599 11.7602C52.8599 18.9802 56.4 32.3802 56.53 33.8902C54.3581 34.7846 52.061 35.3378 49.72 35.5303C49.22 34.1503 46.32 22.6803 44.51 15.1603C42.79 22.7603 39.98 34.3102 39.51 35.7002C37.1744 35.5201 34.8808 34.9804 32.71 34.1002C32.79 32.5902 36.2 19.1002 38.17 11.7602ZM58.17 1.21019C60.4967 0.960872 62.8433 0.960872 65.17 1.21019C65.43 3.31019 65.38 34.6901 65.17 36.7901C62.8463 37.0898 60.4937 37.0898 58.17 36.7901C57.96 34.7301 57.96 3.31019 58.21 1.21019H58.17Z" fill="#234635"/>
<path d="M71.9801 8.98011C70.4701 8.98011 69.29 8.98015 68.79 8.90015C68.58 6.7486 68.58 4.58161 68.79 2.43006C73.601 2.1 78.4289 2.1 83.2399 2.43006C83.4104 4.58336 83.4104 6.74685 83.2399 8.90015L80.89 8.98011C81.89 13.6501 82.95 19.4001 84 24.8601C85.05 19.4001 86.1401 13.6501 87.1001 8.98011L84.75 8.90015C84.5795 6.74685 84.5795 4.58336 84.75 2.43006C89.561 2.1 94.389 2.1 99.2 2.43006C99.41 4.58161 99.41 6.7486 99.2 8.90015C98.7 8.90015 97.52 8.98011 96.01 8.98011C97.48 16.2501 100.38 31.9201 100.59 33.9801C98.4213 34.7625 96.1356 35.1716 93.83 35.1901C93.2 32.1301 91.9301 22.8402 91.3501 18.9002C90.6701 22.6802 88.45 32.5501 87.9 34.4801C85.3047 34.7701 82.6853 34.7701 80.09 34.4801C79.54 32.5501 77.32 22.6802 76.64 18.9002C76.06 22.8402 74.8 32.1301 74.17 35.1901C71.8612 35.1716 69.5722 34.7625 67.4 33.9801C67.61 31.9201 70.5101 16.2501 71.9801 8.98011ZM101.55 1.21009C103.877 0.958617 106.223 0.958617 108.55 1.21009C108.84 3.31009 108.84 34.73 108.55 36.79C106.226 37.0924 103.874 37.0924 101.55 36.79C101.3 34.73 101.3 3.31009 101.55 1.21009Z" fill="#234635"/>
<path d="M111.25 2.26002C113.35 2.05002 122.13 2.05002 124.25 2.26002C124.46 3.98002 124.46 33.68 124.25 35.41C121.918 35.5297 119.582 35.5297 117.25 35.41C117.16 32.59 117.16 11.84 117.25 9.03004C115.52 9.11004 113.17 9.11004 111.25 9.03004C111.08 6.77657 111.08 4.51349 111.25 2.26002ZM127.13 1.38002C129.376 1.13003 131.644 1.13003 133.89 1.38002C133.98 2.22002 134.02 7.67996 134.02 14.07H136.54C136.54 7.59996 136.54 2.06997 136.62 1.20997C138.91 0.959957 141.22 0.959957 143.51 1.20997C143.76 3.30997 143.76 34.7299 143.51 36.7899C141.223 37.0905 138.907 37.0905 136.62 36.7899C136.62 35.7899 136.54 28.39 136.54 20.58H134.02C134.02 28.14 134.02 35.28 133.89 36.25C131.644 36.5003 129.376 36.5003 127.13 36.25C126.96 34.15 126.96 3.48002 127.13 1.38002Z" fill="#234635"/>
<path d="M153.58 19.9102C154.47 19.9102 158.58 19.8201 163.41 19.8201V17.9301C159.09 17.9301 155.41 17.9301 154.76 17.8101C154.55 16.0001 154.55 3.44012 154.76 1.46012C157.086 1.20795 159.433 1.20795 161.76 1.46012C161.76 1.88012 161.76 2.7201 161.76 3.6901C164.57 3.6901 169.57 3.6901 172.38 3.6901C172.38 2.6901 172.38 1.88012 172.38 1.46012C174.706 1.20795 177.053 1.20795 179.38 1.46012C179.59 3.46012 179.59 16.0001 179.38 17.8101C178.75 17.8901 175.05 17.9301 170.73 17.9301V19.8201C175.43 19.8201 179.55 19.8202 180.56 19.9102C180.745 22.0629 180.745 24.2275 180.56 26.3802C177.95 26.4602 155.69 26.4602 153.56 26.3802C153.357 24.228 153.363 22.0611 153.58 19.9102ZM154.58 28.0601C156.953 27.8001 159.347 27.8001 161.72 28.0601C161.786 29.059 161.786 30.0612 161.72 31.0601C163.65 30.9701 178.44 30.9701 180.29 31.0601C180.54 33.1794 180.54 35.3208 180.29 37.4401C177.43 37.6101 157.61 37.6101 154.58 37.4401C154.38 34.3303 154.37 31.2112 154.55 28.1001L154.58 28.0601ZM172.48 11.6701C172.48 11.2501 172.48 10.4102 172.48 9.40019C169.67 9.40019 164.67 9.40019 161.86 9.40019C161.86 10.4002 161.86 11.2501 161.86 11.6701C163.12 11.7601 171.1 11.7601 172.45 11.6701H172.48Z" fill="#234635"/>
<path d="M182.67 29.4002C183.51 29.3202 188 29.2701 193.17 29.2701C193.17 26.5401 193.17 23.2701 193.3 22.0101C195.589 21.7497 197.901 21.7497 200.19 22.0101C200.31 23.3101 200.31 26.5401 200.31 29.2701C205.31 29.2701 209.64 29.2702 210.6 29.4002C210.835 31.5504 210.835 33.7199 210.6 35.8701C208.17 35.9901 184.68 35.9901 182.67 35.8701C182.42 33.7207 182.42 31.5496 182.67 29.4002ZM189.73 9.03016C186.66 9.03016 184.31 9.03007 183.73 8.94007C183.52 6.74842 183.52 4.54175 183.73 2.3501C186.16 2.0101 207.59 2.0101 209.73 2.3501C209.94 4.54175 209.94 6.74842 209.73 8.94007C209.02 8.94007 206.73 9.03016 203.73 9.03016C206.46 14.0302 209.91 20.4501 210.37 21.6301C208.464 23.0077 206.391 24.1368 204.2 24.9901C203.36 23.8101 199.32 15.9901 196.76 10.8701C194.16 16.0001 190.08 23.7701 189.24 24.9901C187.048 24.139 184.974 23.0098 183.07 21.6301C183.53 20.4501 187.02 13.9802 189.67 9.03016H189.73ZM212.28 1.21009C214.607 0.958617 216.953 0.958617 219.28 1.21009C219.4 2.10009 219.49 8.02015 219.49 14.7802C220.695 14.7724 221.901 14.8291 223.1 14.9501C223.31 17.0883 223.31 19.2419 223.1 21.3801C222.39 21.4601 220.96 21.5001 219.49 21.5001C219.49 28.9801 219.4 35.87 219.28 36.79C216.956 37.0924 214.604 37.0924 212.28 36.79C212.01 34.73 212.01 3.31009 212.26 1.21009H212.28Z" fill="#234635"/>
<path d="M57.14 72.4202C57.02 71.2602 57.04 57.5102 57.14 55.9202C58.38 55.8302 60.14 55.7902 62.29 55.8102C65.37 55.8102 67.66 57.4502 67.66 60.5402C67.6713 61.0613 67.573 61.579 67.3714 62.0596C67.1699 62.5402 66.8696 62.9731 66.49 63.3302C67.1857 63.7678 67.756 64.3783 68.1451 65.1022C68.5342 65.8261 68.7289 66.6386 68.7101 67.4602C68.7101 70.7002 66.6101 72.4002 63.2101 72.4602C60.9601 72.5302 58.59 72.4603 57.14 72.4003V72.4202ZM60.7101 61.9803C61.1901 61.9803 62.1201 61.9803 62.2001 61.9803C63.3401 61.9803 64.11 61.4902 64.11 60.5702C64.11 59.6502 63.3401 59.1003 62.2001 59.1003C62.1201 59.1003 61.2 59.1003 60.69 59.1003L60.7101 61.9803ZM60.7101 69.3503C61.0901 69.3503 61.83 69.3503 62.41 69.3503C64.05 69.2603 65.06 68.6502 65.06 67.1802C65.06 65.7102 64.06 65.1803 62.41 65.1203C61.8 65.1203 61.1101 65.1203 60.7101 65.1203V69.3503Z" fill="#234635"/>
<path d="M72.28 60.4902C72.64 61.3802 73.77 64.3802 74.89 67.4902C76 64.4102 77.1299 61.4102 77.4899 60.4902C78.6706 60.7255 79.8189 61.1015 80.91 61.6102C80.66 62.4502 78.65 67.3402 77.41 70.2202C76.78 71.9602 74.7 76.9302 74.34 77.5402C73.2297 77.3861 72.148 77.0694 71.13 76.6002C71.23 76.1602 72.13 73.8702 72.96 71.8302C72.03 69.9002 69.1799 62.6602 68.8599 61.6102C69.9511 61.1015 71.0993 60.7255 72.28 60.4902Z" fill="#234635"/>
<path d="M85.1399 69.5601C85.3899 69.5601 86.3499 69.5602 87.6299 69.5002C87.6299 67.1702 87.6299 62.9901 87.6299 62.1901C88.8178 62.0901 90.0121 62.0901 91.2 62.1901C91.2 62.9901 91.26 67.1902 91.2 69.5002C93.76 69.5002 96.28 69.5001 96.78 69.5601C96.94 70.6409 96.94 71.7394 96.78 72.8201C95.78 72.9001 85.91 72.9001 85.05 72.8201C84.9297 71.7345 84.96 70.6375 85.1399 69.5601ZM85.7 55.5601C87.05 55.5001 95.05 55.5001 96.28 55.5601C96.37 56.5601 96.37 66.2902 96.28 67.3402C95.1097 67.4604 93.9302 67.4604 92.7599 67.3402C92.7599 66.0602 92.7599 60.8101 92.7599 58.8101C92.0399 58.8101 86.76 58.8101 85.7 58.8101C85.5888 57.7301 85.5787 56.642 85.67 55.5601H85.7Z" fill="#234635"/>
<path d="M98.4099 55.58C101.297 55.3899 104.193 55.3899 107.08 55.58C107.2 56.65 107.2 71.14 107.08 72.27C106.08 72.36 99.4099 72.36 98.4099 72.27C98.2599 71.18 98.2599 56.67 98.4099 55.58ZM103.67 69.1C103.73 67.67 103.73 60.24 103.67 58.83C103.063 58.7499 102.447 58.7499 101.84 58.83C101.78 60.24 101.78 67.67 101.84 69.1C102.449 69.16 103.061 69.16 103.67 69.1ZM108.35 55.1C109.506 54.9699 110.674 54.9699 111.83 55.1C111.98 56.1 111.98 71.85 111.83 72.88C110.675 73.0304 109.505 73.0304 108.35 72.88C108.23 71.85 108.23 56.15 108.36 55.1H108.35Z" fill="#234635"/>
<path d="M113.34 61.5601C113.8 61.5601 116.61 61.5601 119.66 61.5601C119.66 60.8101 119.66 59.9701 119.66 59.3601C120.792 59.2701 121.928 59.2701 123.06 59.3601C123.06 59.9301 123.12 60.7901 123.06 61.5601C125.5 61.5601 127.56 61.5601 128.06 61.5601C128.15 62.6249 128.15 63.6954 128.06 64.7602C126.82 64.7602 114.33 64.7602 113.3 64.7602C113.203 63.695 113.217 62.6226 113.34 61.5601ZM117.96 69.3301H113.59C113.49 68.3761 113.49 67.4142 113.59 66.4601C114.22 66.4601 116.4 66.4602 118.9 66.3902C118.9 66.0602 118.9 65.6801 118.9 65.3201C120.074 65.2101 121.256 65.2101 122.43 65.3201C122.43 65.6801 122.43 66.0402 122.49 66.3902C125.01 66.3902 127.24 66.3901 127.81 66.4601C127.91 67.4142 127.91 68.3761 127.81 69.3301H123.44C125.18 69.7701 127.13 70.3301 128.06 70.5701C127.862 71.5818 127.501 72.5545 126.99 73.4501C124.848 72.8272 122.738 72.0963 120.67 71.2602C118.93 72.0002 115.31 73.2601 114.37 73.4501C113.859 72.5545 113.498 71.5818 113.3 70.5701C114.26 70.2801 116.22 69.7701 117.96 69.3301ZM113.72 55.1602C115.482 55.0501 117.248 55.0501 119.01 55.1602C119.07 56.0602 119.07 59.3601 119.01 60.4501C117.877 60.5101 116.742 60.5101 115.61 60.4501V58.1001C114.981 58.1405 114.349 58.1405 113.72 58.1001C113.632 57.1221 113.632 56.1382 113.72 55.1602ZM119.95 55.1602C120.95 55.0502 126.38 55.0502 127.34 55.1602C127.41 56.0602 127.41 59.4401 127.34 60.4501C126.201 60.5101 125.059 60.5101 123.92 60.4501V58.1001C123.12 58.1001 120.92 58.1001 119.92 58.1001C119.91 57.6201 119.91 55.8302 119.95 55.1602Z" fill="#234635"/>
<path d="M133.12 55.6C134.244 55.5 135.376 55.5 136.5 55.6C137.5 58.5 140.93 70.1299 141.14 71.0799C140.065 71.5832 138.929 71.943 137.76 72.15C137.51 71.6 136.1 66.46 134.86 61.75C133.66 66.58 132.26 71.7499 132.01 72.3099C130.842 72.1344 129.705 71.7979 128.63 71.3099C128.75 70.3599 132.15 58.54 133.12 55.6ZM141.62 55.1C142.78 54.9699 143.95 54.9699 145.11 55.1C145.25 56.1 145.25 71.85 145.11 72.88C143.951 73.0303 142.778 73.0303 141.62 72.88C141.5 71.85 141.5 56.15 141.67 55.1H141.62Z" fill="#234635"/>
<path d="M146.94 55.5799C147.86 55.5199 154.25 55.5199 155.15 55.5799C155.25 56.7299 155.25 64.4399 155.15 65.5799C154.25 65.6399 151.68 65.6399 150.76 65.5799C150.76 66.2899 150.76 68.2199 150.76 68.9599C151.5 68.8899 154.76 68.8899 155.67 68.9599C155.8 70.0594 155.8 71.1705 155.67 72.27C154.25 72.38 148.56 72.38 147.11 72.27C147 71.12 147 63.45 147.11 62.27C148.11 62.21 150.66 62.21 151.62 62.27C151.62 61.58 151.62 59.4799 151.62 58.8499C150.62 58.8499 147.92 58.8499 146.94 58.8499C146.833 57.7626 146.833 56.6673 146.94 55.5799ZM156.83 55.1799C157.953 55.0499 159.087 55.0499 160.21 55.1799C160.21 55.5999 160.27 58.33 160.27 61.52H161.67C161.67 58.29 161.67 55.5199 161.67 55.0999C162.813 54.9699 163.967 54.9699 165.11 55.0999C165.24 56.0999 165.24 71.85 165.11 72.88C163.968 73.0303 162.812 73.0303 161.67 72.88C161.67 72.4 161.67 68.68 161.67 64.78H160.3C160.3 68.56 160.3 72.13 160.24 72.61C159.116 72.7301 157.983 72.7301 156.86 72.61C156.74 71.56 156.74 56.2299 156.83 55.1799Z" fill="#234635"/>
</g>
<defs>
<clipPath id="clip0_729_28">
<rect width="223.21" height="77.54" fill="white"/>
</clipPath>
</defs>
</svg>
