<svg width="209" height="39" viewBox="0 0 209 39" fill="none" xmlns="http://www.w3.org/2000/svg">
<g clip-path="url(#clip0_673_3083)">
<path d="M0.160011 18.2601C1.04001 18.2601 5.58001 18.1701 10.83 18.1701C10.83 17.1701 10.83 16.3301 10.91 15.7401C13.3163 15.55 15.7338 15.55 18.14 15.7401C18.14 16.3301 18.22 17.2101 18.22 18.1701C23.35 18.1701 27.8 18.2201 28.85 18.2601C29.0369 20.2557 29.0369 22.2644 28.85 24.2601C26.24 24.3401 2.30001 24.3401 0.160011 24.2601C-0.0465825 22.2654 -0.0465825 20.2547 0.160011 18.2601ZM9.16001 8.97009C5.38001 8.97009 2.27001 8.97009 1.26001 8.97009C1.05342 6.97543 1.05342 4.96476 1.26001 2.97009C2.40001 2.89009 6.34001 2.85006 10.84 2.81006C10.8361 1.95166 10.8795 1.09368 10.97 0.240053C13.2986 0.0306594 15.6414 0.0306594 17.97 0.240053C18.05 1.04005 18.1 1.92006 18.1 2.81006C22.68 2.81006 26.62 2.89009 27.67 2.97009C27.8766 4.96476 27.8766 6.97543 27.67 8.97009C26.75 8.97009 23.6 8.97009 19.78 8.97009C23.18 9.8601 27.04 10.9101 28.64 11.5001C28.2262 13.5413 27.4434 15.4899 26.33 17.2501C23.33 16.5401 18.33 14.9401 14.48 13.7201C10.58 14.9401 5.62001 16.5401 2.60001 17.2501C1.48666 15.4899 0.703837 13.5413 0.290008 11.5001C1.92001 10.9101 5.79001 9.8601 9.23001 8.97009H9.16001ZM14.45 25.36C23.78 25.36 28.53 27.7901 28.53 32.0401C28.53 36.2901 24.65 38.6401 14.48 38.6401C4.31001 38.6401 0.410011 36.2101 0.410011 32.0101C0.410011 27.8101 4.32001 25.36 14.48 25.36H14.45ZM14.45 33.3C20.12 33.3 21.3 32.8401 21.3 32.0401C21.3 31.2401 20.12 30.7301 14.45 30.7301C8.78001 30.7301 7.61001 31.2001 7.61001 32.0401C7.61001 32.8801 8.81001 33.3 14.48 33.3H14.45Z" fill="#154734"/>
<path d="M31.11 2.17005C33.21 1.96005 45.18 1.96005 47.28 2.17005C47.49 4.73005 47.49 18.09 47.28 20.23C44.9514 20.4394 42.6086 20.4394 40.28 20.23C40.28 18.23 40.28 10.61 40.28 8.56C37.93 8.68 33.05 8.68 31.12 8.56C30.9067 6.4355 30.9034 4.2952 31.11 2.17005ZM32.37 22.96C34.51 22.75 55.31 22.75 57.37 22.96C57.58 24.73 57.58 35.86 57.37 37.58C54.9618 37.71 52.5483 37.71 50.14 37.58C50.14 36.32 50.14 30.9 50.14 29.31C48.21 29.31 34.22 29.31 32.33 29.31C32.2232 27.1943 32.2366 25.0742 32.37 22.96ZM50.48 1.54004C52.7832 1.29004 55.1068 1.29004 57.41 1.54004C57.53 2.34004 57.58 5.03003 57.62 8.22003C58.8255 8.21232 60.0306 8.26905 61.23 8.39002C61.44 10.4714 61.44 12.5686 61.23 14.65C60.52 14.73 59.09 14.81 57.62 14.81C57.62 18.01 57.53 20.7 57.41 21.49C55.1031 21.6605 52.7869 21.6605 50.48 21.49C50.23 19.43 50.23 3.64004 50.48 1.54004Z" fill="#154734"/>
<path d="M63.49 2.64009C65.8718 2.52 68.2582 2.52 70.64 2.64009C70.64 5.41009 70.64 25.9101 70.64 28.6401C72.57 28.6401 77.23 28.6401 79.12 28.6401C79.2501 30.9182 79.2501 33.202 79.12 35.4801C76.98 35.6501 65.59 35.6501 63.49 35.4801C63.28 33.7601 63.28 4.35009 63.49 2.64009ZM75.17 13.1001C76.43 13.1001 79.5 13.0201 82.23 13.1001C82.23 7.30011 82.31 2.56008 82.35 1.76008C84.6018 1.55006 86.8682 1.55006 89.12 1.76008C89.29 3.86008 89.29 34.5201 89.12 36.6201C86.8708 36.8804 84.5991 36.8804 82.35 36.6201C82.27 35.6201 82.23 27.7201 82.23 19.6901C79.5 19.6901 76.43 19.6901 75.17 19.6101C74.9567 17.442 74.9567 15.2582 75.17 13.0901V13.1001ZM91.81 1.55006C94.0999 1.30005 96.4101 1.30005 98.7 1.55006C98.95 3.69006 98.95 35.1101 98.7 37.1301C96.4125 37.4205 94.0975 37.4205 91.81 37.1301C91.68 35.0601 91.68 3.64011 91.81 1.54011V1.55006Z" fill="#154734"/>
<path d="M108.85 29.0499C109.31 29.0499 110.7 28.9699 112.63 28.9699C112.05 22.6699 111.29 12.1299 111.37 10.7399C113.628 10.4437 115.903 10.2901 118.18 10.2799C118.43 11.7099 119.23 22.6699 119.56 28.9299H123.14C123.47 22.6699 124.31 11.6599 124.48 10.2399C126.77 10.2623 129.057 10.4159 131.33 10.6999C131.33 12.1299 130.61 22.6999 130.07 28.9699C132.07 28.9699 133.51 28.9699 134.02 29.0499C134.31 31.2537 134.31 33.4861 134.02 35.6899C131.75 35.8199 110.95 35.8199 108.85 35.6899C108.6 33.4836 108.6 31.2561 108.85 29.0499ZM109.23 2.41993C112.17 2.24993 131.16 2.24993 133.51 2.41993C133.72 4.57147 133.72 6.73835 133.51 8.8899C131.16 8.8899 112.17 8.8899 109.23 8.8899C108.98 6.74048 108.98 4.56935 109.23 2.41993ZM135.86 1.53992C138.187 1.28845 140.533 1.28845 142.86 1.53992C142.98 2.41992 143.07 8.2999 143.07 15.0199C144.54 15.0199 145.97 15.1099 146.68 15.1899C146.89 17.3849 146.89 19.5949 146.68 21.7899C145.97 21.8699 144.54 21.9099 143.07 21.9099C143.07 29.3499 142.98 36.1999 142.86 37.1199C140.536 37.4122 138.184 37.4122 135.86 37.1199C135.61 35.0599 135.61 3.63992 135.86 1.53992Z" fill="#154734"/>
<path d="M147.95 30.5699C149.68 30.3599 172.28 30.3999 174.38 30.5699C174.69 32.7155 174.69 34.8945 174.38 37.04C172.28 37.2 149.68 37.2 147.95 37.04C147.66 34.8931 147.66 32.7169 147.95 30.5699ZM158.16 1.70996C160.158 1.5804 162.162 1.5804 164.16 1.70996C166.01 5.27996 172.27 18.93 174.24 24.1C173.4 25.1 169.24 26.5299 167.69 26.8699C166.8 25.1499 161.85 13.55 161.18 11.54C160.46 13.54 155.55 25.1499 154.67 26.8699C153.03 26.5299 148.95 25.06 148.07 24.1C150.06 18.93 156.31 5.27996 158.16 1.70996Z" fill="#154734"/>
<path d="M177.44 2.41996C179.44 2.16996 191.44 2.16996 194.24 2.41996C194.37 4.63138 194.37 6.8485 194.24 9.05992C192.31 9.05992 186.18 9.05992 184.79 9.05992C184.79 9.68992 184.71 13.0599 184.71 16.8299C187.71 16.8299 192.31 16.83 194.24 16.91C194.45 19.0348 194.45 21.1751 194.24 23.2999C192.31 23.3799 187.69 23.4299 184.71 23.3799C184.71 26.2799 184.71 28.59 184.79 29.1C186.85 29.01 193.57 29.01 195.38 29.1C195.54 31.3371 195.54 33.5828 195.38 35.8199C192.94 36.1099 180.21 36.1099 177.44 35.8199C177.14 32.0399 177.14 6.19996 177.44 2.41996ZM197.35 1.53996C199.676 1.28779 202.023 1.28779 204.35 1.53996C204.48 2.41996 204.56 8.29994 204.56 15.0199C206.03 15.0199 207.46 15.1099 208.17 15.1899C208.39 17.3844 208.39 19.5955 208.17 21.79C207.46 21.87 206.03 21.91 204.56 21.91C204.56 29.35 204.48 36.1999 204.35 37.1199C202.026 37.4127 199.674 37.4127 197.35 37.1199C197.1 35.0599 197.1 3.63996 197.35 1.53996Z" fill="#154734"/>
</g>
<defs>
<clipPath id="clip0_673_3083">
<rect width="208.3" height="38.68" fill="white"/>
</clipPath>
</defs>
</svg>
