<svg width="166" height="39" viewBox="0 0 166 39" fill="none" xmlns="http://www.w3.org/2000/svg">
<g clip-path="url(#clip0_729_2)">
<path d="M0.219975 30.6599C0.899975 30.5699 4.46997 30.5299 8.70997 30.5299C8.70997 29.4399 8.70993 28.4299 8.79993 27.5299C11.2154 27.3199 13.6445 27.3199 16.0599 27.5299C16.0599 28.4099 16.14 29.4199 16.14 30.5299C20.26 30.5299 23.7499 30.5299 24.5499 30.6599C24.86 32.7351 24.86 34.8448 24.5499 36.9199C22.4499 37.0799 1.94998 37.0799 0.219975 36.9199C-0.0700292 34.8434 -0.0700292 32.7365 0.219975 30.6599ZM0.389958 3.26992C1.43996 3.26992 4.75996 3.17995 8.57996 3.17995C8.53886 2.17808 8.58235 1.17452 8.70997 0.179955C11.1421 -0.030037 13.5879 -0.030037 16.02 0.179955C16.1443 1.1748 16.1844 2.17836 16.14 3.17995C20.26 3.17995 23.7099 3.17992 24.4199 3.26992C24.7098 5.31638 24.7098 7.39351 24.4199 9.43996C22.6599 9.60996 3.24999 9.60996 0.419988 9.43996C0.120201 7.39492 0.110073 5.31779 0.389958 3.26992ZM12.39 10.3699C19.91 10.3699 24.1899 13.43 24.1899 18.43C24.1899 23.43 19.91 26.4999 12.39 26.4999C4.87002 26.4999 0.579961 23.43 0.579961 18.43C0.579961 13.43 4.88992 10.3899 12.4099 10.3899L12.39 10.3699ZM12.39 20.9099C15.83 20.9099 17.39 19.91 17.39 18.43C17.39 16.95 15.88 15.9599 12.39 15.9599C8.90002 15.9599 7.39002 16.96 7.39002 18.43C7.39002 19.9 8.95992 20.9099 12.4099 20.9099H12.39Z" fill="white"/>
<path d="M27.72 1.70984C29.57 1.54984 44.3599 1.54984 46.1599 1.70984C46.3701 5.8405 46.3701 9.9792 46.1599 14.1099C44.3599 14.1899 36.5 14.1899 35.07 14.1099V15.7899C36.54 15.7399 46.63 15.7899 48.47 15.7899C48.68 17.7142 48.68 19.6556 48.47 21.5798C45.62 21.8398 30.79 21.8398 27.89 21.5798C27.5996 17.3849 27.5996 13.1748 27.89 8.97986C29.82 8.89986 36.84 8.89986 39.27 8.97986V7.38989C36.88 7.38989 29.7 7.38989 27.72 7.38989C27.5099 5.50239 27.5099 3.59734 27.72 1.70984ZM43.22 22.9299C54.36 22.9299 58.51 25.6199 58.51 30.5299C58.51 35.4399 54.36 38.1399 43.22 38.1399C32.08 38.1399 27.93 35.4499 27.93 30.5299C27.93 25.6099 32.06 22.9299 43.19 22.9299H43.22ZM43.22 32.2499C49.94 32.2499 51.22 31.6199 51.22 30.5299C51.22 29.4399 49.96 28.8099 43.22 28.8099C36.48 28.8099 35.22 29.4399 35.22 30.5299C35.22 31.6199 36.47 32.2499 43.19 32.2499H43.22ZM50.5301 1.41992C52.8333 1.16992 55.1567 1.16992 57.46 1.41992C57.59 2.21992 57.6299 5.1199 57.6699 8.5199C58.8788 8.51253 60.0871 8.56932 61.2899 8.68994C61.4999 10.7713 61.4999 12.8686 61.2899 14.95C60.5699 15.03 59.1399 15.1099 57.6699 15.1099C57.6699 18.5199 57.59 21.4199 57.46 22.2999C55.1531 22.4705 52.8369 22.4705 50.5301 22.2999C50.2901 20.0699 50.29 3.51989 50.5 1.38989L50.5301 1.41992Z" fill="white"/>
<path d="M75.49 1.92009C83.6 1.92009 88.43 7.43009 88.43 18.9201C88.43 30.8501 83.22 35.9201 75.49 35.9201C67.42 35.9201 62.55 30.4601 62.55 18.9201C62.55 6.97009 67.72 1.92009 75.49 1.92009ZM75.49 29.2701C78.98 29.2701 81.1599 25.9101 81.1599 18.9001C81.1599 11.6301 78.77 8.52006 75.49 8.52006C72 8.52006 69.82 11.8401 69.82 18.9001C69.82 26.2001 72.21 29.2701 75.49 29.2701ZM90.49 1.42009C92.8165 1.16791 95.1635 1.16791 97.49 1.42009C97.78 3.52009 97.78 34.94 97.49 37C95.1666 37.3038 92.8135 37.3038 90.49 37C90.19 34.94 90.19 3.52006 90.45 1.39006L90.49 1.42009Z" fill="white"/>
<path d="M107.53 19.3898C109.68 19.2598 129.84 19.2598 132.44 19.3898C132.63 21.5423 132.63 23.7073 132.44 25.8598C131.56 25.8598 128.66 25.8598 125.13 25.8598C125.13 27.1198 125.13 28.3399 125.05 29.1799C122.66 29.3499 120.26 29.3499 117.87 29.1799C117.82 28.3399 117.78 27.1198 117.78 25.8598C112.91 25.8598 108.46 25.8598 107.53 25.8598C107.32 23.7082 107.32 21.5414 107.53 19.3898ZM108.53 27.9598C110.904 27.7098 113.297 27.7098 115.67 27.9598C115.731 29.0522 115.731 30.1473 115.67 31.2398C117.6 31.1498 130.29 31.1498 132.14 31.2398C132.39 33.3591 132.39 35.5005 132.14 37.6198C129.28 37.7898 111.55 37.7898 108.53 37.6198C108.33 34.4065 108.32 31.1842 108.5 27.9698L108.53 27.9598ZM108.74 1.65983C111.067 1.40766 113.414 1.40766 115.74 1.65983V3.65983C118.1 3.65983 121.92 3.65983 124.27 3.65983V1.65983C126.597 1.40766 128.944 1.40766 131.27 1.65983C131.48 3.65983 131.48 15.6598 131.27 17.4198C129.63 17.5798 110.35 17.5798 108.71 17.4198C108.5 15.6198 108.5 3.64984 108.72 1.66984L108.74 1.65983ZM124.33 11.4499C124.33 10.9899 124.33 10.1898 124.33 9.21977H115.72C115.72 10.2198 115.72 10.9899 115.72 11.4499C117.07 11.5399 122.95 11.5398 124.3 11.4598L124.33 11.4499Z" fill="white"/>
<path d="M141.6 1.83986C144.032 1.62987 146.478 1.62987 148.91 1.83986C149.83 3.26986 156.21 16.67 156.85 18.31C154.948 19.597 152.901 20.6542 150.75 21.4599C149.96 20.3199 147.31 14.8599 145.29 10.4599C143.36 14.9999 140.8 20.5399 140.13 21.7199C137.883 21.0539 135.734 20.0921 133.74 18.8599C134.33 17.0899 140.63 3.38986 141.6 1.83986ZM135.97 23.2599C138.11 23.0499 163.1 23.0499 165.21 23.2599C165.41 25.0299 165.41 36.1599 165.21 37.4599C162.802 37.5899 160.388 37.5899 157.98 37.4599C157.98 36.1999 157.98 31.1999 157.98 29.6099C156.05 29.6099 137.86 29.6099 135.98 29.6099C135.847 27.4954 135.843 25.3748 135.97 23.2599ZM158.27 1.41994C160.577 1.16992 162.903 1.16992 165.21 1.41994C165.5 3.51994 165.5 19.6899 165.21 21.7899C162.9 21.9603 160.58 21.9603 158.27 21.7899C158.06 19.7399 158.06 3.51991 158.27 1.38991V1.41994Z" fill="white"/>
</g>
<defs>
<clipPath id="clip0_729_2">
<rect width="165.42" height="38.13" fill="white"/>
</clipPath>
</defs>
</svg>
