<svg width="161" height="37" viewBox="0 0 161 37" fill="none" xmlns="http://www.w3.org/2000/svg">
<g clip-path="url(#clip0_672_1955)">
<path d="M0.219987 29.09C0.729987 29.09 2.65999 29.01 5.21999 28.97C5.21999 24.3 5.21998 15.97 5.30998 14.35C7.68535 14.14 10.0746 14.14 12.45 14.35C12.53 15.94 12.57 24.26 12.53 28.97C17.66 28.97 22.7 28.97 23.7 29.09C24.0202 31.2482 24.0202 33.4418 23.7 35.6C21.6 35.77 1.93999 35.77 0.219987 35.6C-0.0700739 33.4397 -0.0700739 31.2503 0.219987 29.09ZM1.35999 1.09C4.03999 0.97 20.05 0.97 22.53 1.09C22.7 3.15 22.7 22.5599 22.53 24.6599C20.1833 24.9103 17.8167 24.9103 15.47 24.6599C15.39 22.0999 15.47 11.59 15.47 7.60001C14.04 7.69001 3.36999 7.60001 1.35999 7.60001C1.14737 5.43522 1.14737 3.25479 1.35999 1.09Z" fill="white"/>
<path d="M26.77 1.15019C32.5441 0.780193 38.3359 0.780193 44.11 1.15019C44.37 3.30019 44.37 32.2801 44.11 34.5501C42.06 34.7201 28.78 34.7201 26.77 34.5501C26.47 32.3701 26.47 3.34019 26.77 1.15019ZM37.31 28.1502C37.44 25.3002 37.44 10.4301 37.31 7.61015C36.0993 7.44008 34.8707 7.44008 33.66 7.61015C33.53 10.4301 33.53 25.3002 33.66 28.1502C34.8753 28.2603 36.0989 28.2401 37.31 28.0901V28.1502ZM46.68 0.220134C49.0065 -0.0320369 51.3535 -0.0320369 53.68 0.220134C53.97 2.32013 53.97 33.7401 53.68 35.8001C51.3558 36.0929 49.0041 36.0929 46.68 35.8001C46.43 33.7101 46.43 2.2901 46.68 0.190105V0.220134Z" fill="white"/>
<path d="M56.63 13.0901C57.55 13.0901 63.18 13.0002 69.27 13.0002C69.27 11.4902 69.27 9.81015 69.36 8.59015C71.6235 8.42016 73.8965 8.42016 76.16 8.59015C76.25 9.73015 76.29 11.4502 76.25 13.0002C81.12 13.0002 85.25 13.0001 86.16 13.0901C86.3504 15.2126 86.3504 17.3477 86.16 19.4702C83.68 19.5602 58.69 19.5602 56.63 19.4702C56.4198 17.3487 56.4198 15.2116 56.63 13.0901ZM65.87 28.6302H57.13C56.9195 26.716 56.9195 24.7844 57.13 22.8702C58.39 22.8702 62.76 22.7902 67.76 22.7502C67.76 22.0702 67.76 21.3202 67.84 20.6002C70.1877 20.3701 72.5523 20.3701 74.9 20.6002C74.98 21.3202 74.98 22.0302 75.03 22.7502C80.03 22.7502 84.52 22.7502 85.65 22.8702C85.86 24.7844 85.86 26.7159 85.65 28.6302H76.92C80.4 29.5102 84.31 30.5202 86.16 31.1102C85.7549 33.1278 85.0326 35.0686 84.02 36.8602C79.7331 35.6154 75.5111 34.1569 71.37 32.4902C67.246 34.1573 63.0406 35.6158 58.77 36.8602C57.7531 35.0706 57.0305 33.1292 56.63 31.1102C58.48 30.5602 62.38 29.5501 65.87 28.6701V28.6302ZM57.38 0.2702C60.9069 0.0599985 64.4431 0.0599985 67.97 0.2702C68.1 2.0802 68.1 8.68017 67.97 10.8602C65.7019 10.9902 63.4281 10.9902 61.16 10.8602V6.24017C59.9013 6.32103 58.6387 6.32103 57.38 6.24017C57.2219 4.26666 57.2219 2.28362 57.38 0.310117V0.2702ZM69.86 0.2702C71.75 0.0601998 82.71 0.0601998 84.65 0.2702C84.77 2.0802 84.77 8.84017 84.65 10.8602C82.3685 10.9902 80.0815 10.9902 77.8 10.8602V6.24017C76.2 6.32017 71.71 6.32017 69.86 6.24017C69.78 5.23017 69.78 1.66012 69.86 0.310117V0.2702Z" fill="white"/>
<path d="M96.19 1.20011C98.4418 0.990091 100.708 0.990091 102.96 1.20011C104.89 6.99011 111.82 30.2701 112.24 32.2001C110.094 33.2169 107.82 33.9369 105.48 34.3401C104.97 33.2501 102.16 22.9501 99.68 13.5501C97.29 23.2101 94.47 33.5501 93.97 34.6701C91.6309 34.3235 89.352 33.6502 87.2 32.6701C87.46 30.7301 94.26 7.09011 96.19 1.20011ZM113.19 0.200115C115.517 -0.0520564 117.863 -0.0520564 120.19 0.200115C120.48 2.30011 120.48 33.7201 120.19 35.7801C117.866 36.0729 115.514 36.0729 113.19 35.7801C112.95 33.7101 112.95 2.2901 113.21 0.190105L113.19 0.200115Z" fill="white"/>
<path d="M123.83 1.15004C125.68 1.03004 138.45 1.03004 140.25 1.15004C140.46 3.46004 140.46 18.88 140.25 21.15C138.45 21.28 133.32 21.28 131.47 21.15C131.39 22.58 131.39 26.4499 131.47 27.9199C132.94 27.7899 139.47 27.7899 141.3 27.9199C141.55 30.1229 141.55 32.347 141.3 34.5499C138.45 34.7599 127.06 34.7599 124.16 34.5499C123.95 32.2399 123.95 16.9099 124.16 14.5499C126.1 14.4199 131.26 14.4199 133.16 14.5499C133.25 13.1599 133.25 8.95996 133.16 7.69996C131.16 7.78996 125.77 7.78996 123.8 7.69996C123.606 5.52047 123.616 3.32765 123.83 1.15004ZM143.61 0.359996C145.859 0.100018 148.131 0.100018 150.38 0.359996C150.46 1.2 150.5 6.65993 150.5 13.0399H153.23C153.23 6.56993 153.23 1.03995 153.32 0.189952C155.61 -0.0600622 157.92 -0.0600622 160.21 0.189952C160.46 2.28995 160.46 33.71 160.21 35.77C157.923 36.0605 155.607 36.0605 153.32 35.77C153.32 34.77 153.23 27.3699 153.23 19.5499H150.5C150.5 27.1199 150.5 34.26 150.38 35.22C148.13 35.4703 145.86 35.4703 143.61 35.22C143.44 33.09 143.44 2.46 143.61 0.359996Z" fill="white"/>
</g>
<defs>
<clipPath id="clip0_672_1955">
<rect width="160.39" height="36.9" fill="white"/>
</clipPath>
</defs>
</svg>
