<svg width="103" height="25" viewBox="0 0 103 25" fill="none" xmlns="http://www.w3.org/2000/svg">
<g clip-path="url(#clip0_673_2571)">
<path d="M0.0999958 10.6797C1.43 10.5997 13.91 10.5997 15.52 10.6797C15.6352 11.9604 15.6352 13.2489 15.52 14.5297C13.91 14.5297 1.43 14.5297 0.0999958 14.5297C-0.0303615 13.2496 -0.0303615 11.9597 0.0999958 10.6797ZM7.80001 0.679688C12.89 0.679688 15.08 2.54965 15.08 5.38965C15.08 8.22965 12.89 10.0897 7.80001 10.0897C2.71001 10.0897 0.520009 8.21965 0.520009 5.38965C0.520009 2.55965 2.70001 0.719666 7.80001 0.719666V0.679688ZM0.670003 15.4997C1.89 15.3697 13.72 15.3697 14.95 15.4997C15.13 18.2167 15.13 20.9426 14.95 23.6597C13.62 23.8197 2 23.8197 0.670003 23.6597C0.491763 20.9559 0.491763 18.2434 0.670003 15.5397V15.4997ZM5.14 20.1297C6.05 20.2097 9.54001 20.2097 10.47 20.1297V19.0397C9.56001 18.9597 6.08 18.9597 5.14 19.0397V20.1297ZM7.80001 6.49969C9.85001 6.49969 10.42 5.97965 10.42 5.38965C10.42 4.79965 9.85001 4.26965 7.80001 4.26965C5.75001 4.26965 5.17 4.78965 5.17 5.38965C5.17 5.98965 5.74001 6.53967 7.80001 6.53967V6.49969Z" fill="#154734"/>
<path d="M21.19 1.41957C22.6939 1.28956 24.2061 1.28956 25.71 1.41957C26.28 2.30957 30.23 10.5996 30.62 11.6096C29.4495 12.4082 28.1871 13.063 26.86 13.5596C26.36 12.8596 24.72 9.47958 23.47 6.74958C22.28 9.55958 20.69 12.9896 20.28 13.7496C18.8737 13.3407 17.5284 12.7454 16.28 11.9796C16.69 10.8596 20.59 2.37957 21.19 1.41957ZM17.7 14.6796C19.03 14.5496 34.5 14.5496 35.8 14.6796C35.93 15.7696 35.93 22.6796 35.8 23.4696C34.3111 23.5496 32.8189 23.5496 31.33 23.4696C31.33 22.6896 31.33 19.5996 31.33 18.6096C30.13 18.6096 18.87 18.6096 17.7 18.6096C17.62 17.3008 17.62 15.9884 17.7 14.6796ZM31.51 1.15956C32.9355 0.999549 34.3745 0.999549 35.8 1.15956C35.98 2.45956 35.98 12.4695 35.8 13.7695C34.3721 13.8798 32.9379 13.8798 31.51 13.7695C31.38 12.4995 31.38 2.45956 31.51 1.15956Z" fill="#154734"/>
<path d="M40.45 5.55964C39.28 5.55964 38.37 5.55964 38.06 5.49964C37.9287 4.16954 37.9287 2.82975 38.06 1.49964C39.57 1.29964 49.73 1.29964 51.06 1.49964C51.1914 2.82974 51.1914 4.16955 51.06 5.49964C50.7 5.49964 49.81 5.49964 48.67 5.55964C49.6525 7.51437 50.5369 9.51685 51.32 11.5596C50.1099 12.3431 48.7835 12.9303 47.39 13.2996C46.3325 11.2015 45.3879 9.04846 44.56 6.84962C43.7763 9.03374 42.8818 11.1765 41.88 13.2696C40.4749 12.9568 39.1259 12.4307 37.88 11.7096C38.6264 9.61525 39.4843 7.56235 40.45 5.55964ZM38.81 14.2396C40.19 14.0796 57.35 14.0796 58.73 14.2396C58.91 17.3037 58.91 20.3756 58.73 23.4396C57.48 23.5696 40.06 23.5696 38.81 23.4396C38.63 20.3756 38.63 17.3037 38.81 14.2396ZM54.39 19.7996C54.44 19.1706 54.44 18.5386 54.39 17.9096C53.39 17.8496 44.12 17.8296 43.18 17.9096C43.13 18.5386 43.13 19.1706 43.18 19.7996C44.14 19.9196 53.43 19.9196 54.39 19.7996ZM51.39 5.91963C52.17 5.91963 53.34 5.83963 54.39 5.91963C54.39 3.70963 54.44 1.75961 54.49 1.20961C55.9155 1.0496 57.3545 1.0496 58.78 1.20961C58.96 2.50961 58.96 12.0796 58.78 13.3796C57.3518 13.4798 55.9183 13.4798 54.49 13.3796C54.44 12.9396 54.41 11.5297 54.41 9.81965C53.35 9.81965 52.18 9.8196 51.41 9.7696C51.2667 8.49116 51.2466 7.20192 51.35 5.91963H51.39Z" fill="#154734"/>
<path d="M67.6 6.66958C66.43 6.66958 65.54 6.66958 65.23 6.66958C65.1 5.39957 65.1 4.11959 65.23 2.84958C65.78 2.84958 67.47 2.7496 69.47 2.7496C69.47 1.9096 69.47 1.02956 69.55 0.459562C71.0639 0.32956 72.5861 0.32956 74.1 0.459562C74.1 1.02956 74.17 1.9096 74.17 2.7496C76.17 2.7496 77.84 2.79958 78.33 2.84958C78.4601 4.11959 78.4601 5.39958 78.33 6.66958C77.97 6.66958 77.09 6.66958 75.97 6.66958C76.97 8.56958 78.23 10.8096 78.52 11.5396C77.4444 12.4129 76.2401 13.1146 74.95 13.6196C73.7737 11.7541 72.7149 9.81701 71.78 7.81961C70.849 9.81904 69.7902 11.7564 68.61 13.6196C67.3218 13.1167 66.1206 12.4148 65.05 11.5396C65.33 10.8096 66.56 8.56958 67.6 6.66958ZM70.12 18.2696C68.06 18.2696 66.5 18.2696 66.12 18.2196C65.99 16.9562 65.99 15.6829 66.12 14.4196C67.63 14.2896 82.4 14.2896 83.73 14.4196C83.8601 15.6829 83.8601 16.9562 83.73 18.2196C83.29 18.2196 81.73 18.2696 79.73 18.2696C81.81 19.2696 83.73 20.2696 84.26 20.5796C83.7761 21.8405 83.0718 23.0053 82.18 24.0196C81.37 23.6796 77.78 21.7296 74.92 20.0896C72.09 21.7296 68.5 23.6796 67.69 24.0196C66.7982 23.0053 66.0939 21.8405 65.61 20.5796C66.11 20.2496 68.04 19.2796 70.12 18.2696ZM79.45 1.15957C80.8755 0.999566 82.3145 0.999566 83.74 1.15957C83.82 1.67957 83.85 3.44957 83.87 5.52957C84.78 5.52957 85.67 5.52961 86.11 5.62961C86.24 6.91967 86.24 8.21954 86.11 9.50961C85.67 9.50961 84.78 9.60959 83.87 9.60959C83.87 11.4796 83.87 13.0396 83.74 13.5096C82.3121 13.6199 80.8779 13.6199 79.45 13.5096C79.32 12.2396 79.32 2.45957 79.45 1.15957Z" fill="#154734"/>
<path d="M86.81 1.75959C88.11 1.62959 94.74 1.62959 96.04 1.75959C96.17 3.34959 96.17 21.0296 96.04 22.3496C94.5796 22.4795 93.1105 22.4795 91.65 22.3496C91.59 21.1296 91.59 7.26958 91.65 5.99958C90.16 5.99958 88.01 6.07958 86.81 5.99958C86.68 4.58923 86.68 3.16993 86.81 1.75959ZM97.94 1.15955C99.3722 0.999551 100.818 0.999551 102.25 1.15955C102.44 2.45955 102.44 21.9096 102.25 23.1596C100.82 23.35 99.3704 23.35 97.94 23.1596C97.78 21.9196 97.78 2.45955 97.95 1.15955H97.94Z" fill="#154734"/>
</g>
<defs>
<clipPath id="clip0_673_2571">
<rect width="102.39" height="23.71" fill="white" transform="translate(0 0.30957)"/>
</clipPath>
</defs>
</svg>
