<svg width="90" height="23" viewBox="0 0 90 23" fill="none" xmlns="http://www.w3.org/2000/svg">
<g clip-path="url(#clip0_673_2563)">
<path d="M0.159992 0.480001C1.59706 0.350137 3.04293 0.350137 4.48 0.480001C4.48 0.950001 4.48 2.01999 4.48 3.24C6.11 3.24 8.96999 3.24 10.56 3.24C10.56 2.01999 10.56 0.950001 10.56 0.480001C11.987 0.34998 13.4229 0.34998 14.85 0.480001C15 2.04 15 11.48 14.85 13.22C13.6 13.35 1.58999 13.38 0.0999948 13.22C-0.0600052 11.06 -0.0300077 2.07 0.159992 0.480001ZM0.759998 14.68C2.22899 14.52 3.71101 14.52 5.18 14.68C5.18 15.54 5.23 17.33 5.18 18.03C6.38 18.03 20.31 18.03 21.46 18.03C21.61 19.3859 21.61 20.7541 21.46 22.11C19.69 22.22 2.63 22.22 0.759998 22.11C0.619998 20.35 0.58999 16.24 0.71999 14.68H0.759998ZM4.48 9.53C5.05 9.53 10.04 9.53 10.62 9.53V6.87999C9.03 6.87999 6.17 6.87999 4.54 6.87999L4.48 9.53ZM16.88 0.12C18.3155 -0.04 19.7644 -0.04 21.2 0.12C21.28 0.66 21.33 3.26 21.33 6.23C22.24 6.23 23.12 6.23 23.56 6.33C23.69 7.62007 23.69 8.91993 23.56 10.21C23.12 10.26 22.24 10.31 21.33 10.31C21.33 13.22 21.33 15.74 21.2 16.31C19.7621 16.4202 18.3179 16.4202 16.88 16.31C16.74 15 16.74 1.42 16.84 0.12H16.88Z" fill="white"/>
<path d="M24.98 0.640003C26.4405 0.509968 27.9096 0.509968 29.37 0.640003C29.43 1.86 29.43 4.64 29.37 5.34C30.31 5.24 34.89 5.24 36.08 5.34C36.21 6.64677 36.21 7.96322 36.08 9.27C34.78 9.4 26.28 9.4 24.98 9.27C24.85 7.68 24.85 2 24.98 0.640003ZM25.47 10.73C26.9079 10.6199 28.3521 10.6199 29.79 10.73C29.79 11.17 29.79 11.97 29.79 12.91C31.79 12.91 35.79 12.91 37.69 12.91C37.69 11.91 37.69 11.14 37.69 10.73C39.1079 10.62 40.5321 10.62 41.95 10.73C42.05 11.97 42.08 20.73 41.95 22.4C40.7 22.53 26.95 22.56 25.41 22.4C25.32 20.24 25.37 12.05 25.47 10.73ZM29.79 18.53C30.36 18.58 37.17 18.58 37.79 18.53V16.45C35.84 16.45 31.89 16.45 29.89 16.45L29.79 18.53ZM37.72 0.120006C39.1455 -0.040002 40.5845 -0.040002 42.01 0.120006C42.09 0.610006 42.11 1.96 42.14 3.5C43.05 3.5 43.93 3.5 44.38 3.6C44.51 4.89007 44.51 6.18994 44.38 7.48001C43.93 7.48001 43.05 7.58001 42.11 7.58001C42.11 8.58001 42.11 9.35 42.01 9.71C40.5821 9.82022 39.1479 9.82022 37.72 9.71C37.59 8.44 37.59 1.42001 37.72 0.120006Z" fill="white"/>
<path d="M49.71 4.51001C47.86 4.51001 46.46 4.51 46.09 4.46C45.9587 3.1299 45.9587 1.7901 46.09 0.460002C47.6 0.250002 61.25 0.250002 62.58 0.460002C62.7115 1.79009 62.7115 3.12991 62.58 4.46C62.16 4.46 60.94 4.46001 59.3 4.51001C60.6596 6.02543 61.9349 7.61449 63.12 9.27C62.1413 10.3137 60.9998 11.1918 59.74 11.87C58.99 11.14 56.08 7.58001 54.39 5.37001C52.88 7.66001 50.1 11.56 49.39 12.37C48.09 11.7813 46.897 10.9804 45.86 10C47.0208 8.08708 48.307 6.25308 49.71 4.51001ZM57.71 12.44C66.29 12.44 68.99 14.26 68.99 17.64C68.99 21.02 66.29 22.84 57.71 22.84C49.13 22.84 46.42 21.02 46.42 17.64C46.42 14.26 49.16 12.44 57.69 12.44H57.71ZM57.71 19.12C63.43 19.12 64.47 18.6 64.47 17.64C64.47 16.68 63.47 16.16 57.71 16.16C51.95 16.16 50.95 16.68 50.95 17.64C50.95 18.6 51.97 19.12 57.69 19.12H57.71ZM64.05 0.120006C65.4755 -0.040002 66.9145 -0.040002 68.34 0.120006C68.42 0.610006 68.45 2.22001 68.47 4.12001C69.2181 4.11417 69.966 4.1509 70.71 4.23001C70.84 5.51673 70.84 6.81328 70.71 8.1C70.27 8.15 69.38 8.2 68.47 8.2C68.47 10.02 68.47 11.58 68.34 12.05C66.9121 12.1603 65.4779 12.1603 64.05 12.05C63.9 10.78 63.9 1.42001 64.03 0.120006H64.05Z" fill="white"/>
<path d="M78.28 0.219912C79.8223 0.139912 81.3677 0.139912 82.91 0.219912C84.83 3.10991 88.21 8.58991 89.91 11.5299C88.7982 12.546 87.5325 13.3796 86.16 13.9999C85.23 12.6199 81.64 6.71991 80.62 5.05991C79.62 6.71991 76.02 12.6199 75.09 13.9999C73.6897 13.3863 72.3966 12.5524 71.26 11.5299C72.98 8.58991 76.35 3.10991 78.28 0.219912ZM71.49 18.0799C71.93 18.0299 74.9 18.0099 78.33 18.0099C78.33 15.9499 78.33 13.0099 78.38 12.0799C79.8456 11.9999 81.3144 11.9999 82.78 12.0799C82.85 12.9899 82.88 15.9499 82.78 18.0099C86.16 18.0099 89.1 18.0099 89.62 18.0799C89.8141 19.4062 89.8141 20.7536 89.62 22.0799C88.32 22.1799 72.51 22.1799 71.44 22.0799C71.278 20.7503 71.2948 19.405 71.49 18.0799Z" fill="white"/>
</g>
<defs>
<clipPath id="clip0_673_2563">
<rect width="89.96" height="22.84" fill="white"/>
</clipPath>
</defs>
</svg>
