<svg width="69" height="19" viewBox="0 0 69 19" fill="none" xmlns="http://www.w3.org/2000/svg">
<path d="M0.713047 13.58C1.67305 13.64 11.073 13.66 12.273 13.58C12.353 12.9 12.373 11.6 12.273 10.86C11.813 10.84 10.153 10.82 8.23305 10.82V10.34C10.693 10 11.853 8.96002 11.853 7.48002C11.853 5.68002 10.133 4.54002 6.45305 4.54002C2.77305 4.54002 1.05305 5.68002 1.05305 7.48002C1.05305 8.96002 2.21305 10.02 4.69305 10.34V10.8C2.73305 10.82 1.09305 10.82 0.713047 10.86C0.593047 11.56 0.593047 12.88 0.713047 13.58ZM0.893047 4.14002C2.25305 4.18002 10.673 4.18002 11.913 4.14002C12.053 3.70002 12.053 1.78002 11.913 1.32002C11.453 1.28002 9.95305 1.28002 8.21305 1.26002C8.21305 0.900019 8.19305 0.540019 8.15305 0.220019C7.45305 0.12002 5.45305 0.12002 4.77305 0.220019C4.73305 0.540019 4.71305 0.900019 4.71305 1.26002C2.93305 1.28002 1.41305 1.28002 0.893047 1.32002C0.753047 1.84002 0.753047 3.76002 0.893047 4.14002ZM1.61305 18.2C3.05305 18.28 15.173 18.28 16.533 18.2C16.653 17.56 16.653 15.94 16.533 15.28C15.653 15.24 5.99305 15.24 5.07305 15.28C5.11305 14.96 5.11305 14.58 5.07305 14.16C4.37305 14.08 2.29305 14.08 1.61305 14.16C1.51305 15.22 1.53305 16.9 1.61305 18.2ZM4.29305 7.48002C4.29305 7.16002 4.81305 6.96002 6.45305 6.96002C8.09305 6.96002 8.61305 7.16002 8.61305 7.48002C8.61305 7.80002 8.09305 8.02002 6.45305 8.02002C4.81305 8.02002 4.29305 7.80002 4.29305 7.48002ZM13.013 14.3C13.793 14.38 15.753 14.38 16.333 14.3C16.393 13.86 16.433 11.44 16.433 8.76002C17.133 8.76002 17.813 8.72002 18.153 8.68002C18.253 8.26002 18.253 6.14002 18.153 5.70002C17.813 5.66002 17.133 5.62002 16.433 5.62002C16.413 3.26002 16.393 1.26002 16.333 0.86002C15.653 0.74002 13.693 0.74002 13.013 0.86002C12.933 1.86002 12.933 13.32 13.013 14.3Z" fill="#FFCD00"/>
<path d="M18.8599 4.20002C19.7799 4.26002 22.0999 4.26002 22.8199 4.20002C22.7799 4.74002 22.7799 8.82002 22.8199 9.76002C23.6399 9.86002 25.3599 9.86002 26.1599 9.76002C26.2599 8.74002 26.2599 2.38002 26.1599 1.16002C25.1599 1.06002 19.8599 1.06002 18.8599 1.16002C18.7599 1.74002 18.7599 3.62002 18.8599 4.20002ZM19.3199 14.34C19.3199 16.98 21.4799 18.34 26.2999 18.34C31.1199 18.34 33.2799 16.98 33.2799 14.34C33.2799 11.7 31.1199 10.34 26.2999 10.34C21.4799 10.34 19.3199 11.7 19.3199 14.34ZM22.7999 14.34C22.7999 13.62 23.5999 13.2 26.2999 13.2C28.9999 13.2 29.7999 13.62 29.7999 14.34C29.7999 15.06 28.9999 15.48 26.2999 15.48C23.5999 15.48 22.7999 15.06 22.7999 14.34ZM27.0399 8.98002C27.4399 9.02002 28.5999 9.04002 29.6399 9.04002C29.6599 9.52002 29.6599 9.88002 29.6799 10.04C30.4599 10.12 32.3999 10.12 32.9799 10.04C33.1199 9.04002 33.1199 1.86002 32.9799 0.86002C32.2999 0.74002 30.3599 0.74002 29.6799 0.86002C29.6599 1.06002 29.6599 1.48002 29.6399 2.06002C28.5999 2.06002 27.4399 2.06002 27.0399 2.10002C26.9399 2.72002 26.9399 4.38002 27.0399 4.98002C27.4399 5.02002 28.5799 5.02002 29.6199 5.02002V6.06002C28.5799 6.06002 27.4399 6.06002 27.0399 6.10002C26.9399 6.72002 26.9399 8.38002 27.0399 8.98002Z" fill="#FFCD00"/>
<path d="M37.8229 17.76C38.6629 17.84 49.0029 17.84 50.2029 17.76C50.3629 17.04 50.3429 15.58 50.2029 14.78C50.0029 14.76 49.5029 14.76 48.8429 14.74C48.8429 14.18 48.8229 13.62 48.7829 13.12C48.1029 13.04 46.1829 13.04 45.5029 13.12C45.4829 13.6 45.4629 14.16 45.4629 14.72H42.5629C42.5629 14.16 42.5429 13.6 42.5229 13.12C41.8429 13.04 39.9229 13.04 39.2429 13.12C39.2029 13.62 39.1829 14.18 39.1829 14.74C38.4829 14.74 37.9829 14.76 37.8229 14.78C37.6829 15.54 37.6829 16.98 37.8229 17.76ZM37.9029 4.66002C39.2629 4.74002 48.9029 4.74002 50.1429 4.66002C50.2829 4.22002 50.2829 2.16002 50.1429 1.72002C49.6629 1.70002 47.8829 1.68002 45.8029 1.68002C45.8229 1.20002 45.8029 0.700019 45.7429 0.240019C45.0429 0.140019 42.9429 0.140019 42.2629 0.240019C42.2029 0.700019 42.1829 1.20002 42.2029 1.68002C40.1829 1.68002 38.4229 1.70002 37.9029 1.72002C37.7629 2.10002 37.7629 4.16002 37.9029 4.66002ZM38.0029 8.94002C38.0029 11.28 39.9429 12.74 44.0229 12.74C48.1029 12.74 50.0429 11.28 50.0429 8.94002C50.0429 6.60002 48.1029 5.14002 44.0229 5.14002C39.9429 5.14002 38.0029 6.60002 38.0029 8.94002ZM41.2629 8.94002C41.2629 8.28002 41.9829 7.78002 44.0229 7.78002C46.0629 7.78002 46.7829 8.28002 46.7829 8.94002C46.7829 9.60002 46.0629 10.1 44.0229 10.1C41.9829 10.1 41.2629 9.60002 41.2629 8.94002Z" fill="#FFCD00"/>
<path d="M51.2404 17.36C52.2004 17.42 61.4604 17.42 62.6204 17.36C62.7404 16.64 62.7204 15.08 62.6204 14.28C62.0404 14.24 59.4004 14.22 56.8004 14.22C56.8204 12.28 56.8004 8.78002 56.7604 8.02002C56.0804 7.92002 54.1004 7.92002 53.3804 8.02002C53.3404 8.78002 53.3204 12.3 53.3404 14.22C52.2804 14.24 51.4804 14.26 51.2404 14.28C51.1204 15.04 51.1204 16.58 51.2404 17.36ZM51.8004 4.48002C52.7604 4.52002 57.7404 4.54002 58.4204 4.50002C58.4004 6.20002 58.3804 11.1 58.4204 12.52C59.2004 12.64 61.1404 12.64 61.7404 12.52C61.8204 11.52 61.8204 2.38002 61.7404 1.40002C60.5604 1.34002 53.0804 1.34002 51.8004 1.40002C51.7004 2.40002 51.7004 3.48002 51.8004 4.48002ZM63.5404 17.8C64.3204 17.94 66.2804 17.94 66.8604 17.8C66.9204 17.36 66.9604 14.08 66.9604 10.52C67.6604 10.52 68.3404 10.5 68.6804 10.46C68.7804 10.02 68.7804 7.84002 68.6804 7.40002C68.3404 7.36002 67.6604 7.32002 66.9604 7.32002C66.9604 4.10002 66.9204 1.28002 66.8604 0.86002C66.1804 0.74002 64.2204 0.74002 63.5404 0.86002C63.4204 1.86002 63.4204 16.82 63.5404 17.8Z" fill="#FFCD00"/>
</svg>
