<svg width="77" height="21" viewBox="0 0 77 21" fill="none" xmlns="http://www.w3.org/2000/svg">
<path d="M0.787158 12.3C1.22716 12.32 3.48716 12.32 6.06716 12.32C6.06716 12.96 6.08716 13.6 6.10716 14.1C6.82716 14.18 8.84716 14.18 9.52716 14.1C9.54716 13.6 9.56716 12.96 9.56716 12.32C11.8272 12.32 13.7672 12.32 14.2472 12.3C14.3472 11.44 14.3272 10.26 14.2472 9.22002C13.0072 9.16002 1.80716 9.16002 0.787158 9.22002C0.687158 10.24 0.687158 11.4 0.787158 12.3ZM1.24716 18.1C2.68716 18.18 12.7272 18.18 14.0872 18.1C14.2072 17.44 14.2072 15.74 14.0872 15.06C13.2072 15.02 5.56716 15.02 4.64716 15.06C4.68716 14.62 4.66716 13.96 4.64716 13.3C3.94716 13.18 1.92716 13.18 1.24716 13.3C1.14716 14.5 1.16716 16.74 1.24716 18.1ZM1.34716 8.26002C2.28716 8.36002 12.7472 8.36002 13.6872 8.26002C13.8272 7.22002 13.8272 2.08002 13.6872 1.04002C12.6672 0.92002 2.36716 0.92002 1.34716 1.04002C1.20716 2.08002 1.20716 7.22002 1.34716 8.26002ZM4.58716 3.92002C5.28716 3.86002 9.72716 3.86002 10.4472 3.92002V5.38002C9.74716 5.44002 5.30716 5.44002 4.58716 5.38002V3.92002Z" fill="#FFCD00"/>
<path d="M15.2208 17.16C16.1808 17.22 26.5608 17.22 27.7208 17.16C27.8408 16.44 27.8208 14.88 27.7208 14.08C26.5608 14 16.1808 13.98 15.2208 14.08C15.1008 14.84 15.1008 16.38 15.2208 17.16ZM15.3608 6.62002C15.3608 10.1 17.8008 12.34 21.4008 12.34C25.0008 12.34 27.4408 10.1 27.4408 6.62002C27.4408 3.12002 24.9808 0.900019 21.4008 0.900019C17.8008 0.900019 15.3608 3.14002 15.3608 6.62002ZM18.7208 6.62002C18.7208 4.90002 19.8008 3.96002 21.4008 3.96002C23.0008 3.96002 24.0808 4.90002 24.0808 6.62002C24.0808 8.32002 23.0008 9.28002 21.4008 9.28002C19.8008 9.28002 18.7208 8.32002 18.7208 6.62002ZM28.5008 17.8C29.2808 17.94 31.2408 17.94 31.8408 17.8C31.9808 16.82 31.9808 1.86002 31.8408 0.860019C31.1608 0.74002 29.2008 0.74002 28.5008 0.860019C28.3808 1.86002 28.3808 16.84 28.5008 17.8Z" fill="#FFCD00"/>
<path d="M33.2076 9.50002C33.2076 10.62 34.1076 11.5 35.2276 11.5C36.3476 11.5 37.2476 10.62 37.2476 9.50002C37.2476 8.38002 36.3476 7.50002 35.2276 7.50002C34.1076 7.50002 33.2076 8.38002 33.2076 9.50002Z" fill="#FFCD00"/>
<path d="M38.6895 17.36C39.4695 17.5 41.5095 17.5 42.1095 17.36C42.1495 17.02 42.1695 14.48 42.1695 11.22C43.6895 11.22 45.4695 11.22 45.8495 11.2C45.9295 10.54 45.9295 8.64002 45.8495 7.98002C45.6095 7.94002 43.8295 7.92002 42.1695 7.90002V4.84002C42.9495 4.88002 45.2895 4.86002 46.0095 4.84002C46.0495 4.40002 46.0495 2.28002 46.0095 1.64002C44.6295 1.52002 40.4495 1.50002 38.6895 1.62002C38.5895 3.14002 38.5695 16.26 38.6895 17.36Z" fill="#FFCD00"/>
<path d="M45.1351 16.66C45.7551 16.98 47.5151 17.5 48.4751 17.56C48.6751 17.08 49.1951 15.66 49.7951 13.92C51.5351 13.94 54.1351 13.94 55.9151 13.92C56.5151 15.66 57.0351 17.08 57.2351 17.56C58.1951 17.5 59.9551 16.98 60.5751 16.66C60.0151 14.84 56.1751 4.08002 55.1351 1.64002C53.8951 1.46002 51.8551 1.46002 50.5751 1.64002C49.5351 4.08002 45.6951 14.84 45.1351 16.66ZM50.8951 10.78C51.6351 8.60002 52.3951 6.42002 52.8551 5.10002C53.3151 6.42002 54.0751 8.60002 54.8151 10.78H50.8951Z" fill="#FFCD00"/>
<path d="M60.3389 9.50002C60.3389 13.96 62.8989 16.72 66.3789 17.44C66.3389 18.54 66.3589 20.12 66.4589 20.74C67.1789 20.88 69.3989 20.88 70.0589 20.74C70.1589 20.12 70.1789 18.54 70.1389 17.44C73.6189 16.72 76.1789 13.96 76.1789 9.50002C76.1789 4.28002 72.6589 1.38002 68.2589 1.38002C63.8589 1.38002 60.3389 4.28002 60.3389 9.50002ZM63.9189 9.50002C63.9189 6.56002 65.3789 4.64002 68.2589 4.64002C71.1389 4.64002 72.5989 6.56002 72.5989 9.50002C72.5989 12.44 71.1389 14.36 68.2589 14.36C65.3789 14.36 63.9189 12.44 63.9189 9.50002Z" fill="#FFCD00"/>
</svg>
