<svg width="29" height="28" viewBox="0 0 29 28" fill="none" xmlns="http://www.w3.org/2000/svg">
<path d="M28.4463 9.87254C28.4447 8.35265 27.8403 6.89545 26.7658 5.82053C25.6913 4.74561 24.2343 4.14073 22.7144 4.13858H16.2538V1.69077C16.2538 0.675913 15.5779 0 14.224 0C12.8702 0 12.1943 0.675913 12.1943 1.69077V4.13858H5.73578C4.21554 4.14019 2.75801 4.74486 1.68303 5.81984C0.608054 6.89482 0.00343316 8.3523 0.0018213 9.87254C-0.0215081 11.0757 0.179463 12.2727 0.594484 13.4023C0.795581 13.9184 1.09396 14.391 1.47337 14.7946L1.91583 19.737C2.06839 21.5359 2.8929 23.2113 4.22519 24.4297C5.55748 25.648 7.29976 26.3198 9.10509 26.3113H12.1943C12.1943 27.3261 12.8722 28 14.224 28C15.5758 28 16.2538 27.3241 16.2538 26.3113H19.4526C21.2579 26.3198 23.0003 25.648 24.3326 24.4297C25.6648 23.2113 26.4894 21.5359 26.6419 19.737L27.0966 14.6627C27.4194 14.2914 27.6756 13.867 27.8537 13.4084C28.2694 12.2769 28.4704 11.0777 28.4463 9.87254ZM19.4526 22.609H9.10103C8.22216 22.6132 7.37402 22.2861 6.72552 21.6929C6.07703 21.0997 5.67579 20.2839 5.60179 19.4082L5.31562 16.2175H23.234L22.9478 19.4082C22.8738 20.2832 22.4732 21.0984 21.8256 21.6915C21.178 22.2846 20.3308 22.6122 19.4526 22.609Z" fill="#FFCD00"/>
</svg>
