<svg width="51" height="28" viewBox="0 0 51 28" fill="none" xmlns="http://www.w3.org/2000/svg">
<g clip-path="url(#clip0)">
<path d="M16.8115 14.9168C18.0297 15.0458 21.0591 15.0458 21.9653 14.9168C22.1808 13.3039 22.1808 1.85869 21.9653 0.24631C20.9034 0.0533135 17.8707 0.0533135 16.8115 0.24631C16.6553 1.85869 16.6553 13.3372 16.8115 14.9168Z" fill="#FF3932"/>
<path d="M0.164054 14.2413C2.22537 14.3703 13.0007 14.3703 14.812 14.2413C14.937 13.1451 14.937 10.2429 14.812 9.43699C13.4688 9.37248 7.06617 9.37248 5.53608 9.43699C5.44233 8.30849 5.44233 6.24505 5.53608 5.40688C6.56673 5.43914 12.2195 5.43914 13.6563 5.40688C13.7501 4.27838 13.7501 1.50526 13.6563 0.667089C11.5325 0.538054 1.6629 0.538054 0.164054 0.667089C-0.0546846 3.53645 -0.0546846 11.3714 0.164054 14.2413Z" fill="#FF3932"/>
<path d="M18.7789 10.1435C19.9345 10.3048 23.6202 10.3048 24.8071 10.1435C24.9634 9.46662 24.9634 6.04886 24.8071 5.33972C23.6218 5.17843 19.9345 5.17843 18.7789 5.33972C18.5919 6.04886 18.5919 9.46662 18.7789 10.1435Z" fill="#FF3932"/>
<path d="M6.09858 23.3669C6.03608 22.4436 6.03608 21.517 6.09858 20.5938C7.22298 20.497 15.562 20.5293 16.7489 20.5938C16.8114 21.517 16.8114 22.4436 16.7489 23.3669C15.5932 23.4637 7.25423 23.4637 6.09858 23.3669ZM0.851554 27.8809C2.35094 28.0416 20.4658 28.0416 21.9652 27.8809C22.1807 26.333 22.1807 17.6276 21.9652 16.0475C20.3096 15.854 2.50664 15.854 0.851554 16.0475C0.632815 17.6276 0.632815 26.333 0.851554 27.8809Z" fill="#FF3932"/>
<path d="M18.7789 10.1451C19.4039 10.2419 20.8095 10.2742 22.1192 10.2742V5.21289C20.8079 5.21289 19.4022 5.24514 18.7789 5.34192C18.5919 6.05049 18.5919 9.46824 18.7789 10.1451Z" fill="#FF3932"/>
<path d="M37.1431 14.2092C38.4238 14.306 41.1725 14.306 42.423 14.2092C42.5792 12.8872 42.5792 2.30965 42.423 0.988158C40.8606 0.826864 35.6771 0.826864 34.4277 0.988158C34.3027 1.9231 34.3027 5.21183 34.4277 6.14677C35.2084 6.21129 36.1453 6.17903 37.1447 6.14677C37.0833 8.30699 37.0833 12.049 37.1431 14.2092Z" fill="#FF3932"/>
<path d="M27.9301 14.2092C29.2108 14.306 31.959 14.306 33.21 14.2092C33.3662 12.8872 33.3662 2.30965 33.21 0.988158C31.6476 0.826864 26.8073 0.826864 25.5596 0.988158C25.4346 1.9231 25.4346 5.21183 25.5596 6.14677C26.3402 6.21129 27.122 6.17903 27.9334 6.14677C27.8676 8.30699 27.8676 12.049 27.9301 14.2092Z" fill="#FF3932"/>
<path d="M44.7222 17.3538C45.9361 17.579 48.9871 17.579 49.8901 17.3538C50.1056 15.7792 50.1056 1.7517 49.8901 0.14433C48.8314 -0.04811 45.7804 -0.04811 44.7222 0.14433C44.5353 1.7517 44.5353 15.7809 44.7222 17.3538Z" fill="#FF3932"/>
<path d="M43.6348 24.2275C44.3389 25.2731 46.4961 27.5001 47.2887 28.0001C48.5214 27.0457 50.0536 25.4639 51.0002 24.1691C50.3839 23.2597 48.2266 21.0328 47.3458 20.3965C46.1131 21.3987 44.5814 22.9777 43.6348 24.2275Z" fill="#FF3932"/>
</g>
<defs>
<clipPath id="clip0">
<rect width="51" height="28" fill="white"/>
</clipPath>
</defs>
</svg>
