<svg width="51" height="28" viewBox="0 0 51 28" fill="none" xmlns="http://www.w3.org/2000/svg">
<g clip-path="url(#clip0)">
<path d="M16.8115 14.9173C18.0297 15.0463 21.0591 15.0463 21.9653 14.9173C22.1808 13.3043 22.1808 1.85918 21.9653 0.246798C20.9034 0.0538018 17.8707 0.0538018 16.8115 0.246798C16.6553 1.85918 16.6553 13.3377 16.8115 14.9173Z" fill="#FF3932"/>
<path d="M0.164054 14.2408C2.22537 14.3699 13.0007 14.3699 14.812 14.2408C14.937 13.1446 14.937 10.2424 14.812 9.43651C13.4688 9.37199 7.06617 9.37199 5.53608 9.43651C5.44233 8.30801 5.44233 6.24456 5.53608 5.40639C6.56673 5.43865 12.2195 5.43865 13.6563 5.40639C13.7501 4.27789 13.7501 1.50477 13.6563 0.6666C11.5325 0.537566 1.6629 0.537566 0.164054 0.6666C-0.0546846 3.53596 -0.0546846 11.3709 0.164054 14.2408Z" fill="#FF3932"/>
<path d="M18.7789 10.1445C19.9345 10.3058 23.6202 10.3058 24.8071 10.1445C24.9634 9.46759 24.9634 6.04983 24.8071 5.3407C23.6218 5.1794 19.9345 5.1794 18.7789 5.3407C18.5919 6.04983 18.5919 9.46759 18.7789 10.1445Z" fill="#FF3932"/>
<path d="M6.09858 23.3659C6.03608 22.4427 6.03608 21.516 6.09858 20.5928C7.22298 20.496 15.562 20.5283 16.7489 20.5928C16.8114 21.516 16.8114 22.4427 16.7489 23.3659C15.5932 23.4627 7.25423 23.4627 6.09858 23.3659ZM0.851554 27.8799C2.35094 28.0407 20.4658 28.0407 21.9652 27.8799C22.1807 26.3321 22.1807 17.6267 21.9652 16.0465C20.3096 15.853 2.50664 15.853 0.851554 16.0465C0.632815 17.6267 0.632815 26.3321 0.851554 27.8799Z" fill="#FF3932"/>
<path d="M18.7789 10.1456C19.4039 10.2424 20.8095 10.2747 22.1192 10.2747V5.21338C20.8079 5.21338 19.4022 5.24563 18.7789 5.3424C18.5919 6.05098 18.5919 9.46873 18.7789 10.1456Z" fill="#FF3932"/>
<path d="M37.1431 14.2097C38.4238 14.3065 41.1725 14.3065 42.423 14.2097C42.5792 12.8877 42.5792 2.31014 42.423 0.988646C40.8606 0.827352 35.6771 0.827352 34.4277 0.988646C34.3027 1.92359 34.3027 5.21231 34.4277 6.14726C35.2084 6.21178 36.1453 6.17952 37.1447 6.14726C37.0833 8.30748 37.0833 12.0495 37.1431 14.2097Z" fill="#FF3932"/>
<path d="M27.9301 14.2097C29.2108 14.3065 31.959 14.3065 33.21 14.2097C33.3662 12.8877 33.3662 2.31014 33.21 0.988646C31.6476 0.827352 26.8073 0.827352 25.5596 0.988646C25.4346 1.92359 25.4346 5.21231 25.5596 6.14726C26.3402 6.21178 27.122 6.17952 27.9334 6.14726C27.8676 8.30748 27.8676 12.0495 27.9301 14.2097Z" fill="#FF3932"/>
<path d="M44.7222 17.3543C45.9361 17.5795 48.9871 17.5795 49.8901 17.3543C50.1056 15.7797 50.1056 1.75219 49.8901 0.144818C48.8314 -0.0476217 45.7804 -0.0476217 44.7222 0.144818C44.5353 1.75219 44.5353 15.7814 44.7222 17.3543Z" fill="#FF3932"/>
<path d="M43.6348 24.228C44.3389 25.2736 46.4961 27.5006 47.2887 28.0006C48.5214 27.0462 50.0536 25.4644 51.0002 24.1696C50.3839 23.2602 48.2266 21.0332 47.3458 20.397C46.1131 21.3992 44.5814 22.9782 43.6348 24.228Z" fill="#FF3932"/>
</g>
<defs>
<clipPath id="clip0">
<rect width="51" height="28" fill="white"/>
</clipPath>
</defs>
</svg>
