<svg width="125" height="51" viewBox="0 0 125 51" fill="none" xmlns="http://www.w3.org/2000/svg">
<path d="M0.0684584 1.23258C2.08419 1.11093 4.10543 1.11093 6.12117 1.23258C6.21513 2.21926 6.21513 19.2635 6.12117 20.2502C4.84438 20.3221 3.56457 20.3221 2.28779 20.2502C2.26292 18.6362 2.26292 6.72701 2.28779 5.11296C1.55152 5.1596 0.81303 5.1596 0.0767578 5.11296C-0.0227336 3.82152 -0.0255132 2.52444 0.0684584 1.23258ZM7.0111 1.23258C7.84023 1.11098 11.9279 1.11098 13.0389 1.23258C13.1578 2.21926 13.1578 19.2635 13.0389 20.2502C11.7705 20.3221 10.4989 20.3221 9.23043 20.2502C9.18068 18.6362 9.18068 6.72701 9.23043 5.11296C8.49416 5.15964 7.75567 5.15964 7.0194 5.11296C6.94478 3.82065 6.942 2.52519 7.0111 1.23258V1.23258ZM14.7746 0.724056C16.0604 0.581148 17.3581 0.581148 18.6439 0.724056C18.6909 1.20772 18.7158 4.34185 18.7158 8.00387H20.3547C20.3547 4.2921 20.3796 1.11098 20.4044 0.627314C21.7179 0.483604 23.0432 0.483604 24.3566 0.627314C24.5004 1.83509 24.5004 19.8661 24.3566 21.0462C23.6325 21.2148 21.3441 21.2148 20.4044 21.0462C20.3796 20.4934 20.3547 16.2261 20.3547 11.7405H18.7158C18.7158 16.0797 18.6909 20.1784 18.6439 20.7339C17.3581 20.877 16.0604 20.877 14.7746 20.7339C14.6779 19.5261 14.6779 1.92907 14.7746 0.724056V0.724056Z" fill="white"/>
<path d="M31.656 13.839C33.1636 13.7174 34.6784 13.7174 36.1859 13.839C38.2615 15.5747 41.2022 18.203 41.9484 18.8774C41.2183 20.0722 40.2694 21.1186 39.1514 21.9618C37.3158 20.5018 35.5696 18.9328 33.9223 17.2633C32.2735 18.9323 30.5265 20.5012 28.6905 21.9618C27.5726 21.1186 26.6237 20.0722 25.8936 18.8774C26.6343 18.203 29.5749 15.5747 31.656 13.839ZM26.0621 9.04105C27.292 8.96919 40.3095 8.96919 41.8157 9.04105C41.9236 10.3332 41.9236 11.632 41.8157 12.9242C40.3205 12.9712 27.3031 12.9712 26.0621 12.9242C25.9405 11.6328 25.9378 10.3329 26.0538 9.04105H26.0621ZM26.7614 0.918281C28.9137 0.799375 31.0709 0.799375 33.2231 0.918281C33.295 1.9547 33.295 6.55917 33.2231 8.07925C31.8825 8.17322 30.5369 8.17322 29.1963 8.07925V4.43935C28.3853 4.48635 27.5723 4.48635 26.7614 4.43935C26.6618 3.26788 26.659 2.0902 26.7531 0.918281H26.7614ZM34.2236 0.918281C36.4478 0.799436 38.6767 0.799436 40.9009 0.918281C40.9976 1.9547 40.9976 6.55917 40.9009 8.07925C39.5612 8.17326 38.2166 8.17326 36.8769 8.07925V4.43935C35.9931 4.48655 35.1074 4.48655 34.2236 4.43935C34.1443 3.26721 34.1369 2.09132 34.2015 0.918281H34.2236Z" fill="white"/>
<path d="M43.0982 2.09771C43.6759 2.05073 45.9422 2.02585 48.5208 2.02585C48.5208 1.40124 48.5457 0.724108 48.5927 0.0912006C50.0125 -0.0304002 51.4401 -0.0304002 52.8599 0.0912006C52.9069 0.715817 52.9318 1.39295 52.9318 2.02585C55.3197 2.05073 57.3539 2.05073 57.9453 2.09771C58.0918 2.58138 58.0918 5.08813 57.9453 5.74039C56.3782 5.81225 44.5188 5.81225 43.0982 5.74039C42.9269 5.15999 42.9269 2.65324 43.0982 2.09771ZM50.7263 6.38989C55.3087 6.38989 58.1028 9.04036 58.1028 13.5011C58.1028 17.9619 55.3087 20.6123 50.7263 20.6123C46.1439 20.6123 43.3498 17.9619 43.3498 13.5011C43.3498 9.04036 46.1578 6.38989 50.7263 6.38989ZM50.7263 17.1687C52.8738 17.1687 54.1976 15.7868 54.1976 13.5039C54.1976 11.221 52.8738 9.83909 50.7263 9.83909C48.5788 9.83909 47.255 11.2376 47.255 13.5039C47.255 15.7702 48.5927 17.1659 50.7263 17.1659V17.1687ZM59.0177 0.627377C60.3478 0.483666 61.6895 0.483666 63.0196 0.627377C63.0915 1.13591 63.1385 4.49668 63.1385 8.36599C63.9842 8.36599 64.7968 8.41575 65.2141 8.46273C65.3329 9.72114 65.3329 10.988 65.2141 12.2464C64.8023 12.2961 63.9842 12.321 63.1385 12.321C63.1385 16.5855 63.0915 20.5156 63.0196 21.0463C62.3204 21.2148 59.9574 21.2148 59.0177 21.0463C58.8629 19.8661 58.8629 1.83515 59.0177 0.627377Z" fill="white"/>
<path d="M65.7806 1.23258C66.9856 1.11098 72.3833 1.11098 73.5883 1.23258C73.638 1.61675 73.6629 4.54913 73.685 8.00387H75.4455C75.4455 4.34185 75.4704 1.20772 75.5174 0.724056C76.8032 0.581375 78.1009 0.581375 79.3867 0.724056C79.4807 1.92907 79.4807 19.5178 79.3867 20.7339C78.1009 20.8768 76.8032 20.8768 75.5174 20.7339C75.4704 20.1811 75.4455 16.0797 75.4455 11.7405H73.685C73.685 15.8862 73.638 19.7914 73.5883 20.2502C72.2479 20.3221 70.9046 20.3221 69.5642 20.2502C69.5172 18.6362 69.5172 6.72701 69.5642 5.11296C68.5748 5.15994 66.864 5.15994 65.7806 5.11296C65.6838 3.82131 65.6838 2.52423 65.7806 1.23258ZM80.8211 0.627314C82.1346 0.483604 83.4598 0.483604 84.7733 0.627314C84.9198 1.83509 84.9198 19.8661 84.7733 21.0462C84.052 21.2148 81.7608 21.2148 80.8211 21.0462C80.7493 19.8661 80.7493 1.83509 80.8211 0.627314V0.627314Z" fill="white"/>
<path d="M91.1137 0.942402C92.2718 0.845669 99.8888 0.845669 101.528 0.942402C101.6 2.12236 101.6 3.30562 101.528 4.48558C100.422 4.51046 96.0554 4.51046 95.2594 4.48558C95.1873 5.48847 95.1873 6.49524 95.2594 7.49812C96.4423 7.45114 101.384 7.45114 102.42 7.49812C102.515 8.69391 102.515 9.89526 102.42 11.091C101.022 11.1878 92.7057 11.1878 91.1137 11.091C90.9452 8.94635 90.9452 3.0871 91.1137 0.942402ZM91.6444 12.4398C92.9213 12.296 106.663 12.296 107.951 12.4398C108.119 13.6227 108.119 20.1286 107.951 21.2839C106.793 21.4055 92.8135 21.4055 91.6444 21.2839C91.4758 20.1176 91.4758 13.6227 91.6444 12.4398V12.4398ZM103.913 17.9121C103.963 17.222 103.963 16.5293 103.913 15.8392C102.998 15.7923 96.5612 15.7674 95.6933 15.8392C95.6463 16.5294 95.6463 17.2219 95.6933 17.9121C96.586 17.9839 103.023 17.9839 103.913 17.9065V17.9121ZM103.963 0.627326C105.284 0.4836 106.618 0.4836 107.94 0.627326C108.012 1.08612 108.036 2.58133 108.061 4.34186C108.753 4.33837 109.445 4.37067 110.134 4.4386C110.253 5.63329 110.253 6.83685 110.134 8.03153C109.445 8.09947 108.753 8.13175 108.061 8.12826C108.036 9.76718 108.012 11.1684 107.94 11.5996C106.616 11.6965 105.287 11.6965 103.963 11.5996C103.841 10.4167 103.841 1.8351 103.963 0.627326V0.627326Z" fill="#FFCD00"/>
<path d="M110.855 10.945C112.085 10.8731 123.414 10.8731 124.909 10.945C125.03 12.1802 125.03 13.4243 124.909 14.6595C123.414 14.7065 112.085 14.7065 110.855 14.6595C110.733 13.4243 110.733 12.1802 110.855 10.945ZM117.869 0.495117C121.968 0.495117 124.522 2.39937 124.522 5.46994C124.522 8.54051 121.968 10.4448 117.869 10.4448C113.771 10.4448 111.217 8.54051 111.217 5.46994C111.217 2.39937 113.773 0.495117 117.869 0.495117ZM111.41 15.6352C112.772 15.4887 114.145 15.4887 115.506 15.6352C115.544 16.3413 115.544 17.0489 115.506 17.755C116.612 17.708 123.657 17.708 124.715 17.755C124.862 18.9722 124.862 20.2026 124.715 21.4198C123.076 21.5165 113.146 21.5165 111.41 21.4198C111.301 19.4894 111.301 17.5544 111.41 15.6241V15.6352ZM117.869 6.83525C119.655 6.83525 120.376 6.25762 120.376 5.45336C120.376 4.64909 119.655 4.07146 117.869 4.07146C116.084 4.07146 115.363 4.64909 115.363 5.45336C115.363 6.25762 116.087 6.8242 117.869 6.8242V6.83525Z" fill="white"/>
<path d="M0.768045 29.8685C1.92607 29.7717 10.9941 29.7717 11.6657 29.8685C11.7377 31.0401 11.7377 32.2151 11.6657 33.3868C11.2788 33.4116 5.66271 33.4116 4.86673 33.3868C4.79468 34.4062 4.79468 35.4295 4.86673 36.449C6.04687 36.4021 11.7596 36.4021 12.7961 36.449C12.893 37.6364 12.893 38.8297 12.7961 40.0171C11.4142 40.1138 2.35999 40.1138 0.768045 40.0171C0.599454 37.8724 0.599454 32.0021 0.768045 29.8685ZM9.90515 40.9816C16.4139 40.9816 18.9206 42.6676 18.9206 45.8017C18.9206 48.9358 16.4139 50.6245 9.90515 50.6245C3.39643 50.6245 0.889669 48.9358 0.889669 45.8017C0.889669 42.6676 3.39643 40.9816 9.90515 40.9816ZM9.90515 47.1753C13.7745 47.1753 14.7252 46.6944 14.7252 45.7934C14.7252 44.8924 13.7606 44.4115 9.90515 44.4115C6.04966 44.4115 5.08232 44.8952 5.08232 45.7934C5.08232 46.6916 6.0469 47.1753 9.90515 47.1753ZM14.3272 29.5561C15.6489 29.4097 16.9826 29.4097 18.3043 29.5561C18.3761 30.0122 18.401 31.5074 18.4231 33.2679C19.1153 33.2643 19.8072 33.2965 20.496 33.3646C20.6178 34.5592 20.6178 35.763 20.496 36.9576C19.8072 37.0257 19.1153 37.058 18.4231 37.0543C18.401 38.743 18.3761 40.1884 18.3043 40.6224C16.9804 40.7193 15.6511 40.7193 14.3272 40.6224C14.2194 39.4394 14.2194 30.7612 14.341 29.5561H14.3272Z" fill="white"/>
<path d="M25.2992 29.8683C26.0952 29.8213 28.4582 29.8213 29.2515 29.8683C29.854 30.9047 33.9499 39.2652 34.3147 40.4011C33.6625 40.9096 31.4956 41.8963 30.6499 42.0594C30.2409 41.432 28.6738 37.8418 27.3969 35.2383C26.2914 37.8888 24.8653 41.4817 24.5281 42.1312C23.699 41.9875 21.441 41.1197 20.7666 40.6388C21.0651 39.5112 24.7465 30.9296 25.2992 29.8683ZM22.3088 42.8581C23.6713 42.7144 25.0451 42.7144 26.4075 42.8581C26.4324 43.6541 26.4573 45.5086 26.4075 46.1747C27.513 46.1277 38.2669 46.1277 39.3282 46.1747C39.472 47.4318 39.472 48.7012 39.3282 49.9583C37.6893 50.055 24.0445 50.055 22.3088 49.9583C22.2231 48.3083 22.1982 44.3063 22.3171 42.8609L22.3088 42.8581ZM35.0858 29.5532C36.4158 29.4067 37.7578 29.4067 39.0878 29.5532C39.2564 30.7582 39.2564 43.3169 39.0878 44.5219C37.7555 44.6188 36.418 44.6188 35.0858 44.5219C34.9974 43.3335 34.9973 30.761 35.0941 29.556L35.0858 29.5532Z" fill="white"/>
<path d="M40.806 45.4893C41.9641 45.3677 54.473 45.3926 55.8715 45.4893C56.0056 46.7229 56.0056 47.9675 55.8715 49.2011C54.473 49.2729 41.9641 49.2729 40.806 49.2011C40.6623 47.968 40.6623 46.7224 40.806 45.4893V45.4893ZM48.2683 29.6031C52.5825 29.6031 55.5481 32.2784 55.5481 36.4959C55.5481 40.7135 52.6074 43.4054 48.2683 43.4054C43.9291 43.4054 40.9885 40.7052 40.9885 36.4959C40.9885 32.2867 43.9153 29.6031 48.2545 29.6031H48.2683ZM48.2683 39.7047C50.2029 39.7047 51.4992 38.5467 51.4992 36.4959C51.4992 34.4452 50.1974 33.2927 48.2683 33.2927C46.3391 33.2927 45.0374 34.4231 45.0374 36.4959C45.0374 38.5688 46.3253 39.7047 48.2545 39.7047H48.2683ZM56.836 29.5561C58.1743 29.4097 59.5246 29.4097 60.8629 29.5561C61.0315 30.7611 61.0315 48.7921 60.8629 49.9722C60.1388 50.1408 57.7757 50.1408 56.836 49.9722C56.6674 48.8142 56.6674 30.7611 56.8056 29.5561H56.836Z" fill="white"/>
<path d="M66.6476 30.8582C67.1754 30.8333 68.9608 30.8084 71.0696 30.8084C71.0696 30.2059 71.0696 29.6034 71.1166 29.0258C72.4718 28.9042 73.8352 28.9042 75.1904 29.0258C75.2402 29.6034 75.2623 30.2059 75.2623 30.8084C77.1969 30.8084 78.8552 30.8333 79.3858 30.8582C79.5296 31.3142 79.5296 33.6772 79.3858 34.2797C77.9155 34.3516 68.0073 34.3516 66.6586 34.2797C66.479 33.7491 66.479 31.3861 66.6476 30.8582ZM73.1563 34.8353C77.4457 34.8353 79.4715 36.4245 79.4715 39.1744C79.4715 41.9244 77.4457 43.5136 73.1563 43.5136C68.8669 43.5136 66.8383 41.9216 66.8383 39.1744C66.8383 36.4272 68.8641 34.8353 73.1563 34.8353V34.8353ZM67.731 44.0663C69.0934 43.9226 70.4672 43.9226 71.8297 44.0663C71.8657 44.7651 71.8657 45.4653 71.8297 46.164C72.9352 46.1171 83.4376 46.1171 84.5099 46.164C84.6537 47.4212 84.6537 48.6906 84.5099 49.9477C82.8682 50.0444 69.4666 50.0444 67.731 49.9477C67.6217 47.9887 67.6217 46.0253 67.731 44.0663V44.0663ZM73.1563 40.4513C75.0108 40.4513 75.8316 39.8985 75.8316 39.1744C75.8316 38.4503 75.0025 37.8948 73.1563 37.8948C71.3101 37.8948 70.4782 38.4475 70.4782 39.1744C70.4782 39.9013 71.299 40.4513 73.1563 40.4513V40.4513ZM80.2647 29.5564C81.5947 29.41 82.9367 29.41 84.2667 29.5564C84.3386 30.1092 84.3883 33.0996 84.3883 36.2807C85.0805 36.2772 85.7724 36.3095 86.4612 36.3775C86.5331 37.574 86.5331 38.7738 86.4612 39.9704C85.7724 40.0384 85.0805 40.0707 84.3883 40.0671C84.3635 42.3583 84.3165 44.2128 84.2667 44.6495C82.9344 44.7437 81.5971 44.7437 80.2647 44.6495C80.1708 43.4638 80.1708 30.7615 80.2647 29.5564V29.5564Z" fill="white"/>
<path d="M91.138 30.1089C93.1049 29.99 95.0773 29.99 97.0442 30.1089C97.163 31.0983 97.163 48.2366 97.0442 49.226C95.6872 49.2979 94.3274 49.2979 92.9704 49.226C92.9206 47.6092 92.9206 35.5812 92.9704 33.9672C92.3601 34.0017 91.7483 34.0017 91.138 33.9672C91.0412 32.6829 91.0412 31.3932 91.138 30.1089V30.1089ZM97.9839 30.1089C100.039 29.99 102.1 29.99 104.155 30.1089C104.274 31.0983 104.274 48.2366 104.155 49.226C102.798 49.2979 101.439 49.2979 100.082 49.226C100.032 47.6092 100.032 35.5812 100.082 33.9672C99.3105 33.9893 98.5864 34.0141 97.9839 33.9672C97.8881 32.6828 97.889 31.3931 97.9867 30.1089H97.9839ZM105.866 29.5562C107.196 29.4097 108.538 29.4097 109.868 29.5562C110.037 30.7612 110.037 48.7921 109.868 49.9723C109.169 50.1409 106.806 50.1409 105.866 49.9723C105.725 48.7921 105.725 30.7612 105.866 29.5562Z" fill="#FFCD00"/>
</svg>
