<svg width="364" height="80" viewBox="0 0 364 80" fill="none" xmlns="http://www.w3.org/2000/svg">
<g filter="url(#filter0_d_1028_359)">
<rect x="10" y="7" width="344" height="60" rx="12" fill="#EF8A33"/>
<g clip-path="url(#clip0_1028_359)">
<path d="M329.19 36.13L328.44 34.79L322.47 24H319.12L325.04 34.79L306 34.78V37.49H325.04L319.12 48.28H322.47L328.44 37.49L329.19 36.15L329.17 36.14L329.19 36.13Z" fill="white"/>
</g>
</g>
<g clip-path="url(#clip1_1028_359)">
<path d="M39.3445 36.6819H35.0911V34.2136H39.6906L40.2735 30.1059H35V27.665H43.1425V30.115L41.0386 44.7333H38.2242L39.3445 36.6819V36.6819ZM47.4779 44.8426V36.782H43.8894V34.2045H47.487V27.583H50.0646V44.8426H47.487H47.4779Z" fill="white"/>
<path d="M61.5498 27.6738V37.5286H55.2471V42.3649H61.7411V44.7603H52.6877V34.8964H58.9905V30.1602H52.6969V27.6738H61.5498ZM67.1056 44.8514H64.5918V27.5918H67.1147V44.8514H67.1056Z" fill="white"/>
<path d="M69.2732 31.6179L71.0584 28.7944H74.1277V44.3235H71.4773V31.627H69.2732V31.6179Z" fill="white"/>
<path d="M82.6346 28.6121C85.1393 28.6121 86.4144 30.4611 86.4144 32.9566V34.9786C86.4144 35.7254 86.2869 36.4177 86.0501 37.0188L84.6566 44.3143H82.0881L83.0536 39.2776C82.9079 39.2958 82.7803 39.2958 82.6346 39.2958H79.9478C77.4704 39.2958 76.168 37.4469 76.168 34.9695V32.9475C76.168 30.4428 77.4613 28.603 79.9478 28.603H82.6346V28.6121ZM83.6183 33.1024C83.6183 32.0276 83.3086 31.3172 82.2521 31.3172H80.3394C79.2829 31.3172 78.9732 32.0276 78.9732 33.1024V34.8147C78.9732 35.8894 79.2829 36.5998 80.3394 36.5998H82.2521C83.3086 36.5998 83.6183 35.8894 83.6183 34.8147V33.1024V33.1024Z" fill="white"/>
<path d="M87.4801 28.9854H97.8996L95.1581 44.3323H92.2344L94.4294 31.7997H90.3582V34.1131H87.4709V28.9854H87.4801Z" fill="white"/>
<path d="M105.304 28.6211C107.8 28.6211 109.448 30.47 109.448 32.9656V33.6396C109.448 34.7143 109.066 35.6433 108.446 36.372C109.321 37.046 109.886 38.0843 109.886 39.3503V40.3521C109.886 42.702 107.964 44.4234 105.632 44.4234H103.319C100.987 44.4234 99.0835 42.702 99.0835 40.3521V39.3503C99.0835 38.0752 99.6482 37.0186 100.541 36.3355C99.9396 35.6251 99.5753 34.6961 99.5753 33.6396V32.9656C99.5753 30.4609 101.242 28.6211 103.719 28.6211H105.304V28.6211ZM107.235 39.751C107.235 38.6763 106.379 37.893 105.322 37.893H103.628C102.572 37.893 101.716 38.6763 101.716 39.751V40.0243C101.716 41.099 102.572 41.7912 103.628 41.7912H105.322C106.379 41.7912 107.235 41.099 107.235 40.0243V39.751V39.751ZM106.725 33.1477C106.725 32.073 106.233 31.1804 105.177 31.1713H103.847C102.79 31.1713 102.299 32.0639 102.299 33.1386V33.4847C102.299 34.5595 102.79 35.4521 103.847 35.4521H105.177C106.233 35.4521 106.725 34.5595 106.725 33.4847V33.1386V33.1477Z" fill="white"/>
<path d="M122.901 35.6345L125.925 44.8153H123.092L121.453 39.5964L119.549 44.8153H116.644L121.89 30.2152H116.78V27.7014H124.868V30.2243L122.892 35.6436L122.901 35.6345ZM128.466 44.8699V27.6104H130.898V33.5032H132.756V35.9077H130.898V44.8699H128.466V44.8699Z" fill="white"/>
<path d="M138.858 44.7876L137.182 34.0767L135.515 44.7876H132.965L135.971 27.6647H138.439L141.426 44.7785H138.867L138.858 44.7876ZM142.62 33.5484V27.6191H145.051V44.8787H142.62V35.9529H140.415V33.5484H142.629H142.62ZM148.786 44.8878H146.317V27.6191H148.786V44.8787V44.8878Z" fill="white"/>
<path d="M157.038 28.7305H160.635V31.0166H150.908V28.7305H154.487V27H157.047V28.7305H157.038ZM156.491 32.1278C158.513 32.1278 160.18 33.6943 160.18 35.6343V41.2904C160.18 43.2213 158.513 44.7969 156.491 44.7969H154.997C152.975 44.7969 151.345 43.2304 151.354 41.2904V35.6343C151.354 33.7035 152.985 32.1278 155.007 32.1369H156.5L156.491 32.1278ZM155.899 42.3469C156.828 42.3469 157.593 41.7458 157.593 40.7621V36.1626C157.593 35.1789 156.828 34.5596 155.899 34.5596H155.571C154.642 34.5596 153.877 35.1789 153.877 36.1626V40.7621C153.877 41.7458 154.642 42.3469 155.571 42.3469H155.899ZM165.499 44.888H162.921V27.6193H165.499V44.888Z" fill="white"/>
<path d="M182.057 38.4851V42.5017H188.569V44.8971H172.876V42.5017H179.352V38.4851H173.605V27.6284H176.437V31.3354H185.017V27.6284H187.85V38.4942H182.057V38.4851ZM185.017 35.9986V33.7945H176.437V35.9986H185.017Z" fill="white"/>
<path d="M196.493 30.1697H189.945V27.7288H199.362V30.1697L197.258 44.788H194.444L196.493 30.1697V30.1697ZM204.991 44.8973H202.186V27.6377H205V44.9064L204.991 44.8973Z" fill="white"/>
</g>
<defs>
<filter id="filter0_d_1028_359" x="0" y="0" width="364" height="80" filterUnits="userSpaceOnUse" color-interpolation-filters="sRGB">
<feFlood flood-opacity="0" result="BackgroundImageFix"/>
<feColorMatrix in="SourceAlpha" type="matrix" values="0 0 0 0 0 0 0 0 0 0 0 0 0 0 0 0 0 0 127 0" result="hardAlpha"/>
<feOffset dy="3"/>
<feGaussianBlur stdDeviation="5"/>
<feComposite in2="hardAlpha" operator="out"/>
<feColorMatrix type="matrix" values="0 0 0 0 0 0 0 0 0 0 0 0 0 0 0 0 0 0 0.3 0"/>
<feBlend mode="normal" in2="BackgroundImageFix" result="effect1_dropShadow_1028_359"/>
<feBlend mode="normal" in="SourceGraphic" in2="effect1_dropShadow_1028_359" result="shape"/>
</filter>
<clipPath id="clip0_1028_359">
<rect width="23.19" height="24.28" fill="white" transform="translate(306 24)"/>
</clipPath>
<clipPath id="clip1_1028_359">
<rect width="170" height="17.9062" fill="white" transform="translate(35 27)"/>
</clipPath>
</defs>
</svg>
