<svg width="364" height="80" viewBox="0 0 364 80" fill="none" xmlns="http://www.w3.org/2000/svg">
<g filter="url(#filter0_d_1028_280)">
<rect x="10" y="7" width="344" height="60" rx="12" fill="#E97676"/>
<g clip-path="url(#clip0_1028_280)">
<path d="M329.19 36.13L328.44 34.79L322.47 24H319.12L325.04 34.79L306 34.78V37.49H325.04L319.12 48.28H322.47L328.44 37.49L329.19 36.15L329.17 36.14L329.19 36.13Z" fill="white"/>
</g>
</g>
<g clip-path="url(#clip1_1028_280)">
<path d="M43.965 27.7059V30.1259H37.8508V42.4275H44.0566V44.9117H35V27.7059H43.965ZM50.8858 33.4626V35.8826H49.0158V44.9942H46.4033V27.6143H49.0158V33.4534H50.8858V33.4626Z" fill="white"/>
<path d="M58.5216 44.9026H51.8025V35.0027H55.9916V30.2085H51.8025V27.706H58.595V37.661H54.4058V42.4918H58.5216V44.9026V44.9026ZM60.2266 44.9943V27.6235H62.7291V34.5993H64.5074V27.6235H67.0283V44.9943H64.5074V37.0835H62.7291V44.9943H60.2266V44.9943Z" fill="white"/>
<path d="M75.0306 28.265H78.3947V30.4558H76.1123C77.1389 31.0608 77.8356 32.0325 77.8356 33.1141V34.2691C77.8356 36.0841 75.8831 37.5783 73.6648 37.5691C71.4281 37.5691 69.604 36.0841 69.604 34.26V33.1783C69.604 31.9683 70.3189 31.0333 71.2906 30.4467H69.054V28.265H72.4548V27H75.0306V28.265V28.265ZM69.9156 38.4766H80.7506V27.6233H83.3447V31.2808H85.2147V33.7833H83.3447V45.0033H69.9156V38.4766ZM75.4706 33.6091C75.4706 32.7658 74.7006 32.0691 73.7473 32.0691C72.7939 32.0691 72.0056 32.7658 72.0056 33.6091V33.9208C72.0056 34.7825 72.7939 35.4608 73.7473 35.4608C74.7006 35.4608 75.4706 34.7825 75.4706 33.9208V33.6091V33.6091ZM72.5098 42.7574H80.7597V40.7224H72.5098V42.7574Z" fill="white"/>
<path d="M86.3147 37.1931V27.724H88.8905V30.254H92.4013V27.724H94.9772V37.2023H86.3239L86.3147 37.1931ZM99.808 45.0031H97.0305L97.7455 41.1439H87.0755V38.9164H97.8555V27.6323H100.505V31.6931H102.375V34.0765H100.505V41.1439L99.7988 45.0031H99.808ZM92.3922 34.9015V32.4998H88.8814V34.9015H92.3922Z" fill="white"/>
<path d="M118.81 42.6109V45.0125H103.016V42.6017H118.81V42.6109ZM114.97 39.1826L110.918 31.0976L106.857 39.1734H103.64L109.176 27.6968H112.669L118.196 39.1826H114.979H114.97Z" fill="white"/>
<path d="M120.561 27.7333H127.464V30.0341H123.22V31.5741H127.152V33.7099H123.22V35.1582H127.776V37.4407H120.552V27.7333H120.561ZM128.83 27.6416H131.323V31.0241H132.845V27.6508H135.347V40.814L134.641 45.0215H131.901L132.616 40.814H121.414V38.5316H132.836V33.4716H131.314V37.6241H128.811V27.6416H128.83Z" fill="white"/>
<path d="M149.381 35.7358L152.425 44.9758H149.574L147.924 39.7233L146.008 44.9758H143.084L148.364 30.2817H143.221V27.7425H151.361V30.2817L149.372 35.7358H149.381ZM154.982 45.0308V27.6509H157.43V33.5909H159.3V36.02H157.43V45.04H154.982V45.0308Z" fill="white"/>
<path d="M165.441 44.9392L163.754 34.1593L162.077 44.9392H159.51L162.526 27.7152H165.01L168.017 44.9392H165.441V44.9392ZM169.227 33.6276V27.6602H171.674V45.0309H169.227V36.0568H167.009V33.6276H169.236H169.227ZM175.433 45.0401H172.949V27.6602H175.433V45.0401Z" fill="white"/>
<path d="M183.728 28.7874H187.349V31.0883H177.559V28.7874H181.162V27.0366H183.738V28.7874H183.728ZM183.178 32.2066C185.213 32.2066 186.891 33.7833 186.891 35.7358V41.4282C186.891 43.3716 185.213 44.9574 183.178 44.9574H181.675C179.64 44.9574 177.999 43.3807 178.008 41.4282V35.7358C178.008 33.7924 179.649 32.2066 181.684 32.2066H183.188H183.178ZM182.583 42.4916C183.518 42.4916 184.288 41.8866 184.288 40.8966V36.2674C184.288 35.2774 183.518 34.6541 182.583 34.6541H182.253C181.318 34.6541 180.548 35.2774 180.548 36.2674V40.8966C180.548 41.8866 181.318 42.4916 182.253 42.4916H182.583ZM192.244 45.049H189.65V27.6691H192.244V45.0399V45.049Z" fill="white"/>
<path d="M208.918 38.6047V42.6472H215.473V45.058H199.678V42.6472H206.196V38.6047H200.412V27.6689H203.263V31.3998H211.898V27.6781H214.748V38.6047H208.918V38.6047ZM211.898 36.1022V33.8839H203.263V36.1022H211.898Z" fill="white"/>
<path d="M223.438 30.2357H216.848V27.7699H226.326V30.2357L224.208 44.9481H221.376L223.438 30.2357V30.2357ZM231.991 45.0581H229.168V27.6782H232V45.0581H231.991Z" fill="white"/>
</g>
<defs>
<filter id="filter0_d_1028_280" x="0" y="0" width="364" height="80" filterUnits="userSpaceOnUse" color-interpolation-filters="sRGB">
<feFlood flood-opacity="0" result="BackgroundImageFix"/>
<feColorMatrix in="SourceAlpha" type="matrix" values="0 0 0 0 0 0 0 0 0 0 0 0 0 0 0 0 0 0 127 0" result="hardAlpha"/>
<feOffset dy="3"/>
<feGaussianBlur stdDeviation="5"/>
<feComposite in2="hardAlpha" operator="out"/>
<feColorMatrix type="matrix" values="0 0 0 0 0 0 0 0 0 0 0 0 0 0 0 0 0 0 0.3 0"/>
<feBlend mode="normal" in2="BackgroundImageFix" result="effect1_dropShadow_1028_280"/>
<feBlend mode="normal" in="SourceGraphic" in2="effect1_dropShadow_1028_280" result="shape"/>
</filter>
<clipPath id="clip0_1028_280">
<rect width="23.19" height="24.28" fill="white" transform="translate(306 24)"/>
</clipPath>
<clipPath id="clip1_1028_280">
<rect width="197" height="18.0583" fill="white" transform="translate(35 27)"/>
</clipPath>
</defs>
</svg>
