<svg width="364" height="80" viewBox="0 0 364 80" fill="none" xmlns="http://www.w3.org/2000/svg">
<g filter="url(#filter0_d_1028_379)">
<rect x="10" y="7" width="344" height="60" rx="12" fill="#B66F65"/>
<g clip-path="url(#clip0_1028_379)">
<path d="M329.19 36.13L328.44 34.79L322.47 24H319.12L325.04 34.79L306 34.78V37.49H325.04L319.12 48.28H322.47L328.44 37.49L329.19 36.15L329.17 36.14L329.19 36.13Z" fill="white"/>
</g>
</g>
<g clip-path="url(#clip1_1028_379)">
<path d="M49.8278 41.5522L49.13 44.9952H46.3848L47.1009 41.5522H35.9916V39.3946H41.583V38.3112H35V35.97H50.8194V38.3112H44.2364V39.3946H49.8278V41.5522V41.5522ZM43.1163 29.993H35.6794V27.6885H50.1399V29.8094L45.8523 31.4069L50.0114 32.8575V35.1529L42.6021 32.5913L35.6794 35.162V32.7106L43.1163 29.993Z" fill="white"/>
<path d="M63.5814 27.5966C65.9685 27.5966 67.869 29.6807 67.869 32.0679V40.5238C67.869 42.9293 65.9318 44.9951 63.5079 44.9951H62.6082C60.1017 44.9951 58.0818 43.0028 58.0818 40.5238V32.0587C58.0818 29.5706 60.1109 27.5874 62.6082 27.5874H63.5814V27.5966ZM62.6082 30.2041C61.5615 30.2041 60.6985 31.0304 60.6985 32.0587V40.5238C60.6985 41.5521 61.5615 42.3785 62.6082 42.3785H63.4345C64.4628 42.3785 65.2524 41.5154 65.2524 40.5238V32.0587C65.2524 31.0855 64.4628 30.2041 63.4712 30.2041H62.6082V30.2041ZM72.7902 44.9951H69.9624V27.5966H72.7994V44.9951H72.7902Z" fill="white"/>
<path d="M84.3402 32.0129V40.5882C84.3402 43.0488 82.2927 45.0044 79.7954 45.0044C77.2889 45.0044 75.269 43.0488 75.269 40.5882V32.0129C75.269 29.5431 77.2981 27.5967 79.7954 27.5967C82.2927 27.5967 84.3402 29.5431 84.3402 32.0129ZM77.8857 32.0129V40.5882C77.8857 41.5981 78.7488 42.4245 79.7954 42.4245C80.8604 42.4245 81.7051 41.5981 81.7051 40.5882V32.0129C81.7051 30.9846 80.8604 30.1583 79.7954 30.1583C78.7488 30.1583 77.8857 30.9846 77.8857 32.0129ZM86.8926 45.0044V27.6059H89.4909V30.8101H91.3638V33.3074H89.4909V36.1995H91.3638V38.6969H89.4909V45.0044H86.8926V45.0044Z" fill="white"/>
<path d="M98.6079 30.1584H92.0066V27.6978H101.5V30.1675L99.3792 44.9035H96.5421L98.6079 30.1675V30.1584ZM107.174 45.0045H104.346V27.606H107.183V45.0137L107.174 45.0045Z" fill="white"/>
<path d="M121.24 35.704L124.288 44.9587H121.433L119.78 39.6978L117.861 44.9587H114.932L120.221 30.2411H115.07V27.707H123.223V30.2503L121.231 35.7131L121.24 35.704ZM126.85 45.0138V27.6152H129.301V33.5555H131.174V35.9794H129.301V45.0138H126.85V45.0138Z" fill="white"/>
<path d="M137.326 44.9312L135.636 34.134L133.956 44.9312H131.385L134.415 27.6704H136.903L139.915 44.9221H137.335L137.326 44.9312ZM141.117 33.6015V27.6245H143.569V45.0231H141.117V36.0254H138.896V33.6015H141.127H141.117ZM147.333 45.0322H144.845V27.6245H147.333V45.0231V45.0322Z" fill="white"/>
<path d="M155.651 28.7444H159.278V31.0489H149.472V28.7444H153.081V27H155.661V28.7444H155.651ZM155.101 32.1691C157.139 32.1691 158.819 33.7482 158.819 35.7039V41.4054C158.819 43.3519 157.139 44.9402 155.101 44.9402H153.595C151.557 44.9402 149.913 43.3611 149.922 41.4054V35.7039C149.922 33.7574 151.566 32.1691 153.604 32.1782H155.11L155.101 32.1691ZM154.504 42.4705C155.44 42.4705 156.211 41.8645 156.211 40.8729V36.2364C156.211 35.2448 155.44 34.6205 154.504 34.6205H154.173C153.237 34.6205 152.466 35.2448 152.466 36.2364V40.8729C152.466 41.8645 153.237 42.4705 154.173 42.4705H154.504ZM164.181 45.0321H161.583V27.6243H164.181V45.0321Z" fill="white"/>
<path d="M180.872 38.5774V42.6263H187.437V45.041H171.618V42.6263H178.146V38.5774H172.352V27.6333H175.208V31.3701H183.856V27.6333H186.712V38.5866H180.872V38.5774ZM183.856 36.0709V33.849H175.208V36.0709H183.856Z" fill="white"/>
<path d="M195.425 30.195H188.823V27.7344H198.317V30.195L196.196 44.9309H193.359L195.425 30.195V30.195ZM203.991 45.0411H201.163V27.6426H204V45.0503L203.991 45.0411Z" fill="white"/>
</g>
<defs>
<filter id="filter0_d_1028_379" x="0" y="0" width="364" height="80" filterUnits="userSpaceOnUse" color-interpolation-filters="sRGB">
<feFlood flood-opacity="0" result="BackgroundImageFix"/>
<feColorMatrix in="SourceAlpha" type="matrix" values="0 0 0 0 0 0 0 0 0 0 0 0 0 0 0 0 0 0 127 0" result="hardAlpha"/>
<feOffset dy="3"/>
<feGaussianBlur stdDeviation="5"/>
<feComposite in2="hardAlpha" operator="out"/>
<feColorMatrix type="matrix" values="0 0 0 0 0 0 0 0 0 0 0 0 0 0 0 0 0 0 0.3 0"/>
<feBlend mode="normal" in2="BackgroundImageFix" result="effect1_dropShadow_1028_379"/>
<feBlend mode="normal" in="SourceGraphic" in2="effect1_dropShadow_1028_379" result="shape"/>
</filter>
<clipPath id="clip0_1028_379">
<rect width="23.19" height="24.28" fill="white" transform="translate(306 24)"/>
</clipPath>
<clipPath id="clip1_1028_379">
<rect width="169" height="18.0504" fill="white" transform="translate(35 27)"/>
</clipPath>
</defs>
</svg>
