<svg width="375" height="513" viewBox="0 0 375 513" fill="none" xmlns="http://www.w3.org/2000/svg">
<path d="M0 0H375V513H187.5H0V0Z" fill="#65B683"/>
<path d="M22.9964 139.552C24.1484 139.552 25.1244 138.608 25.1244 137.28C25.1244 135.936 24.1484 134.992 22.9964 134.992C21.8284 134.992 20.8684 135.936 20.8684 137.28C20.8684 138.608 21.8284 139.552 22.9964 139.552ZM46.088 128.688V143.344H47.768V128.688H46.088ZM39.976 129.776C37.8 129.776 36.216 131.776 36.216 134.928C36.216 138.08 37.8 140.096 39.976 140.096C42.168 140.096 43.752 138.08 43.752 134.928C43.752 131.776 42.168 129.776 39.976 129.776ZM39.976 131.296C41.256 131.296 42.136 132.656 42.136 134.928C42.136 137.216 41.256 138.592 39.976 138.592C38.696 138.592 37.816 137.216 37.816 134.928C37.816 132.656 38.696 131.296 39.976 131.296ZM53.5267 133.632V136.352H55.1908V133.632H53.5267ZM58.7908 133.632V136.352H60.4548V133.632H58.7908ZM50.3907 135.808V137.136H63.6068V135.808H50.3907ZM56.9827 138.08C53.8307 138.08 51.9427 139.024 51.9427 140.688C51.9427 142.368 53.8307 143.312 56.9827 143.312C60.1188 143.312 62.0227 142.368 62.0227 140.688C62.0227 139.024 60.1188 138.08 56.9827 138.08ZM56.9827 139.36C59.1267 139.36 60.3267 139.824 60.3267 140.688C60.3267 141.568 59.1267 142.032 56.9827 142.032C54.8387 142.032 53.6387 141.568 53.6387 140.688C53.6387 139.824 54.8387 139.36 56.9827 139.36ZM56.9988 128.944C53.7987 128.944 51.7987 129.984 51.7987 131.712C51.7987 133.44 53.7987 134.448 56.9988 134.448C60.1988 134.448 62.2148 133.44 62.2148 131.712C62.2148 129.984 60.1988 128.944 56.9988 128.944ZM56.9988 130.24C59.1908 130.24 60.4868 130.752 60.4868 131.712C60.4868 132.656 59.1908 133.168 56.9988 133.168C54.8228 133.168 53.5267 132.656 53.5267 131.712C53.5267 130.752 54.8228 130.24 56.9988 130.24ZM74.7255 128.688V143.312H76.4055V128.688H74.7255ZM75.9575 134.48V135.856H78.5975V134.48H75.9575ZM70.9335 130.24V130.528C70.9335 134.432 68.9975 137.36 65.0455 139.376L65.9895 140.656C70.7735 138.256 72.5815 134.496 72.5815 130.24H70.9335ZM65.7815 130.24V131.6H71.7975V130.24H65.7815ZM81.4763 132.576V133.92H91.4763V132.576H81.4763ZM81.4763 128.976V133.184H83.1403V128.976H81.4763ZM79.7483 135.424V136.768H92.9643V135.424H79.7483ZM86.3243 137.92C83.1883 137.92 81.2843 138.88 81.2843 140.608C81.2843 142.304 83.1883 143.28 86.3243 143.28C89.4603 143.28 91.3643 142.304 91.3643 140.608C91.3643 138.88 89.4603 137.92 86.3243 137.92ZM86.3243 139.216C88.4683 139.216 89.6683 139.68 89.6683 140.608C89.6683 141.488 88.4683 141.984 86.3243 141.984C84.1803 141.984 82.9803 141.488 82.9803 140.608C82.9803 139.68 84.1803 139.216 86.3243 139.216ZM105.299 128.704V143.328H106.899V128.704H105.299ZM103.219 134.4V135.76H105.859V134.4H103.219ZM102.067 128.976V142.624H103.651V128.976H102.067ZM94.883 130.304V139.52H100.547V130.304H94.883ZM98.979 131.632V138.208H96.451V131.632H98.979ZM112.53 130.304V131.36C112.53 133.36 111.25 135.248 108.962 136.032L109.794 137.36C112.418 136.464 113.906 134.096 113.906 131.36V130.304H112.53ZM112.85 130.304V131.36C112.85 133.888 114.274 136.064 116.866 136.896L117.666 135.584C115.426 134.864 114.21 133.168 114.21 131.36V130.304H112.85ZM109.426 129.744V131.088H117.282V129.744H109.426ZM118.818 128.704V137.456H120.498V128.704H118.818ZM120.034 132.256V133.648H122.562V132.256H120.034ZM115.794 137.792C112.786 137.792 110.914 138.816 110.914 140.544C110.914 142.288 112.786 143.312 115.794 143.312C118.786 143.312 120.658 142.288 120.658 140.544C120.658 138.816 118.786 137.792 115.794 137.792ZM115.794 139.12C117.826 139.12 118.994 139.616 118.994 140.544C118.994 141.488 117.826 142 115.794 142C113.762 142 112.578 141.488 112.578 140.544C112.578 139.616 113.762 139.12 115.794 139.12ZM129.648 134.256V135.616H132.24V134.256H129.648ZM134.64 128.704V143.328H136.24V128.704H134.64ZM131.696 128.976V142.624H133.28V128.976H131.696ZM127.04 129.84C125.136 129.84 123.904 131.824 123.904 135.024C123.904 138.24 125.136 140.224 127.04 140.224C128.96 140.224 130.192 138.24 130.192 135.024C130.192 131.824 128.96 129.84 127.04 129.84ZM127.04 131.408C128.048 131.408 128.656 132.72 128.656 135.024C128.656 137.328 128.048 138.64 127.04 138.64C126.048 138.64 125.44 137.328 125.44 135.024C125.44 132.72 126.048 131.408 127.04 131.408ZM145.759 133.488V134.848H149.727V133.488H145.759ZM142.031 129.904V132.304C142.031 135.04 140.623 137.856 138.319 138.96L139.375 140.304C141.887 139.008 143.391 135.744 143.391 132.304V129.904H142.031ZM142.367 129.904V132.304C142.367 135.696 143.823 138.784 146.351 140.048L147.359 138.704C145.103 137.664 143.711 135.008 143.711 132.304V129.904H142.367ZM148.895 128.688V143.344H150.559V128.688H148.895ZM164.424 132.624V133.984H167.992V132.624H164.424ZM167.08 128.72V139.408H168.76V128.72H167.08ZM159.288 141.68V143.04H169.128V141.68H159.288ZM159.288 138.48V142.432H160.952V138.48H159.288ZM160.216 130.576V131.632C160.216 133.616 158.904 135.536 156.632 136.32L157.48 137.664C160.088 136.736 161.576 134.336 161.576 131.632V130.576H160.216ZM160.552 130.576V131.632C160.552 134.16 161.976 136.464 164.504 137.344L165.336 136.032C163.144 135.264 161.896 133.44 161.896 131.632V130.576H160.552ZM157.112 129.808V131.152H164.952V129.808H157.112ZM174.919 137.392V139.76H176.599V137.392H174.919ZM181.063 128.704V143.328H182.743V128.704H181.063ZM182.183 134.8V136.192H184.823V134.8H182.183ZM171.367 140.704C173.879 140.704 177.255 140.688 180.375 140.112L180.247 138.88C177.255 139.312 173.719 139.328 171.143 139.328L171.367 140.704ZM171.399 130.4V131.728H180.087V130.4H171.399ZM175.751 132.464C173.687 132.464 172.263 133.552 172.263 135.184C172.263 136.832 173.687 137.904 175.751 137.904C177.815 137.904 179.255 136.832 179.255 135.184C179.255 133.552 177.815 132.464 175.751 132.464ZM175.751 133.744C176.903 133.744 177.671 134.304 177.671 135.184C177.671 136.08 176.903 136.624 175.751 136.624C174.599 136.624 173.847 136.08 173.847 135.184C173.847 134.304 174.599 133.744 175.751 133.744ZM174.919 128.752V131.344H176.599V128.752H174.919ZM185.989 140.24V141.616H199.237V140.24H185.989ZM191.749 137.264V140.8H193.413V137.264H191.749ZM187.541 129.728V131.072H195.989V133.024H187.573V137.072H189.237V134.352H197.653V129.728H187.541ZM187.573 136.384V137.744H197.989V136.384H187.573ZM204.67 130.048V139.76H210.334V130.048H208.782V133.488H206.254V130.048H204.67ZM206.254 134.816H208.782V138.4H206.254V134.816ZM215.086 128.704V143.328H216.686V128.704H215.086ZM212.974 134.4V135.76H215.614V134.4H212.974ZM211.854 128.976V142.624H213.438V128.976H211.854ZM219.453 134.24V135.584H220.621C223.677 135.584 225.453 135.504 227.437 135.072L227.245 133.76C225.309 134.144 223.613 134.24 220.621 134.24H219.453ZM219.453 129.504V135.008H221.117V130.832H225.949V129.504H219.453ZM228.605 128.704V136.016H230.285V128.704H228.605ZM229.821 131.632V133.008H232.349V131.632H229.821ZM220.845 136.704V138.032H228.637V139.248H220.861V142.528H222.525V140.496H230.285V136.704H220.845ZM220.861 141.808V143.152H230.765V141.808H220.861ZM242.741 130.224V130.768C242.741 132.496 240.661 134.16 237.797 134.544L238.437 135.856C241.717 135.36 244.197 133.36 244.197 130.768V130.224H242.741ZM243.205 130.224V130.768C243.205 133.36 245.669 135.36 248.965 135.856L249.589 134.544C246.741 134.16 244.645 132.496 244.645 130.768V130.224H243.205ZM242.821 137.856V143.328H244.485V137.856H242.821ZM237.093 136.912V138.272H250.309V136.912H237.093ZM238.293 129.536V130.88H249.061V129.536H238.293ZM251.748 136.064V137.408H264.996V136.064H251.748ZM257.668 136.912V140.144H259.332V136.912H257.668ZM253.412 129.36V134.624H263.284V129.36H253.412ZM261.636 130.688V133.296H255.06V130.688H261.636ZM253.364 141.68V143.04H263.524V141.68H253.364ZM253.364 138.816V142.144H255.028V138.816H253.364ZM276.787 128.688V143.344H278.467V128.688H276.787ZM270.675 129.776C268.499 129.776 266.915 131.776 266.915 134.928C266.915 138.08 268.499 140.096 270.675 140.096C272.867 140.096 274.451 138.08 274.451 134.928C274.451 131.776 272.867 129.776 270.675 129.776ZM270.675 131.296C271.955 131.296 272.835 132.656 272.835 134.928C272.835 137.216 271.955 138.592 270.675 138.592C269.395 138.592 268.515 137.216 268.515 134.928C268.515 132.656 269.395 131.296 270.675 131.296ZM294.299 128.688V143.312H295.979V128.688H294.299ZM295.531 134.48V135.856H298.171V134.48H295.531ZM290.507 130.24V130.528C290.507 134.432 288.571 137.36 284.619 139.376L285.563 140.656C290.347 138.256 292.155 134.496 292.155 130.24H290.507ZM285.355 130.24V131.6H291.371V130.24H285.355ZM301.05 132.576V133.92H311.05V132.576H301.05ZM301.05 128.976V133.184H302.714V128.976H301.05ZM299.322 135.424V136.768H312.538V135.424H299.322ZM305.898 137.92C302.762 137.92 300.858 138.88 300.858 140.608C300.858 142.304 302.762 143.28 305.898 143.28C309.034 143.28 310.938 142.304 310.938 140.608C310.938 138.88 309.034 137.92 305.898 137.92ZM305.898 139.216C308.042 139.216 309.242 139.68 309.242 140.608C309.242 141.488 308.042 141.984 305.898 141.984C303.754 141.984 302.554 141.488 302.554 140.608C302.554 139.68 303.754 139.216 305.898 139.216ZM323.721 128.704V137.232H325.401V128.704H323.721ZM324.713 132.336V133.728H327.465V132.336H324.713ZM316.073 137.84V143.152H325.401V137.84H323.737V139.184H317.721V137.84H316.073ZM317.721 140.464H323.737V141.824H317.721V140.464ZM314.009 130.096V131.44H322.617V130.096H314.009ZM318.313 131.984C316.201 131.984 314.761 133.008 314.761 134.56C314.761 136.112 316.201 137.136 318.313 137.136C320.409 137.136 321.849 136.112 321.849 134.56C321.849 133.008 320.409 131.984 318.313 131.984ZM318.313 133.232C319.465 133.232 320.249 133.744 320.249 134.56C320.249 135.392 319.465 135.904 318.313 135.904C317.161 135.904 316.377 135.392 316.377 134.56C316.377 133.744 317.161 133.232 318.313 133.232ZM317.481 128.576V130.832H319.145V128.576H317.481ZM339.063 128.704V143.328H340.727V128.704H339.063ZM329.511 130.112V139.184H331.175V130.112H329.511ZM329.511 138.192V139.632H330.759C333.031 139.632 335.383 139.472 337.911 138.944L337.719 137.536C335.271 138.032 332.935 138.192 330.759 138.192H329.511ZM352.982 128.688V143.344H354.662V128.688H352.982ZM354.278 134.304V135.696H356.934V134.304H354.278ZM343.926 138.368V139.76H345.11C347.766 139.76 349.718 139.68 351.958 139.28L351.782 137.872C349.622 138.272 347.702 138.368 345.11 138.368H343.926ZM343.926 130.08V139.008H345.59V131.44H350.726V130.08H343.926ZM359.653 142.224C360.341 142.224 360.885 141.68 360.885 140.928C360.885 140.16 360.341 139.632 359.653 139.632C358.949 139.632 358.421 140.16 358.421 140.928C358.421 141.68 358.949 142.224 359.653 142.224ZM22.9964 175.552C24.1484 175.552 25.1244 174.608 25.1244 173.28C25.1244 171.936 24.1484 170.992 22.9964 170.992C21.8284 170.992 20.8684 171.936 20.8684 173.28C20.8684 174.608 21.8284 175.552 22.9964 175.552ZM41.464 165.184V165.936C41.464 167.856 39.288 169.68 36.328 170.096L36.984 171.456C40.36 170.912 42.936 168.736 42.936 165.936V165.184H41.464ZM41.768 165.184V165.936C41.768 168.72 44.344 170.912 47.72 171.456L48.376 170.096C45.416 169.68 43.224 167.824 43.224 165.936V165.184H41.768ZM41.464 173.856V179.328H43.128V173.856H41.464ZM35.736 172.8V174.176H48.952V172.8H35.736ZM60.8387 164.704V179.328H62.5028V164.704H60.8387ZM57.6868 170.448V171.824H61.6228V170.448H57.6868ZM56.1027 166.256V166.544C56.1027 170.384 54.5187 173.28 50.3267 175.36L51.2227 176.672C56.1667 174.192 57.7507 170.544 57.7507 166.256H56.1027ZM50.9827 166.256V167.6H56.9827V166.256H50.9827ZM69.3752 165.616V171.68H76.3032V165.616H69.3752ZM74.6712 166.944V170.368H71.0072V166.944H74.6712ZM78.9912 164.704V173.056H80.6712V164.704H78.9912ZM75.0392 174.848V175.088C75.0392 176.368 73.1192 177.728 70.2872 178.016L70.8312 179.28C74.1432 178.912 76.4792 177.184 76.4792 175.088V174.848H75.0392ZM75.3112 174.848V175.088C75.3112 177.12 77.6152 178.912 80.9272 179.28L81.4872 178.016C78.6712 177.712 76.7672 176.32 76.7672 175.088V174.848H75.3112ZM70.8632 173.952V175.232H80.9432V173.952H70.8632ZM75.0552 172.64V174.544H76.7672V172.64H75.0552ZM92.5838 169.792V171.168H95.2238V169.792H92.5838ZM89.6878 166.032V168.672C89.6878 171.168 88.6798 173.776 86.6158 175.024L87.6398 176.288C89.8638 174.928 90.9838 171.84 90.9838 168.672V166.032H89.6878ZM90.0398 166.032V168.608C90.0398 171.584 91.0158 174.608 93.2078 175.968L94.1518 174.656C92.1998 173.424 91.3038 170.96 91.3038 168.608V166.032H90.0398ZM97.7198 164.704V179.328H99.3198V164.704H97.7198ZM94.7438 164.976V178.624H96.3118V164.976H94.7438ZM109.238 168.848V170.224H112.262V168.848H109.238ZM103.766 174.288V175.648H111.942V179.344H113.622V174.288H103.766ZM111.942 164.704V173.584H113.622V164.704H111.942ZM104.982 167.344V167.92C104.982 169.76 103.718 171.504 101.478 172.208L102.278 173.52C104.87 172.688 106.342 170.496 106.342 167.92V167.344H104.982ZM105.286 167.344V167.92C105.286 170.368 106.806 172.48 109.414 173.264L110.182 171.952C107.942 171.296 106.662 169.648 106.662 167.92V167.344H105.286ZM101.91 166.368V167.696H109.734V166.368H101.91ZM104.982 164.64V166.992H106.662V164.64H104.982ZM116.165 172.288V173.632H129.381V172.288H116.165ZM117.829 177.68V179.04H127.909V177.68H117.829ZM117.829 174.784V178.096H119.509V174.784H117.829ZM122.773 165.168C119.621 165.168 117.573 166.288 117.573 168.128C117.573 169.968 119.621 171.088 122.773 171.088C125.925 171.088 127.989 169.968 127.989 168.128C127.989 166.288 125.925 165.168 122.773 165.168ZM122.773 166.512C124.933 166.512 126.261 167.104 126.261 168.128C126.261 169.168 124.933 169.744 122.773 169.744C120.629 169.744 119.301 169.168 119.301 168.128C119.301 167.104 120.629 166.512 122.773 166.512ZM144.046 164.688V179.344H145.726V164.688H144.046ZM145.342 170.304V171.696H147.998V170.304H145.342ZM134.99 174.368V175.76H136.174C138.83 175.76 140.782 175.68 143.022 175.28L142.846 173.872C140.686 174.272 138.766 174.368 136.174 174.368H134.99ZM134.99 166.08V175.008H136.654V167.44H141.79V166.08H134.99ZM153.021 173.52V175.92H154.701V173.52H153.021ZM159.421 164.704V179.328H161.101V164.704H159.421ZM149.357 176.704C151.997 176.704 155.469 176.672 158.685 176.112L158.573 174.88C155.453 175.296 151.853 175.312 149.149 175.328L149.357 176.704ZM149.437 166.416V167.744H158.285V166.416H149.437ZM153.853 168.464C151.741 168.464 150.285 169.552 150.285 171.184C150.285 172.832 151.741 173.904 153.853 173.904C155.981 173.904 157.437 172.832 157.437 171.184C157.437 169.552 155.981 168.464 153.853 168.464ZM153.853 169.744C155.021 169.744 155.837 170.304 155.837 171.184C155.837 172.08 155.021 172.624 153.853 172.624C152.701 172.624 151.885 172.08 151.885 171.184C151.885 170.304 152.701 169.744 153.853 169.744ZM153.021 164.736V167.168H154.701V164.736H153.021ZM166.859 169.632V172.352H168.523V169.632H166.859ZM172.123 169.632V172.352H173.787V169.632H172.123ZM163.723 171.808V173.136H176.939V171.808H163.723ZM170.315 174.08C167.163 174.08 165.275 175.024 165.275 176.688C165.275 178.368 167.163 179.312 170.315 179.312C173.451 179.312 175.355 178.368 175.355 176.688C175.355 175.024 173.451 174.08 170.315 174.08ZM170.315 175.36C172.459 175.36 173.659 175.824 173.659 176.688C173.659 177.568 172.459 178.032 170.315 178.032C168.171 178.032 166.971 177.568 166.971 176.688C166.971 175.824 168.171 175.36 170.315 175.36ZM170.331 164.944C167.131 164.944 165.131 165.984 165.131 167.712C165.131 169.44 167.131 170.448 170.331 170.448C173.531 170.448 175.547 169.44 175.547 167.712C175.547 165.984 173.531 164.944 170.331 164.944ZM170.331 166.24C172.523 166.24 173.819 166.752 173.819 167.712C173.819 168.656 172.523 169.168 170.331 169.168C168.155 169.168 166.859 168.656 166.859 167.712C166.859 166.752 168.155 166.24 170.331 166.24ZM188.794 164.704V179.328H190.474V164.704H188.794ZM184.506 166.256V166.544C184.506 170.448 182.73 173.344 178.522 175.376L179.402 176.72C184.426 174.272 186.154 170.592 186.154 166.256H184.506ZM179.242 166.256V167.6H185.258V166.256H179.242ZM204.403 168.624V169.984H207.971V168.624H204.403ZM207.059 164.72V175.408H208.739V164.72H207.059ZM199.267 177.68V179.04H209.107V177.68H199.267ZM199.267 174.48V178.432H200.931V174.48H199.267ZM200.195 166.576V167.632C200.195 169.616 198.883 171.536 196.611 172.32L197.459 173.664C200.067 172.736 201.555 170.336 201.555 167.632V166.576H200.195ZM200.531 166.576V167.632C200.531 170.16 201.955 172.464 204.483 173.344L205.315 172.032C203.123 171.264 201.875 169.44 201.875 167.632V166.576H200.531ZM197.091 165.808V167.152H204.931V165.808H197.091ZM211.281 172.064V173.408H224.529V172.064H211.281ZM217.201 172.912V176.144H218.865V172.912H217.201ZM212.945 165.36V170.624H222.817V165.36H212.945ZM221.169 166.688V169.296H214.593V166.688H221.169ZM212.897 177.68V179.04H223.057V177.68H212.897ZM212.897 174.816V178.144H214.561V174.816H212.897ZM233.328 168.08V169.44H237.136V168.08H233.328ZM229.968 165.344C227.776 165.344 226.16 166.768 226.16 168.784C226.16 170.8 227.776 172.208 229.968 172.208C232.16 172.208 233.776 170.8 233.776 168.784C233.776 166.768 232.16 165.344 229.968 165.344ZM229.968 166.752C231.248 166.752 232.16 167.552 232.16 168.784C232.16 170 231.248 170.816 229.968 170.816C228.688 170.816 227.76 170 227.76 168.784C227.76 167.552 228.688 166.752 229.968 166.752ZM236.4 164.704V172.56H238.08V164.704H236.4ZM228.56 173.248V179.152H238.08V173.248H236.416V174.88H230.224V173.248H228.56ZM230.224 176.192H236.416V177.808H230.224V176.192ZM246.591 170.368V171.744H249.151V170.368H246.591ZM243.423 168.592V169.184C243.423 171.504 242.463 174 240.447 175.184L241.407 176.448C243.631 175.136 244.703 172.144 244.703 169.184V168.592H243.423ZM243.743 168.592V169.184C243.743 172.08 244.847 174.896 247.087 176.112L248.015 174.864C245.999 173.776 245.023 171.456 245.023 169.184V168.592H243.743ZM240.911 167.296V168.656H247.519V167.296H240.911ZM243.423 165.216V168.368H245.023V165.216H243.423ZM251.503 164.704V179.328H253.103V164.704H251.503ZM248.559 164.992V178.608H250.127V164.992H248.559ZM260.439 170.8C261.063 170.8 261.511 170.368 261.511 169.664C261.511 169.008 261.015 168.624 260.439 168.624C260.119 168.624 259.879 168.752 259.639 168.96L260.439 169.984L260.263 168.672C260.263 167.616 260.743 166.976 261.719 166.4L261.239 165.552C259.847 166.32 259.111 167.424 259.111 168.944C259.111 170.128 259.591 170.8 260.439 170.8ZM264.965 166.16V167.504H274.309V166.16H264.965ZM263.573 175.92V177.296H276.789V175.92H263.573ZM273.413 166.16V167.744C273.413 169.632 273.413 171.776 272.853 174.672L274.533 174.832C275.077 171.744 275.077 169.696 275.077 167.744V166.16H273.413ZM288.628 164.688V179.344H290.308V164.688H288.628ZM279.06 174.496V175.872H280.308C282.884 175.872 285.06 175.776 287.588 175.344L287.412 173.984C284.948 174.4 282.82 174.496 280.308 174.496H279.06ZM279.028 166V167.36H284.148V170.08H279.06V175.008H280.756V171.424H285.844V166H279.028ZM294.466 171.184V172.544H304.69V171.184H294.466ZM292.914 176.192V177.552H306.162V176.192H292.914ZM298.674 172V176.592H300.354V172H298.674ZM294.466 165.888V171.776H296.146V165.888H294.466ZM309.297 167.936V169.28H319.281V167.936H309.297ZM307.569 170.496V171.84H320.817V170.496H307.569ZM309.297 164.896V168.608H310.945V164.896H309.297ZM309.153 172.96V174.24H317.521V175.376H309.169V178.208H310.849V176.592H319.185V172.96H309.153ZM309.169 177.856V179.152H319.649V177.856H309.169ZM323.152 170.704C324.56 169.936 325.28 168.816 325.28 167.296C325.28 166.128 324.816 165.456 323.968 165.456C323.328 165.456 322.88 165.872 322.88 166.576C322.88 167.248 323.392 167.632 323.968 167.632C324.272 167.632 324.512 167.504 324.752 167.28L323.952 166.288L324.128 167.584C324.128 168.64 323.648 169.28 322.688 169.872L323.152 170.704ZM332.861 170.256V171.616H335.453V170.256H332.861ZM337.853 164.704V179.328H339.453V164.704H337.853ZM334.909 164.976V178.624H336.493V164.976H334.909ZM330.253 165.84C328.349 165.84 327.117 167.824 327.117 171.024C327.117 174.24 328.349 176.224 330.253 176.224C332.173 176.224 333.405 174.24 333.405 171.024C333.405 167.824 332.173 165.84 330.253 165.84ZM330.253 167.408C331.261 167.408 331.869 168.72 331.869 171.024C331.869 173.328 331.261 174.64 330.253 174.64C329.261 174.64 328.653 173.328 328.653 171.024C328.653 168.72 329.261 167.408 330.253 167.408ZM348.972 169.488V170.848H352.94V169.488H348.972ZM345.244 165.904V168.304C345.244 171.04 343.836 173.856 341.532 174.96L342.588 176.304C345.1 175.008 346.604 171.744 346.604 168.304V165.904H345.244ZM345.58 165.904V168.304C345.58 171.696 347.036 174.784 349.564 176.048L350.572 174.704C348.316 173.664 346.924 171.008 346.924 168.304V165.904H345.58ZM352.108 164.688V179.344H353.772V164.688H352.108ZM39.464 202.32V203.696C39.464 205.664 38.168 207.568 35.864 208.352L36.728 209.664C39.336 208.768 40.856 206.416 40.856 203.696V202.32H39.464ZM39.8 202.32V203.696C39.8 206.304 41.32 208.544 43.896 209.392L44.744 208.08C42.488 207.344 41.176 205.568 41.176 203.696V202.32H39.8ZM36.312 201.84V203.184H44.296V201.84H36.312ZM46.104 200.72V211.344H47.784V200.72H46.104ZM38.232 213.68V215.04H48.2V213.68H38.232ZM38.232 210.368V214.32H39.912V210.368H38.232ZM61.1908 200.704V209.92H62.7748V200.704H61.1908ZM59.0627 204.512V205.888H61.6388V204.512H59.0627ZM58.1027 200.992V209.408H59.6707V200.992H58.1027ZM50.3267 202.336V203.648H57.5908V202.336H50.3267ZM53.9748 204.272C52.1507 204.272 50.8387 205.296 50.8387 206.8C50.8387 208.32 52.1507 209.328 53.9748 209.328C55.8147 209.328 57.1108 208.32 57.1108 206.8C57.1108 205.296 55.8147 204.272 53.9748 204.272ZM53.9748 205.504C54.9507 205.504 55.6068 206 55.6068 206.8C55.6068 207.616 54.9507 208.112 53.9748 208.112C52.9987 208.112 52.3427 207.616 52.3427 206.8C52.3427 206 52.9987 205.504 53.9748 205.504ZM53.1427 200.832V203.168H54.7908V200.832H53.1427ZM57.9108 210.128C54.8228 210.128 52.9667 211.056 52.9667 212.72C52.9667 214.368 54.8228 215.312 57.9108 215.312C60.9987 215.312 62.8548 214.368 62.8548 212.72C62.8548 211.056 60.9987 210.128 57.9108 210.128ZM57.9108 211.392C60.0068 211.392 61.1748 211.84 61.1748 212.72C61.1748 213.584 60.0068 214.048 57.9108 214.048C55.7987 214.048 54.6307 213.584 54.6307 212.72C54.6307 211.84 55.7987 211.392 57.9108 211.392ZM74.8055 200.704V209.232H76.4855V200.704H74.8055ZM75.7975 204.336V205.728H78.5495V204.336H75.7975ZM67.1575 209.84V215.152H76.4855V209.84H74.8215V211.184H68.8055V209.84H67.1575ZM68.8055 212.464H74.8215V213.824H68.8055V212.464ZM65.0935 202.096V203.44H73.7015V202.096H65.0935ZM69.3975 203.984C67.2855 203.984 65.8455 205.008 65.8455 206.56C65.8455 208.112 67.2855 209.136 69.3975 209.136C71.4935 209.136 72.9335 208.112 72.9335 206.56C72.9335 205.008 71.4935 203.984 69.3975 203.984ZM69.3975 205.232C70.5495 205.232 71.3335 205.744 71.3335 206.56C71.3335 207.392 70.5495 207.904 69.3975 207.904C68.2455 207.904 67.4615 207.392 67.4615 206.56C67.4615 205.744 68.2455 205.232 69.3975 205.232ZM68.5655 200.576V202.832H70.2295V200.576H68.5655ZM90.1483 200.704V215.328H91.8123V200.704H90.1483ZM80.5963 202.112V211.184H82.2603V202.112H80.5963ZM80.5963 210.192V211.632H81.8443C84.1163 211.632 86.4683 211.472 88.9963 210.944L88.8043 209.536C86.3563 210.032 84.0203 210.192 81.8443 210.192H80.5963ZM104.067 200.688V215.344H105.747V200.688H104.067ZM105.363 206.304V207.696H108.019V206.304H105.363ZM95.011 210.368V211.76H96.195C98.851 211.76 100.803 211.68 103.043 211.28L102.867 209.872C100.707 210.272 98.787 210.368 96.195 210.368H95.011ZM95.011 202.08V211.008H96.675V203.44H101.811V202.08H95.011ZM110.738 214.224C111.426 214.224 111.97 213.68 111.97 212.928C111.97 212.16 111.426 211.632 110.738 211.632C110.034 211.632 109.506 212.16 109.506 212.928C109.506 213.68 110.034 214.224 110.738 214.224ZM22.9964 247.552C24.1484 247.552 25.1244 246.608 25.1244 245.28C25.1244 243.936 24.1484 242.992 22.9964 242.992C21.8284 242.992 20.8684 243.936 20.8684 245.28C20.8684 246.608 21.8284 247.552 22.9964 247.552ZM38.856 241.632V244.352H40.52V241.632H38.856ZM44.12 241.632V244.352H45.784V241.632H44.12ZM35.72 243.808V245.136H48.936V243.808H35.72ZM42.312 246.08C39.16 246.08 37.272 247.024 37.272 248.688C37.272 250.368 39.16 251.312 42.312 251.312C45.448 251.312 47.352 250.368 47.352 248.688C47.352 247.024 45.448 246.08 42.312 246.08ZM42.312 247.36C44.456 247.36 45.656 247.824 45.656 248.688C45.656 249.568 44.456 250.032 42.312 250.032C40.168 250.032 38.968 249.568 38.968 248.688C38.968 247.824 40.168 247.36 42.312 247.36ZM42.328 236.944C39.128 236.944 37.128 237.984 37.128 239.712C37.128 241.44 39.128 242.448 42.328 242.448C45.528 242.448 47.544 241.44 47.544 239.712C47.544 237.984 45.528 236.944 42.328 236.944ZM42.328 238.24C44.52 238.24 45.816 238.752 45.816 239.712C45.816 240.656 44.52 241.168 42.328 241.168C40.152 241.168 38.856 240.656 38.856 239.712C38.856 238.752 40.152 238.24 42.328 238.24ZM60.7908 236.704V251.328H62.4707V236.704H60.7908ZM56.5027 238.256V238.544C56.5027 242.448 54.7267 245.344 50.5187 247.376L51.3987 248.72C56.4227 246.272 58.1508 242.592 58.1508 238.256H56.5027ZM51.2387 238.256V239.6H57.2548V238.256H51.2387ZM66.7895 240.896V242.24H76.8055V240.896H66.7895ZM65.0615 244V245.36H78.3095V244H65.0615ZM66.7895 237.232V241.568H68.4535V237.232H66.7895ZM66.6775 249.632V250.992H76.8855V249.632H66.6775ZM66.6775 246.688V250H68.3415V246.688H66.6775ZM89.038 241.792V243.168H91.678V241.792H89.038ZM86.142 238.032V240.672C86.142 243.168 85.134 245.776 83.07 247.024L84.094 248.288C86.318 246.928 87.438 243.84 87.438 240.672V238.032H86.142ZM86.494 238.032V240.608C86.494 243.584 87.47 246.608 89.662 247.968L90.606 246.656C88.654 245.424 87.758 242.96 87.758 240.608V238.032H86.494ZM94.174 236.704V251.328H95.774V236.704H94.174ZM91.198 236.976V250.624H92.766V236.976H91.198ZM105.693 240.848V242.224H108.717V240.848H105.693ZM100.221 246.288V247.648H108.397V251.344H110.077V246.288H100.221ZM108.397 236.704V245.584H110.077V236.704H108.397ZM101.437 239.344V239.92C101.437 241.76 100.173 243.504 97.9328 244.208L98.7328 245.52C101.325 244.688 102.797 242.496 102.797 239.92V239.344H101.437ZM101.741 239.344V239.92C101.741 242.368 103.261 244.48 105.869 245.264L106.637 243.952C104.397 243.296 103.117 241.648 103.117 239.92V239.344H101.741ZM98.3648 238.368V239.696H106.189V238.368H98.3648ZM101.437 236.64V238.992H103.117V236.64H101.437ZM122.299 236.704V251.328H123.963V236.704H122.299ZM123.579 242.576V243.968H126.235V242.576H123.579ZM112.555 238.96V240.304H121.131V238.96H112.555ZM116.891 241.36C114.795 241.36 113.259 242.768 113.259 244.768C113.259 246.784 114.795 248.192 116.891 248.192C118.971 248.192 120.507 246.784 120.507 244.768C120.507 242.768 118.971 241.36 116.891 241.36ZM116.891 242.736C118.059 242.736 118.907 243.536 118.907 244.768C118.907 246 118.059 246.816 116.891 246.816C115.707 246.816 114.859 246 114.859 244.768C114.859 243.536 115.707 242.736 116.891 242.736ZM116.027 236.912V239.52H117.707V236.912H116.027ZM137.674 236.704V244.192H139.354V236.704H137.674ZM129.77 244.896V246.192H137.69V247.376H129.802V250.368H131.434V248.608H139.354V244.896H129.77ZM129.802 249.872V251.2H139.786V249.872H129.802ZM130.938 237.088V238.192C130.938 240.16 129.626 242.064 127.322 242.816L128.138 244.144C130.778 243.264 132.33 240.896 132.33 238.192V237.088H130.938ZM131.258 237.088V238.192C131.258 240.816 132.778 243.04 135.386 243.872L136.202 242.56C133.946 241.872 132.634 240.096 132.634 238.192V237.088H131.258ZM155.907 236.704V244.24H157.603V236.704H155.907ZM147.907 244.896V246.208H155.939V247.376H147.939V250.608H149.587V248.608H157.603V244.896H147.907ZM147.939 249.872V251.2H158.067V249.872H147.939ZM146.163 237.648V238.96H154.019V237.648H146.163ZM145.939 243.856C148.483 243.84 151.843 243.76 154.739 243.296L154.643 242.096C151.811 242.448 148.355 242.496 145.763 242.496L145.939 243.856ZM147.475 238.24V243.136H149.075V238.24H147.475ZM151.075 238.24V243.136H152.707V238.24H151.075ZM163.282 244.192V248.432H164.946V244.192H163.282ZM168.642 244.192V248.432H170.322V244.192H168.642ZM160.194 248.16V249.536H173.442V248.16H160.194ZM166.786 237.536C163.666 237.536 161.41 239.04 161.41 241.376C161.41 243.696 163.666 245.2 166.786 245.2C169.906 245.2 172.162 243.696 172.162 241.376C172.162 239.04 169.906 237.536 166.786 237.536ZM166.786 238.848C168.994 238.848 170.53 239.824 170.53 241.376C170.53 242.912 168.994 243.888 166.786 243.888C164.578 243.888 163.042 242.912 163.042 241.376C163.042 239.824 164.578 238.848 166.786 238.848ZM180.042 245.28V251.152H185.226V245.28H183.674V246.928H181.61V245.28H180.042ZM181.61 248.16H183.674V249.872H181.61V248.16ZM187.802 245.168V246.336C187.802 247.776 186.986 249.296 185.226 250.016L186.058 251.28C188.138 250.432 189.082 248.384 189.082 246.336V245.168H187.802ZM188.17 245.168V246.336C188.17 248.512 189.082 250.464 191.194 251.28L192.042 250.016C190.266 249.376 189.466 247.872 189.466 246.336V245.168H188.17ZM185.77 240V241.376H189.578V240H185.77ZM182.41 237.312C180.218 237.312 178.602 238.704 178.602 240.704C178.602 242.72 180.218 244.112 182.41 244.112C184.602 244.112 186.218 242.72 186.218 240.704C186.218 238.704 184.602 237.312 182.41 237.312ZM182.41 238.688C183.69 238.688 184.602 239.488 184.602 240.704C184.602 241.92 183.69 242.736 182.41 242.736C181.13 242.736 180.202 241.92 180.202 240.704C180.202 239.488 181.13 238.688 182.41 238.688ZM188.842 236.704V244.448H190.522V236.704H188.842ZM203.433 236.688V251.344H205.113V236.688H203.433ZM197.321 237.776C195.145 237.776 193.561 239.776 193.561 242.928C193.561 246.08 195.145 248.096 197.321 248.096C199.513 248.096 201.097 246.08 201.097 242.928C201.097 239.776 199.513 237.776 197.321 237.776ZM197.321 239.296C198.601 239.296 199.481 240.656 199.481 242.928C199.481 245.216 198.601 246.592 197.321 246.592C196.041 246.592 195.161 245.216 195.161 242.928C195.161 240.656 196.041 239.296 197.321 239.296ZM208.264 253.216C209.928 252.592 210.904 251.296 210.904 249.6C210.904 248.368 210.376 247.632 209.48 247.632C208.776 247.632 208.184 248.08 208.184 248.816C208.184 249.568 208.776 250 209.432 250C209.736 250 210.024 249.904 210.248 249.664L209.48 248.464L209.608 249.936C209.608 250.896 208.968 251.712 207.864 252.176L208.264 253.216ZM217.407 238.16V239.504H226.751V238.16H217.407ZM216.015 247.92V249.296H229.231V247.92H216.015ZM225.855 238.16V239.744C225.855 241.632 225.855 243.776 225.295 246.672L226.975 246.832C227.519 243.744 227.519 241.696 227.519 239.744V238.16H225.855ZM241.55 236.704V251.328H243.15V236.704H241.55ZM239.31 242.464V243.824H241.95V242.464H239.31ZM238.254 236.992V250.608H239.806V236.992H238.254ZM231.15 246.464V247.856H232.142C234.19 247.856 235.694 247.792 237.454 247.44L237.31 246.064C235.598 246.4 234.126 246.464 232.142 246.464H231.15ZM231.15 238.448V247.12H232.814V239.808H236.574V238.448H231.15ZM245.356 248.24V249.616H258.604V248.24H245.356ZM251.116 245.264V248.8H252.78V245.264H251.116ZM246.908 237.728V239.072H255.356V241.024H246.94V245.072H248.604V242.352H257.02V237.728H246.908ZM246.94 244.384V245.744H257.356V244.384H246.94ZM273.221 236.688V251.312H274.901V236.688H273.221ZM274.453 242.48V243.856H277.093V242.48H274.453ZM269.429 238.24V238.528C269.429 242.432 267.493 245.36 263.541 247.376L264.485 248.656C269.269 246.256 271.077 242.496 271.077 238.24H269.429ZM264.277 238.24V239.6H270.293V238.24H264.277ZM284.948 245.776C281.94 245.776 280.068 246.8 280.068 248.544C280.068 250.304 281.94 251.328 284.948 251.328C287.94 251.328 289.812 250.304 289.812 248.544C289.812 246.8 287.94 245.776 284.948 245.776ZM284.948 247.104C286.98 247.104 288.148 247.6 288.148 248.544C288.148 249.504 286.98 250.016 284.948 250.016C282.916 250.016 281.732 249.504 281.732 248.544C281.732 247.6 282.916 247.104 284.948 247.104ZM287.972 236.704V245.408H289.652V236.704H287.972ZM289.188 240.256V241.648H291.716V240.256H289.188ZM278.756 237.632V244.432H285.636V237.632H283.988V239.648H280.42V237.632H278.756ZM280.42 240.96H283.988V243.104H280.42V240.96ZM298.802 242.256V243.616H301.394V242.256H298.802ZM303.794 236.704V251.328H305.394V236.704H303.794ZM300.85 236.976V250.624H302.434V236.976H300.85ZM296.194 237.84C294.29 237.84 293.058 239.824 293.058 243.024C293.058 246.24 294.29 248.224 296.194 248.224C298.114 248.224 299.346 246.24 299.346 243.024C299.346 239.824 298.114 237.84 296.194 237.84ZM296.194 239.408C297.202 239.408 297.81 240.72 297.81 243.024C297.81 245.328 297.202 246.64 296.194 246.64C295.202 246.64 294.594 245.328 294.594 243.024C294.594 240.72 295.202 239.408 296.194 239.408ZM320.859 236.704V244.944H322.539V236.704H320.859ZM322.075 240.144V241.52H324.603V240.144H322.075ZM311.739 242.896V244.256H312.907C316.059 244.256 317.755 244.176 319.675 243.776L319.499 242.432C317.627 242.816 315.995 242.896 312.907 242.896H311.739ZM311.739 237.648V243.68H313.403V238.992H318.203V237.648H311.739ZM313.211 245.664V251.152H322.539V245.664H313.211ZM320.891 246.992V249.808H314.859V246.992H320.891ZM329.69 237.776C327.514 237.776 325.946 239.776 325.946 242.928C325.946 246.08 327.514 248.096 329.69 248.096C331.866 248.096 333.434 246.08 333.434 242.928C333.434 239.776 331.866 237.776 329.69 237.776ZM329.69 239.296C330.954 239.296 331.834 240.656 331.834 242.928C331.834 245.216 330.954 246.592 329.69 246.592C328.426 246.592 327.546 245.216 327.546 242.928C327.546 240.656 328.426 239.296 329.69 239.296ZM335.45 236.704V251.328H337.13V236.704H335.45ZM336.746 242.4V243.792H339.402V242.4H336.746ZM45.464 272.72V283.456H47.144V272.72H45.464ZM46.648 276.992V278.384H49.208V276.992H46.648ZM37.896 285.68V287.04H47.736V285.68H37.896ZM37.896 282.4V285.984H39.576V282.4H37.896ZM36.248 273.76V281.072H43.128V273.76H41.48V276.048H37.912V273.76H36.248ZM37.912 277.344H41.48V279.744H37.912V277.344ZM60.1348 272.704V280.352H61.8148V272.704H60.1348ZM61.3667 275.84V277.216H63.8788V275.84H61.3667ZM51.0467 273.344V279.264H52.7267V273.344H51.0467ZM51.0467 278.4V279.792H52.2307C54.3587 279.792 56.5827 279.632 58.9987 279.152L58.8068 277.776C56.4548 278.256 54.2787 278.4 52.2307 278.4H51.0467ZM52.4227 281.088V287.152H61.8148V281.088H60.1508V282.8H54.0868V281.088H52.4227ZM54.0868 284.128H60.1508V285.808H54.0868V284.128ZM74.7415 272.704V287.328H76.4055V272.704H74.7415ZM76.0215 278.576V279.968H78.6775V278.576H76.0215ZM64.9975 274.96V276.304H73.5735V274.96H64.9975ZM69.3335 277.36C67.2375 277.36 65.7015 278.768 65.7015 280.768C65.7015 282.784 67.2375 284.192 69.3335 284.192C71.4135 284.192 72.9495 282.784 72.9495 280.768C72.9495 278.768 71.4135 277.36 69.3335 277.36ZM69.3335 278.736C70.5015 278.736 71.3495 279.536 71.3495 280.768C71.3495 282 70.5015 282.816 69.3335 282.816C68.1495 282.816 67.3015 282 67.3015 280.768C67.3015 279.536 68.1495 278.736 69.3335 278.736ZM68.4695 272.912V275.52H70.1495V272.912H68.4695ZM83.4603 273.904V276.304C83.4603 279.104 81.9563 281.92 79.6203 282.976L80.6283 284.368C83.2523 283.088 84.8363 279.84 84.8363 276.304V273.904H83.4603ZM83.7803 273.904V276.304C83.7803 279.712 85.3643 282.832 87.9403 284.048L88.9323 282.704C86.6283 281.68 85.1403 278.992 85.1403 276.304V273.904H83.7803ZM90.1003 272.688V287.344H91.7803V272.688H90.1003ZM101.443 275.152V276.512H105.347V275.152H101.443ZM101.443 278.288V279.648H105.395V278.288H101.443ZM95.043 273.936V280.912H101.827V273.936H95.043ZM100.179 275.264V279.584H96.691V275.264H100.179ZM104.851 272.72V283.376H106.531V272.72H104.851ZM97.011 285.68V287.04H106.867V285.68H97.011ZM97.011 282.4V286.352H98.691V282.4H97.011ZM116.619 277.632V280.032H118.299V277.632H116.619ZM123.035 272.704V281.152H124.715V272.704H123.035ZM112.891 280.896C115.483 280.88 118.939 280.832 122.075 280.272L121.963 279.104C118.907 279.536 115.323 279.568 112.667 279.568L112.891 280.896ZM113.947 276.8V278.128H121.003V276.8H113.947ZM113.947 273.408V277.264H115.627V274.752H120.891V273.408H113.947ZM114.987 281.776V287.152H124.715V281.776H123.051V283.12H116.651V281.776H114.987ZM116.651 284.4H123.051V285.808H116.651V284.4ZM137.706 272.704V287.328H139.37V272.704H137.706ZM128.154 274.112V283.184H129.818V274.112H128.154ZM128.154 282.192V283.632H129.402C131.674 283.632 134.026 283.472 136.554 282.944L136.362 281.536C133.914 282.032 131.578 282.192 129.402 282.192H128.154ZM151.625 272.688V287.344H153.305V272.688H151.625ZM152.921 278.304V279.696H155.577V278.304H152.921ZM142.569 282.368V283.76H143.753C146.409 283.76 148.361 283.68 150.601 283.28L150.425 281.872C148.265 282.272 146.345 282.368 143.753 282.368H142.569ZM142.569 274.08V283.008H144.233V275.44H149.369V274.08H142.569ZM158.296 286.224C158.984 286.224 159.528 285.68 159.528 284.928C159.528 284.16 158.984 283.632 158.296 283.632C157.592 283.632 157.064 284.16 157.064 284.928C157.064 285.68 157.592 286.224 158.296 286.224ZM22.9964 319.552C24.1484 319.552 25.1244 318.608 25.1244 317.28C25.1244 315.936 24.1484 314.992 22.9964 314.992C21.8284 314.992 20.8684 315.936 20.8684 317.28C20.8684 318.608 21.8284 319.552 22.9964 319.552ZM41.032 322.224C44.056 322.224 46.152 319.872 46.152 316.064C46.152 312.272 44.056 310.016 41.032 310.016C37.992 310.016 35.896 312.272 35.896 316.064C35.896 319.872 37.992 322.224 41.032 322.224ZM41.032 320.688C39.064 320.688 37.816 318.928 37.816 316.064C37.816 313.312 39.064 311.632 41.032 311.632C42.984 311.632 44.248 313.312 44.248 316.064C44.248 318.928 42.984 320.688 41.032 320.688ZM44.728 325.072C45.496 325.072 46.152 324.944 46.536 324.768L46.184 323.36C45.864 323.472 45.448 323.552 44.92 323.552C43.624 323.552 42.44 322.992 41.976 321.776L40.072 321.952C40.744 323.744 42.36 325.072 44.728 325.072ZM48.5505 322H50.4225V317.248H52.4065C54.8385 317.248 56.6625 316.112 56.6625 313.648C56.6625 311.088 54.8385 310.224 52.4065 310.224H48.5505V322ZM50.4225 315.76V311.728H52.1985C53.8945 311.728 54.8225 312.224 54.8225 313.648C54.8225 315.056 53.8945 315.76 52.1985 315.76H50.4225ZM54.9985 322H57.0785L53.4305 315.68L52.0545 316.768L54.9985 322ZM59.7385 310.032V311.392H68.9865V310.032H59.7385ZM58.1865 320.112V321.472H71.4025V320.112H58.1865ZM68.2985 310.032V311.376C68.2985 313.088 68.2985 315.184 67.6585 318.08L69.3225 318.256C69.9625 315.184 69.9465 313.152 69.9465 311.376V310.032H68.2985ZM68.6345 313.552L59.3065 313.888L59.5465 315.312L68.6345 314.816V313.552ZM63.1305 316.448V320.608H64.8105V316.448H63.1305ZM74.4892 315.6V316.944H84.6332V315.6H74.4892ZM72.8732 320.064V321.44H86.1212V320.064H72.8732ZM74.4892 309.984V316.176H76.1532V311.36H84.5052V309.984H74.4892ZM87.544 320.24V321.616H100.792V320.24H87.544ZM93.304 317.264V320.8H94.968V317.264H93.304ZM89.096 309.728V311.072H97.544V313.024H89.128V317.072H90.792V314.352H99.208V309.728H89.096ZM89.128 316.384V317.744H99.544V316.384H89.128ZM116.379 308.72V319.456H118.059V308.72H116.379ZM117.563 312.992V314.384H120.123V312.992H117.563ZM108.811 321.68V323.04H118.651V321.68H108.811ZM108.811 318.4V321.984H110.491V318.4H108.811ZM107.163 309.76V317.072H114.043V309.76H112.395V312.048H108.827V309.76H107.163ZM108.827 313.344H112.395V315.744H108.827V313.344ZM131.05 308.704V316.352H132.73V308.704H131.05ZM132.282 311.84V313.216H134.794V311.84H132.282ZM121.962 309.344V315.264H123.642V309.344H121.962ZM121.962 314.4V315.792H123.146C125.274 315.792 127.498 315.632 129.914 315.152L129.722 313.776C127.37 314.256 125.194 314.4 123.146 314.4H121.962ZM123.338 317.088V323.152H132.73V317.088H131.066V318.8H125.002V317.088H123.338ZM125.002 320.128H131.066V321.808H125.002V320.128ZM150.797 308.72V319.408H152.477V308.72H150.797ZM142.925 321.68V323.04H152.893V321.68H142.925ZM142.925 318.4V322.352H144.605V318.4H142.925ZM144.061 309.52V310.976C144.061 313.088 142.797 315.184 140.477 316.032L141.341 317.376C143.965 316.384 145.453 313.824 145.453 310.976V309.52H144.061ZM144.381 309.52V310.976C144.381 313.776 145.853 316.176 148.429 317.104L149.293 315.776C147.021 314.992 145.757 313.04 145.757 310.976V309.52H144.381ZM158.572 311.232V311.808C158.572 313.648 157.308 315.376 155.068 316.064L155.868 317.376C158.46 316.56 159.932 314.352 159.932 311.808V311.232H158.572ZM158.876 311.232V311.808C158.876 314.208 160.412 316.256 163.036 317.008L163.788 315.696C161.548 315.072 160.252 313.488 160.252 311.808V311.232H158.876ZM155.5 310.352V311.696H163.324V310.352H155.5ZM158.572 308.64V310.864H160.252V308.64H158.572ZM162.892 312.752V314.112H165.964V312.752H162.892ZM165.532 308.704V317.552H167.212V308.704H165.532ZM162.332 317.872C159.276 317.872 157.404 318.864 157.404 320.592C157.404 322.304 159.276 323.312 162.332 323.312C165.388 323.312 167.26 322.304 167.26 320.592C167.26 318.864 165.388 317.872 162.332 317.872ZM162.332 319.168C164.412 319.168 165.596 319.664 165.596 320.592C165.596 321.504 164.412 322.016 162.332 322.016C160.252 322.016 159.068 321.504 159.068 320.592C159.068 319.664 160.252 319.168 162.332 319.168ZM179.435 308.704V323.328H181.099V308.704H179.435ZM180.715 314.576V315.968H183.371V314.576H180.715ZM169.691 310.96V312.304H178.267V310.96H169.691ZM174.027 313.36C171.931 313.36 170.395 314.768 170.395 316.768C170.395 318.784 171.931 320.192 174.027 320.192C176.107 320.192 177.643 318.784 177.643 316.768C177.643 314.768 176.107 313.36 174.027 313.36ZM174.027 314.736C175.195 314.736 176.043 315.536 176.043 316.768C176.043 318 175.195 318.816 174.027 318.816C172.843 318.816 171.995 318 171.995 316.768C171.995 315.536 172.843 314.736 174.027 314.736ZM173.163 308.912V311.52H174.843V308.912H173.163ZM188.153 309.904V312.304C188.153 315.104 186.649 317.92 184.313 318.976L185.321 320.368C187.945 319.088 189.529 315.84 189.529 312.304V309.904H188.153ZM188.473 309.904V312.304C188.473 315.712 190.057 318.832 192.633 320.048L193.625 318.704C191.321 317.68 189.833 314.992 189.833 312.304V309.904H188.473ZM194.793 308.688V323.344H196.473V308.688H194.793ZM206.136 311.152V312.512H210.04V311.152H206.136ZM206.136 314.288V315.648H210.088V314.288H206.136ZM199.736 309.936V316.912H206.52V309.936H199.736ZM204.872 311.264V315.584H201.384V311.264H204.872ZM209.544 308.72V319.376H211.224V308.72H209.544ZM201.704 321.68V323.04H211.56V321.68H201.704ZM201.704 318.4V322.352H203.384V318.4H201.704ZM217.952 322H224.688V320.48H222.384V310.544H220.992C220.304 310.96 219.536 311.248 218.416 311.456V312.624H220.544V320.48H217.952V322ZM226.357 322H233.973V320.432H230.981C230.389 320.432 229.653 320.496 229.045 320.56C231.493 317.984 233.413 315.872 233.413 313.792C233.413 311.696 232.021 310.336 229.861 310.336C228.325 310.336 227.285 310.992 226.261 312.08L227.317 313.104C227.941 312.4 228.709 311.808 229.637 311.808C230.949 311.808 231.621 312.624 231.621 313.872C231.621 315.68 229.637 317.712 226.357 320.928V322ZM239.195 309.904V312.304C239.195 315.104 237.691 317.92 235.355 318.976L236.363 320.368C238.987 319.088 240.571 315.84 240.571 312.304V309.904H239.195ZM239.515 309.904V312.304C239.515 315.712 241.099 318.832 243.675 320.048L244.667 318.704C242.363 317.68 240.875 314.992 240.875 312.304V309.904H239.515ZM245.835 308.688V323.344H247.515V308.688H245.835ZM259.865 308.704V319.296H261.561V308.704H259.865ZM261.065 312.976V314.368H263.625V312.976H261.065ZM255.849 309.824V310.608C255.849 313.2 253.737 315.328 250.105 316.4L250.809 317.744C255.081 316.448 257.625 313.68 257.625 309.824H255.849ZM250.713 309.824V311.184H256.729V309.824H250.713ZM252.297 321.68V323.04H262.137V321.68H252.297ZM252.297 318.224V322.256H253.977V318.224H252.297ZM279.612 308.688V323.344H281.292V308.688H279.612ZM273.5 309.776C271.324 309.776 269.74 311.776 269.74 314.928C269.74 318.08 271.324 320.096 273.5 320.096C275.692 320.096 277.276 318.08 277.276 314.928C277.276 311.776 275.692 309.776 273.5 309.776ZM273.5 311.296C274.78 311.296 275.66 312.656 275.66 314.928C275.66 317.216 274.78 318.592 273.5 318.592C272.22 318.592 271.34 317.216 271.34 314.928C271.34 312.656 272.22 311.296 273.5 311.296ZM294.763 308.704V323.328H296.363V308.704H294.763ZM292.555 314.512V315.872H295.195V314.512H292.555ZM291.467 308.992V322.608H293.035V308.992H291.467ZM284.571 310.4V318.848H286.251V310.4H284.571ZM284.571 318.192V319.632H285.531C287.067 319.632 288.747 319.568 290.699 319.2L290.523 317.744C288.651 318.112 287.003 318.192 285.531 318.192H284.571ZM304.49 314.256V315.616H307.082V314.256H304.49ZM309.482 308.704V323.328H311.082V308.704H309.482ZM306.538 308.976V322.624H308.122V308.976H306.538ZM301.882 309.84C299.978 309.84 298.746 311.824 298.746 315.024C298.746 318.24 299.978 320.224 301.882 320.224C303.802 320.224 305.034 318.24 305.034 315.024C305.034 311.824 303.802 309.84 301.882 309.84ZM301.882 311.408C302.89 311.408 303.498 312.72 303.498 315.024C303.498 317.328 302.89 318.64 301.882 318.64C300.89 318.64 300.282 317.328 300.282 315.024C300.282 312.72 300.89 311.408 301.882 311.408ZM323.437 309.184V309.936C323.437 311.856 321.261 313.68 318.301 314.096L318.957 315.456C322.333 314.912 324.909 312.736 324.909 309.936V309.184H323.437ZM323.741 309.184V309.936C323.741 312.72 326.317 314.912 329.693 315.456L330.349 314.096C327.389 313.68 325.197 311.824 325.197 309.936V309.184H323.741ZM323.437 317.856V323.328H325.101V317.856H323.437ZM317.709 316.8V318.176H330.925V316.8H317.709ZM342.812 308.704V323.328H344.476V308.704H342.812ZM339.66 314.448V315.824H343.596V314.448H339.66ZM338.076 310.256V310.544C338.076 314.384 336.492 317.28 332.3 319.36L333.196 320.672C338.14 318.192 339.724 314.544 339.724 310.256H338.076ZM332.956 310.256V311.6H338.956V310.256H332.956ZM35.704 347.072V348.416H42.84V347.072H35.704ZM39.288 349.248C37.464 349.248 36.12 350.656 36.12 352.656C36.12 354.656 37.464 356.048 39.288 356.048C41.128 356.048 42.456 354.656 42.456 352.656C42.456 350.656 41.128 349.248 39.288 349.248ZM39.288 350.656C40.264 350.656 40.968 351.456 40.968 352.656C40.968 353.872 40.264 354.64 39.288 354.64C38.312 354.64 37.608 353.872 37.608 352.656C37.608 351.456 38.312 350.656 39.288 350.656ZM46.584 344.704V359.328H48.184V344.704H46.584ZM44.504 350.768V352.128H47.112V350.768H44.504ZM43.48 345.008V358.656H45.048V345.008H43.48ZM38.472 345.12V347.904H40.12V345.12H38.472ZM60.1188 344.704V352.624H61.8148V344.704H60.1188ZM61.3507 348.016V349.408H63.8788V348.016H61.3507ZM56.0068 345.536V346.416C56.0068 348.72 54.1188 350.592 50.3747 351.44L50.9987 352.8C55.3507 351.776 57.8308 349.312 57.8308 345.536H56.0068ZM51.0787 345.536V346.88H57.0788V345.536H51.0787ZM52.4387 353.248V359.152H61.8148V353.248H60.1508V354.88H54.1027V353.248H52.4387ZM54.1027 356.192H60.1508V357.808H54.1027V356.192ZM75.4775 344.704V359.328H77.1415V344.704H75.4775ZM65.9255 346.112V355.184H67.5895V346.112H65.9255ZM65.9255 354.192V355.632H67.1735C69.4455 355.632 71.7975 355.472 74.3255 354.944L74.1335 353.536C71.6855 354.032 69.3495 354.192 67.1735 354.192H65.9255ZM89.3963 344.688V359.344H91.0763V344.688H89.3963ZM90.6923 350.304V351.696H93.3483V350.304H90.6923ZM80.3403 354.368V355.76H81.5243C84.1803 355.76 86.1323 355.68 88.3723 355.28L88.1963 353.872C86.0363 354.272 84.1163 354.368 81.5243 354.368H80.3403ZM80.3403 346.08V355.008H82.0043V347.44H87.1403V346.08H80.3403ZM96.067 358.224C96.755 358.224 97.299 357.68 97.299 356.928C97.299 356.16 96.755 355.632 96.067 355.632C95.363 355.632 94.835 356.16 94.835 356.928C94.835 357.68 95.363 358.224 96.067 358.224Z" fill="white"/>
<g clip-path="url(#clip0_923_446)">
<path d="M152.887 68.626H156.67V71.6678L153.28 74.3234L156.808 77.0141V80.6993L150.962 76.0197L145 80.6291V76.9089L151.792 71.5859H145.012V68.5441H149.117V66.918H152.887V68.626ZM145.968 81.6586H159.611V67.8305H162.863V72.5101H165.169V75.6921H162.863V90.0116H145.968V81.6586ZM149.232 87.1102H159.611V84.5014H149.232V87.1102Z" fill="white"/>
<path d="M171.903 86.9113V77.5522H175.271V86.9113H179.618L180.771 71.188H167.372V68.041H184.242V71.1763L183.089 86.8996H185.891V89.9647H166.034V86.8996L171.903 86.9113Z" fill="white"/>
<path d="M197.354 89.8713L194.206 75.4583L191.069 89.8713H187.69L192.672 67.9359H195.763L200.744 89.8713H197.354ZM206.049 74.8499H208.413V78.0437H206.049V90.0584H202.854V67.8306H206.037L206.049 74.8499Z" fill="white"/>
<path d="M217.188 68.6496H221.409V71.4339H217.569C218.351 71.6493 219.05 72.0998 219.575 72.7263C220.1 73.3528 220.426 74.1258 220.509 74.9436V76.6048C220.509 78.7574 218.203 80.5006 215.424 80.5006C212.645 80.5006 210.477 78.7574 210.477 76.6048V75.0138C210.548 74.1902 210.859 73.4066 211.37 72.7628C211.881 72.119 212.57 71.6442 213.348 71.3988H209.669V68.6496H213.948V67.0352H217.188V68.6496ZM224.015 81.7991C224.571 81.7565 225.129 81.8307 225.655 82.0171C226.181 82.2036 226.664 82.4982 227.072 82.8826C227.481 83.267 227.807 83.7329 228.03 84.251C228.253 84.7692 228.368 85.3284 228.368 85.8937C228.368 86.4591 228.253 87.0183 228.03 87.5365C227.807 88.0546 227.481 88.5205 227.072 88.9049C226.664 89.2893 226.181 89.5839 225.655 89.7704C225.129 89.9568 224.571 90.031 224.015 89.9884H214.593C214.038 90.031 213.48 89.9568 212.954 89.7704C212.427 89.5839 211.945 89.2893 211.536 88.9049C211.128 88.5205 210.801 88.0546 210.579 87.5365C210.356 87.0183 210.241 86.4591 210.241 85.8937C210.241 85.3284 210.356 84.7692 210.579 84.251C210.801 83.7329 211.128 83.267 211.536 82.8826C211.945 82.4982 212.427 82.2036 212.954 82.0171C213.48 81.8307 214.038 81.7565 214.593 81.7991H224.015ZM217.638 75.5636C217.548 75.0593 217.286 74.6032 216.898 74.2747C216.51 73.9462 216.021 73.7662 215.516 73.7662C215.011 73.7662 214.522 73.9462 214.134 74.2747C213.746 74.6032 213.484 75.0593 213.394 75.5636V76.0199C213.484 76.5242 213.746 76.9804 214.134 77.3089C214.522 77.6374 215.011 77.8173 215.516 77.8173C216.021 77.8173 216.51 77.6374 216.898 77.3089C217.286 76.9804 217.548 76.5242 217.638 76.0199V75.5636ZM214.593 84.8642C214.462 84.8658 214.332 84.8936 214.211 84.9462C214.089 84.9988 213.979 85.075 213.887 85.1706C213.795 85.2662 213.723 85.3793 213.674 85.5034C213.625 85.6275 213.6 85.7601 213.602 85.8937C213.6 86.0269 213.625 86.1589 213.674 86.2823C213.723 86.4057 213.796 86.518 213.888 86.6127C213.98 86.7074 214.09 86.7826 214.211 86.8339C214.333 86.8851 214.462 86.9116 214.593 86.9115H224.015C224.277 86.9085 224.528 86.8015 224.713 86.6135C224.898 86.4255 225.004 86.1714 225.007 85.9055C225.004 85.6362 224.9 85.3782 224.715 85.1845C224.531 84.9908 224.28 84.8762 224.015 84.8642H214.593ZM224.176 80.5123V67.8307H227.636V72.3114H229.942V75.4934H227.636V80.5123H224.176Z" fill="white"/>
</g>
<g clip-path="url(#clip1_923_446)">
<path d="M187.001 437.003C199.153 437.003 209.003 427.153 209.003 415.001C209.003 402.85 199.153 393 187.001 393C174.85 393 165 402.85 165 415.001C165 427.153 174.85 437.003 187.001 437.003Z" fill="#154734"/>
<path d="M191.012 414.641C191.011 414.213 190.841 413.802 190.537 413.5C190.234 413.197 189.823 413.027 189.395 413.027H187.571V412.336C187.571 412.041 187.382 411.858 186.999 411.858C186.615 411.858 186.426 412.05 186.426 412.336V413.027H184.605C184.177 413.027 183.766 413.197 183.463 413.5C183.159 413.802 182.989 414.213 182.988 414.641C182.981 414.981 183.038 415.32 183.156 415.639C183.212 415.784 183.296 415.916 183.404 416.028L183.528 417.421C183.571 417.929 183.803 418.401 184.179 418.745C184.555 419.088 185.046 419.277 185.555 419.275H186.441C186.441 419.57 186.633 419.75 187.013 419.75C187.394 419.75 187.586 419.558 187.586 419.275H188.489C188.998 419.277 189.49 419.088 189.866 418.744C190.242 418.399 190.474 417.926 190.516 417.419L190.643 415.987C190.735 415.882 190.808 415.763 190.859 415.633C190.971 415.315 191.023 414.979 191.012 414.641Z" fill="#FFCD00"/>
<path d="M202.808 414.066C202.807 413.017 202.534 411.986 202.017 411.074C201.5 410.161 200.756 409.398 199.857 408.857C199.351 408.549 198.961 408.082 198.747 407.529C198.301 406.388 197.521 405.408 196.509 404.717C195.497 404.026 194.3 403.657 193.075 403.657H193.028C192.328 403.649 191.657 403.377 191.148 402.896C190.021 401.848 188.537 401.267 186.998 401.272C185.459 401.27 183.977 401.854 182.852 402.905C182.339 403.388 181.662 403.66 180.957 403.666H180.91C179.686 403.665 178.49 404.033 177.478 404.722C176.466 405.411 175.685 406.39 175.238 407.529C175.023 408.081 174.633 408.548 174.128 408.857C173.232 409.399 172.491 410.164 171.976 411.076C171.462 411.989 171.192 413.019 171.192 414.066C171.191 415.534 171.721 416.953 172.684 418.061C173.646 419.169 174.977 419.893 176.43 420.098C176.665 420.131 176.879 420.247 177.035 420.426C177.191 420.604 177.277 420.833 177.277 421.069V423.557C177.276 423.926 177.188 424.288 177.022 424.617C176.855 424.945 176.614 425.23 176.318 425.449L175.25 426.234C175.171 426.291 175.107 426.366 175.063 426.453C175.018 426.54 174.996 426.636 174.996 426.733C174.997 426.897 175.062 427.054 175.178 427.169C175.295 427.285 175.452 427.35 175.616 427.35H179.048C179.331 427.349 179.612 427.412 179.868 427.533L180.878 428.002C181.265 428.184 181.702 428.232 182.12 428.138L183.534 427.834C183.929 427.745 184.342 427.784 184.714 427.943L186.225 428.592C186.467 428.695 186.728 428.748 186.991 428.748C187.254 428.748 187.515 428.695 187.757 428.592L189.271 427.943C189.643 427.783 190.056 427.744 190.451 427.831L191.886 428.129C192.303 428.224 192.741 428.176 193.128 427.993L194.138 427.539C194.394 427.418 194.674 427.355 194.958 427.356H198.387C198.551 427.356 198.708 427.291 198.825 427.175C198.941 427.059 199.006 426.903 199.007 426.739C199.007 426.642 198.984 426.546 198.94 426.46C198.896 426.374 198.832 426.3 198.753 426.243L197.685 425.473C197.527 425.354 197.338 425.283 197.141 425.268C196.944 425.253 196.747 425.294 196.572 425.387C196.077 425.645 195.525 425.776 194.967 425.768H187.382C187.311 425.768 187.241 425.743 187.187 425.696C187.133 425.65 187.097 425.585 187.087 425.514C187.081 425.475 187.083 425.434 187.094 425.396C187.104 425.357 187.122 425.321 187.146 425.29L189.666 421.421C188.807 421.69 187.91 421.819 187.01 421.801C183.389 421.801 180.987 420.075 180.987 416.032C180.987 411.988 183.383 409.179 187.016 409.179C190.457 409.179 192.721 411.814 192.936 415.545C193.031 415.675 193.125 415.757 193.231 415.754C193.432 415.739 193.626 415.682 193.804 415.589C193.913 415.524 194.099 415.379 194.205 415.551C194.312 415.722 194.22 415.905 194.152 416.052C194.019 416.344 193.816 416.598 193.562 416.793L193.63 416.74C193.377 416.928 193.172 417.174 193.033 417.458C192.895 417.741 192.826 418.054 192.833 418.369C192.814 418.66 192.865 418.951 192.982 419.218C193.098 419.485 193.277 419.72 193.503 419.904C194.066 420.371 194.458 421.01 194.619 421.723C194.781 422.437 194.701 423.183 194.394 423.847C194.385 423.869 194.38 423.893 194.38 423.917C194.38 423.942 194.385 423.966 194.394 423.988C194.402 424.016 194.417 424.041 194.437 424.061C194.457 424.082 194.482 424.097 194.509 424.106C194.551 424.12 194.596 424.119 194.636 424.103C194.677 424.087 194.71 424.056 194.731 424.018C195.041 423.439 195.172 422.781 195.107 422.128C195.041 421.474 194.783 420.855 194.365 420.349C194.025 419.877 193.815 419.324 193.757 418.745C193.699 418.166 193.795 417.582 194.034 417.052C194.274 416.522 194.648 416.064 195.121 415.725C195.593 415.386 196.147 415.177 196.726 415.12H196.779C196.937 415.102 197.096 415.102 197.254 415.12C197.743 415.166 198.199 415.386 198.539 415.741C198.879 416.095 199.08 416.559 199.107 417.05C199.133 417.54 198.982 418.024 198.681 418.412C198.381 418.8 197.951 419.068 197.469 419.166C197.418 419.174 197.369 419.19 197.322 419.213C197.241 419.252 197.174 419.313 197.126 419.388C197.079 419.464 197.053 419.552 197.053 419.641C197.053 419.765 197.101 419.884 197.186 419.974C197.204 419.989 197.222 420.01 197.242 420.025C197.319 420.085 197.414 420.116 197.511 420.113C198.978 419.92 200.324 419.2 201.299 418.088C202.274 416.975 202.81 415.545 202.808 414.066Z" fill="#FFCD00"/>
<path d="M187.37 425.768H194.967C195.854 425.769 196.706 425.42 197.336 424.796C197.967 424.171 198.324 423.323 198.331 422.436C198.329 421.965 198.227 421.5 198.03 421.073C197.834 420.645 197.548 420.265 197.192 419.957C197.135 419.896 197.094 419.822 197.073 419.741C197.053 419.66 197.055 419.575 197.077 419.494C197.1 419.414 197.143 419.341 197.203 419.282C197.262 419.224 197.336 419.181 197.416 419.16C197.913 419.071 198.36 418.804 198.673 418.409C198.986 418.014 199.144 417.518 199.116 417.014C199.081 416.53 198.876 416.074 198.537 415.726C198.199 415.378 197.749 415.16 197.266 415.111C197.108 415.093 196.949 415.093 196.791 415.111H196.738C196.159 415.168 195.605 415.377 195.133 415.716C194.66 416.056 194.286 416.513 194.046 417.043C193.807 417.574 193.711 418.157 193.769 418.736C193.827 419.315 194.037 419.868 194.377 420.34C194.795 420.846 195.053 421.465 195.119 422.119C195.184 422.772 195.053 423.43 194.743 424.009C194.723 424.047 194.69 424.077 194.65 424.093C194.61 424.109 194.565 424.111 194.524 424.097C194.496 424.089 194.471 424.074 194.45 424.053C194.43 424.033 194.414 424.007 194.406 423.979C194.397 423.957 194.392 423.933 194.392 423.908C194.392 423.884 194.397 423.86 194.406 423.838C194.711 423.171 194.787 422.423 194.622 421.709C194.456 420.995 194.059 420.356 193.491 419.892C193.265 419.708 193.086 419.473 192.97 419.206C192.853 418.939 192.802 418.648 192.821 418.357C192.814 418.042 192.883 417.729 193.022 417.446C193.16 417.162 193.365 416.916 193.618 416.728L193.55 416.781C193.805 416.586 194.007 416.332 194.141 416.04C194.208 415.893 194.291 415.677 194.194 415.539C194.096 415.4 193.899 415.512 193.792 415.577C193.614 415.675 193.417 415.736 193.214 415.754C192.889 415.754 192.721 415.043 192.252 414.615C191.876 414.253 191.375 414.049 190.853 414.045C190.582 414.048 190.321 414.147 190.117 414.324C189.913 414.501 189.778 414.746 189.737 415.013C189.722 415.111 189.714 415.21 189.714 415.309C189.715 415.585 189.771 415.858 189.88 416.111C189.989 416.365 190.149 416.594 190.348 416.784C190.411 416.839 190.458 416.909 190.486 416.987C190.513 417.065 190.52 417.149 190.506 417.231C190.492 417.313 190.457 417.39 190.405 417.454C190.352 417.519 190.284 417.568 190.207 417.599C189.962 417.7 189.701 417.752 189.436 417.752C189.051 417.758 188.672 417.655 188.343 417.454C188.014 417.253 187.748 416.964 187.577 416.619C187.53 416.528 187.455 416.454 187.363 416.408C187.272 416.362 187.168 416.347 187.067 416.364C186.965 416.381 186.872 416.43 186.801 416.503C186.729 416.577 186.683 416.671 186.668 416.772C186.656 416.832 186.656 416.893 186.668 416.952C186.809 417.631 187.159 418.249 187.67 418.719C188.18 419.188 188.825 419.486 189.513 419.57C189.644 419.584 189.769 419.63 189.878 419.705C189.986 419.78 190.073 419.881 190.132 419.998C190.191 420.116 190.219 420.247 190.214 420.378C190.209 420.51 190.171 420.638 190.103 420.751L190.089 420.78L187.137 425.301C187.103 425.345 187.081 425.398 187.075 425.453C187.069 425.509 187.079 425.565 187.104 425.615C187.129 425.665 187.167 425.707 187.215 425.736C187.263 425.765 187.318 425.78 187.373 425.78" fill="#154734"/>
<path d="M190.873 415.043C190.873 415.121 190.842 415.196 190.787 415.251C190.732 415.307 190.657 415.338 190.578 415.338C190.5 415.338 190.425 415.307 190.37 415.251C190.314 415.196 190.283 415.121 190.283 415.043C190.283 414.964 190.314 414.889 190.37 414.834C190.425 414.779 190.5 414.748 190.578 414.748C190.657 414.748 190.732 414.779 190.787 414.834C190.842 414.889 190.873 414.964 190.873 415.043Z" fill="#154734"/>
<path d="M187.125 424.221C187.061 424.222 186.998 424.205 186.944 424.171C186.889 424.137 186.846 424.089 186.818 424.031C186.79 423.974 186.779 423.909 186.786 423.846C186.794 423.782 186.819 423.722 186.86 423.672L187.246 423.188H186.998C184.773 423.188 182.917 422.574 181.63 421.417C180.228 420.16 179.532 418.36 179.526 416.028C179.526 413.561 180.411 411.256 181.955 409.704C182.589 409.056 183.347 408.542 184.184 408.193C185.022 407.844 185.92 407.667 186.827 407.673C190.741 407.673 193.816 410.625 194.137 414.721C194.145 414.808 194.118 414.895 194.063 414.962C194.008 415.03 193.929 415.074 193.842 415.084C193.755 415.092 193.669 415.065 193.601 415.01C193.533 414.955 193.49 414.876 193.479 414.789C193.366 413.023 192.602 411.361 191.334 410.126C190.116 408.977 188.502 408.342 186.827 408.355C186.01 408.349 185.2 408.508 184.445 408.822C183.69 409.137 183.007 409.6 182.436 410.185C181.01 411.619 180.199 413.75 180.205 416.028C180.228 420.16 182.693 422.521 186.998 422.521C187.261 422.521 187.716 422.483 187.961 422.462C188.026 422.457 188.092 422.471 188.149 422.502C188.207 422.534 188.254 422.581 188.286 422.639C188.317 422.697 188.331 422.763 188.325 422.828C188.32 422.894 188.296 422.956 188.256 423.008L187.391 424.1C187.359 424.139 187.318 424.171 187.272 424.191C187.226 424.212 187.176 424.223 187.125 424.221Z" fill="#154734"/>
</g>
<path d="M159.173 458.992C159.629 458.992 160.001 458.62 160.001 458.164V455.344C160.001 454.888 159.629 454.516 159.173 454.516H151.253C150.797 454.516 150.425 454.888 150.425 455.344V458.164C150.425 458.62 150.797 458.992 151.253 458.992H159.173ZM149.921 452.788C149.921 453.244 150.293 453.616 150.749 453.616H151.349C153.509 453.616 155.225 453.508 156.917 453.1C157.265 453.016 157.541 452.692 157.541 452.308C157.541 451.852 157.169 451.48 156.713 451.48C156.641 451.48 156.545 451.492 156.497 451.504C155.177 451.828 153.665 451.96 152.057 451.96V449.68H155.633C156.089 449.68 156.461 449.308 156.461 448.852C156.461 448.396 156.089 448.024 155.633 448.024H150.749C150.293 448.024 149.921 448.396 149.921 448.852V452.788ZM157.841 453.136C157.841 453.76 158.321 454.216 158.921 454.216C159.521 454.216 160.001 453.76 160.001 453.136V451.684H160.649C161.117 451.684 161.489 451.312 161.489 450.844C161.489 450.376 161.117 450.004 160.649 450.004H160.001V448.804C160.001 448.192 159.521 447.724 158.921 447.724C158.321 447.724 157.841 448.192 157.841 448.804V453.136ZM152.561 456.148H157.865V457.36H152.561V456.148ZM167.225 450.004C167.225 452.668 166.829 454.744 165.689 456.808C165.557 457.048 165.485 457.24 165.485 457.504C165.485 458.08 165.941 458.512 166.517 458.512C166.865 458.512 167.201 458.356 167.381 458.032C168.725 455.62 169.265 452.92 169.265 449.632V449.044C169.265 448.576 168.893 448.204 168.425 448.204H166.661C166.169 448.204 165.893 448.6 165.893 449.116C165.893 449.608 166.169 450.004 166.661 450.004H167.225ZM170.237 458.068C170.237 458.668 170.705 459.112 171.293 459.112C171.869 459.112 172.337 458.668 172.337 458.068V448.768C172.337 448.18 171.869 447.724 171.293 447.724C170.705 447.724 170.237 448.18 170.237 448.768V458.068ZM163.613 450.004C163.613 452.428 163.301 454.264 161.969 456.208C161.813 456.436 161.753 456.64 161.753 456.904C161.753 457.48 162.209 457.912 162.785 457.912C163.133 457.912 163.457 457.78 163.673 457.456C165.209 455.152 165.653 452.656 165.653 449.632V449.044C165.653 448.576 165.281 448.204 164.813 448.204H162.629C162.137 448.204 161.861 448.6 161.861 449.116C161.861 449.608 162.137 450.004 162.629 450.004H163.613ZM187.071 452.272C187.527 452.272 187.899 451.9 187.899 451.444V448.792C187.899 448.336 187.527 447.964 187.071 447.964H178.527C178.071 447.964 177.699 448.336 177.699 448.792V451.444C177.699 451.9 178.071 452.272 178.527 452.272H187.071ZM177.279 453.892C177.279 454.336 177.663 454.72 178.119 454.72H181.839V455.656C181.839 456.28 182.319 456.676 182.919 456.676C183.519 456.676 183.999 456.28 183.999 455.656V454.72H187.467C187.947 454.72 188.319 454.336 188.319 453.892C188.319 453.424 187.947 453.04 187.467 453.04H178.119C177.663 453.04 177.279 453.424 177.279 453.892ZM177.699 457.972C177.699 458.596 178.191 458.992 178.719 458.992H187.299C187.767 458.992 188.139 458.62 188.139 458.152C188.139 457.684 187.767 457.312 187.299 457.312H179.859V456.256C179.859 455.656 179.379 455.296 178.779 455.296C178.179 455.296 177.699 455.656 177.699 456.256V457.972ZM179.835 449.62H185.763V450.616H179.835V449.62ZM189.747 452.44C189.747 454.216 191.355 455.188 193.251 455.188C195.147 455.188 196.779 454.216 196.779 452.44V450.604C196.779 448.828 195.135 447.844 193.239 447.844C191.343 447.844 189.747 448.828 189.747 450.604V452.44ZM191.859 450.628C191.859 449.992 192.447 449.584 193.251 449.584C194.055 449.584 194.667 449.992 194.667 450.628V452.416C194.667 453.052 194.055 453.436 193.251 453.436C192.447 453.436 191.859 453.052 191.859 452.416V450.628ZM190.179 458.572C192.507 458.572 194.871 458.464 196.695 458.152C197.187 458.068 197.487 457.732 197.487 457.264C197.487 456.76 197.091 456.364 196.587 456.364C196.527 456.364 196.479 456.376 196.407 456.388C194.559 456.7 192.363 456.772 190.179 456.772C189.675 456.772 189.279 457.168 189.279 457.672C189.279 458.176 189.675 458.572 190.179 458.572ZM197.775 458.032C197.775 458.656 198.255 459.112 198.855 459.112C199.455 459.112 199.935 458.656 199.935 458.032V448.804C199.935 448.192 199.455 447.724 198.855 447.724C198.255 447.724 197.775 448.192 197.775 448.804V458.032ZM201.159 457.612C201.159 458.188 201.579 458.632 202.179 458.632C202.455 458.632 202.719 458.548 202.899 458.392C203.847 457.576 204.519 456.652 204.939 455.344C205.371 456.628 206.031 457.516 206.979 458.332C207.159 458.488 207.423 458.572 207.699 458.572C208.299 458.572 208.719 458.128 208.719 457.552C208.719 457.204 208.575 456.916 208.347 456.724C206.763 455.416 206.019 453.616 206.019 450.472V448.924C206.019 448.324 205.539 447.844 204.939 447.844C204.339 447.844 203.859 448.324 203.859 448.924V450.472C203.859 453.616 203.103 455.464 201.519 456.772C201.291 456.964 201.159 457.264 201.159 457.612ZM209.439 458.032C209.439 458.656 209.919 459.112 210.519 459.112C211.119 459.112 211.599 458.656 211.599 458.032V453.916H212.187C212.679 453.916 213.087 453.52 213.087 453.016C213.087 452.512 212.679 452.116 212.187 452.116H211.599V448.804C211.599 448.192 211.119 447.724 210.519 447.724C209.919 447.724 209.439 448.192 209.439 448.804V458.032ZM221.547 458.992C222.783 458.992 223.719 458.224 223.719 457C223.719 455.764 222.783 454.996 221.547 454.996H216.063C214.839 454.996 213.903 455.764 213.903 457C213.903 458.224 214.839 458.992 216.063 458.992H221.547ZM213.579 452.44C213.579 453.496 214.407 454.264 215.427 454.264H218.451C219.483 454.264 220.299 453.496 220.299 452.44C220.299 451.372 219.483 450.616 218.451 450.616H215.427C214.407 450.616 213.579 451.372 213.579 452.44ZM221.439 453.7C221.439 454.324 221.919 454.78 222.519 454.78C223.119 454.78 223.599 454.324 223.599 453.7V451.96H224.247C224.715 451.96 225.087 451.588 225.087 451.12C225.087 450.652 224.715 450.28 224.247 450.28H223.599V448.804C223.599 448.192 223.119 447.724 222.519 447.724C221.919 447.724 221.439 448.192 221.439 448.804V453.7ZM213.339 449.38C213.339 449.812 213.687 450.172 214.119 450.172H219.759C220.191 450.172 220.539 449.812 220.539 449.38C220.539 448.948 220.191 448.588 219.759 448.588H218.019V448.384C218.019 447.772 217.539 447.484 216.939 447.484C216.339 447.484 215.859 447.772 215.859 448.384V448.588H214.119C213.687 448.588 213.339 448.948 213.339 449.38ZM216.039 457C216.039 456.796 216.159 456.628 216.483 456.628H221.139C221.463 456.628 221.583 456.796 221.583 457C221.583 457.204 221.463 457.36 221.139 457.36H216.483C216.159 457.36 216.039 457.204 216.039 457ZM215.619 452.44C215.619 452.248 215.751 452.128 216.003 452.128H217.875C218.127 452.128 218.259 452.248 218.259 452.44C218.259 452.632 218.127 452.752 217.875 452.752H216.003C215.751 452.752 215.619 452.632 215.619 452.44ZM116.313 469.16C112.985 469.16 110.601 471.592 110.601 475.992C110.601 480.408 112.985 482.856 116.313 482.856C119.625 482.856 122.025 480.408 122.025 475.992C122.025 471.592 119.625 469.16 116.313 469.16ZM113.449 475.992C113.449 473.256 114.473 471.688 116.313 471.688C118.153 471.688 119.177 473.256 119.177 475.992C119.177 478.744 118.169 480.328 116.313 480.328C114.473 480.328 113.449 478.744 113.449 475.992ZM127.192 481.544C127.192 482.376 127.832 482.904 128.632 482.904C129.432 482.904 130.072 482.376 130.072 481.544C130.072 478.232 131.752 474.648 133.432 472.136C133.768 471.64 133.832 470.744 133.592 470.232C133.336 469.656 132.744 469.32 132.04 469.32H124.824C123.864 469.32 123.224 469.96 123.224 470.92V473.72C123.224 474.552 123.752 475.016 124.552 475.016C125.352 475.016 125.88 474.552 125.88 473.72V471.816H130.6C129.224 473.784 127.192 477.912 127.192 481.544ZM140.563 469.16C137.235 469.16 134.851 471.592 134.851 475.992C134.851 480.408 137.235 482.856 140.563 482.856C143.875 482.856 146.275 480.408 146.275 475.992C146.275 471.592 143.875 469.16 140.563 469.16ZM137.699 475.992C137.699 473.256 138.723 471.688 140.563 471.688C142.403 471.688 143.427 473.256 143.427 475.992C143.427 478.744 142.419 480.328 140.563 480.328C138.723 480.328 137.699 478.744 137.699 475.992ZM156.162 477.032C156.85 477.032 157.314 476.376 157.314 475.736C157.314 475.08 156.85 474.472 156.162 474.472H148.866C148.178 474.472 147.714 475.096 147.714 475.736C147.714 476.392 148.178 477.032 148.866 477.032H156.162ZM165.221 477.832H162.005L165.221 473.528V477.832ZM168.005 477.8V470.664C168.005 469.944 167.509 469.432 166.869 469.224C166.149 469 165.285 469.256 164.853 469.848L158.965 477.768C158.597 478.248 158.501 478.936 158.693 479.432C158.885 479.928 159.381 480.296 160.149 480.296H165.189V481.624C165.189 482.456 165.797 482.904 166.597 482.904C167.397 482.904 168.005 482.456 168.005 481.624V480.296H169.109C169.797 480.296 170.197 479.688 170.197 479.048C170.197 478.392 169.797 477.8 169.109 477.8H168.005ZM177.364 480.136V470.424C177.364 469.896 177.124 469.464 176.676 469.272C176.132 469.032 175.572 469.176 175.14 469.464L171.988 471.576C171.348 472.008 171.364 472.824 171.78 473.384C172.196 473.944 172.996 474.12 173.54 473.752L174.484 473.112V480.136H172.564C171.876 480.136 171.476 480.776 171.476 481.416C171.476 482.072 171.876 482.696 172.564 482.696H178.644C179.332 482.696 179.732 482.056 179.732 481.416C179.732 480.76 179.332 480.136 178.644 480.136H177.364ZM184.307 471.848H189.555C190.243 471.848 190.707 471.224 190.707 470.584C190.707 469.928 190.243 469.32 189.555 469.32H183.443C182.483 469.32 181.779 469.96 181.683 470.92L181.203 475.72C181.123 476.552 181.731 477.176 182.499 477.176C182.899 477.176 183.331 477.032 183.747 476.776C184.515 476.296 185.011 476.024 186.179 476.024C187.491 476.024 188.355 476.872 188.355 478.12C188.355 479.24 187.459 480.264 185.971 480.264C184.675 480.264 183.939 479.608 183.251 478.936C182.739 478.44 181.987 478.44 181.475 478.904C180.963 479.368 180.851 480.056 181.267 480.616C182.307 482.024 183.923 482.712 185.971 482.728C189.059 482.744 191.203 480.76 191.203 478.056C191.203 475.336 189.107 473.56 186.339 473.56C185.379 473.56 184.547 473.816 184.051 474.184L184.307 471.848ZM198.36 469.16C195.032 469.16 192.648 471.592 192.648 475.992C192.648 480.408 195.032 482.856 198.36 482.856C201.672 482.856 204.072 480.408 204.072 475.992C204.072 471.592 201.672 469.16 198.36 469.16ZM195.496 475.992C195.496 473.256 196.52 471.688 198.36 471.688C200.2 471.688 201.224 473.256 201.224 475.992C201.224 478.744 200.216 480.328 198.36 480.328C196.52 480.328 195.496 478.744 195.496 475.992ZM213.959 477.032C214.647 477.032 215.111 476.376 215.111 475.736C215.111 475.08 214.647 474.472 213.959 474.472H206.663C205.975 474.472 205.511 475.096 205.511 475.736C205.511 476.392 205.975 477.032 206.663 477.032H213.959ZM226.122 482.696C226.81 482.696 227.274 482.056 227.274 481.416C227.274 480.76 226.81 480.136 226.122 480.136H219.754C219.834 479.064 221.578 478.104 223.082 477.416C225.53 476.296 226.922 475.64 226.922 473.176C226.922 470.84 224.65 469.16 221.866 469.16C219.562 469.16 217.562 470.44 216.954 472.552C216.73 473.32 217.226 474.024 217.978 474.136C218.698 474.248 219.322 473.944 219.61 473.24C220.026 472.232 220.826 471.736 221.898 471.736C223.418 471.736 224.074 472.488 224.074 473.208C224.074 474.184 223.546 474.52 221.85 475.304C219.434 476.424 216.714 477.448 216.714 480.904C216.714 482.088 217.322 482.696 218.522 482.696H226.122ZM238.278 482.696C238.966 482.696 239.43 482.056 239.43 481.416C239.43 480.76 238.966 480.136 238.278 480.136H231.91C231.99 479.064 233.734 478.104 235.238 477.416C237.686 476.296 239.078 475.64 239.078 473.176C239.078 470.84 236.806 469.16 234.022 469.16C231.718 469.16 229.718 470.44 229.11 472.552C228.886 473.32 229.382 474.024 230.134 474.136C230.854 474.248 231.478 473.944 231.766 473.24C232.182 472.232 232.982 471.736 234.054 471.736C235.574 471.736 236.23 472.488 236.23 473.208C236.23 474.184 235.702 474.52 234.006 475.304C231.59 476.424 228.87 477.448 228.87 480.904C228.87 482.088 229.478 482.696 230.678 482.696H238.278ZM241.443 471.416C241.059 472.024 241.283 472.824 241.923 473.192C242.611 473.592 243.379 473.368 243.731 472.84C244.195 472.152 244.979 471.672 246.067 471.672C247.139 471.672 248.083 472.216 248.083 473.112C248.083 474.232 246.867 474.552 245.683 474.552C244.947 474.552 244.435 474.968 244.435 475.768C244.435 476.568 244.947 476.984 245.683 476.984C247.123 476.984 248.483 477.416 248.483 478.648C248.483 479.688 247.523 480.376 246.035 480.376C244.851 480.376 244.003 479.736 243.475 478.968C243.027 478.328 242.147 478.376 241.603 478.728C241.075 479.08 240.851 479.784 241.203 480.44C242.019 481.96 243.779 482.856 245.907 482.856C248.867 482.856 251.331 481.288 251.331 478.648C251.331 477.048 250.323 476.04 249.235 475.768C250.179 475.336 250.931 474.392 250.931 472.968C250.931 471.016 249.059 469.16 246.019 469.16C243.891 469.16 242.243 470.136 241.443 471.416ZM253.349 471.416C252.965 472.024 253.189 472.824 253.829 473.192C254.517 473.592 255.285 473.368 255.637 472.84C256.101 472.152 256.885 471.672 257.973 471.672C259.045 471.672 259.989 472.216 259.989 473.112C259.989 474.232 258.773 474.552 257.589 474.552C256.853 474.552 256.341 474.968 256.341 475.768C256.341 476.568 256.853 476.984 257.589 476.984C259.029 476.984 260.389 477.416 260.389 478.648C260.389 479.688 259.429 480.376 257.941 480.376C256.757 480.376 255.909 479.736 255.381 478.968C254.933 478.328 254.053 478.376 253.509 478.728C252.981 479.08 252.757 479.784 253.109 480.44C253.925 481.96 255.685 482.856 257.813 482.856C260.773 482.856 263.237 481.288 263.237 478.648C263.237 477.048 262.229 476.04 261.141 475.768C262.085 475.336 262.837 474.392 262.837 472.968C262.837 471.016 260.965 469.16 257.925 469.16C255.797 469.16 254.149 470.136 253.349 471.416Z" fill="white"/>
<defs>
<clipPath id="clip0_923_446">
<rect width="85" height="23" fill="white" transform="translate(145 67)"/>
</clipPath>
<clipPath id="clip1_923_446">
<rect width="44" height="44" fill="white" transform="translate(165 393)"/>
</clipPath>
</defs>
</svg>
