<svg width="375" height="568" viewBox="0 0 375 568" fill="none" xmlns="http://www.w3.org/2000/svg">
<path d="M0 0H375V568H187.5H0V0Z" fill="#65B683"/>
<path d="M22.9964 122.552C24.1484 122.552 25.1244 121.608 25.1244 120.28C25.1244 118.936 24.1484 117.992 22.9964 117.992C21.8284 117.992 20.8684 118.936 20.8684 120.28C20.8684 121.608 21.8284 122.552 22.9964 122.552ZM42.328 112.008C39.144 112.008 37.128 113.064 37.128 114.808C37.128 116.568 39.144 117.608 42.328 117.608C45.528 117.608 47.544 116.568 47.544 114.808C47.544 113.064 45.528 112.008 42.328 112.008ZM42.328 113.32C44.504 113.32 45.816 113.832 45.816 114.808C45.816 115.768 44.504 116.296 42.328 116.296C40.152 116.296 38.856 115.768 38.856 114.808C38.856 113.832 40.152 113.32 42.328 113.32ZM37.304 121.256V126.152H47.336V121.256H37.304ZM45.704 122.6V124.808H38.952V122.6H45.704ZM35.72 118.68V120.008H48.936V118.68H35.72ZM54.0387 112.392V113.8C54.0387 115.832 52.7587 117.8 50.4387 118.6L51.2707 119.928C53.9107 119 55.4307 116.568 55.4307 113.8V112.392H54.0387ZM54.3587 112.392V113.8C54.3587 116.504 55.8467 118.776 58.4548 119.672L59.2867 118.344C57.0148 117.608 55.7347 115.768 55.7347 113.8V112.392H54.3587ZM52.5987 121.16V122.52H60.7747V126.328H62.4548V121.16H52.5987ZM60.7747 111.704V120.472H62.4548V111.704H60.7747ZM72.9175 115.224V116.6H75.9575V115.224H72.9175ZM75.5095 111.704V120.216H77.1895V111.704H75.5095ZM67.5895 120.872V126.152H77.1895V120.872H67.5895ZM75.5415 122.2V124.808H69.2375V122.2H75.5415ZM68.6455 113.08V114.152C68.6455 116.12 67.3335 118.04 65.0615 118.824L65.9095 120.152C68.5175 119.24 70.0055 116.856 70.0055 114.152V113.08H68.6455ZM68.9815 113.08V114.136C68.9815 116.664 70.4055 118.968 72.9335 119.848L73.7655 118.52C71.5735 117.752 70.3255 115.944 70.3255 114.136V113.08H68.9815ZM65.5415 112.552V113.896H73.3815V112.552H65.5415ZM85.6363 117.256V118.616H88.2283V117.256H85.6363ZM90.6283 111.704V126.328H92.2283V111.704H90.6283ZM87.6843 111.976V125.624H89.2683V111.976H87.6843ZM83.0283 112.84C81.1243 112.84 79.8923 114.824 79.8923 118.024C79.8923 121.24 81.1243 123.224 83.0283 123.224C84.9483 123.224 86.1803 121.24 86.1803 118.024C86.1803 114.824 84.9483 112.84 83.0283 112.84ZM83.0283 114.408C84.0363 114.408 84.6443 115.72 84.6443 118.024C84.6443 120.328 84.0363 121.64 83.0283 121.64C82.0363 121.64 81.4283 120.328 81.4283 118.024C81.4283 115.72 82.0363 114.408 83.0283 114.408ZM103.613 113.224V113.768C103.613 115.496 101.533 117.16 98.6688 117.544L99.3088 118.856C102.589 118.36 105.069 116.36 105.069 113.768V113.224H103.613ZM104.077 113.224V113.768C104.077 116.36 106.541 118.36 109.837 118.856L110.461 117.544C107.613 117.16 105.517 115.496 105.517 113.768V113.224H104.077ZM103.693 120.856V126.328H105.357V120.856H103.693ZM97.9648 119.912V121.272H111.181V119.912H97.9648ZM99.1648 112.536V113.88H109.933V112.536H99.1648ZM112.619 119.064V120.408H125.867V119.064H112.619ZM118.539 119.912V123.144H120.203V119.912H118.539ZM114.283 112.36V117.624H124.155V112.36H114.283ZM122.507 113.688V116.296H115.931V113.688H122.507ZM114.235 124.68V126.04H124.395V124.68H114.235ZM114.235 121.816V125.144H115.899V121.816H114.235ZM134.564 112.904V115.304C134.564 118.104 133.06 120.92 130.724 121.976L131.732 123.368C134.356 122.088 135.94 118.84 135.94 115.304V112.904H134.564ZM134.884 112.904V115.304C134.884 118.712 136.468 121.832 139.044 123.048L140.036 121.704C137.732 120.68 136.244 117.992 136.244 115.304V112.904H134.884ZM141.204 111.688V126.344H142.884V111.688H141.204ZM158.717 111.688V126.344H160.397V111.688H158.717ZM160.013 117.304V118.696H162.669V117.304H160.013ZM149.661 121.368V122.76H150.845C153.501 122.76 155.453 122.68 157.693 122.28L157.517 120.872C155.357 121.272 153.437 121.368 150.845 121.368H149.661ZM149.661 113.08V122.008H151.325V114.44H156.461V113.08H149.661ZM167.691 120.52V122.92H169.371V120.52H167.691ZM174.091 111.704V126.328H175.771V111.704H174.091ZM164.027 123.704C166.667 123.704 170.139 123.672 173.355 123.112L173.243 121.88C170.123 122.296 166.523 122.312 163.819 122.328L164.027 123.704ZM164.107 113.416V114.744H172.955V113.416H164.107ZM168.523 115.464C166.411 115.464 164.955 116.552 164.955 118.184C164.955 119.832 166.411 120.904 168.523 120.904C170.651 120.904 172.107 119.832 172.107 118.184C172.107 116.552 170.651 115.464 168.523 115.464ZM168.523 116.744C169.691 116.744 170.507 117.304 170.507 118.184C170.507 119.08 169.691 119.624 168.523 119.624C167.371 119.624 166.555 119.08 166.555 118.184C166.555 117.304 167.371 116.744 168.523 116.744ZM167.691 111.736V114.168H169.371V111.736H167.691ZM181.53 116.632V119.352H183.194V116.632H181.53ZM186.794 116.632V119.352H188.458V116.632H186.794ZM178.394 118.808V120.136H191.61V118.808H178.394ZM184.986 121.08C181.834 121.08 179.946 122.024 179.946 123.688C179.946 125.368 181.834 126.312 184.986 126.312C188.122 126.312 190.026 125.368 190.026 123.688C190.026 122.024 188.122 121.08 184.986 121.08ZM184.986 122.36C187.13 122.36 188.33 122.824 188.33 123.688C188.33 124.568 187.13 125.032 184.986 125.032C182.842 125.032 181.642 124.568 181.642 123.688C181.642 122.824 182.842 122.36 184.986 122.36ZM185.002 111.944C181.802 111.944 179.802 112.984 179.802 114.712C179.802 116.44 181.802 117.448 185.002 117.448C188.202 117.448 190.218 116.44 190.218 114.712C190.218 112.984 188.202 111.944 185.002 111.944ZM185.002 113.24C187.194 113.24 188.49 113.752 188.49 114.712C188.49 115.656 187.194 116.168 185.002 116.168C182.826 116.168 181.53 115.656 181.53 114.712C181.53 113.752 182.826 113.24 185.002 113.24ZM203.465 111.704V126.328H205.145V111.704H203.465ZM199.177 113.256V113.544C199.177 117.448 197.401 120.344 193.193 122.376L194.073 123.72C199.097 121.272 200.825 117.592 200.825 113.256H199.177ZM193.913 113.256V114.6H199.929V113.256H193.913ZM207.736 118.392V119.64H220.984V118.392H207.736ZM209.272 120.616V121.784H217.72V122.792H209.304V125.4H210.968V123.896H219.368V120.616H209.272ZM209.304 125V126.168H219.816V125H209.304ZM209.4 112.056V113.208H217.672V114.184H209.416V116.68H211.08V115.272H219.32V112.056H209.4ZM209.416 116.312V117.48H219.592V116.312H209.416ZM229.056 119.192V123.432H230.72V119.192H229.056ZM234.416 119.192V123.432H236.096V119.192H234.416ZM225.968 123.16V124.536H239.216V123.16H225.968ZM232.56 112.536C229.44 112.536 227.184 114.04 227.184 116.376C227.184 118.696 229.44 120.2 232.56 120.2C235.68 120.2 237.936 118.696 237.936 116.376C237.936 114.04 235.68 112.536 232.56 112.536ZM232.56 113.848C234.768 113.848 236.304 114.824 236.304 116.376C236.304 117.912 234.768 118.888 232.56 118.888C230.352 118.888 228.816 117.912 228.816 116.376C228.816 114.824 230.352 113.848 232.56 113.848ZM244.111 114.232V114.808C244.111 116.648 242.847 118.376 240.607 119.064L241.407 120.376C243.999 119.56 245.471 117.352 245.471 114.808V114.232H244.111ZM244.415 114.232V114.808C244.415 117.208 245.951 119.256 248.575 120.008L249.327 118.696C247.087 118.072 245.791 116.488 245.791 114.808V114.232H244.415ZM241.039 113.352V114.696H248.863V113.352H241.039ZM244.111 111.64V113.864H245.791V111.64H244.111ZM248.431 115.752V117.112H251.503V115.752H248.431ZM251.071 111.704V120.552H252.751V111.704H251.071ZM247.871 120.872C244.815 120.872 242.943 121.864 242.943 123.592C242.943 125.304 244.815 126.312 247.871 126.312C250.927 126.312 252.799 125.304 252.799 123.592C252.799 121.864 250.927 120.872 247.871 120.872ZM247.871 122.168C249.951 122.168 251.135 122.664 251.135 123.592C251.135 124.504 249.951 125.016 247.871 125.016C245.791 125.016 244.607 124.504 244.607 123.592C244.607 122.664 245.791 122.168 247.871 122.168ZM255.278 114.072V115.416H262.414V114.072H255.278ZM258.862 116.248C257.038 116.248 255.694 117.656 255.694 119.656C255.694 121.656 257.038 123.048 258.862 123.048C260.702 123.048 262.03 121.656 262.03 119.656C262.03 117.656 260.702 116.248 258.862 116.248ZM258.862 117.656C259.838 117.656 260.542 118.456 260.542 119.656C260.542 120.872 259.838 121.64 258.862 121.64C257.886 121.64 257.182 120.872 257.182 119.656C257.182 118.456 257.886 117.656 258.862 117.656ZM266.158 111.704V126.328H267.758V111.704H266.158ZM264.078 117.768V119.128H266.686V117.768H264.078ZM263.054 112.008V125.656H264.622V112.008H263.054ZM258.046 112.12V114.904H259.694V112.12H258.046ZM275.628 113.224V113.768C275.628 115.496 273.548 117.16 270.684 117.544L271.324 118.856C274.604 118.36 277.084 116.36 277.084 113.768V113.224H275.628ZM276.092 113.224V113.768C276.092 116.36 278.556 118.36 281.852 118.856L282.476 117.544C279.628 117.16 277.532 115.496 277.532 113.768V113.224H276.092ZM275.708 120.856V126.328H277.372V120.856H275.708ZM269.98 119.912V121.272H283.196V119.912H269.98ZM271.18 112.536V113.88H281.948V112.536H271.18ZM295.083 111.688V126.344H296.779V111.688H295.083ZM292.155 114.76V116.136H295.995V114.76H292.155ZM292.155 118.36V119.752H295.995V118.36H292.155ZM288.251 112.904V115.304C288.251 118.04 286.843 120.856 284.539 121.96L285.595 123.288C288.091 121.992 289.595 118.744 289.595 115.304V112.904H288.251ZM288.587 112.904V115.304C288.587 118.712 290.043 121.848 292.555 123.112L293.579 121.768C291.323 120.728 289.931 118.024 289.931 115.304V112.904H288.587ZM303.21 112.776C301.034 112.776 299.466 114.776 299.466 117.928C299.466 121.08 301.034 123.096 303.21 123.096C305.386 123.096 306.954 121.08 306.954 117.928C306.954 114.776 305.386 112.776 303.21 112.776ZM303.21 114.296C304.474 114.296 305.354 115.656 305.354 117.928C305.354 120.216 304.474 121.592 303.21 121.592C301.946 121.592 301.066 120.216 301.066 117.928C301.066 115.656 301.946 114.296 303.21 114.296ZM310.186 115.256V116.648H312.826V115.256H310.186ZM310.186 119.576V120.968H312.826V119.576H310.186ZM308.97 111.704V126.328H310.65V111.704H308.97ZM327.186 111.688V126.344H328.866V111.688H327.186ZM328.482 117.304V118.696H331.138V117.304H328.482ZM318.13 121.368V122.76H319.314C321.97 122.76 323.922 122.68 326.162 122.28L325.986 120.872C323.826 121.272 321.906 121.368 319.314 121.368H318.13ZM318.13 113.08V122.008H319.794V114.44H324.93V113.08H318.13ZM336.161 120.52V122.92H337.841V120.52H336.161ZM342.561 111.704V126.328H344.241V111.704H342.561ZM332.497 123.704C335.137 123.704 338.609 123.672 341.825 123.112L341.713 121.88C338.593 122.296 334.993 122.312 332.289 122.328L332.497 123.704ZM332.577 113.416V114.744H341.425V113.416H332.577ZM336.993 115.464C334.881 115.464 333.425 116.552 333.425 118.184C333.425 119.832 334.881 120.904 336.993 120.904C339.121 120.904 340.577 119.832 340.577 118.184C340.577 116.552 339.121 115.464 336.993 115.464ZM336.993 116.744C338.161 116.744 338.977 117.304 338.977 118.184C338.977 119.08 338.161 119.624 336.993 119.624C335.841 119.624 335.025 119.08 335.025 118.184C335.025 117.304 335.841 116.744 336.993 116.744ZM336.161 111.736V114.168H337.841V111.736H336.161ZM350 116.632V119.352H351.664V116.632H350ZM355.264 116.632V119.352H356.928V116.632H355.264ZM346.864 118.808V120.136H360.08V118.808H346.864ZM353.456 121.08C350.304 121.08 348.416 122.024 348.416 123.688C348.416 125.368 350.304 126.312 353.456 126.312C356.592 126.312 358.496 125.368 358.496 123.688C358.496 122.024 356.592 121.08 353.456 121.08ZM353.456 122.36C355.6 122.36 356.8 122.824 356.8 123.688C356.8 124.568 355.6 125.032 353.456 125.032C351.312 125.032 350.112 124.568 350.112 123.688C350.112 122.824 351.312 122.36 353.456 122.36ZM353.472 111.944C350.272 111.944 348.272 112.984 348.272 114.712C348.272 116.44 350.272 117.448 353.472 117.448C356.672 117.448 358.688 116.44 358.688 114.712C358.688 112.984 356.672 111.944 353.472 111.944ZM353.472 113.24C355.664 113.24 356.96 113.752 356.96 114.712C356.96 115.656 355.664 116.168 353.472 116.168C351.296 116.168 350 115.656 350 114.712C350 113.752 351.296 113.24 353.472 113.24ZM46.12 147.704V162.328H47.8V147.704H46.12ZM41.832 149.256V149.544C41.832 153.448 40.056 156.344 35.848 158.376L36.728 159.72C41.752 157.272 43.48 153.592 43.48 149.256H41.832ZM36.568 149.256V150.6H42.584V149.256H36.568ZM61.2805 152.488V153.848H65.2485V152.488H61.2805ZM57.5525 148.904V151.304C57.5525 154.04 56.1445 156.856 53.8405 157.96L54.8965 159.304C57.4085 158.008 58.9125 154.744 58.9125 151.304V148.904H57.5525ZM57.8885 148.904V151.304C57.8885 154.696 59.3445 157.784 61.8725 159.048L62.8805 157.704C60.6245 156.664 59.2325 154.008 59.2325 151.304V148.904H57.8885ZM64.4165 147.688V162.344H66.0805V147.688H64.4165ZM78.9752 147.688V162.344H80.6552V147.688H78.9752ZM69.3912 148.904V158.872H76.4152V148.904H74.7512V152.632H71.0552V148.904H69.3912ZM71.0552 153.944H74.7512V157.512H71.0552V153.944ZM88.958 148.632V149.736C88.958 152.04 86.622 154.312 83.726 154.84L84.462 156.232C87.758 155.528 90.414 152.904 90.414 149.736V148.632H88.958ZM89.278 148.632V149.736C89.278 152.936 91.934 155.528 95.23 156.232L95.966 154.84C93.07 154.312 90.734 152.072 90.734 149.736V148.632H89.278ZM83.294 159.064V160.44H96.542V159.064H83.294ZM107.613 147.688V162.312H109.293V147.688H107.613ZM108.845 153.48V154.856H111.485V153.48H108.845ZM103.821 149.24V149.528C103.821 153.432 101.885 156.36 97.9328 158.376L98.8768 159.656C103.661 157.256 105.469 153.496 105.469 149.24H103.821ZM98.6688 149.24V150.6H104.685V149.24H98.6688ZM127.045 147.704V162.328H128.645V147.704H127.045ZM121.941 152.84V154.216H124.581V152.84H121.941ZM124.101 147.992V161.608H125.669V147.992H124.101ZM118.981 150.024V151.72C118.981 154.328 118.021 156.968 115.941 158.248L116.949 159.496C119.173 158.088 120.261 154.952 120.261 151.72V150.024H118.981ZM119.349 150.024V151.72C119.349 154.856 120.373 157.816 122.597 159.144L123.589 157.912C121.541 156.712 120.613 154.216 120.613 151.72V150.024H119.349ZM116.405 149.304V150.664H123.013V149.304H116.405ZM137.38 156.872C134.26 156.872 132.26 157.896 132.26 159.608C132.26 161.288 134.26 162.312 137.38 162.312C140.516 162.312 142.516 161.288 142.516 159.608C142.516 157.896 140.516 156.872 137.38 156.872ZM137.38 158.152C139.54 158.152 140.852 158.68 140.852 159.608C140.852 160.504 139.54 161.032 137.38 161.032C135.236 161.032 133.924 160.504 133.924 159.608C133.924 158.68 135.236 158.152 137.38 158.152ZM132.388 148.408V149.736H141.732V148.408H132.388ZM130.868 154.392V155.72H144.036V154.392H130.868ZM136.036 151.688V154.744H137.7V151.688H136.036ZM140.756 148.408V149.624C140.756 150.76 140.756 151.832 140.356 153.336L142.02 153.512C142.42 152.008 142.42 150.792 142.42 149.624V148.408H140.756ZM149.507 152.632V155.032H151.187V152.632H149.507ZM155.923 147.704V156.152H157.603V147.704H155.923ZM145.779 155.896C148.371 155.88 151.827 155.832 154.963 155.272L154.851 154.104C151.795 154.536 148.211 154.568 145.555 154.568L145.779 155.896ZM146.835 151.8V153.128H153.891V151.8H146.835ZM146.835 148.408V152.264H148.515V149.752H153.779V148.408H146.835ZM147.875 156.776V162.152H157.603V156.776H155.939V158.12H149.539V156.776H147.875ZM149.539 159.4H155.939V160.808H149.539V159.4ZM170.594 147.704V162.328H172.258V147.704H170.594ZM161.042 149.112V158.184H162.706V149.112H161.042ZM161.042 157.192V158.632H162.29C164.562 158.632 166.914 158.472 169.442 157.944L169.25 156.536C166.802 157.032 164.466 157.192 162.29 157.192H161.042ZM184.512 147.688V162.344H186.192V147.688H184.512ZM185.808 153.304V154.696H188.464V153.304H185.808ZM175.456 157.368V158.76H176.64C179.296 158.76 181.248 158.68 183.488 158.28L183.312 156.872C181.152 157.272 179.232 157.368 176.64 157.368H175.456ZM175.456 149.08V158.008H177.12V150.44H182.256V149.08H175.456ZM191.183 161.224C191.871 161.224 192.415 160.68 192.415 159.928C192.415 159.16 191.871 158.632 191.183 158.632C190.479 158.632 189.951 159.16 189.951 159.928C189.951 160.68 190.479 161.224 191.183 161.224ZM22.9964 194.552C24.1484 194.552 25.1244 193.608 25.1244 192.28C25.1244 190.936 24.1484 189.992 22.9964 189.992C21.8284 189.992 20.8684 190.936 20.8684 192.28C20.8684 193.608 21.8284 194.552 22.9964 194.552ZM46.088 183.688V198.344H47.768V183.688H46.088ZM39.976 184.776C37.8 184.776 36.216 186.776 36.216 189.928C36.216 193.08 37.8 195.096 39.976 195.096C42.168 195.096 43.752 193.08 43.752 189.928C43.752 186.776 42.168 184.776 39.976 184.776ZM39.976 186.296C41.256 186.296 42.136 187.656 42.136 189.928C42.136 192.216 41.256 193.592 39.976 193.592C38.696 193.592 37.816 192.216 37.816 189.928C37.816 187.656 38.696 186.296 39.976 186.296ZM53.5267 188.632V191.352H55.1908V188.632H53.5267ZM58.7908 188.632V191.352H60.4548V188.632H58.7908ZM50.3907 190.808V192.136H63.6068V190.808H50.3907ZM56.9827 193.08C53.8307 193.08 51.9427 194.024 51.9427 195.688C51.9427 197.368 53.8307 198.312 56.9827 198.312C60.1188 198.312 62.0227 197.368 62.0227 195.688C62.0227 194.024 60.1188 193.08 56.9827 193.08ZM56.9827 194.36C59.1267 194.36 60.3267 194.824 60.3267 195.688C60.3267 196.568 59.1267 197.032 56.9827 197.032C54.8387 197.032 53.6387 196.568 53.6387 195.688C53.6387 194.824 54.8387 194.36 56.9827 194.36ZM56.9988 183.944C53.7987 183.944 51.7987 184.984 51.7987 186.712C51.7987 188.44 53.7987 189.448 56.9988 189.448C60.1988 189.448 62.2148 188.44 62.2148 186.712C62.2148 184.984 60.1988 183.944 56.9988 183.944ZM56.9988 185.24C59.1908 185.24 60.4868 185.752 60.4868 186.712C60.4868 187.656 59.1908 188.168 56.9988 188.168C54.8228 188.168 53.5267 187.656 53.5267 186.712C53.5267 185.752 54.8228 185.24 56.9988 185.24ZM74.7255 183.688V198.312H76.4055V183.688H74.7255ZM75.9575 189.48V190.856H78.5975V189.48H75.9575ZM70.9335 185.24V185.528C70.9335 189.432 68.9975 192.36 65.0455 194.376L65.9895 195.656C70.7735 193.256 72.5815 189.496 72.5815 185.24H70.9335ZM65.7815 185.24V186.6H71.7975V185.24H65.7815ZM81.4763 187.576V188.92H91.4763V187.576H81.4763ZM81.4763 183.976V188.184H83.1403V183.976H81.4763ZM79.7483 190.424V191.768H92.9643V190.424H79.7483ZM86.3243 192.92C83.1883 192.92 81.2843 193.88 81.2843 195.608C81.2843 197.304 83.1883 198.28 86.3243 198.28C89.4603 198.28 91.3643 197.304 91.3643 195.608C91.3643 193.88 89.4603 192.92 86.3243 192.92ZM86.3243 194.216C88.4683 194.216 89.6683 194.68 89.6683 195.608C89.6683 196.488 88.4683 196.984 86.3243 196.984C84.1803 196.984 82.9803 196.488 82.9803 195.608C82.9803 194.68 84.1803 194.216 86.3243 194.216ZM105.299 183.704V198.328H106.899V183.704H105.299ZM103.219 189.4V190.76H105.859V189.4H103.219ZM102.067 183.976V197.624H103.651V183.976H102.067ZM94.883 185.304V194.52H100.547V185.304H94.883ZM98.979 186.632V193.208H96.451V186.632H98.979ZM112.53 185.304V186.36C112.53 188.36 111.25 190.248 108.962 191.032L109.794 192.36C112.418 191.464 113.906 189.096 113.906 186.36V185.304H112.53ZM112.85 185.304V186.36C112.85 188.888 114.274 191.064 116.866 191.896L117.666 190.584C115.426 189.864 114.21 188.168 114.21 186.36V185.304H112.85ZM109.426 184.744V186.088H117.282V184.744H109.426ZM118.818 183.704V192.456H120.498V183.704H118.818ZM120.034 187.256V188.648H122.562V187.256H120.034ZM115.794 192.792C112.786 192.792 110.914 193.816 110.914 195.544C110.914 197.288 112.786 198.312 115.794 198.312C118.786 198.312 120.658 197.288 120.658 195.544C120.658 193.816 118.786 192.792 115.794 192.792ZM115.794 194.12C117.826 194.12 118.994 194.616 118.994 195.544C118.994 196.488 117.826 197 115.794 197C113.762 197 112.578 196.488 112.578 195.544C112.578 194.616 113.762 194.12 115.794 194.12ZM129.648 189.256V190.616H132.24V189.256H129.648ZM134.64 183.704V198.328H136.24V183.704H134.64ZM131.696 183.976V197.624H133.28V183.976H131.696ZM127.04 184.84C125.136 184.84 123.904 186.824 123.904 190.024C123.904 193.24 125.136 195.224 127.04 195.224C128.96 195.224 130.192 193.24 130.192 190.024C130.192 186.824 128.96 184.84 127.04 184.84ZM127.04 186.408C128.048 186.408 128.656 187.72 128.656 190.024C128.656 192.328 128.048 193.64 127.04 193.64C126.048 193.64 125.44 192.328 125.44 190.024C125.44 187.72 126.048 186.408 127.04 186.408ZM145.759 188.488V189.848H149.727V188.488H145.759ZM142.031 184.904V187.304C142.031 190.04 140.623 192.856 138.319 193.96L139.375 195.304C141.887 194.008 143.391 190.744 143.391 187.304V184.904H142.031ZM142.367 184.904V187.304C142.367 190.696 143.823 193.784 146.351 195.048L147.359 193.704C145.103 192.664 143.711 190.008 143.711 187.304V184.904H142.367ZM148.895 183.688V198.344H150.559V183.688H148.895ZM164.424 187.624V188.984H167.992V187.624H164.424ZM167.08 183.72V194.408H168.76V183.72H167.08ZM159.288 196.68V198.04H169.128V196.68H159.288ZM159.288 193.48V197.432H160.952V193.48H159.288ZM160.216 185.576V186.632C160.216 188.616 158.904 190.536 156.632 191.32L157.48 192.664C160.088 191.736 161.576 189.336 161.576 186.632V185.576H160.216ZM160.552 185.576V186.632C160.552 189.16 161.976 191.464 164.504 192.344L165.336 191.032C163.144 190.264 161.896 188.44 161.896 186.632V185.576H160.552ZM157.112 184.808V186.152H164.952V184.808H157.112ZM174.919 192.392V194.76H176.599V192.392H174.919ZM181.063 183.704V198.328H182.743V183.704H181.063ZM182.183 189.8V191.192H184.823V189.8H182.183ZM171.367 195.704C173.879 195.704 177.255 195.688 180.375 195.112L180.247 193.88C177.255 194.312 173.719 194.328 171.143 194.328L171.367 195.704ZM171.399 185.4V186.728H180.087V185.4H171.399ZM175.751 187.464C173.687 187.464 172.263 188.552 172.263 190.184C172.263 191.832 173.687 192.904 175.751 192.904C177.815 192.904 179.255 191.832 179.255 190.184C179.255 188.552 177.815 187.464 175.751 187.464ZM175.751 188.744C176.903 188.744 177.671 189.304 177.671 190.184C177.671 191.08 176.903 191.624 175.751 191.624C174.599 191.624 173.847 191.08 173.847 190.184C173.847 189.304 174.599 188.744 175.751 188.744ZM174.919 183.752V186.344H176.599V183.752H174.919ZM185.989 195.24V196.616H199.237V195.24H185.989ZM191.749 192.264V195.8H193.413V192.264H191.749ZM187.541 184.728V186.072H195.989V188.024H187.573V192.072H189.237V189.352H197.653V184.728H187.541ZM187.573 191.384V192.744H197.989V191.384H187.573ZM204.67 185.048V194.76H210.334V185.048H208.782V188.488H206.254V185.048H204.67ZM206.254 189.816H208.782V193.4H206.254V189.816ZM215.086 183.704V198.328H216.686V183.704H215.086ZM212.974 189.4V190.76H215.614V189.4H212.974ZM211.854 183.976V197.624H213.438V183.976H211.854ZM219.453 189.24V190.584H220.621C223.677 190.584 225.453 190.504 227.437 190.072L227.245 188.76C225.309 189.144 223.613 189.24 220.621 189.24H219.453ZM219.453 184.504V190.008H221.117V185.832H225.949V184.504H219.453ZM228.605 183.704V191.016H230.285V183.704H228.605ZM229.821 186.632V188.008H232.349V186.632H229.821ZM220.845 191.704V193.032H228.637V194.248H220.861V197.528H222.525V195.496H230.285V191.704H220.845ZM220.861 196.808V198.152H230.765V196.808H220.861ZM242.741 185.224V185.768C242.741 187.496 240.661 189.16 237.797 189.544L238.437 190.856C241.717 190.36 244.197 188.36 244.197 185.768V185.224H242.741ZM243.205 185.224V185.768C243.205 188.36 245.669 190.36 248.965 190.856L249.589 189.544C246.741 189.16 244.645 187.496 244.645 185.768V185.224H243.205ZM242.821 192.856V198.328H244.485V192.856H242.821ZM237.093 191.912V193.272H250.309V191.912H237.093ZM238.293 184.536V185.88H249.061V184.536H238.293ZM251.748 191.064V192.408H264.996V191.064H251.748ZM257.668 191.912V195.144H259.332V191.912H257.668ZM253.412 184.36V189.624H263.284V184.36H253.412ZM261.636 185.688V188.296H255.06V185.688H261.636ZM253.364 196.68V198.04H263.524V196.68H253.364ZM253.364 193.816V197.144H255.028V193.816H253.364ZM276.787 183.688V198.344H278.467V183.688H276.787ZM270.675 184.776C268.499 184.776 266.915 186.776 266.915 189.928C266.915 193.08 268.499 195.096 270.675 195.096C272.867 195.096 274.451 193.08 274.451 189.928C274.451 186.776 272.867 184.776 270.675 184.776ZM270.675 186.296C271.955 186.296 272.835 187.656 272.835 189.928C272.835 192.216 271.955 193.592 270.675 193.592C269.395 193.592 268.515 192.216 268.515 189.928C268.515 187.656 269.395 186.296 270.675 186.296ZM294.299 183.688V198.312H295.979V183.688H294.299ZM295.531 189.48V190.856H298.171V189.48H295.531ZM290.507 185.24V185.528C290.507 189.432 288.571 192.36 284.619 194.376L285.563 195.656C290.347 193.256 292.155 189.496 292.155 185.24H290.507ZM285.355 185.24V186.6H291.371V185.24H285.355ZM301.05 187.576V188.92H311.05V187.576H301.05ZM301.05 183.976V188.184H302.714V183.976H301.05ZM299.322 190.424V191.768H312.538V190.424H299.322ZM305.898 192.92C302.762 192.92 300.858 193.88 300.858 195.608C300.858 197.304 302.762 198.28 305.898 198.28C309.034 198.28 310.938 197.304 310.938 195.608C310.938 193.88 309.034 192.92 305.898 192.92ZM305.898 194.216C308.042 194.216 309.242 194.68 309.242 195.608C309.242 196.488 308.042 196.984 305.898 196.984C303.754 196.984 302.554 196.488 302.554 195.608C302.554 194.68 303.754 194.216 305.898 194.216ZM323.721 183.704V192.232H325.401V183.704H323.721ZM324.713 187.336V188.728H327.465V187.336H324.713ZM316.073 192.84V198.152H325.401V192.84H323.737V194.184H317.721V192.84H316.073ZM317.721 195.464H323.737V196.824H317.721V195.464ZM314.009 185.096V186.44H322.617V185.096H314.009ZM318.313 186.984C316.201 186.984 314.761 188.008 314.761 189.56C314.761 191.112 316.201 192.136 318.313 192.136C320.409 192.136 321.849 191.112 321.849 189.56C321.849 188.008 320.409 186.984 318.313 186.984ZM318.313 188.232C319.465 188.232 320.249 188.744 320.249 189.56C320.249 190.392 319.465 190.904 318.313 190.904C317.161 190.904 316.377 190.392 316.377 189.56C316.377 188.744 317.161 188.232 318.313 188.232ZM317.481 183.576V185.832H319.145V183.576H317.481ZM339.063 183.704V198.328H340.727V183.704H339.063ZM329.511 185.112V194.184H331.175V185.112H329.511ZM329.511 193.192V194.632H330.759C333.031 194.632 335.383 194.472 337.911 193.944L337.719 192.536C335.271 193.032 332.935 193.192 330.759 193.192H329.511ZM352.982 183.688V198.344H354.662V183.688H352.982ZM354.278 189.304V190.696H356.934V189.304H354.278ZM343.926 193.368V194.76H345.11C347.766 194.76 349.718 194.68 351.958 194.28L351.782 192.872C349.622 193.272 347.702 193.368 345.11 193.368H343.926ZM343.926 185.08V194.008H345.59V186.44H350.726V185.08H343.926ZM359.653 197.224C360.341 197.224 360.885 196.68 360.885 195.928C360.885 195.16 360.341 194.632 359.653 194.632C358.949 194.632 358.421 195.16 358.421 195.928C358.421 196.68 358.949 197.224 359.653 197.224ZM22.9964 230.552C24.1484 230.552 25.1244 229.608 25.1244 228.28C25.1244 226.936 24.1484 225.992 22.9964 225.992C21.8284 225.992 20.8684 226.936 20.8684 228.28C20.8684 229.608 21.8284 230.552 22.9964 230.552ZM41.464 220.184V220.936C41.464 222.856 39.288 224.68 36.328 225.096L36.984 226.456C40.36 225.912 42.936 223.736 42.936 220.936V220.184H41.464ZM41.768 220.184V220.936C41.768 223.72 44.344 225.912 47.72 226.456L48.376 225.096C45.416 224.68 43.224 222.824 43.224 220.936V220.184H41.768ZM41.464 228.856V234.328H43.128V228.856H41.464ZM35.736 227.8V229.176H48.952V227.8H35.736ZM60.8387 219.704V234.328H62.5028V219.704H60.8387ZM57.6868 225.448V226.824H61.6228V225.448H57.6868ZM56.1027 221.256V221.544C56.1027 225.384 54.5187 228.28 50.3267 230.36L51.2227 231.672C56.1667 229.192 57.7507 225.544 57.7507 221.256H56.1027ZM50.9827 221.256V222.6H56.9827V221.256H50.9827ZM69.3752 220.616V226.68H76.3032V220.616H69.3752ZM74.6712 221.944V225.368H71.0072V221.944H74.6712ZM78.9912 219.704V228.056H80.6712V219.704H78.9912ZM75.0392 229.848V230.088C75.0392 231.368 73.1192 232.728 70.2872 233.016L70.8312 234.28C74.1432 233.912 76.4792 232.184 76.4792 230.088V229.848H75.0392ZM75.3112 229.848V230.088C75.3112 232.12 77.6152 233.912 80.9272 234.28L81.4872 233.016C78.6712 232.712 76.7672 231.32 76.7672 230.088V229.848H75.3112ZM70.8632 228.952V230.232H80.9432V228.952H70.8632ZM75.0552 227.64V229.544H76.7672V227.64H75.0552ZM92.5838 224.792V226.168H95.2238V224.792H92.5838ZM89.6878 221.032V223.672C89.6878 226.168 88.6798 228.776 86.6158 230.024L87.6398 231.288C89.8638 229.928 90.9838 226.84 90.9838 223.672V221.032H89.6878ZM90.0398 221.032V223.608C90.0398 226.584 91.0158 229.608 93.2078 230.968L94.1518 229.656C92.1998 228.424 91.3038 225.96 91.3038 223.608V221.032H90.0398ZM97.7198 219.704V234.328H99.3198V219.704H97.7198ZM94.7438 219.976V233.624H96.3118V219.976H94.7438ZM109.238 223.848V225.224H112.262V223.848H109.238ZM103.766 229.288V230.648H111.942V234.344H113.622V229.288H103.766ZM111.942 219.704V228.584H113.622V219.704H111.942ZM104.982 222.344V222.92C104.982 224.76 103.718 226.504 101.478 227.208L102.278 228.52C104.87 227.688 106.342 225.496 106.342 222.92V222.344H104.982ZM105.286 222.344V222.92C105.286 225.368 106.806 227.48 109.414 228.264L110.182 226.952C107.942 226.296 106.662 224.648 106.662 222.92V222.344H105.286ZM101.91 221.368V222.696H109.734V221.368H101.91ZM104.982 219.64V221.992H106.662V219.64H104.982ZM116.165 227.288V228.632H129.381V227.288H116.165ZM117.829 232.68V234.04H127.909V232.68H117.829ZM117.829 229.784V233.096H119.509V229.784H117.829ZM122.773 220.168C119.621 220.168 117.573 221.288 117.573 223.128C117.573 224.968 119.621 226.088 122.773 226.088C125.925 226.088 127.989 224.968 127.989 223.128C127.989 221.288 125.925 220.168 122.773 220.168ZM122.773 221.512C124.933 221.512 126.261 222.104 126.261 223.128C126.261 224.168 124.933 224.744 122.773 224.744C120.629 224.744 119.301 224.168 119.301 223.128C119.301 222.104 120.629 221.512 122.773 221.512ZM144.046 219.688V234.344H145.726V219.688H144.046ZM145.342 225.304V226.696H147.998V225.304H145.342ZM134.99 229.368V230.76H136.174C138.83 230.76 140.782 230.68 143.022 230.28L142.846 228.872C140.686 229.272 138.766 229.368 136.174 229.368H134.99ZM134.99 221.08V230.008H136.654V222.44H141.79V221.08H134.99ZM153.021 228.52V230.92H154.701V228.52H153.021ZM159.421 219.704V234.328H161.101V219.704H159.421ZM149.357 231.704C151.997 231.704 155.469 231.672 158.685 231.112L158.573 229.88C155.453 230.296 151.853 230.312 149.149 230.328L149.357 231.704ZM149.437 221.416V222.744H158.285V221.416H149.437ZM153.853 223.464C151.741 223.464 150.285 224.552 150.285 226.184C150.285 227.832 151.741 228.904 153.853 228.904C155.981 228.904 157.437 227.832 157.437 226.184C157.437 224.552 155.981 223.464 153.853 223.464ZM153.853 224.744C155.021 224.744 155.837 225.304 155.837 226.184C155.837 227.08 155.021 227.624 153.853 227.624C152.701 227.624 151.885 227.08 151.885 226.184C151.885 225.304 152.701 224.744 153.853 224.744ZM153.021 219.736V222.168H154.701V219.736H153.021ZM166.859 224.632V227.352H168.523V224.632H166.859ZM172.123 224.632V227.352H173.787V224.632H172.123ZM163.723 226.808V228.136H176.939V226.808H163.723ZM170.315 229.08C167.163 229.08 165.275 230.024 165.275 231.688C165.275 233.368 167.163 234.312 170.315 234.312C173.451 234.312 175.355 233.368 175.355 231.688C175.355 230.024 173.451 229.08 170.315 229.08ZM170.315 230.36C172.459 230.36 173.659 230.824 173.659 231.688C173.659 232.568 172.459 233.032 170.315 233.032C168.171 233.032 166.971 232.568 166.971 231.688C166.971 230.824 168.171 230.36 170.315 230.36ZM170.331 219.944C167.131 219.944 165.131 220.984 165.131 222.712C165.131 224.44 167.131 225.448 170.331 225.448C173.531 225.448 175.547 224.44 175.547 222.712C175.547 220.984 173.531 219.944 170.331 219.944ZM170.331 221.24C172.523 221.24 173.819 221.752 173.819 222.712C173.819 223.656 172.523 224.168 170.331 224.168C168.155 224.168 166.859 223.656 166.859 222.712C166.859 221.752 168.155 221.24 170.331 221.24ZM188.794 219.704V234.328H190.474V219.704H188.794ZM184.506 221.256V221.544C184.506 225.448 182.73 228.344 178.522 230.376L179.402 231.72C184.426 229.272 186.154 225.592 186.154 221.256H184.506ZM179.242 221.256V222.6H185.258V221.256H179.242ZM204.403 223.624V224.984H207.971V223.624H204.403ZM207.059 219.72V230.408H208.739V219.72H207.059ZM199.267 232.68V234.04H209.107V232.68H199.267ZM199.267 229.48V233.432H200.931V229.48H199.267ZM200.195 221.576V222.632C200.195 224.616 198.883 226.536 196.611 227.32L197.459 228.664C200.067 227.736 201.555 225.336 201.555 222.632V221.576H200.195ZM200.531 221.576V222.632C200.531 225.16 201.955 227.464 204.483 228.344L205.315 227.032C203.123 226.264 201.875 224.44 201.875 222.632V221.576H200.531ZM197.091 220.808V222.152H204.931V220.808H197.091ZM211.281 227.064V228.408H224.529V227.064H211.281ZM217.201 227.912V231.144H218.865V227.912H217.201ZM212.945 220.36V225.624H222.817V220.36H212.945ZM221.169 221.688V224.296H214.593V221.688H221.169ZM212.897 232.68V234.04H223.057V232.68H212.897ZM212.897 229.816V233.144H214.561V229.816H212.897ZM233.328 223.08V224.44H237.136V223.08H233.328ZM229.968 220.344C227.776 220.344 226.16 221.768 226.16 223.784C226.16 225.8 227.776 227.208 229.968 227.208C232.16 227.208 233.776 225.8 233.776 223.784C233.776 221.768 232.16 220.344 229.968 220.344ZM229.968 221.752C231.248 221.752 232.16 222.552 232.16 223.784C232.16 225 231.248 225.816 229.968 225.816C228.688 225.816 227.76 225 227.76 223.784C227.76 222.552 228.688 221.752 229.968 221.752ZM236.4 219.704V227.56H238.08V219.704H236.4ZM228.56 228.248V234.152H238.08V228.248H236.416V229.88H230.224V228.248H228.56ZM230.224 231.192H236.416V232.808H230.224V231.192ZM246.591 225.368V226.744H249.151V225.368H246.591ZM243.423 223.592V224.184C243.423 226.504 242.463 229 240.447 230.184L241.407 231.448C243.631 230.136 244.703 227.144 244.703 224.184V223.592H243.423ZM243.743 223.592V224.184C243.743 227.08 244.847 229.896 247.087 231.112L248.015 229.864C245.999 228.776 245.023 226.456 245.023 224.184V223.592H243.743ZM240.911 222.296V223.656H247.519V222.296H240.911ZM243.423 220.216V223.368H245.023V220.216H243.423ZM251.503 219.704V234.328H253.103V219.704H251.503ZM248.559 219.992V233.608H250.127V219.992H248.559ZM260.439 225.8C261.063 225.8 261.511 225.368 261.511 224.664C261.511 224.008 261.015 223.624 260.439 223.624C260.119 223.624 259.879 223.752 259.639 223.96L260.439 224.984L260.263 223.672C260.263 222.616 260.743 221.976 261.719 221.4L261.239 220.552C259.847 221.32 259.111 222.424 259.111 223.944C259.111 225.128 259.591 225.8 260.439 225.8ZM264.965 221.16V222.504H274.309V221.16H264.965ZM263.573 230.92V232.296H276.789V230.92H263.573ZM273.413 221.16V222.744C273.413 224.632 273.413 226.776 272.853 229.672L274.533 229.832C275.077 226.744 275.077 224.696 275.077 222.744V221.16H273.413ZM288.628 219.688V234.344H290.308V219.688H288.628ZM279.06 229.496V230.872H280.308C282.884 230.872 285.06 230.776 287.588 230.344L287.412 228.984C284.948 229.4 282.82 229.496 280.308 229.496H279.06ZM279.028 221V222.36H284.148V225.08H279.06V230.008H280.756V226.424H285.844V221H279.028ZM294.466 226.184V227.544H304.69V226.184H294.466ZM292.914 231.192V232.552H306.162V231.192H292.914ZM298.674 227V231.592H300.354V227H298.674ZM294.466 220.888V226.776H296.146V220.888H294.466ZM309.297 222.936V224.28H319.281V222.936H309.297ZM307.569 225.496V226.84H320.817V225.496H307.569ZM309.297 219.896V223.608H310.945V219.896H309.297ZM309.153 227.96V229.24H317.521V230.376H309.169V233.208H310.849V231.592H319.185V227.96H309.153ZM309.169 232.856V234.152H319.649V232.856H309.169ZM323.152 225.704C324.56 224.936 325.28 223.816 325.28 222.296C325.28 221.128 324.816 220.456 323.968 220.456C323.328 220.456 322.88 220.872 322.88 221.576C322.88 222.248 323.392 222.632 323.968 222.632C324.272 222.632 324.512 222.504 324.752 222.28L323.952 221.288L324.128 222.584C324.128 223.64 323.648 224.28 322.688 224.872L323.152 225.704ZM332.861 225.256V226.616H335.453V225.256H332.861ZM337.853 219.704V234.328H339.453V219.704H337.853ZM334.909 219.976V233.624H336.493V219.976H334.909ZM330.253 220.84C328.349 220.84 327.117 222.824 327.117 226.024C327.117 229.24 328.349 231.224 330.253 231.224C332.173 231.224 333.405 229.24 333.405 226.024C333.405 222.824 332.173 220.84 330.253 220.84ZM330.253 222.408C331.261 222.408 331.869 223.72 331.869 226.024C331.869 228.328 331.261 229.64 330.253 229.64C329.261 229.64 328.653 228.328 328.653 226.024C328.653 223.72 329.261 222.408 330.253 222.408ZM348.972 224.488V225.848H352.94V224.488H348.972ZM345.244 220.904V223.304C345.244 226.04 343.836 228.856 341.532 229.96L342.588 231.304C345.1 230.008 346.604 226.744 346.604 223.304V220.904H345.244ZM345.58 220.904V223.304C345.58 226.696 347.036 229.784 349.564 231.048L350.572 229.704C348.316 228.664 346.924 226.008 346.924 223.304V220.904H345.58ZM352.108 219.688V234.344H353.772V219.688H352.108ZM39.464 257.32V258.696C39.464 260.664 38.168 262.568 35.864 263.352L36.728 264.664C39.336 263.768 40.856 261.416 40.856 258.696V257.32H39.464ZM39.8 257.32V258.696C39.8 261.304 41.32 263.544 43.896 264.392L44.744 263.08C42.488 262.344 41.176 260.568 41.176 258.696V257.32H39.8ZM36.312 256.84V258.184H44.296V256.84H36.312ZM46.104 255.72V266.344H47.784V255.72H46.104ZM38.232 268.68V270.04H48.2V268.68H38.232ZM38.232 265.368V269.32H39.912V265.368H38.232ZM61.1908 255.704V264.92H62.7748V255.704H61.1908ZM59.0627 259.512V260.888H61.6388V259.512H59.0627ZM58.1027 255.992V264.408H59.6707V255.992H58.1027ZM50.3267 257.336V258.648H57.5908V257.336H50.3267ZM53.9748 259.272C52.1507 259.272 50.8387 260.296 50.8387 261.8C50.8387 263.32 52.1507 264.328 53.9748 264.328C55.8147 264.328 57.1108 263.32 57.1108 261.8C57.1108 260.296 55.8147 259.272 53.9748 259.272ZM53.9748 260.504C54.9507 260.504 55.6068 261 55.6068 261.8C55.6068 262.616 54.9507 263.112 53.9748 263.112C52.9987 263.112 52.3427 262.616 52.3427 261.8C52.3427 261 52.9987 260.504 53.9748 260.504ZM53.1427 255.832V258.168H54.7908V255.832H53.1427ZM57.9108 265.128C54.8228 265.128 52.9667 266.056 52.9667 267.72C52.9667 269.368 54.8228 270.312 57.9108 270.312C60.9987 270.312 62.8548 269.368 62.8548 267.72C62.8548 266.056 60.9987 265.128 57.9108 265.128ZM57.9108 266.392C60.0068 266.392 61.1748 266.84 61.1748 267.72C61.1748 268.584 60.0068 269.048 57.9108 269.048C55.7987 269.048 54.6307 268.584 54.6307 267.72C54.6307 266.84 55.7987 266.392 57.9108 266.392ZM74.8055 255.704V264.232H76.4855V255.704H74.8055ZM75.7975 259.336V260.728H78.5495V259.336H75.7975ZM67.1575 264.84V270.152H76.4855V264.84H74.8215V266.184H68.8055V264.84H67.1575ZM68.8055 267.464H74.8215V268.824H68.8055V267.464ZM65.0935 257.096V258.44H73.7015V257.096H65.0935ZM69.3975 258.984C67.2855 258.984 65.8455 260.008 65.8455 261.56C65.8455 263.112 67.2855 264.136 69.3975 264.136C71.4935 264.136 72.9335 263.112 72.9335 261.56C72.9335 260.008 71.4935 258.984 69.3975 258.984ZM69.3975 260.232C70.5495 260.232 71.3335 260.744 71.3335 261.56C71.3335 262.392 70.5495 262.904 69.3975 262.904C68.2455 262.904 67.4615 262.392 67.4615 261.56C67.4615 260.744 68.2455 260.232 69.3975 260.232ZM68.5655 255.576V257.832H70.2295V255.576H68.5655ZM90.1483 255.704V270.328H91.8123V255.704H90.1483ZM80.5963 257.112V266.184H82.2603V257.112H80.5963ZM80.5963 265.192V266.632H81.8443C84.1163 266.632 86.4683 266.472 88.9963 265.944L88.8043 264.536C86.3563 265.032 84.0203 265.192 81.8443 265.192H80.5963ZM104.067 255.688V270.344H105.747V255.688H104.067ZM105.363 261.304V262.696H108.019V261.304H105.363ZM95.011 265.368V266.76H96.195C98.851 266.76 100.803 266.68 103.043 266.28L102.867 264.872C100.707 265.272 98.787 265.368 96.195 265.368H95.011ZM95.011 257.08V266.008H96.675V258.44H101.811V257.08H95.011ZM110.738 269.224C111.426 269.224 111.97 268.68 111.97 267.928C111.97 267.16 111.426 266.632 110.738 266.632C110.034 266.632 109.506 267.16 109.506 267.928C109.506 268.68 110.034 269.224 110.738 269.224ZM22.9964 302.552C24.1484 302.552 25.1244 301.608 25.1244 300.28C25.1244 298.936 24.1484 297.992 22.9964 297.992C21.8284 297.992 20.8684 298.936 20.8684 300.28C20.8684 301.608 21.8284 302.552 22.9964 302.552ZM38.856 296.632V299.352H40.52V296.632H38.856ZM44.12 296.632V299.352H45.784V296.632H44.12ZM35.72 298.808V300.136H48.936V298.808H35.72ZM42.312 301.08C39.16 301.08 37.272 302.024 37.272 303.688C37.272 305.368 39.16 306.312 42.312 306.312C45.448 306.312 47.352 305.368 47.352 303.688C47.352 302.024 45.448 301.08 42.312 301.08ZM42.312 302.36C44.456 302.36 45.656 302.824 45.656 303.688C45.656 304.568 44.456 305.032 42.312 305.032C40.168 305.032 38.968 304.568 38.968 303.688C38.968 302.824 40.168 302.36 42.312 302.36ZM42.328 291.944C39.128 291.944 37.128 292.984 37.128 294.712C37.128 296.44 39.128 297.448 42.328 297.448C45.528 297.448 47.544 296.44 47.544 294.712C47.544 292.984 45.528 291.944 42.328 291.944ZM42.328 293.24C44.52 293.24 45.816 293.752 45.816 294.712C45.816 295.656 44.52 296.168 42.328 296.168C40.152 296.168 38.856 295.656 38.856 294.712C38.856 293.752 40.152 293.24 42.328 293.24ZM60.7908 291.704V306.328H62.4707V291.704H60.7908ZM56.5027 293.256V293.544C56.5027 297.448 54.7267 300.344 50.5187 302.376L51.3987 303.72C56.4227 301.272 58.1508 297.592 58.1508 293.256H56.5027ZM51.2387 293.256V294.6H57.2548V293.256H51.2387ZM66.7895 295.896V297.24H76.8055V295.896H66.7895ZM65.0615 299V300.36H78.3095V299H65.0615ZM66.7895 292.232V296.568H68.4535V292.232H66.7895ZM66.6775 304.632V305.992H76.8855V304.632H66.6775ZM66.6775 301.688V305H68.3415V301.688H66.6775ZM89.038 296.792V298.168H91.678V296.792H89.038ZM86.142 293.032V295.672C86.142 298.168 85.134 300.776 83.07 302.024L84.094 303.288C86.318 301.928 87.438 298.84 87.438 295.672V293.032H86.142ZM86.494 293.032V295.608C86.494 298.584 87.47 301.608 89.662 302.968L90.606 301.656C88.654 300.424 87.758 297.96 87.758 295.608V293.032H86.494ZM94.174 291.704V306.328H95.774V291.704H94.174ZM91.198 291.976V305.624H92.766V291.976H91.198ZM105.693 295.848V297.224H108.717V295.848H105.693ZM100.221 301.288V302.648H108.397V306.344H110.077V301.288H100.221ZM108.397 291.704V300.584H110.077V291.704H108.397ZM101.437 294.344V294.92C101.437 296.76 100.173 298.504 97.9328 299.208L98.7328 300.52C101.325 299.688 102.797 297.496 102.797 294.92V294.344H101.437ZM101.741 294.344V294.92C101.741 297.368 103.261 299.48 105.869 300.264L106.637 298.952C104.397 298.296 103.117 296.648 103.117 294.92V294.344H101.741ZM98.3648 293.368V294.696H106.189V293.368H98.3648ZM101.437 291.64V293.992H103.117V291.64H101.437ZM122.299 291.704V306.328H123.963V291.704H122.299ZM123.579 297.576V298.968H126.235V297.576H123.579ZM112.555 293.96V295.304H121.131V293.96H112.555ZM116.891 296.36C114.795 296.36 113.259 297.768 113.259 299.768C113.259 301.784 114.795 303.192 116.891 303.192C118.971 303.192 120.507 301.784 120.507 299.768C120.507 297.768 118.971 296.36 116.891 296.36ZM116.891 297.736C118.059 297.736 118.907 298.536 118.907 299.768C118.907 301 118.059 301.816 116.891 301.816C115.707 301.816 114.859 301 114.859 299.768C114.859 298.536 115.707 297.736 116.891 297.736ZM116.027 291.912V294.52H117.707V291.912H116.027ZM137.674 291.704V299.192H139.354V291.704H137.674ZM129.77 299.896V301.192H137.69V302.376H129.802V305.368H131.434V303.608H139.354V299.896H129.77ZM129.802 304.872V306.2H139.786V304.872H129.802ZM130.938 292.088V293.192C130.938 295.16 129.626 297.064 127.322 297.816L128.138 299.144C130.778 298.264 132.33 295.896 132.33 293.192V292.088H130.938ZM131.258 292.088V293.192C131.258 295.816 132.778 298.04 135.386 298.872L136.202 297.56C133.946 296.872 132.634 295.096 132.634 293.192V292.088H131.258ZM155.907 291.704V299.24H157.603V291.704H155.907ZM147.907 299.896V301.208H155.939V302.376H147.939V305.608H149.587V303.608H157.603V299.896H147.907ZM147.939 304.872V306.2H158.067V304.872H147.939ZM146.163 292.648V293.96H154.019V292.648H146.163ZM145.939 298.856C148.483 298.84 151.843 298.76 154.739 298.296L154.643 297.096C151.811 297.448 148.355 297.496 145.763 297.496L145.939 298.856ZM147.475 293.24V298.136H149.075V293.24H147.475ZM151.075 293.24V298.136H152.707V293.24H151.075ZM163.282 299.192V303.432H164.946V299.192H163.282ZM168.642 299.192V303.432H170.322V299.192H168.642ZM160.194 303.16V304.536H173.442V303.16H160.194ZM166.786 292.536C163.666 292.536 161.41 294.04 161.41 296.376C161.41 298.696 163.666 300.2 166.786 300.2C169.906 300.2 172.162 298.696 172.162 296.376C172.162 294.04 169.906 292.536 166.786 292.536ZM166.786 293.848C168.994 293.848 170.53 294.824 170.53 296.376C170.53 297.912 168.994 298.888 166.786 298.888C164.578 298.888 163.042 297.912 163.042 296.376C163.042 294.824 164.578 293.848 166.786 293.848ZM180.042 300.28V306.152H185.226V300.28H183.674V301.928H181.61V300.28H180.042ZM181.61 303.16H183.674V304.872H181.61V303.16ZM187.802 300.168V301.336C187.802 302.776 186.986 304.296 185.226 305.016L186.058 306.28C188.138 305.432 189.082 303.384 189.082 301.336V300.168H187.802ZM188.17 300.168V301.336C188.17 303.512 189.082 305.464 191.194 306.28L192.042 305.016C190.266 304.376 189.466 302.872 189.466 301.336V300.168H188.17ZM185.77 295V296.376H189.578V295H185.77ZM182.41 292.312C180.218 292.312 178.602 293.704 178.602 295.704C178.602 297.72 180.218 299.112 182.41 299.112C184.602 299.112 186.218 297.72 186.218 295.704C186.218 293.704 184.602 292.312 182.41 292.312ZM182.41 293.688C183.69 293.688 184.602 294.488 184.602 295.704C184.602 296.92 183.69 297.736 182.41 297.736C181.13 297.736 180.202 296.92 180.202 295.704C180.202 294.488 181.13 293.688 182.41 293.688ZM188.842 291.704V299.448H190.522V291.704H188.842ZM203.433 291.688V306.344H205.113V291.688H203.433ZM197.321 292.776C195.145 292.776 193.561 294.776 193.561 297.928C193.561 301.08 195.145 303.096 197.321 303.096C199.513 303.096 201.097 301.08 201.097 297.928C201.097 294.776 199.513 292.776 197.321 292.776ZM197.321 294.296C198.601 294.296 199.481 295.656 199.481 297.928C199.481 300.216 198.601 301.592 197.321 301.592C196.041 301.592 195.161 300.216 195.161 297.928C195.161 295.656 196.041 294.296 197.321 294.296ZM208.264 308.216C209.928 307.592 210.904 306.296 210.904 304.6C210.904 303.368 210.376 302.632 209.48 302.632C208.776 302.632 208.184 303.08 208.184 303.816C208.184 304.568 208.776 305 209.432 305C209.736 305 210.024 304.904 210.248 304.664L209.48 303.464L209.608 304.936C209.608 305.896 208.968 306.712 207.864 307.176L208.264 308.216ZM217.407 293.16V294.504H226.751V293.16H217.407ZM216.015 302.92V304.296H229.231V302.92H216.015ZM225.855 293.16V294.744C225.855 296.632 225.855 298.776 225.295 301.672L226.975 301.832C227.519 298.744 227.519 296.696 227.519 294.744V293.16H225.855ZM241.55 291.704V306.328H243.15V291.704H241.55ZM239.31 297.464V298.824H241.95V297.464H239.31ZM238.254 291.992V305.608H239.806V291.992H238.254ZM231.15 301.464V302.856H232.142C234.19 302.856 235.694 302.792 237.454 302.44L237.31 301.064C235.598 301.4 234.126 301.464 232.142 301.464H231.15ZM231.15 293.448V302.12H232.814V294.808H236.574V293.448H231.15ZM245.356 303.24V304.616H258.604V303.24H245.356ZM251.116 300.264V303.8H252.78V300.264H251.116ZM246.908 292.728V294.072H255.356V296.024H246.94V300.072H248.604V297.352H257.02V292.728H246.908ZM246.94 299.384V300.744H257.356V299.384H246.94ZM273.221 291.688V306.312H274.901V291.688H273.221ZM274.453 297.48V298.856H277.093V297.48H274.453ZM269.429 293.24V293.528C269.429 297.432 267.493 300.36 263.541 302.376L264.485 303.656C269.269 301.256 271.077 297.496 271.077 293.24H269.429ZM264.277 293.24V294.6H270.293V293.24H264.277ZM284.948 300.776C281.94 300.776 280.068 301.8 280.068 303.544C280.068 305.304 281.94 306.328 284.948 306.328C287.94 306.328 289.812 305.304 289.812 303.544C289.812 301.8 287.94 300.776 284.948 300.776ZM284.948 302.104C286.98 302.104 288.148 302.6 288.148 303.544C288.148 304.504 286.98 305.016 284.948 305.016C282.916 305.016 281.732 304.504 281.732 303.544C281.732 302.6 282.916 302.104 284.948 302.104ZM287.972 291.704V300.408H289.652V291.704H287.972ZM289.188 295.256V296.648H291.716V295.256H289.188ZM278.756 292.632V299.432H285.636V292.632H283.988V294.648H280.42V292.632H278.756ZM280.42 295.96H283.988V298.104H280.42V295.96ZM298.802 297.256V298.616H301.394V297.256H298.802ZM303.794 291.704V306.328H305.394V291.704H303.794ZM300.85 291.976V305.624H302.434V291.976H300.85ZM296.194 292.84C294.29 292.84 293.058 294.824 293.058 298.024C293.058 301.24 294.29 303.224 296.194 303.224C298.114 303.224 299.346 301.24 299.346 298.024C299.346 294.824 298.114 292.84 296.194 292.84ZM296.194 294.408C297.202 294.408 297.81 295.72 297.81 298.024C297.81 300.328 297.202 301.64 296.194 301.64C295.202 301.64 294.594 300.328 294.594 298.024C294.594 295.72 295.202 294.408 296.194 294.408ZM320.859 291.704V299.944H322.539V291.704H320.859ZM322.075 295.144V296.52H324.603V295.144H322.075ZM311.739 297.896V299.256H312.907C316.059 299.256 317.755 299.176 319.675 298.776L319.499 297.432C317.627 297.816 315.995 297.896 312.907 297.896H311.739ZM311.739 292.648V298.68H313.403V293.992H318.203V292.648H311.739ZM313.211 300.664V306.152H322.539V300.664H313.211ZM320.891 301.992V304.808H314.859V301.992H320.891ZM329.69 292.776C327.514 292.776 325.946 294.776 325.946 297.928C325.946 301.08 327.514 303.096 329.69 303.096C331.866 303.096 333.434 301.08 333.434 297.928C333.434 294.776 331.866 292.776 329.69 292.776ZM329.69 294.296C330.954 294.296 331.834 295.656 331.834 297.928C331.834 300.216 330.954 301.592 329.69 301.592C328.426 301.592 327.546 300.216 327.546 297.928C327.546 295.656 328.426 294.296 329.69 294.296ZM335.45 291.704V306.328H337.13V291.704H335.45ZM336.746 297.4V298.792H339.402V297.4H336.746ZM45.464 327.72V338.456H47.144V327.72H45.464ZM46.648 331.992V333.384H49.208V331.992H46.648ZM37.896 340.68V342.04H47.736V340.68H37.896ZM37.896 337.4V340.984H39.576V337.4H37.896ZM36.248 328.76V336.072H43.128V328.76H41.48V331.048H37.912V328.76H36.248ZM37.912 332.344H41.48V334.744H37.912V332.344ZM60.1348 327.704V335.352H61.8148V327.704H60.1348ZM61.3667 330.84V332.216H63.8788V330.84H61.3667ZM51.0467 328.344V334.264H52.7267V328.344H51.0467ZM51.0467 333.4V334.792H52.2307C54.3587 334.792 56.5827 334.632 58.9987 334.152L58.8068 332.776C56.4548 333.256 54.2787 333.4 52.2307 333.4H51.0467ZM52.4227 336.088V342.152H61.8148V336.088H60.1508V337.8H54.0868V336.088H52.4227ZM54.0868 339.128H60.1508V340.808H54.0868V339.128ZM74.7415 327.704V342.328H76.4055V327.704H74.7415ZM76.0215 333.576V334.968H78.6775V333.576H76.0215ZM64.9975 329.96V331.304H73.5735V329.96H64.9975ZM69.3335 332.36C67.2375 332.36 65.7015 333.768 65.7015 335.768C65.7015 337.784 67.2375 339.192 69.3335 339.192C71.4135 339.192 72.9495 337.784 72.9495 335.768C72.9495 333.768 71.4135 332.36 69.3335 332.36ZM69.3335 333.736C70.5015 333.736 71.3495 334.536 71.3495 335.768C71.3495 337 70.5015 337.816 69.3335 337.816C68.1495 337.816 67.3015 337 67.3015 335.768C67.3015 334.536 68.1495 333.736 69.3335 333.736ZM68.4695 327.912V330.52H70.1495V327.912H68.4695ZM83.4603 328.904V331.304C83.4603 334.104 81.9563 336.92 79.6203 337.976L80.6283 339.368C83.2523 338.088 84.8363 334.84 84.8363 331.304V328.904H83.4603ZM83.7803 328.904V331.304C83.7803 334.712 85.3643 337.832 87.9403 339.048L88.9323 337.704C86.6283 336.68 85.1403 333.992 85.1403 331.304V328.904H83.7803ZM90.1003 327.688V342.344H91.7803V327.688H90.1003ZM101.443 330.152V331.512H105.347V330.152H101.443ZM101.443 333.288V334.648H105.395V333.288H101.443ZM95.043 328.936V335.912H101.827V328.936H95.043ZM100.179 330.264V334.584H96.691V330.264H100.179ZM104.851 327.72V338.376H106.531V327.72H104.851ZM97.011 340.68V342.04H106.867V340.68H97.011ZM97.011 337.4V341.352H98.691V337.4H97.011ZM116.619 332.632V335.032H118.299V332.632H116.619ZM123.035 327.704V336.152H124.715V327.704H123.035ZM112.891 335.896C115.483 335.88 118.939 335.832 122.075 335.272L121.963 334.104C118.907 334.536 115.323 334.568 112.667 334.568L112.891 335.896ZM113.947 331.8V333.128H121.003V331.8H113.947ZM113.947 328.408V332.264H115.627V329.752H120.891V328.408H113.947ZM114.987 336.776V342.152H124.715V336.776H123.051V338.12H116.651V336.776H114.987ZM116.651 339.4H123.051V340.808H116.651V339.4ZM137.706 327.704V342.328H139.37V327.704H137.706ZM128.154 329.112V338.184H129.818V329.112H128.154ZM128.154 337.192V338.632H129.402C131.674 338.632 134.026 338.472 136.554 337.944L136.362 336.536C133.914 337.032 131.578 337.192 129.402 337.192H128.154ZM151.625 327.688V342.344H153.305V327.688H151.625ZM152.921 333.304V334.696H155.577V333.304H152.921ZM142.569 337.368V338.76H143.753C146.409 338.76 148.361 338.68 150.601 338.28L150.425 336.872C148.265 337.272 146.345 337.368 143.753 337.368H142.569ZM142.569 329.08V338.008H144.233V330.44H149.369V329.08H142.569ZM158.296 341.224C158.984 341.224 159.528 340.68 159.528 339.928C159.528 339.16 158.984 338.632 158.296 338.632C157.592 338.632 157.064 339.16 157.064 339.928C157.064 340.68 157.592 341.224 158.296 341.224ZM22.9964 374.552C24.1484 374.552 25.1244 373.608 25.1244 372.28C25.1244 370.936 24.1484 369.992 22.9964 369.992C21.8284 369.992 20.8684 370.936 20.8684 372.28C20.8684 373.608 21.8284 374.552 22.9964 374.552ZM41.032 377.224C44.056 377.224 46.152 374.872 46.152 371.064C46.152 367.272 44.056 365.016 41.032 365.016C37.992 365.016 35.896 367.272 35.896 371.064C35.896 374.872 37.992 377.224 41.032 377.224ZM41.032 375.688C39.064 375.688 37.816 373.928 37.816 371.064C37.816 368.312 39.064 366.632 41.032 366.632C42.984 366.632 44.248 368.312 44.248 371.064C44.248 373.928 42.984 375.688 41.032 375.688ZM44.728 380.072C45.496 380.072 46.152 379.944 46.536 379.768L46.184 378.36C45.864 378.472 45.448 378.552 44.92 378.552C43.624 378.552 42.44 377.992 41.976 376.776L40.072 376.952C40.744 378.744 42.36 380.072 44.728 380.072ZM48.5505 377H50.4225V372.248H52.4065C54.8385 372.248 56.6625 371.112 56.6625 368.648C56.6625 366.088 54.8385 365.224 52.4065 365.224H48.5505V377ZM50.4225 370.76V366.728H52.1985C53.8945 366.728 54.8225 367.224 54.8225 368.648C54.8225 370.056 53.8945 370.76 52.1985 370.76H50.4225ZM54.9985 377H57.0785L53.4305 370.68L52.0545 371.768L54.9985 377ZM59.7385 365.032V366.392H68.9865V365.032H59.7385ZM58.1865 375.112V376.472H71.4025V375.112H58.1865ZM68.2985 365.032V366.376C68.2985 368.088 68.2985 370.184 67.6585 373.08L69.3225 373.256C69.9625 370.184 69.9465 368.152 69.9465 366.376V365.032H68.2985ZM68.6345 368.552L59.3065 368.888L59.5465 370.312L68.6345 369.816V368.552ZM63.1305 371.448V375.608H64.8105V371.448H63.1305ZM74.4892 370.6V371.944H84.6332V370.6H74.4892ZM72.8732 375.064V376.44H86.1212V375.064H72.8732ZM74.4892 364.984V371.176H76.1532V366.36H84.5052V364.984H74.4892ZM87.544 375.24V376.616H100.792V375.24H87.544ZM93.304 372.264V375.8H94.968V372.264H93.304ZM89.096 364.728V366.072H97.544V368.024H89.128V372.072H90.792V369.352H99.208V364.728H89.096ZM89.128 371.384V372.744H99.544V371.384H89.128ZM116.379 363.72V374.456H118.059V363.72H116.379ZM117.563 367.992V369.384H120.123V367.992H117.563ZM108.811 376.68V378.04H118.651V376.68H108.811ZM108.811 373.4V376.984H110.491V373.4H108.811ZM107.163 364.76V372.072H114.043V364.76H112.395V367.048H108.827V364.76H107.163ZM108.827 368.344H112.395V370.744H108.827V368.344ZM131.05 363.704V371.352H132.73V363.704H131.05ZM132.282 366.84V368.216H134.794V366.84H132.282ZM121.962 364.344V370.264H123.642V364.344H121.962ZM121.962 369.4V370.792H123.146C125.274 370.792 127.498 370.632 129.914 370.152L129.722 368.776C127.37 369.256 125.194 369.4 123.146 369.4H121.962ZM123.338 372.088V378.152H132.73V372.088H131.066V373.8H125.002V372.088H123.338ZM125.002 375.128H131.066V376.808H125.002V375.128ZM150.797 363.72V374.408H152.477V363.72H150.797ZM142.925 376.68V378.04H152.893V376.68H142.925ZM142.925 373.4V377.352H144.605V373.4H142.925ZM144.061 364.52V365.976C144.061 368.088 142.797 370.184 140.477 371.032L141.341 372.376C143.965 371.384 145.453 368.824 145.453 365.976V364.52H144.061ZM144.381 364.52V365.976C144.381 368.776 145.853 371.176 148.429 372.104L149.293 370.776C147.021 369.992 145.757 368.04 145.757 365.976V364.52H144.381ZM158.572 366.232V366.808C158.572 368.648 157.308 370.376 155.068 371.064L155.868 372.376C158.46 371.56 159.932 369.352 159.932 366.808V366.232H158.572ZM158.876 366.232V366.808C158.876 369.208 160.412 371.256 163.036 372.008L163.788 370.696C161.548 370.072 160.252 368.488 160.252 366.808V366.232H158.876ZM155.5 365.352V366.696H163.324V365.352H155.5ZM158.572 363.64V365.864H160.252V363.64H158.572ZM162.892 367.752V369.112H165.964V367.752H162.892ZM165.532 363.704V372.552H167.212V363.704H165.532ZM162.332 372.872C159.276 372.872 157.404 373.864 157.404 375.592C157.404 377.304 159.276 378.312 162.332 378.312C165.388 378.312 167.26 377.304 167.26 375.592C167.26 373.864 165.388 372.872 162.332 372.872ZM162.332 374.168C164.412 374.168 165.596 374.664 165.596 375.592C165.596 376.504 164.412 377.016 162.332 377.016C160.252 377.016 159.068 376.504 159.068 375.592C159.068 374.664 160.252 374.168 162.332 374.168ZM179.435 363.704V378.328H181.099V363.704H179.435ZM180.715 369.576V370.968H183.371V369.576H180.715ZM169.691 365.96V367.304H178.267V365.96H169.691ZM174.027 368.36C171.931 368.36 170.395 369.768 170.395 371.768C170.395 373.784 171.931 375.192 174.027 375.192C176.107 375.192 177.643 373.784 177.643 371.768C177.643 369.768 176.107 368.36 174.027 368.36ZM174.027 369.736C175.195 369.736 176.043 370.536 176.043 371.768C176.043 373 175.195 373.816 174.027 373.816C172.843 373.816 171.995 373 171.995 371.768C171.995 370.536 172.843 369.736 174.027 369.736ZM173.163 363.912V366.52H174.843V363.912H173.163ZM188.153 364.904V367.304C188.153 370.104 186.649 372.92 184.313 373.976L185.321 375.368C187.945 374.088 189.529 370.84 189.529 367.304V364.904H188.153ZM188.473 364.904V367.304C188.473 370.712 190.057 373.832 192.633 375.048L193.625 373.704C191.321 372.68 189.833 369.992 189.833 367.304V364.904H188.473ZM194.793 363.688V378.344H196.473V363.688H194.793ZM206.136 366.152V367.512H210.04V366.152H206.136ZM206.136 369.288V370.648H210.088V369.288H206.136ZM199.736 364.936V371.912H206.52V364.936H199.736ZM204.872 366.264V370.584H201.384V366.264H204.872ZM209.544 363.72V374.376H211.224V363.72H209.544ZM201.704 376.68V378.04H211.56V376.68H201.704ZM201.704 373.4V377.352H203.384V373.4H201.704ZM217.952 377H224.688V375.48H222.384V365.544H220.992C220.304 365.96 219.536 366.248 218.416 366.456V367.624H220.544V375.48H217.952V377ZM226.357 377H233.973V375.432H230.981C230.389 375.432 229.653 375.496 229.045 375.56C231.493 372.984 233.413 370.872 233.413 368.792C233.413 366.696 232.021 365.336 229.861 365.336C228.325 365.336 227.285 365.992 226.261 367.08L227.317 368.104C227.941 367.4 228.709 366.808 229.637 366.808C230.949 366.808 231.621 367.624 231.621 368.872C231.621 370.68 229.637 372.712 226.357 375.928V377ZM239.195 364.904V367.304C239.195 370.104 237.691 372.92 235.355 373.976L236.363 375.368C238.987 374.088 240.571 370.84 240.571 367.304V364.904H239.195ZM239.515 364.904V367.304C239.515 370.712 241.099 373.832 243.675 375.048L244.667 373.704C242.363 372.68 240.875 369.992 240.875 367.304V364.904H239.515ZM245.835 363.688V378.344H247.515V363.688H245.835ZM259.865 363.704V374.296H261.561V363.704H259.865ZM261.065 367.976V369.368H263.625V367.976H261.065ZM255.849 364.824V365.608C255.849 368.2 253.737 370.328 250.105 371.4L250.809 372.744C255.081 371.448 257.625 368.68 257.625 364.824H255.849ZM250.713 364.824V366.184H256.729V364.824H250.713ZM252.297 376.68V378.04H262.137V376.68H252.297ZM252.297 373.224V377.256H253.977V373.224H252.297ZM279.612 363.688V378.344H281.292V363.688H279.612ZM273.5 364.776C271.324 364.776 269.74 366.776 269.74 369.928C269.74 373.08 271.324 375.096 273.5 375.096C275.692 375.096 277.276 373.08 277.276 369.928C277.276 366.776 275.692 364.776 273.5 364.776ZM273.5 366.296C274.78 366.296 275.66 367.656 275.66 369.928C275.66 372.216 274.78 373.592 273.5 373.592C272.22 373.592 271.34 372.216 271.34 369.928C271.34 367.656 272.22 366.296 273.5 366.296ZM294.763 363.704V378.328H296.363V363.704H294.763ZM292.555 369.512V370.872H295.195V369.512H292.555ZM291.467 363.992V377.608H293.035V363.992H291.467ZM284.571 365.4V373.848H286.251V365.4H284.571ZM284.571 373.192V374.632H285.531C287.067 374.632 288.747 374.568 290.699 374.2L290.523 372.744C288.651 373.112 287.003 373.192 285.531 373.192H284.571ZM304.49 369.256V370.616H307.082V369.256H304.49ZM309.482 363.704V378.328H311.082V363.704H309.482ZM306.538 363.976V377.624H308.122V363.976H306.538ZM301.882 364.84C299.978 364.84 298.746 366.824 298.746 370.024C298.746 373.24 299.978 375.224 301.882 375.224C303.802 375.224 305.034 373.24 305.034 370.024C305.034 366.824 303.802 364.84 301.882 364.84ZM301.882 366.408C302.89 366.408 303.498 367.72 303.498 370.024C303.498 372.328 302.89 373.64 301.882 373.64C300.89 373.64 300.282 372.328 300.282 370.024C300.282 367.72 300.89 366.408 301.882 366.408ZM323.437 364.184V364.936C323.437 366.856 321.261 368.68 318.301 369.096L318.957 370.456C322.333 369.912 324.909 367.736 324.909 364.936V364.184H323.437ZM323.741 364.184V364.936C323.741 367.72 326.317 369.912 329.693 370.456L330.349 369.096C327.389 368.68 325.197 366.824 325.197 364.936V364.184H323.741ZM323.437 372.856V378.328H325.101V372.856H323.437ZM317.709 371.8V373.176H330.925V371.8H317.709ZM342.812 363.704V378.328H344.476V363.704H342.812ZM339.66 369.448V370.824H343.596V369.448H339.66ZM338.076 365.256V365.544C338.076 369.384 336.492 372.28 332.3 374.36L333.196 375.672C338.14 373.192 339.724 369.544 339.724 365.256H338.076ZM332.956 365.256V366.6H338.956V365.256H332.956ZM35.704 402.072V403.416H42.84V402.072H35.704ZM39.288 404.248C37.464 404.248 36.12 405.656 36.12 407.656C36.12 409.656 37.464 411.048 39.288 411.048C41.128 411.048 42.456 409.656 42.456 407.656C42.456 405.656 41.128 404.248 39.288 404.248ZM39.288 405.656C40.264 405.656 40.968 406.456 40.968 407.656C40.968 408.872 40.264 409.64 39.288 409.64C38.312 409.64 37.608 408.872 37.608 407.656C37.608 406.456 38.312 405.656 39.288 405.656ZM46.584 399.704V414.328H48.184V399.704H46.584ZM44.504 405.768V407.128H47.112V405.768H44.504ZM43.48 400.008V413.656H45.048V400.008H43.48ZM38.472 400.12V402.904H40.12V400.12H38.472ZM60.1188 399.704V407.624H61.8148V399.704H60.1188ZM61.3507 403.016V404.408H63.8788V403.016H61.3507ZM56.0068 400.536V401.416C56.0068 403.72 54.1188 405.592 50.3747 406.44L50.9987 407.8C55.3507 406.776 57.8308 404.312 57.8308 400.536H56.0068ZM51.0787 400.536V401.88H57.0788V400.536H51.0787ZM52.4387 408.248V414.152H61.8148V408.248H60.1508V409.88H54.1027V408.248H52.4387ZM54.1027 411.192H60.1508V412.808H54.1027V411.192ZM75.4775 399.704V414.328H77.1415V399.704H75.4775ZM65.9255 401.112V410.184H67.5895V401.112H65.9255ZM65.9255 409.192V410.632H67.1735C69.4455 410.632 71.7975 410.472 74.3255 409.944L74.1335 408.536C71.6855 409.032 69.3495 409.192 67.1735 409.192H65.9255ZM89.3963 399.688V414.344H91.0763V399.688H89.3963ZM90.6923 405.304V406.696H93.3483V405.304H90.6923ZM80.3403 409.368V410.76H81.5243C84.1803 410.76 86.1323 410.68 88.3723 410.28L88.1963 408.872C86.0363 409.272 84.1163 409.368 81.5243 409.368H80.3403ZM80.3403 401.08V410.008H82.0043V402.44H87.1403V401.08H80.3403ZM96.067 413.224C96.755 413.224 97.299 412.68 97.299 411.928C97.299 411.16 96.755 410.632 96.067 410.632C95.363 410.632 94.835 411.16 94.835 411.928C94.835 412.68 95.363 413.224 96.067 413.224Z" fill="white"/>
<g clip-path="url(#clip0_923_446)">
<path d="M152.887 53.626H156.67V56.6678L153.28 59.3234L156.808 62.0141V65.6993L150.962 61.0197L145 65.6291V61.9089L151.792 56.5859H145.012V53.5441H149.117V51.918H152.887V53.626ZM145.968 66.6586H159.611V52.8305H162.863V57.5101H165.169V60.6921H162.863V75.0116H145.968V66.6586ZM149.232 72.1102H159.611V69.5014H149.232V72.1102Z" fill="white"/>
<path d="M171.903 71.9113V62.5522H175.271V71.9113H179.618L180.771 56.188H167.372V53.041H184.242V56.1763L183.089 71.8996H185.891V74.9647H166.034V71.8996L171.903 71.9113Z" fill="white"/>
<path d="M197.354 74.8713L194.206 60.4583L191.069 74.8713H187.69L192.672 52.9359H195.763L200.744 74.8713H197.354ZM206.049 59.8499H208.413V63.0437H206.049V75.0584H202.854V52.8306H206.037L206.049 59.8499Z" fill="white"/>
<path d="M217.188 53.6496H221.409V56.4339H217.569C218.351 56.6493 219.05 57.0998 219.575 57.7263C220.1 58.3528 220.426 59.1258 220.509 59.9436V61.6048C220.509 63.7574 218.203 65.5006 215.424 65.5006C212.645 65.5006 210.477 63.7574 210.477 61.6048V60.0138C210.548 59.1902 210.859 58.4066 211.37 57.7628C211.881 57.119 212.57 56.6442 213.348 56.3988H209.669V53.6496H213.948V52.0352H217.188V53.6496ZM224.015 66.7991C224.571 66.7565 225.129 66.8307 225.655 67.0171C226.181 67.2036 226.664 67.4982 227.072 67.8826C227.481 68.267 227.807 68.7329 228.03 69.251C228.253 69.7692 228.368 70.3284 228.368 70.8937C228.368 71.4591 228.253 72.0183 228.03 72.5365C227.807 73.0546 227.481 73.5205 227.072 73.9049C226.664 74.2893 226.181 74.5839 225.655 74.7704C225.129 74.9568 224.571 75.031 224.015 74.9884H214.593C214.038 75.031 213.48 74.9568 212.954 74.7704C212.427 74.5839 211.945 74.2893 211.536 73.9049C211.128 73.5205 210.801 73.0546 210.579 72.5365C210.356 72.0183 210.241 71.4591 210.241 70.8937C210.241 70.3284 210.356 69.7692 210.579 69.251C210.801 68.7329 211.128 68.267 211.536 67.8826C211.945 67.4982 212.427 67.2036 212.954 67.0171C213.48 66.8307 214.038 66.7565 214.593 66.7991H224.015ZM217.638 60.5636C217.548 60.0593 217.286 59.6032 216.898 59.2747C216.51 58.9462 216.021 58.7662 215.516 58.7662C215.011 58.7662 214.522 58.9462 214.134 59.2747C213.746 59.6032 213.484 60.0593 213.394 60.5636V61.0199C213.484 61.5242 213.746 61.9804 214.134 62.3089C214.522 62.6374 215.011 62.8173 215.516 62.8173C216.021 62.8173 216.51 62.6374 216.898 62.3089C217.286 61.9804 217.548 61.5242 217.638 61.0199V60.5636ZM214.593 69.8642C214.462 69.8658 214.332 69.8936 214.211 69.9462C214.089 69.9988 213.979 70.075 213.887 70.1706C213.795 70.2662 213.723 70.3793 213.674 70.5034C213.625 70.6275 213.6 70.7601 213.602 70.8937C213.6 71.0269 213.625 71.1589 213.674 71.2823C213.723 71.4057 213.796 71.518 213.888 71.6127C213.98 71.7074 214.09 71.7826 214.211 71.8339C214.333 71.8851 214.462 71.9116 214.593 71.9115H224.015C224.277 71.9085 224.528 71.8015 224.713 71.6135C224.898 71.4255 225.004 71.1714 225.007 70.9055C225.004 70.6362 224.9 70.3782 224.715 70.1845C224.531 69.9908 224.28 69.8762 224.015 69.8642H214.593ZM224.176 65.5123V52.8307H227.636V57.3114H229.942V60.4934H227.636V65.5123H224.176Z" fill="white"/>
</g>
<g clip-path="url(#clip1_923_446)">
<path d="M187.001 487.003C199.153 487.003 209.003 477.153 209.003 465.001C209.003 452.85 199.153 443 187.001 443C174.85 443 165 452.85 165 465.001C165 477.153 174.85 487.003 187.001 487.003Z" fill="#154734"/>
<path d="M191.012 464.641C191.011 464.213 190.841 463.802 190.537 463.5C190.234 463.197 189.823 463.027 189.395 463.027H187.571V462.336C187.571 462.041 187.382 461.858 186.999 461.858C186.615 461.858 186.426 462.05 186.426 462.336V463.027H184.605C184.177 463.027 183.766 463.197 183.463 463.5C183.159 463.802 182.989 464.213 182.988 464.641C182.981 464.981 183.038 465.32 183.156 465.639C183.212 465.784 183.296 465.916 183.404 466.028L183.528 467.421C183.571 467.929 183.803 468.401 184.179 468.745C184.555 469.088 185.046 469.277 185.555 469.275H186.441C186.441 469.57 186.633 469.75 187.013 469.75C187.394 469.75 187.586 469.558 187.586 469.275H188.489C188.998 469.277 189.49 469.088 189.866 468.744C190.242 468.399 190.474 467.926 190.516 467.419L190.643 465.987C190.735 465.882 190.808 465.763 190.859 465.633C190.971 465.315 191.023 464.979 191.012 464.641Z" fill="#FFCD00"/>
<path d="M202.808 464.066C202.807 463.017 202.534 461.986 202.017 461.074C201.5 460.161 200.756 459.398 199.857 458.857C199.351 458.549 198.961 458.082 198.747 457.529C198.301 456.388 197.521 455.408 196.509 454.717C195.497 454.026 194.3 453.657 193.075 453.657H193.028C192.328 453.649 191.657 453.377 191.148 452.896C190.021 451.848 188.537 451.267 186.998 451.272C185.459 451.27 183.977 451.854 182.852 452.905C182.339 453.388 181.662 453.66 180.957 453.666H180.91C179.686 453.665 178.49 454.033 177.478 454.722C176.466 455.411 175.685 456.39 175.238 457.529C175.023 458.081 174.633 458.548 174.128 458.857C173.232 459.399 172.491 460.164 171.976 461.076C171.462 461.989 171.192 463.019 171.192 464.066C171.191 465.534 171.721 466.953 172.684 468.061C173.646 469.169 174.977 469.893 176.43 470.098C176.665 470.131 176.879 470.247 177.035 470.426C177.191 470.604 177.277 470.833 177.277 471.069V473.557C177.276 473.926 177.188 474.288 177.022 474.617C176.855 474.945 176.614 475.23 176.318 475.449L175.25 476.234C175.171 476.291 175.107 476.366 175.063 476.453C175.018 476.54 174.996 476.636 174.996 476.733C174.997 476.897 175.062 477.054 175.178 477.169C175.295 477.285 175.452 477.35 175.616 477.35H179.048C179.331 477.349 179.612 477.412 179.868 477.533L180.878 478.002C181.265 478.184 181.702 478.232 182.12 478.138L183.534 477.834C183.929 477.745 184.342 477.784 184.714 477.943L186.225 478.592C186.467 478.695 186.728 478.748 186.991 478.748C187.254 478.748 187.515 478.695 187.757 478.592L189.271 477.943C189.643 477.783 190.056 477.744 190.451 477.831L191.886 478.129C192.303 478.224 192.741 478.176 193.128 477.993L194.138 477.539C194.394 477.418 194.674 477.355 194.958 477.356H198.387C198.551 477.356 198.708 477.291 198.825 477.175C198.941 477.059 199.006 476.903 199.007 476.739C199.007 476.642 198.984 476.546 198.94 476.46C198.896 476.374 198.832 476.3 198.753 476.243L197.685 475.473C197.527 475.354 197.338 475.283 197.141 475.268C196.944 475.253 196.747 475.294 196.572 475.387C196.077 475.645 195.525 475.776 194.967 475.768H187.382C187.311 475.768 187.241 475.743 187.187 475.696C187.133 475.65 187.097 475.585 187.087 475.514C187.081 475.475 187.083 475.434 187.094 475.396C187.104 475.357 187.122 475.321 187.146 475.29L189.666 471.421C188.807 471.69 187.91 471.819 187.01 471.801C183.389 471.801 180.987 470.075 180.987 466.032C180.987 461.988 183.383 459.179 187.016 459.179C190.457 459.179 192.721 461.814 192.936 465.545C193.031 465.675 193.125 465.757 193.231 465.754C193.432 465.739 193.626 465.682 193.804 465.589C193.913 465.524 194.099 465.379 194.205 465.551C194.312 465.722 194.22 465.905 194.152 466.052C194.019 466.344 193.816 466.598 193.562 466.793L193.63 466.74C193.377 466.928 193.172 467.174 193.033 467.458C192.895 467.741 192.826 468.054 192.833 468.369C192.814 468.66 192.865 468.951 192.982 469.218C193.098 469.485 193.277 469.72 193.503 469.904C194.066 470.371 194.458 471.01 194.619 471.723C194.781 472.437 194.701 473.183 194.394 473.847C194.385 473.869 194.38 473.893 194.38 473.917C194.38 473.942 194.385 473.966 194.394 473.988C194.402 474.016 194.417 474.041 194.437 474.061C194.457 474.082 194.482 474.097 194.509 474.106C194.551 474.12 194.596 474.119 194.636 474.103C194.677 474.087 194.71 474.056 194.731 474.018C195.041 473.439 195.172 472.781 195.107 472.128C195.041 471.474 194.783 470.855 194.365 470.349C194.025 469.877 193.815 469.324 193.757 468.745C193.699 468.166 193.795 467.582 194.034 467.052C194.274 466.522 194.648 466.064 195.121 465.725C195.593 465.386 196.147 465.177 196.726 465.12H196.779C196.937 465.102 197.096 465.102 197.254 465.12C197.743 465.166 198.199 465.386 198.539 465.741C198.879 466.095 199.08 466.559 199.107 467.05C199.133 467.54 198.982 468.024 198.681 468.412C198.381 468.8 197.951 469.068 197.469 469.166C197.418 469.174 197.369 469.19 197.322 469.213C197.241 469.252 197.174 469.313 197.126 469.388C197.079 469.464 197.053 469.552 197.053 469.641C197.053 469.765 197.101 469.884 197.186 469.974C197.204 469.989 197.222 470.01 197.242 470.025C197.319 470.085 197.414 470.116 197.511 470.113C198.978 469.92 200.324 469.2 201.299 468.088C202.274 466.975 202.81 465.545 202.808 464.066Z" fill="#FFCD00"/>
<path d="M187.37 475.768H194.967C195.854 475.769 196.706 475.42 197.336 474.796C197.967 474.171 198.324 473.323 198.331 472.436C198.329 471.965 198.227 471.5 198.03 471.073C197.834 470.645 197.548 470.265 197.192 469.957C197.135 469.896 197.094 469.822 197.073 469.741C197.053 469.66 197.055 469.575 197.077 469.494C197.1 469.414 197.143 469.341 197.203 469.282C197.262 469.224 197.336 469.181 197.416 469.16C197.913 469.071 198.36 468.804 198.673 468.409C198.986 468.014 199.144 467.518 199.116 467.014C199.081 466.53 198.876 466.074 198.537 465.726C198.199 465.378 197.749 465.16 197.266 465.111C197.108 465.093 196.949 465.093 196.791 465.111H196.738C196.159 465.168 195.605 465.377 195.133 465.716C194.66 466.056 194.286 466.513 194.046 467.043C193.807 467.574 193.711 468.157 193.769 468.736C193.827 469.315 194.037 469.868 194.377 470.34C194.795 470.846 195.053 471.465 195.119 472.119C195.184 472.772 195.053 473.43 194.743 474.009C194.723 474.047 194.69 474.077 194.65 474.093C194.61 474.109 194.565 474.111 194.524 474.097C194.496 474.089 194.471 474.074 194.45 474.053C194.43 474.033 194.414 474.007 194.406 473.979C194.397 473.957 194.392 473.933 194.392 473.908C194.392 473.884 194.397 473.86 194.406 473.838C194.711 473.171 194.787 472.423 194.622 471.709C194.456 470.995 194.059 470.356 193.491 469.892C193.265 469.708 193.086 469.473 192.97 469.206C192.853 468.939 192.802 468.648 192.821 468.357C192.814 468.042 192.883 467.729 193.022 467.446C193.16 467.162 193.365 466.916 193.618 466.728L193.55 466.781C193.805 466.586 194.007 466.332 194.141 466.04C194.208 465.893 194.291 465.677 194.194 465.539C194.096 465.4 193.899 465.512 193.792 465.577C193.614 465.675 193.417 465.736 193.214 465.754C192.889 465.754 192.721 465.043 192.252 464.615C191.876 464.253 191.375 464.049 190.853 464.045C190.582 464.048 190.321 464.147 190.117 464.324C189.913 464.501 189.778 464.746 189.737 465.013C189.722 465.111 189.714 465.21 189.714 465.309C189.715 465.585 189.771 465.858 189.88 466.111C189.989 466.365 190.149 466.594 190.348 466.784C190.411 466.839 190.458 466.909 190.486 466.987C190.513 467.065 190.52 467.149 190.506 467.231C190.492 467.313 190.457 467.39 190.405 467.454C190.352 467.519 190.284 467.568 190.207 467.599C189.962 467.7 189.701 467.752 189.436 467.752C189.051 467.758 188.672 467.655 188.343 467.454C188.014 467.253 187.748 466.964 187.577 466.619C187.53 466.528 187.455 466.454 187.363 466.408C187.272 466.362 187.168 466.347 187.067 466.364C186.965 466.381 186.872 466.43 186.801 466.503C186.729 466.577 186.683 466.671 186.668 466.772C186.656 466.832 186.656 466.893 186.668 466.952C186.809 467.631 187.159 468.249 187.67 468.719C188.18 469.188 188.825 469.486 189.513 469.57C189.644 469.584 189.769 469.63 189.878 469.705C189.986 469.78 190.073 469.881 190.132 469.998C190.191 470.116 190.219 470.247 190.214 470.378C190.209 470.51 190.171 470.638 190.103 470.751L190.089 470.78L187.137 475.301C187.103 475.345 187.081 475.398 187.075 475.453C187.069 475.509 187.079 475.565 187.104 475.615C187.129 475.665 187.167 475.707 187.215 475.736C187.263 475.765 187.318 475.78 187.373 475.78" fill="#154734"/>
<path d="M190.873 465.043C190.873 465.121 190.842 465.196 190.787 465.251C190.732 465.307 190.657 465.338 190.578 465.338C190.5 465.338 190.425 465.307 190.37 465.251C190.314 465.196 190.283 465.121 190.283 465.043C190.283 464.964 190.314 464.889 190.37 464.834C190.425 464.779 190.5 464.748 190.578 464.748C190.657 464.748 190.732 464.779 190.787 464.834C190.842 464.889 190.873 464.964 190.873 465.043Z" fill="#154734"/>
<path d="M187.125 474.221C187.061 474.222 186.998 474.205 186.944 474.171C186.889 474.137 186.846 474.089 186.818 474.031C186.79 473.974 186.779 473.909 186.786 473.846C186.794 473.782 186.819 473.722 186.86 473.672L187.246 473.188H186.998C184.773 473.188 182.917 472.574 181.63 471.417C180.228 470.16 179.532 468.36 179.526 466.028C179.526 463.561 180.411 461.256 181.955 459.704C182.589 459.056 183.347 458.542 184.184 458.193C185.022 457.844 185.92 457.667 186.827 457.673C190.741 457.673 193.816 460.625 194.137 464.721C194.145 464.808 194.118 464.895 194.063 464.962C194.008 465.03 193.929 465.074 193.842 465.084C193.755 465.092 193.669 465.065 193.601 465.01C193.533 464.955 193.49 464.876 193.479 464.789C193.366 463.023 192.602 461.361 191.334 460.126C190.116 458.977 188.502 458.342 186.827 458.355C186.01 458.349 185.2 458.508 184.445 458.822C183.69 459.137 183.007 459.6 182.436 460.185C181.01 461.619 180.199 463.75 180.205 466.028C180.228 470.16 182.693 472.521 186.998 472.521C187.261 472.521 187.716 472.483 187.961 472.462C188.026 472.457 188.092 472.471 188.149 472.502C188.207 472.534 188.254 472.581 188.286 472.639C188.317 472.697 188.331 472.763 188.325 472.828C188.32 472.894 188.296 472.956 188.256 473.008L187.391 474.1C187.359 474.139 187.318 474.171 187.272 474.191C187.226 474.212 187.176 474.223 187.125 474.221Z" fill="#154734"/>
</g>
<path d="M159.173 508.992C159.629 508.992 160.001 508.62 160.001 508.164V505.344C160.001 504.888 159.629 504.516 159.173 504.516H151.253C150.797 504.516 150.425 504.888 150.425 505.344V508.164C150.425 508.62 150.797 508.992 151.253 508.992H159.173ZM149.921 502.788C149.921 503.244 150.293 503.616 150.749 503.616H151.349C153.509 503.616 155.225 503.508 156.917 503.1C157.265 503.016 157.541 502.692 157.541 502.308C157.541 501.852 157.169 501.48 156.713 501.48C156.641 501.48 156.545 501.492 156.497 501.504C155.177 501.828 153.665 501.96 152.057 501.96V499.68H155.633C156.089 499.68 156.461 499.308 156.461 498.852C156.461 498.396 156.089 498.024 155.633 498.024H150.749C150.293 498.024 149.921 498.396 149.921 498.852V502.788ZM157.841 503.136C157.841 503.76 158.321 504.216 158.921 504.216C159.521 504.216 160.001 503.76 160.001 503.136V501.684H160.649C161.117 501.684 161.489 501.312 161.489 500.844C161.489 500.376 161.117 500.004 160.649 500.004H160.001V498.804C160.001 498.192 159.521 497.724 158.921 497.724C158.321 497.724 157.841 498.192 157.841 498.804V503.136ZM152.561 506.148H157.865V507.36H152.561V506.148ZM167.225 500.004C167.225 502.668 166.829 504.744 165.689 506.808C165.557 507.048 165.485 507.24 165.485 507.504C165.485 508.08 165.941 508.512 166.517 508.512C166.865 508.512 167.201 508.356 167.381 508.032C168.725 505.62 169.265 502.92 169.265 499.632V499.044C169.265 498.576 168.893 498.204 168.425 498.204H166.661C166.169 498.204 165.893 498.6 165.893 499.116C165.893 499.608 166.169 500.004 166.661 500.004H167.225ZM170.237 508.068C170.237 508.668 170.705 509.112 171.293 509.112C171.869 509.112 172.337 508.668 172.337 508.068V498.768C172.337 498.18 171.869 497.724 171.293 497.724C170.705 497.724 170.237 498.18 170.237 498.768V508.068ZM163.613 500.004C163.613 502.428 163.301 504.264 161.969 506.208C161.813 506.436 161.753 506.64 161.753 506.904C161.753 507.48 162.209 507.912 162.785 507.912C163.133 507.912 163.457 507.78 163.673 507.456C165.209 505.152 165.653 502.656 165.653 499.632V499.044C165.653 498.576 165.281 498.204 164.813 498.204H162.629C162.137 498.204 161.861 498.6 161.861 499.116C161.861 499.608 162.137 500.004 162.629 500.004H163.613ZM187.071 502.272C187.527 502.272 187.899 501.9 187.899 501.444V498.792C187.899 498.336 187.527 497.964 187.071 497.964H178.527C178.071 497.964 177.699 498.336 177.699 498.792V501.444C177.699 501.9 178.071 502.272 178.527 502.272H187.071ZM177.279 503.892C177.279 504.336 177.663 504.72 178.119 504.72H181.839V505.656C181.839 506.28 182.319 506.676 182.919 506.676C183.519 506.676 183.999 506.28 183.999 505.656V504.72H187.467C187.947 504.72 188.319 504.336 188.319 503.892C188.319 503.424 187.947 503.04 187.467 503.04H178.119C177.663 503.04 177.279 503.424 177.279 503.892ZM177.699 507.972C177.699 508.596 178.191 508.992 178.719 508.992H187.299C187.767 508.992 188.139 508.62 188.139 508.152C188.139 507.684 187.767 507.312 187.299 507.312H179.859V506.256C179.859 505.656 179.379 505.296 178.779 505.296C178.179 505.296 177.699 505.656 177.699 506.256V507.972ZM179.835 499.62H185.763V500.616H179.835V499.62ZM189.747 502.44C189.747 504.216 191.355 505.188 193.251 505.188C195.147 505.188 196.779 504.216 196.779 502.44V500.604C196.779 498.828 195.135 497.844 193.239 497.844C191.343 497.844 189.747 498.828 189.747 500.604V502.44ZM191.859 500.628C191.859 499.992 192.447 499.584 193.251 499.584C194.055 499.584 194.667 499.992 194.667 500.628V502.416C194.667 503.052 194.055 503.436 193.251 503.436C192.447 503.436 191.859 503.052 191.859 502.416V500.628ZM190.179 508.572C192.507 508.572 194.871 508.464 196.695 508.152C197.187 508.068 197.487 507.732 197.487 507.264C197.487 506.76 197.091 506.364 196.587 506.364C196.527 506.364 196.479 506.376 196.407 506.388C194.559 506.7 192.363 506.772 190.179 506.772C189.675 506.772 189.279 507.168 189.279 507.672C189.279 508.176 189.675 508.572 190.179 508.572ZM197.775 508.032C197.775 508.656 198.255 509.112 198.855 509.112C199.455 509.112 199.935 508.656 199.935 508.032V498.804C199.935 498.192 199.455 497.724 198.855 497.724C198.255 497.724 197.775 498.192 197.775 498.804V508.032ZM201.159 507.612C201.159 508.188 201.579 508.632 202.179 508.632C202.455 508.632 202.719 508.548 202.899 508.392C203.847 507.576 204.519 506.652 204.939 505.344C205.371 506.628 206.031 507.516 206.979 508.332C207.159 508.488 207.423 508.572 207.699 508.572C208.299 508.572 208.719 508.128 208.719 507.552C208.719 507.204 208.575 506.916 208.347 506.724C206.763 505.416 206.019 503.616 206.019 500.472V498.924C206.019 498.324 205.539 497.844 204.939 497.844C204.339 497.844 203.859 498.324 203.859 498.924V500.472C203.859 503.616 203.103 505.464 201.519 506.772C201.291 506.964 201.159 507.264 201.159 507.612ZM209.439 508.032C209.439 508.656 209.919 509.112 210.519 509.112C211.119 509.112 211.599 508.656 211.599 508.032V503.916H212.187C212.679 503.916 213.087 503.52 213.087 503.016C213.087 502.512 212.679 502.116 212.187 502.116H211.599V498.804C211.599 498.192 211.119 497.724 210.519 497.724C209.919 497.724 209.439 498.192 209.439 498.804V508.032ZM221.547 508.992C222.783 508.992 223.719 508.224 223.719 507C223.719 505.764 222.783 504.996 221.547 504.996H216.063C214.839 504.996 213.903 505.764 213.903 507C213.903 508.224 214.839 508.992 216.063 508.992H221.547ZM213.579 502.44C213.579 503.496 214.407 504.264 215.427 504.264H218.451C219.483 504.264 220.299 503.496 220.299 502.44C220.299 501.372 219.483 500.616 218.451 500.616H215.427C214.407 500.616 213.579 501.372 213.579 502.44ZM221.439 503.7C221.439 504.324 221.919 504.78 222.519 504.78C223.119 504.78 223.599 504.324 223.599 503.7V501.96H224.247C224.715 501.96 225.087 501.588 225.087 501.12C225.087 500.652 224.715 500.28 224.247 500.28H223.599V498.804C223.599 498.192 223.119 497.724 222.519 497.724C221.919 497.724 221.439 498.192 221.439 498.804V503.7ZM213.339 499.38C213.339 499.812 213.687 500.172 214.119 500.172H219.759C220.191 500.172 220.539 499.812 220.539 499.38C220.539 498.948 220.191 498.588 219.759 498.588H218.019V498.384C218.019 497.772 217.539 497.484 216.939 497.484C216.339 497.484 215.859 497.772 215.859 498.384V498.588H214.119C213.687 498.588 213.339 498.948 213.339 499.38ZM216.039 507C216.039 506.796 216.159 506.628 216.483 506.628H221.139C221.463 506.628 221.583 506.796 221.583 507C221.583 507.204 221.463 507.36 221.139 507.36H216.483C216.159 507.36 216.039 507.204 216.039 507ZM215.619 502.44C215.619 502.248 215.751 502.128 216.003 502.128H217.875C218.127 502.128 218.259 502.248 218.259 502.44C218.259 502.632 218.127 502.752 217.875 502.752H216.003C215.751 502.752 215.619 502.632 215.619 502.44ZM116.313 519.16C112.985 519.16 110.601 521.592 110.601 525.992C110.601 530.408 112.985 532.856 116.313 532.856C119.625 532.856 122.025 530.408 122.025 525.992C122.025 521.592 119.625 519.16 116.313 519.16ZM113.449 525.992C113.449 523.256 114.473 521.688 116.313 521.688C118.153 521.688 119.177 523.256 119.177 525.992C119.177 528.744 118.169 530.328 116.313 530.328C114.473 530.328 113.449 528.744 113.449 525.992ZM127.192 531.544C127.192 532.376 127.832 532.904 128.632 532.904C129.432 532.904 130.072 532.376 130.072 531.544C130.072 528.232 131.752 524.648 133.432 522.136C133.768 521.64 133.832 520.744 133.592 520.232C133.336 519.656 132.744 519.32 132.04 519.32H124.824C123.864 519.32 123.224 519.96 123.224 520.92V523.72C123.224 524.552 123.752 525.016 124.552 525.016C125.352 525.016 125.88 524.552 125.88 523.72V521.816H130.6C129.224 523.784 127.192 527.912 127.192 531.544ZM140.563 519.16C137.235 519.16 134.851 521.592 134.851 525.992C134.851 530.408 137.235 532.856 140.563 532.856C143.875 532.856 146.275 530.408 146.275 525.992C146.275 521.592 143.875 519.16 140.563 519.16ZM137.699 525.992C137.699 523.256 138.723 521.688 140.563 521.688C142.403 521.688 143.427 523.256 143.427 525.992C143.427 528.744 142.419 530.328 140.563 530.328C138.723 530.328 137.699 528.744 137.699 525.992ZM156.162 527.032C156.85 527.032 157.314 526.376 157.314 525.736C157.314 525.08 156.85 524.472 156.162 524.472H148.866C148.178 524.472 147.714 525.096 147.714 525.736C147.714 526.392 148.178 527.032 148.866 527.032H156.162ZM165.221 527.832H162.005L165.221 523.528V527.832ZM168.005 527.8V520.664C168.005 519.944 167.509 519.432 166.869 519.224C166.149 519 165.285 519.256 164.853 519.848L158.965 527.768C158.597 528.248 158.501 528.936 158.693 529.432C158.885 529.928 159.381 530.296 160.149 530.296H165.189V531.624C165.189 532.456 165.797 532.904 166.597 532.904C167.397 532.904 168.005 532.456 168.005 531.624V530.296H169.109C169.797 530.296 170.197 529.688 170.197 529.048C170.197 528.392 169.797 527.8 169.109 527.8H168.005ZM177.364 530.136V520.424C177.364 519.896 177.124 519.464 176.676 519.272C176.132 519.032 175.572 519.176 175.14 519.464L171.988 521.576C171.348 522.008 171.364 522.824 171.78 523.384C172.196 523.944 172.996 524.12 173.54 523.752L174.484 523.112V530.136H172.564C171.876 530.136 171.476 530.776 171.476 531.416C171.476 532.072 171.876 532.696 172.564 532.696H178.644C179.332 532.696 179.732 532.056 179.732 531.416C179.732 530.76 179.332 530.136 178.644 530.136H177.364ZM184.307 521.848H189.555C190.243 521.848 190.707 521.224 190.707 520.584C190.707 519.928 190.243 519.32 189.555 519.32H183.443C182.483 519.32 181.779 519.96 181.683 520.92L181.203 525.72C181.123 526.552 181.731 527.176 182.499 527.176C182.899 527.176 183.331 527.032 183.747 526.776C184.515 526.296 185.011 526.024 186.179 526.024C187.491 526.024 188.355 526.872 188.355 528.12C188.355 529.24 187.459 530.264 185.971 530.264C184.675 530.264 183.939 529.608 183.251 528.936C182.739 528.44 181.987 528.44 181.475 528.904C180.963 529.368 180.851 530.056 181.267 530.616C182.307 532.024 183.923 532.712 185.971 532.728C189.059 532.744 191.203 530.76 191.203 528.056C191.203 525.336 189.107 523.56 186.339 523.56C185.379 523.56 184.547 523.816 184.051 524.184L184.307 521.848ZM198.36 519.16C195.032 519.16 192.648 521.592 192.648 525.992C192.648 530.408 195.032 532.856 198.36 532.856C201.672 532.856 204.072 530.408 204.072 525.992C204.072 521.592 201.672 519.16 198.36 519.16ZM195.496 525.992C195.496 523.256 196.52 521.688 198.36 521.688C200.2 521.688 201.224 523.256 201.224 525.992C201.224 528.744 200.216 530.328 198.36 530.328C196.52 530.328 195.496 528.744 195.496 525.992ZM213.959 527.032C214.647 527.032 215.111 526.376 215.111 525.736C215.111 525.08 214.647 524.472 213.959 524.472H206.663C205.975 524.472 205.511 525.096 205.511 525.736C205.511 526.392 205.975 527.032 206.663 527.032H213.959ZM226.122 532.696C226.81 532.696 227.274 532.056 227.274 531.416C227.274 530.76 226.81 530.136 226.122 530.136H219.754C219.834 529.064 221.578 528.104 223.082 527.416C225.53 526.296 226.922 525.64 226.922 523.176C226.922 520.84 224.65 519.16 221.866 519.16C219.562 519.16 217.562 520.44 216.954 522.552C216.73 523.32 217.226 524.024 217.978 524.136C218.698 524.248 219.322 523.944 219.61 523.24C220.026 522.232 220.826 521.736 221.898 521.736C223.418 521.736 224.074 522.488 224.074 523.208C224.074 524.184 223.546 524.52 221.85 525.304C219.434 526.424 216.714 527.448 216.714 530.904C216.714 532.088 217.322 532.696 218.522 532.696H226.122ZM238.278 532.696C238.966 532.696 239.43 532.056 239.43 531.416C239.43 530.76 238.966 530.136 238.278 530.136H231.91C231.99 529.064 233.734 528.104 235.238 527.416C237.686 526.296 239.078 525.64 239.078 523.176C239.078 520.84 236.806 519.16 234.022 519.16C231.718 519.16 229.718 520.44 229.11 522.552C228.886 523.32 229.382 524.024 230.134 524.136C230.854 524.248 231.478 523.944 231.766 523.24C232.182 522.232 232.982 521.736 234.054 521.736C235.574 521.736 236.23 522.488 236.23 523.208C236.23 524.184 235.702 524.52 234.006 525.304C231.59 526.424 228.87 527.448 228.87 530.904C228.87 532.088 229.478 532.696 230.678 532.696H238.278ZM241.443 521.416C241.059 522.024 241.283 522.824 241.923 523.192C242.611 523.592 243.379 523.368 243.731 522.84C244.195 522.152 244.979 521.672 246.067 521.672C247.139 521.672 248.083 522.216 248.083 523.112C248.083 524.232 246.867 524.552 245.683 524.552C244.947 524.552 244.435 524.968 244.435 525.768C244.435 526.568 244.947 526.984 245.683 526.984C247.123 526.984 248.483 527.416 248.483 528.648C248.483 529.688 247.523 530.376 246.035 530.376C244.851 530.376 244.003 529.736 243.475 528.968C243.027 528.328 242.147 528.376 241.603 528.728C241.075 529.08 240.851 529.784 241.203 530.44C242.019 531.96 243.779 532.856 245.907 532.856C248.867 532.856 251.331 531.288 251.331 528.648C251.331 527.048 250.323 526.04 249.235 525.768C250.179 525.336 250.931 524.392 250.931 522.968C250.931 521.016 249.059 519.16 246.019 519.16C243.891 519.16 242.243 520.136 241.443 521.416ZM253.349 521.416C252.965 522.024 253.189 522.824 253.829 523.192C254.517 523.592 255.285 523.368 255.637 522.84C256.101 522.152 256.885 521.672 257.973 521.672C259.045 521.672 259.989 522.216 259.989 523.112C259.989 524.232 258.773 524.552 257.589 524.552C256.853 524.552 256.341 524.968 256.341 525.768C256.341 526.568 256.853 526.984 257.589 526.984C259.029 526.984 260.389 527.416 260.389 528.648C260.389 529.688 259.429 530.376 257.941 530.376C256.757 530.376 255.909 529.736 255.381 528.968C254.933 528.328 254.053 528.376 253.509 528.728C252.981 529.08 252.757 529.784 253.109 530.44C253.925 531.96 255.685 532.856 257.813 532.856C260.773 532.856 263.237 531.288 263.237 528.648C263.237 527.048 262.229 526.04 261.141 525.768C262.085 525.336 262.837 524.392 262.837 522.968C262.837 521.016 260.965 519.16 257.925 519.16C255.797 519.16 254.149 520.136 253.349 521.416Z" fill="white"/>
<defs>
<clipPath id="clip0_923_446">
<rect width="85" height="23" fill="white" transform="translate(145 52)"/>
</clipPath>
<clipPath id="clip1_923_446">
<rect width="44" height="44" fill="white" transform="translate(165 443)"/>
</clipPath>
</defs>
</svg>
