<svg width="344" height="410" viewBox="0 0 344 410" fill="none" xmlns="http://www.w3.org/2000/svg">
<rect y="118" width="344" height="119" rx="12" fill="white"/>
<rect x="89" y="92" width="165" height="43" rx="21.5" fill="#FFEEB2"/>
<path d="M133.905 115.835V118.761H125.564V125.012H122.329V118.82H114V115.894L133.905 115.835ZM124.444 106.073H114.855V102.901H133.05V105.593L126.916 108.52L132.889 110.861V114.255L123.3 110.217L114.855 114.255V110.744L124.444 106.073Z" fill="#65B683"/>
<path d="M155.532 114.126V117.088H147.549V120.213H144.476V117.088H140.49V121.77H154.446V125.012H137.198V117.134H135.615V114.173L155.532 114.126ZM153.996 102.89V112.043H137.198V102.89H153.996ZM140.236 108.918H150.911V106.015H140.236V108.918Z" fill="#65B683"/>
<path d="M165.525 104.212H169.985V107.15H157.831V104.224H162.279V102H165.525V104.212ZM164.728 108.578C165.323 108.566 165.914 108.672 166.468 108.891C167.022 109.11 167.528 109.438 167.958 109.855C168.387 110.273 168.731 110.772 168.969 111.324C169.208 111.876 169.337 112.47 169.349 113.073V120.33C169.325 121.548 168.825 122.706 167.958 123.551C167.092 124.396 165.93 124.858 164.728 124.836H163.018C161.816 124.858 160.654 124.396 159.788 123.551C158.922 122.706 158.421 121.548 158.397 120.33V113.073C158.409 112.47 158.538 111.876 158.777 111.324C159.016 110.772 159.359 110.273 159.789 109.855C160.218 109.438 160.724 109.11 161.278 108.891C161.832 108.672 162.423 108.566 163.018 108.578H164.728ZM163.989 121.699C164.265 121.72 164.542 121.683 164.802 121.59C165.063 121.497 165.302 121.35 165.504 121.159C165.706 120.967 165.867 120.736 165.976 120.478C166.085 120.22 166.14 119.943 166.138 119.663V113.81C166.14 113.529 166.085 113.25 165.976 112.992C165.867 112.733 165.707 112.5 165.505 112.307C165.304 112.113 165.065 111.964 164.804 111.868C164.543 111.773 164.266 111.732 163.989 111.75H163.758C163.481 111.732 163.203 111.773 162.942 111.868C162.681 111.964 162.442 112.113 162.241 112.307C162.039 112.5 161.879 112.733 161.77 112.992C161.662 113.25 161.607 113.529 161.609 113.81V119.663C161.606 119.943 161.661 120.22 161.77 120.478C161.879 120.736 162.04 120.967 162.242 121.159C162.444 121.35 162.683 121.497 162.944 121.59C163.205 121.683 163.482 121.72 163.758 121.699H163.989ZM175.726 111.668H178.037V114.864H175.726V125.012H172.457V102.772H175.715L175.726 111.668Z" fill="#65B683"/>
<path d="M187.306 106.277H179V103.129H190.946V106.266L188.277 125.052H184.707L187.306 106.277ZM198.085 125.239H194.504V103H198.074L198.085 125.239Z" fill="#65B683"/>
<path d="M110.227 161.492C106.699 161.492 104.503 162.644 104.503 164.57C104.503 166.496 106.699 167.63 110.227 167.63C113.737 167.63 115.951 166.496 115.951 164.57C115.951 162.644 113.737 161.492 110.227 161.492ZM110.227 162.68C112.801 162.68 114.421 163.364 114.421 164.57C114.421 165.758 112.801 166.46 110.227 166.46C107.635 166.46 106.033 165.758 106.033 164.57C106.033 163.364 107.635 162.68 110.227 162.68ZM104.665 171.824V177.188H115.771V171.824H104.665ZM114.313 173.03V175.982H106.141V173.03H114.313ZM102.865 169.034V170.24H117.571V169.034H102.865ZM123.618 161.906V163.49C123.618 165.92 121.98 168.17 119.514 169.07L120.27 170.258C123.024 169.214 124.86 166.568 124.86 163.49V161.906H123.618ZM123.888 161.906V163.49C123.888 166.478 125.724 168.962 128.442 169.952L129.198 168.782C126.786 167.936 125.112 165.83 125.112 163.49V161.906H123.888ZM121.854 171.752V172.976H131.214V177.404H132.726V171.752H121.854ZM131.214 161.132V170.924H132.726V161.132H131.214ZM143.236 161.402C139.636 161.402 137.512 162.41 137.512 164.228C137.512 166.046 139.636 167.054 143.236 167.054C146.818 167.054 148.96 166.046 148.96 164.228C148.96 162.41 146.818 161.402 143.236 161.402ZM143.236 162.536C145.882 162.536 147.412 163.148 147.412 164.228C147.412 165.308 145.882 165.92 143.236 165.92C140.572 165.92 139.042 165.308 139.042 164.228C139.042 163.148 140.572 162.536 143.236 162.536ZM135.874 168.134V169.34H150.58V168.134H135.874ZM137.656 170.726V171.878H147.232V173.318H137.692V176.378H139.168V174.398H148.708V170.726H137.656ZM137.692 176.054V177.224H149.194V176.054H137.692ZM162.884 162.734V163.418C162.884 165.56 160.094 167.432 157.232 167.846L157.808 169.034C161.084 168.476 164.18 166.334 164.18 163.418V162.734H162.884ZM163.262 162.734V163.418C163.262 166.334 166.34 168.476 169.634 169.034L170.192 167.846C167.348 167.432 164.54 165.56 164.54 163.418V162.734H163.262ZM162.938 171.194V177.404H164.414V171.194H162.938ZM156.368 170.402V171.626H171.074V170.402H156.368ZM157.736 162.14V163.346H169.652V162.14H157.736ZM172.855 169.448V170.672H187.597V169.448H172.855ZM179.587 170.204V173.948H181.081V170.204H179.587ZM174.745 161.888V167.612H185.689V161.888H174.745ZM184.213 163.094V166.406H176.203V163.094H184.213ZM174.727 175.82V177.044H185.959V175.82H174.727ZM174.727 172.382V176.252H176.203V172.382H174.727ZM200.394 161.132V177.404H201.888V161.132H200.394ZM201.528 167.81V169.07H204.552V167.81H201.528ZM189.288 163.724V164.948H198.882V163.724H189.288ZM194.148 166.298C191.862 166.298 190.188 167.846 190.188 170.042C190.188 172.238 191.862 173.786 194.148 173.786C196.452 173.786 198.108 172.238 198.108 170.042C198.108 167.846 196.452 166.298 194.148 166.298ZM194.148 167.54C195.624 167.54 196.686 168.566 196.686 170.042C196.686 171.5 195.624 172.544 194.148 172.544C192.672 172.544 191.61 171.5 191.61 170.042C191.61 168.566 192.672 167.54 194.148 167.54ZM193.374 161.33V164.282H194.868V161.33H193.374ZM217.708 161.132V169.556H219.202V161.132H217.708ZM208.69 170.384V171.554H217.744V173.174H208.726V176.522H210.184V174.29H219.22V170.384H208.69ZM208.726 176.036V177.224H219.76V176.036H208.726ZM210.112 161.6V162.842C210.112 165.2 208.438 167.36 205.99 168.224L206.728 169.412C209.482 168.404 211.354 165.848 211.354 162.842V161.6H210.112ZM210.382 161.6V162.842C210.382 165.758 212.254 168.152 214.99 169.088L215.728 167.918C213.316 167.126 211.606 165.092 211.606 162.842V161.6H210.382ZM235.664 161.474V176.594H237.05V161.474H235.664ZM236.474 167.756V168.98H239.48V167.756H236.474ZM226.826 171.932V173.174H227.474C228.158 173.174 229.202 173.174 230.552 172.85L230.426 171.608C229.166 171.914 228.104 171.932 227.474 171.932H226.826ZM226.826 163.166V172.634H228.212V164.39H230.3V163.166H226.826ZM231.002 171.932V173.174H231.686C232.622 173.174 233.738 173.156 235.07 172.796L234.926 171.554C233.684 171.896 232.55 171.932 231.686 171.932H231.002ZM231.002 163.166V172.58H232.37V164.39H234.584V163.166H231.002ZM238.958 161.132V177.404H240.38V161.132H238.958ZM41.5119 191.492C37.9839 191.492 35.7879 192.644 35.7879 194.57C35.7879 196.496 37.9839 197.63 41.5119 197.63C45.0219 197.63 47.2359 196.496 47.2359 194.57C47.2359 192.644 45.0219 191.492 41.5119 191.492ZM41.5119 192.68C44.0859 192.68 45.7059 193.364 45.7059 194.57C45.7059 195.758 44.0859 196.46 41.5119 196.46C38.9199 196.46 37.3179 195.758 37.3179 194.57C37.3179 193.364 38.9199 192.68 41.5119 192.68ZM35.9499 201.824V207.188H47.0559V201.824H35.9499ZM45.5979 203.03V205.982H37.4259V203.03H45.5979ZM34.1499 199.034V200.24H48.8559V199.034H34.1499ZM54.9025 191.906V193.49C54.9025 195.92 53.2645 198.17 50.7985 199.07L51.5545 200.258C54.3085 199.214 56.1445 196.568 56.1445 193.49V191.906H54.9025ZM55.1725 191.906V193.49C55.1725 196.478 57.0085 198.962 59.7265 199.952L60.4825 198.782C58.0705 197.936 56.3965 195.83 56.3965 193.49V191.906H55.1725ZM53.1385 201.752V202.976H62.4985V207.404H64.0105V201.752H53.1385ZM62.4985 191.132V200.924H64.0105V191.132H62.4985ZM75.8531 195.2V196.442H79.4711V195.2H75.8531ZM79.0571 191.132V200.654H80.5511V191.132H79.0571ZM70.0031 201.446V207.188H80.5511V201.446H70.0031ZM79.0931 202.634V205.982H71.4611V202.634H79.0931ZM71.3171 192.68V193.994C71.3171 196.298 69.6431 198.458 67.2131 199.322L67.9871 200.51C70.7051 199.502 72.5411 196.964 72.5411 193.994V192.68H71.3171ZM71.6051 192.68V193.976C71.6051 196.712 73.3511 199.178 75.9971 200.132L76.7531 198.944C74.3951 198.116 72.8111 196.082 72.8111 193.976V192.68H71.6051ZM67.6811 192.176V193.382H76.3751V192.176H67.6811ZM90.2697 197.45V198.692H93.3477V197.45H90.2697ZM96.0657 191.132V207.404H97.5057V191.132H96.0657ZM92.8437 191.474V206.594H94.2657V191.474H92.8437ZM87.3357 192.482C85.2297 192.482 83.8797 194.66 83.8797 198.152C83.8797 201.644 85.2297 203.822 87.3357 203.822C89.4417 203.822 90.8097 201.644 90.8097 198.152C90.8097 194.66 89.4417 192.482 87.3357 192.482ZM87.3357 193.868C88.6317 193.868 89.4417 195.524 89.4417 198.152C89.4417 200.78 88.6317 202.436 87.3357 202.436C86.0577 202.436 85.2477 200.78 85.2477 198.152C85.2477 195.524 86.0577 193.868 87.3357 193.868ZM105.652 197.378C106.282 197.378 106.714 196.964 106.714 196.28C106.714 195.614 106.21 195.254 105.652 195.254C105.328 195.254 105.13 195.38 104.878 195.614L105.724 196.64L105.472 195.308C105.472 194.156 105.976 193.454 107.002 192.788L106.534 191.996C105.13 192.806 104.392 193.958 104.392 195.56C104.392 196.73 104.842 197.378 105.652 197.378ZM109.18 197.378C109.81 197.378 110.242 196.964 110.242 196.28C110.242 195.614 109.738 195.254 109.18 195.254C108.874 195.254 108.658 195.38 108.406 195.614L109.234 196.64L109.018 195.308C109.018 194.156 109.522 193.454 110.53 192.788L110.062 191.996C108.676 192.806 107.92 193.958 107.92 195.56C107.92 196.73 108.388 197.378 109.18 197.378ZM123.627 191.114V207.422H125.139V191.114H123.627ZM124.779 197.54V198.8H127.803V197.54H124.779ZM113.313 202.112V203.372H114.591C117.651 203.372 119.793 203.282 122.295 202.814L122.133 201.554C119.703 202.004 117.597 202.112 114.591 202.112H113.313ZM113.313 192.698V202.67H114.789V193.922H120.873V192.698H113.313ZM133.76 200.888V203.57H135.272V200.888H133.76ZM140.888 191.132V207.404H142.382V191.132H140.888ZM129.422 204.308C132.428 204.308 136.352 204.272 139.97 203.66L139.862 202.562C136.352 203.012 132.302 203.048 129.224 203.066L129.422 204.308ZM129.566 193.112V194.318H139.448V193.112H129.566ZM134.498 195.254C132.176 195.254 130.592 196.442 130.592 198.26C130.592 200.096 132.176 201.266 134.498 201.266C136.838 201.266 138.422 200.096 138.422 198.26C138.422 196.442 136.838 195.254 134.498 195.254ZM134.498 196.406C135.974 196.406 137 197.144 137 198.26C137 199.376 135.974 200.114 134.498 200.114C133.04 200.114 132.014 199.376 132.014 198.26C132.014 197.144 133.04 196.406 134.498 196.406ZM133.76 191.132V193.778H135.254V191.132H133.76ZM149.256 196.64V199.718H150.732V196.64H149.256ZM155.232 196.64V199.718H156.708V196.64H155.232ZM145.62 199.178V200.384H160.326V199.178H145.62ZM152.964 201.608C149.472 201.608 147.384 202.634 147.384 204.488C147.384 206.342 149.472 207.386 152.964 207.386C156.456 207.386 158.544 206.342 158.544 204.488C158.544 202.634 156.456 201.608 152.964 201.608ZM152.964 202.76C155.52 202.76 157.032 203.39 157.032 204.488C157.032 205.604 155.52 206.216 152.964 206.216C150.426 206.216 148.896 205.604 148.896 204.488C148.896 203.39 150.426 202.76 152.964 202.76ZM152.982 191.42C149.436 191.42 147.258 192.554 147.258 194.462C147.258 196.352 149.436 197.468 152.982 197.468C156.51 197.468 158.706 196.352 158.706 194.462C158.706 192.554 156.51 191.42 152.982 191.42ZM152.982 192.59C155.574 192.59 157.176 193.274 157.176 194.462C157.176 195.632 155.574 196.316 152.982 196.316C150.39 196.316 148.788 195.632 148.788 194.462C148.788 193.274 150.39 192.59 152.982 192.59ZM173.987 191.132V207.404H175.481V191.132H173.987ZM169.217 192.878V193.13C169.217 197.45 167.039 200.906 162.341 203.174L163.133 204.38C168.569 201.716 170.693 197.594 170.693 192.878H169.217ZM163.079 192.878V194.102H169.865V192.878H163.079ZM179.457 197.342C180.861 196.514 181.599 195.362 181.599 193.76C181.599 192.608 181.131 191.96 180.339 191.96C179.709 191.96 179.277 192.374 179.277 193.058C179.277 193.706 179.781 194.066 180.339 194.066C180.645 194.066 180.861 193.958 181.113 193.724L180.267 192.698L180.519 194.012C180.519 195.2 180.015 195.884 178.989 196.568L179.457 197.342ZM183.003 197.342C184.389 196.514 185.145 195.362 185.145 193.76C185.145 192.608 184.677 191.96 183.885 191.96C183.273 191.96 182.823 192.374 182.823 193.058C182.823 193.706 183.327 194.066 183.885 194.066C184.191 194.066 184.425 193.958 184.659 193.724L183.813 192.698L184.047 194.012C184.047 195.2 183.543 195.884 182.535 196.568L183.003 197.342ZM187.101 198.692V199.826H201.861V198.692H187.101ZM188.847 201.14V202.202H198.549V203.588H188.901V206.522H190.377V204.614H200.007V201.14H188.847ZM188.901 206.126V207.206H200.529V206.126H188.901ZM188.973 191.6V192.662H198.495V193.976H189.009V196.748H190.485V194.984H199.953V191.6H188.973ZM189.009 196.388V197.468H200.259V196.388H189.009ZM211.195 199.502V204.38H212.671V199.502H211.195ZM217.207 199.502V204.38H218.701V199.502H217.207ZM207.595 204.092V205.334H222.337V204.092H207.595ZM214.939 192.158C211.483 192.158 209.017 193.796 209.017 196.352C209.017 198.89 211.483 200.528 214.939 200.528C218.377 200.528 220.843 198.89 220.843 196.352C220.843 193.796 218.377 192.158 214.939 192.158ZM214.939 193.346C217.549 193.346 219.403 194.534 219.403 196.352C219.403 198.152 217.549 199.34 214.939 199.34C212.329 199.34 210.457 198.152 210.457 196.352C210.457 194.534 212.329 193.346 214.939 193.346ZM228.149 193.904V194.606C228.149 196.802 226.529 198.782 224.135 199.556L224.855 200.726C227.573 199.808 229.373 197.432 229.373 194.606V193.904H228.149ZM228.419 193.904V194.606C228.419 197.27 230.291 199.466 233.027 200.312L233.711 199.142C231.317 198.44 229.643 196.622 229.643 194.606V193.904H228.419ZM224.549 193.094V194.3H233.225V193.094H224.549ZM228.149 191.06V193.526H229.643V191.06H228.149ZM232.739 195.758V197H236.411V195.758H232.739ZM235.979 191.132V200.978H237.473V191.132H235.979ZM232.127 201.41C228.743 201.41 226.691 202.508 226.691 204.398C226.691 206.27 228.743 207.368 232.127 207.368C235.493 207.368 237.545 206.27 237.545 204.398C237.545 202.508 235.493 201.41 232.127 201.41ZM232.127 202.58C234.575 202.58 236.069 203.246 236.069 204.398C236.069 205.532 234.575 206.198 232.127 206.198C229.661 206.198 228.185 205.532 228.185 204.398C228.185 203.246 229.661 202.58 232.127 202.58ZM240.568 193.904V195.128H248.632V193.904H240.568ZM244.6 196.208C242.584 196.208 241.108 197.738 241.108 199.934C241.108 202.112 242.584 203.642 244.6 203.642C246.634 203.642 248.11 202.112 248.11 199.934C248.11 197.738 246.634 196.208 244.6 196.208ZM244.6 197.486C245.86 197.486 246.778 198.494 246.778 199.934C246.778 201.374 245.86 202.382 244.6 202.382C243.358 202.382 242.458 201.374 242.458 199.934C242.458 198.494 243.358 197.486 244.6 197.486ZM252.934 191.132V207.404H254.374V191.132H252.934ZM250.342 197.972V199.214H253.42V197.972H250.342ZM249.46 191.492V206.612H250.864V191.492H249.46ZM243.88 191.6V194.66H245.356V191.6H243.88ZM263.625 192.734V193.418C263.625 195.56 260.835 197.432 257.973 197.846L258.549 199.034C261.825 198.476 264.921 196.334 264.921 193.418V192.734H263.625ZM264.003 192.734V193.418C264.003 196.334 267.081 198.476 270.375 199.034L270.933 197.846C268.089 197.432 265.281 195.56 265.281 193.418V192.734H264.003ZM263.679 201.194V207.404H265.155V201.194H263.679ZM257.109 200.402V201.626H271.815V200.402H257.109ZM258.477 192.14V193.346H270.393V192.14H258.477ZM280.021 196.946V198.188H283.135V196.946H280.021ZM276.979 192.662V195.758C276.979 198.548 275.647 201.464 273.415 202.778L274.351 203.912C276.727 202.454 278.149 199.16 278.149 195.758V192.662H276.979ZM277.267 192.662V195.704C277.267 198.872 278.581 202.112 280.921 203.552L281.785 202.382C279.643 201.086 278.419 198.314 278.419 195.704V192.662H277.267ZM285.997 191.132V207.404H287.437V191.132H285.997ZM282.703 191.474V206.594H284.107V191.474H282.703ZM293.718 199.502V204.38H295.194V199.502H293.718ZM299.73 199.502V204.38H301.224V199.502H299.73ZM290.118 204.092V205.334H304.86V204.092H290.118ZM297.462 192.158C294.006 192.158 291.54 193.796 291.54 196.352C291.54 198.89 294.006 200.528 297.462 200.528C300.9 200.528 303.366 198.89 303.366 196.352C303.366 193.796 300.9 192.158 297.462 192.158ZM297.462 193.346C300.072 193.346 301.926 194.534 301.926 196.352C301.926 198.152 300.072 199.34 297.462 199.34C294.852 199.34 292.98 198.152 292.98 196.352C292.98 194.534 294.852 193.346 297.462 193.346ZM308.206 206.252C308.872 206.252 309.412 205.73 309.412 204.992C309.412 204.236 308.872 203.732 308.206 203.732C307.558 203.732 307.036 204.236 307.036 204.992C307.036 205.73 307.558 206.252 308.206 206.252Z" fill="black"/>
<rect y="291" width="344" height="119" rx="12" fill="white"/>
<rect x="89" y="265" width="165" height="43" rx="21.5" fill="#FFEEB2"/>
<path d="M45.3956 335.662V346.336H51.6056V335.662H50.2196V339.64H46.8176V335.662H45.3956ZM46.8176 340.846H50.2196V345.112H46.8176V340.846ZM57.2036 334.132V350.404H58.6436V334.132H57.2036ZM54.5936 340.576V341.8H57.7256V340.576H54.5936ZM53.6036 334.474V349.594H55.0256V334.474H53.6036ZM62.0442 340.504V341.728H63.3042C66.6342 341.728 68.6142 341.62 70.9182 341.152L70.7382 339.946C68.5062 340.396 66.5802 340.504 63.3042 340.504H62.0442ZM62.0442 335.068V341.224H63.5202V336.274H69.2262V335.068H62.0442ZM72.4482 334.132V342.322H73.9422V334.132H72.4482ZM73.5282 337.552V338.794H76.3542V337.552H73.5282ZM63.6102 343.15V344.338H72.4842V346.012H63.6462V349.684H65.1222V347.164H73.9422V343.15H63.6102ZM63.6462 348.982V350.188H74.5362V348.982H63.6462ZM88.8268 334.114V350.404H90.3388V334.114H88.8268ZM89.9248 340.72V341.962H92.9308V340.72H89.9248ZM84.6688 335.878V336.112C84.6688 340.414 82.4188 343.888 77.9188 346.174L78.7468 347.326C84.0028 344.68 86.1268 340.504 86.1268 335.878H84.6688ZM78.6748 335.878V337.102H85.4428V335.878H78.6748ZM101.767 344.338C98.4554 344.338 96.4214 345.454 96.4214 347.362C96.4214 349.27 98.4554 350.386 101.767 350.386C105.079 350.386 107.113 349.27 107.113 347.362C107.113 345.454 105.079 344.338 101.767 344.338ZM101.767 345.544C104.179 345.544 105.655 346.21 105.655 347.362C105.655 348.532 104.179 349.198 101.767 349.198C99.3554 349.198 97.8794 348.532 97.8794 347.362C97.8794 346.21 99.3554 345.544 101.767 345.544ZM105.457 334.132V343.906H106.951V334.132H105.457ZM106.537 338.218V339.478H109.363V338.218H106.537ZM94.9994 335.158V342.664H102.523V335.158H101.065V337.588H96.4754V335.158H94.9994ZM96.4754 338.776H101.065V341.458H96.4754V338.776ZM116.112 335.302C113.574 335.302 111.738 336.868 111.738 339.136C111.738 341.422 113.574 342.988 116.112 342.988C118.65 342.988 120.468 341.422 120.468 339.136C120.468 336.868 118.65 335.302 116.112 335.302ZM116.112 336.598C117.786 336.598 119.01 337.624 119.01 339.136C119.01 340.648 117.786 341.692 116.112 341.692C114.42 341.692 113.196 340.648 113.196 339.136C113.196 337.624 114.42 336.598 116.112 336.598ZM122.592 334.114V350.422H124.086V334.114H122.592ZM111.126 346.858C114.024 346.858 118.002 346.84 121.656 346.138L121.53 345.04C117.984 345.598 113.88 345.616 110.91 345.616L111.126 346.858ZM137.092 349.252C140.404 349.252 142.708 346.588 142.708 342.358C142.708 338.146 140.404 335.572 137.092 335.572C133.762 335.572 131.458 338.128 131.458 342.358C131.458 346.588 133.762 349.252 137.092 349.252ZM137.092 347.866C134.716 347.866 133.168 345.742 133.168 342.358C133.168 339.064 134.716 337.03 137.092 337.03C139.45 337.03 141.016 339.064 141.016 342.358C141.016 345.742 139.45 347.866 137.092 347.866ZM141.124 352.33C141.916 352.33 142.6 352.186 143.014 352.024L142.69 350.728C142.33 350.854 141.898 350.926 141.304 350.926C139.738 350.926 138.442 350.224 137.92 348.838L136.192 348.964C136.894 350.89 138.604 352.33 141.124 352.33ZM145.519 349H147.193V343.42H149.641C152.323 343.42 154.249 342.16 154.249 339.514C154.249 336.778 152.323 335.806 149.641 335.806H145.519V349ZM147.193 342.07V337.174H149.407C151.459 337.174 152.593 337.786 152.593 339.514C152.593 341.224 151.459 342.07 149.407 342.07H147.193ZM152.773 349H154.645L150.613 342.106L149.317 342.97L152.773 349ZM157.737 335.716V336.94H168.069V335.716H157.737ZM155.973 346.966V348.19H170.679V346.966H155.973ZM167.457 335.716V337.264C167.457 339.19 167.457 341.476 166.755 344.626L168.249 344.806C168.915 341.476 168.915 339.244 168.915 337.264V335.716H167.457ZM167.781 339.622L157.287 340.036L157.521 341.332L167.781 340.756V339.622ZM161.697 342.754V347.416H163.191V342.754H161.697ZM174.35 341.926V343.15H185.528V341.926H174.35ZM172.496 346.966V348.208H187.238V346.966H172.496ZM174.35 335.626V342.466H175.844V336.868H185.366V335.626H174.35ZM189 347.164V348.406H203.742V347.164H189ZM195.588 343.672V347.686H197.082V343.672H195.588ZM190.782 335.338V336.544H200.448V339.064H190.836V343.528H192.312V340.27H201.924V335.338H190.782ZM190.836 342.898V344.122H202.302V342.898H190.836ZM220.6 334.15V346.084H222.094V334.15H220.6ZM221.626 339.064V340.306H224.506V339.064H221.626ZM211.96 348.82V350.044H222.832V348.82H211.96ZM211.96 344.932V349.108H213.454V344.932H211.96ZM210.142 335.302V343.366H217.666V335.302H216.208V338.02H211.618V335.302H210.142ZM211.618 339.19H216.208V342.16H211.618V339.19ZM237.105 334.132V342.61H238.617V334.132H237.105ZM238.203 337.75V338.992H241.011V337.75H238.203ZM226.755 334.87V341.386H228.249V334.87H226.755ZM226.755 340.594V341.854H228.033C230.463 341.854 232.893 341.674 235.647 341.116L235.467 339.892C232.803 340.432 230.373 340.594 228.033 340.594H226.755ZM228.321 343.456V350.188H238.599V343.456H237.123V345.616H229.797V343.456H228.321ZM229.797 346.822H237.123V348.982H229.797V346.822ZM254.311 334.15V346.066H255.823V334.15H254.311ZM245.365 348.82V350.044H256.309V348.82H245.365ZM245.365 344.968V349.396H246.841V344.968H245.365ZM246.715 335.032V336.688C246.715 339.208 245.095 341.584 242.647 342.538L243.421 343.744C246.157 342.628 247.957 339.856 247.957 336.688V335.032H246.715ZM246.985 335.032V336.688C246.985 339.784 248.785 342.394 251.485 343.438L252.277 342.232C249.847 341.35 248.209 339.136 248.209 336.688V335.032H246.985ZM263.04 336.904V337.606C263.04 339.802 261.42 341.782 259.026 342.556L259.746 343.726C262.464 342.808 264.264 340.432 264.264 337.606V336.904H263.04ZM263.31 336.904V337.606C263.31 340.27 265.182 342.466 267.918 343.312L268.602 342.142C266.208 341.44 264.534 339.622 264.534 337.606V336.904H263.31ZM259.44 336.094V337.3H268.116V336.094H259.44ZM263.04 334.06V336.526H264.534V334.06H263.04ZM267.63 338.758V340H271.302V338.758H267.63ZM270.87 334.132V343.978H272.364V334.132H270.87ZM267.018 344.41C263.634 344.41 261.582 345.508 261.582 347.398C261.582 349.27 263.634 350.368 267.018 350.368C270.384 350.368 272.436 349.27 272.436 347.398C272.436 345.508 270.384 344.41 267.018 344.41ZM267.018 345.58C269.466 345.58 270.96 346.246 270.96 347.398C270.96 348.532 269.466 349.198 267.018 349.198C264.552 349.198 263.076 348.532 263.076 347.398C263.076 346.246 264.552 345.58 267.018 345.58ZM280.222 335.986V337.192H293.308V335.986H280.222ZM279.466 344.68V345.904H294.208V344.68H279.466ZM286.054 345.67V350.422H287.548V345.67H286.054ZM286.81 338.128C283.48 338.128 281.518 339.1 281.518 340.846C281.518 342.574 283.48 343.564 286.81 343.564C290.122 343.564 292.084 342.574 292.084 340.846C292.084 339.1 290.122 338.128 286.81 338.128ZM286.81 339.28C289.186 339.28 290.554 339.838 290.554 340.846C290.554 341.854 289.186 342.412 286.81 342.412C284.434 342.412 283.066 341.854 283.066 340.846C283.066 339.838 284.434 339.28 286.81 339.28ZM286.054 334.042V336.796H287.548V334.042H286.054ZM296.403 352.42C298.041 351.754 299.031 350.404 299.031 348.658C299.031 347.47 298.509 346.732 297.645 346.732C296.979 346.732 296.421 347.164 296.421 347.884C296.421 348.622 296.979 349.036 297.609 349.036C297.933 349.036 298.221 348.946 298.437 348.676L297.645 347.488L297.825 348.964C297.825 350.062 297.141 350.962 296.025 351.466L296.403 352.42ZM57.1402 373.762V374.986H71.9002V373.762H57.1402ZM63.7282 374.338V380.404H65.2042V374.338H63.7282ZM58.9942 364.78V371.818H70.0102V364.78H68.5342V367.012H60.4882V364.78H58.9942ZM60.4882 368.218H68.5342V370.612H60.4882V368.218ZM81.7808 369.64V370.864H86.3168V369.64H81.7808ZM77.8568 365.536V368.434C77.8568 371.458 76.0208 374.59 73.6268 375.778L74.5808 376.966C77.1548 375.58 79.0808 372.088 79.0808 368.434V365.536H77.8568ZM78.1448 365.536V368.434C78.1448 371.998 80.0348 375.346 82.6628 376.678L83.5448 375.472C81.1868 374.356 79.3508 371.404 79.3508 368.434V365.536H78.1448ZM85.5788 364.114V380.422H87.0548V364.114H85.5788ZM100.727 372.232V374.698H102.221V372.232H100.727ZM94.1388 371.35V372.502H108.827V371.35H94.1388ZM100.745 364.024V366.004H102.221V364.024H100.745ZM100.673 366.148V366.4C100.673 368.146 98.1168 369.28 94.9128 369.478L95.3448 370.63C98.9448 370.324 101.987 368.956 101.987 366.4V366.148H100.673ZM100.979 366.148V366.4C100.979 368.956 104.003 370.324 107.603 370.63L108.035 369.478C104.849 369.28 102.293 368.146 102.293 366.4V366.148H100.979ZM95.6328 365.554V366.688H107.333V365.554H95.6328ZM95.9028 373.978V375.112H105.479V376.498H95.9388V379.522H97.4148V377.56H106.955V373.978H95.9028ZM95.9388 379.09V380.224H107.441V379.09H95.9388ZM122.469 364.132V372.862H123.981V364.132H122.469ZM113.487 373.672V380.188H123.981V373.672H122.505V375.652H114.963V373.672H113.487ZM114.963 376.84H122.505V378.982H114.963V376.84ZM115.251 364.906C112.785 364.906 111.003 366.436 111.003 368.65C111.003 370.882 112.785 372.412 115.251 372.412C117.717 372.412 119.481 370.882 119.481 368.65C119.481 366.436 117.717 364.906 115.251 364.906ZM115.251 366.148C116.871 366.148 118.041 367.174 118.041 368.65C118.041 370.126 116.871 371.152 115.251 371.152C113.631 371.152 112.461 370.126 112.461 368.65C112.461 367.174 113.631 366.148 115.251 366.148ZM127.13 372.448V373.672H141.872V372.448H127.13ZM133.862 373.204V376.948H135.356V373.204H133.862ZM129.02 364.888V370.612H139.964V364.888H129.02ZM138.488 366.094V369.406H130.478V366.094H138.488ZM129.002 378.82V380.044H140.234V378.82H129.002ZM129.002 375.382V379.252H130.478V375.382H129.002ZM158.748 364.132V373.33H160.242V364.132H158.748ZM159.774 368.092V369.334H162.654V368.092H159.774ZM149.874 374.212V375.436H160.674V374.212H149.874ZM149.73 378.946V380.152H160.872V378.946H149.73ZM152.124 374.5V379.522H153.6V374.5H152.124ZM156.966 374.5V379.522H158.424V374.5H156.966ZM152.16 365.068C149.694 365.068 147.912 366.634 147.912 368.884C147.912 371.134 149.694 372.7 152.16 372.7C154.626 372.7 156.408 371.134 156.408 368.884C156.408 366.634 154.626 365.068 152.16 365.068ZM152.16 366.31C153.78 366.31 154.95 367.372 154.95 368.884C154.95 370.396 153.78 371.458 152.16 371.458C150.54 371.458 149.37 370.396 149.37 368.884C149.37 367.372 150.54 366.31 152.16 366.31ZM170.717 370.45V371.692H173.795V370.45H170.717ZM176.513 364.132V380.404H177.953V364.132H176.513ZM173.291 364.474V379.594H174.713V364.474H173.291ZM167.783 365.482C165.677 365.482 164.327 367.66 164.327 371.152C164.327 374.644 165.677 376.822 167.783 376.822C169.889 376.822 171.257 374.644 171.257 371.152C171.257 367.66 169.889 365.482 167.783 365.482ZM167.783 366.868C169.079 366.868 169.889 368.524 169.889 371.152C169.889 373.78 169.079 375.436 167.783 375.436C166.505 375.436 165.695 373.78 165.695 371.152C165.695 368.524 166.505 366.868 167.783 366.868ZM195.728 364.15V376.084H197.222V364.15H195.728ZM196.754 369.064V370.306H199.634V369.064H196.754ZM187.088 378.82V380.044H197.96V378.82H187.088ZM187.088 374.932V379.108H188.582V374.932H187.088ZM185.27 365.302V373.366H192.794V365.302H191.336V368.02H186.746V365.302H185.27ZM186.746 369.19H191.336V372.16H186.746V369.19ZM212.233 364.132V372.61H213.745V364.132H212.233ZM213.331 367.75V368.992H216.139V367.75H213.331ZM201.883 364.87V371.386H203.377V364.87H201.883ZM201.883 370.594V371.854H203.161C205.591 371.854 208.021 371.674 210.775 371.116L210.595 369.892C207.931 370.432 205.501 370.594 203.161 370.594H201.883ZM203.449 373.456V380.188H213.727V373.456H212.251V375.616H204.925V373.456H203.449ZM204.925 376.822H212.251V378.982H204.925V376.822ZM217.578 366.904V368.128H225.642V366.904H217.578ZM221.61 369.208C219.594 369.208 218.118 370.738 218.118 372.934C218.118 375.112 219.594 376.642 221.61 376.642C223.644 376.642 225.12 375.112 225.12 372.934C225.12 370.738 223.644 369.208 221.61 369.208ZM221.61 370.486C222.87 370.486 223.788 371.494 223.788 372.934C223.788 374.374 222.87 375.382 221.61 375.382C220.368 375.382 219.468 374.374 219.468 372.934C219.468 371.494 220.368 370.486 221.61 370.486ZM229.944 364.132V380.404H231.384V364.132H229.944ZM227.352 370.972V372.214H230.43V370.972H227.352ZM226.47 364.492V379.612H227.874V364.492H226.47ZM220.89 364.6V367.66H222.366V364.6H220.89ZM240.634 365.734V366.418C240.634 368.56 237.844 370.432 234.982 370.846L235.558 372.034C238.834 371.476 241.93 369.334 241.93 366.418V365.734H240.634ZM241.012 365.734V366.418C241.012 369.334 244.09 371.476 247.384 372.034L247.942 370.846C245.098 370.432 242.29 368.56 242.29 366.418V365.734H241.012ZM240.688 374.194V380.404H242.164V374.194H240.688ZM234.118 373.402V374.626H248.824V373.402H234.118ZM235.486 365.14V366.346H247.402V365.14H235.486ZM257.031 369.946V371.188H260.145V369.946H257.031ZM253.989 365.662V368.758C253.989 371.548 252.657 374.464 250.425 375.778L251.361 376.912C253.737 375.454 255.159 372.16 255.159 368.758V365.662H253.989ZM254.277 365.662V368.704C254.277 371.872 255.591 375.112 257.931 376.552L258.795 375.382C256.653 374.086 255.429 371.314 255.429 368.704V365.662H254.277ZM263.007 364.132V380.404H264.447V364.132H263.007ZM259.713 364.474V379.594H261.117V364.474H259.713ZM270.727 372.502V377.38H272.203V372.502H270.727ZM276.739 372.502V377.38H278.233V372.502H276.739ZM267.127 377.092V378.334H281.869V377.092H267.127ZM274.471 365.158C271.015 365.158 268.549 366.796 268.549 369.352C268.549 371.89 271.015 373.528 274.471 373.528C277.909 373.528 280.375 371.89 280.375 369.352C280.375 366.796 277.909 365.158 274.471 365.158ZM274.471 366.346C277.081 366.346 278.935 367.534 278.935 369.352C278.935 371.152 277.081 372.34 274.471 372.34C271.861 372.34 269.989 371.152 269.989 369.352C269.989 367.534 271.861 366.346 274.471 366.346ZM285.216 379.252C285.882 379.252 286.422 378.73 286.422 377.992C286.422 377.236 285.882 376.732 285.216 376.732C284.568 376.732 284.046 377.236 284.046 377.992C284.046 378.73 284.568 379.252 285.216 379.252Z" fill="black"/>
<path d="M114 288.238V275.925H117.246V279.436H121.817V275.925H125.016V288.262L114 288.238ZM118.234 294.992H128.704V275.784H131.996V280.923H134.322V284.118H131.996V297.977H114.965V290.205H118.223L118.234 294.992ZM121.806 285.019V282.514H117.234V285.019H121.806Z" fill="#65B683"/>
<path d="M135.788 275.925H139.115V283.662H147.409V286.705H135.776L135.788 275.925ZM140.092 290.38H150.469V275.796H153.842V281.777H156.169V284.937H153.842V298.023H136.8V288.449H140.139L140.092 290.38ZM150.457 295.062V293.201H140.081V295.05L150.457 295.062Z" fill="#65B683"/>
<path d="M165.3 277.236H169.802V280.162H157.564V277.224H162.043V274.988H165.312L165.3 277.236ZM164.509 281.59C165.72 281.568 166.89 282.03 167.762 282.875C168.634 283.72 169.138 284.878 169.162 286.096V293.365C169.135 294.582 168.63 295.739 167.759 296.583C166.887 297.427 165.719 297.89 164.509 297.871H162.776C162.176 297.884 161.58 297.777 161.021 297.557C160.462 297.337 159.952 297.008 159.52 296.59C159.088 296.171 158.742 295.671 158.502 295.117C158.262 294.564 158.134 293.968 158.123 293.365V286.096C158.147 284.878 158.651 283.72 159.523 282.875C160.396 282.03 161.565 281.568 162.776 281.59H164.509ZM163.765 294.723C164.042 294.744 164.321 294.707 164.584 294.614C164.847 294.52 165.088 294.374 165.291 294.182C165.494 293.991 165.656 293.759 165.766 293.501C165.875 293.244 165.931 292.966 165.928 292.686V286.775C165.931 286.494 165.875 286.215 165.766 285.957C165.656 285.698 165.495 285.465 165.292 285.271C165.089 285.078 164.849 284.929 164.586 284.833C164.323 284.738 164.044 284.697 163.765 284.715H163.532C163.253 284.697 162.974 284.738 162.711 284.833C162.448 284.929 162.208 285.078 162.005 285.271C161.802 285.465 161.641 285.698 161.531 285.957C161.422 286.215 161.366 286.494 161.368 286.775V292.686C161.368 292.967 161.425 293.245 161.536 293.502C161.647 293.76 161.809 293.991 162.014 294.183C162.218 294.374 162.459 294.521 162.723 294.614C162.986 294.706 163.265 294.744 163.544 294.723H163.765ZM175.584 284.692H177.91V287.887H175.584V297.988H172.303V275.749H175.584V284.692Z" fill="#65B683"/>
<path d="M187.135 279.073H178.771V275.925H190.799V279.073L188.112 297.801H184.518L187.135 279.073ZM197.988 298H194.406V275.761H198.047L197.988 298Z" fill="#65B683"/>
<g clip-path="url(#clip0_1019_2)">
<path d="M210.418 281.696H211.35C211.43 279.89 212.219 278.183 213.551 276.933C214.883 275.682 216.656 274.984 218.5 274.984C220.344 274.984 222.117 275.682 223.449 276.933C224.781 278.183 225.57 279.89 225.65 281.696H226.582C227.488 281.697 228.357 282.05 228.998 282.679C229.639 283.307 229.999 284.16 230 285.048V294.656C229.997 295.543 229.636 296.394 228.995 297.02C228.354 297.647 227.487 297.999 226.582 298H210.418C209.513 297.999 208.646 297.647 208.005 297.02C207.364 296.394 207.003 295.543 207 294.656V285.048C207.001 284.16 207.361 283.307 208.002 282.679C208.643 282.05 209.512 281.697 210.418 281.696V281.696ZM218.499 278.719C217.664 278.72 216.859 279.025 216.24 279.575C215.621 280.126 215.233 280.881 215.151 281.696H221.849C221.767 280.881 221.378 280.125 220.759 279.575C220.14 279.024 219.334 278.719 218.499 278.719V278.719Z" fill="#65B683"/>
</g>
<path d="M98.9942 12.3429C98.9907 10.4429 98.2249 8.6218 96.8649 7.27947C95.5049 5.93715 93.6618 5.18324 91.7402 5.18325H83.5596V2.12042C83.5596 0.811518 82.7124 0 80.9916 0C79.2707 0 78.4235 0.850785 78.4235 2.12042V5.18325H70.2561C68.3345 5.18324 66.4915 5.93715 65.1315 7.27947C63.7715 8.6218 63.0057 10.4429 63.0021 12.3429C62.9736 13.8512 63.2295 15.3514 63.7567 16.767C64.0087 17.4097 64.3866 17.9968 64.8686 18.4948L65.4245 24.6728C65.6176 26.9225 66.6607 29.0177 68.346 30.5411C70.0313 32.0644 72.2352 32.904 74.5185 32.8927H78.4897C78.4897 34.2016 79.3501 35 81.0577 35C82.7654 35 83.6258 34.1492 83.6258 32.8927H87.6764C89.9618 32.9038 92.1675 32.0623 93.8531 30.5363C95.5388 29.0102 96.5805 26.9117 96.7704 24.6597L97.3396 18.3115C97.7504 17.8467 98.0774 17.3153 98.3059 16.7408C98.8073 15.3293 99.0406 13.8383 98.9942 12.3429V12.3429Z" fill="#FFEEB2"/>
<path d="M279.994 12.3429C279.991 10.4429 279.225 8.6218 277.865 7.27947C276.505 5.93715 274.662 5.18324 272.74 5.18325H264.56V2.12042C264.56 0.811518 263.712 0 261.992 0C260.271 0 259.424 0.850785 259.424 2.12042V5.18325H251.256C249.335 5.18324 247.491 5.93715 246.131 7.27947C244.771 8.6218 244.006 10.4429 244.002 12.3429C243.974 13.8512 244.23 15.3514 244.757 16.767C245.009 17.4097 245.387 17.9968 245.869 18.4948L246.425 24.6728C246.618 26.9225 247.661 29.0177 249.346 30.5411C251.031 32.0644 253.235 32.904 255.519 32.8927H259.49C259.49 34.2016 260.35 35 262.058 35C263.765 35 264.626 34.1492 264.626 32.8927H268.676C270.962 32.9038 273.167 32.0623 274.853 30.5363C276.539 29.0102 277.58 26.9117 277.77 24.6597L278.34 18.3115C278.75 17.8467 279.077 17.3153 279.306 16.7408C279.807 15.3293 280.041 13.8383 279.994 12.3429V12.3429Z" fill="#FFEEB2"/>
<g clip-path="url(#clip1_1019_2)">
<path d="M120.203 3.99992C122.352 4.05975 124.391 4.92724 125.879 6.41527C127.367 7.9033 128.186 9.89261 128.158 11.9541V27.0131C128.167 29.0916 127.324 31.0905 125.811 32.5785C124.297 34.0665 122.234 34.9244 120.067 34.9672H118.364C117.268 34.9759 116.181 34.7766 115.165 34.3809C114.15 33.9852 113.227 33.401 112.448 32.6617C111.669 31.9225 111.05 31.0428 110.627 30.0734C110.204 29.104 109.985 28.0639 109.983 27.0131V11.9704C109.987 10.9188 110.208 9.87839 110.633 8.90888C111.058 7.93937 111.678 7.05986 112.459 6.32082C113.239 5.58177 114.164 4.99776 115.18 4.60228C116.196 4.20681 117.284 4.00765 118.38 4.01627L120.203 3.99992ZM118.397 8.65483C117.477 8.64165 116.589 8.97743 115.925 9.58916C115.262 10.2009 114.877 11.0391 114.855 11.9214V26.9804C114.881 27.8642 115.27 28.7024 115.936 29.3137C116.602 29.925 117.492 30.2603 118.414 30.247H119.948C120.851 30.247 121.718 29.9029 122.356 29.2903C122.995 28.6777 123.354 27.8468 123.354 26.9804V11.9214C123.354 11.0551 122.995 10.2242 122.356 9.61159C121.718 8.99898 120.851 8.65483 119.948 8.65483H118.397ZM137.288 34.9672H132.041V3.93457H137.288V34.9672Z" fill="white"/>
<path d="M148.564 4.17956H162.975C163.748 4.12267 164.525 4.21569 165.26 4.45306C165.995 4.69042 166.672 5.06728 167.252 5.56114C167.832 6.05501 168.302 6.65581 168.634 7.32763C168.966 7.99944 169.154 8.72853 169.186 9.47143C169.218 10.2143 169.094 10.9558 168.82 11.6517C168.547 12.3475 168.13 12.9834 167.595 13.5215C167.06 14.0596 166.417 14.4888 165.705 14.7835C164.994 15.0783 164.227 15.2325 163.452 15.237V18.3239H170.47V22.1132H141.121V18.3076H148.138V15.237C147.364 15.2301 146.599 15.0737 145.888 14.7774C145.178 14.4811 144.537 14.0507 144.004 13.5121C143.471 12.9734 143.056 12.3373 142.785 11.6418C142.513 10.9463 142.39 10.2054 142.423 9.46341C142.456 8.72139 142.645 7.99337 142.978 7.32264C143.31 6.65191 143.78 6.05219 144.36 5.5592C144.939 5.06621 145.616 4.69002 146.35 4.45301C147.084 4.21599 147.86 4.12298 148.632 4.17956H148.564ZM148.564 23.9098H162.975C163.758 23.869 164.542 23.9817 165.279 24.2411C166.015 24.5005 166.689 24.9011 167.259 25.4185C167.829 25.9359 168.282 26.5592 168.593 27.2504C168.903 27.9416 169.063 28.6861 169.063 29.4386C169.063 30.191 168.903 30.9355 168.593 31.6267C168.282 32.3179 167.829 32.9412 167.259 33.4586C166.689 33.976 166.015 34.3766 165.279 34.636C164.542 34.8954 163.758 35.0081 162.975 34.9672H148.649C147.866 35.0081 147.082 34.8954 146.345 34.636C145.609 34.3766 144.935 33.976 144.365 33.4586C143.795 32.9412 143.342 32.3179 143.031 31.6267C142.721 30.9355 142.562 30.191 142.562 29.4386C142.562 28.6861 142.721 27.9416 143.031 27.2504C143.342 26.5592 143.795 25.9359 144.365 25.4185C144.935 24.9011 145.609 24.5005 146.345 24.2411C147.082 23.9817 147.866 23.869 148.649 23.9098H148.564ZM148.564 30.9493H162.889C163.305 30.9493 163.704 30.791 163.998 30.5092C164.292 30.2274 164.457 29.8452 164.457 29.4467C164.457 29.0482 164.292 28.666 163.998 28.3842C163.704 28.1024 163.305 27.9441 162.889 27.9441H148.547C148.158 27.983 147.797 28.1589 147.535 28.4379C147.272 28.717 147.127 29.0792 147.127 29.4549C147.127 29.8305 147.272 30.1928 147.535 30.4718C147.797 30.7509 148.158 30.9268 148.547 30.9657L148.564 30.9493ZM148.564 11.2191H162.975C163.39 11.2191 163.789 11.0608 164.083 10.779C164.377 10.4972 164.542 10.115 164.542 9.71647C164.542 9.31794 164.377 8.93573 164.083 8.65393C163.789 8.37214 163.39 8.21381 162.975 8.21381H148.649C148.26 8.25271 147.899 8.42865 147.637 8.70767C147.374 8.98669 147.229 9.34902 147.229 9.72464C147.229 10.1003 147.374 10.4625 147.637 10.7416C147.899 11.0206 148.26 11.1965 148.649 11.2354L148.564 11.2191ZM152.601 18.3076H158.87V15.237H152.601V18.3076Z" fill="white"/>
<path d="M173.791 20.4147V4.17971H178.578V8.37729H185.118V4.19605H189.888V20.4147H173.791ZM180.894 23.3383H194.777C195.601 23.2964 196.426 23.416 197.201 23.6897C197.975 23.9634 198.684 24.3855 199.283 24.9303C199.882 25.4751 200.359 26.1312 200.685 26.8586C201.011 27.5859 201.179 28.3693 201.179 29.161C201.179 29.9527 201.011 30.7361 200.685 31.4635C200.359 32.1908 199.882 32.847 199.283 33.3918C198.684 33.9366 197.975 34.3587 197.201 34.6324C196.426 34.9061 195.601 35.0256 194.777 34.9837H180.877C180.053 35.0256 179.228 34.9061 178.453 34.6324C177.678 34.3587 176.97 33.9366 176.371 33.3918C175.772 32.847 175.295 32.1908 174.969 31.4635C174.642 30.7361 174.474 29.9527 174.474 29.161C174.474 28.3693 174.642 27.5859 174.969 26.8586C175.295 26.1312 175.772 25.4751 176.371 24.9303C176.97 24.3855 177.678 23.9634 178.453 23.6897C179.228 23.416 180.053 23.2964 180.877 23.3383H180.894ZM185.084 16.3314V12.3789H178.578V16.3478L185.084 16.3314ZM180.962 30.8515H194.708C195.129 30.783 195.51 30.574 195.785 30.2616C196.06 29.9492 196.211 29.5535 196.211 29.1447C196.211 28.7358 196.06 28.3402 195.785 28.0278C195.51 27.7154 195.129 27.5064 194.708 27.4379H180.962C180.541 27.4785 180.15 27.6684 179.867 27.9704C179.583 28.2724 179.427 28.6649 179.429 29.0712C179.387 29.5022 179.524 29.9318 179.811 30.2656C180.099 30.5994 180.513 30.8101 180.962 30.8515ZM195.39 20.921V4.03271H200.159V9.50427H203.566V13.9468H200.159V20.921H195.39Z" fill="white"/>
<path d="M205.695 19.9084V4.19606H210.448V8.361H217.142V4.19606H221.826V19.9084H205.695ZM211.998 24.351H228.111V13.6529H224.194V9.63497H228.111V4.04907H233V35.0001H207.143V21.656H212.015L211.998 24.351ZM217.108 15.4332V12.6239H210.413V15.3678L217.108 15.4332ZM228.094 30.8352V28.2546H211.981V30.8352H228.094Z" fill="white"/>
</g>
<path d="M228.974 106.476L226.131 103.635C225.93 103.434 225.692 103.274 225.43 103.165C225.167 103.056 224.885 103 224.601 103C224.022 103 223.477 103.227 223.069 103.635L220.009 106.695C219.808 106.896 219.648 107.134 219.539 107.397C219.43 107.659 219.374 107.941 219.374 108.225C219.374 108.804 219.601 109.349 220.009 109.758L222.246 111.995C221.723 113.149 220.995 114.199 220.097 115.095C219.202 115.994 218.152 116.725 216.997 117.252L214.76 115.015C214.56 114.813 214.321 114.653 214.059 114.544C213.796 114.435 213.515 114.379 213.23 114.379C212.651 114.379 212.106 114.606 211.698 115.015L208.635 118.072C208.434 118.273 208.274 118.511 208.165 118.774C208.056 119.037 208 119.319 208 119.604C208 120.183 208.227 120.728 208.635 121.137L211.473 123.975C212.125 124.629 213.025 125 213.948 125C214.143 125 214.33 124.984 214.514 124.952C218.113 124.359 221.683 122.445 224.564 119.567C227.442 116.691 229.354 113.124 229.954 109.515C230.136 108.412 229.77 107.277 228.974 106.476Z" fill="#65B683"/>
<defs>
<clipPath id="clip0_1019_2">
<rect width="23" height="23" fill="white" transform="matrix(-1 0 0 1 230 275)"/>
</clipPath>
<clipPath id="clip1_1019_2">
<rect width="123" height="31" fill="white" transform="translate(110 4)"/>
</clipPath>
</defs>
</svg>
