<svg width="344" height="625" viewBox="0 0 344 625" fill="none" xmlns="http://www.w3.org/2000/svg">
<rect width="344" height="592" rx="12" fill="white"/>
<path d="M306.654 196.182C308.39 196.182 310.014 194.908 310.014 192.654C310.014 190.4 308.628 189.392 306.92 189.392C306.304 189.392 305.856 189.546 305.394 189.798L305.646 186.83H309.524V185.724H304.526L304.204 190.54L304.89 190.96C305.478 190.568 305.912 190.358 306.598 190.358C307.886 190.358 308.726 191.226 308.726 192.696C308.726 194.194 307.746 195.118 306.542 195.118C305.352 195.118 304.61 194.572 304.022 193.984L303.392 194.824C304.078 195.51 305.058 196.182 306.654 196.182ZM312.67 196.182C313.174 196.182 313.594 195.79 313.594 195.216C313.594 194.628 313.174 194.222 312.67 194.222C312.166 194.222 311.746 194.628 311.746 195.216C311.746 195.79 312.166 196.182 312.67 196.182ZM318.232 196.182C319.968 196.182 321.592 194.908 321.592 192.654C321.592 190.4 320.206 189.392 318.498 189.392C317.882 189.392 317.434 189.546 316.972 189.798L317.224 186.83H321.102V185.724H316.104L315.782 190.54L316.468 190.96C317.056 190.568 317.49 190.358 318.176 190.358C319.464 190.358 320.304 191.226 320.304 192.696C320.304 194.194 319.324 195.118 318.12 195.118C316.93 195.118 316.188 194.572 315.6 193.984L314.97 194.824C315.656 195.51 316.636 196.182 318.232 196.182ZM307.102 222.582C308.348 222.582 308.964 223.464 308.964 224.85C308.964 226.25 308.194 227.188 307.214 227.188C305.926 227.188 305.156 226.026 305.002 223.898C305.632 222.96 306.458 222.582 307.102 222.582ZM307.214 228.182C308.81 228.182 310.154 226.838 310.154 224.85C310.154 222.708 309.048 221.63 307.312 221.63C306.5 221.63 305.604 222.106 304.974 222.876C305.03 219.684 306.22 218.606 307.62 218.606C308.25 218.606 308.866 218.9 309.272 219.39L309.972 218.592C309.412 217.99 308.642 217.542 307.578 217.542C305.59 217.542 303.784 219.082 303.784 223.1C303.784 226.488 305.24 228.182 307.214 228.182ZM312.67 228.182C313.174 228.182 313.594 227.79 313.594 227.216C313.594 226.628 313.174 226.222 312.67 226.222C312.166 226.222 311.746 226.628 311.746 227.216C311.746 227.79 312.166 228.182 312.67 228.182ZM318.47 228.182C320.416 228.182 321.662 226.404 321.662 222.834C321.662 219.278 320.416 217.542 318.47 217.542C316.51 217.542 315.264 219.264 315.264 222.834C315.264 226.404 316.51 228.182 318.47 228.182ZM318.47 227.16C317.294 227.16 316.51 225.858 316.51 222.834C316.51 219.838 317.294 218.564 318.47 218.564C319.632 218.564 320.416 219.838 320.416 222.834C320.416 225.858 319.632 227.16 318.47 227.16ZM305.772 260H307.102C307.256 255.982 307.704 253.588 310.112 250.508V249.724H303.686V250.83H308.656C306.654 253.63 305.94 256.108 305.772 260ZM312.67 260.182C313.174 260.182 313.594 259.79 313.594 259.216C313.594 258.628 313.174 258.222 312.67 258.222C312.166 258.222 311.746 258.628 311.746 259.216C311.746 259.79 312.166 260.182 312.67 260.182ZM318.47 260.182C320.416 260.182 321.662 258.404 321.662 254.834C321.662 251.278 320.416 249.542 318.47 249.542C316.51 249.542 315.264 251.264 315.264 254.834C315.264 258.404 316.51 260.182 318.47 260.182ZM318.47 259.16C317.294 259.16 316.51 257.858 316.51 254.834C316.51 251.838 317.294 250.564 318.47 250.564C319.632 250.564 320.416 251.838 320.416 254.834C320.416 257.858 319.632 259.16 318.47 259.16ZM305.772 292H307.102C307.256 287.982 307.704 285.588 310.112 282.508V281.724H303.686V282.83H308.656C306.654 285.63 305.94 288.108 305.772 292ZM312.67 292.182C313.174 292.182 313.594 291.79 313.594 291.216C313.594 290.628 313.174 290.222 312.67 290.222C312.166 290.222 311.746 290.628 311.746 291.216C311.746 291.79 312.166 292.182 312.67 292.182ZM318.232 292.182C319.968 292.182 321.592 290.908 321.592 288.654C321.592 286.4 320.206 285.392 318.498 285.392C317.882 285.392 317.434 285.546 316.972 285.798L317.224 282.83H321.102V281.724H316.104L315.782 286.54L316.468 286.96C317.056 286.568 317.49 286.358 318.176 286.358C319.464 286.358 320.304 287.226 320.304 288.696C320.304 290.194 319.324 291.118 318.12 291.118C316.93 291.118 316.188 290.572 315.6 289.984L314.97 290.824C315.656 291.51 316.636 292.182 318.232 292.182Z" fill="black"/>
<path d="M304.232 411H309.86V409.936H307.802V400.724H306.822C306.262 401.06 305.604 401.298 304.694 401.466V402.278H306.514V409.936H304.232V411ZM312.67 411.182C313.174 411.182 313.594 410.79 313.594 410.216C313.594 409.628 313.174 409.222 312.67 409.222C312.166 409.222 311.746 409.628 311.746 410.216C311.746 410.79 312.166 411.182 312.67 411.182ZM318.232 411.182C319.968 411.182 321.592 409.908 321.592 407.654C321.592 405.4 320.206 404.392 318.498 404.392C317.882 404.392 317.434 404.546 316.972 404.798L317.224 401.83H321.102V400.724H316.104L315.782 405.54L316.468 405.96C317.056 405.568 317.49 405.358 318.176 405.358C319.464 405.358 320.304 406.226 320.304 407.696C320.304 409.194 319.324 410.118 318.12 410.118C316.93 410.118 316.188 409.572 315.6 408.984L314.97 409.824C315.656 410.51 316.636 411.182 318.232 411.182Z" fill="black"/>
<path d="M0 12C0 5.37258 5.37258 0 12 0H332C338.627 0 344 5.37258 344 12V116H0V12Z" fill="#E97676"/>
<path d="M344 613C344 619.627 338.627 625 332 625L12 625C5.37259 625 4.69686e-07 619.627 1.04907e-06 613L5.15794e-06 566L344 566L344 613Z" fill="#E97676"/>
<path d="M196.57 193.158H195.128V196.84H203.962V195.664H196.57V193.158ZM200.154 190.988V189.532H203.864V188.37H196.57V186.228H203.752V185.066H195.142V189.532H198.698V190.988H193.728V192.164H205.152V190.988H200.154ZM206.887 185.766V186.956H208.945C208.819 189.49 208.203 191.59 206.397 193.508L207.545 194.306C209.799 191.856 210.303 189.014 210.303 185.766H206.887ZM210.737 185.766V186.956H212.417C212.319 189.686 211.801 192.15 209.981 194.334L211.143 195.146C213.397 192.388 213.775 189.084 213.775 185.766H210.737ZM218.311 189.532H216.533V184.436H215.091V197.064H216.533V190.722H218.311V189.532ZM230.35 190.61C227.858 190.162 225.828 188.216 225.828 186.2V185.248H224.302V186.2C224.302 188.202 222.272 190.148 219.78 190.61L220.396 191.8C222.454 191.38 224.232 190.064 225.058 188.328C225.884 190.064 227.662 191.38 229.72 191.8L230.35 190.61ZM219.388 194.264V195.454H230.84V194.264H219.388ZM195.478 218.97H197.662V224.64H195.478V218.97ZM194.134 225.788H199.006V217.822H194.134V225.788ZM203.136 216.436V221.364H201.694V216.674H200.336V228.476H201.694V222.54H203.136V229.064H204.508V216.436H203.136ZM212.263 217.878C214.041 217.878 215.203 218.396 215.203 219.292C215.203 220.188 214.041 220.706 212.263 220.706C210.471 220.706 209.309 220.188 209.309 219.292C209.309 218.396 210.471 217.878 212.263 217.878ZM212.263 221.868C214.965 221.868 216.743 220.874 216.743 219.292C216.743 217.71 214.965 216.716 212.263 216.716C209.547 216.716 207.783 217.71 207.783 219.292C207.783 220.874 209.547 221.868 212.263 221.868ZM209.407 225.102H207.951V228.84H216.743V227.664H209.407V225.102ZM206.537 222.722V223.898H211.633V226.292H213.103V223.898H218.003V222.722H206.537ZM222.244 225.158H220.802V228.84H229.636V227.664H222.244V225.158ZM225.828 222.988V221.532H229.538V220.37H222.244V218.228H229.426V217.066H220.816V221.532H224.372V222.988H219.402V224.164H230.826V222.988H225.828ZM232.561 217.766V218.956H234.619C234.493 221.49 233.877 223.59 232.071 225.508L233.219 226.306C235.473 223.856 235.977 221.014 235.977 217.766H232.561ZM236.411 217.766V218.956H238.091C237.993 221.686 237.475 224.15 235.655 226.334L236.817 227.146C239.071 224.388 239.449 221.084 239.449 217.766H236.411ZM243.985 221.532H242.207V216.436H240.765V229.064H242.207V222.722H243.985V221.532ZM256.024 222.61C253.532 222.162 251.502 220.216 251.502 218.2V217.248H249.976V218.2C249.976 220.202 247.946 222.148 245.454 222.61L246.07 223.8C248.128 223.38 249.906 222.064 250.732 220.328C251.558 222.064 253.336 223.38 255.394 223.8L256.024 222.61ZM245.062 226.264V227.454H256.514V226.264H245.062ZM203.878 252.076H196.668V248.856H195.226V253.224H203.878V252.076ZM196.556 257.102H195.128V260.84H203.948V259.678H196.556V257.102ZM193.728 254.554V255.716H198.824V258.138H200.266V255.716H205.166V254.554H193.728ZM216.393 253.028C216.771 251.474 216.771 250.256 216.771 249.486V248.884H212.375V250.046H215.357C215.343 250.746 215.273 251.642 214.993 252.874L216.393 253.028ZM210.779 253.042C211.381 251.46 211.381 250.214 211.381 249.458V248.884H207.503V250.046H209.967C209.939 250.718 209.827 251.586 209.365 252.832L210.779 253.042ZM216.519 257.592V256.458H212.991V255.296H211.521V256.458H207.993V257.592H211.493C211.269 258.698 209.701 259.706 207.489 259.944L207.979 261.022C209.939 260.784 211.493 259.986 212.249 258.88C213.005 260 214.559 260.784 216.519 261.022L217.009 259.944C214.811 259.692 213.229 258.698 213.019 257.592H216.519ZM213.201 253.7V251.698H211.773V253.7H206.551V254.862H217.961V253.7H213.201ZM224.162 251.726H226.906V250.564H224.162V248.688H222.72V250.564H219.92V251.726H222.72V252.454C222.72 254.54 221.516 256.682 219.528 257.578L220.326 258.684C221.796 258.012 222.902 256.64 223.462 254.96C224.036 256.542 225.142 257.844 226.584 258.474L227.354 257.354C225.394 256.5 224.162 254.442 224.162 252.454V251.726ZM228.348 248.422V261.064H229.804V248.422H228.348ZM233.303 256.262C235.347 255.87 237.125 254.68 237.937 253.042C238.763 254.666 240.555 255.814 242.627 256.206L243.215 255.058C240.709 254.68 238.693 252.972 238.693 251.068V250.774H242.711V249.598H233.163V250.774H237.181V251.068C237.181 252.972 235.179 254.708 232.715 255.114L233.303 256.262ZM232.225 258.306V259.482H243.677V258.306H232.225ZM247.918 257.158H246.476V260.84H255.31V259.664H247.918V257.158ZM251.502 254.988V253.532H255.212V252.37H247.918V250.228H255.1V249.066H246.49V253.532H250.046V254.988H245.076V256.164H256.5V254.988H251.502ZM258.235 249.766V250.956H260.293C260.167 253.49 259.551 255.59 257.745 257.508L258.893 258.306C261.147 255.856 261.651 253.014 261.651 249.766H258.235ZM262.085 249.766V250.956H263.765C263.667 253.686 263.149 256.15 261.329 258.334L262.491 259.146C264.745 256.388 265.123 253.084 265.123 249.766H262.085ZM269.659 253.532H267.881V248.436H266.439V261.064H267.881V254.722H269.659V253.532ZM281.697 254.61C279.205 254.162 277.175 252.216 277.175 250.2V249.248H275.649V250.2C275.649 252.202 273.619 254.148 271.127 254.61L271.743 255.8C273.801 255.38 275.579 254.064 276.405 252.328C277.231 254.064 279.009 255.38 281.067 255.8L281.697 254.61ZM270.735 258.264V259.454H282.187V258.264H270.735ZM196.178 284.566C196.178 283.194 197.536 282.326 199.426 282.326C201.302 282.326 202.66 283.194 202.66 284.566C202.66 285.938 201.302 286.806 199.426 286.806C197.536 286.806 196.178 285.938 196.178 284.566ZM200.14 290.348V287.94C202.45 287.73 204.074 286.442 204.074 284.566C204.074 282.508 202.1 281.178 199.426 281.178C196.738 281.178 194.778 282.508 194.778 284.566C194.778 286.442 196.388 287.716 198.698 287.926V290.348H193.714V291.524H205.166V290.348H200.14ZM206.551 290.306V291.496H218.003V290.306H206.551ZM207.825 281.486V287.604H216.673V281.486H207.825ZM215.259 282.634V286.456H209.239V282.634H215.259ZM222.244 289.158H220.802V292.84H229.636V291.664H222.244V289.158ZM225.828 286.988V285.532H229.538V284.37H222.244V282.228H229.426V281.066H220.816V285.532H224.372V286.988H219.402V288.164H230.826V286.988H225.828ZM232.561 281.766V282.956H234.619C234.493 285.49 233.877 287.59 232.071 289.508L233.219 290.306C235.473 287.856 235.977 285.014 235.977 281.766H232.561ZM236.411 281.766V282.956H238.091C237.993 285.686 237.475 288.15 235.655 290.334L236.817 291.146C239.071 288.388 239.449 285.084 239.449 281.766H236.411ZM243.985 285.532H242.207V280.436H240.765V293.064H242.207V286.722H243.985V285.532ZM256.024 286.61C253.532 286.162 251.502 284.216 251.502 282.2V281.248H249.976V282.2C249.976 284.202 247.946 286.148 245.454 286.61L246.07 287.8C248.128 287.38 249.906 286.064 250.732 284.328C251.558 286.064 253.336 287.38 255.394 287.8L256.024 286.61ZM245.062 290.264V291.454H256.514V290.264H245.062Z" fill="black"/>
<path d="M199.426 400.702C196.668 400.702 194.918 401.612 194.918 403.124C194.918 404.622 196.668 405.546 199.426 405.546C202.184 405.546 203.934 404.622 203.934 403.124C203.934 401.612 202.184 400.702 199.426 400.702ZM199.426 401.822C201.302 401.822 202.436 402.284 202.436 403.124C202.436 403.95 201.302 404.412 199.426 404.412C197.55 404.412 196.402 403.95 196.402 403.124C196.402 402.284 197.55 401.822 199.426 401.822ZM195.072 408.696V412.924H203.752V408.696H195.072ZM202.338 409.844V411.776H196.5V409.844H202.338ZM193.7 406.47V407.618H205.138V406.47H193.7ZM211.045 408.22H213.635V410.404H211.045V408.22ZM215.063 410.404V408.22H216.925V407.058H209.351V405.308H216.645V401.318H207.909V402.48H215.217V404.16H207.937V408.22H209.617V410.404H206.551V411.594H218.003V410.404H215.063Z" fill="black"/>
<path d="M27.19 185.682H24.18V184.338H22.738V185.682H19.728V186.83H27.19V185.682ZM21.772 189.616C21.772 188.888 22.444 188.44 23.452 188.44C24.46 188.44 25.146 188.888 25.146 189.616C25.146 190.358 24.46 190.806 23.452 190.806C22.444 190.806 21.772 190.358 21.772 189.616ZM26.518 189.616C26.518 188.258 25.286 187.348 23.452 187.348C21.632 187.348 20.386 188.258 20.386 189.616C20.386 190.988 21.632 191.884 23.452 191.884C25.286 191.884 26.518 190.988 26.518 189.616ZM22.934 193.83H28.17V195.776H22.934V193.83ZM21.506 196.924H29.584V192.696H21.506V196.924ZM31.376 187.684H29.584V184.436H28.142V192.052H29.584V188.874H31.376V187.684ZM37.5209 190.134H34.4269V188.188H37.5209V190.134ZM38.9489 185.22H37.5209V187.068H34.4269V185.22H32.9849V191.282H38.9489V185.22ZM34.1049 193.816H40.9789V197.078H42.4209V192.668H34.1049V193.816ZM44.2129 187.628H42.4209V184.422H40.9789V192.038H42.4209V188.818H44.2129V187.628ZM56.3498 190.61C53.8578 190.162 51.8278 188.216 51.8278 186.2V185.248H50.3018V186.2C50.3018 188.202 48.2718 190.148 45.7798 190.61L46.3958 191.8C48.4538 191.38 50.2318 190.064 51.0578 188.328C51.8838 190.064 53.6618 191.38 55.7198 191.8L56.3498 190.61ZM45.3878 194.264V195.454H56.8398V194.264H45.3878ZM65.1127 192.206H66.4567V184.702H65.1127V187.712H63.6147V188.874H65.1127V192.206ZM64.0487 190.176C62.8027 190.4 61.7387 190.47 60.1427 190.484V188.986H63.0547V187.866H60.1427V186.466H63.5167V185.304H58.7567V191.632H59.5827C61.5427 191.632 62.7467 191.59 64.1887 191.324L64.0487 190.176ZM60.3247 194.012H67.4787V197.092H68.9207V192.85H60.3247V194.012ZM67.5487 184.436V192.304H68.9207V184.436H67.5487ZM21.478 218.97H23.662V224.64H21.478V218.97ZM20.134 225.788H25.006V217.822H20.134V225.788ZM29.136 216.436V221.364H27.694V216.674H26.336V228.476H27.694V222.54H29.136V229.064H30.508V216.436H29.136ZM38.2629 217.878C40.0409 217.878 41.2029 218.396 41.2029 219.292C41.2029 220.188 40.0409 220.706 38.2629 220.706C36.4709 220.706 35.3089 220.188 35.3089 219.292C35.3089 218.396 36.4709 217.878 38.2629 217.878ZM38.2629 221.868C40.9649 221.868 42.7429 220.874 42.7429 219.292C42.7429 217.71 40.9649 216.716 38.2629 216.716C35.5469 216.716 33.7829 217.71 33.7829 219.292C33.7829 220.874 35.5469 221.868 38.2629 221.868ZM35.4069 225.102H33.9509V228.84H42.7429V227.664H35.4069V225.102ZM32.5369 222.722V223.898H37.6329V226.292H39.1029V223.898H44.0029V222.722H32.5369ZM52.8638 217.682H49.8538V216.338H48.4118V217.682H45.4018V218.83H52.8638V217.682ZM47.4458 221.616C47.4458 220.888 48.1178 220.44 49.1258 220.44C50.1338 220.44 50.8198 220.888 50.8198 221.616C50.8198 222.358 50.1338 222.806 49.1258 222.806C48.1178 222.806 47.4458 222.358 47.4458 221.616ZM52.1918 221.616C52.1918 220.258 50.9598 219.348 49.1258 219.348C47.3058 219.348 46.0598 220.258 46.0598 221.616C46.0598 222.988 47.3058 223.884 49.1258 223.884C50.9598 223.884 52.1918 222.988 52.1918 221.616ZM48.6078 225.83H53.8438V227.776H48.6078V225.83ZM47.1798 228.924H55.2578V224.696H47.1798V228.924ZM57.0498 219.684H55.2578V216.436H53.8158V224.052H55.2578V220.874H57.0498V219.684ZM63.1947 222.134H60.1007V220.188H63.1947V222.134ZM64.6227 217.22H63.1947V219.068H60.1007V217.22H58.6587V223.282H64.6227V217.22ZM59.7787 225.816H66.6527V229.078H68.0947V224.668H59.7787V225.816ZM69.8867 219.628H68.0947V216.422H66.6527V224.038H68.0947V220.818H69.8867V219.628ZM82.0236 222.61C79.5316 222.162 77.5016 220.216 77.5016 218.2V217.248H75.9756V218.2C75.9756 220.202 73.9456 222.148 71.4536 222.61L72.0696 223.8C74.1276 223.38 75.9056 222.064 76.7316 220.328C77.5576 222.064 79.3356 223.38 81.3936 223.8L82.0236 222.61ZM71.0616 226.264V227.454H82.5136V226.264H71.0616ZM90.7865 224.206H92.1305V216.702H90.7865V219.712H89.2885V220.874H90.7865V224.206ZM89.7225 222.176C88.4765 222.4 87.4125 222.47 85.8165 222.484V220.986H88.7285V219.866H85.8165V218.466H89.1905V217.304H84.4305V223.632H85.2565C87.2165 223.632 88.4205 223.59 89.8625 223.324L89.7225 222.176ZM85.9985 226.012H93.1525V229.092H94.5945V224.85H85.9985V226.012ZM93.2225 216.436V224.304H94.5945V216.436H93.2225ZM29.878 252.076H22.668V248.856H21.226V253.224H29.878V252.076ZM22.556 257.102H21.128V260.84H29.948V259.678H22.556V257.102ZM19.728 254.554V255.716H24.824V258.138H26.266V255.716H31.166V254.554H19.728ZM42.3929 253.028C42.7709 251.474 42.7709 250.256 42.7709 249.486V248.884H38.3749V250.046H41.3569C41.3429 250.746 41.2729 251.642 40.9929 252.874L42.3929 253.028ZM36.7789 253.042C37.3809 251.46 37.3809 250.214 37.3809 249.458V248.884H33.5029V250.046H35.9669C35.9389 250.718 35.8269 251.586 35.3649 252.832L36.7789 253.042ZM42.5189 257.592V256.458H38.9909V255.296H37.5209V256.458H33.9929V257.592H37.4929C37.2689 258.698 35.7009 259.706 33.4889 259.944L33.9789 261.022C35.9389 260.784 37.4929 259.986 38.2489 258.88C39.0049 260 40.5589 260.784 42.5189 261.022L43.0089 259.944C40.8109 259.692 39.2289 258.698 39.0189 257.592H42.5189ZM39.2009 253.7V251.698H37.7729V253.7H32.5509V254.862H43.9609V253.7H39.2009ZM50.1618 251.726H52.9058V250.564H50.1618V248.688H48.7198V250.564H45.9198V251.726H48.7198V252.454C48.7198 254.54 47.5158 256.682 45.5278 257.578L46.3258 258.684C47.7958 258.012 48.9018 256.64 49.4618 254.96C50.0358 256.542 51.1418 257.844 52.5838 258.474L53.3538 257.354C51.3938 256.5 50.1618 254.442 50.1618 252.454V251.726ZM54.3478 248.422V261.064H55.8038V248.422H54.3478ZM59.3027 256.262C61.3467 255.87 63.1247 254.68 63.9367 253.042C64.7627 254.666 66.5547 255.814 68.6267 256.206L69.2147 255.058C66.7087 254.68 64.6927 252.972 64.6927 251.068V250.774H68.7107V249.598H59.1627V250.774H63.1807V251.068C63.1807 252.972 61.1787 254.708 58.7147 255.114L59.3027 256.262ZM58.2247 258.306V259.482H69.6767V258.306H58.2247ZM78.5376 249.682H75.5276V248.338H74.0856V249.682H71.0756V250.83H78.5376V249.682ZM73.1196 253.616C73.1196 252.888 73.7916 252.44 74.7996 252.44C75.8076 252.44 76.4936 252.888 76.4936 253.616C76.4936 254.358 75.8076 254.806 74.7996 254.806C73.7916 254.806 73.1196 254.358 73.1196 253.616ZM77.8656 253.616C77.8656 252.258 76.6336 251.348 74.7996 251.348C72.9796 251.348 71.7336 252.258 71.7336 253.616C71.7336 254.988 72.9796 255.884 74.7996 255.884C76.6336 255.884 77.8656 254.988 77.8656 253.616ZM74.2816 257.83H79.5176V259.776H74.2816V257.83ZM72.8536 260.924H80.9316V256.696H72.8536V260.924ZM82.7236 251.684H80.9316V248.436H79.4896V256.052H80.9316V252.874H82.7236V251.684ZM88.8685 254.134H85.7745V252.188H88.8685V254.134ZM90.2965 249.22H88.8685V251.068H85.7745V249.22H84.3325V255.282H90.2965V249.22ZM85.4525 257.816H92.3265V261.078H93.7685V256.668H85.4525V257.816ZM95.5605 251.628H93.7685V248.422H92.3265V256.038H93.7685V252.818H95.5605V251.628ZM107.697 254.61C105.205 254.162 103.175 252.216 103.175 250.2V249.248H101.649V250.2C101.649 252.202 99.6194 254.148 97.1274 254.61L97.7434 255.8C99.8014 255.38 101.579 254.064 102.405 252.328C103.231 254.064 105.009 255.38 107.067 255.8L107.697 254.61ZM96.7354 258.264V259.454H108.187V258.264H96.7354ZM116.46 256.206H117.804V248.702H116.46V251.712H114.962V252.874H116.46V256.206ZM115.396 254.176C114.15 254.4 113.086 254.47 111.49 254.484V252.986H114.402V251.866H111.49V250.466H114.864V249.304H110.104V255.632H110.93C112.89 255.632 114.094 255.59 115.536 255.324L115.396 254.176ZM111.672 258.012H118.826V261.092H120.268V256.85H111.672V258.012ZM118.896 248.436V256.304H120.268V248.436H118.896ZM22.178 284.566C22.178 283.194 23.536 282.326 25.426 282.326C27.302 282.326 28.66 283.194 28.66 284.566C28.66 285.938 27.302 286.806 25.426 286.806C23.536 286.806 22.178 285.938 22.178 284.566ZM26.14 290.348V287.94C28.45 287.73 30.074 286.442 30.074 284.566C30.074 282.508 28.1 281.178 25.426 281.178C22.738 281.178 20.778 282.508 20.778 284.566C20.778 286.442 22.388 287.716 24.698 287.926V290.348H19.714V291.524H31.166V290.348H26.14ZM32.5509 290.306V291.496H44.0029V290.306H32.5509ZM33.8249 281.486V287.604H42.6729V281.486H33.8249ZM41.2589 282.634V286.456H35.2389V282.634H41.2589ZM52.8638 281.682H49.8538V280.338H48.4118V281.682H45.4018V282.83H52.8638V281.682ZM47.4458 285.616C47.4458 284.888 48.1178 284.44 49.1258 284.44C50.1338 284.44 50.8198 284.888 50.8198 285.616C50.8198 286.358 50.1338 286.806 49.1258 286.806C48.1178 286.806 47.4458 286.358 47.4458 285.616ZM52.1918 285.616C52.1918 284.258 50.9598 283.348 49.1258 283.348C47.3058 283.348 46.0598 284.258 46.0598 285.616C46.0598 286.988 47.3058 287.884 49.1258 287.884C50.9598 287.884 52.1918 286.988 52.1918 285.616ZM48.6078 289.83H53.8438V291.776H48.6078V289.83ZM47.1798 292.924H55.2578V288.696H47.1798V292.924ZM57.0498 283.684H55.2578V280.436H53.8158V288.052H55.2578V284.874H57.0498V283.684ZM63.1947 286.134H60.1007V284.188H63.1947V286.134ZM64.6227 281.22H63.1947V283.068H60.1007V281.22H58.6587V287.282H64.6227V281.22ZM59.7787 289.816H66.6527V293.078H68.0947V288.668H59.7787V289.816ZM69.8867 283.628H68.0947V280.422H66.6527V288.038H68.0947V284.818H69.8867V283.628ZM82.0236 286.61C79.5316 286.162 77.5016 284.216 77.5016 282.2V281.248H75.9756V282.2C75.9756 284.202 73.9456 286.148 71.4536 286.61L72.0696 287.8C74.1276 287.38 75.9056 286.064 76.7316 284.328C77.5576 286.064 79.3356 287.38 81.3936 287.8L82.0236 286.61ZM71.0616 290.264V291.454H82.5136V290.264H71.0616ZM90.7865 288.206H92.1305V280.702H90.7865V283.712H89.2885V284.874H90.7865V288.206ZM89.7225 286.176C88.4765 286.4 87.4125 286.47 85.8165 286.484V284.986H88.7285V283.866H85.8165V282.466H89.1905V281.304H84.4305V287.632H85.2565C87.2165 287.632 88.4205 287.59 89.8625 287.324L89.7225 286.176ZM85.9985 290.012H93.1525V293.092H94.5945V288.85H85.9985V290.012ZM93.2225 280.436V288.304H94.5945V280.436H93.2225Z" fill="black"/>
<path d="M28.254 403.6H22.584V401.948H28.254V403.6ZM29.668 400.828H21.156V404.734H29.668V400.828ZM31.152 406.764V405.616H19.7V406.764H24.684V407.814H21.058V408.906H28.296V409.802H21.086V412.966H30.074V411.86H22.514V410.824H29.71V407.814H26.14V406.764H31.152ZM40.4189 404.804H41.8749V408.038H43.2469V400.422H41.8749V403.628H40.4189V400.674H39.0749V407.618H40.4189V404.804ZM38.2769 405.476C36.9609 405.742 35.7849 405.826 34.5529 405.854V401.43H33.1109V407.044H33.9509C35.4769 407.044 36.8209 406.974 38.4309 406.652L38.2769 405.476ZM39.0469 411.944C37.2689 411.944 36.1909 411.468 36.1909 410.642C36.1909 409.816 37.2689 409.34 39.0469 409.34C40.8109 409.34 41.8749 409.816 41.8749 410.642C41.8749 411.468 40.8109 411.944 39.0469 411.944ZM39.0469 408.206C36.4289 408.206 34.7489 409.13 34.7489 410.642C34.7489 412.154 36.4289 413.078 39.0469 413.078C41.6509 413.078 43.3169 412.154 43.3169 410.642C43.3169 409.13 41.6509 408.206 39.0469 408.206ZM50.3858 406.386H47.3478V402.634H50.3858V406.386ZM54.4178 403.726V405.266H51.7858V403.726H54.4178ZM51.7858 406.428H54.4178V409.662H55.8598V400.436H54.4178V402.55H51.7858V401.486H45.9338V407.534H51.7858V406.428ZM49.0838 411.664V408.822H47.6278V412.84H56.1538V411.664H49.0838ZM28.66 432.422V445.106H30.116V432.422H28.66ZM20.386 433.472V442.096H26.462V433.472H25.02V436.692H21.814V433.472H20.386ZM21.814 437.84H25.02V440.934H21.814V437.84ZM33.1949 433.066V439.03H39.2149V433.066H37.7729V434.886H34.6229V433.066H33.1949ZM34.6229 436.006H37.7729V437.868H34.6229V436.006ZM41.5249 432.436V439.758H42.9669V432.436H41.5249ZM34.6929 440.402V444.91H42.9669V440.402H34.6929ZM41.5529 441.55V443.762H36.1069V441.55H41.5529ZM53.2558 436.804H54.7118V440.038H56.0838V432.422H54.7118V435.628H53.2558V432.674H51.9118V439.618H53.2558V436.804ZM51.1138 437.476C49.7978 437.742 48.6218 437.826 47.3898 437.854V433.43H45.9478V439.044H46.7878C48.3138 439.044 49.6578 438.974 51.2678 438.652L51.1138 437.476ZM51.8838 443.944C50.1058 443.944 49.0278 443.468 49.0278 442.642C49.0278 441.816 50.1058 441.34 51.8838 441.34C53.6478 441.34 54.7118 441.816 54.7118 442.642C54.7118 443.468 53.6478 443.944 51.8838 443.944ZM51.8838 440.206C49.2658 440.206 47.5858 441.13 47.5858 442.642C47.5858 444.154 49.2658 445.078 51.8838 445.078C54.4878 445.078 56.1538 444.154 56.1538 442.642C56.1538 441.13 54.4878 440.206 51.8838 440.206ZM63.2227 438.386H60.1847V434.634H63.2227V438.386ZM67.2547 435.726V437.266H64.6227V435.726H67.2547ZM64.6227 438.428H67.2547V441.662H68.6967V432.436H67.2547V434.55H64.6227V433.486H58.7707V439.534H64.6227V438.428ZM61.9207 443.664V440.822H60.4647V444.84H68.9907V443.664H61.9207ZM25.412 466.06C27.218 466.06 28.408 466.676 28.408 467.684C28.408 468.706 27.218 469.322 25.412 469.322C23.592 469.322 22.402 468.706 22.402 467.684C22.402 466.676 23.592 466.06 25.412 466.06ZM25.412 470.484C28.072 470.484 29.892 469.392 29.892 467.684C29.892 465.99 28.072 464.898 25.412 464.898C22.738 464.898 20.918 465.99 20.918 467.684C20.918 469.392 22.738 470.484 25.412 470.484ZM31.166 471.562H19.7V472.752H22.5V477.078H23.97V472.752H26.854V477.078H28.324V472.752H31.18L31.166 471.562ZM41.1469 469.294H35.3649V467.684H41.1469V469.294ZM42.5889 464.926H41.1469V466.522H35.3649V464.926H33.9229V470.456H42.5889V464.926ZM44.0029 471.828H32.5369V472.99H37.5069V477.092H38.9489V472.99H44.0029V471.828ZM51.0858 466.06C52.8918 466.06 54.0818 466.676 54.0818 467.698C54.0818 468.734 52.8918 469.35 51.0858 469.35C49.2658 469.35 48.0758 468.734 48.0758 467.698C48.0758 466.676 49.2658 466.06 51.0858 466.06ZM51.0858 470.512C53.7458 470.512 55.5658 469.42 55.5658 467.698C55.5658 465.99 53.7458 464.898 51.0858 464.898C48.4118 464.898 46.5918 465.99 46.5918 467.698C46.5918 469.42 48.4118 470.512 51.0858 470.512ZM56.8398 471.59H45.3738V472.78H50.3438V477.078H51.7858V472.78H56.8398V471.59ZM63.9087 475.972C62.0607 475.972 61.0247 475.566 61.0247 474.782C61.0247 474.012 62.0607 473.592 63.9087 473.592C65.7567 473.592 66.8067 474.012 66.8067 474.782C66.8067 475.566 65.7567 475.972 63.9087 475.972ZM63.9087 472.486C61.2067 472.486 59.5547 473.326 59.5547 474.782C59.5547 476.252 61.2067 477.092 63.9087 477.092C66.6247 477.092 68.2627 476.252 68.2627 474.782C68.2627 473.326 66.6247 472.486 63.9087 472.486ZM64.6647 470.54V469.28H68.3467V468.118H61.0807V466.144H68.2627V464.996H59.6527V469.28H63.2227V470.54H58.2387V471.716H69.6627V470.54H64.6647ZM20.498 497.192V498.354H24.796C24.544 500.272 22.794 501.84 19.812 502.596L20.358 503.73C24.11 502.764 26.336 500.496 26.336 497.192H20.498ZM23.298 505.256H28.716V507.762H23.298V505.256ZM21.87 508.924H30.13V504.108H21.87V508.924ZM28.688 496.422V503.534H30.13V496.422H28.688ZM37.3249 499.726H40.0689V498.564H37.3249V496.688H35.8829V498.564H33.0829V499.726H35.8829V500.454C35.8829 502.54 34.6789 504.682 32.6909 505.578L33.4889 506.684C34.9589 506.012 36.0649 504.64 36.6249 502.96C37.1989 504.542 38.3049 505.844 39.7469 506.474L40.5169 505.354C38.5569 504.5 37.3249 502.442 37.3249 500.454V499.726ZM41.5109 496.422V509.064H42.9669V496.422H41.5109ZM51.0858 498.06C52.8918 498.06 54.0818 498.676 54.0818 499.698C54.0818 500.734 52.8918 501.35 51.0858 501.35C49.2658 501.35 48.0758 500.734 48.0758 499.698C48.0758 498.676 49.2658 498.06 51.0858 498.06ZM51.0858 502.512C53.7458 502.512 55.5658 501.42 55.5658 499.698C55.5658 497.99 53.7458 496.898 51.0858 496.898C48.4118 496.898 46.5918 497.99 46.5918 499.698C46.5918 501.42 48.4118 502.512 51.0858 502.512ZM56.8398 503.59H45.3738V504.78H50.3438V509.078H51.7858V504.78H56.8398V503.59ZM63.9087 507.972C62.0607 507.972 61.0247 507.566 61.0247 506.782C61.0247 506.012 62.0607 505.592 63.9087 505.592C65.7567 505.592 66.8067 506.012 66.8067 506.782C66.8067 507.566 65.7567 507.972 63.9087 507.972ZM63.9087 504.486C61.2067 504.486 59.5547 505.326 59.5547 506.782C59.5547 508.252 61.2067 509.092 63.9087 509.092C66.6247 509.092 68.2627 508.252 68.2627 506.782C68.2627 505.326 66.6247 504.486 63.9087 504.486ZM64.6647 502.54V501.28H68.3467V500.118H61.0807V498.144H68.2627V496.996H59.6527V501.28H63.2227V502.54H58.2387V503.716H69.6627V502.54H64.6647ZM23.606 529.584H22.22V531.88C22.22 534.036 21.338 536.304 19.518 537.368L20.428 538.446C21.632 537.718 22.458 536.402 22.92 534.862C23.354 536.262 24.124 537.438 25.286 538.096L26.14 536.962C24.418 536.01 23.606 533.91 23.606 531.782V529.584ZM29.136 528.436V533.448H27.722V528.674H26.378V540.49H27.722V534.624H29.136V541.078H30.508V528.436H29.136ZM38.2489 530.06C40.0549 530.06 41.2449 530.676 41.2449 531.698C41.2449 532.734 40.0549 533.35 38.2489 533.35C36.4289 533.35 35.2389 532.734 35.2389 531.698C35.2389 530.676 36.4289 530.06 38.2489 530.06ZM38.2489 534.512C40.9089 534.512 42.7289 533.42 42.7289 531.698C42.7289 529.99 40.9089 528.898 38.2489 528.898C35.5749 528.898 33.7549 529.99 33.7549 531.698C33.7549 533.42 35.5749 534.512 38.2489 534.512ZM44.0029 535.59H32.5369V536.78H37.5069V541.078H38.9489V536.78H44.0029V535.59ZM52.8638 533.42H47.8798V532.398H52.5138V531.334H47.8798V530.326H52.7798V529.178H46.4378V534.554H52.8638V533.42ZM53.6058 535.324C50.8758 535.66 47.7818 535.66 45.3318 535.66L45.5278 536.85C46.5498 536.85 47.6838 536.85 48.8458 536.808V540.686H50.2878V536.752C51.4078 536.668 52.5698 536.57 53.6898 536.388L53.6058 535.324ZM54.4038 528.422V541.078H55.8458V528.422H54.4038ZM59.0087 529.192V530.354H63.3067C63.0547 532.272 61.3047 533.84 58.3227 534.596L58.8687 535.73C62.6207 534.764 64.8467 532.496 64.8467 529.192H59.0087ZM61.8087 537.256H67.2267V539.762H61.8087V537.256ZM60.3807 540.924H68.6407V536.108H60.3807V540.924ZM67.1987 528.422V535.534H68.6407V528.422H67.1987ZM76.7596 530.06C78.5656 530.06 79.7556 530.676 79.7556 531.698C79.7556 532.734 78.5656 533.35 76.7596 533.35C74.9396 533.35 73.7496 532.734 73.7496 531.698C73.7496 530.676 74.9396 530.06 76.7596 530.06ZM76.7596 534.512C79.4196 534.512 81.2396 533.42 81.2396 531.698C81.2396 529.99 79.4196 528.898 76.7596 528.898C74.0856 528.898 72.2656 529.99 72.2656 531.698C72.2656 533.42 74.0856 534.512 76.7596 534.512ZM82.5136 535.59H71.0476V536.78H76.0176V541.078H77.4596V536.78H82.5136V535.59ZM89.5825 539.972C87.7345 539.972 86.6985 539.566 86.6985 538.782C86.6985 538.012 87.7345 537.592 89.5825 537.592C91.4305 537.592 92.4805 538.012 92.4805 538.782C92.4805 539.566 91.4305 539.972 89.5825 539.972ZM89.5825 536.486C86.8805 536.486 85.2285 537.326 85.2285 538.782C85.2285 540.252 86.8805 541.092 89.5825 541.092C92.2985 541.092 93.9365 540.252 93.9365 538.782C93.9365 537.326 92.2985 536.486 89.5825 536.486ZM90.3385 534.54V533.28H94.0205V532.118H86.7545V530.144H93.9365V528.996H85.3265V533.28H88.8965V534.54H83.9125V535.716H95.3365V534.54H90.3385Z" fill="black"/>
<path d="M141.654 196.182C143.39 196.182 145.014 194.908 145.014 192.654C145.014 190.4 143.628 189.392 141.92 189.392C141.304 189.392 140.856 189.546 140.394 189.798L140.646 186.83H144.524V185.724H139.526L139.204 190.54L139.89 190.96C140.478 190.568 140.912 190.358 141.598 190.358C142.886 190.358 143.726 191.226 143.726 192.696C143.726 194.194 142.746 195.118 141.542 195.118C140.352 195.118 139.61 194.572 139.022 193.984L138.392 194.824C139.078 195.51 140.058 196.182 141.654 196.182ZM147.67 196.182C148.174 196.182 148.594 195.79 148.594 195.216C148.594 194.628 148.174 194.222 147.67 194.222C147.166 194.222 146.746 194.628 146.746 195.216C146.746 195.79 147.166 196.182 147.67 196.182ZM153.232 196.182C154.968 196.182 156.592 194.908 156.592 192.654C156.592 190.4 155.206 189.392 153.498 189.392C152.882 189.392 152.434 189.546 151.972 189.798L152.224 186.83H156.102V185.724H151.104L150.782 190.54L151.468 190.96C152.056 190.568 152.49 190.358 153.176 190.358C154.464 190.358 155.304 191.226 155.304 192.696C155.304 194.194 154.324 195.118 153.12 195.118C151.93 195.118 151.188 194.572 150.6 193.984L149.97 194.824C150.656 195.51 151.636 196.182 153.232 196.182ZM142.102 222.582C143.348 222.582 143.964 223.464 143.964 224.85C143.964 226.25 143.194 227.188 142.214 227.188C140.926 227.188 140.156 226.026 140.002 223.898C140.632 222.96 141.458 222.582 142.102 222.582ZM142.214 228.182C143.81 228.182 145.154 226.838 145.154 224.85C145.154 222.708 144.048 221.63 142.312 221.63C141.5 221.63 140.604 222.106 139.974 222.876C140.03 219.684 141.22 218.606 142.62 218.606C143.25 218.606 143.866 218.9 144.272 219.39L144.972 218.592C144.412 217.99 143.642 217.542 142.578 217.542C140.59 217.542 138.784 219.082 138.784 223.1C138.784 226.488 140.24 228.182 142.214 228.182ZM147.67 228.182C148.174 228.182 148.594 227.79 148.594 227.216C148.594 226.628 148.174 226.222 147.67 226.222C147.166 226.222 146.746 226.628 146.746 227.216C146.746 227.79 147.166 228.182 147.67 228.182ZM153.47 228.182C155.416 228.182 156.662 226.404 156.662 222.834C156.662 219.278 155.416 217.542 153.47 217.542C151.51 217.542 150.264 219.264 150.264 222.834C150.264 226.404 151.51 228.182 153.47 228.182ZM153.47 227.16C152.294 227.16 151.51 225.858 151.51 222.834C151.51 219.838 152.294 218.564 153.47 218.564C154.632 218.564 155.416 219.838 155.416 222.834C155.416 225.858 154.632 227.16 153.47 227.16ZM140.772 260H142.102C142.256 255.982 142.704 253.588 145.112 250.508V249.724H138.686V250.83H143.656C141.654 253.63 140.94 256.108 140.772 260ZM147.67 260.182C148.174 260.182 148.594 259.79 148.594 259.216C148.594 258.628 148.174 258.222 147.67 258.222C147.166 258.222 146.746 258.628 146.746 259.216C146.746 259.79 147.166 260.182 147.67 260.182ZM153.47 260.182C155.416 260.182 156.662 258.404 156.662 254.834C156.662 251.278 155.416 249.542 153.47 249.542C151.51 249.542 150.264 251.264 150.264 254.834C150.264 258.404 151.51 260.182 153.47 260.182ZM153.47 259.16C152.294 259.16 151.51 257.858 151.51 254.834C151.51 251.838 152.294 250.564 153.47 250.564C154.632 250.564 155.416 251.838 155.416 254.834C155.416 257.858 154.632 259.16 153.47 259.16ZM140.772 292H142.102C142.256 287.982 142.704 285.588 145.112 282.508V281.724H138.686V282.83H143.656C141.654 285.63 140.94 288.108 140.772 292ZM147.67 292.182C148.174 292.182 148.594 291.79 148.594 291.216C148.594 290.628 148.174 290.222 147.67 290.222C147.166 290.222 146.746 290.628 146.746 291.216C146.746 291.79 147.166 292.182 147.67 292.182ZM153.232 292.182C154.968 292.182 156.592 290.908 156.592 288.654C156.592 286.4 155.206 285.392 153.498 285.392C152.882 285.392 152.434 285.546 151.972 285.798L152.224 282.83H156.102V281.724H151.104L150.782 286.54L151.468 286.96C152.056 286.568 152.49 286.358 153.176 286.358C154.464 286.358 155.304 287.226 155.304 288.696C155.304 290.194 154.324 291.118 153.12 291.118C151.93 291.118 151.188 290.572 150.6 289.984L149.97 290.824C150.656 291.51 151.636 292.182 153.232 292.182Z" fill="black"/>
<path d="M141.654 412.182C143.39 412.182 145.014 410.908 145.014 408.654C145.014 406.4 143.628 405.392 141.92 405.392C141.304 405.392 140.856 405.546 140.394 405.798L140.646 402.83H144.524V401.724H139.526L139.204 406.54L139.89 406.96C140.478 406.568 140.912 406.358 141.598 406.358C142.886 406.358 143.726 407.226 143.726 408.696C143.726 410.194 142.746 411.118 141.542 411.118C140.352 411.118 139.61 410.572 139.022 409.984L138.392 410.824C139.078 411.51 140.058 412.182 141.654 412.182ZM147.67 412.182C148.174 412.182 148.594 411.79 148.594 411.216C148.594 410.628 148.174 410.222 147.67 410.222C147.166 410.222 146.746 410.628 146.746 411.216C146.746 411.79 147.166 412.182 147.67 412.182ZM153.232 412.182C154.968 412.182 156.592 410.908 156.592 408.654C156.592 406.4 155.206 405.392 153.498 405.392C152.882 405.392 152.434 405.546 151.972 405.798L152.224 402.83H156.102V401.724H151.104L150.782 406.54L151.468 406.96C152.056 406.568 152.49 406.358 153.176 406.358C154.464 406.358 155.304 407.226 155.304 408.696C155.304 410.194 154.324 411.118 153.12 411.118C151.93 411.118 151.188 410.572 150.6 409.984L149.97 410.824C150.656 411.51 151.636 412.182 153.232 412.182ZM141.654 444.182C143.39 444.182 145.014 442.908 145.014 440.654C145.014 438.4 143.628 437.392 141.92 437.392C141.304 437.392 140.856 437.546 140.394 437.798L140.646 434.83H144.524V433.724H139.526L139.204 438.54L139.89 438.96C140.478 438.568 140.912 438.358 141.598 438.358C142.886 438.358 143.726 439.226 143.726 440.696C143.726 442.194 142.746 443.118 141.542 443.118C140.352 443.118 139.61 442.572 139.022 441.984L138.392 442.824C139.078 443.51 140.058 444.182 141.654 444.182ZM147.67 444.182C148.174 444.182 148.594 443.79 148.594 443.216C148.594 442.628 148.174 442.222 147.67 442.222C147.166 442.222 146.746 442.628 146.746 443.216C146.746 443.79 147.166 444.182 147.67 444.182ZM153.232 444.182C154.968 444.182 156.592 442.908 156.592 440.654C156.592 438.4 155.206 437.392 153.498 437.392C152.882 437.392 152.434 437.546 151.972 437.798L152.224 434.83H156.102V433.724H151.104L150.782 438.54L151.468 438.96C152.056 438.568 152.49 438.358 153.176 438.358C154.464 438.358 155.304 439.226 155.304 440.696C155.304 442.194 154.324 443.118 153.12 443.118C151.93 443.118 151.188 442.572 150.6 441.984L149.97 442.824C150.656 443.51 151.636 444.182 153.232 444.182ZM139.61 472.15L141.948 468.65C142.242 468.146 142.522 467.642 142.774 467.138H142.83C142.802 467.67 142.76 468.496 142.76 469V472.15H139.61ZM142.76 476H143.964V473.172H145.322V472.15H143.964V465.724H142.55L138.28 472.332V473.172H142.76V476ZM147.67 476.182C148.174 476.182 148.594 475.79 148.594 475.216C148.594 474.628 148.174 474.222 147.67 474.222C147.166 474.222 146.746 474.628 146.746 475.216C146.746 475.79 147.166 476.182 147.67 476.182ZM153.232 476.182C154.968 476.182 156.592 474.908 156.592 472.654C156.592 470.4 155.206 469.392 153.498 469.392C152.882 469.392 152.434 469.546 151.972 469.798L152.224 466.83H156.102V465.724H151.104L150.782 470.54L151.468 470.96C152.056 470.568 152.49 470.358 153.176 470.358C154.464 470.358 155.304 471.226 155.304 472.696C155.304 474.194 154.324 475.118 153.12 475.118C151.93 475.118 151.188 474.572 150.6 473.984L149.97 474.824C150.656 475.51 151.636 476.182 153.232 476.182ZM141.654 508.182C143.39 508.182 145.014 506.908 145.014 504.654C145.014 502.4 143.628 501.392 141.92 501.392C141.304 501.392 140.856 501.546 140.394 501.798L140.646 498.83H144.524V497.724H139.526L139.204 502.54L139.89 502.96C140.478 502.568 140.912 502.358 141.598 502.358C142.886 502.358 143.726 503.226 143.726 504.696C143.726 506.194 142.746 507.118 141.542 507.118C140.352 507.118 139.61 506.572 139.022 505.984L138.392 506.824C139.078 507.51 140.058 508.182 141.654 508.182ZM147.67 508.182C148.174 508.182 148.594 507.79 148.594 507.216C148.594 506.628 148.174 506.222 147.67 506.222C147.166 506.222 146.746 506.628 146.746 507.216C146.746 507.79 147.166 508.182 147.67 508.182ZM153.47 508.182C155.416 508.182 156.662 506.404 156.662 502.834C156.662 499.278 155.416 497.542 153.47 497.542C151.51 497.542 150.264 499.264 150.264 502.834C150.264 506.404 151.51 508.182 153.47 508.182ZM153.47 507.16C152.294 507.16 151.51 505.858 151.51 502.834C151.51 499.838 152.294 498.564 153.47 498.564C154.632 498.564 155.416 499.838 155.416 502.834C155.416 505.858 154.632 507.16 153.47 507.16ZM142.102 534.582C143.348 534.582 143.964 535.464 143.964 536.85C143.964 538.25 143.194 539.188 142.214 539.188C140.926 539.188 140.156 538.026 140.002 535.898C140.632 534.96 141.458 534.582 142.102 534.582ZM142.214 540.182C143.81 540.182 145.154 538.838 145.154 536.85C145.154 534.708 144.048 533.63 142.312 533.63C141.5 533.63 140.604 534.106 139.974 534.876C140.03 531.684 141.22 530.606 142.62 530.606C143.25 530.606 143.866 530.9 144.272 531.39L144.972 530.592C144.412 529.99 143.642 529.542 142.578 529.542C140.59 529.542 138.784 531.082 138.784 535.1C138.784 538.488 140.24 540.182 142.214 540.182ZM147.67 540.182C148.174 540.182 148.594 539.79 148.594 539.216C148.594 538.628 148.174 538.222 147.67 538.222C147.166 538.222 146.746 538.628 146.746 539.216C146.746 539.79 147.166 540.182 147.67 540.182ZM153.232 540.182C154.968 540.182 156.592 538.908 156.592 536.654C156.592 534.4 155.206 533.392 153.498 533.392C152.882 533.392 152.434 533.546 151.972 533.798L152.224 530.83H156.102V529.724H151.104L150.782 534.54L151.468 534.96C152.056 534.568 152.49 534.358 153.176 534.358C154.464 534.358 155.304 535.226 155.304 536.696C155.304 538.194 154.324 539.118 153.12 539.118C151.93 539.118 151.188 538.572 150.6 537.984L149.97 538.824C150.656 539.51 151.636 540.182 153.232 540.182Z" fill="black"/>
<path d="M193.82 151.7V153.8H210.58V151.7H193.82ZM200.86 149V152.68H203.52V149H200.86ZM195.84 147.78V149.9H208.74V147.78H195.84ZM195.84 143.14V148.78H198.5V145.26H208.58V143.14H195.84ZM195.8 158.34V160.46H208.86V158.34H195.8ZM195.8 155.04V159H198.44V155.04H195.8ZM224.198 142.26V160.78H226.858V142.26H224.198ZM226.038 149.5V151.7H229.258V149.5H226.038ZM215.118 144.14V144.46C215.118 149.16 214.618 152.24 211.758 155.4L213.838 156.9C217.118 153.22 217.598 149.28 217.598 144.14H215.118ZM212.578 144.14V146.3H216.158V144.14H212.578ZM220.218 144.14V144.44C220.218 149.5 219.758 153.06 216.958 156.6L219.038 158.08C222.258 154.06 222.698 149.52 222.698 144.14H220.218ZM218.218 144.14V146.3H221.318V144.14H218.218ZM237.357 143.32V144.66C237.357 147.32 235.057 150.26 230.877 150.98L232.017 153.18C236.817 152.24 239.677 148.68 239.677 144.66V143.32H237.357ZM237.897 143.32V144.66C237.897 148.74 240.737 152.24 245.537 153.18L246.677 150.98C242.477 150.26 240.197 147.38 240.197 144.66V143.32H237.897ZM230.497 156.36V158.52H247.257V156.36H230.497ZM248.815 153.12V155.22H265.595V153.12H248.815ZM252.675 154.22V160.78H255.355V154.22H252.675ZM259.075 154.22V160.78H261.755V154.22H259.075ZM250.735 142.82V144.94H260.955V146.28H250.775V151.12H253.475V148.24H263.655V142.82H250.735ZM250.775 149.7V151.8H264.115V149.7H250.775Z" fill="#FF8080"/>
<path d="M195.62 367.42C198.84 366.98 201.1 365.6 202.2 363.72C203.3 365.6 205.56 366.98 208.78 367.42L209.72 365.36C205.98 364.9 204.04 363.1 203.78 361.34H209V359.24H195.34V361.34H200.64C200.38 363.1 198.42 364.9 194.66 365.36L195.62 367.42ZM210.52 368.48H193.88V370.58H200.82V376.76H203.46V370.58H210.52V368.48ZM224.278 362.3H214.138V367.8H227.398V365.7H216.838V364.24H226.958V358.86H214.118V360.96H224.278V362.3ZM228.878 369.1H212.198V371.2H216.038V376.74H218.698V371.2H222.398V376.74H225.058V371.2H228.878V369.1Z" fill="#FF8080"/>
<path d="M30.7 143.96H26.6V142.18H23.94V143.96H19.84V146.04H30.7V143.96ZM23.28 149.9C23.28 149 24.1 148.54 25.28 148.54C26.46 148.54 27.28 149 27.28 149.9C27.28 150.82 26.46 151.28 25.28 151.28C24.1 151.28 23.28 150.82 23.28 149.9ZM29.8 149.9C29.8 147.94 27.94 146.6 25.28 146.6C22.62 146.6 20.76 147.94 20.76 149.9C20.76 151.9 22.62 153.22 25.28 153.22C27.94 153.22 29.8 151.9 29.8 149.9ZM24.98 156.28H31.78V158.44H24.98V156.28ZM22.38 160.5H34.36V154.2H22.38V160.5ZM36.8 146.84H34.36V142.32H31.72V153.4H34.36V149H36.8V146.84ZM44.9584 150.34H41.3384V147.92H44.9584V150.34ZM47.5584 143.48H44.9584V145.9H41.3384V143.48H38.7384V152.42H47.5584V143.48ZM40.3984 156.26H50.0584V160.74H52.6984V154.16H40.3984V156.26ZM55.1384 146.78H52.6984V142.3H50.0584V153.34H52.6984V148.94H55.1384V146.78ZM72.6369 150.96C68.4769 150.26 66.1969 147.4 66.1969 144.7V143.38H63.3769V144.7C63.3769 147.34 61.0769 150.26 56.9369 150.96L58.0569 153.18C61.2569 152.56 63.5969 150.76 64.7769 148.42C65.9569 150.76 68.3169 152.54 71.5169 153.18L72.6369 150.96ZM56.5369 156.34V158.48H73.2169V156.34H56.5369ZM84.4553 153.68H86.9153V142.64H84.4553V146.98H82.6553V149.08H84.4553V153.68ZM83.1753 150.54C81.5153 150.82 80.0753 150.92 78.1353 150.94V149.22H81.8753V147.22H78.1353V145.6H82.5153V143.5H75.5953V153H76.8553C79.5753 153 81.3153 152.98 83.3953 152.6L83.1753 150.54ZM77.8753 156.6H87.9353V160.74H90.5753V154.52H77.8753V156.6ZM88.0753 142.3V153.78H90.5753V142.3H88.0753ZM105.294 146.3H95.1538V151.8H108.414V149.7H97.8538V148.24H107.974V142.86H95.1338V144.96H105.294V146.3ZM109.894 153.1H93.2138V155.2H97.0538V160.74H99.7138V155.2H103.414V160.74H106.074V155.2H109.894V153.1Z" fill="#FF8080"/>
<path d="M26.72 366.7H23.22V361.84H26.72V366.7ZM32.62 363.3V365.16H29.3V363.3H32.62ZM29.3 367.26H32.62V371.72H35.26V358.3H32.62V361.2H29.3V359.78H20.62V368.78H29.3V367.26ZM25.74 374.3V370.46H23.1V376.4H35.66V374.3H25.74ZM50.2784 362.3H40.1384V367.8H53.3984V365.7H42.8384V364.24H52.9584V358.86H40.1184V360.96H50.2784V362.3ZM54.8784 369.1H38.1984V371.2H42.0384V376.74H44.6984V371.2H48.3984V376.74H51.0584V371.2H54.8784V369.1Z" fill="#FF8080"/>
<path d="M103.752 75.1868C105.111 75.1897 106.412 75.7306 107.373 76.6911C108.333 77.6516 108.874 78.9535 108.877 80.3119V88.894C108.874 90.2513 108.333 91.5521 107.372 92.5109C106.411 93.4696 105.11 94.0082 103.752 94.0082H100.965C100.293 94.0082 99.6272 93.8754 99.0066 93.6176C98.3861 93.3597 97.8224 92.9819 97.3483 92.5057C96.8741 92.0295 96.4987 91.4643 96.2436 90.8427C95.9884 90.221 95.8585 89.555 95.8614 88.883V80.3119C95.8585 79.6408 95.988 78.9758 96.2425 78.3548C96.497 77.7338 96.8714 77.1691 97.3444 76.6931C97.8174 76.217 98.3797 75.839 98.999 75.5805C99.6183 75.322 100.282 75.1882 100.954 75.1868H103.752ZM105.684 80.8826C105.687 80.577 105.629 80.2739 105.515 79.9905C105.401 79.7072 105.232 79.449 105.018 79.231C104.804 79.0129 104.549 78.8391 104.268 78.7195C103.986 78.5999 103.684 78.5369 103.379 78.534H101.327C101.021 78.5369 100.719 78.5999 100.438 78.7195C100.157 78.8391 99.902 79.0129 99.688 79.231C99.474 79.449 99.305 79.7072 99.1907 79.9905C99.0765 80.2739 99.0192 80.577 99.0221 80.8826V88.3124C99.0162 88.9305 99.2554 89.5257 99.6873 89.9679C100.119 90.41 100.709 90.6632 101.327 90.6718H103.368C103.675 90.669 103.978 90.6057 104.261 90.4856C104.543 90.3654 104.799 90.1908 105.015 89.9717C105.23 89.7526 105.399 89.4933 105.514 89.2086C105.629 88.9239 105.687 88.6193 105.684 88.3124V80.8826Z" fill="#FFEEB2"/>
<path d="M121.158 83.8126L120.982 84.0101L121.158 84.1857C121.642 84.6588 122.016 85.2318 122.255 85.8648C122.592 86.6522 122.766 87.4997 122.766 88.3561C122.766 89.2125 122.592 90.06 122.255 90.8473C121.791 92.0315 120.892 92.9934 119.742 93.5361C118.111 94.115 116.37 94.3175 114.65 94.1287C113.361 94.1142 112.131 93.59 111.228 92.6706C110.325 91.7512 109.823 90.5116 109.832 89.223V88.6743H112.795C112.789 88.9681 112.845 89.2598 112.96 89.5303C113.421 90.7595 115.067 91.001 116.186 90.9351C116.964 90.9393 117.726 90.7182 118.381 90.2986C118.776 89.9233 119.057 89.4437 119.191 88.9154C119.325 88.3872 119.307 87.8318 119.138 87.3135C119.019 86.8497 118.761 86.4336 118.398 86.1216C118.035 85.8095 117.584 85.6165 117.108 85.5686C116.53 85.454 115.941 85.4025 115.352 85.4149H114.419V82.5834H115.385C115.974 82.5958 116.563 82.5444 117.141 82.4298C117.605 82.3723 118.046 82.1986 118.425 81.925C118.658 81.7314 118.845 81.4889 118.973 81.2148C119.102 80.9408 119.168 80.6418 119.168 80.3392C119.168 80.0365 119.102 79.7375 118.973 79.4635C118.845 79.1894 118.658 78.947 118.425 78.7533C117.24 77.7217 112.795 77.7437 112.795 80.4215H109.821V79.8508C109.821 76.6901 112.707 74.9891 115.517 75.0001C116.911 75.0001 117.108 75.0001 117.13 75.0001C117.587 75.0175 118.042 75.0688 118.491 75.1537C119.335 75.3333 120.124 75.7093 120.796 76.2512C121.504 76.8286 122.042 77.5871 122.354 78.4461C122.73 79.3551 122.818 80.358 122.604 81.3183C122.39 82.2786 121.885 83.1496 121.158 83.8126Z" fill="#FFEEB2"/>
<path d="M123.967 78.7093L126.162 75.3071H129.783V94.0188H126.59V78.7203L123.967 78.7093Z" fill="#FFEEB2"/>
<path d="M143.052 82.5508V85.5358H132.758V82.5398L143.052 82.5508Z" fill="#FFEEB2"/>
<path d="M144.917 75.5381H157.472L154.18 94.0302H150.635L153.28 78.9183H148.44V81.7168H144.972L144.917 75.5381Z" fill="#FFEEB2"/>
<path d="M169.972 87.4339H172.837V90.2982H169.983V94.0295H166.768V90.3421H158.317V87.4448L164.397 75.3728H169.983L169.972 87.4339ZM166.768 87.4339V77.875L161.84 87.4339H166.768Z" fill="#FFEEB2"/>
<path d="M181.364 75.1098C184.371 75.1098 185.908 77.3047 185.908 80.3447V82.781C185.915 83.6242 185.766 84.4614 185.469 85.2503L183.8 94.0299H180.695L181.858 87.961C181.69 87.972 181.521 87.972 181.353 87.961H178.072C175.076 87.961 173.517 85.7661 173.517 82.7481V80.3008C173.517 77.2938 175.087 75.0769 178.072 75.0769L181.364 75.1098ZM182.549 80.5202C182.549 79.2252 182.176 78.3253 180.903 78.3253H178.588C177.315 78.3253 176.941 79.1813 176.941 80.5202V82.5835C176.941 83.8785 177.315 84.7784 178.588 84.7784H180.892C182.176 84.7784 182.549 83.9224 182.549 82.5835V80.5202Z" fill="#FFEEB2"/>
<path d="M197.826 82.5722V85.5573H187.531V82.5613L197.826 82.5722Z" fill="#FFEEB2"/>
<path d="M205.376 94.1611C203.921 94.1611 202.525 93.583 201.496 92.554C200.467 91.5249 199.889 90.1291 199.889 88.6738V80.5307C199.889 79.0754 200.467 77.6797 201.496 76.6507C202.525 75.6216 203.921 75.0435 205.376 75.0435H207.703C209.038 75.0506 210.319 75.5707 211.281 76.4961C212.243 77.4214 212.813 78.6813 212.872 80.015H209.415C209.217 79.0382 208.756 78.2919 207.681 78.2919H205.376C205.081 78.3043 204.791 78.3761 204.524 78.5031C204.258 78.6301 204.019 78.8096 203.824 79.031C203.628 79.2523 203.479 79.511 203.385 79.7913C203.292 80.0716 203.256 80.3679 203.28 80.6624V82.6928C203.937 82.4189 204.642 82.2772 205.354 82.2757H207.483C208.939 82.2757 210.334 82.8539 211.363 83.8829C212.392 84.912 212.971 86.3077 212.971 87.763V88.6629C212.971 90.1182 212.392 91.5139 211.363 92.543C210.334 93.5721 208.939 94.1502 207.483 94.1502L205.376 94.1611ZM203.313 88.6738C203.295 89.2487 203.503 89.8077 203.893 90.2305C204.283 90.6533 204.824 90.9062 205.398 90.9347H207.494C207.789 90.9209 208.077 90.848 208.343 90.7204C208.608 90.5928 208.845 90.413 209.04 90.1918C209.234 89.9706 209.382 89.7125 209.475 89.4328C209.568 89.1532 209.603 88.8577 209.579 88.5641V88.0374C209.605 87.7428 209.571 87.4462 209.479 87.1653C209.387 86.8844 209.239 86.6249 209.044 86.4025C208.849 86.1801 208.612 85.9994 208.345 85.871C208.079 85.7427 207.79 85.6695 207.494 85.6558H205.398C205.105 85.6697 204.817 85.7422 204.553 85.8692C204.288 85.9961 204.051 86.1748 203.857 86.3949C203.662 86.6149 203.514 86.8717 203.421 87.15C203.327 87.4284 203.291 87.7226 203.313 88.0154V88.6738Z" fill="#FFEEB2"/>
<path d="M227.051 88.0268C227.051 92.0325 224.856 94.425 220.466 94.425C216.592 94.425 214.046 92.4935 214.046 88.378H217.196C217.196 90.112 218.118 91.3302 220.335 91.3302C220.784 91.3802 221.238 91.3303 221.665 91.184C222.093 91.0377 222.483 90.7987 222.807 90.484C223.131 90.1693 223.381 89.7867 223.54 89.3638C223.699 88.9409 223.762 88.4881 223.726 88.0378C223.726 85.6234 222.211 84.8332 220.247 84.8332C219.786 84.7923 219.322 84.8473 218.884 84.9946C218.446 85.1419 218.043 85.3784 217.701 85.6892H214.485V75.439H226.096V78.7313H217.953V82.1555C218.784 81.759 219.701 81.5778 220.62 81.6286C224.615 81.6286 227.062 83.9662 227.051 88.0268Z" fill="#FFEEB2"/>
<path d="M228.609 78.7532L230.804 75.3511H234.503V94.0078H231.309V78.7532H228.609Z" fill="#FFEEB2"/>
<path d="M236.873 89.903C239.375 88.0023 241.768 85.9614 244.04 83.7902C245.236 82.6928 245.719 82.1221 245.719 80.4978C245.722 79.9076 245.494 79.3395 245.084 78.915C244.674 78.4905 244.114 78.2433 243.524 78.2261H241.976C241.386 78.2433 240.826 78.4905 240.416 78.915C240.006 79.3395 239.778 79.9076 239.781 80.4978V81.1563H236.763V79.9162C236.772 78.6208 237.293 77.3815 238.212 76.4687C239.131 75.5558 240.374 75.0434 241.669 75.0435H244.073C245.369 75.0435 246.612 75.5577 247.53 76.4732C248.447 77.3888 248.964 78.6309 248.967 79.9271V80.3442C249.069 81.3171 248.932 82.3002 248.569 83.2084C248.206 84.1166 247.627 84.9227 246.882 85.5571C244.74 87.5924 242.479 89.4981 240.111 91.2639H248.638V94.0514H236.939L236.873 89.903Z" fill="#FFEEB2"/>
<g clip-path="url(#clip0_923_452)">
<path d="M51.6012 586.699V589.107H45.717V601.301H51.6894V603.764H42.9734V586.699H51.6012ZM58.2618 592.406V594.804H56.4975V603.836H53.9831V586.572H56.4886V592.36L58.2618 592.406Z" fill="white"/>
<path d="M68.1691 595.704C68.1691 597.285 66.8898 598.594 65.1431 599.03V601.383H71.0097V586.618H73.4799V603.882H58.8972V601.419H62.5847V599.066C60.8203 598.63 59.5677 597.322 59.5677 595.731V594.078C59.5677 592.151 61.482 590.607 63.864 590.607C66.2459 590.607 68.1602 592.151 68.1602 594.078L68.1691 595.704ZM62.673 587.399V586H65.1079V587.399H68.6366V589.68H59.1795V587.408L62.673 587.399ZM62.0202 595.332C62.0944 595.782 62.3211 596.192 62.6602 596.487C62.9993 596.782 63.4289 596.943 63.8728 596.943C64.3167 596.943 64.7462 596.782 65.0853 596.487C65.4244 596.192 65.6511 595.782 65.7254 595.332V594.423C65.6511 593.972 65.4244 593.563 65.0853 593.268C64.7462 592.973 64.3167 592.811 63.8728 592.811C63.4289 592.811 62.9993 592.973 62.6602 593.268C62.3211 593.563 62.0944 593.972 62.0202 594.423V595.332Z" fill="white"/>
<path d="M79.3109 586.709H86.7389C87.1393 586.677 87.5419 586.729 87.9225 586.861C88.3031 586.993 88.6539 587.203 88.9542 587.477C89.2544 587.752 89.4978 588.086 89.6699 588.46C89.842 588.834 89.9392 589.239 89.9558 589.653C89.9724 590.066 89.908 590.478 89.7665 590.866C89.6249 591.253 89.4091 591.606 89.132 591.906C88.8548 592.205 88.522 592.444 88.1533 592.608C87.7846 592.772 87.3875 592.858 86.9859 592.86V594.623H90.6206V596.731H75.4204V594.623H79.0639V592.915C78.6711 592.898 78.2855 592.802 77.9288 592.632C77.5722 592.461 77.2516 592.22 76.9854 591.923C76.4477 591.321 76.164 590.524 76.1967 589.707C76.2295 588.89 76.576 588.12 77.16 587.566C77.744 587.013 78.5177 586.72 79.3109 586.754V586.709ZM79.3109 597.694H86.7389C87.1447 597.671 87.5508 597.734 87.9323 597.878C88.3138 598.023 88.6628 598.246 88.9578 598.533C89.2529 598.821 89.4878 599.168 89.6484 599.553C89.809 599.937 89.8919 600.351 89.8919 600.77C89.8919 601.188 89.809 601.603 89.6484 601.987C89.4878 602.372 89.2529 602.718 88.9578 603.006C88.6628 603.294 88.3138 603.517 87.9323 603.661C87.5508 603.806 87.1447 603.868 86.7389 603.846H79.3197C78.9139 603.868 78.5078 603.806 78.1263 603.661C77.7448 603.517 77.3959 603.294 77.1008 603.006C76.8057 602.718 76.5708 602.372 76.4102 601.987C76.2496 601.603 76.1667 601.188 76.1667 600.77C76.1667 600.351 76.2496 599.937 76.4102 599.553C76.5708 599.168 76.8057 598.821 77.1008 598.533C77.3959 598.246 77.7448 598.023 78.1263 597.878C78.5078 597.734 78.9139 597.671 79.3197 597.694H79.3109ZM79.3109 601.601H86.7301C86.9376 601.59 87.1329 601.496 87.2757 601.341C87.4185 601.185 87.4979 600.979 87.4976 600.765C87.5024 600.549 87.4248 600.339 87.2813 600.181C87.1378 600.023 86.9399 599.93 86.7301 599.92H79.3109C79.0957 599.92 78.8892 600.008 78.737 600.165C78.5848 600.322 78.4992 600.534 78.4992 600.756C78.4992 600.978 78.5848 601.191 78.737 601.347C78.8892 601.504 79.0957 601.592 79.3109 601.592V601.601ZM79.3109 590.625H86.7389C86.9407 590.603 87.1276 590.505 87.2634 590.35C87.3993 590.195 87.4744 589.993 87.4744 589.784C87.4744 589.575 87.3993 589.374 87.2634 589.219C87.1276 589.063 86.9407 588.966 86.7389 588.944H79.3109C79.0957 588.944 78.8892 589.032 78.737 589.189C78.5848 589.346 78.4992 589.558 78.4992 589.78C78.4992 590.002 78.5848 590.214 78.737 590.371C78.8892 590.528 79.0957 590.616 79.3109 590.616V590.625ZM81.4017 594.577H84.6481V592.869H81.4017V594.577Z" fill="white"/>
<path d="M98.2957 589.171H91.9438V586.718H101.066V589.171L99.0279 603.709H96.3108L98.2957 589.171ZM106.526 603.864H103.801V586.6H106.518L106.526 603.864Z" fill="white"/>
<path d="M115.798 603.764L113.469 592.715L111.149 603.764H108.564L112.287 586.727H114.669L118.374 603.764H115.798ZM123.041 603.864H120.589V594.778H117.598V592.261H120.589V586.636H123.059L123.041 603.864Z" fill="white"/>
<path d="M134.527 603.864H126.235V586.6H128.705V592.224H132.031V586.6H134.527V603.864ZM128.714 601.383H132.031V595.023H128.705L128.714 601.383ZM139.582 603.991H137.086V586.645H139.573L139.582 603.991Z" fill="white"/>
<path d="M156.706 601.492V603.873H141.497V601.492H156.706ZM153.009 598.085L149.11 590.071L145.202 598.076H142.105L147.398 586.7H150.76L156.053 598.076L153.009 598.085Z" fill="white"/>
<path d="M163.684 586.727H171.967V589.062H166.207V593.242H171.967V595.568H163.64L163.684 586.727ZM164.416 597.412H174.852V586.654H177.34V590.289H179.104V592.806H177.34V603.927H164.416V597.412ZM166.913 601.656H174.852V599.639H166.913V601.656Z" fill="white"/>
<path d="M187.459 589.171H185.368L182.977 603.773H180.525L182.871 589.171H179.757V586.736H189.973V589.171L187.671 603.764H185.218L187.459 589.171ZM194.322 603.873H191.605V586.609H194.322V603.873Z" fill="white"/>
<path d="M207.22 586.673C208.332 586.706 209.387 587.189 210.156 588.017C210.926 588.845 211.348 589.952 211.331 591.098V599.466C211.341 600.624 210.905 601.739 210.121 602.567C209.336 603.396 208.265 603.872 207.141 603.891H206.258C205.69 603.897 205.126 603.787 204.599 603.568C204.073 603.348 203.593 603.023 203.189 602.612C202.784 602.2 202.463 601.711 202.244 601.171C202.024 600.631 201.91 600.051 201.909 599.466V591.098C201.91 590.512 202.024 589.933 202.244 589.393C202.463 588.853 202.784 588.363 203.189 587.952C203.593 587.541 204.073 587.216 204.599 586.996C205.126 586.777 205.69 586.667 206.258 586.673H207.22ZM206.285 589.253C205.807 589.246 205.346 589.432 205.001 589.772C204.656 590.112 204.455 590.579 204.441 591.07V599.439C204.455 599.929 204.655 600.394 204.998 600.734C205.341 601.074 205.8 601.261 206.276 601.256H207.07C207.538 601.256 207.987 601.065 208.318 600.724C208.648 600.383 208.834 599.921 208.834 599.439V591.07C208.835 590.598 208.656 590.144 208.336 589.804C208.017 589.465 207.582 589.267 207.123 589.253H206.285ZM216.068 603.9H213.342V586.673H216.06L216.068 603.9Z" fill="white"/>
<path d="M221.864 586.763H229.284C229.684 586.732 230.087 586.783 230.467 586.915C230.848 587.047 231.199 587.257 231.499 587.532C231.799 587.807 232.042 588.141 232.215 588.514C232.387 588.888 232.484 589.294 232.501 589.707C232.517 590.12 232.453 590.533 232.311 590.92C232.17 591.307 231.954 591.661 231.677 591.96C231.4 592.26 231.067 592.498 230.698 592.662C230.329 592.826 229.932 592.912 229.531 592.915V594.623H233.174V596.74H217.974V594.623H221.617V592.915C221.225 592.898 220.839 592.802 220.482 592.631C220.126 592.461 219.805 592.22 219.539 591.922C219.001 591.321 218.717 590.524 218.75 589.707C218.783 588.89 219.129 588.12 219.713 587.566C220.298 587.013 221.071 586.72 221.864 586.754V586.763ZM221.864 597.749H229.284C229.689 597.726 230.095 597.789 230.477 597.933C230.858 598.077 231.207 598.3 231.502 598.588C231.798 598.876 232.033 599.222 232.193 599.607C232.354 599.991 232.437 600.406 232.437 600.824C232.437 601.243 232.354 601.657 232.193 602.042C232.033 602.426 231.798 602.773 231.502 603.061C231.207 603.349 230.858 603.571 230.477 603.716C230.095 603.86 229.689 603.923 229.284 603.9H221.864C221.459 603.923 221.053 603.86 220.671 603.716C220.29 603.571 219.941 603.349 219.646 603.061C219.35 602.773 219.115 602.426 218.955 602.042C218.794 601.657 218.711 601.243 218.711 600.824C218.711 600.406 218.794 599.991 218.955 599.607C219.115 599.222 219.35 598.876 219.646 598.588C219.941 598.3 220.29 598.077 220.671 597.933C221.053 597.789 221.459 597.726 221.864 597.749ZM221.864 601.656H229.292C229.494 601.634 229.681 601.536 229.817 601.381C229.953 601.226 230.028 601.024 230.028 600.815C230.028 600.606 229.953 600.405 229.817 600.249C229.681 600.094 229.494 599.996 229.292 599.975H221.864C221.649 599.975 221.443 600.063 221.29 600.22C221.138 600.376 221.053 600.589 221.053 600.811C221.053 601.032 221.138 601.245 221.29 601.402C221.443 601.559 221.649 601.647 221.864 601.647V601.656ZM221.864 590.679H229.284C229.485 590.658 229.672 590.56 229.808 590.405C229.944 590.249 230.019 590.048 230.019 589.839C230.019 589.63 229.944 589.428 229.808 589.273C229.672 589.118 229.485 589.02 229.284 588.998H221.864C221.649 588.998 221.443 589.086 221.29 589.243C221.138 589.4 221.053 589.613 221.053 589.834C221.053 590.056 221.138 590.269 221.29 590.425C221.443 590.582 221.649 590.67 221.864 590.67V590.679ZM223.946 594.632H227.202V592.924H223.946V594.632Z" fill="white"/>
<path d="M240.611 589.217H234.532V586.781H243.354V589.226L241.325 603.827H238.626L240.611 589.217ZM248.63 593.078H250.438V595.532H248.63V603.891H245.983V586.627H248.63V593.078Z" fill="white"/>
<path d="M266.247 594.105V596.322H251.047V594.096L266.247 594.105ZM254.938 597.613H262.357C262.772 597.59 263.187 597.654 263.578 597.802C263.968 597.95 264.325 598.178 264.627 598.472C264.929 598.767 265.169 599.122 265.333 599.515C265.498 599.909 265.582 600.333 265.582 600.761C265.582 601.189 265.498 601.613 265.333 602.007C265.169 602.4 264.929 602.755 264.627 603.049C264.325 603.344 263.968 603.572 263.578 603.72C263.187 603.868 262.772 603.932 262.357 603.909H254.929C254.514 603.932 254.098 603.868 253.708 603.72C253.318 603.572 252.961 603.344 252.659 603.049C252.357 602.755 252.117 602.4 251.952 602.007C251.788 601.613 251.703 601.189 251.703 600.761C251.703 600.333 251.788 599.909 251.952 599.515C252.117 599.122 252.357 598.767 252.659 598.472C252.961 598.178 253.318 597.95 253.708 597.802C254.098 597.654 254.514 597.59 254.929 597.613H254.938ZM254.55 590.344H265.136V592.806H252.141V586.709H254.541L254.55 590.344ZM254.973 601.574H262.322C262.523 601.574 262.716 601.492 262.858 601.345C263 601.199 263.08 601 263.08 600.793C263.08 600.586 263 600.387 262.858 600.24C262.716 600.094 262.523 600.011 262.322 600.011H254.973C254.785 600.032 254.611 600.124 254.484 600.269C254.358 600.414 254.288 600.602 254.288 600.797C254.288 600.992 254.358 601.18 254.484 601.326C254.611 601.471 254.785 601.562 254.973 601.583V601.574Z" fill="white"/>
<path d="M267.835 586.782H274.805V603.819H267.835V586.782ZM270.288 601.32H272.334V589.299H270.279L270.288 601.32ZM276.216 586.709H278.669V592.751H280.009V586.709H282.48V603.973H280.009V595.168H278.669V603.928H276.207L276.216 586.709Z" fill="white"/>
<path d="M293.225 586.791V589.308L290.878 591.198L293.313 593.169V596.204L288.981 592.724L284.571 596.295V593.251L289.59 589.308H284.5V586.791H293.225ZM295.413 597.558C295.838 597.525 296.265 597.583 296.667 597.727C297.07 597.872 297.439 598.101 297.752 598.4C298.064 598.698 298.314 599.06 298.484 599.462C298.655 599.865 298.743 600.299 298.743 600.738C298.743 601.177 298.655 601.612 298.484 602.014C298.314 602.417 298.064 602.778 297.752 603.077C297.439 603.375 297.07 603.604 296.667 603.749C296.265 603.894 295.838 603.952 295.413 603.918H288.205C287.78 603.952 287.353 603.894 286.95 603.749C286.548 603.604 286.179 603.375 285.866 603.077C285.554 602.778 285.304 602.417 285.134 602.014C284.963 601.612 284.875 601.177 284.875 600.738C284.875 600.299 284.963 599.865 285.134 599.462C285.304 599.06 285.554 598.698 285.866 598.4C286.179 598.101 286.548 597.872 286.95 597.727C287.353 597.583 287.78 597.525 288.205 597.558H295.413ZM288.205 599.939C288.104 599.94 288.005 599.961 287.912 600.002C287.819 600.043 287.736 600.102 287.665 600.177C287.595 600.251 287.539 600.339 287.502 600.435C287.464 600.531 287.445 600.634 287.446 600.738C287.445 600.841 287.464 600.943 287.502 601.039C287.54 601.134 287.595 601.221 287.666 601.294C287.737 601.366 287.821 601.424 287.913 601.463C288.006 601.502 288.105 601.521 288.205 601.52H295.413C295.613 601.517 295.805 601.434 295.947 601.288C296.088 601.142 296.169 600.945 296.171 600.738C296.171 600.529 296.092 600.329 295.95 600.179C295.809 600.03 295.616 599.943 295.413 599.939H288.205ZM295.545 596.186V586.709H298.192V589.998H299.956V592.479H298.192V596.186H295.545Z" fill="white"/>
</g>
<g clip-path="url(#clip1_923_452)">
<path d="M99.7412 28.2533V32.5504H89.0006V54.3937H99.9663V58.7396H84.0803V28.2371L99.7412 28.2533ZM111.881 38.4588V42.7721H108.585V58.9349H104.002V28.0906H108.585V38.4588H111.881Z" fill="white"/>
<path d="M125.258 58.7395H113.473V41.2095H120.869V32.6968H113.537V28.2532H125.451V45.9298H118.119V54.5076H125.323L125.258 58.7395ZM128.265 58.9023V27.9766H132.655V40.3631H135.87V27.9766H140.164V58.8209H135.742V44.7578H132.526V58.8209L128.265 58.9023Z" fill="white"/>
<path d="M154.217 29.2462H160.118V33.1363H156.114C156.984 33.585 157.723 34.2571 158.256 35.0855C158.79 35.9138 159.099 36.8694 159.153 37.8566V39.9074C159.153 43.1628 155.728 45.7833 151.837 45.7833C147.946 45.7833 144.714 43.1302 144.714 39.9074V37.9868C144.739 36.9792 145.027 35.9964 145.55 35.1386C146.072 34.2807 146.811 33.5786 147.689 33.1038H143.749V29.2299H149.714V27H154.217V29.2462ZM145.261 47.3459H164.282V28.1068H168.832V34.6175H172.048V39.061H168.832V58.9837H145.293L145.261 47.3459ZM154.908 38.703C154.863 37.9357 154.519 37.2178 153.953 36.7056C153.387 36.1934 152.644 35.9284 151.885 35.9685C151.124 35.9282 150.377 36.1921 149.806 36.7035C149.234 37.2149 148.884 37.9329 148.83 38.703V39.2564C148.88 40.028 149.229 40.7486 149.801 41.2608C150.374 41.773 151.123 42.0354 151.885 41.9908C152.261 42.0128 152.638 41.9595 152.993 41.8339C153.349 41.7082 153.677 41.5128 153.957 41.2588C154.238 41.0047 154.467 40.6971 154.63 40.3535C154.793 40.0099 154.888 39.637 154.908 39.2564V38.703ZM149.714 54.9797H164.186V51.3662H149.714V54.9797Z" fill="white"/>
<path d="M174.026 45.0996V28.2858H178.528V32.7782H184.686V28.2858H189.205V45.1159L174.026 45.0996ZM197.694 58.9674H192.871L194.141 52.1312H175.409V48.1922H194.318V28.123H198.964V35.3336H202.18V39.5656H198.964V52.1312L197.694 58.9674ZM184.686 41.063V36.766H178.528V41.0305L184.686 41.063Z" fill="white"/>
<path d="M231.026 54.7191V58.9836H203.322V54.7191H231.026ZM224.289 48.6153L217.182 34.3244L210.059 48.6805H204.479L214.127 28.302H220.237L229.884 48.6805L224.289 48.6153Z" fill="white"/>
<path d="M234.081 28.3021H245.545V32.3876H238.744V35.1384H244.998V38.9146H238.744V41.4863H246.092V45.5229H234.081V28.3021ZM255.627 47.4761V28.1394H260.016V51.529L258.794 59H253.97L255.225 51.529H235.576V47.4924L255.627 47.4761ZM249.581 39.1262H246.638V35.1221H249.581V28.1394H253.954V45.7182H249.5L249.581 39.1262Z" fill="white"/>
</g>
<path d="M20.848 321.348L21.796 320.208L22.744 321.348L23.272 320.964L22.504 319.716L23.812 319.176L23.608 318.564L22.24 318.888L22.12 317.448H21.472L21.352 318.9L19.984 318.564L19.78 319.176L21.076 319.716L20.32 320.964L20.848 321.348ZM26.5096 319.152H28.7656V324.216H26.5096V319.152ZM25.5856 324.996H29.6776V318.372H25.5856V324.996ZM33.4096 317.124V321.384H31.9576V317.364H31.0336V327.348H31.9576V322.188H33.4096V327.876H34.3456V317.124H33.4096ZM41.0646 318.192C42.7206 318.192 43.8006 318.708 43.8006 319.56C43.8006 320.4 42.7206 320.916 41.0646 320.916C39.4206 320.916 38.3286 320.4 38.3286 319.56C38.3286 318.708 39.4206 318.192 41.0646 318.192ZM41.0646 321.72C43.3446 321.72 44.8326 320.892 44.8326 319.56C44.8326 318.228 43.3446 317.4 41.0646 317.4C38.7846 317.4 37.2966 318.228 37.2966 319.56C37.2966 320.892 38.7846 321.72 41.0646 321.72ZM38.4246 324.504H37.4406V327.648H44.8806V326.832H38.4246V324.504ZM36.1926 322.584V323.388H40.6566V325.56H41.6526V323.388H45.9486V322.584H36.1926ZM51.5277 321.924H48.6117V318.732H51.5277V321.924ZM52.4997 317.952H47.6517V322.716H52.4997V317.952ZM52.7997 323.748H51.8277V324.084C51.8277 325.608 50.1477 326.748 48.2277 327.072L48.6237 327.84C50.2197 327.54 51.6717 326.736 52.3197 325.512C52.9557 326.736 54.3957 327.54 55.9917 327.84L56.3877 327.072C54.4677 326.748 52.7997 325.608 52.7997 324.084V323.748ZM55.5597 320.064V317.124H54.5757V324.276H55.5597V320.88H57.1437V320.064H55.5597ZM63.3543 327.156C64.8423 327.156 66.2343 326.064 66.2343 324.132C66.2343 322.2 65.0463 321.336 63.5823 321.336C63.0543 321.336 62.6703 321.468 62.2743 321.684L62.4903 319.14H65.8143V318.192H61.5303L61.2543 322.32L61.8423 322.68C62.3463 322.344 62.7183 322.164 63.3063 322.164C64.4103 322.164 65.1303 322.908 65.1303 324.168C65.1303 325.452 64.2903 326.244 63.2583 326.244C62.2383 326.244 61.6023 325.776 61.0983 325.272L60.5583 325.992C61.1463 326.58 61.9863 327.156 63.3543 327.156ZM70.1786 327.156C71.8466 327.156 72.9146 325.632 72.9146 322.572C72.9146 319.524 71.8466 318.036 70.1786 318.036C68.4986 318.036 67.4306 319.512 67.4306 322.572C67.4306 325.632 68.4986 327.156 70.1786 327.156ZM70.1786 326.28C69.1706 326.28 68.4986 325.164 68.4986 322.572C68.4986 320.004 69.1706 318.912 70.1786 318.912C71.1746 318.912 71.8466 320.004 71.8466 322.572C71.8466 325.164 71.1746 326.28 70.1786 326.28ZM76.7988 327.156C78.4668 327.156 79.5348 325.632 79.5348 322.572C79.5348 319.524 78.4668 318.036 76.7988 318.036C75.1188 318.036 74.0508 319.512 74.0508 322.572C74.0508 325.632 75.1188 327.156 76.7988 327.156ZM76.7988 326.28C75.7908 326.28 75.1188 325.164 75.1188 322.572C75.1188 320.004 75.7908 318.912 76.7988 318.912C77.7948 318.912 78.4668 320.004 78.4668 322.572C78.4668 325.164 77.7948 326.28 76.7988 326.28ZM86.3591 323.484V324.216H88.5431V325.32H89.5271V317.124H88.5431V323.484H86.3591ZM84.1631 318.288C85.1831 318.288 85.8791 318.744 85.8791 319.428C85.8791 320.124 85.1831 320.58 84.1631 320.58C83.1431 320.58 82.4471 320.124 82.4471 319.428C82.4471 318.744 83.1431 318.288 84.1631 318.288ZM84.1631 321.312C85.7351 321.312 86.8151 320.58 86.8151 319.428C86.8151 318.3 85.7351 317.556 84.1631 317.556C82.5911 317.556 81.5111 318.3 81.5111 319.428C81.5111 320.58 82.5911 321.312 84.1631 321.312ZM83.7791 324.936H84.7631V322.812C85.7351 322.752 86.7311 322.644 87.6791 322.5L87.5951 321.792C85.3151 322.08 82.6511 322.104 80.6591 322.104L80.7911 322.92C81.6791 322.92 82.7111 322.908 83.7791 322.86V324.936ZM83.1791 326.844V324.516H82.1951V327.648H89.8031V326.844H83.1791ZM95.3417 322.812C97.0097 322.56 98.5577 321.732 99.2417 320.568C99.9257 321.732 101.462 322.56 103.13 322.812L103.478 322.02C101.558 321.756 99.7337 320.568 99.7337 319.248H103.166V318.456H99.7337V317.124H98.7497V318.456H95.3177V319.248H98.7377C98.7377 320.58 96.9257 321.756 94.9817 322.02L95.3417 322.812ZM104.114 323.628H94.3817V324.432H98.7497V327.9H99.7337V324.432H104.114V323.628ZM105.949 318.276V319.092H109.897C109.669 321.636 108.193 323.7 105.445 325.08L105.985 325.848C109.465 324.108 110.869 321.336 110.869 318.276H105.949ZM115.381 321.492H113.653V317.124H112.669V327.888H113.653V322.308H115.381V321.492ZM137.822 321.156C138.11 320.004 138.11 319.116 138.11 318.324V317.556H130.766V318.36H137.138C137.138 319.116 137.138 319.932 136.85 321.06L137.822 321.156ZM137.09 326.952H131.858V325.524H137.09V326.952ZM137.09 324.768H131.858V323.448H130.874V327.744H138.074V323.448H137.09V324.768ZM134.594 321.744V319.836H133.61V321.744H129.626V322.548H139.346V321.744H134.594ZM142.609 324.372H141.577V321.672H142.609V324.372ZM142.609 320.892H141.577V318.276H140.821V325.176H143.365V318.276H142.609V320.892ZM145.789 324.372H144.733V321.672H145.789V324.372ZM145.789 320.892H144.733V318.276H143.989V325.176H146.533V318.276H145.789V320.892ZM149.125 317.124V321.48H148.177V317.352H147.313V327.348H148.177V322.284H149.125V327.888H150.001V317.124H149.125ZM152.256 318.288V319.08H156.3C156.096 321.636 154.656 323.7 151.764 325.08L152.292 325.884C155.868 324.132 157.296 321.396 157.296 318.288H152.256ZM159.468 317.124V327.888H160.452V317.124H159.468ZM163.595 322.812C165.263 322.56 166.811 321.732 167.495 320.568C168.179 321.732 169.715 322.56 171.383 322.812L171.731 322.02C169.811 321.756 167.987 320.568 167.987 319.248H171.419V318.456H167.987V317.124H167.003V318.456H163.571V319.248H166.991C166.991 320.58 165.179 321.756 163.235 322.02L163.595 322.812ZM172.367 323.628H162.635V324.432H167.003V327.9H167.987V324.432H172.367V323.628ZM174.202 318.276V319.092H178.15C177.922 321.636 176.446 323.7 173.698 325.08L174.238 325.848C177.718 324.108 179.122 321.336 179.122 318.276H174.202ZM183.634 321.492H181.906V317.124H180.922V327.888H181.906V322.308H183.634V321.492ZM187.697 327H192.521V326.088H190.757V318.192H189.917C189.437 318.48 188.873 318.684 188.093 318.828V319.524H189.653V326.088H187.697V327ZM194.929 327.156C195.361 327.156 195.721 326.82 195.721 326.328C195.721 325.824 195.361 325.476 194.929 325.476C194.497 325.476 194.137 325.824 194.137 326.328C194.137 326.82 194.497 327.156 194.929 327.156ZM199.697 327.156C201.185 327.156 202.577 326.064 202.577 324.132C202.577 322.2 201.389 321.336 199.925 321.336C199.397 321.336 199.013 321.468 198.617 321.684L198.833 319.14H202.157V318.192H197.873L197.597 322.32L198.185 322.68C198.689 322.344 199.061 322.164 199.649 322.164C200.753 322.164 201.473 322.908 201.473 324.168C201.473 325.452 200.633 326.244 199.601 326.244C198.581 326.244 197.945 325.776 197.441 325.272L196.901 325.992C197.489 326.58 198.329 327.156 199.697 327.156ZM208.701 329.364L209.385 329.04C208.341 327.336 207.849 325.308 207.849 323.268C207.849 321.228 208.341 319.212 209.385 317.496L208.701 317.184C207.597 318.972 206.937 320.916 206.937 323.268C206.937 325.632 207.597 327.564 208.701 329.364ZM215.335 318.348C216.979 318.348 218.095 318.96 218.095 319.908C218.095 320.868 216.979 321.48 215.335 321.48C213.703 321.48 212.587 320.868 212.587 319.908C212.587 318.96 213.703 318.348 215.335 318.348ZM215.335 322.272C217.579 322.272 219.103 321.36 219.103 319.908C219.103 318.468 217.579 317.556 215.335 317.556C213.103 317.556 211.579 318.468 211.579 319.908C211.579 321.36 213.103 322.272 215.335 322.272ZM220.231 323.292H210.487V324.108H214.843V327.9H215.827V324.108H220.231V323.292ZM226.362 327.12C224.658 327.12 223.662 326.7 223.662 325.944C223.662 325.188 224.658 324.768 226.362 324.768C228.042 324.768 229.038 325.188 229.038 325.944C229.038 326.7 228.042 327.12 226.362 327.12ZM226.362 324C224.058 324 222.666 324.696 222.666 325.944C222.666 327.192 224.058 327.888 226.362 327.888C228.642 327.888 230.034 327.192 230.034 325.944C230.034 324.696 228.642 324 226.362 324ZM226.854 322.44V321.192H230.094V320.4H223.698V318.408H230.022V317.616H222.714V321.192H225.87V322.44H221.49V323.232H231.234V322.44H226.854ZM231.989 329.148H232.793L236.381 317.472H235.589L231.989 329.148ZM239.053 320.652C239.053 319.416 240.313 318.612 242.029 318.612C243.745 318.612 244.993 319.416 244.993 320.652C244.993 321.888 243.745 322.692 242.029 322.692C240.313 322.692 239.053 321.888 239.053 320.652ZM242.521 325.692V323.448C244.525 323.304 245.929 322.236 245.929 320.652C245.929 318.936 244.297 317.832 242.029 317.832C239.749 317.832 238.105 318.936 238.105 320.652C238.105 322.236 239.521 323.304 241.525 323.448V325.692H237.145V326.508H246.925V325.692H242.521ZM248.16 325.644V326.46H257.916V325.644H248.16ZM249.312 318.072V323.172H256.728V318.072H249.312ZM255.768 318.852V322.392H250.26V318.852H255.768ZM264.966 319.188H266.886V318.384H261.978V319.188H264.018V320.16C264.018 322.14 263.178 324.096 261.678 324.996L262.278 325.728C263.346 325.056 264.126 323.796 264.498 322.32C264.87 323.688 265.614 324.84 266.658 325.464L267.258 324.744C265.77 323.904 264.966 322.032 264.966 320.16V319.188ZM267.846 320.988H266.07V321.792H267.846V327.324H268.782V317.364H267.846V320.988ZM270.006 317.112V327.876H270.954V317.112H270.006ZM274.386 320.34C274.386 319.344 275.202 318.66 276.294 318.66C277.422 318.66 278.226 319.344 278.226 320.34C278.226 321.348 277.422 322.044 276.294 322.044C275.202 322.044 274.386 321.348 274.386 320.34ZM276.786 322.848C278.214 322.68 279.186 321.696 279.186 320.34C279.186 318.84 277.986 317.82 276.294 317.82C274.638 317.82 273.426 318.84 273.426 320.34C273.426 321.696 274.41 322.668 275.802 322.848V324.708C274.746 324.744 273.75 324.744 272.886 324.744L273.006 325.572C274.95 325.572 277.554 325.548 279.978 325.104L279.894 324.372C278.898 324.528 277.83 324.612 276.786 324.672V322.848ZM280.602 317.112V327.912H281.586V317.112H280.602ZM284.369 329.364C285.485 327.564 286.145 325.632 286.145 323.268C286.145 320.916 285.485 318.972 284.369 317.184L283.697 317.496C284.729 319.212 285.233 321.228 285.233 323.268C285.233 325.308 284.729 327.336 283.697 329.04L284.369 329.364Z" fill="black"/>
<rect x="286" y="71" width="46" height="23" rx="5" fill="#FFE7E7"/>
<path d="M299.552 85.656V86.688H309.488V85.656H299.552ZM303.86 82.98V86.124H305.108V82.98H303.86ZM300.368 78.012V79.032H308.6V78.012H300.368ZM300.404 82.404V83.4H308.576V82.404H300.404ZM301.976 78.84V82.548H303.236V78.84H301.976ZM305.744 78.84V82.548H306.992V78.84H305.744ZM313.135 78.228V79.02C313.135 80.52 312.175 81.936 310.459 82.524L311.083 83.52C313.051 82.848 314.167 81.072 314.167 79.02V78.228H313.135ZM313.375 78.228V79.02C313.375 80.916 314.443 82.548 316.387 83.172L316.987 82.188C315.307 81.648 314.395 80.376 314.395 79.02V78.228H313.375ZM310.807 77.808V78.816H316.699V77.808H310.807ZM317.851 77.028V83.592H319.111V77.028H317.851ZM318.763 79.692V80.736H320.659V79.692H318.763ZM315.583 83.844C313.327 83.844 311.923 84.612 311.923 85.908C311.923 87.216 313.327 87.984 315.583 87.984C317.827 87.984 319.231 87.216 319.231 85.908C319.231 84.612 317.827 83.844 315.583 83.844ZM315.583 84.84C317.107 84.84 317.983 85.212 317.983 85.908C317.983 86.616 317.107 87 315.583 87C314.059 87 313.171 86.616 313.171 85.908C313.171 85.212 314.059 84.84 315.583 84.84Z" fill="#FF5454"/>
<rect x="286" y="46" width="46" height="23" rx="5" fill="#E8EDFF"/>
<path d="M299.9 53.036V60.32H304.148V53.036H302.984V55.616H301.088V53.036H299.9ZM301.088 56.612H302.984V59.3H301.088V56.612ZM307.712 52.028V62.996H308.912V52.028H307.712ZM306.128 56.3V57.32H308.108V56.3H306.128ZM305.288 52.232V62.468H306.476V52.232H305.288ZM310.987 56.18V57.188H311.863C314.155 57.188 315.487 57.128 316.975 56.804L316.831 55.82C315.379 56.108 314.107 56.18 311.863 56.18H310.987ZM310.987 52.628V56.756H312.235V53.624H315.859V52.628H310.987ZM317.851 52.028V57.512H319.111V52.028H317.851ZM318.763 54.224V55.256H320.659V54.224H318.763ZM312.031 58.028V59.024H317.875V59.936H312.043V62.396H313.291V60.872H319.111V58.028H312.031ZM312.043 61.856V62.864H319.471V61.856H312.043Z" fill="#4176FF"/>
<defs>
<clipPath id="clip0_923_452">
<rect width="257" height="18" fill="white" transform="translate(43 586)"/>
</clipPath>
<clipPath id="clip1_923_452">
<rect width="176" height="32" fill="white" transform="translate(84 27)"/>
</clipPath>
</defs>
</svg>
