<svg width="344" height="410" viewBox="0 0 344 410" fill="none" xmlns="http://www.w3.org/2000/svg">
<rect y="118" width="344" height="119" rx="12" fill="white"/>
<rect x="89" y="92" width="165" height="43" rx="21.5" fill="#FFEEB2"/>
<path d="M133.905 115.835V118.761H125.564V125.012H122.329V118.82H114V115.894L133.905 115.835ZM124.444 106.073H114.855V102.901H133.05V105.593L126.916 108.52L132.889 110.861V114.255L123.3 110.217L114.855 114.255V110.744L124.444 106.073Z" fill="#65B683"/>
<path d="M155.532 114.126V117.088H147.549V120.213H144.476V117.088H140.49V121.77H154.446V125.012H137.198V117.134H135.615V114.173L155.532 114.126ZM153.996 102.89V112.043H137.198V102.89H153.996ZM140.236 108.918H150.911V106.015H140.236V108.918Z" fill="#65B683"/>
<path d="M165.525 104.212H169.985V107.15H157.831V104.224H162.279V102H165.525V104.212ZM164.728 108.578C165.323 108.566 165.914 108.672 166.468 108.891C167.022 109.11 167.528 109.438 167.958 109.855C168.387 110.273 168.731 110.772 168.969 111.324C169.208 111.876 169.337 112.47 169.349 113.073V120.33C169.325 121.548 168.825 122.706 167.958 123.551C167.092 124.396 165.93 124.858 164.728 124.836H163.018C161.816 124.858 160.654 124.396 159.788 123.551C158.922 122.706 158.421 121.548 158.397 120.33V113.073C158.409 112.47 158.538 111.876 158.777 111.324C159.016 110.772 159.359 110.273 159.789 109.855C160.218 109.438 160.724 109.11 161.278 108.891C161.832 108.672 162.423 108.566 163.018 108.578H164.728ZM163.989 121.699C164.265 121.72 164.542 121.683 164.802 121.59C165.063 121.497 165.302 121.35 165.504 121.159C165.706 120.967 165.867 120.736 165.976 120.478C166.085 120.22 166.14 119.943 166.138 119.663V113.81C166.14 113.529 166.085 113.25 165.976 112.992C165.867 112.733 165.707 112.5 165.505 112.307C165.304 112.113 165.065 111.964 164.804 111.868C164.543 111.773 164.266 111.732 163.989 111.75H163.758C163.481 111.732 163.203 111.773 162.942 111.868C162.681 111.964 162.442 112.113 162.241 112.307C162.039 112.5 161.879 112.733 161.77 112.992C161.662 113.25 161.607 113.529 161.609 113.81V119.663C161.606 119.943 161.661 120.22 161.77 120.478C161.879 120.736 162.04 120.967 162.242 121.159C162.444 121.35 162.683 121.497 162.944 121.59C163.205 121.683 163.482 121.72 163.758 121.699H163.989ZM175.726 111.668H178.037V114.864H175.726V125.012H172.457V102.772H175.715L175.726 111.668Z" fill="#65B683"/>
<path d="M187.306 106.277H179V103.129H190.946V106.266L188.277 125.052H184.707L187.306 106.277ZM198.085 125.239H194.504V103H198.074L198.085 125.239Z" fill="#65B683"/>
<path d="M72.1724 162.536V165.452C72.1724 168.53 70.2104 171.644 67.7983 172.796L68.7163 174.02C71.3804 172.67 73.3964 169.196 73.3964 165.452V162.536H72.1724ZM72.4244 162.536V165.452C72.4244 169.07 74.4584 172.418 77.1044 173.714L78.0044 172.526C75.5924 171.41 73.6484 168.422 73.6484 165.452V162.536H72.4244ZM79.6964 161.114V177.422H81.1904V161.114H79.6964ZM88.4429 163.904V164.606C88.4429 166.802 86.8229 168.782 84.4289 169.556L85.1489 170.726C87.8669 169.808 89.6669 167.432 89.6669 164.606V163.904H88.4429ZM88.7129 163.904V164.606C88.7129 167.27 90.5849 169.466 93.3209 170.312L94.0049 169.142C91.6109 168.44 89.9369 166.622 89.9369 164.606V163.904H88.7129ZM84.8429 163.094V164.3H93.5189V163.094H84.8429ZM88.4429 161.06V163.526H89.9369V161.06H88.4429ZM93.0329 165.758V167H96.7049V165.758H93.0329ZM96.2729 161.132V170.978H97.7669V161.132H96.2729ZM92.4209 171.41C89.0369 171.41 86.9849 172.508 86.9849 174.398C86.9849 176.27 89.0369 177.368 92.4209 177.368C95.7869 177.368 97.8389 176.27 97.8389 174.398C97.8389 172.508 95.7869 171.41 92.4209 171.41ZM92.4209 172.58C94.8689 172.58 96.3629 173.246 96.3629 174.398C96.3629 175.532 94.8689 176.198 92.4209 176.198C89.9549 176.198 88.4789 175.532 88.4789 174.398C88.4789 173.246 89.9549 172.58 92.4209 172.58ZM107.486 167.45V168.692H110.564V167.45H107.486ZM113.282 161.132V177.404H114.722V161.132H113.282ZM110.06 161.474V176.594H111.482V161.474H110.06ZM104.552 162.482C102.446 162.482 101.096 164.66 101.096 168.152C101.096 171.644 102.446 173.822 104.552 173.822C106.658 173.822 108.026 171.644 108.026 168.152C108.026 164.66 106.658 162.482 104.552 162.482ZM104.552 163.868C105.848 163.868 106.658 165.524 106.658 168.152C106.658 170.78 105.848 172.436 104.552 172.436C103.274 172.436 102.464 170.78 102.464 168.152C102.464 165.524 103.274 163.868 104.552 163.868ZM125.52 166.64V167.864H130.056V166.64H125.52ZM121.596 162.536V165.434C121.596 168.458 119.76 171.59 117.366 172.778L118.32 173.966C120.894 172.58 122.82 169.088 122.82 165.434V162.536H121.596ZM121.884 162.536V165.434C121.884 168.998 123.774 172.346 126.402 173.678L127.284 172.472C124.926 171.356 123.09 168.404 123.09 165.434V162.536H121.884ZM129.318 161.114V177.422H130.794V161.114H129.318ZM145.222 161.492C141.694 161.492 139.498 162.644 139.498 164.57C139.498 166.496 141.694 167.63 145.222 167.63C148.732 167.63 150.946 166.496 150.946 164.57C150.946 162.644 148.732 161.492 145.222 161.492ZM145.222 162.68C147.796 162.68 149.416 163.364 149.416 164.57C149.416 165.758 147.796 166.46 145.222 166.46C142.63 166.46 141.028 165.758 141.028 164.57C141.028 163.364 142.63 162.68 145.222 162.68ZM139.66 171.824V177.188H150.766V171.824H139.66ZM149.308 173.03V175.982H141.136V173.03H149.308ZM137.86 169.034V170.24H152.566V169.034H137.86ZM158.613 161.906V163.49C158.613 165.92 156.975 168.17 154.509 169.07L155.265 170.258C158.019 169.214 159.855 166.568 159.855 163.49V161.906H158.613ZM158.883 161.906V163.49C158.883 166.478 160.719 168.962 163.437 169.952L164.193 168.782C161.781 167.936 160.107 165.83 160.107 163.49V161.906H158.883ZM156.849 171.752V172.976H166.209V177.404H167.721V171.752H156.849ZM166.209 161.132V170.924H167.721V161.132H166.209ZM178.231 161.402C174.631 161.402 172.507 162.41 172.507 164.228C172.507 166.046 174.631 167.054 178.231 167.054C181.813 167.054 183.955 166.046 183.955 164.228C183.955 162.41 181.813 161.402 178.231 161.402ZM178.231 162.536C180.877 162.536 182.407 163.148 182.407 164.228C182.407 165.308 180.877 165.92 178.231 165.92C175.567 165.92 174.037 165.308 174.037 164.228C174.037 163.148 175.567 162.536 178.231 162.536ZM170.869 168.134V169.34H185.575V168.134H170.869ZM172.651 170.726V171.878H182.227V173.318H172.687V176.378H174.163V174.398H183.703V170.726H172.651ZM172.687 176.054V177.224H184.189V176.054H172.687ZM197.879 162.734V163.418C197.879 165.56 195.089 167.432 192.227 167.846L192.803 169.034C196.079 168.476 199.175 166.334 199.175 163.418V162.734H197.879ZM198.257 162.734V163.418C198.257 166.334 201.335 168.476 204.629 169.034L205.187 167.846C202.343 167.432 199.535 165.56 199.535 163.418V162.734H198.257ZM197.933 171.194V177.404H199.409V171.194H197.933ZM191.363 170.402V171.626H206.069V170.402H191.363ZM192.731 162.14V163.346H204.647V162.14H192.731ZM207.85 169.448V170.672H222.592V169.448H207.85ZM214.582 170.204V173.948H216.076V170.204H214.582ZM209.74 161.888V167.612H220.684V161.888H209.74ZM219.208 163.094V166.406H211.198V163.094H219.208ZM209.722 175.82V177.044H220.954V175.82H209.722ZM209.722 172.382V176.252H211.198V172.382H209.722ZM235.388 161.132V177.404H236.882V161.132H235.388ZM236.522 167.81V169.07H239.546V167.81H236.522ZM224.282 163.724V164.948H233.876V163.724H224.282ZM229.142 166.298C226.856 166.298 225.182 167.846 225.182 170.042C225.182 172.238 226.856 173.786 229.142 173.786C231.446 173.786 233.102 172.238 233.102 170.042C233.102 167.846 231.446 166.298 229.142 166.298ZM229.142 167.54C230.618 167.54 231.68 168.566 231.68 170.042C231.68 171.5 230.618 172.544 229.142 172.544C227.666 172.544 226.604 171.5 226.604 170.042C226.604 168.566 227.666 167.54 229.142 167.54ZM228.368 161.33V164.282H229.862V161.33H228.368ZM252.703 161.132V169.556H254.197V161.132H252.703ZM243.685 170.384V171.554H252.739V173.174H243.721V176.522H245.179V174.29H254.215V170.384H243.685ZM243.721 176.036V177.224H254.755V176.036H243.721ZM245.107 161.6V162.842C245.107 165.2 243.433 167.36 240.985 168.224L241.723 169.412C244.477 168.404 246.349 165.848 246.349 162.842V161.6H245.107ZM245.377 161.6V162.842C245.377 165.758 247.249 168.152 249.985 169.088L250.723 167.918C248.311 167.126 246.601 165.092 246.601 162.842V161.6H245.377ZM270.659 161.474V176.594H272.045V161.474H270.659ZM271.469 167.756V168.98H274.475V167.756H271.469ZM261.821 171.932V173.174H262.469C263.153 173.174 264.197 173.174 265.547 172.85L265.421 171.608C264.161 171.914 263.099 171.932 262.469 171.932H261.821ZM261.821 163.166V172.634H263.207V164.39H265.295V163.166H261.821ZM265.997 171.932V173.174H266.681C267.617 173.174 268.733 173.156 270.065 172.796L269.921 171.554C268.679 171.896 267.545 171.932 266.681 171.932H265.997ZM265.997 163.166V172.58H267.365V164.39H269.579V163.166H265.997ZM273.953 161.132V177.404H275.375V161.132H273.953ZM31.2739 191.492C27.7459 191.492 25.5499 192.644 25.5499 194.57C25.5499 196.496 27.7459 197.63 31.2739 197.63C34.7839 197.63 36.9979 196.496 36.9979 194.57C36.9979 192.644 34.7839 191.492 31.2739 191.492ZM31.2739 192.68C33.8479 192.68 35.4679 193.364 35.4679 194.57C35.4679 195.758 33.8479 196.46 31.2739 196.46C28.6819 196.46 27.0799 195.758 27.0799 194.57C27.0799 193.364 28.6819 192.68 31.2739 192.68ZM25.7119 201.824V207.188H36.8179V201.824H25.7119ZM35.3599 203.03V205.982H27.1879V203.03H35.3599ZM23.9119 199.034V200.24H38.6179V199.034H23.9119ZM44.6645 191.906V193.49C44.6645 195.92 43.0265 198.17 40.5605 199.07L41.3165 200.258C44.0705 199.214 45.9065 196.568 45.9065 193.49V191.906H44.6645ZM44.9345 191.906V193.49C44.9345 196.478 46.7705 198.962 49.4885 199.952L50.2445 198.782C47.8325 197.936 46.1585 195.83 46.1585 193.49V191.906H44.9345ZM42.9005 201.752V202.976H52.2605V207.404H53.7725V201.752H42.9005ZM52.2605 191.132V200.924H53.7725V191.132H52.2605ZM65.6151 195.2V196.442H69.2331V195.2H65.6151ZM68.8191 191.132V200.654H70.3131V191.132H68.8191ZM59.7651 201.446V207.188H70.3131V201.446H59.7651ZM68.8551 202.634V205.982H61.2231V202.634H68.8551ZM61.0791 192.68V193.994C61.0791 196.298 59.4051 198.458 56.9751 199.322L57.7491 200.51C60.4671 199.502 62.3031 196.964 62.3031 193.994V192.68H61.0791ZM61.3671 192.68V193.976C61.3671 196.712 63.1131 199.178 65.7591 200.132L66.5151 198.944C64.1571 198.116 62.5731 196.082 62.5731 193.976V192.68H61.3671ZM57.4431 192.176V193.382H66.1371V192.176H57.4431ZM80.0317 197.45V198.692H83.1097V197.45H80.0317ZM85.8277 191.132V207.404H87.2677V191.132H85.8277ZM82.6057 191.474V206.594H84.0277V191.474H82.6057ZM77.0977 192.482C74.9917 192.482 73.6417 194.66 73.6417 198.152C73.6417 201.644 74.9917 203.822 77.0977 203.822C79.2037 203.822 80.5717 201.644 80.5717 198.152C80.5717 194.66 79.2037 192.482 77.0977 192.482ZM77.0977 193.868C78.3937 193.868 79.2037 195.524 79.2037 198.152C79.2037 200.78 78.3937 202.436 77.0977 202.436C75.8197 202.436 75.0097 200.78 75.0097 198.152C75.0097 195.524 75.8197 193.868 77.0977 193.868ZM95.4137 197.378C96.0437 197.378 96.4757 196.964 96.4757 196.28C96.4757 195.614 95.9717 195.254 95.4137 195.254C95.0897 195.254 94.8917 195.38 94.6397 195.614L95.4857 196.64L95.2337 195.308C95.2337 194.156 95.7377 193.454 96.7637 192.788L96.2957 191.996C94.8917 192.806 94.1537 193.958 94.1537 195.56C94.1537 196.73 94.6037 197.378 95.4137 197.378ZM98.9417 197.378C99.5717 197.378 100.004 196.964 100.004 196.28C100.004 195.614 99.4997 195.254 98.9417 195.254C98.6357 195.254 98.4197 195.38 98.1677 195.614L98.9957 196.64L98.7797 195.308C98.7797 194.156 99.2837 193.454 100.292 192.788L99.8237 191.996C98.4377 192.806 97.6817 193.958 97.6817 195.56C97.6817 196.73 98.1497 197.378 98.9417 197.378ZM113.389 191.114V207.422H114.901V191.114H113.389ZM114.541 197.54V198.8H117.565V197.54H114.541ZM103.075 202.112V203.372H104.353C107.413 203.372 109.555 203.282 112.057 202.814L111.895 201.554C109.465 202.004 107.359 202.112 104.353 202.112H103.075ZM103.075 192.698V202.67H104.551V193.922H110.635V192.698H103.075ZM123.522 200.888V203.57H125.034V200.888H123.522ZM130.65 191.132V207.404H132.144V191.132H130.65ZM119.184 204.308C122.19 204.308 126.114 204.272 129.732 203.66L129.624 202.562C126.114 203.012 122.064 203.048 118.986 203.066L119.184 204.308ZM119.328 193.112V194.318H129.21V193.112H119.328ZM124.26 195.254C121.938 195.254 120.354 196.442 120.354 198.26C120.354 200.096 121.938 201.266 124.26 201.266C126.6 201.266 128.184 200.096 128.184 198.26C128.184 196.442 126.6 195.254 124.26 195.254ZM124.26 196.406C125.736 196.406 126.762 197.144 126.762 198.26C126.762 199.376 125.736 200.114 124.26 200.114C122.802 200.114 121.776 199.376 121.776 198.26C121.776 197.144 122.802 196.406 124.26 196.406ZM123.522 191.132V193.778H125.016V191.132H123.522ZM139.018 196.64V199.718H140.494V196.64H139.018ZM144.994 196.64V199.718H146.47V196.64H144.994ZM135.382 199.178V200.384H150.088V199.178H135.382ZM142.726 201.608C139.234 201.608 137.146 202.634 137.146 204.488C137.146 206.342 139.234 207.386 142.726 207.386C146.218 207.386 148.306 206.342 148.306 204.488C148.306 202.634 146.218 201.608 142.726 201.608ZM142.726 202.76C145.282 202.76 146.794 203.39 146.794 204.488C146.794 205.604 145.282 206.216 142.726 206.216C140.188 206.216 138.658 205.604 138.658 204.488C138.658 203.39 140.188 202.76 142.726 202.76ZM142.744 191.42C139.198 191.42 137.02 192.554 137.02 194.462C137.02 196.352 139.198 197.468 142.744 197.468C146.272 197.468 148.468 196.352 148.468 194.462C148.468 192.554 146.272 191.42 142.744 191.42ZM142.744 192.59C145.336 192.59 146.938 193.274 146.938 194.462C146.938 195.632 145.336 196.316 142.744 196.316C140.152 196.316 138.55 195.632 138.55 194.462C138.55 193.274 140.152 192.59 142.744 192.59ZM163.749 191.132V207.404H165.243V191.132H163.749ZM158.979 192.878V193.13C158.979 197.45 156.801 200.906 152.103 203.174L152.895 204.38C158.331 201.716 160.455 197.594 160.455 192.878H158.979ZM152.841 192.878V194.102H159.627V192.878H152.841ZM169.219 197.342C170.623 196.514 171.361 195.362 171.361 193.76C171.361 192.608 170.893 191.96 170.101 191.96C169.471 191.96 169.039 192.374 169.039 193.058C169.039 193.706 169.543 194.066 170.101 194.066C170.407 194.066 170.623 193.958 170.875 193.724L170.029 192.698L170.281 194.012C170.281 195.2 169.777 195.884 168.751 196.568L169.219 197.342ZM172.765 197.342C174.151 196.514 174.907 195.362 174.907 193.76C174.907 192.608 174.439 191.96 173.647 191.96C173.035 191.96 172.585 192.374 172.585 193.058C172.585 193.706 173.089 194.066 173.647 194.066C173.953 194.066 174.187 193.958 174.421 193.724L173.575 192.698L173.809 194.012C173.809 195.2 173.305 195.884 172.297 196.568L172.765 197.342ZM176.863 198.692V199.826H191.623V198.692H176.863ZM178.609 201.14V202.202H188.311V203.588H178.663V206.522H180.139V204.614H189.769V201.14H178.609ZM178.663 206.126V207.206H190.291V206.126H178.663ZM178.735 191.6V192.662H188.257V193.976H178.771V196.748H180.247V194.984H189.715V191.6H178.735ZM178.771 196.388V197.468H190.021V196.388H178.771ZM204.863 191.744V193.256H209.507V191.744H204.863ZM197.303 198.71V200.24H212.117V198.71H197.303ZM204.071 195.596V199.376H205.943V195.596H204.071ZM208.733 191.744V192.608C208.733 193.67 208.733 195.128 208.247 197.27L210.065 197.486C210.569 195.326 210.569 193.688 210.569 192.608V191.744H208.733ZM198.905 201.77V203.3H208.373V207.422H210.263V201.77H198.905ZM198.527 191.744V193.256H202.667V191.744H198.527ZM201.731 191.744V192.374C201.731 193.328 201.731 194.858 200.939 197.252L202.757 197.504C203.567 195.164 203.567 193.382 203.567 192.374V191.744H201.731ZM221.433 199.502V204.38H222.909V199.502H221.433ZM227.445 199.502V204.38H228.939V199.502H227.445ZM217.833 204.092V205.334H232.575V204.092H217.833ZM225.177 192.158C221.721 192.158 219.255 193.796 219.255 196.352C219.255 198.89 221.721 200.528 225.177 200.528C228.615 200.528 231.081 198.89 231.081 196.352C231.081 193.796 228.615 192.158 225.177 192.158ZM225.177 193.346C227.787 193.346 229.641 194.534 229.641 196.352C229.641 198.152 227.787 199.34 225.177 199.34C222.567 199.34 220.695 198.152 220.695 196.352C220.695 194.534 222.567 193.346 225.177 193.346ZM238.387 193.904V194.606C238.387 196.802 236.767 198.782 234.373 199.556L235.093 200.726C237.811 199.808 239.611 197.432 239.611 194.606V193.904H238.387ZM238.657 193.904V194.606C238.657 197.27 240.529 199.466 243.265 200.312L243.949 199.142C241.555 198.44 239.881 196.622 239.881 194.606V193.904H238.657ZM234.787 193.094V194.3H243.463V193.094H234.787ZM238.387 191.06V193.526H239.881V191.06H238.387ZM242.977 195.758V197H246.649V195.758H242.977ZM246.217 191.132V200.978H247.711V191.132H246.217ZM242.365 201.41C238.981 201.41 236.929 202.508 236.929 204.398C236.929 206.27 238.981 207.368 242.365 207.368C245.731 207.368 247.783 206.27 247.783 204.398C247.783 202.508 245.731 201.41 242.365 201.41ZM242.365 202.58C244.813 202.58 246.307 203.246 246.307 204.398C246.307 205.532 244.813 206.198 242.365 206.198C239.899 206.198 238.423 205.532 238.423 204.398C238.423 203.246 239.899 202.58 242.365 202.58ZM250.806 193.904V195.128H258.87V193.904H250.806ZM254.838 196.208C252.822 196.208 251.346 197.738 251.346 199.934C251.346 202.112 252.822 203.642 254.838 203.642C256.872 203.642 258.348 202.112 258.348 199.934C258.348 197.738 256.872 196.208 254.838 196.208ZM254.838 197.486C256.098 197.486 257.016 198.494 257.016 199.934C257.016 201.374 256.098 202.382 254.838 202.382C253.596 202.382 252.696 201.374 252.696 199.934C252.696 198.494 253.596 197.486 254.838 197.486ZM263.172 191.132V207.404H264.612V191.132H263.172ZM260.58 197.972V199.214H263.658V197.972H260.58ZM259.698 191.492V206.612H261.102V191.492H259.698ZM254.118 191.6V194.66H255.594V191.6H254.118ZM273.863 192.734V193.418C273.863 195.56 271.073 197.432 268.211 197.846L268.787 199.034C272.063 198.476 275.159 196.334 275.159 193.418V192.734H273.863ZM274.241 192.734V193.418C274.241 196.334 277.319 198.476 280.613 199.034L281.171 197.846C278.327 197.432 275.519 195.56 275.519 193.418V192.734H274.241ZM273.917 201.194V207.404H275.393V201.194H273.917ZM267.347 200.402V201.626H282.053V200.402H267.347ZM268.715 192.14V193.346H280.631V192.14H268.715ZM290.259 196.946V198.188H293.373V196.946H290.259ZM287.217 192.662V195.758C287.217 198.548 285.885 201.464 283.653 202.778L284.589 203.912C286.965 202.454 288.387 199.16 288.387 195.758V192.662H287.217ZM287.505 192.662V195.704C287.505 198.872 288.819 202.112 291.159 203.552L292.023 202.382C289.881 201.086 288.657 198.314 288.657 195.704V192.662H287.505ZM296.235 191.132V207.404H297.675V191.132H296.235ZM292.941 191.474V206.594H294.345V191.474H292.941ZM303.956 199.502V204.38H305.432V199.502H303.956ZM309.968 199.502V204.38H311.462V199.502H309.968ZM300.356 204.092V205.334H315.098V204.092H300.356ZM307.7 192.158C304.244 192.158 301.778 193.796 301.778 196.352C301.778 198.89 304.244 200.528 307.7 200.528C311.138 200.528 313.604 198.89 313.604 196.352C313.604 193.796 311.138 192.158 307.7 192.158ZM307.7 193.346C310.31 193.346 312.164 194.534 312.164 196.352C312.164 198.152 310.31 199.34 307.7 199.34C305.09 199.34 303.218 198.152 303.218 196.352C303.218 194.534 305.09 193.346 307.7 193.346ZM318.444 206.252C319.11 206.252 319.65 205.73 319.65 204.992C319.65 204.236 319.11 203.732 318.444 203.732C317.796 203.732 317.274 204.236 317.274 204.992C317.274 205.73 317.796 206.252 318.444 206.252Z" fill="black"/>
<rect y="291" width="344" height="119" rx="12" fill="white"/>
<rect x="89" y="265" width="165" height="43" rx="21.5" fill="#FFEEB2"/>
<path d="M45.3956 335.662V346.336H51.6056V335.662H50.2196V339.64H46.8176V335.662H45.3956ZM46.8176 340.846H50.2196V345.112H46.8176V340.846ZM57.2036 334.132V350.404H58.6436V334.132H57.2036ZM54.5936 340.576V341.8H57.7256V340.576H54.5936ZM53.6036 334.474V349.594H55.0256V334.474H53.6036ZM62.0442 340.504V341.728H63.3042C66.6342 341.728 68.6142 341.62 70.9182 341.152L70.7382 339.946C68.5062 340.396 66.5802 340.504 63.3042 340.504H62.0442ZM62.0442 335.068V341.224H63.5202V336.274H69.2262V335.068H62.0442ZM72.4482 334.132V342.322H73.9422V334.132H72.4482ZM73.5282 337.552V338.794H76.3542V337.552H73.5282ZM63.6102 343.15V344.338H72.4842V346.012H63.6462V349.684H65.1222V347.164H73.9422V343.15H63.6102ZM63.6462 348.982V350.188H74.5362V348.982H63.6462ZM88.8268 334.114V350.404H90.3388V334.114H88.8268ZM89.9248 340.72V341.962H92.9308V340.72H89.9248ZM84.6688 335.878V336.112C84.6688 340.414 82.4188 343.888 77.9188 346.174L78.7468 347.326C84.0028 344.68 86.1268 340.504 86.1268 335.878H84.6688ZM78.6748 335.878V337.102H85.4428V335.878H78.6748ZM101.767 344.338C98.4554 344.338 96.4214 345.454 96.4214 347.362C96.4214 349.27 98.4554 350.386 101.767 350.386C105.079 350.386 107.113 349.27 107.113 347.362C107.113 345.454 105.079 344.338 101.767 344.338ZM101.767 345.544C104.179 345.544 105.655 346.21 105.655 347.362C105.655 348.532 104.179 349.198 101.767 349.198C99.3554 349.198 97.8794 348.532 97.8794 347.362C97.8794 346.21 99.3554 345.544 101.767 345.544ZM105.457 334.132V343.906H106.951V334.132H105.457ZM106.537 338.218V339.478H109.363V338.218H106.537ZM94.9994 335.158V342.664H102.523V335.158H101.065V337.588H96.4754V335.158H94.9994ZM96.4754 338.776H101.065V341.458H96.4754V338.776ZM116.112 335.302C113.574 335.302 111.738 336.868 111.738 339.136C111.738 341.422 113.574 342.988 116.112 342.988C118.65 342.988 120.468 341.422 120.468 339.136C120.468 336.868 118.65 335.302 116.112 335.302ZM116.112 336.598C117.786 336.598 119.01 337.624 119.01 339.136C119.01 340.648 117.786 341.692 116.112 341.692C114.42 341.692 113.196 340.648 113.196 339.136C113.196 337.624 114.42 336.598 116.112 336.598ZM122.592 334.114V350.422H124.086V334.114H122.592ZM111.126 346.858C114.024 346.858 118.002 346.84 121.656 346.138L121.53 345.04C117.984 345.598 113.88 345.616 110.91 345.616L111.126 346.858ZM137.092 349.252C140.404 349.252 142.708 346.588 142.708 342.358C142.708 338.146 140.404 335.572 137.092 335.572C133.762 335.572 131.458 338.128 131.458 342.358C131.458 346.588 133.762 349.252 137.092 349.252ZM137.092 347.866C134.716 347.866 133.168 345.742 133.168 342.358C133.168 339.064 134.716 337.03 137.092 337.03C139.45 337.03 141.016 339.064 141.016 342.358C141.016 345.742 139.45 347.866 137.092 347.866ZM141.124 352.33C141.916 352.33 142.6 352.186 143.014 352.024L142.69 350.728C142.33 350.854 141.898 350.926 141.304 350.926C139.738 350.926 138.442 350.224 137.92 348.838L136.192 348.964C136.894 350.89 138.604 352.33 141.124 352.33ZM145.519 349H147.193V343.42H149.641C152.323 343.42 154.249 342.16 154.249 339.514C154.249 336.778 152.323 335.806 149.641 335.806H145.519V349ZM147.193 342.07V337.174H149.407C151.459 337.174 152.593 337.786 152.593 339.514C152.593 341.224 151.459 342.07 149.407 342.07H147.193ZM152.773 349H154.645L150.613 342.106L149.317 342.97L152.773 349ZM157.737 335.716V336.94H168.069V335.716H157.737ZM155.973 346.966V348.19H170.679V346.966H155.973ZM167.457 335.716V337.264C167.457 339.19 167.457 341.476 166.755 344.626L168.249 344.806C168.915 341.476 168.915 339.244 168.915 337.264V335.716H167.457ZM167.781 339.622L157.287 340.036L157.521 341.332L167.781 340.756V339.622ZM161.697 342.754V347.416H163.191V342.754H161.697ZM174.35 341.926V343.15H185.528V341.926H174.35ZM172.496 346.966V348.208H187.238V346.966H172.496ZM174.35 335.626V342.466H175.844V336.868H185.366V335.626H174.35ZM189 347.164V348.406H203.742V347.164H189ZM195.588 343.672V347.686H197.082V343.672H195.588ZM190.782 335.338V336.544H200.448V339.064H190.836V343.528H192.312V340.27H201.924V335.338H190.782ZM190.836 342.898V344.122H202.302V342.898H190.836ZM220.6 334.15V346.084H222.094V334.15H220.6ZM221.626 339.064V340.306H224.506V339.064H221.626ZM211.96 348.82V350.044H222.832V348.82H211.96ZM211.96 344.932V349.108H213.454V344.932H211.96ZM210.142 335.302V343.366H217.666V335.302H216.208V338.02H211.618V335.302H210.142ZM211.618 339.19H216.208V342.16H211.618V339.19ZM237.105 334.132V342.61H238.617V334.132H237.105ZM238.203 337.75V338.992H241.011V337.75H238.203ZM226.755 334.87V341.386H228.249V334.87H226.755ZM226.755 340.594V341.854H228.033C230.463 341.854 232.893 341.674 235.647 341.116L235.467 339.892C232.803 340.432 230.373 340.594 228.033 340.594H226.755ZM228.321 343.456V350.188H238.599V343.456H237.123V345.616H229.797V343.456H228.321ZM229.797 346.822H237.123V348.982H229.797V346.822ZM254.311 334.15V346.066H255.823V334.15H254.311ZM245.365 348.82V350.044H256.309V348.82H245.365ZM245.365 344.968V349.396H246.841V344.968H245.365ZM246.715 335.032V336.688C246.715 339.208 245.095 341.584 242.647 342.538L243.421 343.744C246.157 342.628 247.957 339.856 247.957 336.688V335.032H246.715ZM246.985 335.032V336.688C246.985 339.784 248.785 342.394 251.485 343.438L252.277 342.232C249.847 341.35 248.209 339.136 248.209 336.688V335.032H246.985ZM263.04 336.904V337.606C263.04 339.802 261.42 341.782 259.026 342.556L259.746 343.726C262.464 342.808 264.264 340.432 264.264 337.606V336.904H263.04ZM263.31 336.904V337.606C263.31 340.27 265.182 342.466 267.918 343.312L268.602 342.142C266.208 341.44 264.534 339.622 264.534 337.606V336.904H263.31ZM259.44 336.094V337.3H268.116V336.094H259.44ZM263.04 334.06V336.526H264.534V334.06H263.04ZM267.63 338.758V340H271.302V338.758H267.63ZM270.87 334.132V343.978H272.364V334.132H270.87ZM267.018 344.41C263.634 344.41 261.582 345.508 261.582 347.398C261.582 349.27 263.634 350.368 267.018 350.368C270.384 350.368 272.436 349.27 272.436 347.398C272.436 345.508 270.384 344.41 267.018 344.41ZM267.018 345.58C269.466 345.58 270.96 346.246 270.96 347.398C270.96 348.532 269.466 349.198 267.018 349.198C264.552 349.198 263.076 348.532 263.076 347.398C263.076 346.246 264.552 345.58 267.018 345.58ZM280.222 335.986V337.192H293.308V335.986H280.222ZM279.466 344.68V345.904H294.208V344.68H279.466ZM286.054 345.67V350.422H287.548V345.67H286.054ZM286.81 338.128C283.48 338.128 281.518 339.1 281.518 340.846C281.518 342.574 283.48 343.564 286.81 343.564C290.122 343.564 292.084 342.574 292.084 340.846C292.084 339.1 290.122 338.128 286.81 338.128ZM286.81 339.28C289.186 339.28 290.554 339.838 290.554 340.846C290.554 341.854 289.186 342.412 286.81 342.412C284.434 342.412 283.066 341.854 283.066 340.846C283.066 339.838 284.434 339.28 286.81 339.28ZM286.054 334.042V336.796H287.548V334.042H286.054ZM296.403 352.42C298.041 351.754 299.031 350.404 299.031 348.658C299.031 347.47 298.509 346.732 297.645 346.732C296.979 346.732 296.421 347.164 296.421 347.884C296.421 348.622 296.979 349.036 297.609 349.036C297.933 349.036 298.221 348.946 298.437 348.676L297.645 347.488L297.825 348.964C297.825 350.062 297.141 350.962 296.025 351.466L296.403 352.42ZM57.1402 373.762V374.986H71.9002V373.762H57.1402ZM63.7282 374.338V380.404H65.2042V374.338H63.7282ZM58.9942 364.78V371.818H70.0102V364.78H68.5342V367.012H60.4882V364.78H58.9942ZM60.4882 368.218H68.5342V370.612H60.4882V368.218ZM81.7808 369.64V370.864H86.3168V369.64H81.7808ZM77.8568 365.536V368.434C77.8568 371.458 76.0208 374.59 73.6268 375.778L74.5808 376.966C77.1548 375.58 79.0808 372.088 79.0808 368.434V365.536H77.8568ZM78.1448 365.536V368.434C78.1448 371.998 80.0348 375.346 82.6628 376.678L83.5448 375.472C81.1868 374.356 79.3508 371.404 79.3508 368.434V365.536H78.1448ZM85.5788 364.114V380.422H87.0548V364.114H85.5788ZM100.727 372.232V374.698H102.221V372.232H100.727ZM94.1388 371.35V372.502H108.827V371.35H94.1388ZM100.745 364.024V366.004H102.221V364.024H100.745ZM100.673 366.148V366.4C100.673 368.146 98.1168 369.28 94.9128 369.478L95.3448 370.63C98.9448 370.324 101.987 368.956 101.987 366.4V366.148H100.673ZM100.979 366.148V366.4C100.979 368.956 104.003 370.324 107.603 370.63L108.035 369.478C104.849 369.28 102.293 368.146 102.293 366.4V366.148H100.979ZM95.6328 365.554V366.688H107.333V365.554H95.6328ZM95.9028 373.978V375.112H105.479V376.498H95.9388V379.522H97.4148V377.56H106.955V373.978H95.9028ZM95.9388 379.09V380.224H107.441V379.09H95.9388ZM122.469 364.132V372.862H123.981V364.132H122.469ZM113.487 373.672V380.188H123.981V373.672H122.505V375.652H114.963V373.672H113.487ZM114.963 376.84H122.505V378.982H114.963V376.84ZM115.251 364.906C112.785 364.906 111.003 366.436 111.003 368.65C111.003 370.882 112.785 372.412 115.251 372.412C117.717 372.412 119.481 370.882 119.481 368.65C119.481 366.436 117.717 364.906 115.251 364.906ZM115.251 366.148C116.871 366.148 118.041 367.174 118.041 368.65C118.041 370.126 116.871 371.152 115.251 371.152C113.631 371.152 112.461 370.126 112.461 368.65C112.461 367.174 113.631 366.148 115.251 366.148ZM127.13 372.448V373.672H141.872V372.448H127.13ZM133.862 373.204V376.948H135.356V373.204H133.862ZM129.02 364.888V370.612H139.964V364.888H129.02ZM138.488 366.094V369.406H130.478V366.094H138.488ZM129.002 378.82V380.044H140.234V378.82H129.002ZM129.002 375.382V379.252H130.478V375.382H129.002ZM158.748 364.132V373.33H160.242V364.132H158.748ZM159.774 368.092V369.334H162.654V368.092H159.774ZM149.874 374.212V375.436H160.674V374.212H149.874ZM149.73 378.946V380.152H160.872V378.946H149.73ZM152.124 374.5V379.522H153.6V374.5H152.124ZM156.966 374.5V379.522H158.424V374.5H156.966ZM152.16 365.068C149.694 365.068 147.912 366.634 147.912 368.884C147.912 371.134 149.694 372.7 152.16 372.7C154.626 372.7 156.408 371.134 156.408 368.884C156.408 366.634 154.626 365.068 152.16 365.068ZM152.16 366.31C153.78 366.31 154.95 367.372 154.95 368.884C154.95 370.396 153.78 371.458 152.16 371.458C150.54 371.458 149.37 370.396 149.37 368.884C149.37 367.372 150.54 366.31 152.16 366.31ZM170.717 370.45V371.692H173.795V370.45H170.717ZM176.513 364.132V380.404H177.953V364.132H176.513ZM173.291 364.474V379.594H174.713V364.474H173.291ZM167.783 365.482C165.677 365.482 164.327 367.66 164.327 371.152C164.327 374.644 165.677 376.822 167.783 376.822C169.889 376.822 171.257 374.644 171.257 371.152C171.257 367.66 169.889 365.482 167.783 365.482ZM167.783 366.868C169.079 366.868 169.889 368.524 169.889 371.152C169.889 373.78 169.079 375.436 167.783 375.436C166.505 375.436 165.695 373.78 165.695 371.152C165.695 368.524 166.505 366.868 167.783 366.868ZM195.728 364.15V376.084H197.222V364.15H195.728ZM196.754 369.064V370.306H199.634V369.064H196.754ZM187.088 378.82V380.044H197.96V378.82H187.088ZM187.088 374.932V379.108H188.582V374.932H187.088ZM185.27 365.302V373.366H192.794V365.302H191.336V368.02H186.746V365.302H185.27ZM186.746 369.19H191.336V372.16H186.746V369.19ZM212.233 364.132V372.61H213.745V364.132H212.233ZM213.331 367.75V368.992H216.139V367.75H213.331ZM201.883 364.87V371.386H203.377V364.87H201.883ZM201.883 370.594V371.854H203.161C205.591 371.854 208.021 371.674 210.775 371.116L210.595 369.892C207.931 370.432 205.501 370.594 203.161 370.594H201.883ZM203.449 373.456V380.188H213.727V373.456H212.251V375.616H204.925V373.456H203.449ZM204.925 376.822H212.251V378.982H204.925V376.822ZM217.578 366.904V368.128H225.642V366.904H217.578ZM221.61 369.208C219.594 369.208 218.118 370.738 218.118 372.934C218.118 375.112 219.594 376.642 221.61 376.642C223.644 376.642 225.12 375.112 225.12 372.934C225.12 370.738 223.644 369.208 221.61 369.208ZM221.61 370.486C222.87 370.486 223.788 371.494 223.788 372.934C223.788 374.374 222.87 375.382 221.61 375.382C220.368 375.382 219.468 374.374 219.468 372.934C219.468 371.494 220.368 370.486 221.61 370.486ZM229.944 364.132V380.404H231.384V364.132H229.944ZM227.352 370.972V372.214H230.43V370.972H227.352ZM226.47 364.492V379.612H227.874V364.492H226.47ZM220.89 364.6V367.66H222.366V364.6H220.89ZM240.634 365.734V366.418C240.634 368.56 237.844 370.432 234.982 370.846L235.558 372.034C238.834 371.476 241.93 369.334 241.93 366.418V365.734H240.634ZM241.012 365.734V366.418C241.012 369.334 244.09 371.476 247.384 372.034L247.942 370.846C245.098 370.432 242.29 368.56 242.29 366.418V365.734H241.012ZM240.688 374.194V380.404H242.164V374.194H240.688ZM234.118 373.402V374.626H248.824V373.402H234.118ZM235.486 365.14V366.346H247.402V365.14H235.486ZM257.031 369.946V371.188H260.145V369.946H257.031ZM253.989 365.662V368.758C253.989 371.548 252.657 374.464 250.425 375.778L251.361 376.912C253.737 375.454 255.159 372.16 255.159 368.758V365.662H253.989ZM254.277 365.662V368.704C254.277 371.872 255.591 375.112 257.931 376.552L258.795 375.382C256.653 374.086 255.429 371.314 255.429 368.704V365.662H254.277ZM263.007 364.132V380.404H264.447V364.132H263.007ZM259.713 364.474V379.594H261.117V364.474H259.713ZM270.727 372.502V377.38H272.203V372.502H270.727ZM276.739 372.502V377.38H278.233V372.502H276.739ZM267.127 377.092V378.334H281.869V377.092H267.127ZM274.471 365.158C271.015 365.158 268.549 366.796 268.549 369.352C268.549 371.89 271.015 373.528 274.471 373.528C277.909 373.528 280.375 371.89 280.375 369.352C280.375 366.796 277.909 365.158 274.471 365.158ZM274.471 366.346C277.081 366.346 278.935 367.534 278.935 369.352C278.935 371.152 277.081 372.34 274.471 372.34C271.861 372.34 269.989 371.152 269.989 369.352C269.989 367.534 271.861 366.346 274.471 366.346ZM285.216 379.252C285.882 379.252 286.422 378.73 286.422 377.992C286.422 377.236 285.882 376.732 285.216 376.732C284.568 376.732 284.046 377.236 284.046 377.992C284.046 378.73 284.568 379.252 285.216 379.252Z" fill="black"/>
<path d="M114 288.238V275.925H117.246V279.436H121.817V275.925H125.016V288.262L114 288.238ZM118.234 294.992H128.704V275.784H131.996V280.923H134.322V284.118H131.996V297.977H114.965V290.205H118.223L118.234 294.992ZM121.806 285.019V282.514H117.234V285.019H121.806Z" fill="#65B683"/>
<path d="M135.788 275.925H139.115V283.662H147.409V286.705H135.776L135.788 275.925ZM140.092 290.38H150.469V275.796H153.842V281.777H156.169V284.937H153.842V298.023H136.8V288.449H140.139L140.092 290.38ZM150.457 295.062V293.201H140.081V295.05L150.457 295.062Z" fill="#65B683"/>
<path d="M165.3 277.236H169.802V280.162H157.564V277.224H162.043V274.988H165.312L165.3 277.236ZM164.509 281.59C165.72 281.568 166.89 282.03 167.762 282.875C168.634 283.72 169.138 284.878 169.162 286.096V293.365C169.135 294.582 168.63 295.739 167.759 296.583C166.887 297.427 165.719 297.89 164.509 297.871H162.776C162.176 297.884 161.58 297.777 161.021 297.557C160.462 297.337 159.952 297.008 159.52 296.59C159.088 296.171 158.742 295.671 158.502 295.117C158.262 294.564 158.134 293.968 158.123 293.365V286.096C158.147 284.878 158.651 283.72 159.523 282.875C160.396 282.03 161.565 281.568 162.776 281.59H164.509ZM163.765 294.723C164.042 294.744 164.321 294.707 164.584 294.614C164.847 294.52 165.088 294.374 165.291 294.182C165.494 293.991 165.656 293.759 165.766 293.501C165.875 293.244 165.931 292.966 165.928 292.686V286.775C165.931 286.494 165.875 286.215 165.766 285.957C165.656 285.698 165.495 285.465 165.292 285.271C165.089 285.078 164.849 284.929 164.586 284.833C164.323 284.738 164.044 284.697 163.765 284.715H163.532C163.253 284.697 162.974 284.738 162.711 284.833C162.448 284.929 162.208 285.078 162.005 285.271C161.802 285.465 161.641 285.698 161.531 285.957C161.422 286.215 161.366 286.494 161.368 286.775V292.686C161.368 292.967 161.425 293.245 161.536 293.502C161.647 293.76 161.809 293.991 162.014 294.183C162.218 294.374 162.459 294.521 162.723 294.614C162.986 294.706 163.265 294.744 163.544 294.723H163.765ZM175.584 284.692H177.91V287.887H175.584V297.988H172.303V275.749H175.584V284.692Z" fill="#65B683"/>
<path d="M187.135 279.073H178.771V275.925H190.799V279.073L188.112 297.801H184.518L187.135 279.073ZM197.988 298H194.406V275.761H198.047L197.988 298Z" fill="#65B683"/>
<g clip-path="url(#clip0_1019_2)">
<path d="M210.418 281.696H211.35C211.43 279.89 212.219 278.183 213.551 276.933C214.883 275.682 216.656 274.984 218.5 274.984C220.344 274.984 222.117 275.682 223.449 276.933C224.781 278.183 225.57 279.89 225.65 281.696H226.582C227.488 281.697 228.357 282.05 228.998 282.679C229.639 283.307 229.999 284.16 230 285.048V294.656C229.997 295.543 229.636 296.394 228.995 297.02C228.354 297.647 227.487 297.999 226.582 298H210.418C209.513 297.999 208.646 297.647 208.005 297.02C207.364 296.394 207.003 295.543 207 294.656V285.048C207.001 284.16 207.361 283.307 208.002 282.679C208.643 282.05 209.512 281.697 210.418 281.696ZM218.499 278.719C217.664 278.72 216.859 279.025 216.24 279.575C215.621 280.126 215.233 280.881 215.151 281.696H221.849C221.767 280.881 221.378 280.125 220.759 279.575C220.14 279.024 219.334 278.719 218.499 278.719Z" fill="#65B683"/>
</g>
<path d="M98.9942 12.3429C98.9907 10.4429 98.2249 8.6218 96.8649 7.27947C95.5049 5.93715 93.6618 5.18324 91.7402 5.18325H83.5596V2.12042C83.5596 0.811518 82.7124 0 80.9916 0C79.2707 0 78.4235 0.850785 78.4235 2.12042V5.18325H70.2561C68.3345 5.18324 66.4915 5.93715 65.1315 7.27947C63.7715 8.6218 63.0057 10.4429 63.0021 12.3429C62.9736 13.8512 63.2295 15.3514 63.7567 16.767C64.0087 17.4097 64.3866 17.9968 64.8686 18.4948L65.4245 24.6728C65.6176 26.9225 66.6607 29.0177 68.346 30.5411C70.0313 32.0644 72.2352 32.904 74.5185 32.8927H78.4897C78.4897 34.2016 79.3501 35 81.0577 35C82.7654 35 83.6258 34.1492 83.6258 32.8927H87.6764C89.9618 32.9038 92.1675 32.0623 93.8531 30.5363C95.5388 29.0102 96.5805 26.9117 96.7704 24.6597L97.3396 18.3115C97.7504 17.8467 98.0774 17.3153 98.3059 16.7408C98.8073 15.3293 99.0406 13.8383 98.9942 12.3429Z" fill="#FFEEB2"/>
<path d="M279.994 12.3429C279.991 10.4429 279.225 8.6218 277.865 7.27947C276.505 5.93715 274.662 5.18324 272.74 5.18325H264.56V2.12042C264.56 0.811518 263.712 0 261.992 0C260.271 0 259.424 0.850785 259.424 2.12042V5.18325H251.256C249.335 5.18324 247.491 5.93715 246.131 7.27947C244.771 8.6218 244.006 10.4429 244.002 12.3429C243.974 13.8512 244.23 15.3514 244.757 16.767C245.009 17.4097 245.387 17.9968 245.869 18.4948L246.425 24.6728C246.618 26.9225 247.661 29.0177 249.346 30.5411C251.031 32.0644 253.235 32.904 255.519 32.8927H259.49C259.49 34.2016 260.35 35 262.058 35C263.765 35 264.626 34.1492 264.626 32.8927H268.676C270.962 32.9038 273.167 32.0623 274.853 30.5363C276.539 29.0102 277.58 26.9117 277.77 24.6597L278.34 18.3115C278.75 17.8467 279.077 17.3153 279.306 16.7408C279.807 15.3293 280.041 13.8383 279.994 12.3429Z" fill="#FFEEB2"/>
<g clip-path="url(#clip1_1019_2)">
<path d="M120.203 3.99992C122.352 4.05975 124.391 4.92724 125.879 6.41527C127.367 7.9033 128.186 9.89261 128.158 11.9541V27.0131C128.167 29.0916 127.324 31.0905 125.811 32.5785C124.297 34.0665 122.234 34.9244 120.067 34.9672H118.364C117.268 34.9759 116.181 34.7766 115.165 34.3809C114.15 33.9852 113.227 33.401 112.448 32.6617C111.669 31.9225 111.05 31.0428 110.627 30.0734C110.204 29.104 109.985 28.0639 109.983 27.0131V11.9704C109.987 10.9188 110.208 9.87839 110.633 8.90888C111.058 7.93937 111.678 7.05986 112.459 6.32082C113.239 5.58177 114.164 4.99776 115.18 4.60228C116.196 4.20681 117.284 4.00765 118.38 4.01627L120.203 3.99992ZM118.397 8.65483C117.477 8.64165 116.589 8.97743 115.925 9.58916C115.262 10.2009 114.877 11.0391 114.855 11.9214V26.9804C114.881 27.8642 115.27 28.7024 115.936 29.3137C116.602 29.925 117.492 30.2603 118.414 30.247H119.948C120.851 30.247 121.718 29.9029 122.356 29.2903C122.995 28.6777 123.354 27.8468 123.354 26.9804V11.9214C123.354 11.0551 122.995 10.2242 122.356 9.61159C121.718 8.99898 120.851 8.65483 119.948 8.65483H118.397ZM137.288 34.9672H132.041V3.93457H137.288V34.9672Z" fill="white"/>
<path d="M148.564 4.17956H162.975C163.748 4.12267 164.525 4.21569 165.26 4.45306C165.995 4.69042 166.672 5.06728 167.252 5.56114C167.832 6.05501 168.302 6.65581 168.634 7.32763C168.966 7.99944 169.154 8.72853 169.186 9.47143C169.218 10.2143 169.094 10.9558 168.82 11.6517C168.547 12.3475 168.13 12.9834 167.595 13.5215C167.06 14.0596 166.417 14.4888 165.705 14.7835C164.994 15.0783 164.227 15.2325 163.452 15.237V18.3239H170.47V22.1132H141.121V18.3076H148.138V15.237C147.364 15.2301 146.599 15.0737 145.888 14.7774C145.178 14.4811 144.537 14.0507 144.004 13.5121C143.471 12.9734 143.056 12.3373 142.785 11.6418C142.513 10.9463 142.39 10.2054 142.423 9.46341C142.456 8.72139 142.645 7.99337 142.978 7.32264C143.31 6.65191 143.78 6.05219 144.36 5.5592C144.939 5.06621 145.616 4.69002 146.35 4.45301C147.084 4.21599 147.86 4.12298 148.632 4.17956H148.564ZM148.564 23.9098H162.975C163.758 23.869 164.542 23.9817 165.279 24.2411C166.015 24.5005 166.689 24.9011 167.259 25.4185C167.829 25.9359 168.282 26.5592 168.593 27.2504C168.903 27.9416 169.063 28.6861 169.063 29.4386C169.063 30.191 168.903 30.9355 168.593 31.6267C168.282 32.3179 167.829 32.9412 167.259 33.4586C166.689 33.976 166.015 34.3766 165.279 34.636C164.542 34.8954 163.758 35.0081 162.975 34.9672H148.649C147.866 35.0081 147.082 34.8954 146.345 34.636C145.609 34.3766 144.935 33.976 144.365 33.4586C143.795 32.9412 143.342 32.3179 143.031 31.6267C142.721 30.9355 142.562 30.191 142.562 29.4386C142.562 28.6861 142.721 27.9416 143.031 27.2504C143.342 26.5592 143.795 25.9359 144.365 25.4185C144.935 24.9011 145.609 24.5005 146.345 24.2411C147.082 23.9817 147.866 23.869 148.649 23.9098H148.564ZM148.564 30.9493H162.889C163.305 30.9493 163.704 30.791 163.998 30.5092C164.292 30.2274 164.457 29.8452 164.457 29.4467C164.457 29.0482 164.292 28.666 163.998 28.3842C163.704 28.1024 163.305 27.9441 162.889 27.9441H148.547C148.158 27.983 147.797 28.1589 147.535 28.4379C147.272 28.717 147.127 29.0792 147.127 29.4549C147.127 29.8305 147.272 30.1928 147.535 30.4718C147.797 30.7509 148.158 30.9268 148.547 30.9657L148.564 30.9493ZM148.564 11.2191H162.975C163.39 11.2191 163.789 11.0608 164.083 10.779C164.377 10.4972 164.542 10.115 164.542 9.71647C164.542 9.31794 164.377 8.93573 164.083 8.65393C163.789 8.37214 163.39 8.21381 162.975 8.21381H148.649C148.26 8.25271 147.899 8.42865 147.637 8.70767C147.374 8.98669 147.229 9.34902 147.229 9.72464C147.229 10.1003 147.374 10.4625 147.637 10.7416C147.899 11.0206 148.26 11.1965 148.649 11.2354L148.564 11.2191ZM152.601 18.3076H158.87V15.237H152.601V18.3076Z" fill="white"/>
<path d="M173.791 20.4147V4.17971H178.578V8.37729H185.118V4.19605H189.888V20.4147H173.791ZM180.894 23.3383H194.777C195.601 23.2964 196.426 23.416 197.201 23.6897C197.975 23.9634 198.684 24.3855 199.283 24.9303C199.882 25.4751 200.359 26.1312 200.685 26.8586C201.011 27.5859 201.179 28.3693 201.179 29.161C201.179 29.9527 201.011 30.7361 200.685 31.4635C200.359 32.1908 199.882 32.847 199.283 33.3918C198.684 33.9366 197.975 34.3587 197.201 34.6324C196.426 34.9061 195.601 35.0256 194.777 34.9837H180.877C180.053 35.0256 179.228 34.9061 178.453 34.6324C177.678 34.3587 176.97 33.9366 176.371 33.3918C175.772 32.847 175.295 32.1908 174.969 31.4635C174.642 30.7361 174.474 29.9527 174.474 29.161C174.474 28.3693 174.642 27.5859 174.969 26.8586C175.295 26.1312 175.772 25.4751 176.371 24.9303C176.97 24.3855 177.678 23.9634 178.453 23.6897C179.228 23.416 180.053 23.2964 180.877 23.3383H180.894ZM185.084 16.3314V12.3789H178.578V16.3478L185.084 16.3314ZM180.962 30.8515H194.708C195.129 30.783 195.51 30.574 195.785 30.2616C196.06 29.9492 196.211 29.5535 196.211 29.1447C196.211 28.7358 196.06 28.3402 195.785 28.0278C195.51 27.7154 195.129 27.5064 194.708 27.4379H180.962C180.541 27.4785 180.15 27.6684 179.867 27.9704C179.583 28.2724 179.427 28.6649 179.429 29.0712C179.387 29.5022 179.524 29.9318 179.811 30.2656C180.099 30.5994 180.513 30.8101 180.962 30.8515ZM195.39 20.921V4.03271H200.159V9.50427H203.566V13.9468H200.159V20.921H195.39Z" fill="white"/>
<path d="M205.695 19.9084V4.19606H210.448V8.361H217.142V4.19606H221.826V19.9084H205.695ZM211.998 24.351H228.111V13.6529H224.194V9.63497H228.111V4.04907H233V35.0001H207.143V21.656H212.015L211.998 24.351ZM217.108 15.4332V12.6239H210.413V15.3678L217.108 15.4332ZM228.094 30.8352V28.2546H211.981V30.8352H228.094Z" fill="white"/>
</g>
<path d="M228.974 106.476L226.131 103.635C225.93 103.434 225.692 103.274 225.43 103.165C225.167 103.056 224.885 103 224.601 103C224.022 103 223.477 103.227 223.069 103.635L220.009 106.695C219.808 106.896 219.648 107.134 219.539 107.397C219.43 107.659 219.374 107.941 219.374 108.225C219.374 108.804 219.601 109.349 220.009 109.758L222.246 111.995C221.723 113.149 220.995 114.199 220.097 115.095C219.202 115.994 218.152 116.725 216.997 117.252L214.76 115.015C214.56 114.813 214.321 114.653 214.059 114.544C213.796 114.435 213.515 114.379 213.23 114.379C212.651 114.379 212.106 114.606 211.698 115.015L208.635 118.072C208.434 118.273 208.274 118.511 208.165 118.774C208.056 119.037 208 119.319 208 119.604C208 120.183 208.227 120.728 208.635 121.137L211.473 123.975C212.125 124.629 213.025 125 213.948 125C214.143 125 214.33 124.984 214.514 124.952C218.113 124.359 221.683 122.445 224.564 119.567C227.442 116.691 229.354 113.124 229.954 109.515C230.136 108.412 229.77 107.277 228.974 106.476Z" fill="#65B683"/>
<defs>
<clipPath id="clip0_1019_2">
<rect width="23" height="23" fill="white" transform="matrix(-1 0 0 1 230 275)"/>
</clipPath>
<clipPath id="clip1_1019_2">
<rect width="123" height="31" fill="white" transform="translate(110 4)"/>
</clipPath>
</defs>
</svg>
