<svg width="223" height="77" viewBox="0 0 223 77" fill="none" xmlns="http://www.w3.org/2000/svg">
<rect width="223" height="77" fill="#154734"/>
<g clip-path="url(#clip0_1023_17)">
<path d="M50.0015 59.003C62.1526 59.003 72.003 49.1526 72.003 37.0015C72.003 24.8504 62.1526 15 50.0015 15C37.8504 15 28 24.8504 28 37.0015C28 49.1526 37.8504 59.003 50.0015 59.003Z" fill="#154734"/>
<path d="M54.0122 36.6414C54.0114 36.213 53.8407 35.8024 53.5375 35.4997C53.2342 35.1971 52.8233 35.0271 52.3949 35.0271H50.5711V34.3365C50.5711 34.0414 50.3822 33.8584 49.9985 33.8584C49.6149 33.8584 49.426 34.0502 49.426 34.3365V35.0271H47.6051C47.1766 35.0271 46.7657 35.1971 46.4625 35.4997C46.1593 35.8024 45.9886 36.213 45.9878 36.6414C45.9814 36.9815 46.0385 37.3198 46.156 37.6389C46.2122 37.7838 46.2964 37.9162 46.4039 38.0285L46.5279 39.4215C46.5709 39.9287 46.8034 40.4012 47.1792 40.7446C47.5549 41.0881 48.0463 41.2774 48.5554 41.2749H49.4407C49.4407 41.57 49.6326 41.75 50.0133 41.75C50.394 41.75 50.5858 41.5582 50.5858 41.2749H51.4889C51.9984 41.2774 52.4902 41.0876 52.866 40.7435C53.2418 40.3995 53.4741 39.9263 53.5164 39.4185L53.6433 37.9872C53.7349 37.8824 53.8078 37.7626 53.8587 37.633C53.9705 37.3148 54.0225 36.9786 54.0122 36.6414V36.6414Z" fill="#FFCD00"/>
<path d="M65.8083 36.0659C65.8067 35.0169 65.5342 33.9862 65.0171 33.0736C64.5 32.161 63.756 31.3974 62.857 30.8569C62.3509 30.5486 61.9608 30.0818 61.7474 29.5289C61.3013 28.3876 60.5213 27.4075 59.5093 26.7167C58.4973 26.0259 57.3004 25.6565 56.0751 25.6569H56.0279C55.3278 25.6483 54.6566 25.3764 54.1479 24.8954C53.0208 23.8475 51.5375 23.2672 49.9985 23.2722C48.4592 23.2701 46.9768 23.8536 45.852 24.9043C45.3392 25.3882 44.6623 25.6603 43.9573 25.6657H43.9101C42.6858 25.6647 41.4897 26.0328 40.4778 26.7219C39.4659 27.4111 38.6853 28.3893 38.2378 29.5289C38.0232 30.0811 37.6334 30.5476 37.1281 30.8569C36.2319 31.3992 35.4908 32.1636 34.9764 33.0761C34.4619 33.9886 34.1917 35.0184 34.1917 36.0659C34.1914 37.5338 34.7213 38.9524 35.6838 40.0608C36.6463 41.1692 37.9766 41.8927 39.4301 42.0982C39.6645 42.1309 39.8793 42.2471 40.0349 42.4255C40.1905 42.6039 40.2765 42.8324 40.2771 43.0692V45.557C40.2758 45.9253 40.1885 46.2882 40.0219 46.6167C39.8554 46.9452 39.6143 47.2301 39.3179 47.4488L38.2496 48.2338C38.1708 48.2909 38.1067 48.3659 38.0626 48.4526C38.0184 48.5393 37.9955 48.6353 37.9958 48.7326V48.7326C37.9966 48.8964 38.0622 49.0533 38.1784 49.1689C38.2945 49.2845 38.4517 49.3494 38.6156 49.3494H42.0478C42.3315 49.3492 42.6116 49.4117 42.8683 49.5324L43.8776 50.0016C44.2651 50.1841 44.7024 50.2319 45.1201 50.1374L46.5337 49.8334C46.9289 49.7452 47.3419 49.7834 47.7142 49.9426L49.2253 50.5919C49.4674 50.695 49.7279 50.7482 49.9911 50.7482C50.2543 50.7482 50.5148 50.695 50.7569 50.5919L52.2709 49.9426C52.643 49.7827 53.0559 49.7434 53.4514 49.8304L54.8857 50.1285C55.3034 50.2235 55.7409 50.1757 56.1282 49.9928L57.1375 49.5383C57.3942 49.4176 57.6743 49.3551 57.958 49.3553H61.3873C61.5512 49.3553 61.7084 49.2904 61.8245 49.1748C61.9406 49.0592 62.0063 48.9023 62.0071 48.7385V48.7385C62.0071 48.6416 61.9841 48.5462 61.9399 48.46C61.8958 48.3738 61.8318 48.2993 61.7533 48.2427L60.6849 47.4724C60.5267 47.3541 60.338 47.2832 60.141 47.2681C59.944 47.2529 59.7468 47.2941 59.5723 47.3868C59.077 47.645 58.5253 47.7759 57.9668 47.7675H50.3821C50.3105 47.7682 50.2411 47.7429 50.1868 47.6962C50.1325 47.6495 50.097 47.5846 50.087 47.5137C50.0812 47.4743 50.0834 47.4341 50.0936 47.3955C50.1037 47.357 50.1216 47.3209 50.146 47.2894L52.6664 43.4204C51.8074 43.6898 50.9104 43.8183 50.0103 43.8011C46.3891 43.8011 43.9868 42.0746 43.9868 38.0314C43.9868 33.9882 46.3832 31.1786 50.0162 31.1786C53.4573 31.1786 55.7209 33.8141 55.9364 37.5444C56.0308 37.6743 56.1252 37.7569 56.2315 37.754C56.4316 37.7384 56.6264 37.6822 56.804 37.5887C56.9132 37.5238 57.0991 37.3792 57.2054 37.5503C57.3116 37.7215 57.2202 37.9045 57.1523 38.052C57.0191 38.3435 56.8164 38.5979 56.562 38.7928L56.6299 38.7397C56.3766 38.9278 56.172 39.1739 56.0334 39.4573C55.8947 39.7408 55.8261 40.0533 55.8331 40.3688C55.8141 40.6595 55.8649 40.9505 55.9815 41.2175C56.0981 41.4845 56.2769 41.7197 56.503 41.9034V41.9034C57.0657 42.3703 57.4581 43.0101 57.6193 43.7232C57.7806 44.4364 57.7014 45.1828 57.3943 45.8463V45.8463C57.3847 45.8687 57.3798 45.8928 57.3798 45.9171C57.3798 45.9414 57.3847 45.9655 57.3943 45.9879C57.4024 46.0155 57.4172 46.0406 57.4373 46.0612C57.4573 46.0817 57.4821 46.0971 57.5094 46.106C57.5508 46.1201 57.5958 46.1189 57.6364 46.1027C57.677 46.0865 57.7105 46.0562 57.7307 46.0174V46.0174C58.041 45.4388 58.1718 44.7808 58.1067 44.1275C58.0415 43.4742 57.7832 42.855 57.3648 42.3491V42.3491C57.025 41.877 56.8155 41.3237 56.7575 40.7449C56.6994 40.1661 56.7949 39.5823 57.0343 39.0521C57.2736 38.5219 57.6484 38.0642 58.1209 37.7249C58.5934 37.3856 59.1469 37.1768 59.7258 37.1195H59.7789C59.9368 37.1016 60.0961 37.1016 60.254 37.1195C60.7429 37.1657 61.1989 37.386 61.539 37.7403C61.879 38.0946 62.0805 38.5593 62.1066 39.0496C62.1327 39.54 61.9817 40.0234 61.6812 40.4118C61.3807 40.8002 60.9507 41.0677 60.4695 41.1656C60.4182 41.1741 60.3685 41.19 60.3219 41.2128C60.2414 41.2517 60.1735 41.3124 60.126 41.3881C60.0785 41.4638 60.0533 41.5514 60.0533 41.6408C60.0532 41.7648 60.1008 41.8842 60.1862 41.9742V41.9742C60.2039 41.989 60.2216 42.0097 60.2422 42.0244C60.3185 42.0846 60.4136 42.1159 60.5108 42.113C61.9775 41.9202 63.3239 41.2002 64.2988 40.0874C65.2736 38.9747 65.8101 37.5452 65.8083 36.0659V36.0659Z" fill="#FFCD00"/>
<path d="M50.3705 47.7675H57.9669C58.8541 47.7691 59.7059 47.4196 60.3362 46.7953C60.9666 46.171 61.3243 45.3227 61.3314 44.4355C61.3294 43.9649 61.2267 43.5002 61.0303 43.0726C60.8338 42.645 60.548 42.2645 60.1922 41.9565V41.9565C60.1345 41.896 60.0936 41.8216 60.0735 41.7406C60.0533 41.6595 60.0546 41.5746 60.0772 41.4942C60.0999 41.4137 60.1431 41.3406 60.2025 41.282C60.262 41.2233 60.3357 41.1812 60.4165 41.1597C60.9128 41.0711 61.3597 40.804 61.6728 40.4088C61.9859 40.0136 62.1437 39.5176 62.1164 39.0141C62.0808 38.53 61.8758 38.0739 61.5374 37.7258C61.199 37.3777 60.7489 37.1599 60.2659 37.1106C60.1081 37.0927 59.9487 37.0927 59.7908 37.1106V37.1106H59.7377C59.1588 37.1679 58.6053 37.3767 58.1328 37.716C57.6603 38.0553 57.2856 38.513 57.0462 39.0432C56.8069 39.5734 56.7114 40.1572 56.7694 40.736C56.8274 41.3148 57.0369 41.8681 57.3767 42.3402V42.3402C57.7951 42.8461 58.0534 43.4652 58.1186 44.1186C58.1838 44.7719 58.0529 45.4299 57.7426 46.0085V46.0085C57.7225 46.0467 57.6896 46.0764 57.6496 46.0926C57.6097 46.1088 57.5653 46.1104 57.5243 46.0971C57.4963 46.0889 57.4708 46.0737 57.4502 46.0531C57.4295 46.0325 57.4144 46.007 57.4062 45.979C57.3966 45.9566 57.3917 45.9325 57.3917 45.9082C57.3917 45.8838 57.3966 45.8598 57.4062 45.8374C57.7114 45.1711 57.7872 44.4224 57.6217 43.7084C57.4562 42.9945 57.0586 42.3556 56.4913 41.8916V41.8916C56.2652 41.7079 56.0864 41.4727 55.9698 41.2057C55.8533 40.9387 55.8024 40.6476 55.8214 40.3569C55.8144 40.0415 55.8831 39.7289 56.0217 39.4455C56.1603 39.162 56.3649 38.9159 56.6182 38.7278L56.5504 38.781C56.8047 38.586 57.0074 38.3317 57.1406 38.0402C57.2085 37.8926 57.2911 37.6772 57.1937 37.5385C57.0963 37.3998 56.8986 37.5119 56.7924 37.5769C56.6138 37.6752 56.4169 37.7355 56.2139 37.7539C55.8893 37.7539 55.721 37.0427 55.2518 36.6148C54.8758 36.2526 54.375 36.0487 53.8529 36.0452C53.5823 36.0477 53.3214 36.1465 53.117 36.3239C52.9126 36.5013 52.778 36.7456 52.7373 37.0132C52.7222 37.1108 52.7143 37.2095 52.7137 37.3083C52.7146 37.5843 52.7713 37.8573 52.8803 38.1109C52.9893 38.3645 53.1485 38.5934 53.3482 38.7839V38.7839C53.4107 38.8386 53.4581 38.9085 53.4858 38.9868C53.5134 39.0651 53.5205 39.1492 53.5063 39.231C53.492 39.3128 53.457 39.3896 53.4045 39.4539C53.352 39.5183 53.2839 39.5681 53.2066 39.5985V39.5985C52.9623 39.6993 52.7006 39.7515 52.4363 39.7519C52.0511 39.7576 51.672 39.6543 51.3431 39.4537C51.0141 39.2532 50.7485 38.9637 50.5771 38.6186V38.6186C50.5299 38.5276 50.4551 38.4538 50.3634 38.408C50.2716 38.3622 50.1677 38.3467 50.0666 38.3637C49.9654 38.3808 49.8724 38.4296 49.8007 38.503C49.7291 38.5764 49.6827 38.6706 49.6681 38.7721C49.6562 38.8315 49.6562 38.8927 49.6681 38.9521V38.9521C49.8092 39.6311 50.1595 40.2488 50.6698 40.7183C51.1801 41.1879 51.8247 41.4857 52.5131 41.5699V41.5699C52.644 41.5834 52.7693 41.6297 52.8776 41.7046C52.9858 41.7794 53.0734 41.8804 53.1323 41.9981C53.1911 42.1158 53.2193 42.2464 53.2143 42.3779C53.2092 42.5094 53.171 42.6375 53.1033 42.7504L53.0885 42.7799L50.1373 47.3012C50.1027 47.345 50.0812 47.3977 50.0753 47.4532C50.0695 47.5088 50.0795 47.5648 50.1042 47.6149C50.1289 47.6649 50.1674 47.707 50.215 47.7361C50.2627 47.7652 50.3176 47.7801 50.3734 47.7793" fill="#154734"/>
<path d="M53.8734 37.0427C53.8734 37.121 53.8423 37.196 53.787 37.2514C53.7317 37.3067 53.6566 37.3378 53.5783 37.3378C53.5001 37.3378 53.425 37.3067 53.3696 37.2514C53.3143 37.196 53.2832 37.121 53.2832 37.0427C53.2832 36.9644 53.3143 36.8893 53.3696 36.834C53.425 36.7787 53.5001 36.7476 53.5783 36.7476C53.6566 36.7476 53.7317 36.7787 53.787 36.834C53.8423 36.8893 53.8734 36.9644 53.8734 37.0427Z" fill="#154734"/>
<path d="M50.1253 46.2211C50.0613 46.222 49.9983 46.2046 49.9438 46.171C49.8893 46.1373 49.8456 46.0889 49.8177 46.0312C49.7898 45.9736 49.7789 45.9092 49.7864 45.8456C49.7938 45.782 49.8192 45.7218 49.8597 45.6722L50.2463 45.1881H49.9984C47.7732 45.1881 45.9169 44.5743 44.6301 43.4174C43.2283 42.1602 42.5318 40.3599 42.5259 38.0284C42.5259 35.5612 43.4113 33.2563 44.9548 31.7039C45.5889 31.0556 46.3472 30.5417 47.1844 30.1929C48.0215 29.844 48.9203 29.6674 49.8272 29.6735C53.7406 29.6735 56.8158 32.6247 57.1375 36.721C57.145 36.808 57.1184 36.8945 57.0633 36.9622C57.0083 37.03 56.929 37.0737 56.8423 37.0841C56.7554 37.0916 56.6689 37.065 56.6011 37.0099C56.5334 36.9548 56.4897 36.8756 56.4793 36.7889C56.3664 35.0225 55.6019 33.3609 54.3338 32.126C53.1161 30.9767 51.5015 30.3423 49.8272 30.3552C49.0098 30.3492 48.1996 30.5081 47.445 30.8225C46.6904 31.1369 46.0071 31.6003 45.4358 32.185C44.0104 33.6193 43.1988 35.7501 43.2047 38.0284C43.2283 42.1602 45.6926 44.5212 49.9984 44.5212C50.2611 44.5212 50.7156 44.4828 50.9605 44.4621C51.026 44.457 51.0917 44.471 51.1494 44.5024C51.2071 44.5338 51.2545 44.5813 51.2857 44.6391C51.317 44.6969 51.3308 44.7626 51.3254 44.8281C51.3201 44.8936 51.2959 44.9561 51.2556 45.0081L50.3909 46.1001C50.3589 46.1392 50.3182 46.1705 50.2722 46.1915C50.2261 46.2125 50.1759 46.2226 50.1253 46.2211V46.2211Z" fill="#154734"/>
</g>
<path d="M80.148 33.512C82.368 33.512 83.94 33.476 85.656 33.068C86.052 32.972 86.34 32.624 86.34 32.204C86.34 31.712 85.944 31.316 85.452 31.316C85.368 31.316 85.26 31.328 85.212 31.34C84 31.64 82.428 31.736 80.856 31.736V24.98H84.492C84.984 24.98 85.38 24.584 85.38 24.092C85.38 23.6 84.984 23.204 84.492 23.204H79.548C79.092 23.204 78.72 23.576 78.72 24.032V32.684C78.72 33.14 79.092 33.512 79.548 33.512H80.148ZM86.64 33.032C86.64 33.656 87.12 34.112 87.72 34.112C88.32 34.112 88.8 33.656 88.8 33.032V28.916H89.388C89.88 28.916 90.288 28.52 90.288 28.016C90.288 27.512 89.88 27.116 89.388 27.116H88.8V23.804C88.8 23.192 88.32 22.724 87.72 22.724C87.12 22.724 86.64 23.192 86.64 23.804V33.032ZM91.044 27.98C91.044 29.108 91.944 30.008 93.072 30.008H95.844C96.984 30.008 97.896 29.108 97.896 27.98C97.896 26.84 96.984 25.928 95.844 25.928H93.072C91.944 25.928 91.044 26.84 91.044 27.98ZM98.976 33.032C98.976 33.656 99.456 34.112 100.056 34.112C100.656 34.112 101.136 33.656 101.136 33.032V23.804C101.136 23.192 100.656 22.724 100.056 22.724C99.456 22.724 98.976 23.192 98.976 23.804V33.032ZM91.38 33.572C93.468 33.572 96.06 33.464 97.884 33.152C98.376 33.068 98.676 32.756 98.676 32.288C98.676 31.784 98.28 31.412 97.776 31.412C97.716 31.412 97.668 31.424 97.596 31.436C96.96 31.544 96.264 31.616 95.544 31.676V31.148C95.544 30.536 95.088 30.308 94.476 30.308C93.864 30.308 93.408 30.536 93.408 31.148V31.796C92.7 31.82 92.016 31.82 91.38 31.82C90.876 31.82 90.48 32.192 90.48 32.696C90.48 33.2 90.876 33.572 91.38 33.572ZM91.572 23.744C91.116 23.744 90.744 24.116 90.744 24.572C90.744 25.028 91.116 25.4 91.572 25.4H97.368C97.824 25.4 98.196 25.028 98.196 24.572C98.196 24.116 97.824 23.744 97.368 23.744H95.556V23.384C95.556 22.772 95.088 22.484 94.476 22.484C93.864 22.484 93.396 22.772 93.396 23.384V23.744H91.572ZM93.156 27.968C93.156 27.728 93.348 27.536 93.588 27.536H95.352C95.592 27.536 95.784 27.728 95.784 27.968C95.784 28.208 95.592 28.4 95.352 28.4H93.588C93.348 28.4 93.156 28.208 93.156 27.968ZM102.48 28.568C102.48 29.012 102.864 29.396 103.32 29.396H112.668C113.148 29.396 113.52 29.012 113.52 28.568C113.52 28.1 113.148 27.716 112.668 27.716H111.252V26.936C112.332 26.912 113.22 26.048 113.22 24.956C113.22 23.852 112.296 22.964 111.192 22.964H104.796C103.68 22.964 102.78 23.852 102.78 24.956C102.78 26.048 103.656 26.912 104.748 26.936V27.716H103.32C102.864 27.716 102.48 28.1 102.48 28.568ZM102.72 31.988C102.72 33.104 103.62 33.992 104.736 33.992H111.252C112.368 33.992 113.28 33.104 113.28 31.988C113.28 30.872 112.368 29.972 111.252 29.972H104.736C103.62 29.972 102.72 30.872 102.72 31.988ZM104.856 31.988C104.856 31.784 105 31.628 105.204 31.628H110.784C110.988 31.628 111.144 31.784 111.144 31.988C111.144 32.192 110.988 32.336 110.784 32.336H105.204C105 32.336 104.856 32.192 104.856 31.988ZM104.916 24.956C104.916 24.764 105.036 24.62 105.3 24.62H110.7C110.964 24.62 111.084 24.764 111.084 24.956C111.084 25.148 110.964 25.292 110.7 25.292H105.3C105.036 25.292 104.916 25.148 104.916 24.956ZM106.86 26.936H109.14V27.716H106.86V26.936ZM122.976 33.032C122.976 33.656 123.456 34.112 124.056 34.112C124.656 34.112 125.136 33.656 125.136 33.032V23.804C125.136 23.192 124.656 22.724 124.056 22.724C123.456 22.724 122.976 23.192 122.976 23.804V33.032ZM114.48 32.516C114.48 33.056 114.9 33.512 115.452 33.512C115.632 33.512 115.824 33.476 115.98 33.404C120.336 31.388 121.5 27.884 121.5 24.704V24.044C121.5 23.576 121.128 23.204 120.66 23.204H115.548C115.056 23.204 114.66 23.6 114.66 24.116C114.66 24.608 115.056 25.004 115.548 25.004H119.34C119.34 27.812 118.032 30.116 115.032 31.604C114.696 31.772 114.48 32.12 114.48 32.516ZM131.218 27.332C133.438 27.332 134.878 26.492 135.598 25.484C136.306 26.492 137.746 27.332 139.978 27.332C140.446 27.332 140.818 26.96 140.818 26.492C140.818 26.024 140.446 25.652 139.978 25.652C138.154 25.652 136.678 24.584 136.678 23.648V23.456C136.678 22.976 136.222 22.544 135.622 22.544C134.998 22.544 134.518 22.976 134.518 23.456V23.648C134.518 24.584 133.042 25.652 131.218 25.652C130.75 25.652 130.378 26.024 130.378 26.492C130.378 26.96 130.75 27.332 131.218 27.332ZM130.078 28.892C130.078 29.336 130.462 29.72 130.918 29.72H134.638V30.656C134.638 31.28 135.118 31.676 135.718 31.676C136.318 31.676 136.798 31.28 136.798 30.656V29.72H140.266C140.746 29.72 141.118 29.336 141.118 28.892C141.118 28.424 140.746 28.04 140.266 28.04H130.918C130.462 28.04 130.078 28.424 130.078 28.892ZM130.498 32.972C130.498 33.596 130.99 33.992 131.518 33.992H140.098C140.566 33.992 140.938 33.62 140.938 33.152C140.938 32.684 140.566 32.312 140.098 32.312H132.658V31.256C132.658 30.656 132.178 30.296 131.578 30.296C130.978 30.296 130.498 30.656 130.498 31.256V32.972ZM142.078 29.96C142.078 30.392 142.426 30.728 142.858 30.728C145.15 30.728 147.046 30.728 149.206 30.5C149.65 30.452 149.938 30.152 149.938 29.732C149.938 29.3 149.59 28.964 149.158 28.964C149.11 28.964 149.038 28.976 148.93 28.988C148.342 29.06 147.706 29.096 147.01 29.132V28.472H147.838C148.642 28.472 149.302 27.752 149.302 26.852C149.302 25.952 148.642 25.232 147.838 25.232H144.046C143.242 25.232 142.582 25.952 142.582 26.852C142.582 27.752 143.242 28.472 144.046 28.472H144.874V29.192H142.858C142.426 29.192 142.078 29.528 142.078 29.96ZM150.238 30.872C150.238 31.496 150.718 31.892 151.318 31.892C151.918 31.892 152.398 31.496 152.398 30.872V27.968H153.046C153.514 27.968 153.886 27.596 153.886 27.128C153.886 26.66 153.514 26.288 153.046 26.288H152.398V23.804C152.398 23.192 151.918 22.724 151.318 22.724C150.718 22.724 150.238 23.192 150.238 23.804V30.872ZM142.822 32.972C142.822 33.596 143.314 33.992 143.842 33.992H152.026C152.434 33.992 152.758 33.644 152.758 33.236C152.758 32.828 152.434 32.48 152.026 32.48H144.982V31.988C144.982 31.388 144.502 31.088 143.902 31.088C143.302 31.088 142.822 31.388 142.822 31.988V32.972ZM142.402 24.104C142.402 24.512 142.726 24.824 143.134 24.824H148.762C149.158 24.824 149.482 24.5 149.482 24.104C149.482 23.708 149.158 23.384 148.762 23.384H147.022V23.24C147.022 22.628 146.542 22.46 145.942 22.46C145.342 22.46 144.862 22.628 144.862 23.24V23.384H143.134C142.726 23.384 142.402 23.696 142.402 24.104ZM144.502 26.852C144.502 26.696 144.61 26.552 144.754 26.552H147.13C147.274 26.552 147.382 26.696 147.382 26.852C147.382 27.008 147.274 27.152 147.13 27.152H144.754C144.61 27.152 144.502 27.008 144.502 26.852ZM153.958 32.612C153.958 33.188 154.378 33.632 154.978 33.632C155.254 33.632 155.518 33.548 155.698 33.392C156.646 32.576 157.318 31.652 157.738 30.344C158.17 31.628 158.83 32.516 159.778 33.332C159.958 33.488 160.222 33.572 160.498 33.572C161.098 33.572 161.518 33.128 161.518 32.552C161.518 32.204 161.374 31.916 161.146 31.724C159.562 30.416 158.818 28.616 158.818 25.472V23.924C158.818 23.324 158.338 22.844 157.738 22.844C157.138 22.844 156.658 23.324 156.658 23.924V25.472C156.658 28.616 155.902 30.464 154.318 31.772C154.09 31.964 153.958 32.264 153.958 32.612ZM162.694 33.032C162.694 33.656 163.174 34.112 163.774 34.112C164.374 34.112 164.854 33.656 164.854 33.032V23.804C164.854 23.192 164.374 22.724 163.774 22.724C163.174 22.724 162.694 23.192 162.694 23.804V26.648H161.014C160.486 26.648 160.066 27.068 160.066 27.596C160.066 28.124 160.486 28.544 161.014 28.544H162.694V33.032ZM172.03 33.512C172.486 33.512 172.858 33.14 172.858 32.684V24.152C172.858 23.552 172.39 23.084 171.802 23.084C171.214 23.084 170.746 23.552 170.746 24.152V26.576H168.43V24.152C168.43 23.552 167.962 23.084 167.374 23.084C166.786 23.084 166.318 23.552 166.318 24.152V32.684C166.318 33.14 166.69 33.512 167.146 33.512H172.03ZM174.574 33.032C174.574 33.656 175.054 34.112 175.654 34.112C176.254 34.112 176.734 33.656 176.734 33.032V23.804C176.734 23.192 176.254 22.724 175.654 22.724C175.054 22.724 174.574 23.192 174.574 23.804V33.032ZM168.43 31.76V28.328H170.746V31.76H168.43ZM179.146 27.8C178.69 27.896 178.378 28.268 178.378 28.724C178.378 29.228 178.786 29.66 179.29 29.66C179.374 29.66 179.47 29.648 179.53 29.636C181.39 29.264 182.818 28.316 183.598 26.96C184.378 28.316 185.794 29.264 187.666 29.636C187.726 29.648 187.822 29.66 187.906 29.66C188.41 29.66 188.818 29.228 188.818 28.724C188.818 28.268 188.506 27.896 188.05 27.8C186.106 27.392 184.678 25.856 184.678 24.344V23.636C184.678 23.156 184.222 22.724 183.622 22.724C182.998 22.724 182.518 23.156 182.518 23.636V24.344C182.518 25.856 181.09 27.392 179.146 27.8ZM178.078 32.792C178.078 33.272 178.498 33.692 178.99 33.692H188.194C188.71 33.692 189.118 33.272 189.118 32.792C189.118 32.3 188.71 31.892 188.194 31.892H178.99C178.498 31.892 178.078 32.3 178.078 32.792ZM91.296 53.656C91.904 53.656 92.4 53.16 92.4 52.552V48.792C92.4 48.184 91.904 47.688 91.296 47.688H80.736C80.128 47.688 79.632 48.184 79.632 48.792V52.552C79.632 53.16 80.128 53.656 80.736 53.656H91.296ZM78.96 45.384C78.96 45.992 79.456 46.488 80.064 46.488H80.864C83.744 46.488 86.032 46.344 88.288 45.8C88.752 45.688 89.12 45.256 89.12 44.744C89.12 44.136 88.624 43.64 88.016 43.64C87.92 43.64 87.792 43.656 87.728 43.672C85.968 44.104 83.952 44.28 81.808 44.28V41.24H86.576C87.184 41.24 87.68 40.744 87.68 40.136C87.68 39.528 87.184 39.032 86.576 39.032H80.064C79.456 39.032 78.96 39.528 78.96 40.136V45.384ZM89.52 45.848C89.52 46.68 90.16 47.288 90.96 47.288C91.76 47.288 92.4 46.68 92.4 45.848V43.912H93.264C93.888 43.912 94.384 43.416 94.384 42.792C94.384 42.168 93.888 41.672 93.264 41.672H92.4V40.072C92.4 39.256 91.76 38.632 90.96 38.632C90.16 38.632 89.52 39.256 89.52 40.072V45.848ZM82.48 49.864H89.552V51.48H82.48V49.864ZM102.032 41.672C102.032 45.224 101.504 47.992 99.984 50.744C99.808 51.064 99.712 51.32 99.712 51.672C99.712 52.44 100.32 53.016 101.088 53.016C101.552 53.016 102 52.808 102.24 52.376C104.032 49.16 104.752 45.56 104.752 41.176V40.392C104.752 39.768 104.256 39.272 103.632 39.272H101.28C100.624 39.272 100.256 39.8 100.256 40.488C100.256 41.144 100.624 41.672 101.28 41.672H102.032ZM106.048 52.424C106.048 53.224 106.672 53.816 107.456 53.816C108.224 53.816 108.848 53.224 108.848 52.424V40.024C108.848 39.24 108.224 38.632 107.456 38.632C106.672 38.632 106.048 39.24 106.048 40.024V52.424ZM97.216 41.672C97.216 44.904 96.8 47.352 95.024 49.944C94.816 50.248 94.736 50.52 94.736 50.872C94.736 51.64 95.344 52.216 96.112 52.216C96.576 52.216 97.008 52.04 97.296 51.608C99.344 48.536 99.936 45.208 99.936 41.176V40.392C99.936 39.768 99.44 39.272 98.816 39.272H95.904C95.248 39.272 94.88 39.8 94.88 40.488C94.88 41.144 95.248 41.672 95.904 41.672H97.216Z" fill="white"/>
<defs>
<clipPath id="clip0_1023_17">
<rect width="44" height="44" fill="white" transform="translate(28 15)"/>
</clipPath>
</defs>
</svg>
