<svg width="201" height="17" viewBox="0 0 201 17" fill="none" xmlns="http://www.w3.org/2000/svg">
<path d="M1.92095 3.228H5.30495V10.824H1.92095V3.228ZM0.534951 11.994H6.67295V2.058H0.534951V11.994ZM12.271 0.186V6.576H10.093V0.545999H8.70695V15.522H10.093V7.782H12.271V16.314H13.675V0.186H12.271ZM25.8235 7.998C23.4475 7.206 21.9175 5.316 21.9175 3.21V2.58H25.4815V1.392H16.8235V2.58H20.4415V3.21C20.4415 5.532 18.8215 7.62 16.3915 8.466L17.1475 9.636C19.0735 8.952 20.5315 7.512 21.2155 5.676C21.8995 7.278 23.2855 8.556 25.1215 9.15L25.8235 7.998ZM23.8615 15.144C21.4495 15.144 20.0095 14.478 20.0095 13.326C20.0095 12.192 21.4495 11.526 23.8615 11.526C26.2375 11.526 27.6955 12.192 27.6955 13.326C27.6955 14.478 26.2375 15.144 23.8615 15.144ZM23.8615 10.356C20.5495 10.356 18.5335 11.454 18.5335 13.326C18.5335 15.216 20.5495 16.314 23.8615 16.314C27.1375 16.314 29.1715 15.216 29.1715 13.326C29.1715 11.454 27.1375 10.356 23.8615 10.356ZM28.9915 4.272V0.204H27.5155V9.942H28.9915V5.514H31.3855V4.272H28.9915ZM45.5615 4.38V5.586H48.7475V9.816H50.2415V0.204H48.7475V4.38H45.5615ZM46.4615 8.052C44.1215 7.224 42.5375 5.19 42.5375 3.12V2.562H46.0835V1.374H37.4615V2.562H41.0615V3.12C41.0615 5.442 39.4055 7.62 36.9935 8.502L37.7675 9.672C39.6575 8.952 41.1515 7.44 41.8355 5.568C42.5375 7.224 43.9235 8.556 45.7235 9.204L46.4615 8.052ZM44.9135 15.18C42.4835 15.18 41.0075 14.496 41.0075 13.326C41.0075 12.156 42.4835 11.454 44.9135 11.454C47.3435 11.454 48.8195 12.156 48.8195 13.326C48.8195 14.496 47.3435 15.18 44.9135 15.18ZM44.9135 10.32C41.6015 10.32 39.5315 11.418 39.5315 13.326C39.5315 15.234 41.6015 16.332 44.9135 16.332C48.2255 16.332 50.2775 15.234 50.2775 13.326C50.2775 11.418 48.2255 10.32 44.9135 10.32ZM56.6301 5.424H64.8741V8.394H56.6301V5.424ZM61.4901 13.056V9.582H66.3141V1.338H64.8741V4.218H56.6301V1.338H55.1721V9.582H59.9961V13.056H53.4441V14.262H68.0781V13.056H61.4901ZM81.2527 3.012H71.8207V6.468H82.9987V5.406H73.2787V4.02H82.7107V0.653999H71.7847V1.698H81.2527V3.012ZM73.1887 13.56H82.7647V10.122H71.6947V11.184H81.3067V12.534H71.7307V16.116H83.2687V15.054H73.1887V13.56ZM69.9487 7.692V8.808H84.5827V7.692H69.9487ZM92.7107 2.94H98.5787V1.716H91.2347V12.372H92.4767C95.5367 12.372 97.4807 12.264 99.8207 11.832L99.6407 10.608C97.4627 11.022 95.5727 11.13 92.7107 11.13V2.94ZM102.251 0.186V6.036H97.6247V7.26H102.251V16.368H103.727V0.186H102.251ZM112.647 4.344C112.647 2.958 113.799 1.95 115.365 1.95C116.949 1.95 118.101 2.958 118.101 4.344C118.101 5.766 116.949 6.756 115.365 6.756C113.799 6.756 112.647 5.766 112.647 4.344ZM119.541 4.344C119.541 2.238 117.795 0.762 115.365 0.762C112.953 0.762 111.207 2.238 111.207 4.344C111.207 6.486 112.953 7.962 115.365 7.962C117.795 7.962 119.541 6.486 119.541 4.344ZM114.663 13.128H123.429V9.168H113.169V10.338H121.971V12.03H113.223V16.116H124.023V14.928H114.663V13.128ZM123.429 3.66V0.186H121.953V8.412H123.429V4.884H125.823V3.66H123.429ZM138.799 3.408C138.799 5.352 138.799 7.62 138.187 10.716L139.663 10.878C140.275 7.62 140.275 5.406 140.275 3.408V1.806H128.953V3.012H138.799V3.408ZM134.569 12.858V7.08H133.093V12.858H127.423V14.064H142.021V12.858H134.569ZM157.158 0.204H155.682V9.168H157.158V0.204ZM153.666 7.368C151.29 6.594 149.598 4.596 149.598 2.364V0.78H148.122V2.364C148.122 4.686 146.448 6.828 144 7.674L144.756 8.844C146.682 8.16 148.176 6.684 148.878 4.83C149.616 6.558 151.092 7.89 152.964 8.538L153.666 7.368ZM150.156 11.328H153.576V14.928H150.156V11.328ZM155.034 14.928V11.328H157.248V10.14H146.466V11.328H148.698V14.928H146.322V16.116H157.428V14.928H155.034ZM162.574 2.958H168.604V1.734H161.098V12.336H162.376C165.418 12.336 167.542 12.228 170.008 11.76L169.846 10.536C167.506 10.95 165.436 11.076 162.574 11.076V2.958ZM175.498 6.558H172.834V0.186H171.358V16.368H172.834V7.782H175.498V6.558ZM183.579 7.962H179.115V2.778H183.579V7.962ZM188.727 4.236V6.486H185.019V4.236H188.727ZM185.019 7.692H188.727V11.976H190.221V0.204H188.727V3.03H185.019V1.608H177.657V9.132H185.019V7.692ZM181.311 14.766V10.932H179.835V15.972H190.599V14.766H181.311ZM195.674 11.022H197.132C196.808 8.196 200.048 7.134 200.048 4.488C200.048 2.526 198.716 1.284 196.682 1.284C195.224 1.284 194.072 1.986 193.244 2.94L194.18 3.804C194.81 3.084 195.602 2.652 196.502 2.652C197.78 2.652 198.446 3.516 198.446 4.596C198.446 6.738 195.26 7.89 195.674 11.022ZM196.448 15.234C197.114 15.234 197.654 14.73 197.654 13.992C197.654 13.254 197.114 12.714 196.448 12.714C195.8 12.714 195.26 13.254 195.26 13.992C195.26 14.73 195.8 15.234 196.448 15.234Z" fill="#65B683"/>
</svg>
