<svg width="375" height="319" viewBox="0 0 375 319" fill="none" xmlns="http://www.w3.org/2000/svg">
<g clip-path="url(#clip0_943_3)">
<path d="M90.634 85.2309V88.4304H81.9695V94.3997H78.5972V88.4304H69.9688V85.2189L90.634 85.2309ZM74.9611 79.6675H89.1699V82.8909H71.5049V71.7402H75.009L74.9611 79.6675Z" fill="#65B683"/>
<path d="M106.835 84.9919L108.035 75.1903H94.2344V71.8953H111.599V75.2023L110.315 85.0039H113.172V88.2153H104.519V94.4115H101.159V88.2273H92.5063V85.0277L106.835 84.9919Z" fill="#65B683"/>
<path d="M128.245 91.0092V94.3043H115.74V71.8955H119.472V90.9973L128.245 91.0092ZM134.089 79.381H136.489V82.5448H134.089V94.3998H130.669V71.7761H134.089V79.381Z" fill="#65B683"/>
<path d="M165.147 85.7441V88.9556H156.494V94.4354H153.134V88.9556H144.481V85.7441H165.147ZM163.49 71.9192V83.0221H146.125V71.9311L163.49 71.9192ZM160.034 74.8322H149.713V80.0971H159.974L160.034 74.8322Z" fill="#65B683"/>
<path d="M171.867 91.2122V87.0337H168.483V77.9484H182.356V75.2384H168.483V71.9075H186.088V81.0644H172.215V83.6909H186.28V87.0217H183.184V91.2003H187.624V94.3998H166.935V91.2003L171.867 91.2122ZM175.467 91.2122H179.548V87.0337H175.467V91.2122Z" fill="#65B683"/>
<path d="M198.088 91.224V86.938H190.888V77.9721H205.289V75.1546H190.888V71.9551H208.481V80.9687H194.08V83.7265H208.625V86.938H201.293V91.2478H209.969V94.4593H189.292V91.2598L198.088 91.224Z" fill="#65B683"/>
<path d="M226.77 71.8119C228.283 71.8587 229.718 72.4937 230.766 73.5807C231.813 74.6678 232.391 76.1201 232.375 77.626V88.6334C232.384 90.1525 231.791 91.614 230.724 92.7005C229.656 93.7869 228.201 94.4104 226.674 94.4356H225.474C224.702 94.4434 223.935 94.2989 223.219 94.0102C222.503 93.7216 221.852 93.2946 221.303 92.7539C220.754 92.2132 220.318 91.5696 220.02 90.8603C219.723 90.151 219.57 89.39 219.57 88.6215V77.626C219.571 76.8569 219.726 76.0957 220.025 75.3863C220.323 74.6769 220.76 74.0334 221.31 73.4929C221.86 72.9523 222.513 72.5255 223.229 72.237C223.946 71.9485 224.713 71.804 225.486 71.8119H226.77ZM225.498 75.2025C224.849 75.1959 224.224 75.4419 223.755 75.8881C223.287 76.3343 223.012 76.9452 222.99 77.5902V88.5856C223.009 89.2296 223.281 89.8404 223.748 90.2869C224.214 90.7334 224.839 90.9799 225.486 90.9734H226.566C227.203 90.9734 227.813 90.7218 228.263 90.274C228.713 89.8262 228.966 89.2189 228.966 88.5856V77.626C228.967 77.005 228.724 76.4082 228.289 75.9625C227.854 75.5167 227.262 75.2569 226.638 75.2383L225.498 75.2025ZM238.807 94.4475H235.111V71.7642H238.819L238.807 94.4475Z" fill="#65B683"/>
<path d="M246.74 71.9433H256.844C257.389 71.9017 257.937 71.9697 258.454 72.1432C258.972 72.3167 259.449 72.5921 259.858 72.9531C260.266 73.3141 260.597 73.7532 260.831 74.2443C261.065 74.7354 261.198 75.2683 261.22 75.8113C261.243 76.3543 261.155 76.8963 260.963 77.405C260.77 77.9136 260.477 78.3784 260.1 78.7717C259.722 79.165 259.27 79.4788 258.768 79.6942C258.267 79.9096 257.727 80.0224 257.18 80.0257V82.2701H262.124V85.0399H241.447V82.2701H246.38V80.0257C245.833 80.0224 245.293 79.9096 244.792 79.6942C244.29 79.4788 243.837 79.165 243.46 78.7717C243.083 78.3784 242.79 77.9136 242.597 77.405C242.405 76.8963 242.317 76.3543 242.34 75.8113C242.362 75.2683 242.494 74.7354 242.728 74.2443C242.963 73.7532 243.294 73.3141 243.702 72.9531C244.11 72.5921 244.588 72.3167 245.105 72.1432C245.623 71.9697 246.171 71.9017 246.716 71.9433H246.74ZM246.74 86.3651H256.832C257.384 86.3352 257.937 86.4176 258.456 86.6072C258.975 86.7968 259.449 87.0897 259.851 87.4679C260.252 87.846 260.572 88.3017 260.79 88.8069C261.009 89.3121 261.121 89.8563 261.121 90.4063C261.121 90.9563 261.009 91.5005 260.79 92.0057C260.572 92.511 260.252 92.9666 259.851 93.3448C259.449 93.723 258.975 94.0158 258.456 94.2054C257.937 94.395 257.384 94.4774 256.832 94.4475H246.74C246.188 94.4774 245.635 94.395 245.116 94.2054C244.597 94.0158 244.123 93.723 243.721 93.3448C243.32 92.9666 243 92.511 242.782 92.0057C242.563 91.5005 242.45 90.9563 242.45 90.4063C242.45 89.8563 242.563 89.3121 242.782 88.8069C243 88.3017 243.32 87.846 243.721 87.4679C244.123 87.0897 244.597 86.7968 245.116 86.6072C245.635 86.4176 246.188 86.3352 246.74 86.3651V86.3651ZM246.74 91.5106H256.832C257.113 91.4952 257.378 91.3724 257.57 91.1677C257.762 90.9631 257.868 90.6924 257.864 90.4123C257.868 90.1309 257.763 89.8589 257.571 89.6523C257.379 89.4457 257.114 89.3203 256.832 89.302H246.74C246.458 89.3174 246.194 89.4402 246.002 89.6449C245.809 89.8495 245.704 90.1202 245.707 90.4003C245.704 90.6817 245.809 90.9537 246.001 91.1603C246.193 91.3669 246.457 91.4923 246.74 91.5106ZM246.74 77.0768H256.844C257.125 77.0615 257.39 76.9386 257.582 76.734C257.774 76.5293 257.88 76.2587 257.876 75.9785C257.88 75.6972 257.775 75.4251 257.583 75.2185C257.391 75.0119 257.126 74.8866 256.844 74.8682H246.74C246.447 74.8682 246.166 74.9839 245.959 75.1899C245.752 75.3959 245.636 75.6753 245.636 75.9666C245.636 76.2579 245.752 76.5372 245.959 76.7432C246.166 76.9492 246.447 77.0649 246.74 77.0649V77.0768ZM249.572 82.2701H254V80.0257H249.584L249.572 82.2701Z" fill="#65B683"/>
<path d="M272.505 73.2922H277.149V76.2769H264.525V73.2803H269.181V71H272.541L272.505 73.2922ZM271.689 77.7334C272.938 77.711 274.145 78.1824 275.045 79.0441C275.945 79.9058 276.464 81.0874 276.489 82.3298V89.7436C276.478 90.3593 276.346 90.9667 276.098 91.5311C275.851 92.0955 275.494 92.6059 275.048 93.0329C274.602 93.4598 274.076 93.7951 273.5 94.0194C272.923 94.2437 272.308 94.3526 271.689 94.34H269.901C269.282 94.3526 268.667 94.2437 268.091 94.0194C267.514 93.7951 266.988 93.4598 266.542 93.0329C266.096 92.6059 265.739 92.0955 265.492 91.5311C265.244 90.9667 265.112 90.3593 265.101 89.7436V82.3298C265.126 81.0874 265.645 79.9058 266.545 79.0441C267.445 78.1824 268.652 77.711 269.901 77.7334H271.689ZM270.921 91.1285C271.207 91.15 271.495 91.1121 271.766 91.0172C272.037 90.9223 272.286 90.7725 272.496 90.5773C272.705 90.382 272.872 90.1456 272.985 89.8829C273.098 89.6202 273.156 89.337 273.153 89.0512V83.0819C273.155 82.7951 273.098 82.5109 272.985 82.2471C272.872 81.9832 272.706 81.7454 272.497 81.5483C272.287 81.3511 272.039 81.199 271.768 81.1014C271.497 81.0037 271.209 80.9627 270.921 80.9807H270.681C270.393 80.9627 270.105 81.0037 269.834 81.1014C269.563 81.199 269.315 81.3511 269.106 81.5483C268.896 81.7454 268.73 81.9832 268.617 82.2471C268.504 82.5109 268.447 82.7951 268.449 83.0819V89.0512C268.448 89.3375 268.507 89.621 268.621 89.8837C268.736 90.1464 268.904 90.3827 269.115 90.5778C269.325 90.7728 269.574 90.9225 269.846 91.0172C270.118 91.112 270.406 91.1499 270.693 91.1285H270.921ZM283.114 80.8971H285.514V84.1564H283.114V94.4593H279.73V71.8357H283.126L283.114 80.8971Z" fill="#65B683"/>
<path d="M307.067 83.3564V86.5679H291.466V91.2837H305.939V94.5429H288.022V86.5799H286.378V83.3564H307.067ZM291.154 77.3871H305.555V80.6225H287.89V71.8237H291.154V77.3871Z" fill="#65B683"/>
<path d="M67.7367 111.269V114.397H59.7322V130.43H67.8567V133.654H56V111.269H67.7367ZM76.8092 118.754V121.918H74.4091V133.785H70.9889V111.102H74.3971V118.707L76.8092 118.754Z" fill="#65B683"/>
<path d="M90.238 123.1C90.238 125.177 88.4978 126.896 86.1217 127.47V130.55H94.1022V111.161H97.4625V133.785H77.6252V130.55H82.6535V127.529C80.2533 126.956 78.5373 125.225 78.5373 123.148V120.975C78.5373 118.432 81.1415 116.402 84.3817 116.402C87.6219 116.402 90.226 118.444 90.226 120.975L90.238 123.1ZM82.7616 112.188V110.338H86.0858V112.176H90.8861V115.161H78.0212V112.176L82.7616 112.188ZM81.8735 122.611C81.9745 123.203 82.2829 123.74 82.7442 124.128C83.2054 124.516 83.7899 124.728 84.3937 124.728C84.9975 124.728 85.5818 124.516 86.043 124.128C86.5043 123.74 86.8128 123.203 86.9138 122.611V121.417C86.8128 120.824 86.5043 120.287 86.043 119.899C85.5818 119.512 84.9975 119.299 84.3937 119.299C83.7899 119.299 83.2054 119.512 82.7442 119.899C82.2829 120.287 81.9745 120.824 81.8735 121.417V122.611Z" fill="#65B683"/>
<path d="M105.407 111.281H115.5C116.044 111.239 116.592 111.307 117.11 111.481C117.627 111.654 118.105 111.93 118.513 112.291C118.922 112.652 119.253 113.091 119.487 113.582C119.721 114.073 119.853 114.606 119.876 115.149C119.898 115.692 119.811 116.234 119.618 116.743C119.426 117.251 119.132 117.716 118.755 118.109C118.378 118.503 117.925 118.816 117.424 119.032C116.922 119.247 116.382 119.36 115.836 119.363V121.608H120.792V124.389H100.115V121.62H105.059V119.363C104.513 119.358 103.974 119.244 103.474 119.027C102.974 118.811 102.522 118.496 102.146 118.103C101.771 117.709 101.478 117.244 101.287 116.735C101.096 116.227 101.009 115.685 101.033 115.143C101.056 114.601 101.189 114.069 101.423 113.578C101.657 113.088 101.989 112.65 102.397 112.289C102.805 111.929 103.282 111.654 103.799 111.481C104.316 111.308 104.863 111.24 105.407 111.281V111.281ZM105.407 125.703H115.512C116.064 125.673 116.616 125.755 117.135 125.945C117.654 126.134 118.129 126.427 118.53 126.806C118.932 127.184 119.251 127.639 119.47 128.145C119.688 128.65 119.801 129.194 119.801 129.744C119.801 130.294 119.688 130.838 119.47 131.343C119.251 131.849 118.932 132.304 118.53 132.682C118.129 133.061 117.654 133.353 117.135 133.543C116.616 133.733 116.064 133.815 115.512 133.785H105.419C104.885 133.785 104.356 133.68 103.862 133.477C103.369 133.274 102.92 132.976 102.542 132.6C102.165 132.224 101.865 131.778 101.661 131.287C101.456 130.796 101.351 130.269 101.351 129.738C101.351 129.206 101.456 128.68 101.661 128.189C101.865 127.698 102.165 127.252 102.542 126.876C102.92 126.5 103.369 126.202 103.862 125.999C104.356 125.795 104.885 125.691 105.419 125.691L105.407 125.703ZM105.407 130.848H115.512C115.804 130.848 116.085 130.733 116.292 130.527C116.499 130.321 116.616 130.041 116.616 129.75C116.616 129.459 116.499 129.179 116.292 128.973C116.085 128.767 115.804 128.652 115.512 128.652H105.407C105.114 128.652 104.833 128.767 104.626 128.973C104.419 129.179 104.303 129.459 104.303 129.75C104.303 130.041 104.419 130.321 104.626 130.527C104.833 130.733 105.114 130.848 105.407 130.848V130.848ZM105.407 116.426H115.512C115.804 116.426 116.085 116.311 116.292 116.105C116.499 115.899 116.616 115.619 116.616 115.328C116.616 115.037 116.499 114.757 116.292 114.551C116.085 114.345 115.804 114.23 115.512 114.23H105.419C105.126 114.23 104.845 114.345 104.638 114.551C104.431 114.757 104.315 115.037 104.315 115.328C104.315 115.619 104.431 115.899 104.638 116.105C104.845 116.311 105.126 116.426 105.419 116.426H105.407ZM108.251 121.62H112.667V119.375H108.251V121.62Z" fill="#65B683"/>
<path d="M131.173 114.504H122.544V111.293H134.941V114.504L132.169 133.606H128.472L131.173 114.504ZM142.369 133.809H138.661V111.126H142.357L142.369 133.809Z" fill="#65B683"/>
<path d="M172.827 121.739V124.676H164.643V128.508H161.258V124.676H157.262V130.514H171.663V133.821H153.782V124.688H152.15V121.739H172.827ZM172.035 119.518H167.463L162.579 114.062L157.694 119.518H153.134L160.334 111.269H164.907L172.035 119.518Z" fill="#65B683"/>
<path d="M182.992 110.385V112.009H187.576V115.256H185.44C186.006 115.873 186.322 116.677 186.328 117.513V119.172C186.258 120.042 185.901 120.865 185.313 121.512C184.725 122.16 183.938 122.596 183.076 122.754V124.055H190.444V111.197H193.852V116.343H196.252V119.59H193.852V127.219H179.715V130.562H194.188V133.809H176.295V127.207H174.663V124.019H179.595V122.754C178.71 122.605 177.902 122.163 177.301 121.5C176.699 120.837 176.341 119.992 176.283 119.101V117.501C176.28 116.672 176.589 115.872 177.147 115.256H175.035V112.009H179.667V110.374L182.992 110.385ZM179.283 118.743C179.365 119.205 179.607 119.623 179.968 119.925C180.329 120.227 180.786 120.393 181.257 120.393C181.729 120.393 182.186 120.227 182.547 119.925C182.908 119.623 183.15 119.205 183.232 118.743V117.978C183.167 117.503 182.931 117.067 182.568 116.752C182.205 116.436 181.74 116.262 181.257 116.262C180.775 116.262 180.31 116.436 179.947 116.752C179.584 117.067 179.348 117.503 179.283 117.978V118.743Z" fill="#65B683"/>
<path d="M214.158 133.714L210.989 119.172L207.833 133.69H204.377L209.441 111.293H212.682L217.722 133.678L214.158 133.714ZM224.01 133.833H220.674V121.894H216.606V118.647H220.662V111.257H224.01V133.833Z" fill="#65B683"/>
<path d="M239.611 133.845H228.378V111.209H231.739V118.599H236.263V111.209H239.659L239.611 133.845ZM231.703 130.586H236.215V122.229H231.691L231.703 130.586ZM246.487 134.012H243.091V111.209H246.487V134.012Z" fill="#65B683"/>
<path d="M269.805 130.717V133.857H249.14V130.729L269.805 130.717ZM264.776 126.24L259.472 115.722L254.144 126.24H249.98L257.18 111.293H261.752L268.953 126.252L264.776 126.24Z" fill="#65B683"/>
<path d="M279.298 111.329H290.566V114.397H282.73V119.901H290.566V122.969H279.286L279.298 111.329ZM280.294 125.368H294.49V111.233H297.875V116.009H300.275V119.256H297.875V133.881H280.294V125.368ZM283.69 130.944H294.49V128.293H283.69V130.944Z" fill="#65B683"/>
<path d="M311.651 114.564H308.783L305.531 133.749H302.195L305.375 114.564H301.139V111.353H315.035V114.552L311.903 133.737H308.567L311.651 114.564ZM320.988 133.869H317.292V111.245H320.988V133.869Z" fill="#65B683"/>
<path d="M86.8382 172.784V180.976H88.1662V172.784H86.8382ZM87.7982 176.32V177.408H90.3102V176.32H87.7982ZM77.6062 179.056V180.16H78.7262C81.7662 180.16 83.4782 180.064 85.4622 179.664L85.3182 178.576C83.3822 178.976 81.7022 179.056 78.7262 179.056H77.6062ZM77.6062 173.744V179.68H78.9182V174.832H83.9742V173.744H77.6062ZM79.0782 181.744V187.056H88.1662V181.744H79.0782ZM86.8702 182.816V185.968H80.3742V182.816H86.8702ZM102.149 172.784V187.248H103.461V172.784H102.149ZM94.8369 174.336V174.48C94.8369 177.744 93.9569 180.752 91.6049 183.184L92.6609 183.968C95.2529 181.2 96.0689 177.792 96.0689 174.336H94.8369ZM92.1329 174.336V175.44H95.3329V174.336H92.1329ZM98.8689 174.336V174.464C98.8689 177.792 98.2609 181.376 95.8449 184.208L96.9489 184.928C99.5569 181.808 100.101 177.792 100.101 174.336H98.8689ZM96.5489 174.336V175.44H99.3329V174.336H96.5489ZM108.052 177.12V178.208H117.876V177.12H108.052ZM106.276 180.144V181.232H119.396V180.144H106.276ZM108.052 173.312V177.664H109.364V173.312H108.052ZM107.956 185.808V186.896H117.956V185.808H107.956ZM107.956 182.672V186.096H109.268V182.672H107.956ZM125.005 174.144V183.632H130.525V174.144H129.293V177.68H126.269V174.144H125.005ZM126.269 178.752H129.293V182.544H126.269V178.752ZM135.501 172.784V187.248H136.781V172.784H135.501ZM133.181 178.512V179.6H135.965V178.512H133.181ZM132.301 173.088V186.528H133.565V173.088H132.301ZM139.803 178.448V179.536H140.923C143.883 179.536 145.643 179.44 147.691 179.024L147.531 177.952C145.547 178.352 143.835 178.448 140.923 178.448H139.803ZM139.803 173.616V179.088H141.115V174.688H146.187V173.616H139.803ZM149.051 172.784V180.064H150.379V172.784H149.051ZM150.011 175.824V176.928H152.523V175.824H150.011ZM141.195 180.8V181.856H149.083V183.344H141.227V186.608H142.539V184.368H150.379V180.8H141.195ZM141.227 185.984V187.056H150.907V185.984H141.227ZM160.362 173.104C157.226 173.104 155.274 174.128 155.274 175.84C155.274 177.552 157.226 178.56 160.362 178.56C163.482 178.56 165.45 177.552 165.45 175.84C165.45 174.128 163.482 173.104 160.362 173.104ZM160.362 174.16C162.65 174.16 164.09 174.768 164.09 175.84C164.09 176.896 162.65 177.52 160.362 177.52C158.058 177.52 156.634 176.896 156.634 175.84C156.634 174.768 158.058 174.16 160.362 174.16ZM155.418 182.288V187.056H165.29V182.288H155.418ZM163.994 183.36V185.984H156.73V183.36H163.994ZM153.818 179.808V180.88H166.89V179.808H153.818ZM172.265 173.472V174.88C172.265 177.04 170.809 179.04 168.617 179.84L169.289 180.896C171.737 179.968 173.369 177.616 173.369 174.88V173.472H172.265ZM172.505 173.472V174.88C172.505 177.536 174.137 179.744 176.553 180.624L177.225 179.584C175.081 178.832 173.593 176.96 173.593 174.88V173.472H172.505ZM170.697 182.224V183.312H179.017V187.248H180.361V182.224H170.697ZM179.017 172.784V181.488H180.361V172.784H179.017ZM189.704 173.024C186.504 173.024 184.616 173.92 184.616 175.536C184.616 177.152 186.504 178.048 189.704 178.048C192.888 178.048 194.792 177.152 194.792 175.536C194.792 173.92 192.888 173.024 189.704 173.024ZM189.704 174.032C192.056 174.032 193.416 174.576 193.416 175.536C193.416 176.496 192.056 177.04 189.704 177.04C187.336 177.04 185.976 176.496 185.976 175.536C185.976 174.576 187.336 174.032 189.704 174.032ZM183.16 179.008V180.08H196.232V179.008H183.16ZM184.744 181.312V182.336H193.256V183.616H184.776V186.336H186.088V184.576H194.568V181.312H184.744ZM184.776 186.048V187.088H195V186.048H184.776ZM205.424 173.312C203.28 173.312 201.696 174.624 201.696 176.528C201.696 178.416 203.28 179.728 205.424 179.728C207.584 179.728 209.168 178.416 209.168 176.528C209.168 174.624 207.584 173.312 205.424 173.312ZM205.424 174.4C206.832 174.4 207.872 175.28 207.872 176.528C207.872 177.776 206.832 178.64 205.424 178.64C204.032 178.64 202.976 177.776 202.976 176.528C202.976 175.28 204.032 174.4 205.424 174.4ZM211.888 172.784V180.192H213.232V172.784H211.888ZM203.872 180.896V181.968H211.92V183.424H203.904V186.592H205.2V184.416H213.232V180.896H203.872ZM203.904 186V187.056H213.712V186H203.904ZM220.159 181.456V183.84H221.503V181.456H220.159ZM226.495 172.784V187.248H227.823V172.784H226.495ZM216.303 184.496C218.975 184.496 222.463 184.464 225.679 183.92L225.583 182.944C222.463 183.344 218.863 183.376 216.127 183.392L216.303 184.496ZM216.431 174.544V175.616H225.215V174.544H216.431ZM220.815 176.448C218.751 176.448 217.343 177.504 217.343 179.12C217.343 180.752 218.751 181.792 220.815 181.792C222.895 181.792 224.303 180.752 224.303 179.12C224.303 177.504 222.895 176.448 220.815 176.448ZM220.815 177.472C222.127 177.472 223.039 178.128 223.039 179.12C223.039 180.112 222.127 180.768 220.815 180.768C219.519 180.768 218.607 180.112 218.607 179.12C218.607 178.128 219.519 177.472 220.815 177.472ZM220.159 172.784V175.136H221.487V172.784H220.159ZM233.934 177.68V180.416H235.246V177.68H233.934ZM239.246 177.68V180.416H240.558V177.68H239.246ZM230.702 179.936V181.008H243.774V179.936H230.702ZM237.23 182.096C234.126 182.096 232.27 183.008 232.27 184.656C232.27 186.304 234.126 187.232 237.23 187.232C240.334 187.232 242.19 186.304 242.19 184.656C242.19 183.008 240.334 182.096 237.23 182.096ZM237.23 183.12C239.502 183.12 240.846 183.68 240.846 184.656C240.846 185.648 239.502 186.192 237.23 186.192C234.974 186.192 233.614 185.648 233.614 184.656C233.614 183.68 234.974 183.12 237.23 183.12ZM237.246 173.04C234.094 173.04 232.158 174.048 232.158 175.744C232.158 177.424 234.094 178.416 237.246 178.416C240.382 178.416 242.334 177.424 242.334 175.744C242.334 174.048 240.382 173.04 237.246 173.04ZM237.246 174.08C239.55 174.08 240.974 174.688 240.974 175.744C240.974 176.784 239.55 177.392 237.246 177.392C234.942 177.392 233.518 176.784 233.518 175.744C233.518 174.688 234.942 174.08 237.246 174.08ZM255.917 172.784V187.248H257.245V172.784H255.917ZM251.677 174.336V174.56C251.677 178.4 249.741 181.472 245.565 183.488L246.269 184.56C251.101 182.192 252.989 178.528 252.989 174.336H251.677ZM246.221 174.336V175.424H252.253V174.336H246.221ZM269.835 172.768V187.248H271.179V172.768H269.835ZM270.811 178.64V179.744H273.483V178.64H270.811ZM266.139 174.336V174.544C266.139 178.368 264.139 181.456 260.139 183.488L260.875 184.512C265.547 182.16 267.435 178.448 267.435 174.336H266.139ZM260.811 174.336V175.424H266.827V174.336H260.811ZM282.1 173.888C279.972 173.888 278.468 175.856 278.468 178.928C278.468 182.016 279.972 183.984 282.1 183.984C284.228 183.984 285.732 182.016 285.732 178.928C285.732 175.856 284.228 173.888 282.1 173.888ZM282.1 175.088C283.492 175.088 284.468 176.592 284.468 178.928C284.468 181.28 283.492 182.816 282.1 182.816C280.692 182.816 279.732 181.28 279.732 178.928C279.732 176.592 280.692 175.088 282.1 175.088ZM288.036 172.784V187.248H289.38V172.784H288.036ZM289.06 178.56V179.68H291.748V178.56H289.06ZM303.443 172.784V183.296H304.787V172.784H303.443ZM295.347 185.84V186.928H305.219V185.84H295.347ZM295.347 182.224V186.32H296.675V182.224H295.347ZM293.827 173.856V179.904H295.155V173.856H293.827ZM293.827 179.424V180.544H294.995C297.603 180.544 299.715 180.368 302.067 179.888L301.891 178.768C299.635 179.264 297.539 179.424 294.995 179.424H293.827ZM122.949 203.776V204.88C122.949 207.344 120.229 209.552 117.685 210.032L118.277 211.136C121.173 210.48 124.101 208.032 124.101 204.88V203.776H122.949ZM123.189 203.776V204.88C123.189 208.048 126.133 210.48 129.013 211.136L129.605 210.032C127.077 209.552 124.341 207.36 124.341 204.88V203.776H123.189ZM117.157 214.208V215.296H130.261V214.208H117.157ZM137.828 208.256V209.36H140.548V208.256H137.828ZM132.356 212.688V213.776H133.284C135.54 213.776 136.916 213.728 138.564 213.408L138.436 212.32C136.836 212.64 135.508 212.688 133.284 212.688H132.356ZM132.356 204.528V213.056H133.62V205.6H137.716V204.528H132.356ZM133.236 208.432V209.488H137.06V208.432H133.236ZM142.82 202.784V217.248H144.1V202.784H142.82ZM139.908 203.12V216.512H141.172V203.12H139.908ZM157.011 202.8V213.36H158.355V202.8H157.011ZM149.059 215.84V216.928H158.787V215.84H149.059ZM149.059 212.272V216.208H150.371V212.272H149.059ZM150.595 203.792C148.435 203.792 146.819 205.264 146.819 207.36C146.819 209.44 148.435 210.928 150.595 210.928C152.755 210.928 154.355 209.44 154.355 207.36C154.355 205.264 152.755 203.792 150.595 203.792ZM150.595 204.944C152.003 204.944 153.075 205.936 153.075 207.36C153.075 208.768 152.003 209.76 150.595 209.76C149.187 209.76 148.115 208.768 148.115 207.36C148.115 205.936 149.187 204.944 150.595 204.944ZM171.697 202.768V217.264H173.025V202.768H171.697ZM162.001 212.672V213.776H163.201C165.681 213.776 167.857 213.68 170.481 213.248L170.337 212.16C167.777 212.576 165.617 212.672 163.201 212.672H162.001ZM161.969 204.128V205.216H167.313V208.208H162.001V213.088H163.329V209.296H168.657V204.128H161.969ZM181.632 203.776V204.88C181.632 207.344 178.912 209.552 176.368 210.032L176.96 211.136C179.856 210.48 182.784 208.032 182.784 204.88V203.776H181.632ZM181.872 203.776V204.88C181.872 208.048 184.816 210.48 187.696 211.136L188.288 210.032C185.76 209.552 183.024 207.36 183.024 204.88V203.776H181.872ZM175.84 214.208V215.296H188.944V214.208H175.84ZM203.817 202.768V217.264H205.161V202.768H203.817ZM204.841 208.48V209.6H207.529V208.48H204.841ZM194.649 212.544V213.664H195.785C198.505 213.664 200.409 213.584 202.633 213.168L202.489 212.048C200.329 212.448 198.457 212.544 195.785 212.544H194.649ZM194.649 204.176V213.04H195.961V205.264H201.369V204.176H194.649ZM212.824 211.456V213.84H214.168V211.456H212.824ZM219.16 202.784V217.248H220.488V202.784H219.16ZM208.968 214.496C211.64 214.496 215.128 214.464 218.344 213.92L218.248 212.944C215.128 213.344 211.528 213.376 208.792 213.392L208.968 214.496ZM209.096 204.544V205.616H217.88V204.544H209.096ZM213.48 206.448C211.416 206.448 210.008 207.504 210.008 209.12C210.008 210.752 211.416 211.792 213.48 211.792C215.56 211.792 216.968 210.752 216.968 209.12C216.968 207.504 215.56 206.448 213.48 206.448ZM213.48 207.472C214.792 207.472 215.704 208.128 215.704 209.12C215.704 210.112 214.792 210.768 213.48 210.768C212.184 210.768 211.272 210.112 211.272 209.12C211.272 208.128 212.184 207.472 213.48 207.472ZM212.824 202.784V205.136H214.152V202.784H212.824ZM226.599 207.68V210.416H227.911V207.68H226.599ZM231.911 207.68V210.416H233.223V207.68H231.911ZM223.367 209.936V211.008H236.439V209.936H223.367ZM229.895 212.096C226.791 212.096 224.935 213.008 224.935 214.656C224.935 216.304 226.791 217.232 229.895 217.232C232.999 217.232 234.855 216.304 234.855 214.656C234.855 213.008 232.999 212.096 229.895 212.096ZM229.895 213.12C232.167 213.12 233.511 213.68 233.511 214.656C233.511 215.648 232.167 216.192 229.895 216.192C227.639 216.192 226.279 215.648 226.279 214.656C226.279 213.68 227.639 213.12 229.895 213.12ZM229.911 203.04C226.759 203.04 224.823 204.048 224.823 205.744C224.823 207.424 226.759 208.416 229.911 208.416C233.047 208.416 234.999 207.424 234.999 205.744C234.999 204.048 233.047 203.04 229.911 203.04ZM229.911 204.08C232.215 204.08 233.639 204.688 233.639 205.744C233.639 206.784 232.215 207.392 229.911 207.392C227.607 207.392 226.183 206.784 226.183 205.744C226.183 204.688 227.607 204.08 229.911 204.08ZM248.581 202.784V217.248H249.909V202.784H248.581ZM244.341 204.336V204.56C244.341 208.4 242.405 211.472 238.229 213.488L238.933 214.56C243.765 212.192 245.653 208.528 245.653 204.336H244.341ZM238.885 204.336V205.424H244.917V204.336H238.885ZM258.58 208.4V209.504H261.316V208.4H258.58ZM263.732 202.784V217.248H265.012V202.784H263.732ZM260.868 203.088V216.528H262.132V203.088H260.868ZM255.972 203.984C254.1 203.984 252.9 205.92 252.9 209.024C252.9 212.128 254.1 214.064 255.972 214.064C257.844 214.064 259.06 212.128 259.06 209.024C259.06 205.92 257.844 203.984 255.972 203.984ZM255.972 205.216C257.124 205.216 257.844 206.688 257.844 209.024C257.844 211.36 257.124 212.832 255.972 212.832C254.836 212.832 254.116 211.36 254.116 209.024C254.116 206.688 254.836 205.216 255.972 205.216ZM92.4085 232.784V241.248H93.7365V232.784H92.4085ZM93.3685 236.256V237.376H95.8805V236.256H93.3685ZM83.1125 233.584V240.336H89.8005V233.584H88.5045V235.792H84.4245V233.584H83.1125ZM84.4245 236.848H88.5045V239.264H84.4245V236.848ZM84.6965 242.032V246.736H86.0245V243.104H93.8485V242.032H84.6965ZM84.6965 245.968V247.056H94.1365V245.968H84.6965ZM103.719 233.024C100.519 233.024 98.6313 233.92 98.6313 235.536C98.6313 237.152 100.519 238.048 103.719 238.048C106.903 238.048 108.807 237.152 108.807 235.536C108.807 233.92 106.903 233.024 103.719 233.024ZM103.719 234.032C106.071 234.032 107.431 234.576 107.431 235.536C107.431 236.496 106.071 237.04 103.719 237.04C101.351 237.04 99.9913 236.496 99.9913 235.536C99.9913 234.576 101.351 234.032 103.719 234.032ZM97.1753 239.008V240.08H110.247V239.008H97.1753ZM98.7593 241.312V242.336H107.271V243.616H98.7913V246.336H100.103V244.576H108.583V241.312H98.7593ZM98.7913 246.048V247.088H109.015V246.048H98.7913ZM121.232 233.296V234.096C121.232 236.16 118.688 237.888 116.048 238.288L116.576 239.36C119.584 238.848 122.4 236.864 122.4 234.096V233.296H121.232ZM121.472 233.296V234.096C121.472 236.832 124.304 238.848 127.28 239.36L127.808 238.288C125.2 237.888 122.624 236.112 122.624 234.096V233.296H121.472ZM121.232 241.744V247.248H122.544V241.744H121.232ZM115.392 240.928V242.032H128.464V240.928H115.392ZM137.193 241.68V242.464C137.193 243.856 136.105 245.408 134.281 246.064L134.953 247.056C137.033 246.256 138.217 244.352 138.217 242.464V241.68H137.193ZM137.481 241.68V242.464C137.481 244.384 138.425 246.368 140.505 247.184L141.065 246.176C139.337 245.472 138.473 243.92 138.473 242.464V241.68H137.481ZM142.537 241.68V242.464C142.537 243.712 141.657 245.392 139.945 246.176L140.505 247.184C142.569 246.304 143.529 244.16 143.529 242.464V241.68H142.537ZM142.809 241.68V242.464C142.809 244.464 143.961 246.288 146.073 247.056L146.745 246.064C144.905 245.44 143.833 243.952 143.833 242.464V241.68H142.809ZM144.105 232.8V241.056H145.449V232.8H144.105ZM137.689 233.632C135.497 233.632 133.913 235.008 133.913 237.008C133.913 239.008 135.497 240.368 137.689 240.368C139.881 240.368 141.449 239.008 141.449 237.008C141.449 235.008 139.881 233.632 137.689 233.632ZM137.689 234.736C139.129 234.736 140.169 235.664 140.169 237.008C140.169 238.352 139.129 239.264 137.689 239.264C136.249 239.264 135.209 238.352 135.209 237.008C135.209 235.664 136.249 234.736 137.689 234.736ZM149.912 239.536V240.624H159.848V239.536H149.912ZM148.264 244.32V245.44H161.368V244.32H148.264ZM154.12 240V244.768H155.448V240H154.12ZM149.912 233.936V240.016H151.24V235.024H159.704V233.936H149.912ZM162.918 240.736V241.824H176.038V240.736H162.918ZM164.582 233.152V234.192H173.046V235.68H164.614V238.608H165.926V236.656H174.342V233.152H164.582ZM164.614 238.176V239.216H174.662V238.176H164.614ZM168.806 238.72V241.28H170.134V238.72H168.806ZM164.374 242.928V244.016H173.11V247.12H174.438V242.928H164.374ZM190.927 232.784V247.248H192.255V232.784H190.927ZM191.935 238.72V239.84H194.623V238.72H191.935ZM181.055 235.088V236.176H189.583V235.088H181.055ZM185.375 237.376C183.343 237.376 181.855 238.752 181.855 240.704C181.855 242.656 183.343 244.032 185.375 244.032C187.423 244.032 188.895 242.656 188.895 240.704C188.895 238.752 187.423 237.376 185.375 237.376ZM185.375 238.48C186.687 238.48 187.631 239.392 187.631 240.704C187.631 242 186.687 242.928 185.375 242.928C184.063 242.928 183.119 242 183.119 240.704C183.119 239.392 184.063 238.48 185.375 238.48ZM184.687 232.96V235.584H186.015V232.96H184.687ZM197.566 237.12V238.208H207.39V237.12H197.566ZM195.79 240.144V241.232H208.91V240.144H195.79ZM197.566 233.312V237.664H198.878V233.312H197.566ZM197.47 245.808V246.896H207.47V245.808H197.47ZM197.47 242.672V246.096H198.782V242.672H197.47ZM221.223 237.68V238.768H225.255V237.68H221.223ZM217.735 234.032V236.608C217.735 239.296 216.103 242.08 213.975 243.136L214.823 244.192C217.111 242.96 218.823 239.856 218.823 236.608V234.032H217.735ZM217.991 234.032V236.608C217.991 239.776 219.671 242.752 222.007 243.936L222.791 242.864C220.695 241.872 219.063 239.248 219.063 236.608V234.032H217.991ZM224.599 232.768V247.264H225.911V232.768H224.599ZM239.174 232.768V247.264H240.502V232.768H239.174ZM229.494 234V243.776H236.31V234H234.982V237.824H230.806V234H229.494ZM230.806 238.88H234.982V242.688H230.806V238.88ZM249.14 233.776V234.88C249.14 237.344 246.42 239.552 243.876 240.032L244.468 241.136C247.364 240.48 250.292 238.032 250.292 234.88V233.776H249.14ZM249.38 233.776V234.88C249.38 238.048 252.324 240.48 255.204 241.136L255.796 240.032C253.268 239.552 250.532 237.36 250.532 234.88V233.776H249.38ZM243.348 244.208V245.296H256.452V244.208H243.348ZM268.531 232.784V240.544H269.875V232.784H268.531ZM260.547 241.264V247.056H269.875V241.264H268.563V243.024H261.859V241.264H260.547ZM261.859 244.08H268.563V245.984H261.859V244.08ZM262.115 233.472C259.923 233.472 258.339 234.832 258.339 236.8C258.339 238.784 259.923 240.144 262.115 240.144C264.307 240.144 265.875 238.784 265.875 236.8C265.875 234.832 264.307 233.472 262.115 233.472ZM262.115 234.576C263.555 234.576 264.595 235.488 264.595 236.8C264.595 238.112 263.555 239.024 262.115 239.024C260.675 239.024 259.635 238.112 259.635 236.8C259.635 235.488 260.675 234.576 262.115 234.576ZM283.202 232.784V247.248H284.53V232.784H283.202ZM273.602 234.192V243.152H274.914V234.192H273.602ZM273.602 242.368V243.52H274.786C277.074 243.52 279.362 243.344 281.874 242.832L281.714 241.696C279.266 242.208 276.978 242.368 274.786 242.368H273.602ZM297.137 232.768V247.264H298.481V232.768H297.137ZM298.161 238.48V239.6H300.849V238.48H298.161ZM287.969 242.544V243.664H289.105C291.825 243.664 293.729 243.584 295.953 243.168L295.809 242.048C293.649 242.448 291.777 242.544 289.105 242.544H287.969ZM287.969 234.176V243.04H289.281V235.264H294.689V234.176H287.969Z" fill="#65B683"/>
</g>
<defs>
<clipPath id="clip0_943_3">
<rect width="375" height="319" fill="white"/>
</clipPath>
</defs>
</svg>
