<svg width="296" height="127" viewBox="0 0 296 127" fill="none" xmlns="http://www.w3.org/2000/svg">
<path d="M65.9307 4.06495C68.0205 4.12056 70.0038 4.98627 71.4507 6.47445C72.8976 7.96262 73.6915 9.95331 73.6602 12.0149V27.0497C73.6694 29.1272 72.8501 31.125 71.3794 32.6122C69.9087 34.0994 67.9043 34.9569 65.7984 34.9997H64.1433C63.079 35.0061 62.0238 34.8055 61.0383 34.4092C60.0528 34.013 59.1562 33.4289 58.3998 32.6905C57.6435 31.9521 57.0422 31.0738 56.6304 30.1058C56.2186 29.1379 56.0043 28.0994 56 27.0497V11.9986C56.0043 10.9475 56.2192 9.90765 56.632 8.93865C57.0448 7.96965 57.6476 7.09065 58.4057 6.352C59.1639 5.61334 60.0624 5.02964 61.0498 4.63437C62.0373 4.2391 63.0942 4.04 64.1598 4.04861L65.9307 4.06495ZM64.1764 8.70112C63.2821 8.68795 62.4186 9.0235 61.7739 9.63491C61.1292 10.2463 60.7553 11.0841 60.7336 11.966V27.017C60.7553 27.8989 61.1292 28.7367 61.7739 29.3481C62.4186 29.9595 63.2821 30.2951 64.1764 30.2819H65.6824C66.5604 30.2819 67.4025 29.938 68.0233 29.3257C68.6441 28.7134 68.9927 27.8829 68.9927 27.017V11.966C68.9931 11.1168 68.6581 10.3008 68.0586 9.6913C67.4592 9.08176 66.6424 8.72659 65.7818 8.70112H64.1764ZM82.5317 34.9997H77.434V4.06495H82.5482L82.5317 34.9997Z" fill="#65B683"/>
<path d="M93.472 4.29378H107.408C108.145 4.26377 108.881 4.37718 109.573 4.62756C110.265 4.87794 110.901 5.2604 111.444 5.75305C111.986 6.2457 112.425 6.83895 112.735 7.49887C113.045 8.1588 113.22 8.87247 113.251 9.5992C113.281 10.3259 113.166 11.0515 112.912 11.7344C112.658 12.4173 112.271 13.0442 111.771 13.5793C111.272 14.1144 110.67 14.5472 110.001 14.853C109.332 15.1589 108.609 15.3317 107.872 15.3618V18.4307H114.691V22.2506H86.1729V18.4633H93.0085V15.378C92.2551 15.3735 91.5103 15.2193 90.8186 14.9248C90.1268 14.6302 89.5022 14.2012 88.9822 13.6634C88.4622 13.1256 88.0574 12.4901 87.7918 11.7946C87.5263 11.0991 87.4055 10.358 87.4366 9.61544C87.4678 8.87293 87.6502 8.14423 87.973 7.47277C88.2959 6.80131 88.7528 6.20092 89.316 5.70732C89.8793 5.21371 90.5375 4.837 91.2516 4.59976C91.9656 4.36252 92.7207 4.2696 93.472 4.32646V4.29378ZM93.472 24.0137H107.408C108.17 23.9728 108.931 24.0855 109.647 24.3448C110.363 24.604 111.017 25.0044 111.571 25.5216C112.125 26.0387 112.566 26.6617 112.867 27.3525C113.168 28.0433 113.324 28.7874 113.324 29.5395C113.324 30.2915 113.168 31.0356 112.867 31.7264C112.566 32.4172 112.125 33.0403 111.571 33.5574C111.017 34.0745 110.363 34.475 109.647 34.7342C108.931 34.9935 108.17 35.106 107.408 35.0652H93.4886C92.7272 35.106 91.9655 34.9935 91.2497 34.7342C90.534 34.475 89.8793 34.0745 89.3257 33.5574C88.7721 33.0403 88.3311 32.4172 88.0298 31.7264C87.7285 31.0356 87.573 30.2915 87.573 29.5395C87.573 28.7874 87.7285 28.0433 88.0298 27.3525C88.3311 26.6617 88.7721 26.0387 89.3257 25.5216C89.8793 25.0044 90.534 24.604 91.2497 24.3448C91.9655 24.0855 92.7272 23.9728 93.4886 24.0137H93.472ZM93.472 31.0495H107.392C107.795 31.0495 108.183 30.8912 108.468 30.6096C108.754 30.3279 108.914 29.9459 108.914 29.5476C108.914 29.1492 108.754 28.7673 108.468 28.4856C108.183 28.204 107.795 28.0457 107.392 28.0457H93.472C93.0682 28.0457 92.6809 28.204 92.3953 28.4856C92.1098 28.7673 91.9492 29.1492 91.9492 29.5476C91.9492 29.9459 92.1098 30.3279 92.3953 30.6096C92.6809 30.8912 93.0682 31.0495 93.472 31.0495ZM93.472 11.3296H107.408C107.812 11.3296 108.199 11.1713 108.485 10.8897C108.77 10.608 108.931 10.2261 108.931 9.82777C108.931 9.42946 108.77 9.0474 108.485 8.76575C108.199 8.4841 107.812 8.32585 107.408 8.32585H93.472C93.0682 8.32585 92.6809 8.4841 92.3953 8.76575C92.1098 9.0474 91.9492 9.42946 91.9492 9.82777C91.9492 10.2261 92.1098 10.608 92.3953 10.8897C92.6809 11.1713 93.0682 11.3296 93.472 11.3296ZM97.3946 18.4307H103.486V15.3618H97.3946V18.4307Z" fill="#65B683"/>
<path d="M128.577 8.61983H117.174V4.29383H133.725V8.68509L129.901 34.902H124.787L128.577 8.61983ZM143.639 15.5577H146.949V19.9979H143.639V35.0163H138.674V4H143.639V15.5577Z" fill="#65B683"/>
<path d="M176.692 17.3533V21.3528H148.174V17.3533H176.692ZM155.456 23.6708H169.392C170.171 23.6295 170.951 23.7452 171.683 24.0109C172.415 24.2765 173.085 24.6864 173.651 25.2157C174.218 25.745 174.669 26.3825 174.977 27.0894C175.285 27.7963 175.444 28.5578 175.444 29.3272C175.444 30.0967 175.285 30.8581 174.977 31.565C174.669 32.2719 174.218 32.9094 173.651 33.4387C173.085 33.968 172.415 34.378 171.683 34.6436C170.951 34.9092 170.171 35.0249 169.392 34.9836H155.473C154.694 35.0249 153.914 34.9092 153.182 34.6436C152.45 34.378 151.78 33.968 151.214 33.4387C150.648 32.9094 150.197 32.2719 149.889 31.565C149.58 30.8581 149.421 30.0967 149.421 29.3272C149.421 28.5578 149.58 27.7963 149.889 27.0894C150.197 26.3825 150.648 25.745 151.214 25.2157C151.78 24.6864 152.45 24.2765 153.182 24.0109C153.914 23.7452 154.694 23.6295 155.473 23.6708H155.456ZM154.745 10.6113H174.606V15.0516H150.226V4.08154H154.745V10.6113ZM155.522 30.7882H169.326C169.679 30.7507 170.006 30.5859 170.243 30.3252C170.481 30.0645 170.612 29.7265 170.612 29.3762C170.612 29.0258 170.481 28.6879 170.243 28.4272C170.006 28.1666 169.679 28.0016 169.326 27.9641H155.522C155.145 27.9641 154.783 28.112 154.516 28.3753C154.249 28.6386 154.099 28.9957 154.099 29.368C154.099 29.7403 154.249 30.0975 154.516 30.3608C154.783 30.6241 155.145 30.7719 155.522 30.7719V30.7882Z" fill="#65B683"/>
<path d="M179.671 4.29369H192.73V34.9183H179.671V4.29369ZM184.255 30.4127H188.046V8.7829H184.206L184.255 30.4127ZM195.378 4.14673H199.996V15.0025H202.511V4.14673H207.146V35.1631H202.495V19.3121H199.962V35.0489H195.361L195.378 4.14673Z" fill="#65B683"/>
<path d="M227.305 4.2938V8.81569L222.886 12.2111L227.471 15.7372V21.2058L219.344 14.9537L210.986 21.3691V15.8841L220.404 8.79935H210.986V4.2938H227.305ZM231.41 23.6219C232.208 23.5624 233.009 23.6659 233.764 23.9261C234.519 24.1863 235.212 24.5974 235.798 25.1338C236.385 25.6702 236.853 26.3201 237.173 27.0431C237.493 27.7661 237.658 28.5466 237.658 29.3354C237.658 30.1243 237.493 30.9047 237.173 31.6277C236.853 32.3507 236.385 33.0007 235.798 33.5371C235.212 34.0735 234.519 34.4845 233.764 34.7447C233.009 35.0048 232.208 35.1085 231.41 35.049H217.838C217.041 35.1085 216.239 35.0048 215.484 34.7447C214.729 34.4845 214.036 34.0735 213.45 33.5371C212.863 33.0007 212.395 32.3507 212.075 31.6277C211.755 30.9047 211.59 30.1243 211.59 29.3354C211.59 28.5466 211.755 27.7661 212.075 27.0431C212.395 26.3201 212.863 25.6702 213.45 25.1338C214.036 24.5974 214.729 24.1863 215.484 23.9261C216.239 23.6659 217.041 23.5624 217.838 23.6219H231.41ZM217.871 27.8989C217.681 27.901 217.492 27.9403 217.317 28.0147C217.142 28.089 216.984 28.197 216.852 28.3321C216.72 28.4672 216.616 28.627 216.546 28.802C216.477 28.977 216.443 29.1638 216.448 29.3517C216.446 29.5367 216.481 29.7202 216.552 29.8915C216.622 30.0628 216.727 30.2185 216.86 30.3493C216.992 30.4801 217.15 30.5835 217.324 30.6532C217.498 30.723 217.684 30.7579 217.871 30.7557H231.41C231.786 30.7514 232.146 30.6021 232.412 30.3398C232.678 30.0774 232.829 29.7227 232.834 29.3517C232.834 28.9763 232.685 28.6158 232.419 28.3474C232.153 28.0789 231.791 27.9237 231.41 27.9151L217.871 27.8989ZM231.642 21.1733V4.11426H236.607V10.04H239.917V14.4965H236.607V21.1733H231.642Z" fill="#65B683"/>
<path d="M52.7166 74.004V84.048H58.9266V74.004H52.7166ZM57.5226 75.192V82.86H54.1206V75.192H57.5226ZM64.5246 72.132V88.404H65.9646V72.132H64.5246ZM58.1706 78.252V79.494H61.9146V78.252H58.1706ZM61.3026 72.474V87.594H62.7246V72.474H61.3026ZM70.4992 77.622V78.846H81.6232V77.622H70.4992ZM70.4992 72.96V78.198H71.9932V72.96H70.4992ZM68.6452 81.168V82.41H83.3512V81.168H68.6452ZM72.4252 81.636V88.404H73.9192V81.636H72.4252ZM78.0592 81.636V88.404H79.5352V81.636H78.0592ZM85.6358 73.644V74.868H94.3298V73.644H85.6358ZM85.3658 81.708C88.1378 81.708 91.9538 81.618 95.1938 81.114L95.0858 79.998C91.8998 80.394 88.0298 80.43 85.1858 80.448L85.3658 81.708ZM87.2378 74.562V80.7H88.6778V74.562H87.2378ZM91.2698 74.562V80.7H92.7098V74.562H91.2698ZM96.2738 72.15V84.138H97.7678V72.15H96.2738ZM97.2998 77.082V78.342H100.18V77.082H97.2998ZM87.6338 86.82V88.044H98.5058V86.82H87.6338ZM87.6338 82.986V87.144H89.1278V82.986H87.6338ZM117.434 72.114V88.422H118.928V72.114H117.434ZM110.342 73.374C107.948 73.374 106.22 75.588 106.22 79.044C106.22 82.518 107.948 84.732 110.342 84.732C112.754 84.732 114.482 82.518 114.482 79.044C114.482 75.588 112.754 73.374 110.342 73.374ZM110.342 74.724C111.944 74.724 113.042 76.416 113.042 79.044C113.042 81.69 111.944 83.418 110.342 83.418C108.758 83.418 107.642 81.69 107.642 79.044C107.642 76.416 108.758 74.724 110.342 74.724ZM123.048 73.716V84.318H130.536V73.716H123.048ZM129.078 74.922V83.112H124.506V74.922H129.078ZM133.938 72.114V88.422H135.432V72.114H133.938ZM142.937 74.454V77.1C142.937 79.908 140.975 82.968 138.617 84.084L139.481 85.272C142.073 83.994 144.143 80.538 144.143 77.1V74.454H142.937ZM143.225 74.454V77.1C143.225 80.484 145.313 83.652 147.941 84.876L148.787 83.688C146.393 82.662 144.431 79.854 144.431 77.1V74.454H143.225ZM139.157 73.788V75.048H148.247V73.788H139.157ZM150.443 72.132V88.404H151.937V72.132H150.443ZM155.122 79.692V80.826H169.882V79.692H155.122ZM156.868 82.14V83.202H166.57V84.588H156.922V87.522H158.398V85.614H168.028V82.14H156.868ZM156.922 87.126V88.206H168.55V87.126H156.922ZM156.994 72.6V73.662H166.516V74.976H157.03V77.748H158.506V75.984H167.974V72.6H156.994ZM157.03 77.388V78.468H168.28V77.388H157.03ZM187.442 72.132V80.43H188.954V72.132H187.442ZM182.474 72.924V73.68C182.474 76.506 180.17 78.612 175.886 79.548L176.426 80.772C181.214 79.656 184.112 77.082 184.112 72.924H182.474ZM176.696 72.924V74.148H183.482V72.924H176.696ZM178.424 81.222V82.41H187.46V84.066H178.46V87.648H179.936V85.182H188.954V81.222H178.424ZM178.46 87.054V88.242H189.494V87.054H178.46ZM204.504 72.132V88.404H205.944V72.132H204.504ZM197.448 78.774V79.98H201.552V78.774H197.448ZM201.12 72.546V87.576H202.524V72.546H201.12ZM197.646 74.184V74.454C197.646 78.288 195.936 81.528 192.102 83.832L192.984 84.894C197.376 82.284 199.086 78.45 199.086 74.184H197.646ZM192.822 74.184V75.408H198.204V74.184H192.822ZM219.184 79.26V82.176H220.66V79.26H219.184ZM214.576 76.002V77.226H225.61V76.002H214.576ZM212.578 78.63V79.836H227.338V78.63H212.578ZM214.576 72.366V76.56H216.034V72.366H214.576ZM214.414 81.546V82.716H223.972V84.21H214.45V87.468H215.926V85.308H225.466V81.546H214.414ZM214.45 87.054V88.224H226.006V87.054H214.45ZM240.981 72.114V88.422H242.475V72.114H240.981ZM237.885 78.378V79.602H241.341V78.378H237.885ZM229.695 83.274V84.534H230.937C233.871 84.534 235.941 84.426 238.389 83.994L238.245 82.752C235.851 83.184 233.817 83.274 230.937 83.274H229.695ZM229.659 73.644V74.868H235.455V78.126H229.695V83.652H231.171V79.35H236.931V73.644H229.659ZM86.3177 104.114V120.422H87.7937V104.114H86.3177ZM82.8077 110.054V111.278H86.7497V110.054H82.8077ZM78.5417 106.454V108.884C78.5417 111.782 76.6157 114.86 74.2757 116.012L75.1577 117.2C77.7317 115.868 79.7477 112.394 79.7477 108.884V106.454H78.5417ZM78.8477 106.454V108.884C78.8477 112.232 80.8277 115.58 83.4017 116.858L84.2837 115.688C81.9257 114.572 80.0357 111.602 80.0357 108.884V106.454H78.8477ZM74.8697 105.788V107.03H83.7257V105.788H74.8697ZM94.9202 105.878V107.192C94.9202 109.514 93.3002 111.62 90.8522 112.484L91.6082 113.672C94.3442 112.682 96.1442 110.18 96.1442 107.192V105.878H94.9202ZM95.1902 105.878V107.174C95.1902 109.946 96.9182 112.268 99.6362 113.168L100.356 111.998C97.9622 111.206 96.4142 109.298 96.4142 107.174V105.878H95.1902ZM91.3022 105.338V106.562H99.9962V105.338H91.3022ZM102.048 104.132V113.942H103.542V104.132H102.048ZM103.128 108.254V109.514H105.954V108.254H103.128ZM98.3582 114.374C95.0462 114.374 93.0122 115.472 93.0122 117.362C93.0122 119.27 95.0462 120.368 98.3582 120.368C101.67 120.368 103.704 119.27 103.704 117.362C103.704 115.472 101.67 114.374 98.3582 114.374ZM98.3582 115.58C100.77 115.58 102.246 116.228 102.246 117.362C102.246 118.514 100.77 119.198 98.3582 119.198C95.9462 119.198 94.4702 118.514 94.4702 117.362C94.4702 116.228 95.9462 115.58 98.3582 115.58ZM122.524 104.078V113.06H124.018V104.078H122.524ZM123.388 107.984V109.244H126.43V107.984H123.388ZM113.686 113.888V115.022H122.56V116.444H113.722V119.504H115.198V117.524H124.018V113.888H113.686ZM113.722 119.072V120.224H124.612V119.072H113.722ZM111.436 105.59V106.76H121.048V105.59H111.436ZM116.242 107.48C113.866 107.48 112.336 108.506 112.336 110.162C112.336 111.8 113.866 112.808 116.242 112.808C118.582 112.808 120.13 111.8 120.13 110.162C120.13 108.506 118.582 107.48 116.242 107.48ZM116.242 108.578C117.736 108.578 118.708 109.19 118.708 110.162C118.708 111.116 117.736 111.728 116.242 111.728C114.73 111.728 113.758 111.116 113.758 110.162C113.758 109.19 114.73 108.578 116.242 108.578ZM115.486 103.952V106.4H116.98V103.952H115.486ZM138.446 104.708V105.608C138.446 107.93 135.584 109.874 132.614 110.324L133.208 111.53C136.592 110.954 139.76 108.722 139.76 105.608V104.708H138.446ZM138.716 104.708V105.608C138.716 108.686 141.902 110.954 145.25 111.53L145.844 110.324C142.91 109.874 140.012 107.876 140.012 105.608V104.708H138.716ZM138.446 114.212V120.404H139.922V114.212H138.446ZM131.876 113.294V114.536H146.582V113.294H131.876ZM156.402 114.14V115.022C156.402 116.588 155.178 118.334 153.126 119.072L153.882 120.188C156.222 119.288 157.554 117.146 157.554 115.022V114.14H156.402ZM156.726 114.14V115.022C156.726 117.182 157.788 119.414 160.128 120.332L160.758 119.198C158.814 118.406 157.842 116.66 157.842 115.022V114.14H156.726ZM162.414 114.14V115.022C162.414 116.426 161.424 118.316 159.498 119.198L160.128 120.332C162.45 119.342 163.53 116.93 163.53 115.022V114.14H162.414ZM162.72 114.14V115.022C162.72 117.272 164.016 119.324 166.392 120.188L167.148 119.072C165.078 118.37 163.872 116.696 163.872 115.022V114.14H162.72ZM164.178 104.15V113.438H165.69V104.15H164.178ZM156.96 105.086C154.494 105.086 152.712 106.634 152.712 108.884C152.712 111.134 154.494 112.664 156.96 112.664C159.426 112.664 161.19 111.134 161.19 108.884C161.19 106.634 159.426 105.086 156.96 105.086ZM156.96 106.328C158.58 106.328 159.75 107.372 159.75 108.884C159.75 110.396 158.58 111.422 156.96 111.422C155.34 111.422 154.17 110.396 154.17 108.884C154.17 107.372 155.34 106.328 156.96 106.328ZM170.711 113.888V120.188H181.637V113.888H180.143V115.778H172.187V113.888H170.711ZM172.187 116.93H180.143V118.982H172.187V116.93ZM168.839 111.548V112.754H183.545V111.548H168.839ZM175.445 104.312V105.032C175.445 107.084 172.619 108.83 169.685 109.226L170.225 110.396C173.573 109.892 176.723 107.858 176.723 105.032V104.312H175.445ZM175.679 104.312V105.032C175.679 107.822 178.847 109.892 182.159 110.396L182.717 109.226C179.819 108.83 176.957 107.048 176.957 105.032V104.312H175.679ZM197.187 104.132V120.404H198.681V104.132H197.187ZM186.387 105.716V115.796H187.863V105.716H186.387ZM186.387 114.914V116.21H187.719C190.293 116.21 192.867 116.012 195.693 115.436L195.513 114.158C192.759 114.734 190.185 114.914 187.719 114.914H186.387ZM212.864 104.114V120.422H214.376V104.114H212.864ZM214.016 110.54V111.8H217.04V110.54H214.016ZM202.55 115.112V116.372H203.828C206.888 116.372 209.03 116.282 211.532 115.814L211.37 114.554C208.94 115.004 206.834 115.112 203.828 115.112H202.55ZM202.55 105.698V115.67H204.026V106.922H210.11V105.698H202.55ZM219.955 119.252C220.621 119.252 221.161 118.73 221.161 117.992C221.161 117.236 220.621 116.732 219.955 116.732C219.307 116.732 218.785 117.236 218.785 117.992C218.785 118.73 219.307 119.252 219.955 119.252Z" fill="#65B683"/>
<path d="M286.994 12.3429C286.991 10.4429 286.225 8.6218 284.865 7.27947C283.505 5.93715 281.662 5.18324 279.74 5.18325H271.56V2.12042C271.56 0.811518 270.712 0 268.992 0C267.271 0 266.424 0.850785 266.424 2.12042V5.18325H258.256C256.335 5.18324 254.491 5.93715 253.131 7.27947C251.771 8.6218 251.006 10.4429 251.002 12.3429C250.974 13.8512 251.23 15.3514 251.757 16.767C252.009 17.4097 252.387 17.9968 252.869 18.4948L253.425 24.6728C253.618 26.9225 254.661 29.0177 256.346 30.5411C258.031 32.0644 260.235 32.904 262.519 32.8927H266.49C266.49 34.2016 267.35 35 269.058 35C270.765 35 271.626 34.1492 271.626 32.8927H275.676C277.962 32.9038 280.167 32.0623 281.853 30.5363C283.539 29.0102 284.58 26.9117 284.77 24.6597L285.34 18.3115C285.75 17.8467 286.077 17.3153 286.306 16.7408C286.807 15.3293 287.041 13.8383 286.994 12.3429Z" fill="#65B683"/>
<path d="M43.9942 12.3429C43.9907 10.4429 43.2249 8.6218 41.8649 7.27947C40.5049 5.93715 38.6618 5.18324 36.7402 5.18325H28.5596V2.12042C28.5596 0.811518 27.7124 0 25.9916 0C24.2707 0 23.4235 0.850785 23.4235 2.12042V5.18325H15.2561C13.3345 5.18324 11.4915 5.93715 10.1315 7.27947C8.77145 8.6218 8.00565 10.4429 8.00214 12.3429C7.97364 13.8512 8.22953 15.3514 8.75668 16.767C9.00868 17.4097 9.38655 17.9968 9.8686 18.4948L10.4245 24.6728C10.6176 26.9225 11.6607 29.0177 13.346 30.5411C15.0313 32.0644 17.2352 32.904 19.5185 32.8927H23.4897C23.4897 34.2016 24.3501 35 26.0577 35C27.7654 35 28.6258 34.1492 28.6258 32.8927H32.6764C34.9618 32.9038 37.1675 32.0623 38.8531 30.5363C40.5388 29.0102 41.5805 26.9117 41.7704 24.6597L42.3396 18.3115C42.7504 17.8467 43.0774 17.3153 43.3059 16.7408C43.8073 15.3293 44.0406 13.8383 43.9942 12.3429Z" fill="#65B683"/>
</svg>
