<svg width="344" height="60" viewBox="0 0 344 60" fill="none" xmlns="http://www.w3.org/2000/svg">
<rect width="344" height="60" rx="12" fill="#EF8A33"/>
<g clip-path="url(#clip0_923_449)">
<path d="M111 20.6868H117.977V37.8716H111V20.6868ZM113.455 35.3433H115.513V23.2242H113.464L113.455 35.3433ZM119.39 20.5952H121.854V26.696H123.196V20.5952H125.678V37.9998H123.187V29.1601H121.854V37.9906H119.39V20.5952Z" fill="white"/>
<path d="M136.425 20.6961V23.2335L134.067 25.1388L136.513 27.1175V30.1862L132.195 26.6778L127.735 30.2778V27.2091L132.76 23.2243H127.718V20.6961H136.425ZM138.615 31.5419C139.041 31.5085 139.469 31.5666 139.871 31.7126C140.274 31.8586 140.644 32.0893 140.957 32.3903C141.27 32.6913 141.519 33.056 141.69 33.4617C141.861 33.8674 141.949 34.3053 141.949 34.748C141.949 35.1907 141.861 35.6286 141.69 36.0343C141.519 36.44 141.27 36.8048 140.957 37.1057C140.644 37.4067 140.274 37.6374 139.871 37.7834C139.469 37.9294 139.041 37.9875 138.615 37.9541H131.391C130.966 37.9875 130.538 37.9294 130.135 37.7834C129.732 37.6374 129.363 37.4067 129.05 37.1057C128.737 36.8048 128.487 36.44 128.317 36.0343C128.146 35.6286 128.058 35.1907 128.058 34.748C128.058 34.3053 128.146 33.8674 128.317 33.4617C128.487 33.056 128.737 32.6913 129.05 32.3903C129.363 32.0893 129.732 31.8586 130.135 31.7126C130.538 31.5666 130.966 31.5085 131.391 31.5419H138.615ZM131.4 33.9419C131.196 33.9443 131 34.0303 130.856 34.1812C130.713 34.3321 130.632 34.5358 130.632 34.748C130.631 34.8522 130.649 34.9557 130.687 35.0523C130.725 35.1489 130.781 35.2369 130.851 35.311C130.922 35.3851 131.006 35.444 131.099 35.4841C131.191 35.5243 131.291 35.545 131.391 35.545H138.615C138.816 35.5426 139.008 35.4588 139.15 35.3116C139.292 35.1644 139.373 34.9654 139.375 34.7572C139.375 34.5465 139.295 34.3442 139.153 34.1935C139.012 34.0429 138.818 33.9558 138.615 33.9511L131.4 33.9419ZM138.739 30.1679V20.6045H141.388V23.9297H143.155V26.4121H141.388V30.1679H138.739Z" fill="white"/>
<path d="M155.404 28.684L158.336 37.9176H155.589L154 32.6687L152.163 37.9176H149.345L154.432 23.2611H149.478V20.7054H157.311V23.2336L155.404 28.684ZM160.791 37.9725V20.6138H163.14V26.5405H164.959V28.968H163.193V37.9725H160.791Z" fill="white"/>
<path d="M170.876 37.8902L169.287 27.1177L167.635 37.8902H165.162L168.068 20.6688H170.452L173.349 37.8902H170.876ZM174.524 26.5864V20.623H176.873V38.0276H174.515V29.0047H172.378V26.5864H174.524ZM180.502 37.9818H178.118V20.623H180.502V37.9818Z" fill="white"/>
<path d="M188.495 21.7405H192.027V24.0305H182.533V21.7405H186.066V20H188.539L188.495 21.7405ZM187.965 25.1573C188.879 25.1566 189.758 25.5237 190.417 26.1814C191.076 26.8391 191.463 27.7362 191.497 28.684V34.3725C191.461 35.3187 191.072 36.2134 190.414 36.8692C189.755 37.525 188.878 37.8908 187.965 37.8901H186.508C186.053 37.901 185.6 37.8186 185.176 37.6475C184.752 37.4764 184.364 37.22 184.036 36.8931C183.708 36.5662 183.445 36.1753 183.263 35.7427C183.081 35.3101 182.983 34.8445 182.975 34.3725V28.684C182.983 28.2116 183.081 27.7455 183.263 27.3124C183.445 26.8794 183.707 26.4878 184.036 26.1602C184.364 25.8326 184.751 25.5753 185.175 25.4032C185.599 25.2311 186.052 25.1475 186.508 25.1573H187.965ZM187.391 35.4351C187.602 35.4515 187.814 35.4225 188.014 35.3498C188.214 35.277 188.397 35.1622 188.552 35.0126C188.707 34.8629 188.831 34.6816 188.915 34.48C188.999 34.2784 189.043 34.0609 189.042 33.8412V29.2611C189.044 29.0406 189.002 28.8222 188.919 28.6193C188.836 28.4164 188.713 28.2333 188.559 28.0814C188.405 27.9294 188.223 27.8118 188.024 27.7359C187.824 27.6599 187.612 27.6272 187.399 27.6397H187.082C186.869 27.6259 186.655 27.6576 186.455 27.733C186.254 27.8084 186.071 27.9258 185.916 28.0779C185.761 28.23 185.638 28.4135 185.554 28.6171C185.471 28.8206 185.428 29.0398 185.43 29.2611V33.8412C185.428 34.0605 185.47 34.2778 185.554 34.4794C185.637 34.6809 185.76 34.8623 185.914 35.0122C186.069 35.162 186.251 35.2769 186.451 35.3497C186.65 35.4225 186.862 35.4516 187.073 35.4351H187.391ZM196.663 37.9908H194.2V20.6229H196.699L196.663 37.9908Z" fill="white"/>
<path d="M212.763 31.5509V35.5723H219.086V37.9815H203.861V35.5723H210.14V31.5509H204.611V20.6318H207.358V24.3601H215.677V20.6318H218.415V31.5601L212.763 31.5509ZM215.624 29.0593V26.8425H207.314V29.0593H215.624Z" fill="white"/>
<path d="M226.752 23.1877H220.402V20.7327H229.533V23.1877L227.493 37.89H224.765L226.752 23.1877ZM234.991 37.9999H232.271V20.6411H235L234.991 37.9999Z" fill="white"/>
</g>
<defs>
<clipPath id="clip0_923_449">
<rect width="124" height="18" fill="white" transform="translate(111 20)"/>
</clipPath>
</defs>
</svg>
