<svg width="375" height="550" viewBox="0 0 375 550" fill="none" xmlns="http://www.w3.org/2000/svg">
<path d="M0 0H375V550H187.5H0V0Z" fill="#65B683"/>
<g clip-path="url(#clip0_923_459)">
<path d="M136.203 76.9999C138.352 77.0598 140.391 77.9272 141.879 79.4153C143.367 80.9033 144.186 82.8926 144.158 84.9541V100.013C144.167 102.092 143.324 104.09 141.811 105.578C140.297 107.066 138.234 107.924 136.067 107.967H134.364C133.268 107.976 132.181 107.777 131.165 107.381C130.15 106.985 129.227 106.401 128.448 105.662C127.669 104.922 127.05 104.043 126.627 103.073C126.204 102.104 125.985 101.064 125.983 100.013V84.9704C125.987 83.9188 126.208 82.8784 126.633 81.9089C127.058 80.9394 127.678 80.0599 128.459 79.3208C129.239 78.5818 130.164 77.9978 131.18 77.6023C132.196 77.2068 133.284 77.0077 134.38 77.0163L136.203 76.9999ZM134.397 81.6548C133.477 81.6416 132.589 81.9774 131.925 82.5892C131.262 83.2009 130.877 84.0391 130.855 84.9214V99.9804C130.881 100.864 131.27 101.702 131.936 102.314C132.602 102.925 133.492 103.26 134.414 103.247H135.948C136.851 103.247 137.718 102.903 138.356 102.29C138.995 101.678 139.354 100.847 139.354 99.9804V84.9214C139.354 84.0551 138.995 83.2242 138.356 82.6116C137.718 81.999 136.851 81.6548 135.948 81.6548H134.397ZM153.288 107.967H148.041V76.9346H153.288V107.967Z" fill="white"/>
<path d="M164.564 77.1796H178.975C179.748 77.1227 180.525 77.2157 181.26 77.4531C181.995 77.6904 182.672 78.0673 183.252 78.5611C183.832 79.055 184.302 79.6558 184.634 80.3276C184.966 80.9994 185.154 81.7285 185.186 82.4714C185.218 83.2143 185.094 83.9558 184.82 84.6517C184.547 85.3475 184.13 85.9834 183.595 86.5215C183.06 87.0596 182.417 87.4888 181.705 87.7835C180.994 88.0783 180.227 88.2325 179.452 88.237V91.3239H186.47V95.1132H157.121V91.3076H164.138V88.237C163.364 88.2301 162.599 88.0737 161.888 87.7774C161.178 87.4811 160.537 87.0507 160.004 86.5121C159.471 85.9734 159.056 85.3373 158.785 84.6418C158.513 83.9463 158.39 83.2054 158.423 82.4634C158.456 81.7214 158.645 80.9934 158.978 80.3226C159.31 79.6519 159.78 79.0522 160.36 78.5592C160.939 78.0662 161.616 77.69 162.35 77.453C163.084 77.216 163.86 77.123 164.632 77.1796H164.564ZM164.564 96.9098H178.975C179.758 96.869 180.542 96.9817 181.279 97.2411C182.015 97.5005 182.689 97.9011 183.259 98.4185C183.829 98.9359 184.282 99.5592 184.593 100.25C184.903 100.942 185.063 101.686 185.063 102.439C185.063 103.191 184.903 103.936 184.593 104.627C184.282 105.318 183.829 105.941 183.259 106.459C182.689 106.976 182.015 107.377 181.279 107.636C180.542 107.895 179.758 108.008 178.975 107.967H164.649C163.866 108.008 163.082 107.895 162.345 107.636C161.609 107.377 160.935 106.976 160.365 106.459C159.795 105.941 159.342 105.318 159.031 104.627C158.721 103.936 158.562 103.191 158.562 102.439C158.562 101.686 158.721 100.942 159.031 100.25C159.342 99.5592 159.795 98.9359 160.365 98.4185C160.935 97.9011 161.609 97.5005 162.345 97.2411C163.082 96.9817 163.866 96.869 164.649 96.9098H164.564ZM164.564 103.949H178.889C179.305 103.949 179.704 103.791 179.998 103.509C180.292 103.227 180.457 102.845 180.457 102.447C180.457 102.048 180.292 101.666 179.998 101.384C179.704 101.102 179.305 100.944 178.889 100.944H164.547C164.158 100.983 163.797 101.159 163.535 101.438C163.272 101.717 163.127 102.079 163.127 102.455C163.127 102.83 163.272 103.193 163.535 103.472C163.797 103.751 164.158 103.927 164.547 103.966L164.564 103.949ZM164.564 84.2191H178.975C179.39 84.2191 179.789 84.0608 180.083 83.779C180.377 83.4972 180.542 83.115 180.542 82.7165C180.542 82.3179 180.377 81.9357 180.083 81.6539C179.789 81.3721 179.39 81.2138 178.975 81.2138H164.649C164.26 81.2527 163.899 81.4286 163.637 81.7077C163.374 81.9867 163.229 82.349 163.229 82.7246C163.229 83.1003 163.374 83.4625 163.637 83.7416C163.899 84.0206 164.26 84.1965 164.649 84.2354L164.564 84.2191ZM168.601 91.3076H174.87V88.237H168.601V91.3076Z" fill="white"/>
<path d="M189.791 93.4147V77.1797H194.578V81.3773H201.118V77.1961H205.888V93.4147H189.791ZM196.894 96.3383H210.777C211.601 96.2964 212.426 96.416 213.201 96.6897C213.975 96.9634 214.684 97.3855 215.283 97.9303C215.882 98.4751 216.359 99.1312 216.685 99.8586C217.011 100.586 217.179 101.369 217.179 102.161C217.179 102.953 217.011 103.736 216.685 104.463C216.359 105.191 215.882 105.847 215.283 106.392C214.684 106.937 213.975 107.359 213.201 107.632C212.426 107.906 211.601 108.026 210.777 107.984H196.877C196.053 108.026 195.228 107.906 194.453 107.632C193.678 107.359 192.97 106.937 192.371 106.392C191.772 105.847 191.295 105.191 190.969 104.463C190.642 103.736 190.474 102.953 190.474 102.161C190.474 101.369 190.642 100.586 190.969 99.8586C191.295 99.1312 191.772 98.4751 192.371 97.9303C192.97 97.3855 193.678 96.9634 194.453 96.6897C195.228 96.416 196.053 96.2964 196.877 96.3383H196.894ZM201.084 89.3314V85.3789H194.578V89.3478L201.084 89.3314ZM196.962 103.851H210.708C211.129 103.783 211.51 103.574 211.785 103.262C212.06 102.949 212.211 102.554 212.211 102.145C212.211 101.736 212.06 101.34 211.785 101.028C211.51 100.715 211.129 100.506 210.708 100.438H196.962C196.541 100.479 196.15 100.668 195.867 100.97C195.583 101.272 195.427 101.665 195.429 102.071C195.387 102.502 195.524 102.932 195.811 103.266C196.099 103.599 196.513 103.81 196.962 103.851V103.851ZM211.39 93.921V77.0327H216.159V82.5043H219.566V86.9468H216.159V93.921H211.39Z" fill="white"/>
<path d="M221.695 92.9084V77.1961H226.448V81.361H233.142V77.1961H237.826V92.9084H221.695ZM227.998 97.351H244.111V86.6529H240.194V82.635H244.111V77.0491H249V108H223.143V94.656H228.015L227.998 97.351ZM233.108 88.4332V85.6239H226.413V88.3678L233.108 88.4332ZM244.094 103.835V101.255H227.981V103.835H244.094Z" fill="white"/>
</g>
<rect x="16" y="191" width="344" height="119" rx="12" fill="white"/>
<rect x="105" y="165" width="165" height="43" rx="21.5" fill="#FFEEB2"/>
<path d="M149.905 188.835V191.761H141.564V198.012H138.329V191.82H130V188.894L149.905 188.835ZM140.444 179.073H130.855V175.901H149.05V178.593L142.916 181.52L148.889 183.861V187.255L139.3 183.217L130.855 187.255V183.744L140.444 179.073Z" fill="#65B683"/>
<path d="M171.532 187.126V190.088H163.549V193.213H160.476V190.088H156.49V194.77H170.446V198.012H153.198V190.134H151.615V187.173L171.532 187.126ZM169.996 175.89V185.043H153.198V175.89H169.996ZM156.236 181.918H166.911V179.015H156.236V181.918Z" fill="#65B683"/>
<path d="M181.525 177.212H185.985V180.15H173.831V177.224H178.279V175H181.525V177.212ZM180.728 181.578C181.323 181.566 181.914 181.672 182.468 181.891C183.022 182.11 183.528 182.438 183.958 182.855C184.387 183.273 184.731 183.772 184.969 184.324C185.208 184.876 185.337 185.47 185.349 186.073V193.33C185.325 194.548 184.825 195.706 183.958 196.551C183.092 197.396 181.93 197.858 180.728 197.836H179.018C177.816 197.858 176.654 197.396 175.788 196.551C174.922 195.706 174.421 194.548 174.397 193.33V186.073C174.409 185.47 174.538 184.876 174.777 184.324C175.016 183.772 175.359 183.273 175.789 182.855C176.218 182.438 176.724 182.11 177.278 181.891C177.832 181.672 178.423 181.566 179.018 181.578H180.728ZM179.989 194.699C180.265 194.72 180.542 194.683 180.802 194.59C181.063 194.497 181.302 194.35 181.504 194.159C181.706 193.967 181.867 193.736 181.976 193.478C182.085 193.22 182.14 192.943 182.138 192.663V186.81C182.14 186.529 182.085 186.25 181.976 185.992C181.867 185.733 181.707 185.5 181.505 185.307C181.304 185.113 181.065 184.964 180.804 184.868C180.543 184.773 180.266 184.732 179.989 184.75H179.758C179.481 184.732 179.203 184.773 178.942 184.868C178.681 184.964 178.442 185.113 178.241 185.307C178.039 185.5 177.879 185.733 177.77 185.992C177.662 186.25 177.607 186.529 177.609 186.81V192.663C177.606 192.943 177.661 193.22 177.77 193.478C177.879 193.736 178.04 193.967 178.242 194.159C178.444 194.35 178.683 194.497 178.944 194.59C179.205 194.683 179.482 194.72 179.758 194.699H179.989ZM191.726 184.668H194.037V187.864H191.726V198.012H188.457V175.772H191.715L191.726 184.668Z" fill="#65B683"/>
<path d="M203.306 179.277H195V176.129H206.946V179.266L204.277 198.052H200.707L203.306 179.277ZM214.085 198.239H210.504V176H214.074L214.085 198.239Z" fill="#65B683"/>
<path d="M126.227 234.492C122.699 234.492 120.503 235.644 120.503 237.57C120.503 239.496 122.699 240.63 126.227 240.63C129.737 240.63 131.951 239.496 131.951 237.57C131.951 235.644 129.737 234.492 126.227 234.492ZM126.227 235.68C128.801 235.68 130.421 236.364 130.421 237.57C130.421 238.758 128.801 239.46 126.227 239.46C123.635 239.46 122.033 238.758 122.033 237.57C122.033 236.364 123.635 235.68 126.227 235.68ZM120.665 244.824V250.188H131.771V244.824H120.665ZM130.313 246.03V248.982H122.141V246.03H130.313ZM118.865 242.034V243.24H133.571V242.034H118.865ZM139.618 234.906V236.49C139.618 238.92 137.98 241.17 135.514 242.07L136.27 243.258C139.024 242.214 140.86 239.568 140.86 236.49V234.906H139.618ZM139.888 234.906V236.49C139.888 239.478 141.724 241.962 144.442 242.952L145.198 241.782C142.786 240.936 141.112 238.83 141.112 236.49V234.906H139.888ZM137.854 244.752V245.976H147.214V250.404H148.726V244.752H137.854ZM147.214 234.132V243.924H148.726V234.132H147.214ZM159.236 234.402C155.636 234.402 153.512 235.41 153.512 237.228C153.512 239.046 155.636 240.054 159.236 240.054C162.818 240.054 164.96 239.046 164.96 237.228C164.96 235.41 162.818 234.402 159.236 234.402ZM159.236 235.536C161.882 235.536 163.412 236.148 163.412 237.228C163.412 238.308 161.882 238.92 159.236 238.92C156.572 238.92 155.042 238.308 155.042 237.228C155.042 236.148 156.572 235.536 159.236 235.536ZM151.874 241.134V242.34H166.58V241.134H151.874ZM153.656 243.726V244.878H163.232V246.318H153.692V249.378H155.168V247.398H164.708V243.726H153.656ZM153.692 249.054V250.224H165.194V249.054H153.692ZM178.884 235.734V236.418C178.884 238.56 176.094 240.432 173.232 240.846L173.808 242.034C177.084 241.476 180.18 239.334 180.18 236.418V235.734H178.884ZM179.262 235.734V236.418C179.262 239.334 182.34 241.476 185.634 242.034L186.192 240.846C183.348 240.432 180.54 238.56 180.54 236.418V235.734H179.262ZM178.938 244.194V250.404H180.414V244.194H178.938ZM172.368 243.402V244.626H187.074V243.402H172.368ZM173.736 235.14V236.346H185.652V235.14H173.736ZM188.855 242.448V243.672H203.597V242.448H188.855ZM195.587 243.204V246.948H197.081V243.204H195.587ZM190.745 234.888V240.612H201.689V234.888H190.745ZM200.213 236.094V239.406H192.203V236.094H200.213ZM190.727 248.82V250.044H201.959V248.82H190.727ZM190.727 245.382V249.252H192.203V245.382H190.727ZM216.394 234.132V250.404H217.888V234.132H216.394ZM217.528 240.81V242.07H220.552V240.81H217.528ZM205.288 236.724V237.948H214.882V236.724H205.288ZM210.148 239.298C207.862 239.298 206.188 240.846 206.188 243.042C206.188 245.238 207.862 246.786 210.148 246.786C212.452 246.786 214.108 245.238 214.108 243.042C214.108 240.846 212.452 239.298 210.148 239.298ZM210.148 240.54C211.624 240.54 212.686 241.566 212.686 243.042C212.686 244.5 211.624 245.544 210.148 245.544C208.672 245.544 207.61 244.5 207.61 243.042C207.61 241.566 208.672 240.54 210.148 240.54ZM209.374 234.33V237.282H210.868V234.33H209.374ZM233.708 234.132V242.556H235.202V234.132H233.708ZM224.69 243.384V244.554H233.744V246.174H224.726V249.522H226.184V247.29H235.22V243.384H224.69ZM224.726 249.036V250.224H235.76V249.036H224.726ZM226.112 234.6V235.842C226.112 238.2 224.438 240.36 221.99 241.224L222.728 242.412C225.482 241.404 227.354 238.848 227.354 235.842V234.6H226.112ZM226.382 234.6V235.842C226.382 238.758 228.254 241.152 230.99 242.088L231.728 240.918C229.316 240.126 227.606 238.092 227.606 235.842V234.6H226.382ZM251.664 234.474V249.594H253.05V234.474H251.664ZM252.474 240.756V241.98H255.48V240.756H252.474ZM242.826 244.932V246.174H243.474C244.158 246.174 245.202 246.174 246.552 245.85L246.426 244.608C245.166 244.914 244.104 244.932 243.474 244.932H242.826ZM242.826 236.166V245.634H244.212V237.39H246.3V236.166H242.826ZM247.002 244.932V246.174H247.686C248.622 246.174 249.738 246.156 251.07 245.796L250.926 244.554C249.684 244.896 248.55 244.932 247.686 244.932H247.002ZM247.002 236.166V245.58H248.37V237.39H250.584V236.166H247.002ZM254.958 234.132V250.404H256.38V234.132H254.958ZM57.5119 264.492C53.9839 264.492 51.7879 265.644 51.7879 267.57C51.7879 269.496 53.9839 270.63 57.5119 270.63C61.0219 270.63 63.2359 269.496 63.2359 267.57C63.2359 265.644 61.0219 264.492 57.5119 264.492ZM57.5119 265.68C60.0859 265.68 61.7059 266.364 61.7059 267.57C61.7059 268.758 60.0859 269.46 57.5119 269.46C54.9199 269.46 53.3179 268.758 53.3179 267.57C53.3179 266.364 54.9199 265.68 57.5119 265.68ZM51.9499 274.824V280.188H63.0559V274.824H51.9499ZM61.5979 276.03V278.982H53.4259V276.03H61.5979ZM50.1499 272.034V273.24H64.8559V272.034H50.1499ZM70.9025 264.906V266.49C70.9025 268.92 69.2645 271.17 66.7985 272.07L67.5545 273.258C70.3085 272.214 72.1445 269.568 72.1445 266.49V264.906H70.9025ZM71.1725 264.906V266.49C71.1725 269.478 73.0085 271.962 75.7265 272.952L76.4825 271.782C74.0705 270.936 72.3965 268.83 72.3965 266.49V264.906H71.1725ZM69.1385 274.752V275.976H78.4985V280.404H80.0105V274.752H69.1385ZM78.4985 264.132V273.924H80.0105V264.132H78.4985ZM91.8531 268.2V269.442H95.4711V268.2H91.8531ZM95.0571 264.132V273.654H96.5511V264.132H95.0571ZM86.0031 274.446V280.188H96.5511V274.446H86.0031ZM95.0931 275.634V278.982H87.4611V275.634H95.0931ZM87.3171 265.68V266.994C87.3171 269.298 85.6431 271.458 83.2131 272.322L83.9871 273.51C86.7051 272.502 88.5411 269.964 88.5411 266.994V265.68H87.3171ZM87.6051 265.68V266.976C87.6051 269.712 89.3511 272.178 91.9971 273.132L92.7531 271.944C90.3951 271.116 88.8111 269.082 88.8111 266.976V265.68H87.6051ZM83.6811 265.176V266.382H92.3751V265.176H83.6811ZM106.27 270.45V271.692H109.348V270.45H106.27ZM112.066 264.132V280.404H113.506V264.132H112.066ZM108.844 264.474V279.594H110.266V264.474H108.844ZM103.336 265.482C101.23 265.482 99.8797 267.66 99.8797 271.152C99.8797 274.644 101.23 276.822 103.336 276.822C105.442 276.822 106.81 274.644 106.81 271.152C106.81 267.66 105.442 265.482 103.336 265.482ZM103.336 266.868C104.632 266.868 105.442 268.524 105.442 271.152C105.442 273.78 104.632 275.436 103.336 275.436C102.058 275.436 101.248 273.78 101.248 271.152C101.248 268.524 102.058 266.868 103.336 266.868ZM121.652 270.378C122.282 270.378 122.714 269.964 122.714 269.28C122.714 268.614 122.21 268.254 121.652 268.254C121.328 268.254 121.13 268.38 120.878 268.614L121.724 269.64L121.472 268.308C121.472 267.156 121.976 266.454 123.002 265.788L122.534 264.996C121.13 265.806 120.392 266.958 120.392 268.56C120.392 269.73 120.842 270.378 121.652 270.378ZM125.18 270.378C125.81 270.378 126.242 269.964 126.242 269.28C126.242 268.614 125.738 268.254 125.18 268.254C124.874 268.254 124.658 268.38 124.406 268.614L125.234 269.64L125.018 268.308C125.018 267.156 125.522 266.454 126.53 265.788L126.062 264.996C124.676 265.806 123.92 266.958 123.92 268.56C123.92 269.73 124.388 270.378 125.18 270.378ZM139.627 264.114V280.422H141.139V264.114H139.627ZM140.779 270.54V271.8H143.803V270.54H140.779ZM129.313 275.112V276.372H130.591C133.651 276.372 135.793 276.282 138.295 275.814L138.133 274.554C135.703 275.004 133.597 275.112 130.591 275.112H129.313ZM129.313 265.698V275.67H130.789V266.922H136.873V265.698H129.313ZM149.76 273.888V276.57H151.272V273.888H149.76ZM156.888 264.132V280.404H158.382V264.132H156.888ZM145.422 277.308C148.428 277.308 152.352 277.272 155.97 276.66L155.862 275.562C152.352 276.012 148.302 276.048 145.224 276.066L145.422 277.308ZM145.566 266.112V267.318H155.448V266.112H145.566ZM150.498 268.254C148.176 268.254 146.592 269.442 146.592 271.26C146.592 273.096 148.176 274.266 150.498 274.266C152.838 274.266 154.422 273.096 154.422 271.26C154.422 269.442 152.838 268.254 150.498 268.254ZM150.498 269.406C151.974 269.406 153 270.144 153 271.26C153 272.376 151.974 273.114 150.498 273.114C149.04 273.114 148.014 272.376 148.014 271.26C148.014 270.144 149.04 269.406 150.498 269.406ZM149.76 264.132V266.778H151.254V264.132H149.76ZM165.256 269.64V272.718H166.732V269.64H165.256ZM171.232 269.64V272.718H172.708V269.64H171.232ZM161.62 272.178V273.384H176.326V272.178H161.62ZM168.964 274.608C165.472 274.608 163.384 275.634 163.384 277.488C163.384 279.342 165.472 280.386 168.964 280.386C172.456 280.386 174.544 279.342 174.544 277.488C174.544 275.634 172.456 274.608 168.964 274.608ZM168.964 275.76C171.52 275.76 173.032 276.39 173.032 277.488C173.032 278.604 171.52 279.216 168.964 279.216C166.426 279.216 164.896 278.604 164.896 277.488C164.896 276.39 166.426 275.76 168.964 275.76ZM168.982 264.42C165.436 264.42 163.258 265.554 163.258 267.462C163.258 269.352 165.436 270.468 168.982 270.468C172.51 270.468 174.706 269.352 174.706 267.462C174.706 265.554 172.51 264.42 168.982 264.42ZM168.982 265.59C171.574 265.59 173.176 266.274 173.176 267.462C173.176 268.632 171.574 269.316 168.982 269.316C166.39 269.316 164.788 268.632 164.788 267.462C164.788 266.274 166.39 265.59 168.982 265.59ZM189.987 264.132V280.404H191.481V264.132H189.987ZM185.217 265.878V266.13C185.217 270.45 183.039 273.906 178.341 276.174L179.133 277.38C184.569 274.716 186.693 270.594 186.693 265.878H185.217ZM179.079 265.878V267.102H185.865V265.878H179.079ZM195.457 270.342C196.861 269.514 197.599 268.362 197.599 266.76C197.599 265.608 197.131 264.96 196.339 264.96C195.709 264.96 195.277 265.374 195.277 266.058C195.277 266.706 195.781 267.066 196.339 267.066C196.645 267.066 196.861 266.958 197.113 266.724L196.267 265.698L196.519 267.012C196.519 268.2 196.015 268.884 194.989 269.568L195.457 270.342ZM199.003 270.342C200.389 269.514 201.145 268.362 201.145 266.76C201.145 265.608 200.677 264.96 199.885 264.96C199.273 264.96 198.823 265.374 198.823 266.058C198.823 266.706 199.327 267.066 199.885 267.066C200.191 267.066 200.425 266.958 200.659 266.724L199.813 265.698L200.047 267.012C200.047 268.2 199.543 268.884 198.535 269.568L199.003 270.342ZM203.101 271.692V272.826H217.861V271.692H203.101ZM204.847 274.14V275.202H214.549V276.588H204.901V279.522H206.377V277.614H216.007V274.14H204.847ZM204.901 279.126V280.206H216.529V279.126H204.901ZM204.973 264.6V265.662H214.495V266.976H205.009V269.748H206.485V267.984H215.953V264.6H204.973ZM205.009 269.388V270.468H216.259V269.388H205.009ZM227.195 272.502V277.38H228.671V272.502H227.195ZM233.207 272.502V277.38H234.701V272.502H233.207ZM223.595 277.092V278.334H238.337V277.092H223.595ZM230.939 265.158C227.483 265.158 225.017 266.796 225.017 269.352C225.017 271.89 227.483 273.528 230.939 273.528C234.377 273.528 236.843 271.89 236.843 269.352C236.843 266.796 234.377 265.158 230.939 265.158ZM230.939 266.346C233.549 266.346 235.403 267.534 235.403 269.352C235.403 271.152 233.549 272.34 230.939 272.34C228.329 272.34 226.457 271.152 226.457 269.352C226.457 267.534 228.329 266.346 230.939 266.346ZM244.149 266.904V267.606C244.149 269.802 242.529 271.782 240.135 272.556L240.855 273.726C243.573 272.808 245.373 270.432 245.373 267.606V266.904H244.149ZM244.419 266.904V267.606C244.419 270.27 246.291 272.466 249.027 273.312L249.711 272.142C247.317 271.44 245.643 269.622 245.643 267.606V266.904H244.419ZM240.549 266.094V267.3H249.225V266.094H240.549ZM244.149 264.06V266.526H245.643V264.06H244.149ZM248.739 268.758V270H252.411V268.758H248.739ZM251.979 264.132V273.978H253.473V264.132H251.979ZM248.127 274.41C244.743 274.41 242.691 275.508 242.691 277.398C242.691 279.27 244.743 280.368 248.127 280.368C251.493 280.368 253.545 279.27 253.545 277.398C253.545 275.508 251.493 274.41 248.127 274.41ZM248.127 275.58C250.575 275.58 252.069 276.246 252.069 277.398C252.069 278.532 250.575 279.198 248.127 279.198C245.661 279.198 244.185 278.532 244.185 277.398C244.185 276.246 245.661 275.58 248.127 275.58ZM256.568 266.904V268.128H264.632V266.904H256.568ZM260.6 269.208C258.584 269.208 257.108 270.738 257.108 272.934C257.108 275.112 258.584 276.642 260.6 276.642C262.634 276.642 264.11 275.112 264.11 272.934C264.11 270.738 262.634 269.208 260.6 269.208ZM260.6 270.486C261.86 270.486 262.778 271.494 262.778 272.934C262.778 274.374 261.86 275.382 260.6 275.382C259.358 275.382 258.458 274.374 258.458 272.934C258.458 271.494 259.358 270.486 260.6 270.486ZM268.934 264.132V280.404H270.374V264.132H268.934ZM266.342 270.972V272.214H269.42V270.972H266.342ZM265.46 264.492V279.612H266.864V264.492H265.46ZM259.88 264.6V267.66H261.356V264.6H259.88ZM279.625 265.734V266.418C279.625 268.56 276.835 270.432 273.973 270.846L274.549 272.034C277.825 271.476 280.921 269.334 280.921 266.418V265.734H279.625ZM280.003 265.734V266.418C280.003 269.334 283.081 271.476 286.375 272.034L286.933 270.846C284.089 270.432 281.281 268.56 281.281 266.418V265.734H280.003ZM279.679 274.194V280.404H281.155V274.194H279.679ZM273.109 273.402V274.626H287.815V273.402H273.109ZM274.477 265.14V266.346H286.393V265.14H274.477ZM296.021 269.946V271.188H299.135V269.946H296.021ZM292.979 265.662V268.758C292.979 271.548 291.647 274.464 289.415 275.778L290.351 276.912C292.727 275.454 294.149 272.16 294.149 268.758V265.662H292.979ZM293.267 265.662V268.704C293.267 271.872 294.581 275.112 296.921 276.552L297.785 275.382C295.643 274.086 294.419 271.314 294.419 268.704V265.662H293.267ZM301.997 264.132V280.404H303.437V264.132H301.997ZM298.703 264.474V279.594H300.107V264.474H298.703ZM309.718 272.502V277.38H311.194V272.502H309.718ZM315.73 272.502V277.38H317.224V272.502H315.73ZM306.118 277.092V278.334H320.86V277.092H306.118ZM313.462 265.158C310.006 265.158 307.54 266.796 307.54 269.352C307.54 271.89 310.006 273.528 313.462 273.528C316.9 273.528 319.366 271.89 319.366 269.352C319.366 266.796 316.9 265.158 313.462 265.158ZM313.462 266.346C316.072 266.346 317.926 267.534 317.926 269.352C317.926 271.152 316.072 272.34 313.462 272.34C310.852 272.34 308.98 271.152 308.98 269.352C308.98 267.534 310.852 266.346 313.462 266.346ZM324.206 279.252C324.872 279.252 325.412 278.73 325.412 277.992C325.412 277.236 324.872 276.732 324.206 276.732C323.558 276.732 323.036 277.236 323.036 277.992C323.036 278.73 323.558 279.252 324.206 279.252Z" fill="black"/>
<rect x="16" y="364" width="344" height="119" rx="12" fill="white"/>
<rect x="105" y="338" width="165" height="43" rx="21.5" fill="#FFEEB2"/>
<path d="M61.3956 408.662V419.336H67.6056V408.662H66.2196V412.64H62.8176V408.662H61.3956ZM62.8176 413.846H66.2196V418.112H62.8176V413.846ZM73.2036 407.132V423.404H74.6436V407.132H73.2036ZM70.5936 413.576V414.8H73.7256V413.576H70.5936ZM69.6036 407.474V422.594H71.0256V407.474H69.6036ZM78.0442 413.504V414.728H79.3042C82.6342 414.728 84.6142 414.62 86.9182 414.152L86.7382 412.946C84.5062 413.396 82.5802 413.504 79.3042 413.504H78.0442ZM78.0442 408.068V414.224H79.5202V409.274H85.2262V408.068H78.0442ZM88.4482 407.132V415.322H89.9422V407.132H88.4482ZM89.5282 410.552V411.794H92.3542V410.552H89.5282ZM79.6102 416.15V417.338H88.4842V419.012H79.6462V422.684H81.1222V420.164H89.9422V416.15H79.6102ZM79.6462 421.982V423.188H90.5362V421.982H79.6462ZM104.827 407.114V423.404H106.339V407.114H104.827ZM105.925 413.72V414.962H108.931V413.72H105.925ZM100.669 408.878V409.112C100.669 413.414 98.4188 416.888 93.9188 419.174L94.7468 420.326C100.003 417.68 102.127 413.504 102.127 408.878H100.669ZM94.6748 408.878V410.102H101.443V408.878H94.6748ZM117.767 417.338C114.455 417.338 112.421 418.454 112.421 420.362C112.421 422.27 114.455 423.386 117.767 423.386C121.079 423.386 123.113 422.27 123.113 420.362C123.113 418.454 121.079 417.338 117.767 417.338ZM117.767 418.544C120.179 418.544 121.655 419.21 121.655 420.362C121.655 421.532 120.179 422.198 117.767 422.198C115.355 422.198 113.879 421.532 113.879 420.362C113.879 419.21 115.355 418.544 117.767 418.544ZM121.457 407.132V416.906H122.951V407.132H121.457ZM122.537 411.218V412.478H125.363V411.218H122.537ZM110.999 408.158V415.664H118.523V408.158H117.065V410.588H112.475V408.158H110.999ZM112.475 411.776H117.065V414.458H112.475V411.776ZM132.112 408.302C129.574 408.302 127.738 409.868 127.738 412.136C127.738 414.422 129.574 415.988 132.112 415.988C134.65 415.988 136.468 414.422 136.468 412.136C136.468 409.868 134.65 408.302 132.112 408.302ZM132.112 409.598C133.786 409.598 135.01 410.624 135.01 412.136C135.01 413.648 133.786 414.692 132.112 414.692C130.42 414.692 129.196 413.648 129.196 412.136C129.196 410.624 130.42 409.598 132.112 409.598ZM138.592 407.114V423.422H140.086V407.114H138.592ZM127.126 419.858C130.024 419.858 134.002 419.84 137.656 419.138L137.53 418.04C133.984 418.598 129.88 418.616 126.91 418.616L127.126 419.858ZM153.092 422.252C156.404 422.252 158.708 419.588 158.708 415.358C158.708 411.146 156.404 408.572 153.092 408.572C149.762 408.572 147.458 411.128 147.458 415.358C147.458 419.588 149.762 422.252 153.092 422.252ZM153.092 420.866C150.716 420.866 149.168 418.742 149.168 415.358C149.168 412.064 150.716 410.03 153.092 410.03C155.45 410.03 157.016 412.064 157.016 415.358C157.016 418.742 155.45 420.866 153.092 420.866ZM157.124 425.33C157.916 425.33 158.6 425.186 159.014 425.024L158.69 423.728C158.33 423.854 157.898 423.926 157.304 423.926C155.738 423.926 154.442 423.224 153.92 421.838L152.192 421.964C152.894 423.89 154.604 425.33 157.124 425.33ZM161.519 422H163.193V416.42H165.641C168.323 416.42 170.249 415.16 170.249 412.514C170.249 409.778 168.323 408.806 165.641 408.806H161.519V422ZM163.193 415.07V410.174H165.407C167.459 410.174 168.593 410.786 168.593 412.514C168.593 414.224 167.459 415.07 165.407 415.07H163.193ZM168.773 422H170.645L166.613 415.106L165.317 415.97L168.773 422ZM173.737 408.716V409.94H184.069V408.716H173.737ZM171.973 419.966V421.19H186.679V419.966H171.973ZM183.457 408.716V410.264C183.457 412.19 183.457 414.476 182.755 417.626L184.249 417.806C184.915 414.476 184.915 412.244 184.915 410.264V408.716H183.457ZM183.781 412.622L173.287 413.036L173.521 414.332L183.781 413.756V412.622ZM177.697 415.754V420.416H179.191V415.754H177.697ZM190.35 414.926V416.15H201.528V414.926H190.35ZM188.496 419.966V421.208H203.238V419.966H188.496ZM190.35 408.626V415.466H191.844V409.868H201.366V408.626H190.35ZM205 420.164V421.406H219.742V420.164H205ZM211.588 416.672V420.686H213.082V416.672H211.588ZM206.782 408.338V409.544H216.448V412.064H206.836V416.528H208.312V413.27H217.924V408.338H206.782ZM206.836 415.898V417.122H218.302V415.898H206.836ZM236.6 407.15V419.084H238.094V407.15H236.6ZM237.626 412.064V413.306H240.506V412.064H237.626ZM227.96 421.82V423.044H238.832V421.82H227.96ZM227.96 417.932V422.108H229.454V417.932H227.96ZM226.142 408.302V416.366H233.666V408.302H232.208V411.02H227.618V408.302H226.142ZM227.618 412.19H232.208V415.16H227.618V412.19ZM253.105 407.132V415.61H254.617V407.132H253.105ZM254.203 410.75V411.992H257.011V410.75H254.203ZM242.755 407.87V414.386H244.249V407.87H242.755ZM242.755 413.594V414.854H244.033C246.463 414.854 248.893 414.674 251.647 414.116L251.467 412.892C248.803 413.432 246.373 413.594 244.033 413.594H242.755ZM244.321 416.456V423.188H254.599V416.456H253.123V418.616H245.797V416.456H244.321ZM245.797 419.822H253.123V421.982H245.797V419.822ZM270.311 407.15V419.066H271.823V407.15H270.311ZM261.365 421.82V423.044H272.309V421.82H261.365ZM261.365 417.968V422.396H262.841V417.968H261.365ZM262.715 408.032V409.688C262.715 412.208 261.095 414.584 258.647 415.538L259.421 416.744C262.157 415.628 263.957 412.856 263.957 409.688V408.032H262.715ZM262.985 408.032V409.688C262.985 412.784 264.785 415.394 267.485 416.438L268.277 415.232C265.847 414.35 264.209 412.136 264.209 409.688V408.032H262.985ZM279.04 409.904V410.606C279.04 412.802 277.42 414.782 275.026 415.556L275.746 416.726C278.464 415.808 280.264 413.432 280.264 410.606V409.904H279.04ZM279.31 409.904V410.606C279.31 413.27 281.182 415.466 283.918 416.312L284.602 415.142C282.208 414.44 280.534 412.622 280.534 410.606V409.904H279.31ZM275.44 409.094V410.3H284.116V409.094H275.44ZM279.04 407.06V409.526H280.534V407.06H279.04ZM283.63 411.758V413H287.302V411.758H283.63ZM286.87 407.132V416.978H288.364V407.132H286.87ZM283.018 417.41C279.634 417.41 277.582 418.508 277.582 420.398C277.582 422.27 279.634 423.368 283.018 423.368C286.384 423.368 288.436 422.27 288.436 420.398C288.436 418.508 286.384 417.41 283.018 417.41ZM283.018 418.58C285.466 418.58 286.96 419.246 286.96 420.398C286.96 421.532 285.466 422.198 283.018 422.198C280.552 422.198 279.076 421.532 279.076 420.398C279.076 419.246 280.552 418.58 283.018 418.58ZM296.222 408.986V410.192H309.308V408.986H296.222ZM295.466 417.68V418.904H310.208V417.68H295.466ZM302.054 418.67V423.422H303.548V418.67H302.054ZM302.81 411.128C299.48 411.128 297.518 412.1 297.518 413.846C297.518 415.574 299.48 416.564 302.81 416.564C306.122 416.564 308.084 415.574 308.084 413.846C308.084 412.1 306.122 411.128 302.81 411.128ZM302.81 412.28C305.186 412.28 306.554 412.838 306.554 413.846C306.554 414.854 305.186 415.412 302.81 415.412C300.434 415.412 299.066 414.854 299.066 413.846C299.066 412.838 300.434 412.28 302.81 412.28ZM302.054 407.042V409.796H303.548V407.042H302.054ZM312.403 425.42C314.041 424.754 315.031 423.404 315.031 421.658C315.031 420.47 314.509 419.732 313.645 419.732C312.979 419.732 312.421 420.164 312.421 420.884C312.421 421.622 312.979 422.036 313.609 422.036C313.933 422.036 314.221 421.946 314.437 421.676L313.645 420.488L313.825 421.964C313.825 423.062 313.141 423.962 312.025 424.466L312.403 425.42ZM73.1402 446.762V447.986H87.9002V446.762H73.1402ZM79.7282 447.338V453.404H81.2042V447.338H79.7282ZM74.9942 437.78V444.818H86.0102V437.78H84.5342V440.012H76.4882V437.78H74.9942ZM76.4882 441.218H84.5342V443.612H76.4882V441.218ZM97.7808 442.64V443.864H102.317V442.64H97.7808ZM93.8568 438.536V441.434C93.8568 444.458 92.0208 447.59 89.6268 448.778L90.5808 449.966C93.1548 448.58 95.0808 445.088 95.0808 441.434V438.536H93.8568ZM94.1448 438.536V441.434C94.1448 444.998 96.0348 448.346 98.6628 449.678L99.5448 448.472C97.1868 447.356 95.3508 444.404 95.3508 441.434V438.536H94.1448ZM101.579 437.114V453.422H103.055V437.114H101.579ZM116.727 445.232V447.698H118.221V445.232H116.727ZM110.139 444.35V445.502H124.827V444.35H110.139ZM116.745 437.024V439.004H118.221V437.024H116.745ZM116.673 439.148V439.4C116.673 441.146 114.117 442.28 110.913 442.478L111.345 443.63C114.945 443.324 117.987 441.956 117.987 439.4V439.148H116.673ZM116.979 439.148V439.4C116.979 441.956 120.003 443.324 123.603 443.63L124.035 442.478C120.849 442.28 118.293 441.146 118.293 439.4V439.148H116.979ZM111.633 438.554V439.688H123.333V438.554H111.633ZM111.903 446.978V448.112H121.479V449.498H111.939V452.522H113.415V450.56H122.955V446.978H111.903ZM111.939 452.09V453.224H123.441V452.09H111.939ZM138.469 437.132V445.862H139.981V437.132H138.469ZM129.487 446.672V453.188H139.981V446.672H138.505V448.652H130.963V446.672H129.487ZM130.963 449.84H138.505V451.982H130.963V449.84ZM131.251 437.906C128.785 437.906 127.003 439.436 127.003 441.65C127.003 443.882 128.785 445.412 131.251 445.412C133.717 445.412 135.481 443.882 135.481 441.65C135.481 439.436 133.717 437.906 131.251 437.906ZM131.251 439.148C132.871 439.148 134.041 440.174 134.041 441.65C134.041 443.126 132.871 444.152 131.251 444.152C129.631 444.152 128.461 443.126 128.461 441.65C128.461 440.174 129.631 439.148 131.251 439.148ZM143.13 445.448V446.672H157.872V445.448H143.13ZM149.862 446.204V449.948H151.356V446.204H149.862ZM145.02 437.888V443.612H155.964V437.888H145.02ZM154.488 439.094V442.406H146.478V439.094H154.488ZM145.002 451.82V453.044H156.234V451.82H145.002ZM145.002 448.382V452.252H146.478V448.382H145.002ZM174.748 437.132V446.33H176.242V437.132H174.748ZM175.774 441.092V442.334H178.654V441.092H175.774ZM165.874 447.212V448.436H176.674V447.212H165.874ZM165.73 451.946V453.152H176.872V451.946H165.73ZM168.124 447.5V452.522H169.6V447.5H168.124ZM172.966 447.5V452.522H174.424V447.5H172.966ZM168.16 438.068C165.694 438.068 163.912 439.634 163.912 441.884C163.912 444.134 165.694 445.7 168.16 445.7C170.626 445.7 172.408 444.134 172.408 441.884C172.408 439.634 170.626 438.068 168.16 438.068ZM168.16 439.31C169.78 439.31 170.95 440.372 170.95 441.884C170.95 443.396 169.78 444.458 168.16 444.458C166.54 444.458 165.37 443.396 165.37 441.884C165.37 440.372 166.54 439.31 168.16 439.31ZM186.717 443.45V444.692H189.795V443.45H186.717ZM192.513 437.132V453.404H193.953V437.132H192.513ZM189.291 437.474V452.594H190.713V437.474H189.291ZM183.783 438.482C181.677 438.482 180.327 440.66 180.327 444.152C180.327 447.644 181.677 449.822 183.783 449.822C185.889 449.822 187.257 447.644 187.257 444.152C187.257 440.66 185.889 438.482 183.783 438.482ZM183.783 439.868C185.079 439.868 185.889 441.524 185.889 444.152C185.889 446.78 185.079 448.436 183.783 448.436C182.505 448.436 181.695 446.78 181.695 444.152C181.695 441.524 182.505 439.868 183.783 439.868ZM211.728 437.15V449.084H213.222V437.15H211.728ZM212.754 442.064V443.306H215.634V442.064H212.754ZM203.088 451.82V453.044H213.96V451.82H203.088ZM203.088 447.932V452.108H204.582V447.932H203.088ZM201.27 438.302V446.366H208.794V438.302H207.336V441.02H202.746V438.302H201.27ZM202.746 442.19H207.336V445.16H202.746V442.19ZM228.233 437.132V445.61H229.745V437.132H228.233ZM229.331 440.75V441.992H232.139V440.75H229.331ZM217.883 437.87V444.386H219.377V437.87H217.883ZM217.883 443.594V444.854H219.161C221.591 444.854 224.021 444.674 226.775 444.116L226.595 442.892C223.931 443.432 221.501 443.594 219.161 443.594H217.883ZM219.449 446.456V453.188H229.727V446.456H228.251V448.616H220.925V446.456H219.449ZM220.925 449.822H228.251V451.982H220.925V449.822ZM233.578 439.904V441.128H241.642V439.904H233.578ZM237.61 442.208C235.594 442.208 234.118 443.738 234.118 445.934C234.118 448.112 235.594 449.642 237.61 449.642C239.644 449.642 241.12 448.112 241.12 445.934C241.12 443.738 239.644 442.208 237.61 442.208ZM237.61 443.486C238.87 443.486 239.788 444.494 239.788 445.934C239.788 447.374 238.87 448.382 237.61 448.382C236.368 448.382 235.468 447.374 235.468 445.934C235.468 444.494 236.368 443.486 237.61 443.486ZM245.944 437.132V453.404H247.384V437.132H245.944ZM243.352 443.972V445.214H246.43V443.972H243.352ZM242.47 437.492V452.612H243.874V437.492H242.47ZM236.89 437.6V440.66H238.366V437.6H236.89ZM256.634 438.734V439.418C256.634 441.56 253.844 443.432 250.982 443.846L251.558 445.034C254.834 444.476 257.93 442.334 257.93 439.418V438.734H256.634ZM257.012 438.734V439.418C257.012 442.334 260.09 444.476 263.384 445.034L263.942 443.846C261.098 443.432 258.29 441.56 258.29 439.418V438.734H257.012ZM256.688 447.194V453.404H258.164V447.194H256.688ZM250.118 446.402V447.626H264.824V446.402H250.118ZM251.486 438.14V439.346H263.402V438.14H251.486ZM273.031 442.946V444.188H276.145V442.946H273.031ZM269.989 438.662V441.758C269.989 444.548 268.657 447.464 266.425 448.778L267.361 449.912C269.737 448.454 271.159 445.16 271.159 441.758V438.662H269.989ZM270.277 438.662V441.704C270.277 444.872 271.591 448.112 273.931 449.552L274.795 448.382C272.653 447.086 271.429 444.314 271.429 441.704V438.662H270.277ZM279.007 437.132V453.404H280.447V437.132H279.007ZM275.713 437.474V452.594H277.117V437.474H275.713ZM286.727 445.502V450.38H288.203V445.502H286.727ZM292.739 445.502V450.38H294.233V445.502H292.739ZM283.127 450.092V451.334H297.869V450.092H283.127ZM290.471 438.158C287.015 438.158 284.549 439.796 284.549 442.352C284.549 444.89 287.015 446.528 290.471 446.528C293.909 446.528 296.375 444.89 296.375 442.352C296.375 439.796 293.909 438.158 290.471 438.158ZM290.471 439.346C293.081 439.346 294.935 440.534 294.935 442.352C294.935 444.152 293.081 445.34 290.471 445.34C287.861 445.34 285.989 444.152 285.989 442.352C285.989 440.534 287.861 439.346 290.471 439.346ZM301.216 452.252C301.882 452.252 302.422 451.73 302.422 450.992C302.422 450.236 301.882 449.732 301.216 449.732C300.568 449.732 300.046 450.236 300.046 450.992C300.046 451.73 300.568 452.252 301.216 452.252Z" fill="black"/>
<path d="M130 361.238V348.925H133.246V352.436H137.817V348.925H141.016V361.262L130 361.238ZM134.234 367.992H144.704V348.784H147.996V353.923H150.322V357.118H147.996V370.977H130.965V363.205H134.223L134.234 367.992ZM137.806 358.019V355.514H133.234V358.019H137.806Z" fill="#65B683"/>
<path d="M151.788 348.925H155.115V356.662H163.409V359.705H151.776L151.788 348.925ZM156.092 363.38H166.469V348.796H169.842V354.777H172.169V357.937H169.842V371.023H152.8V361.449H156.139L156.092 363.38ZM166.457 368.062V366.201H156.081V368.05L166.457 368.062Z" fill="#65B683"/>
<path d="M181.3 350.236H185.802V353.162H173.564V350.224H178.043V347.988H181.312L181.3 350.236ZM180.509 354.59C181.72 354.568 182.89 355.03 183.762 355.875C184.634 356.72 185.138 357.878 185.162 359.096V366.365C185.135 367.582 184.63 368.739 183.759 369.583C182.887 370.427 181.719 370.89 180.509 370.871H178.776C178.176 370.884 177.58 370.777 177.021 370.557C176.462 370.337 175.952 370.008 175.52 369.59C175.088 369.171 174.742 368.671 174.502 368.117C174.262 367.564 174.134 366.968 174.123 366.365V359.096C174.147 357.878 174.651 356.72 175.523 355.875C176.396 355.03 177.565 354.568 178.776 354.59H180.509ZM179.765 367.723C180.042 367.744 180.321 367.707 180.584 367.614C180.847 367.52 181.088 367.374 181.291 367.182C181.494 366.991 181.656 366.759 181.766 366.501C181.875 366.244 181.931 365.966 181.928 365.686V359.775C181.931 359.494 181.875 359.215 181.766 358.957C181.656 358.698 181.495 358.465 181.292 358.271C181.089 358.078 180.849 357.929 180.586 357.833C180.323 357.738 180.044 357.697 179.765 357.715H179.532C179.253 357.697 178.974 357.738 178.711 357.833C178.448 357.929 178.208 358.078 178.005 358.271C177.802 358.465 177.641 358.698 177.531 358.957C177.422 359.215 177.366 359.494 177.368 359.775V365.686C177.368 365.967 177.425 366.245 177.536 366.502C177.647 366.76 177.809 366.991 178.014 367.183C178.218 367.374 178.459 367.521 178.723 367.614C178.986 367.706 179.265 367.744 179.544 367.723H179.765ZM191.584 357.692H193.91V360.887H191.584V370.988H188.303V348.749H191.584V357.692Z" fill="#65B683"/>
<path d="M203.135 352.073H194.771V348.925H206.799V352.073L204.112 370.801H200.518L203.135 352.073ZM213.988 371H210.406V348.761H214.047L213.988 371Z" fill="#65B683"/>
<g clip-path="url(#clip1_923_459)">
<path d="M226.418 354.696H227.35C227.43 352.89 228.219 351.183 229.551 349.933C230.883 348.682 232.656 347.984 234.5 347.984C236.344 347.984 238.117 348.682 239.449 349.933C240.781 351.183 241.57 352.89 241.65 354.696H242.582C243.488 354.697 244.357 355.05 244.998 355.679C245.639 356.307 245.999 357.16 246 358.048V367.656C245.997 368.543 245.636 369.394 244.995 370.02C244.354 370.647 243.487 370.999 242.582 371H226.418C225.513 370.999 224.646 370.647 224.005 370.02C223.364 369.394 223.003 368.543 223 367.656V358.048C223.001 357.16 223.361 356.307 224.002 355.679C224.643 355.05 225.512 354.697 226.418 354.696V354.696ZM234.499 351.719C233.664 351.72 232.859 352.025 232.24 352.575C231.621 353.126 231.233 353.881 231.151 354.696H237.849C237.767 353.881 237.378 353.125 236.759 352.575C236.14 352.024 235.334 351.719 234.499 351.719V351.719Z" fill="#65B683"/>
</g>
<path d="M114.994 85.3429C114.991 83.4429 114.225 81.6218 112.865 80.2795C111.505 78.9371 109.662 78.1832 107.74 78.1832H99.5596V75.1204C99.5596 73.8115 98.7124 73 96.9916 73C95.2707 73 94.4235 73.8508 94.4235 75.1204V78.1832H86.2561C84.3345 78.1832 82.4915 78.9371 81.1315 80.2795C79.7715 81.6218 79.0057 83.4429 79.0021 85.3429C78.9736 86.8512 79.2295 88.3514 79.7567 89.767C80.0087 90.4097 80.3866 90.9968 80.8686 91.4948L81.4245 97.6728C81.6176 99.9225 82.6607 102.018 84.346 103.541C86.0313 105.064 88.2352 105.904 90.5185 105.893H94.4897C94.4897 107.202 95.3501 108 97.0577 108C98.7654 108 99.6258 107.149 99.6258 105.893H103.676C105.962 105.904 108.167 105.062 109.853 103.536C111.539 102.01 112.58 99.9117 112.77 97.6597L113.34 91.3115C113.75 90.8467 114.077 90.3153 114.306 89.7408C114.807 88.3293 115.041 86.8383 114.994 85.3429V85.3429Z" fill="#FFEEB2"/>
<path d="M295.994 85.3429C295.991 83.4429 295.225 81.6218 293.865 80.2795C292.505 78.9371 290.662 78.1832 288.74 78.1832H280.56V75.1204C280.56 73.8115 279.712 73 277.992 73C276.271 73 275.424 73.8508 275.424 75.1204V78.1832H267.256C265.335 78.1832 263.491 78.9371 262.131 80.2795C260.771 81.6218 260.006 83.4429 260.002 85.3429C259.974 86.8512 260.23 88.3514 260.757 89.767C261.009 90.4097 261.387 90.9968 261.869 91.4948L262.425 97.6728C262.618 99.9225 263.661 102.018 265.346 103.541C267.031 105.064 269.235 105.904 271.519 105.893H275.49C275.49 107.202 276.35 108 278.058 108C279.765 108 280.626 107.149 280.626 105.893H284.676C286.962 105.904 289.167 105.062 290.853 103.536C292.539 102.01 293.58 99.9117 293.77 97.6597L294.34 91.3115C294.75 90.8467 295.077 90.3153 295.306 89.7408C295.807 88.3293 296.041 86.8383 295.994 85.3429V85.3429Z" fill="#FFEEB2"/>
<path d="M244.974 179.476L242.131 176.635C241.93 176.434 241.692 176.274 241.43 176.165C241.167 176.056 240.885 176 240.601 176C240.022 176 239.477 176.227 239.069 176.635L236.009 179.695C235.808 179.896 235.648 180.134 235.539 180.397C235.43 180.659 235.374 180.941 235.374 181.225C235.374 181.804 235.601 182.349 236.009 182.758L238.246 184.995C237.723 186.149 236.995 187.199 236.097 188.095C235.202 188.994 234.152 189.725 232.997 190.252L230.76 188.015C230.56 187.813 230.321 187.653 230.059 187.544C229.796 187.435 229.515 187.379 229.23 187.379C228.651 187.379 228.106 187.606 227.698 188.015L224.635 191.072C224.434 191.273 224.274 191.511 224.165 191.774C224.056 192.037 224 192.319 224 192.604C224 193.183 224.227 193.728 224.635 194.137L227.473 196.975C228.125 197.629 229.025 198 229.948 198C230.143 198 230.33 197.984 230.514 197.952C234.113 197.359 237.683 195.445 240.564 192.567C243.442 189.691 245.354 186.124 245.954 182.515C246.136 181.412 245.77 180.277 244.974 179.476Z" fill="#65B683"/>
<defs>
<clipPath id="clip0_923_459">
<rect width="123" height="31" fill="white" transform="translate(126 77)"/>
</clipPath>
<clipPath id="clip1_923_459">
<rect width="23" height="23" fill="white" transform="matrix(-1 0 0 1 246 348)"/>
</clipPath>
</defs>
</svg>
