<svg width="375" height="26" viewBox="0 0 375 26" fill="none" xmlns="http://www.w3.org/2000/svg">
<path d="M343.733 26C343.581 25.9994 343.429 25.9979 343.276 25.9956L4.50808e-09 25.9484L31.8353 25.9485C37.3922 25.9467 42.8823 24.7921 47.9208 22.5651L67.7155 13.7911C75.3188 10.4051 83.8865 9.50059 92.0867 11.2182L119.87 17.1104C127.673 18.7661 135.827 18.0411 143.171 15.039L172.877 2.93323C177.621 0.997913 182.73 -1.68088e-05 187.893 -1.63574e-05C193.055 -1.59061e-05 198.164 0.997915 202.908 2.93323L232.546 15.0133C239.897 18.0087 248.053 18.7334 255.861 17.0847L283.509 11.2182C291.709 9.50061 300.277 10.4051 307.88 13.7912L327.662 22.5651C332.555 24.7446 337.877 25.9131 343.276 25.9956L375 26L343.733 26Z" fill="white"/>
</svg>
