<svg width="375" height="26" viewBox="0 0 375 26" fill="none" xmlns="http://www.w3.org/2000/svg">
<path d="M31.2667 0C31.4191 0.000599028 31.5713 0.00206269 31.7236 0.00438931L375 0.0515665L343.165 0.0515075C337.608 0.0533056 332.118 1.20789 327.079 3.43485L307.285 12.2088C299.681 15.5949 291.114 16.4994 282.913 14.7818L255.13 8.88954C247.327 7.23389 239.173 7.95887 231.829 10.961L202.123 23.0668C197.379 25.0021 192.27 26 187.107 26C181.945 26 176.836 25.0021 172.092 23.0668L142.454 10.9867C135.103 7.99126 126.947 7.26658 119.139 8.91531L91.491 14.7818C83.2908 16.4994 74.7232 15.5949 67.1198 12.2088L47.3384 3.43485C42.4454 1.25537 37.1233 0.0869227 31.7236 0.00438931L0 2.94834e-05L31.2667 0Z" fill="white"/>
</svg>
