<svg width="32" height="31" viewBox="0 0 32 31" fill="none" xmlns="http://www.w3.org/2000/svg">
<path d="M31.9969 11.08C31.9923 9.43144 31.3116 7.85164 30.1036 6.68593C28.8956 5.52021 27.2586 4.86333 25.5502 4.85889H18.2831V2.20064C18.2831 1.09942 17.5223 0.365234 16.0008 0.365234C14.4792 0.365234 13.716 1.09942 13.716 2.20064V4.85889H6.45139C4.74261 4.86269 3.10491 5.51926 1.89639 6.68505C0.687862 7.85083 0.0068509 9.43103 0.00225486 11.08C-0.0253437 12.3885 0.200615 13.6904 0.668534 14.9187C0.895424 15.4799 1.23318 15.9932 1.66301 16.4301L2.16024 21.7971C2.33151 23.7502 3.25893 25.5692 4.75774 26.892C6.25655 28.2147 8.21673 28.9441 10.2478 28.9347H13.7284C13.7284 30.0335 14.4917 30.7652 16.0132 30.7652C17.5348 30.7652 18.293 30.0455 18.2955 28.9347H21.8931C23.9241 28.9441 25.8843 28.2147 27.3831 26.892C28.8819 25.5692 29.8093 23.7502 29.9806 21.7971L30.4902 16.279C30.854 15.8757 31.1425 15.4147 31.343 14.9163C31.8076 13.6882 32.0294 12.387 31.9969 11.08Z" fill="#FFCD00"/>
<path d="M12.4799 22.3652H19.4239V20.6292H17.1839C16.6939 20.6292 16.0079 20.6852 15.4899 20.7412C17.3799 18.8932 18.9339 16.8772 18.9339 15.0012C18.9339 13.0692 17.6319 11.8092 15.6719 11.8092C14.2579 11.8092 13.3339 12.3552 12.3819 13.3772L13.5019 14.4972C14.0339 13.9232 14.6499 13.4332 15.4059 13.4332C16.3999 13.4332 16.9599 14.0632 16.9599 15.1132C16.9599 16.7092 15.2939 18.6552 12.4799 21.1752V22.3652Z" fill="#154734"/>
</svg>
