<svg width="32" height="31" viewBox="0 0 32 31" fill="none" xmlns="http://www.w3.org/2000/svg">
<path d="M31.9969 10.892C31.9923 9.27238 31.3116 7.7203 30.1036 6.57504C28.8956 5.42977 27.2586 4.78441 25.5502 4.78006H18.2831V2.16844C18.2831 1.08654 17.5223 0.365234 16.0008 0.365234C14.4792 0.365234 13.716 1.08654 13.716 2.16844V4.78006H6.45139C4.74261 4.78379 3.10491 5.42884 1.89639 6.57417C0.687862 7.71951 0.0068509 9.27198 0.00225486 10.892C-0.0253437 12.1775 0.200615 13.4566 0.668534 14.6634C0.895424 15.2148 1.23318 15.7191 1.66301 16.1483L2.16024 21.4211C2.33151 23.3399 3.25893 25.1271 4.75774 26.4266C6.25655 27.7262 8.21673 28.4427 10.2478 28.4335H13.7284C13.7284 29.513 14.4917 30.2319 16.0132 30.2319C17.5348 30.2319 18.293 29.5248 18.2955 28.4335H21.8931C23.9241 28.4427 25.8843 27.7262 27.3831 26.4266C28.8819 25.1271 29.8093 23.3399 29.9806 21.4211L30.4902 15.9998C30.854 15.6036 31.1425 15.1507 31.343 14.661C31.8076 13.4545 32.0294 12.1761 31.9969 10.892Z" fill="#FFCD00"/>
<path d="M13.0257 21.6987H19.2557V20.0327H17.3097V11.3247H15.7837C15.1257 11.7447 14.4117 12.0107 13.3757 12.2067V13.4807H15.2517V20.0327H13.0257V21.6987Z" fill="#154734"/>
</svg>
