<svg xmlns="http://www.w3.org/2000/svg" xmlns:xlink="http://www.w3.org/1999/xlink" viewBox="0 0 738 600"><defs><style>.cls-1{fill:none;}.cls-2{clip-path:url(#clip-path);}.cls-3{fill:#ffcd00;}.cls-4{fill:#ffce01;}.cls-5{fill:#234535;}.cls-6{fill:#6cc49a;}.cls-7{fill:#154734;}.cls-8{fill:#0a2117;}.cls-9{fill:#3f4a54;}.cls-10{fill:#216345;}.cls-11{fill:#b0bfd6;}.cls-12{fill:#8595aa;}.cls-13{fill:#fff;}.cls-14{fill:#6a7989;}.cls-15{fill:#cad5e0;}.cls-16{fill:#ffe0cf;}.cls-17{fill:#ffbda6;}</style><clipPath id="clip-path"><rect class="cls-1" width="738" height="600"/></clipPath></defs><g id="레이어_3" data-name="레이어 3"><g class="cls-2"><rect class="cls-3" width="739.43" height="601.17"/><path class="cls-4" d="M739.88,601.61H-.44V-.44H739.88ZM.44,600.72H739V.44H.44Z"/><circle class="cls-5" cx="67.61" cy="63.02" r="35.66"/><path class="cls-3" d="M60.28,73.09h4c4.59,0,6.4-1.51,6.4-3.91s-1.81-3.71-6.57-3.71a20.55,20.55,0,0,1-2.48-.09,55.53,55.53,0,0,1,0-6.06A18.52,18.52,0,0,1,64,59.23c3.79,0,5.14-1.3,5.14-3.45,0-2-1.77-3-5.48-3H60.7a55.52,55.52,0,0,1,0-6.32,37.42,37.42,0,0,1,3.75-.13C72.08,46.55,76,49.42,76,55.48c0,2.57-.72,5-3,6.37,3.25,1.47,4.72,4.12,4.72,8,0,6.07-4,10-12.64,10-1.26,0-3.41,0-4.8-.12A55.56,55.56,0,0,1,60.28,73.09Z"/><path class="cls-4" d="M65.08,80.24c-1.32,0-3.46,0-4.83-.13l-.38,0,0-.39a56.57,56.57,0,0,1,0-6.64l0-.41h4.37c4,0,6-1.14,6-3.47,0-1.52-.7-3.27-6.13-3.27a24.29,24.29,0,0,1-2.53-.08l-.37,0,0-.38a59.29,59.29,0,0,1,0-6.12l0-.37.37,0A19.6,19.6,0,0,1,64,58.79c4.16,0,4.69-1.61,4.69-3,0-.64,0-2.59-5-2.59H60.29l0-.41a52.4,52.4,0,0,1,0-6.39l0-.38L61,46a32.09,32.09,0,0,1,3.5-.1c8.08.26,12,3.41,12,9.62,0,2.88-.87,5-2.59,6.31,2.88,1.58,4.28,4.21,4.28,8C78.17,76.53,73.52,80.24,65.08,80.24Zm-4.38-1c1.34.07,3.2.11,4.38.11,7.87,0,12.2-3.39,12.2-9.54,0-3.72-1.46-6.2-4.46-7.56L72,61.89l.74-.43c1.87-1.08,2.81-3.1,2.81-6,0-5.71-3.54-8.48-11.15-8.74-1.09,0-2.13,0-3.32.11-.09,1.49-.09,4,0,5.45h2.49c3.93,0,5.92,1.17,5.92,3.48,0,2.62-1.83,3.9-5.58,3.9-.8,0-1.38,0-1.94,0-.09,1.65-.06,3.91,0,5.26.61,0,1.24,0,2.06,0,3,0,7,.43,7,4.16,0,2.89-2.3,4.36-6.85,4.36H60.7C60.61,75.09,60.61,77.7,60.7,79.24Z"/><path class="cls-6" d="M642.89,305.56l-522.61,5.89a21.59,21.59,0,0,1-21.82-21.33l-.23-21a21.56,21.56,0,0,1,21.33-21.82L336.72,228.6a620.82,620.82,0,0,1,93.69-1l211.75,13.76A21.58,21.58,0,0,1,664,262.72l.24,21A21.59,21.59,0,0,1,642.89,305.56Z"/><path class="cls-6" d="M642.86,303.1c-25.45,5-57.09,6.14-82.55,8.31s-51,3.35-76.47,3.85l-153,3.07c-50.88,1-100.24,2.24-149.6,3.4l-37,.85-18.56.39-4.65.1h-.59l-.9,0-1.78-.06c-1.19,0-2.37-.26-3.56-.42a32.65,32.65,0,0,1-13.2-5.42,33.61,33.61,0,0,1-9.74-10.47A32.73,32.73,0,0,1,86.75,293l-.12-1.81,0-.9v-.6l0-2.34-.08-4.7q-.06-4.69-.14-9.4l0-2.35,0-1.18v-.65l0-.91a28,28,0,0,1,.27-3.65l.26-1.81c.11-.61.27-1.2.4-1.8a33.58,33.58,0,0,1,32.22-25.65l-.89,0,.65,0C170,231,216,227.53,262.09,224.16l69.67-5.07,9-.63c3-.19,6-.38,9.1-.53q9.14-.48,18.44-.68,18.6-.45,38,.24,9.69.33,19.37,1l19.16,1.41,38.14,2.88,76.3,5.79c20.49,1.53,57.14,4.73,83.29,7.63h-.39a26.21,26.21,0,0,1,11.51,3,25.28,25.28,0,0,1,7.65,6.15A25.84,25.84,0,0,1,666.4,255c.22.86.38,1.73.57,2.59s.2,1.73.28,2.59,0,1.71,0,2.55-.08,1.48-.11,2.21c-.32,5.85-.64,11.53-1,17.21a38.13,38.13,0,0,1-.52,4.44,22.37,22.37,0,0,1-1.34,4.35,20.91,20.91,0,0,1-5.17,7.26,19.28,19.28,0,0,1-16.21,4.91,18.88,18.88,0,0,0,13.54-8.17,17.88,17.88,0,0,0,2.72-7.1,17.21,17.21,0,0,0,.16-3.72c0-.27,0-.72-.07-1.11l-.08-1.19-.17-2.39-.61-9.56-.29-4.78-.15-2.36c-.09-.57-.12-1.15-.23-1.71a15.22,15.22,0,0,0-7.54-10.44,14.37,14.37,0,0,0-3.84-1.47,16.24,16.24,0,0,0-4-.34h-.09l-.47,0c-21.42-.72-42.81-1.76-64.18-3l-152.7-8.62a622.85,622.85,0,0,0-75.21,1c-6.26.46-12.46,1-18.85,1.64l-19.05,1.78-38.09,3.53L121.24,259.16l-.65.06-.33,0h-.57a9.86,9.86,0,0,0-7.32,3.59,9.76,9.76,0,0,0-1.81,3.7l-.13.49-.06.52a5.8,5.8,0,0,0-.09,1c0,.17,0,1.14,0,1.89l0,2.34.09,9.32,0,4.64,0,2.32v1c0,.17,0,.34,0,.52a9.75,9.75,0,0,0,1.1,3.92,10.06,10.06,0,0,0,2.7,3.11A9.87,9.87,0,0,0,118,299.4c.33.11.68.09,1,.18s.7,0,1,.07h4.45l18.26-.06,36.38,0c48.45,0,96.91,0,147.8-.4l153-1.08q38.23-.27,76.53,1.29C582,300.47,617.31,299.79,642.86,303.1Z"/><rect class="cls-7" x="57.67" y="303.52" width="622.65" height="632.94" rx="71.08"/><path class="cls-7" d="M609.24,945.18H128.76A79.9,79.9,0,0,1,49,865.37V374.6a79.9,79.9,0,0,1,79.81-79.81H609.24a79.9,79.9,0,0,1,79.81,79.81V865.37A79.9,79.9,0,0,1,609.24,945.18ZM128.76,312.24A62.42,62.42,0,0,0,66.4,374.6V865.37a62.42,62.42,0,0,0,62.36,62.36H609.24a62.42,62.42,0,0,0,62.36-62.36V374.6a62.42,62.42,0,0,0-62.36-62.36Z"/><rect class="cls-8" x="95.33" y="311.99" width="564.2" height="65.33" rx="25.21"/><path class="cls-8" d="M634.33,374.87c-25.34,4.7-56.76,5.5-82.07,7.37s-50.67,2.78-76,3l-152,1.34c-50.66.4-99.79,1.12-148.92,1.72l-36.88.43-9.23.1-4.62,0-2.31,0-1.16,0h-.58l-.81,0A36.63,36.63,0,0,1,95.2,379a37,37,0,0,1-11.61-24.05l-.09-1.71c0-.55-.06-1.21-.06-1.52v-2.33l0-4.67,0-4.68,0-2.34c0-.21,0-.34,0-.63l0-.86.08-1.72A37.19,37.19,0,0,1,120.55,300c101.31.26,183.37,2,284.69,3l152,1.6c12.66.12,31.52.48,50.39,1l14,.44,6.85.24,3.35.13,1.65.06.81,0,1,.07a29.53,29.53,0,0,1,14,4.52,29.07,29.07,0,0,1,12.93,18.58,28.32,28.32,0,0,1,.62,5.06c0,.84,0,1.67,0,2.5s-.1,1.46-.14,2.18c-.2,2.91-.4,5.77-.59,8.61-.11,1.42-.21,2.84-.32,4.26l-.28,2.28c-.11.76-.32,1.5-.48,2.24a24.74,24.74,0,0,1-10,14.39,22.52,22.52,0,0,1-16.7,3.69,22.53,22.53,0,0,0,14.5-7.31,20.92,20.92,0,0,0,5.43-14.18c0-1.12-.11-2.88-.19-4.43l-.25-4.74-.23-4.75-.12-2.35c-.08-.6-.14-1.2-.2-1.8a18.89,18.89,0,0,0-6.94-11.83,18.48,18.48,0,0,0-6-3.15c-.27-.07-.53-.19-.81-.24l-.82-.17-.82-.17-.84-.09-.83-.09c-.27,0-.56,0-.84,0H634l-.59,0-19,.46q-19,.38-38,.51l-152,1.29c-101.31.95-202.62,1.45-303.93,2.14a13.34,13.34,0,0,0-13.13,12.17l0,.61,0,.31,0,.16v2.61c0,1.54,0,3.09,0,4.63l0,4.62v3.26l0,.61a13.31,13.31,0,0,0,12.45,12.56l.61.05a2.7,2.7,0,0,0,.46,0h.57l2.28,0,4.54,0,9.08.08,36.2.36c48.22.51,96.44,1.12,147.1,1.28l152,.63q38,.17,76,2.16C573.92,371.55,609,371.26,634.33,374.87Z"/><rect class="cls-9" x="104.55" y="353.5" width="541.69" height="33.06" rx="10.4"/><path class="cls-10" d="M652.71,318.81a8.61,8.61,0,0,1-3.77-.86c-17.9-8.59-40.23-11-59.74-12.6-79.76-6.49-161.57-3.42-240.68-.45-58.47,2.2-118.93,4.47-178.44,2.9l-2.93-.08c-22.79-.62-46.35-1.25-65.71,6.58a8.72,8.72,0,0,1-6.55-16.17c22.74-9.21,48.16-8.52,72.73-7.86l2.91.08c59,1.55,119.14-.7,177.34-2.89,79.62-3,162-6.08,242.74.5,21.08,1.71,45.29,4.37,65.88,14.26a8.72,8.72,0,0,1-3.78,16.59Z"/><path class="cls-3" d="M293.36,474.22c4.48-.37,34-.37,40.33,0a111.92,111.92,0,0,1,0,13.72c-4.3.09-21.2.09-24.28,0a80.93,80.93,0,0,0,0,11.67c4.58-.19,23.72-.19,27.73,0a87.12,87.12,0,0,1,0,13.91c-5.41.37-37.62.37-43.78,0A390.27,390.27,0,0,1,293.36,474.22Zm2.05,44.53c4.95-.56,58.16-.56,63.11,0,.65,4.57.65,29.78,0,34.26-4.48.46-58.63.46-63.11,0C294.76,548.53,294.76,523.32,295.41,518.75Zm47.52,21.19a59.77,59.77,0,0,0,0-8c-3.55-.19-28.48-.28-31.84,0a59.77,59.77,0,0,0,0,8C314.55,540.22,339.47,540.22,342.93,539.94Zm.18-66.93a70.89,70.89,0,0,1,15.41,0c.28,1.77.37,7.56.46,14.37,3.27,0,6.45.19,8,.37.47,2.06.47,11.95,0,13.91a78,78,0,0,1-8,.38c-.09,6.35-.18,11.76-.46,13.44a106.89,106.89,0,0,1-15.41,0C342.65,510.91,342.65,477.67,343.11,473Z"/><path class="cls-3" d="M372.11,475.15a189.5,189.5,0,0,1,22.87,0c.47,3.83.47,70.17,0,74a148.32,148.32,0,0,1-15.78,0c-.18-6.25-.18-52.81,0-59.06a59.89,59.89,0,0,1-7.09,0A98,98,0,0,1,372.11,475.15Zm26.51,0a207,207,0,0,1,23.9,0c.46,3.83.46,70.17,0,74a148.32,148.32,0,0,1-15.78,0c-.19-6.25-.19-52.81,0-59.06a78.25,78.25,0,0,1-8.12,0A100.68,100.68,0,0,1,398.62,475.15ZM429.15,473a71.62,71.62,0,0,1,15.49,0c.66,4.66.66,74.46,0,79-2.7.66-11.85.66-15.49,0C428.59,547.47,428.59,477.67,429.15,473Z"/><path class="cls-10" d="M269.16,403.19c-39.84,0-79.76-1.13-119.33-4.44-21.71-1.81-46.65-4.58-67.8-14.53a8.73,8.73,0,1,1,7.43-15.79c18.52,8.71,41.63,11.24,61.83,12.93,82.39,6.89,166.93,4.21,248.69,1.63,60.41-1.91,122.87-3.88,184.33-2l3,.09c23.59.73,48,1.48,68.13-6.3A8.73,8.73,0,0,1,661.75,391c-23.44,9-49.63,8.25-75,7.46l-3-.09c-60.92-1.84-123.11.12-183.25,2C357.3,401.8,313.29,403.19,269.16,403.19Z"/><path class="cls-10" d="M430.7,908.17q-15,0-29.35-.34a8.73,8.73,0,0,1,.2-17.45h.21c56.51,1.35,119-1.29,196.67-8.3,21.62-2,30.15-11,33.8-36,13.3-91,11.07-185.91,8.91-277.66-.78-33.46-1.6-68.07-1.64-101.86a8.74,8.74,0,0,1,8.72-8.74h0a8.74,8.74,0,0,1,8.73,8.72c0,33.6.84,68.1,1.63,101.47,2.17,92.47,4.42,188.09-9.1,280.6-3.39,23.23-11.93,47.43-49.49,50.83C534.82,905.34,480.16,908.17,430.7,908.17Z"/><path class="cls-6" d="M145,952.24h-.1a24.48,24.48,0,0,1-24.45-24.45V401.28a24.5,24.5,0,0,1,49,0V927.79A24.48,24.48,0,0,1,145,952.24Z"/><path class="cls-6" d="M594.83,952.24h-.09a24.47,24.47,0,0,1-24.45-24.45V401.28a24.5,24.5,0,0,1,49,0V927.79A24.47,24.47,0,0,1,594.83,952.24Z"/><path class="cls-11" d="M288.41,193.2l252.12-68.59c23-6.25,47.48,18.29,49.12,49.2L594.5,265c1.1,20.79-8.79,38-24.25,42.24L355.3,365.71c-15.46,4.2-32.72-5.65-42.3-24.13L271,260.5C256.73,233,265.43,199.45,288.41,193.2Z"/><path class="cls-9" d="M569.52,200.38,301.8,273.22c-23.89,6.5-47.76-13.13-47.86-39.35l-.29-77.37c-.07-17.63,11-32.81,27-37.18L509.76,57c16.06-4.38,33.27,3.12,42.15,18.36l38.94,66.85C604.05,164.87,593.41,193.88,569.52,200.38Z"/><path class="cls-12" d="M564.26,181.06,296.54,253.89a37.28,37.28,0,0,1-47.06-36.42l.88-73a37.3,37.3,0,0,1,27.49-35.52L506.92,46.59a37.28,37.28,0,0,1,41.7,16.7l37.76,62.52A37.28,37.28,0,0,1,564.26,181.06Z"/><path class="cls-13" d="M307,288a10.82,10.82,0,0,1,3.83,2.74c1,1,1.73,2.08,2.61,2.95a18.27,18.27,0,0,1,3.9,5.54c1.76,3.94,3.79,7.74,5.89,11.47,4.27,7.47,9.68,13.47,14.81,20.11l3.67,4.84a28,28,0,0,0,2.65,3.22,6,6,0,0,0,1.2.89,9.6,9.6,0,0,0,1.72.7,16.53,16.53,0,0,0,4.92.47c1.91-.09,4-.34,6.14-.65s4.25-.67,6.37-1.1a39.48,39.48,0,0,1,8.83-.81c2.43.24,4.2.08,7.34,1.68a20,20,0,0,1-5.37,5.17,28.23,28.23,0,0,1-6.31,3.16c-2.21.81-4.43,1.55-6.68,2.23s-4.46,1.32-7,1.87a34.61,34.61,0,0,1-8.09.9,21.73,21.73,0,0,1-9.35-2.21,20.86,20.86,0,0,1-4.19-2.82,40,40,0,0,1-3-2.87c-1.63-1.73-3.24-3.47-4.8-5.27-6.08-7.36-9.61-15.34-13.63-23.8a121,121,0,0,1-5.27-13.07,20.68,20.68,0,0,1-.83-3.43,22.82,22.82,0,0,1-.17-3.62c.09-1.25-.14-2.62-.19-4A7.87,7.87,0,0,1,307,288Z"/><path class="cls-9" d="M541.81,199.52c7.08-1.93,13.84,11.24,9.57,18.78C538,241.93,498,266.86,447.22,280.68s-97.88,12.6-121.4-1c-7.5-4.34-8.35-19.12-1.27-21Z"/><path class="cls-14" d="M538.43,187.11c7.08-1.93,13.84,11.24,9.57,18.78-13.39,23.63-53.38,48.56-104.16,62.38s-97.88,12.6-121.4-1c-7.5-4.33-8.35-19.11-1.27-21Z"/><path class="cls-15" d="M287.24,238.62a20.79,20.79,0,0,1-20.71-20.56l-.48-46a7.35,7.35,0,0,1,7.27-7.42h.08a7.34,7.34,0,0,1,7.34,7.27l.48,46a6.07,6.07,0,0,0,7.79,5.76l70.62-20.86a7.34,7.34,0,1,1,4.17,14.08l-70.63,20.87A20.9,20.9,0,0,1,287.24,238.62Z"/><path class="cls-16" d="M805.92.77c22.34,118.4-34.79,239.75-142.8,303.3-14.74,8.68-30.85,16.49-49,18.14s-39-4-50.42-17.59c-19-22.48-4.49-52.53,14.32-72.31,34.14-35.89,82.09-63.8,98.86-108.92,1.4-3.78,2.57-7.89,1.23-11.89-2.56-7.7-10-36.83-17.73-41.42-17.87-10.62-29.12-5.22-28-23.23s32.28,2.65,44-11.4c17.49-20.89-4.36-47.06,25.4-52.09,42-7.11,85-18.21,104.09,17.41"/><path class="cls-16" d="M803.13,1.29c4.55,9.85,7.73,21.55,9.69,33.46s2.55,24,3,34.92l.13,8.18c0,2.73-.15,5.45-.24,8.18l-.18,4.1-.35,4.08c-.27,2.72-.48,5.45-.83,8.17a229.66,229.66,0,0,1-6.53,32.18,303.13,303.13,0,0,1-62.16,115.07c-3.52,4.23-7.32,8.18-11,12.21-1.88,2-3.83,3.88-5.74,5.83L726,270.56l-3,2.8-5.95,5.55L711,284.25c-1,.88-2,1.79-3.08,2.64l-3.15,2.55c-2.1,1.68-4.18,3.41-6.31,5.06-4.33,3.2-8.56,6.54-13,9.52-2.22,1.52-4.4,3.09-6.65,4.56L672,312.91a178.26,178.26,0,0,1-29.32,15.41A106.89,106.89,0,0,1,626,333.51c-1.45.3-2.9.63-4.38.86l-2.21.37-2.23.29c-1.47.21-3,.33-4.54.44s-3.07.15-4.61.2a81.89,81.89,0,0,1-18.3-1.77,75.08,75.08,0,0,1-17.87-6.14,58.86,58.86,0,0,1-16.32-11.7,54.82,54.82,0,0,1-6.58-8.18,52.92,52.92,0,0,1-4.9-9.64,51.54,51.54,0,0,1-3.1-21.17A61.53,61.53,0,0,1,542.38,267a76.52,76.52,0,0,1,2.86-9.4,99.43,99.43,0,0,1,15.08-25.86c1.5-1.86,3-3.69,4.6-5.44s3.25-3.5,4.75-5c3.08-3.15,6.21-6.13,9.34-9,12.53-11.62,25.16-21.8,37.09-32.07,6-5.13,11.78-10.27,17.29-15.59A192.8,192.8,0,0,0,648.88,148c1.21-1.43,2.32-2.92,3.47-4.39s2.24-3,3.25-4.52a105.42,105.42,0,0,0,5.82-9.44,101.46,101.46,0,0,0,4.71-10,22.75,22.75,0,0,0,1.23-3.73,2.68,2.68,0,0,0,0-1.26c-.94-3.14-1.78-6.3-2.68-9.42s-1.83-6.32-2.86-9.48-2.12-6.34-3.34-9.31c-.6-1.49-1.24-2.93-1.89-4.23-.33-.64-.66-1.25-1-1.79-.16-.24-.32-.53-.46-.74l-.1-.15,0-.06a.8.8,0,0,0-.09-.14,3.58,3.58,0,0,0-.49-.55,2.17,2.17,0,0,0-.29-.2l0,0,0,0-.13-.08c-.17-.1-.35-.21-.53-.3-1.41-.81-2.87-1.54-4.38-2.22s-3.09-1.32-4.78-1.94l-5.6-2a45.44,45.44,0,0,1-4.25-1.79,24.55,24.55,0,0,1-4.25-2.63,18.9,18.9,0,0,1-5.94-7.79,25.79,25.79,0,0,1-1.79-9.7V48.26l0-.46,0-.92,0-.46,0-.23,0-.32c.11-.87.2-1.71.37-2.59a27.71,27.71,0,0,1,.84-2.9q.33-.8.69-1.56l.38-.76c.14-.25.32-.52.48-.78.34-.52.7-1,1.08-1.52a15.05,15.05,0,0,1,1.28-1.38,15.85,15.85,0,0,1,2.92-2.27,13.63,13.63,0,0,1,1.5-.79c.49-.22,1-.47,1.49-.64a24,24,0,0,1,7.33-1.29c.7,0,1.38,0,2,0a126.4,126.4,0,0,1,12.65,1.38c1.84.25,3.56.44,5.17.53a25.68,25.68,0,0,0,4.32,0,10.47,10.47,0,0,0,2.82-.64,4.89,4.89,0,0,0,1.65-1.14l.89-1.11c.32-.39.56-.81.86-1.21a14.61,14.61,0,0,0,.77-1.26,12.64,12.64,0,0,0,.68-1.32,25.39,25.39,0,0,0,2-5.9c.93-4.34.94-9.39,1.24-15.43A43.27,43.27,0,0,1,677.7-7.62a24.47,24.47,0,0,1,3.55-6.89,22.06,22.06,0,0,1,6.19-5.56,29.14,29.14,0,0,1,7-3.06c1.14-.28,2.32-.62,3.44-.82l1.7-.3.85-.14.72-.1,11.64-1.6c7.87-1.08,15.84-2.07,23.26-2.64A138.73,138.73,0,0,1,755.93-29a95.85,95.85,0,0,1,15.8,2.3,52.33,52.33,0,0,1,14.08,5.48,38,38,0,0,1,11.12,9.76,37.74,37.74,0,0,1,6.48,13.57A46.46,46.46,0,0,0,793.15-8.41a38.84,38.84,0,0,0-12.56-6.06,56.53,56.53,0,0,0-14-2,103.8,103.8,0,0,0-14.76.68c-10,1.11-20.14,3.13-30.45,5.21-5.17,1-10.37,2.1-15.65,3.11l-2,.37c-.37.07-.53.12-.8.18l-.74.17-.74.16-.67.2a11.82,11.82,0,0,0-1.27.42,7.69,7.69,0,0,0-3.08,1.77,4,4,0,0,0-.95,1.63A15.24,15.24,0,0,0,694.78,1c-.14,1.56-.19,3.4-.22,5.39s0,4.13-.13,6.42a58,58,0,0,1-2.21,14.8c-.35,1.29-.88,2.58-1.35,3.86s-1.08,2.54-1.77,3.75c-.33.6-.65,1.22-1,1.81L687,38.77a18.16,18.16,0,0,1-1.19,1.68l-1.3,1.71a24.74,24.74,0,0,1-6.5,5.46,25.4,25.4,0,0,1-3.83,1.78,28.46,28.46,0,0,1-3.7,1.1,45.93,45.93,0,0,1-12.71.73c-3.75-.24-7.1-.69-10.14-1-1.47-.15-2.91-.28-4.1-.31a13.87,13.87,0,0,0-2.58.11.54.54,0,0,1-.15,0,13,13,0,0,0-.75-2.28,5.13,5.13,0,0,0-.32-.78l-.22-.38c0-.06-.09-.14-.1-.17l0-.09a1.93,1.93,0,0,0-.23-.38l-.16-.18c-.05-.06,0,0,0,0s0,0,0,0,0,0,0,0l.15.12a2.2,2.2,0,0,0,.28.18,1,1,0,0,1,.17.08l.33.2a4.88,4.88,0,0,0,.68.28l.33.1.55.21a9.2,9.2,0,0,0,1.11.31c.19,0,.37.08.55.1l.28,0,.14,0h0a.25.25,0,0,1,0,.17s0,0,0,.07v1.09c0,.12,0,.16,0,.23s0,.32,0,.38a3,3,0,0,0,.21,1,2.09,2.09,0,0,0,1.4,1.19l3,1c1.52.5,3.19,1,4.89,1.64a81,81,0,0,1,7.75,3.17c1.29.61,2.56,1.26,3.82,1.94l1.28.72a12.41,12.41,0,0,1,1.4.9,18.79,18.79,0,0,1,2.57,2l1.16,1.18c.36.41.72.84,1.07,1.26s.69.87,1,1.33.55.76.77,1.11c1,1.43,1.71,2.75,2.44,4.08,1.41,2.61,2.52,5.1,3.56,7.56,2.06,4.91,3.74,9.7,5.31,14.45s3,9.51,4.4,13.82a25,25,0,0,1,1,11.37,41,41,0,0,1-2.21,8.48,118.47,118.47,0,0,1-5.46,12.65A125.51,125.51,0,0,1,676.09,152c-2.42,3.82-5,7.44-7.74,11a216.69,216.69,0,0,1-17.3,19.61c-6,6.13-12.24,11.87-18.43,17.48-12.4,11.18-24.83,21.72-36.13,32.75q-4.25,4.14-8.24,8.37a96,96,0,0,0-7,8.27,71.82,71.82,0,0,0-10,17.94,52.91,52.91,0,0,0-1.74,5.81,36.21,36.21,0,0,0-.79,5.54,24.45,24.45,0,0,0,.18,5.1,22.34,22.34,0,0,0,1.13,4.66,25.68,25.68,0,0,0,2.12,4.31,26.85,26.85,0,0,0,3.11,4l.42.48.47.44,1,.89c.64.59,1.38,1.11,2,1.69s1.49,1.05,2.28,1.55,1.58,1,2.46,1.41a54,54,0,0,0,23.29,5.83h3.08c1-.07,2-.08,3.06-.17,2.1-.19,4.2-.43,6.31-.82a84.11,84.11,0,0,0,12.64-3.3,149.25,149.25,0,0,0,25.26-12l6.29-3.73c1-.63,2.11-1.22,3.13-1.88l3.08-2c2.05-1.34,4.12-2.64,6.16-4l6-4.23c1-.72,2-1.4,3-2.14l2.94-2.24c2-1.5,3.94-3,5.89-4.51l5.75-4.74c1-.8,1.94-1.56,2.86-2.4l2.8-2.49A270.11,270.11,0,0,0,727,237.15a284.45,284.45,0,0,0,60.79-105.46c3-9.75,5.84-19.6,8.06-29.6l.89-3.75.76-3.77c.5-2.52,1.08-5,1.55-7.55l1.36-7.61.35-1.9.28-1.92.57-3.83a221.16,221.16,0,0,0,2.09-34.94C803.66,24.42,803,12,803.13,1.29Z"/><path class="cls-16" d="M664.5,124.51C676,109.91,662.72,89,648.88,85.2a124.28,124.28,0,0,0-64.24.2c-11.09,3.12-21.5,7.89-32.72,10.92-37.16,10-85.1-18.4-75-34,13.49-20.88,82-29.05,96.17-41.39C617.42-17.75,678.71-18.5,723.16-32.61"/><path class="cls-17" d="M664.5,129.51a5,5,0,0,1-3.92-8.1c4.32-5.48,3.63-11.5,2.28-15.59C660.41,98.41,654,91.76,647.57,90a118.84,118.84,0,0,0-61.58.19c-5.17,1.45-10.14,3.26-15.4,5.18-5.58,2-11.35,4.13-17.36,5.75-31.44,8.5-67.56-8-78.61-23.18-6.36-8.71-3.94-15.22-1.94-18.32,9-13.88,35.74-21.68,61.64-29.23,15-4.36,30.47-8.88,35.44-13.21,32.53-28.39,73.92-37,110.44-44.58,14.84-3.08,28.85-6,41.45-10a5,5,0,0,1,6.28,3.25,5,5,0,0,1-3.26,6.28c-13.09,4.15-27.34,7.12-42.43,10.25-35.32,7.34-75.35,15.66-105.91,42.32C569.7,30.52,554.6,34.92,537.12,40c-21.88,6.38-49.1,14.31-56,25.05-1.09,1.69-.54,4,1.62,7,9.28,12.71,41.89,26.47,67.92,19.43C556.21,90,561.79,88,567.17,86c5.2-1.89,10.58-3.85,16.12-5.41a129.16,129.16,0,0,1,66.9-.21c9.57,2.6,18.69,11.78,22.16,22.32,3,9.07,1.6,17.92-3.92,24.92A5,5,0,0,1,664.5,129.51Z"/><path class="cls-17" d="M608.73,274.71a5,5,0,0,1-1.35-9.82,154.26,154.26,0,0,0,98.16-85,5,5,0,1,1,9.14,4,164.36,164.36,0,0,1-104.59,90.61A5,5,0,0,1,608.73,274.71Z"/><path class="cls-17" d="M631.82,307.16a5,5,0,0,1-1.4-9.8c49.59-14.38,91.91-51,113.22-98.06a5,5,0,1,1,9.11,4.12c-22.5,49.66-67.18,88.36-119.54,103.54A4.77,4.77,0,0,1,631.82,307.16Z"/><path class="cls-17" d="M542.76,300.17a5,5,0,0,1-4.86-3.83c-3.37-14,2.78-33.08,9.65-46.26C554.17,237.41,563.7,227,573,217.64c2.74-2.75,7.19-6.57,12.83-11.4,17.58-15.05,47-40.24,62-66.25a5,5,0,0,1,8.66,5c-15.85,27.49-46.09,53.38-64.15,68.85-5.47,4.68-9.79,8.38-12.26,10.86-8.76,8.8-17.69,18.53-23.68,30-5.76,11-11.52,28-8.8,39.29a5,5,0,0,1-3.69,6A4.68,4.68,0,0,1,542.76,300.17Z"/><path class="cls-17" d="M566.91,326.66a5,5,0,0,1-4.75-3.46c-2.09-6.41-.76-14.11,3.65-21.12,2.68-4.27,8.88-10.12,15.54-16.25l3-2.79a41.79,41.79,0,0,0,6.23-7.21l1.4-1.9a5,5,0,1,1,8,5.95c-.5.67-.95,1.28-1.35,1.84a51.45,51.45,0,0,1-7.44,8.57c-.84.8-1.91,1.79-3.12,2.89-4.36,4-11.65,10.73-13.84,14.22-2.83,4.49-3.78,9.12-2.61,12.71a5,5,0,0,1-3.21,6.3A4.88,4.88,0,0,1,566.91,326.66Z"/><path class="cls-17" d="M650.3,326.47a28,28,0,0,1-3.91-.27,5,5,0,0,1,1.46-9.9c14.86,2.19,41.09-16.67,55.09-29.89a5,5,0,0,1,6.86,7.27C706.08,297.19,674.36,326.47,650.3,326.47Z"/><path class="cls-17" d="M594.16,337.84a5,5,0,0,1-4.4-7.38,60.34,60.34,0,0,1,24.14-24.1,5,5,0,0,1,4.74,8.81,50.17,50.17,0,0,0-20.08,20A5,5,0,0,1,594.16,337.84Z"/><path class="cls-16" d="M495.42,66.46s18,12.43,35.82-.71c5.87-4.33-6.94-13.47-6.94-13.47"/><path class="cls-17" d="M513.35,76.73a38.3,38.3,0,0,1-20.77-6.15,5,5,0,0,1,5.66-8.25c.62.43,14.88,9.82,29.21,0a25.73,25.73,0,0,0-6.06-6,5,5,0,0,1,5.81-8.14c9.76,7,10.57,13,10.58,14.64a8.37,8.37,0,0,1-3.57,6.92A34.53,34.53,0,0,1,513.35,76.73Z"/><path class="cls-16" d="M579.23,270.1s-6.52-8.48-12.46-3.79-16.48,19.45-10.39,29.53"/><path class="cls-17" d="M556.38,299.63a3.8,3.8,0,0,1-3.25-1.83c-7.3-12.07,3.94-28.67,11.29-34.47a9.89,9.89,0,0,1,7.47-2.15c5.66.7,9.89,6,10.35,6.61a3.79,3.79,0,0,1-6,4.63c-.87-1.11-3.31-3.47-5.3-3.71a2.26,2.26,0,0,0-1.82.58c-5.6,4.42-14,17.1-9.49,24.59a3.79,3.79,0,0,1-3.25,5.75Z"/><path class="cls-17" d="M585.6,332.41A3.11,3.11,0,0,1,583,331c-6.19-9.69,2.93-23.43,8.94-28.3,2.52-2,8.83-4,14.72,3.26a3.11,3.11,0,0,1-4.82,3.92,11.41,11.41,0,0,0-2.65-2.24c-2-1.18-2.87-.49-3.33-.11-4.58,3.71-11.42,14.17-7.62,20.12a3.12,3.12,0,0,1-2.62,4.79Z"/></g></g></svg>