<svg xmlns="http://www.w3.org/2000/svg" xmlns:xlink="http://www.w3.org/1999/xlink" viewBox="0 0 500 406"><defs><style>.cls-1,.cls-10,.cls-15,.cls-18,.cls-20,.cls-8{fill:none;}.cls-2{clip-path:url(#clip-path);}.cls-3,.cls-9{fill:#ffcd00;}.cls-3{stroke:#ffce01;stroke-width:0.89px;}.cls-3,.cls-5{stroke-miterlimit:10;}.cls-4{fill:#6cc49a;}.cls-5{fill:#154734;stroke:#154734;}.cls-5,.cls-8{stroke-width:17.45px;}.cls-6{fill:#0a2117;}.cls-7{fill:#3f4a54;}.cls-8{stroke:#216345;}.cls-10,.cls-15,.cls-17,.cls-18,.cls-19,.cls-20,.cls-8{stroke-linecap:round;stroke-linejoin:round;}.cls-10{stroke:#6cc49a;stroke-width:29.15px;}.cls-11{fill:#b0bfd6;}.cls-12{fill:#8595aa;}.cls-13{fill:#fff;}.cls-14{fill:#6a7989;}.cls-15{stroke:#cad5e0;stroke-width:14.69px;}.cls-16,.cls-17,.cls-19{fill:#ffe0cf;}.cls-17,.cls-18,.cls-19,.cls-20{stroke:#ffbda6;}.cls-17,.cls-18{stroke-width:10px;}.cls-19{stroke-width:7.59px;}.cls-20{stroke-width:6.22px;}</style><clipPath id="clip-path"><rect class="cls-1" width="500" height="406.51"/></clipPath></defs><g id="레이어_1" data-name="레이어 1"><g class="cls-2"><rect class="cls-3" width="500" height="406.51"/><path class="cls-4" d="M434.72,206.61l-353.39,4a14.59,14.59,0,0,1-14.75-14.42L66.42,182a14.59,14.59,0,0,1,14.42-14.75l146.85-12.64a421.3,421.3,0,0,1,63.35-.66l143.19,9.31A14.59,14.59,0,0,1,449,177.65l.16,14.21A14.59,14.59,0,0,1,434.72,206.61Z"/><path class="cls-4" d="M434.69,204.16c-17.2,4.9-38.58,5.94-55.8,8s-34.46,3.16-51.69,3.57l-103.46,2.51c-34.41.78-67.78,1.87-101.15,2.85l-25,.71L85,222.14l-3.14.08H80.74l-1.41-.05c-.93,0-1.87-.2-2.81-.32a26,26,0,0,1-10.44-4.28,26.47,26.47,0,0,1-7.71-8.26,26,26,0,0,1-3.54-10.83l-.09-1.43,0-.71v-.41l0-1.59-.06-3.17-.12-6.36,0-1.59,0-.79V182l0-.72a21.73,21.73,0,0,1,.21-2.89,21.45,21.45,0,0,1,.52-2.86,26.57,26.57,0,0,1,25.52-20.32l-.9,0,.44,0c34.38-2.83,65.52-5,96.67-7.1L224.06,145l6.09-.39c2.06-.12,4.13-.24,6.2-.33,4.15-.2,8.34-.32,12.56-.39q12.68-.24,25.86.29,6.6.26,13.19.72l13,1L326.72,148l51.57,4.18c13.85,1.1,38.62,3.52,56.28,5.86h-.4a19.29,19.29,0,0,1,8.46,2.31,18.39,18.39,0,0,1,5.54,4.6,18.79,18.79,0,0,1,3.58,7.14c.15.63.26,1.26.37,1.88s.13,1.26.17,1.88l0,1.84-.12,1.49c-.34,4-.69,7.8-1.12,11.64a24.43,24.43,0,0,1-.47,3.07,14.82,14.82,0,0,1-1.05,3,14.1,14.1,0,0,1-3.8,4.83,12.3,12.3,0,0,1-11,2.49,11.77,11.77,0,0,0,8.15-5.53,10.67,10.67,0,0,0,1.39-4.34,9.42,9.42,0,0,0,0-2.19l-.3-3.14-.58-6.46-.27-3.23-.14-1.59c-.07-.32-.1-.63-.18-.94a8.18,8.18,0,0,0-4.31-5.4,7.67,7.67,0,0,0-4.11-.74l-.56,0c-14.49-.27-29-.86-43.42-1.64l-103.26-5.41a422.44,422.44,0,0,0-50.45.87c-8.28.67-17,1.59-25.55,2.39l-25.75,2.48-103,9.84-.44,0-.89,0a2.81,2.81,0,0,0-2,1,2.85,2.85,0,0,0-.47,1c0,.05,0,.09,0,.13a.66.66,0,0,1,0,.14.67.67,0,0,0,0,.28,8,8,0,0,0,0,1.13v1.58q.06,5.92.1,11.79a2.6,2.6,0,0,0,.27,1.07,2.88,2.88,0,0,0,1.74,1.42c.09,0,.19,0,.28.06s.21,0,.31,0H96.49l24.6.08c32.77.15,65.54.38,99.95.15l103.48-.53c17.23-.08,34.49.41,51.75,1.57S417.4,200.75,434.69,204.16Z"/><rect class="cls-5" x="39" y="205.24" width="421.03" height="427.99" rx="48.07"/><rect class="cls-6" x="64.46" y="210.97" width="381.51" height="44.18" rx="17.05"/><path class="cls-6" d="M428.93,252.69c-17.13,4.7-38.38,5.5-55.5,7.37s-34.26,2.78-51.37,3L219.29,264.4c-34.26.39-67.48,1.11-100.7,1.72l-24.93.42-6.25.1-3.12,0-1.57,0h-1.8a28.73,28.73,0,0,1-28.23-26.42L52.61,239c0-.43,0-1,0-1.14v-1.58l0-3.16,0-3.16v-2l0-.67.06-1.34a29,29,0,0,1,28.92-26.94c68.51.26,124,2,192.51,3l102.76,1.59c8.56.13,21.32.49,34.08,1l9.5.43,4.63.25,2.26.12,1.12.07.55,0,.72.06a21.54,21.54,0,0,1,10.2,3.45,20.93,20.93,0,0,1,6.31,6.45,21.29,21.29,0,0,1,2.8,7.18,20.59,20.59,0,0,1,.36,3.64c0,.6,0,1.19-.05,1.78l-.15,1.48c-.19,2-.39,3.9-.58,5.82-.11,1-.22,1.93-.32,2.89L448,239.8c-.09.53-.26,1-.39,1.56a16.62,16.62,0,0,1-7.31,9.67,14.37,14.37,0,0,1-11.33,1.66,14.26,14.26,0,0,0,8.92-5.09,12.78,12.78,0,0,0,2.88-8.76l-.47-6.09-.24-3.21-.11-1.58c-.06-.34-.12-.69-.16-1a10.7,10.7,0,0,0-4.19-6.5,10.22,10.22,0,0,0-3.37-1.6,5.21,5.21,0,0,0-.89-.19l-.44-.08-.46,0-.45,0c-.15,0-.3,0-.46,0h-1.16q-6.43.27-12.85.46-12.84.39-25.69.52L287,220.8c-68.51.95-137,1.46-205.52,2.15a5.14,5.14,0,0,0-5,4.65,1.93,1.93,0,0,1,0,.24l0,.12v5l0,3.13V238c0,.08,0,.12,0,.12v.06a1.94,1.94,0,0,1,0,.24,5.17,5.17,0,0,0,4.75,4.94l.24,0h.66l1.54,0,3.08,0,6.13.08,24.48.36c32.61.51,65.22,1.12,99.47,1.28l102.77.63c17.11.12,34.24.8,51.37,2.16S411.8,249.09,428.93,252.69Z"/><rect class="cls-7" x="70.7" y="239.04" width="366.29" height="22.35" rx="7.03"/><path class="cls-8" d="M441.36,209.68c-12.69-6.1-27.78-7.89-42.47-9.08-94.15-7.67-189.14,4.12-283.73,1.63-16.55-.43-34-1.17-48.78,4.83"/><path class="cls-9" d="M198.37,320.66c3-.25,23-.25,27.27,0a75.45,75.45,0,0,1,0,9.28c-2.91.07-14.33.07-16.42,0a54.52,54.52,0,0,0,0,7.89c3.1-.12,16-.12,18.75,0a59,59,0,0,1,0,9.41c-3.66.25-25.44.25-29.6,0A261.83,261.83,0,0,1,198.37,320.66Zm1.39,30.11c3.34-.37,39.32-.37,42.67,0,.44,3.1.44,20.14,0,23.17-3,.32-39.65.32-42.67,0C199.31,370.91,199.31,353.87,199.76,350.77Zm32.13,14.33a41,41,0,0,0,0-5.43c-2.4-.12-19.26-.19-21.53,0a37.85,37.85,0,0,0,0,5.43C212.7,365.29,229.55,365.29,231.89,365.1Zm.12-45.26a47.76,47.76,0,0,1,10.42,0c.19,1.2.25,5.12.31,9.72a52.16,52.16,0,0,1,5.43.26,46.14,46.14,0,0,1,0,9.4,52.75,52.75,0,0,1-5.43.25c-.06,4.3-.12,8-.31,9.09a69.56,69.56,0,0,1-10.42,0C231.7,345.47,231.7,323,232,319.84Z"/><path class="cls-9" d="M251.62,321.29a128.5,128.5,0,0,1,15.46,0c.32,2.59.32,47.45,0,50a99.94,99.94,0,0,1-10.67,0c-.12-4.23-.12-35.71,0-39.94a38.27,38.27,0,0,1-4.79,0A65.49,65.49,0,0,1,251.62,321.29Zm17.92,0a140.4,140.4,0,0,1,16.16,0c.32,2.59.32,47.45,0,50a99.75,99.75,0,0,1-10.66,0c-.13-4.23-.13-35.71,0-39.94a50.27,50.27,0,0,1-5.5,0A68.1,68.1,0,0,1,269.54,321.29Zm20.65-1.45a48.22,48.22,0,0,1,10.47,0c.45,3.16.45,50.36,0,53.45a41.6,41.6,0,0,1-10.47,0C289.81,370.2,289.81,323,290.19,319.84Z"/><path class="cls-8" d="M58,254.47c13.08,6.15,28.65,8,43.83,9.28,97.22,8.13,195.41-3.2,293.12-.25,17.09.52,35.07,1.34,50.41-4.59"/><path class="cls-8" d="M438.33,315.49c.09,85.27,7.39,172.8-5,257.49-2.65,18.11-9.45,27.66-28.17,29.35-44.37,4-89.08,6.7-133.65,5.64"/><rect class="cls-10" x="91.31" y="264.66" width="13.42" height="369.38" rx="6.68"/><rect class="cls-10" x="395.48" y="264.66" width="13.42" height="369.38" rx="6.68"/><path class="cls-11" d="M195,130.64,365.5,84.26C381,80,397.61,96.62,398.72,117.53L402,179.19c.74,14.06-5.95,25.71-16.4,28.55L240.25,247.29c-10.45,2.84-22.13-3.82-28.6-16.32l-28.42-54.82C173.6,157.57,179.48,134.87,195,130.64Z"/><path class="cls-7" d="M385.1,135.5l-181,49.25c-16.16,4.39-32.3-8.88-32.37-26.61l-.19-52.31c-.05-11.93,7.41-22.19,18.28-25.15L344.69,38.54c10.87-3,22.5,2.11,28.51,12.42l26.33,45.2C408.45,111.48,401.26,131.1,385.1,135.5Z"/><path class="cls-12" d="M381.55,122.43l-181,49.25a25.21,25.21,0,0,1-31.82-24.63l.59-49.39a25.22,25.22,0,0,1,18.59-24L342.78,31.5A25.23,25.23,0,0,1,371,42.8l25.53,42.27A25.22,25.22,0,0,1,381.55,122.43Z"/><path class="cls-13" d="M207.13,194.87a8.88,8.88,0,0,1,3.53,1.6c.86.63,1.5,1.3,2.27,1.82a9.1,9.1,0,0,1,3.19,3.48c1.26,2.58,2.71,5,4.17,7.48,3,4.87,6.91,8.56,10.25,12.91.82,1.12,1.59,2.18,2.33,3.24a10.91,10.91,0,0,1,1.19,1.88,1.81,1.81,0,0,0,1.06.93,8,8,0,0,0,2.84.49,40,40,0,0,0,4-.25c1.42-.15,2.84-.33,4.26-.56a17.64,17.64,0,0,1,6.09.09,12.05,12.05,0,0,1,5.46,2.42,11.94,11.94,0,0,1-3.34,4.37,14.65,14.65,0,0,1-4.25,2.48c-1.51.59-3,1.15-4.58,1.66s-3,1-4.83,1.42a23.89,23.89,0,0,1-5.92.76,16.61,16.61,0,0,1-7.26-1.65,16.82,16.82,0,0,1-3.31-2.19c-.91-.76-1.63-1.48-2.23-2.08-1.15-1.19-2.3-2.37-3.4-3.61-4.29-5.06-6.4-10.83-9.12-16.7a78.7,78.7,0,0,1-3.52-9.07,10.08,10.08,0,0,1-.3-5,21.77,21.77,0,0,0,.16-2.85A5,5,0,0,1,207.13,194.87Z"/><path class="cls-7" d="M366.37,134.91c4.78-1.3,9.36,7.6,6.47,12.7-9.06,16-36.09,32.84-70.43,42.19s-66.19,8.52-82.09-.67c-5.08-2.93-5.65-12.92-.86-14.23Z"/><path class="cls-14" d="M364.09,126.52c4.78-1.3,9.35,7.6,6.46,12.7-9.05,16-36.09,32.84-70.43,42.18s-66.18,8.52-82.09-.67c-5.07-2.93-5.64-12.92-.86-14.22Z"/><path class="cls-15" d="M182.78,106.74c0,14-2.13,24.86,1.06,35.14a22.26,22.26,0,0,0,6.39,10.31c7.86,6.85,19.24,3.55,28.43.85,7.27-2.14,14.36-4,21.75-6.54"/><path class="cls-16" d="M545,.52c15.1,80.06-23.53,162.12-96.56,205.09-10,5.87-20.86,11.15-33.17,12.27s-26.34-2.74-34.1-11.9c-12.87-15.2-3-35.52,9.69-48.89,23.09-24.27,55.51-43.14,66.85-73.65.95-2.56,1.73-5.34.83-8-1.73-5.2-6.77-24.9-12-28-12.08-7.18-19.69-3.53-18.9-15.71S449.44,33.47,457.4,24c11.82-14.12-2.95-31.82,17.17-35.22C503-16.06,532-23.57,545,.52"/><path class="cls-16" d="M542.47,1a77.07,77.07,0,0,1,7.72,22.47,200.37,200.37,0,0,1,2.69,23.73,134.51,134.51,0,0,1-.49,22.34,144.72,144.72,0,0,1-4.25,22A206.58,206.58,0,0,1,506,170.31c-2.4,2.9-5,5.61-7.5,8.38-1.29,1.35-2.62,2.66-3.92,4l-2,2-2,1.91-4.06,3.82-4.17,3.67c-1.37,1.24-2.8,2.41-4.24,3.57s-2.85,2.35-4.3,3.48c-2.95,2.21-5.84,4.51-8.88,6.57-1.52,1-3,2.12-4.54,3.14l-4.63,3a121.73,121.73,0,0,1-20.2,10.74,75.48,75.48,0,0,1-11.69,3.68c-2,.45-4.11.84-6.21,1.1-1,.15-2.13.24-3.23.32s-2.18.12-3.27.15a58.19,58.19,0,0,1-13-1.21,53.75,53.75,0,0,1-12.79-4.36,42.74,42.74,0,0,1-11.83-8.46,40.5,40.5,0,0,1-4.83-6,38.92,38.92,0,0,1-3.6-7.08,37.81,37.81,0,0,1-2.3-15.54,47.49,47.49,0,0,1,3.11-14.08,69.48,69.48,0,0,1,10.7-18.3c1.06-1.31,2.13-2.59,3.24-3.82s2.29-2.45,3.33-3.47l3.21-3.17c1.07-1.05,2.16-2,3.23-3,8.62-8,17.23-14.82,25.31-21.72a181.65,181.65,0,0,0,22-21.36c.8-1,1.5-1.94,2.26-2.9a33.3,33.3,0,0,0,2.16-3l2-3c.62-1,1.18-2.1,1.78-3.14l.9-1.58.73-1.64c.5-1.08,1-2.17,1.49-3.26l.26-.68c.1-.27.09-.22.12-.31a3.56,3.56,0,0,0,.13-.39,1.75,1.75,0,0,0,0-.85l-1.65-6c-.58-2.08-1.19-4.17-1.85-6.24s-1.37-4.13-2.13-6c-.38-.94-.78-1.85-1.17-2.64-.5-1-.48-.94-.68-1.27a2.37,2.37,0,0,0-.33-.38c-.14-.11-.29-.19-.35-.24l-.54-.32-.71-.36c-.47-.23-.92-.49-1.42-.69-2-.92-4-1.6-7-2.7l-.55-.21-.65-.27-1.3-.56c-.52-.26-1-.53-1.54-.81l-.38-.21-.43-.28-.87-.6-.84-.63-.89-.83a12.34,12.34,0,0,1-1.61-1.84,18.93,18.93,0,0,1-1.32-2.11c-.31-.69-.6-1.39-.86-2.1l-.19-.53-.11-.47-.21-.94-.19-.94-.09-.47,0-.4-.12-1.59,0-.8,0-.69.05-1.37,0-.68v-.17l0-.25.06-.5a15.3,15.3,0,0,1,.37-2.08,13.43,13.43,0,0,1,.8-2.36c.18-.42.38-.83.59-1.23s.54-.85.83-1.26a12.24,12.24,0,0,1,2.07-2.26,13.58,13.58,0,0,1,4.74-2.59,19.9,19.9,0,0,1,6.88-.78c1.81.08,3.33.28,4.75.47l3.91.55c1.2.16,2.33.29,3.32.34.48,0,1,0,1.37,0H449l.33,0a3.39,3.39,0,0,0,2.4-1.16c.1-.12.22-.24.31-.36l.39-.54.43-.73c.14-.25.25-.51.38-.76a15.63,15.63,0,0,0,1.14-3.52,69.58,69.58,0,0,0,.82-10c.07-1,.14-2,.34-3.52a24.21,24.21,0,0,1,1.18-4.88A17.83,17.83,0,0,1,459.3-11a16.13,16.13,0,0,1,4.17-3.79,21.65,21.65,0,0,1,5.37-2.45l1.38-.36c.45-.11.95-.24,1.32-.29l1.21-.2.61-.1.49-.07,7.87-1c5.33-.66,10.76-1.26,15.83-1.57a89,89,0,0,1,13.59.1A65.65,65.65,0,0,1,522-18.82a35,35,0,0,1,9.59,4,24.84,24.84,0,0,1,7.36,7,24.23,24.23,0,0,1,3.82,9.49,31,31,0,0,0-7.08-6.66,25.63,25.63,0,0,0-8.29-3.63,37.84,37.84,0,0,0-9.18-1,70.61,70.61,0,0,0-9.73.66c-6.62.86-13.4,2.3-20.35,3.76-3.47.73-7,1.48-10.56,2.18l-1.34.26c-.42.09-.64.16-1,.23l-.45.1-.27.09a2.92,2.92,0,0,0-.48.17,3.58,3.58,0,0,0-1.3.85A3.34,3.34,0,0,0,472,.86c-.07.85-.11,2.06-.12,3.33s0,2.74-.06,4.28a42.54,42.54,0,0,1-1.43,10.35,31,31,0,0,1-2.11,5.49,29,29,0,0,1-1.48,2.6,35.79,35.79,0,0,1-2.11,2.94A18.79,18.79,0,0,1,455.07,36a24.35,24.35,0,0,1-2.84.64l-1.45.18c-.5.06-.95.09-1.35.11a39.82,39.82,0,0,1-4.38,0c-2.69-.14-5.07-.45-7.12-.66-1-.1-2-.19-2.71-.2a7,7,0,0,0-1.45,0s0,0,0,0h0l0-.13,0-.29c-.07-.4-.15-.8-.26-1.2s-.16-.68-.23-1-.17-.56-.28-.84-.17-.46-.24-.64a3.31,3.31,0,0,0-.27-.53l-.08-.13,0-.06-.07-.13a1.43,1.43,0,0,0-.19-.26L432,30.9a1.62,1.62,0,0,0,.41.27,3.18,3.18,0,0,0,.92.39,6.09,6.09,0,0,0,1.51.42c.2,0,.65.14,1,.19s.71.11,1.06.14l.53,0c.1,0,0-.06.05,0v1.21a3.31,3.31,0,0,1,.07.55c0,.06,0,0,0,0a16.22,16.22,0,0,0-1.9.56,4.87,4.87,0,0,0-1.06.35c-.17.08-.35.18-.52.28a.42.42,0,0,1-.12.05,1.08,1.08,0,0,0-.22.15,2.65,2.65,0,0,0,.54-.51l.1-.13,0-.07,0,0,.08-.09a7.46,7.46,0,0,0,.62-.77,7,7,0,0,0,.53-.81l.23-.41.11-.21a.36.36,0,0,1,.08-.15l.07-.11,0,0,.14,0,.07,0,.21.08c1,.41,3.41,1.11,5.78,1.94.88.31,1.77.63,2.68,1s1.81.75,2.72,1.19c.45.21.91.41,1.35.64l1.67.9a16.22,16.22,0,0,1,1.93,1.18l.89.63.83.72a22.22,22.22,0,0,1,2.87,3.33c.42.61.84,1.22,1.21,1.86s.58,1,.84,1.46a58.27,58.27,0,0,1,2.54,5.29c1.44,3.39,2.6,6.64,3.68,9.85l1.55,4.77,1.53,4.81a19.15,19.15,0,0,1,1,7.66,24.12,24.12,0,0,1-.62,3.85l-.24.94-.27.89c-.14.48-.29.94-.44,1.37-.59,1.61-1.21,3-1.82,4.54l-.93,2.24c-.32.74-.71,1.43-1.06,2.15l-2.19,4.26-2.47,4c-.42.67-.82,1.35-1.25,2l-1.35,1.9c-.9,1.26-1.79,2.55-2.72,3.78-7.53,9.73-16,18-24.48,25.63S413,152,405.42,159.42c-1.93,1.84-3.67,3.74-5.49,5.61a57.52,57.52,0,0,0-4.52,5.38,45,45,0,0,0-6.35,11.43,24.39,24.39,0,0,0-1.52,6.81,13.47,13.47,0,0,0,.71,5.38,14.82,14.82,0,0,0,1.14,2.34,16.37,16.37,0,0,0,1.75,2.25,18.19,18.19,0,0,0,5,3.79,33.66,33.66,0,0,0,14.43,3.68h1.92c.64,0,1.25,0,1.91-.09,1.33-.11,2.67-.26,4-.49a55.11,55.11,0,0,0,8.13-2.07,97.76,97.76,0,0,0,16.66-7.8c2.78-1.66,5.65-3.22,8.37-5l4.12-2.65,4-2.8c.67-.47,1.36-.93,2-1.42l2-1.48c1.31-1,2.64-2,3.94-3,2.54-2.11,5.18-4.14,7.64-6.4a176.73,176.73,0,0,0,14.43-14.17,190.29,190.29,0,0,0,40.72-70.33c2-6.52,4-13.07,5.54-19.74l.63-2.5.55-2.51c.36-1.68.78-3.35,1.13-5,.65-3.38,1.39-6.76,1.94-10.19A141.33,141.33,0,0,0,542.07,25C542.17,16.65,541.91,8.3,542.47,1Z"/><path class="cls-17" d="M449.33,84.19c7.8-9.87-1.2-24-10.56-26.58a84.19,84.19,0,0,0-43.44.13c-7.5,2.11-14.54,5.34-22.12,7.39-25.13,6.79-57.55-12.44-50.75-23,9.12-14.12,55.47-19.65,65-28C417.49-12,458.94-12.51,489-22"/><path class="cls-18" d="M411.62,182.37A108.17,108.17,0,0,0,480.17,123"/><path class="cls-18" d="M427.23,204.32a126.21,126.21,0,0,0,78.69-68.16"/><path class="cls-18" d="M363.94,198.72c-2.1-8.74,2.08-21,6.24-28.93s10.27-14.74,16.62-21.11c7.51-7.56,37.51-29.59,51.13-53.2"/><path class="cls-18" d="M383.34,217.5c-1.24-3.81,0-8.05,2.12-11.44s9.1-9.46,12-12.22a37.77,37.77,0,0,0,5.55-6.6"/><path class="cls-18" d="M437.58,217.23c12.74,1.88,32.47-13.93,40.06-21.1"/><path class="cls-18" d="M401.77,225.06a37.09,37.09,0,0,1,15-14.92"/><path class="cls-17" d="M335,44.94s12.19,8.41,24.22-.48c4-2.93-4.69-9.11-4.69-9.11"/><path class="cls-19" d="M391.67,182.64s-4.41-5.73-8.42-2.56-11.15,13.15-7,20"/><path class="cls-20" d="M408.57,208.19s-3.7-4.56-7-1.9-9.08,10.93-5.6,16.38"/></g></g></svg>