<?xml version="1.0" encoding="utf-8"?>
<!-- Generator: Adobe Illustrator 25.4.1, SVG Export Plug-In . SVG Version: 6.00 Build 0)  -->
<svg version="1.1" xmlns="http://www.w3.org/2000/svg" xmlns:xlink="http://www.w3.org/1999/xlink" x="0px" y="0px"
	 viewBox="0 0 500 406" style="enable-background:new 0 0 500 406;" xml:space="preserve">
<style type="text/css">
	.st0{clip-path:url(#SVGID_00000161594529857742962530000011841736514698174093_);}
	.st1{fill:#FFCD00;stroke:#FFCE01;stroke-width:0.8895;stroke-miterlimit:10;}
	.st2{fill:#FFFFFF;stroke:#B1C8E5;stroke-width:10;stroke-miterlimit:10;}
	.st3{fill:#FFFFFF;}
	.st4{clip-path:url(#SVGID_00000070802800014903193230000006744521296770128305_);}
	.st5{fill:none;}
	.st6{fill:#FFE0CF;}
	.st7{fill:none;stroke:#FFBDA6;stroke-width:10;stroke-linecap:round;stroke-linejoin:round;stroke-miterlimit:10;}
	.st8{fill:#FFE0CF;stroke:#FFBDA6;stroke-width:10;stroke-linecap:round;stroke-linejoin:round;stroke-miterlimit:10;}
	.st9{fill:#154734;stroke:#154734;stroke-width:0.5219;stroke-miterlimit:10;}
	.st10{clip-path:url(#SVGID_00000118378150449783884810000001240269317848463002_);}
	.st11{fill:#6CC49A;}
	.st12{fill:#154734;stroke:#154734;stroke-width:17.4509;stroke-miterlimit:10;}
	.st13{fill:#0A2117;}
	.st14{fill:#3F4A54;}
	.st15{fill:none;stroke:#216345;stroke-width:17.4509;stroke-linecap:round;stroke-linejoin:round;stroke-miterlimit:10;}
	.st16{fill:none;stroke:#466E5F;stroke-width:2.9085;stroke-miterlimit:10;}
	.st17{fill:#FFCD00;}
	.st18{fill:#FFCD00;stroke:#FFCD00;stroke-width:5.817;stroke-linecap:round;stroke-linejoin:round;stroke-miterlimit:10;}
	.st19{fill:#154734;}
	.st20{fill:none;stroke:#CBEADB;stroke-width:5.817;stroke-linecap:round;stroke-linejoin:round;stroke-miterlimit:10;}
	.st21{fill:none;stroke:#6CC49A;stroke-width:29.1516;stroke-linecap:round;stroke-linejoin:round;stroke-miterlimit:10;}
	.st22{fill:#B0BFD6;}
	.st23{fill:#8595AA;}
	.st24{fill:#6A7989;}
	.st25{fill:none;stroke:#CAD5E0;stroke-width:14.6867;stroke-linecap:round;stroke-linejoin:round;stroke-miterlimit:10;}
	.st26{fill:#FFE0CF;stroke:#FFBDA6;stroke-width:7.5858;stroke-linecap:round;stroke-linejoin:round;stroke-miterlimit:10;}
	.st27{fill:none;stroke:#FFBDA6;stroke-width:6.2177;stroke-linecap:round;stroke-linejoin:round;stroke-miterlimit:10;}
	.st28{fill:#FFCE01;}
	.st29{clip-path:url(#SVGID_00000155139403388531258920000001561055129661468845_);}
	.st30{clip-path:url(#SVGID_00000160876179340360328140000010987837205199210886_);}
	.st31{clip-path:url(#SVGID_00000080181455694828356800000012420793607516404918_);}
	.st32{fill:none;stroke:#8A9AB2;stroke-width:15;stroke-miterlimit:10;}
	.st33{fill:none;stroke:#8A9AB2;stroke-width:12;stroke-miterlimit:10;}
	.st34{fill:none;stroke:#8A9AB2;stroke-width:10;stroke-miterlimit:10;}
	.st35{fill:none;stroke:#8A9AB2;stroke-width:7;stroke-miterlimit:10;}
	.st36{fill:none;stroke:#8A9AB2;stroke-width:5;stroke-miterlimit:10;}
	.st37{fill:none;stroke:#8A9AB2;stroke-width:4;stroke-miterlimit:10;}
	.st38{fill:#D2E4FF;}
	.st39{fill:#8A9AB2;}
	.st40{fill:#637082;stroke:#637082;stroke-width:0.7824;stroke-miterlimit:10;}
	.st41{fill:#637082;}
	.st42{fill:#FFFFFF;stroke:#FFFFFF;stroke-width:3.7482;stroke-miterlimit:10;}
	.st43{fill:#B1E2EF;}
	.st44{fill:none;stroke:#FFFFFF;stroke-width:0.5;stroke-linecap:round;stroke-linejoin:round;stroke-miterlimit:10;}
	.st45{opacity:0.45;fill:#FFFFFF;stroke:#FFFFFF;stroke-width:3.7482;stroke-miterlimit:10;}
	.st46{fill:#FFFFFF;stroke:#FFFFFF;stroke-width:1.2245;stroke-linecap:round;stroke-linejoin:round;stroke-miterlimit:10;}
	.st47{fill:none;stroke:#FFFFFF;stroke-width:10;stroke-miterlimit:10;}
	.st48{clip-path:url(#SVGID_00000120548815748526509570000007062996448581302406_);}
	.st49{fill:#B1C8E5;stroke:#FFFFFF;stroke-width:10;stroke-miterlimit:10;}
	.st50{fill:#F8FBFF;}
	.st51{fill:#154734;stroke:#154734;stroke-width:11.4666;stroke-miterlimit:10;}
	.st52{fill:none;stroke:#466E5F;stroke-width:1.9111;stroke-miterlimit:10;}
	.st53{fill:#FFCD00;stroke:#FFCD00;stroke-width:3.8222;stroke-linecap:round;stroke-linejoin:round;stroke-miterlimit:10;}
	.st54{fill:none;stroke:#216345;stroke-width:11.4666;stroke-linecap:round;stroke-linejoin:round;stroke-miterlimit:10;}
	.st55{fill:none;stroke:#CBEADB;stroke-width:3.8222;stroke-linecap:round;stroke-linejoin:round;stroke-miterlimit:10;}
	.st56{fill:none;stroke:#6CC49A;stroke-width:19.2499;stroke-linecap:round;stroke-linejoin:round;stroke-miterlimit:10;}
	.st57{fill:#216345;stroke:#216345;stroke-width:21.0221;stroke-linecap:round;stroke-linejoin:round;stroke-miterlimit:10;}
	.st58{fill:none;stroke:#6CC49A;stroke-width:28.6664;stroke-linecap:round;stroke-linejoin:round;stroke-miterlimit:10;}
	.st59{fill:#154734;stroke:#154734;stroke-width:1.8259;stroke-miterlimit:10;}
	.st60{fill:none;stroke:#466E5F;stroke-width:2.3505;stroke-miterlimit:10;}
</style>
<g id="레이어_2">
</g>
<g id="레이어_1">
	<g>
		<defs>
			<rect id="SVGID_00000140736565100616534470000007558445834283903915_" x="-527.21" y="0" width="500" height="406.51"/>
		</defs>
		<clipPath id="SVGID_00000003090449830626008720000013574847772278734982_">
			<use xlink:href="#SVGID_00000140736565100616534470000007558445834283903915_"  style="overflow:visible;"/>
		</clipPath>
		<g style="clip-path:url(#SVGID_00000003090449830626008720000013574847772278734982_);">
			<g>
				<g>
					<path class="st6" d="M17.74,0.52C32.85,80.58-5.78,162.64-78.81,205.61c-9.97,5.87-20.86,11.15-33.17,12.26
						s-26.34-2.73-34.1-11.9c-12.87-15.2-3.03-35.52,9.69-48.89c23.08-24.27,55.5-43.14,66.84-73.65c0.95-2.56,1.74-5.34,0.84-8.04
						c-1.73-5.21-6.77-24.9-11.99-28c-12.08-7.19-19.69-3.53-18.9-15.71s21.83,1.79,29.79-7.71c11.83-14.12-2.95-31.82,17.17-35.22
						C-24.24-16.06,4.83-23.57,17.74,0.52"/>
					<g>
						<g>
							<path class="st6" d="M15.26,0.99c3.65,6.53,6.14,14.41,7.72,22.48c1.57,8.08,2.15,16.31,2.69,23.72
								c0.51,7.43,0.24,14.9-0.49,22.34c-0.82,7.43-2.28,14.79-4.25,22.01c-8.07,28.85-22.57,55.95-42.19,78.77
								c-2.4,2.9-4.99,5.61-7.5,8.38c-1.29,1.35-2.61,2.67-3.92,4l-1.96,1.99l-2.02,1.92c-1.35,1.27-2.7,2.55-4.05,3.82
								c-1.39,1.22-2.78,2.45-4.17,3.67c-1.37,1.24-2.8,2.41-4.24,3.57c-1.44,1.16-2.85,2.35-4.3,3.48
								c-2.95,2.21-5.84,4.5-8.88,6.56c-1.51,1.05-3,2.13-4.53,3.14l-4.63,2.99c-6.15,3.94-12.77,7.74-20.2,10.74
								c-3.71,1.49-7.61,2.77-11.69,3.68c-2.04,0.45-4.11,0.84-6.21,1.1c-1.04,0.15-2.13,0.24-3.22,0.33
								c-1.09,0.11-2.18,0.11-3.27,0.15c-4.36,0.08-8.69-0.31-13.01-1.21c-4.31-0.9-8.6-2.3-12.78-4.36
								c-4.17-2.06-8.26-4.78-11.83-8.46c-1.81-1.85-3.38-3.8-4.82-5.98c-1.42-2.2-2.64-4.58-3.61-7.08
								c-1.89-5.03-2.63-10.49-2.3-15.54c0.29-5.08,1.49-9.78,3.11-14.08c2.75-7.11,6.53-13.03,10.7-18.3
								c1.06-1.31,2.13-2.59,3.25-3.82c1.1-1.24,2.29-2.46,3.33-3.47c1.07-1.06,2.14-2.12,3.21-3.17c1.07-1.04,2.16-2.02,3.23-3.02
								c8.62-7.97,17.23-14.82,25.31-21.72c8.12-6.86,15.62-13.77,22.01-21.37c0.8-0.95,1.5-1.93,2.27-2.9
								c0.75-0.97,1.52-1.94,2.16-2.96c0.67-1.01,1.35-2.02,2.03-3.03c0.62-1.03,1.18-2.09,1.78-3.14l0.9-1.58l0.74-1.64
								c0.49-1.08,0.99-2.17,1.49-3.27l0.26-0.68c0.1-0.27,0.09-0.22,0.12-0.31c0.05-0.13,0.1-0.26,0.13-0.39
								c0.07-0.27,0.07-0.56-0.01-0.85c-0.53-1.93-1.08-3.94-1.65-6c-0.58-2.07-1.19-4.17-1.85-6.24c-0.66-2.07-1.37-4.13-2.13-6.03
								c-0.38-0.95-0.78-1.85-1.17-2.65c-0.5-0.97-0.47-0.94-0.68-1.27c-0.09-0.14-0.21-0.26-0.33-0.38
								c-0.13-0.11-0.29-0.19-0.34-0.24l-0.55-0.33l-0.7-0.35c-0.47-0.23-0.92-0.49-1.43-0.7c-1.97-0.92-4.01-1.59-6.98-2.7
								l-0.55-0.21l-0.64-0.27l-1.31-0.57c-0.52-0.26-1.03-0.53-1.53-0.81l-0.38-0.21c-0.13-0.08-0.29-0.19-0.43-0.28l-0.87-0.6
								l-0.85-0.63c-0.3-0.27-0.6-0.55-0.89-0.83c-0.57-0.58-1.15-1.13-1.61-1.84c-0.47-0.68-0.96-1.4-1.31-2.1
								c-0.32-0.69-0.61-1.39-0.87-2.11l-0.19-0.53l-0.11-0.47l-0.21-0.94l-0.19-0.94l-0.08-0.47l-0.04-0.4l-0.12-1.59l-0.04-0.8
								l0.02-0.69l0.05-1.37l0.03-0.68l0.01-0.17l0.03-0.25l0.06-0.5c0.1-0.69,0.14-1.27,0.37-2.08c0.21-0.77,0.39-1.48,0.8-2.35
								c0.19-0.42,0.38-0.83,0.59-1.23c0.25-0.42,0.53-0.85,0.82-1.26c0.55-0.83,1.31-1.57,2.07-2.26c1.54-1.3,3.31-2.17,4.74-2.59
								c2.96-0.89,5.07-0.82,6.88-0.78c1.81,0.08,3.33,0.28,4.75,0.47l3.91,0.55c1.2,0.16,2.33,0.29,3.32,0.34
								c0.48,0.02,0.97,0.05,1.38,0.03l0.28,0l0.17-0.01c0.11-0.01,0.22,0,0.33-0.02c0.89-0.06,1.81-0.43,2.4-1.16
								c0.1-0.12,0.22-0.24,0.31-0.37l0.39-0.54l0.43-0.73c0.14-0.25,0.25-0.51,0.39-0.76c0.49-1.04,0.86-2.19,1.13-3.52
								c0.57-2.66,0.61-5.89,0.82-9.99c0.07-1.05,0.14-2.04,0.34-3.52c0.21-1.59,0.6-3.24,1.18-4.88c0.6-1.63,1.45-3.23,2.57-4.69
								c1.1-1.48,2.56-2.73,4.17-3.79c1.61-1.08,3.47-1.83,5.37-2.44c0.46-0.12,0.92-0.24,1.38-0.36c0.45-0.11,0.95-0.24,1.33-0.29
								l1.21-0.2l0.61-0.1l0.49-0.06c2.59-0.32,5.23-0.66,7.88-0.99c5.33-0.66,10.76-1.26,15.83-1.56c5.07-0.29,9.78-0.29,13.58,0.1
								c3.79,0.37,7.4,0.93,10.82,1.86c3.42,0.93,6.68,2.21,9.59,4.04c2.91,1.83,5.45,4.19,7.36,7c1.92,2.8,3.2,6.02,3.82,9.5
								c-2.11-2.68-4.49-4.95-7.07-6.67C5.87-6.7,3.08-7.84,0.15-8.58C-2.76-9.33-5.86-9.6-9.03-9.62
								c-3.17-0.02-6.43,0.23-9.73,0.66c-6.62,0.86-13.41,2.3-20.35,3.76c-3.47,0.73-6.99,1.48-10.56,2.18l-1.34,0.26
								c-0.42,0.09-0.63,0.15-0.96,0.22l-0.45,0.1l-0.27,0.09c-0.16,0.06-0.39,0.12-0.48,0.17c-0.49,0.2-0.95,0.48-1.3,0.86
								c-0.56,0.59-0.75,1.4-0.79,2.18c-0.07,0.85-0.11,2.06-0.12,3.33c-0.01,1.28-0.01,2.74-0.06,4.28
								c-0.09,3.08-0.38,6.65-1.43,10.34c-0.49,1.84-1.24,3.7-2.11,5.49c-0.47,0.88-0.92,1.77-1.48,2.6
								c-0.62,1.03-1.39,1.99-2.11,2.94c-2.44,2.99-5.82,5.17-9.56,6.19c-0.93,0.29-1.89,0.46-2.84,0.63l-1.45,0.18
								c-0.5,0.06-0.95,0.09-1.35,0.11c-1.59,0.1-3.01,0.06-4.38,0c-2.69-0.15-5.08-0.45-7.12-0.66c-1.02-0.1-1.97-0.19-2.71-0.21
								c-0.73-0.03-1.39,0-1.45,0.05c-0.02,0-0.02,0-0.01,0l0.01,0l-0.02-0.13l-0.04-0.3c-0.06-0.4-0.15-0.8-0.25-1.19
								c-0.13-0.45-0.16-0.68-0.24-0.97c-0.07-0.28-0.17-0.56-0.28-0.84c-0.14-0.32-0.17-0.46-0.24-0.64
								c-0.07-0.18-0.16-0.35-0.26-0.53l-0.08-0.13l-0.03-0.07l-0.07-0.13c-0.05-0.09-0.12-0.17-0.19-0.25
								c-0.05-0.06-0.03-0.05-0.07-0.08c0.14,0.13,0.24,0.18,0.41,0.26c0.3,0.19,0.61,0.32,0.92,0.39c0.5,0.21,1.01,0.35,1.51,0.42
								c0.2,0.01,0.65,0.14,0.98,0.19c0.36,0.06,0.71,0.11,1.06,0.14l0.53,0.03c0.1,0.01,0.02-0.05,0.05,0.01l0.01,0.24l-0.01,0.96
								c0.04,0.18,0.06,0.36,0.07,0.55c0.01,0.06,0.04,0,0.03,0.01c-0.49,0.09-1.39,0.37-1.9,0.56c-0.35,0.07-0.71,0.19-1.06,0.35
								c-0.18,0.08-0.35,0.18-0.52,0.28c-0.08,0.05-0.07,0.03-0.11,0.05c-0.06,0.03-0.14,0.08-0.22,0.15
								c0.21-0.16,0.39-0.33,0.53-0.51l0.1-0.13l0.05-0.07l0.03-0.04l0.08-0.09c0.22-0.25,0.43-0.5,0.62-0.77
								c0.19-0.26,0.37-0.53,0.53-0.81l0.23-0.42l0.11-0.21c0.01-0.03,0.03-0.06,0.09-0.15l0.07-0.11c0.02-0.03,0.01-0.01,0.01-0.02
								c0.05,0.01,0.1,0.03,0.15,0.05l0.07,0.04l0.21,0.08c1.04,0.42,3.41,1.11,5.77,1.94c0.88,0.31,1.77,0.63,2.68,1.01
								c0.91,0.35,1.81,0.75,2.72,1.18c0.45,0.21,0.91,0.42,1.35,0.64l1.67,0.9c0.71,0.38,1.34,0.74,1.92,1.18l0.89,0.64l0.83,0.72
								c1.07,1,2.02,2.13,2.87,3.33c0.42,0.61,0.83,1.21,1.21,1.86c0.34,0.55,0.58,0.98,0.84,1.46c1.02,1.86,1.81,3.59,2.54,5.29
								c1.44,3.39,2.6,6.64,3.68,9.85l1.55,4.77l1.53,4.81c0.84,2.46,1.16,5.07,0.96,7.66c-0.09,1.29-0.31,2.58-0.62,3.85
								l-0.25,0.95l-0.26,0.89c-0.15,0.48-0.3,0.93-0.45,1.36c-0.59,1.61-1.2,3.02-1.82,4.54l-0.93,2.24
								c-0.32,0.74-0.71,1.43-1.06,2.15l-2.19,4.26l-2.46,4.04c-0.42,0.67-0.82,1.35-1.25,2l-1.35,1.9
								c-0.9,1.26-1.79,2.55-2.72,3.78c-7.53,9.73-16.06,18.01-24.49,25.63c-8.44,7.66-16.83,14.82-24.36,22.24
								c-1.94,1.84-3.68,3.73-5.5,5.6c-1.68,1.77-3.13,3.52-4.52,5.38c-2.76,3.69-4.99,7.65-6.35,11.44
								c-0.88,2.43-1.41,4.76-1.51,6.8c-0.14,2.06,0.16,3.79,0.71,5.38c0.3,0.79,0.67,1.57,1.14,2.35c0.5,0.75,1.09,1.58,1.74,2.25
								c1.27,1.41,2.99,2.71,5.04,3.79c4.07,2.19,9.29,3.5,14.43,3.68l1.92,0.01c0.64-0.04,1.25-0.04,1.91-0.09
								c1.33-0.11,2.67-0.26,4.01-0.49c2.69-0.45,5.4-1.15,8.13-2.07c5.47-1.86,11.01-4.57,16.66-7.79
								c2.79-1.67,5.65-3.22,8.37-5.03c1.37-0.88,2.75-1.76,4.12-2.65c1.34-0.93,2.69-1.87,4.04-2.81c0.67-0.47,1.36-0.93,2.02-1.42
								l1.97-1.49c1.31-1,2.64-1.98,3.95-2.99c2.54-2.11,5.18-4.14,7.64-6.4c5.05-4.36,9.8-9.16,14.43-14.17
								c18.35-20.18,32.49-44.27,40.73-70.33c2.03-6.51,3.96-13.07,5.53-19.74l0.63-2.5L10,63.62c0.36-1.68,0.78-3.35,1.12-5.04
								c0.65-3.38,1.39-6.76,1.94-10.18c1.24-6.83,1.75-15.11,1.79-23.42C14.96,16.65,14.7,8.3,15.26,0.99z"/>
						</g>
					</g>
				</g>
			</g>
		</g>
	</g>
</g>
<g id="레이어_5">
</g>
<g id="레이어_6">
</g>
<g id="레이어_3">
	<g>
		<defs>
			<rect id="SVGID_00000175311660692865926690000016586988264390383760_" x="0" y="0" width="500" height="406.51"/>
		</defs>
		<clipPath id="SVGID_00000003796964629786388640000011724221938114675599_">
			<use xlink:href="#SVGID_00000175311660692865926690000016586988264390383760_"  style="overflow:visible;"/>
		</clipPath>
		<g style="clip-path:url(#SVGID_00000003796964629786388640000011724221938114675599_);">
			<rect x="0" y="0" class="st1" width="500" height="406.51"/>
			<path class="st49" d="M427.46,881.37H71.57c-21.29,0-38.7-17.42-38.7-38.7V144.59c0-21.29,17.42-38.7,38.7-38.7h355.88
				c21.29,0,38.7,17.42,38.7,38.7v698.07C466.16,863.95,448.74,881.37,427.46,881.37z"/>
			<path class="st23" d="M386.81,861.63H112.22c-18.11,0-32.93-14.82-32.93-32.93V180.12c0-18.11,14.82-32.93,32.93-32.93h274.58
				c18.11,0,32.93,14.82,32.93,32.93V828.7C419.74,846.81,404.92,861.63,386.81,861.63z"/>
			<g>
				<g>
					<path class="st11" d="M308.87,134.12c9.72-0.93,19.57-1.86,29.6-2.82c-2.4-2.3-5.41-3.88-8.64-4.85
						c-1.68-0.5-3.41-0.85-5.18-1.05c-0.88-0.1-1.77-0.16-2.66-0.19l-1.34-0.02l-1.18,0.02c-1.32,0.04-2.73,0.15-4.09,0.34
						c-0.68,0.09-1.36,0.21-2.03,0.33l-1.25,0.27c-0.48,0.11-0.88,0.22-1.32,0.34c-3.43,0.95-6.74,2.37-9.52,4.44
						c-1.65,1.25-3.16,2.71-4.41,4.35C300.84,134.88,304.84,134.5,308.87,134.12z"/>
					<path class="st11" d="M171.25,147.3c-0.07-0.05-0.14-0.11-0.21-0.16c-3.05-2.2-6.66-3.59-10.41-4.24
						c-0.94-0.16-1.88-0.28-2.83-0.36c-0.47-0.05-0.96-0.06-1.41-0.08c-0.41-0.01-0.81-0.02-1.22-0.01
						c-1.82,0.01-3.78,0.21-5.61,0.57c-3.71,0.71-7.24,2.14-10.24,4.24c-1.45,1.03-2.78,2.24-3.93,3.58
						C147.63,149.63,159.55,148.44,171.25,147.3z"/>
				</g>
				<path class="st51" d="M368.85,400.99l-214.07,20.22c-16.94,1.6-31.98-10.84-33.58-27.78l-19.39-205.18
					c-1.6-16.94,10.84-31.98,27.78-33.58l214.07-20.22c16.94-1.6,31.98,10.84,33.58,27.78l19.39,205.18
					C398.23,384.36,385.79,399.39,368.85,400.99z"/>
				<g>
					<g>
						<g>
							<path class="st17" d="M216.32,201.23c1.57-0.28,12.02-1.27,14.28-1.35c0.18,0.85,0.45,3.69,0.46,4.86
								c-1.52,0.18-7.5,0.74-8.59,0.81c-0.02,0.87,0.18,2.98,0.39,4.13c1.61-0.22,8.39-0.86,9.82-0.93
								c0.21,0.81,0.49,3.79,0.47,4.93c-1.9,0.31-13.31,1.39-15.5,1.46C217.12,212.22,216.36,204.19,216.32,201.23z M218.53,216.93
								c1.73-0.36,20.57-2.14,22.35-2.11c0.38,1.6,1.23,10.52,1.15,12.13c-1.57,0.32-20.74,2.13-22.35,2.11
								C219.3,227.49,218.46,218.57,218.53,216.93z M236.07,222.84c-0.03-1.06-0.11-1.82-0.27-2.84
								c-1.26,0.05-10.09,0.85-11.27,1.06c0.03,1.03,0.1,1.79,0.27,2.84C226.03,223.89,234.86,223.06,236.07,222.84z M233.9,199.13
								c1.11-0.3,4.31-0.61,5.45-0.52c0.16,0.62,0.39,2.66,0.65,5.07c1.16-0.11,2.29-0.15,2.86-0.14c0.23,0.71,0.57,4.22,0.47,4.93
								c-0.56,0.12-1.67,0.29-2.83,0.4c0.18,2.25,0.33,4.17,0.28,4.78c-0.95,0.22-4.15,0.53-5.45,0.52
								C235,212.57,233.89,200.8,233.9,199.13z"/>
						</g>
					</g>
					<g>
						<g>
							<path class="st17" d="M244.23,198.92c1.31-0.29,6.43-0.77,8.1-0.77c0.29,1.34,2.51,24.83,2.48,26.2
								c-1.31,0.22-4.22,0.5-5.59,0.53c-0.28-2.21-1.83-18.69-1.98-20.91c-0.86,0.11-1.68,0.23-2.51,0.24
								C244.51,203.27,244.19,199.9,244.23,198.92z M253.62,198.04c1.31-0.29,6.79-0.81,8.46-0.8c0.29,1.34,2.51,24.83,2.48,26.2
								c-1.31,0.22-4.22,0.5-5.59,0.53c-0.28-2.21-1.83-18.69-1.98-20.91c-1.05,0.13-2.04,0.26-2.88,0.27
								C253.9,202.38,253.58,199.01,253.62,198.04z M264.36,196.26c1.11-0.3,4.34-0.61,5.49-0.52c0.39,1.63,2.72,26.35,2.64,27.99
								c-0.94,0.32-4.18,0.63-5.49,0.52C266.65,222.64,264.32,197.93,264.36,196.26z"/>
						</g>
					</g>
				</g>
				<g>
					<g>
						<path class="st53" d="M252.55,313.04c-1.27,0.12-1.85,0.82-1.76,1.77l0.22,2.3l-6.08,0.57c-2.98,0.28-5.17,2.93-4.89,5.91
							c0.12,1.26,0.4,2.33,0.87,3.27c0.24,0.47,0.56,0.89,0.95,1.23l0.86,4.62c0.65,3.5,3.81,5.89,7.35,5.55l2.91-0.27
							c0.09,0.95,0.79,1.53,2.06,1.41c1.27-0.12,1.85-0.82,1.76-1.77l3.01-0.28c3.54-0.33,6.2-3.27,6.18-6.83l-0.02-4.83
							c0.27-0.38,0.47-0.79,0.6-1.25c0.28-1.01,0.36-2.11,0.24-3.38c-0.28-2.98-2.93-5.17-5.91-4.89l-6.08,0.57l-0.22-2.3
							C254.52,313.49,253.82,312.92,252.55,313.04z"/>
						<path class="st53" d="M289.34,337.04c0.19,0.12,0.6,0.29,0.93,0.21c9.84-2.25,16.73-11.5,15.75-21.82
							c-0.7-7.37-5.23-13.46-11.44-16.46c-1.79-0.87-3.23-2.31-4.12-4.09c-3.67-7.29-11.54-11.96-20.16-11.14l-0.16,0.01
							c-2.36,0.23-4.69-0.5-6.56-1.94c-3.95-3.04-9.01-4.65-14.37-4.14c-5.35,0.51-10.03,3.04-13.34,6.76
							c-1.57,1.77-3.73,2.91-6.09,3.13l-0.16,0.01c-8.62,0.81-15.47,6.87-17.72,14.72c-0.55,1.91-1.69,3.6-3.28,4.79
							c-5.54,4.12-8.85,10.94-8.16,18.32c0.97,10.26,9.38,18.03,19.39,18.48c1.65,0.07,2.99,1.33,3.15,2.97l0.78,8.31
							c0.24,2.5-0.73,4.96-2.61,6.62l-3.32,2.95c-0.49,0.44-0.75,1.09-0.69,1.74v0c0.11,1.14,1.12,1.98,2.26,1.87l5.54-0.52
							l5.9-0.56c0.95-0.09,1.9,0.03,2.8,0.35l3.52,1.25c1.35,0.48,2.83,0.5,4.19,0.06l4.61-1.5c1.3-0.42,2.7-0.42,4,0l5.25,1.69
							c0.84,0.27,1.73,0.37,2.61,0.28c0.88-0.08,1.73-0.34,2.51-0.77l4.85-2.65c1.2-0.66,2.58-0.92,3.93-0.74l4.83,0.61
							c1.42,0.18,2.87-0.12,4.11-0.84l3.22-1.89c0.82-0.48,1.74-0.78,2.68-0.87l5.87-0.55l5.58-0.53c1.14-0.11,1.98-1.12,1.87-2.26
							l0-0.01c-0.06-0.66-0.43-1.24-1-1.58l-3.81-2.26l-0.01-0.01c-1.16-0.69-2.62-0.68-3.74,0.07c-1.52,1.02-3.3,1.69-5.22,1.87
							l-25.32,2.39c-0.5,0.05-0.99-0.26-1.11-0.76c-0.07-0.28-0.01-0.55,0.13-0.77l7.2-13.71c-2.5,1.11-5.43,1.8-8.73,2.11
							c-12.09,1.14-20.66-3.87-21.93-17.36c-1.27-13.49,5.86-23.67,17.95-24.81c11.49-1.09,19.88,7,21.78,19.39
							c0.35,0.4,0.69,0.65,1.06,0.6c0.65-0.12,1.32-0.35,1.84-0.73c0.35-0.25,0.88-0.79,1.33-0.25c0.36,0.43,0.16,1.18-0.02,1.69
							c-0.37,1.02-0.93,1.94-1.74,2.66l0.21-0.19c-1.56,1.41-2.36,3.41-2.14,5.68c0.22,2.28,1.09,3.83,2.72,4.91l-0.01-0.01
							c2.67,1.79,4.55,4.73,4.87,8.18c0.16,1.65-0.06,3.24-0.57,4.71l0,0c-0.06,0.14-0.06,0.31,0.01,0.48
							c0.07,0.18,0.24,0.32,0.43,0.36c0.32,0.07,0.6-0.11,0.71-0.36l-0.01,0.03c0.68-1.63,0.99-3.45,0.81-5.33
							c-0.25-2.67-1.43-5.03-3.19-6.8l0.03,0c-1.48-1.69-2.46-3.85-2.69-6.26c-0.54-5.74,3.39-10.87,8.93-11.95
							c0.06-0.01,0.11-0.02,0.17-0.03l0,0c0.51-0.12,1.04-0.18,1.59-0.19c3.34-0.01,6.25,2.47,6.77,5.77
							c0.56,3.48-1.58,6.69-4.78,7.66c-0.17,0.05-0.33,0.11-0.48,0.2c-0.52,0.33-0.82,0.88-0.76,1.52c0.04,0.43,0.24,0.8,0.54,1.06
							l0,0C289.2,336.93,289.27,336.99,289.34,337.04z"/>
					</g>
					<g>
						<path class="st19" d="M289.63,334.15c3.31-0.89,5.55-4.17,4.98-7.72c-0.53-3.3-3.43-5.78-6.77-5.77
							c-0.55,0-1.08,0.07-1.59,0.19l0,0c-0.06,0.01-0.11,0.02-0.17,0.03c-5.55,1.07-9.48,6.21-8.93,11.95
							c0.23,2.41,1.21,4.57,2.69,6.26l-0.03,0c1.76,1.76,2.94,4.12,3.19,6.8c0.18,1.88-0.13,3.7-0.81,5.33l0.01-0.03
							c-0.11,0.26-0.39,0.43-0.71,0.36c-0.19-0.04-0.35-0.18-0.43-0.36c-0.07-0.17-0.06-0.33-0.01-0.48l0,0
							c0.51-1.46,0.72-3.06,0.57-4.71c-0.33-3.45-2.2-6.39-4.87-8.18l0.01,0.01c-1.63-1.09-2.5-2.64-2.72-4.91
							c-0.21-2.27,0.58-4.27,2.14-5.68l-0.21,0.19c0.8-0.73,1.36-1.64,1.74-2.66c0.19-0.51,0.39-1.26,0.02-1.69
							c-0.45-0.53-0.98,0.01-1.33,0.25c-0.52,0.37-1.18,0.6-1.84,0.73c-1.08,0.14-1.87-2.22-3.58-3.5l0,0
							c-1.34-1.06-3.07-1.62-4.9-1.45c-0.01,0-0.02,0-0.03,0c-1.86,0.18-3.33,1.72-3.42,3.58c-0.02,0.33-0.01,0.66,0.02,1
							c0.18,1.95,1.16,3.62,2.59,4.75l0,0c0.36,0.26,0.62,0.68,0.66,1.16c0.06,0.68-0.3,1.3-0.88,1.6l0,0
							c-0.77,0.4-1.62,0.66-2.53,0.75c-2.7,0.26-5.19-1.09-6.51-3.26l0,0c-0.33-0.52-0.95-0.83-1.61-0.73
							c-0.76,0.11-1.35,0.77-1.38,1.53c-0.01,0.21,0.02,0.41,0.09,0.6l0,0c1.38,4.51,5.52,7.71,10.3,7.84
							c1.33,0.01,2.46,1.03,2.59,2.38c0.05,0.51-0.05,0.99-0.26,1.42l-0.04,0.1l-8.42,16.02c-0.11,0.18-0.17,0.4-0.15,0.63
							c0.05,0.55,0.54,0.95,1.09,0.9l25.36-2.4c6.12-0.58,10.8-6.07,10.18-12.19c-0.33-3.3-2.08-6.12-4.59-7.92l0,0
							c-0.3-0.26-0.5-0.64-0.54-1.06C288.52,335.08,288.96,334.41,289.63,334.15z"/>
						<path class="st19" d="M257.72,353.76l2.54-3.91c0.25-0.38,0.24-0.87-0.01-1.25c-0.25-0.38-0.7-0.57-1.15-0.49
							c-0.81,0.15-2.31,0.42-3.19,0.51c-14.38,1.36-23.39-5.74-24.73-19.48c-0.74-7.64,1.3-15.01,5.6-20.22
							c3.61-4.37,8.48-6.97,14.09-7.49c5.69-0.54,11.23,1.06,15.61,4.49c4.46,3.5,7.51,8.78,8.57,14.86
							c0.11,0.62,0.7,1.03,1.31,0.92c0.62-0.11,1.03-0.7,0.92-1.31c-2.37-13.53-13.57-22.45-26.63-21.22
							c-6.22,0.59-11.62,3.46-15.62,8.31c-4.68,5.68-6.91,13.65-6.11,21.88c0.75,7.74,3.68,13.56,8.71,17.3
							c4.67,3.47,11.06,4.93,18.49,4.22c0.24-0.02,0.52-0.06,0.82-0.1l-1.13,1.75c-0.34,0.53-0.19,1.23,0.33,1.57
							c0.22,0.14,0.48,0.2,0.72,0.18C257.2,354.24,257.52,354.06,257.72,353.76z"/>
					</g>
				</g>
				<path class="st54" d="M113.11,175.17c8.94,3.22,19.24,3.48,29.25,3.37c64.1-0.69,127.63-14.17,191.73-18.28
					c11.22-0.72,23.03-1.29,32.7-6.12"/>
				<path class="st54" d="M365.69,191.59c5.33,55.77,15.51,112.59,12.65,168.75c-0.61,12.01-4.47,18.68-16.61,20.94
					c-28.78,5.36-57.86,9.89-87.08,11.95"/>
				<path class="st56" d="M162.76,421L162.76,421c-2.41,0.23-4.58-1.56-4.8-3.97l-22.23-235.26c-0.23-2.41,1.56-4.58,3.97-4.8l0,0
					c2.41-0.23,4.58,1.56,4.8,3.97l22.23,235.26C166.96,418.61,165.18,420.78,162.76,421z"/>
				<path class="st56" d="M361.74,402.21L361.74,402.21c-2.41,0.23-4.58-1.56-4.8-3.97l-22.23-235.26c-0.23-2.41,1.56-4.58,3.97-4.8
					l0,0c2.41-0.23,4.58,1.56,4.8,3.97l22.23,235.26C365.94,399.82,364.15,401.98,361.74,402.21z"/>
				<path class="st57" d="M141.82,192.47l-1.28,0.12c-2.06,0.19-3.91-1.33-4.1-3.39l-0.76-8.07c-0.19-2.06,1.33-3.91,3.39-4.1
					l1.28-0.12c2.06-0.19,3.91,1.33,4.1,3.39l0.76,8.07C145.4,190.43,143.88,192.27,141.82,192.47z"/>
				<path class="st57" d="M340.79,173.67l-1.28,0.12c-2.06,0.19-3.91-1.33-4.1-3.39l-0.76-8.07c-0.19-2.06,1.33-3.91,3.39-4.1
					l1.28-0.12c2.06-0.19,3.91,1.33,4.1,3.39l0.76,8.07C344.38,171.63,342.86,173.47,340.79,173.67z"/>
				<path class="st58" d="M138.93,182.35c-0.12-2.57-0.57-5.27,0.21-7.79c2.79-9.11,20.97-10.06,25.68-2.41
					c1.36,2.21,1.9,4.8,2.29,7.35c2.03,13.06,2.02,25.25,7.72,37.52c13.83,29.74,47.66,44.69,80.72,38.5
					c16.04-3,30.87-10.17,41.49-22.35c14.55-16.7,16.55-46.34,12.55-67.34c-0.45-2.36-1.02-4.77-0.62-7.15
					c1.05-6.33,9.4-8.72,15.06-9.15c3.29-0.25,6.85-0.04,9.92,1.18c4.89,1.94,5.11,5.25,5.72,10"/>
			</g>
			<path class="st59" d="M249.49,21.22c-3.06,0-4.6,1.53-4.6,3.83v5.54h-14.62c-7.15,0-12.98,5.82-12.98,12.98
				c0,3.04,0.44,5.65,1.34,7.99c0.46,1.18,1.14,2.25,1.99,3.15l1,11.19c0.76,8.48,7.75,14.88,16.27,14.88h6.99
				c0,2.29,1.54,3.82,4.59,3.82c3.06,0,4.59-1.53,4.59-3.82h7.24c8.52,0,15.51-6.4,16.27-14.88l1.03-11.5
				c0.72-0.83,1.31-1.79,1.72-2.84c0.9-2.34,1.34-4.95,1.34-7.99c0-7.15-5.82-12.98-12.98-12.98h-14.62v-5.54
				C254.08,22.75,252.55,21.22,249.49,21.22z"/>
			<g>
				<g>
					<path class="st6" d="M63.2,466.45c19.1,0.25,69.52-20.59,88-27.63c14.23-5.42,18.14-17.63,31.02-26
						c16.19-10.51,31.64-17.73,40.69-30.8c1-1.45,2.07-2.86,3.01-4.37c0.4-0.63,0.78-1.27,1.17-1.91c0.92-1.54,1.81-3.17,1.92-4.95
						c0.4-6.42-9.35-6.34-13.56-6.3c-0.56,0.01-1.12,0.09-1.66,0.05c3.09-4.09,18.71-19.8,21.45-24.26c3-4.89,6.14-10.2,4.88-15.94
						c-0.34-1.53-0.98-3.05-2.2-3.89c-1.67-1.14-3.97-0.75-6.01-0.15c-7.78,2.29-27.04,19.46-35.13,18.17
						c7.94-8.25,15.85-16.54,23.82-24.77c3.95-4.08,8.12-8,11.67-12.45c1.73-2.17,3.37-4.6,3.61-7.37
						c0.93-10.54-11.51-4.64-16.29-2.09c-4.77,2.54-9.46,5.24-14.05,8.1c-4.32,2.69-8.4,6.02-13.01,8.13
						c-2.27,1.04-6.18,2.83-8.53,1.05c-0.51-0.38-0.86-0.92-1.09-1.51c-1.93-5.05,20.09-33.8,14.47-36.23
						c-4.47-1.93-9.57,2.07-13.46,5.7c-9.73,9.06-41,38.12-52.31,44.78c-5.48,3.23-30.91,17.23-34.54,8.74
						c-0.76-1.78,2.38-5.25,1.75-7.19c-4.83-14.85,2.46-38.64,5.22-48.33c1.32-4.63-0.19-9.41-1.4-13.85
						c-1.58-5.8-4.91-16.6-9.58-9.77c-18.82,27.53-37.46,79.48-56.03,107.17c-9.4,14.01-11.38,38.31-11.37,55.79
						c0.01,14.87-8.92,29.77-8.91,44.64"/>
					<g>
						<g>
							<path class="st6" d="M63.17,469.17c1.26-0.37,2.53-0.74,3.82-1.11c1.24-0.41,2.45-0.9,3.68-1.32
								c1.23-0.4,2.42-0.95,3.64-1.42c1.21-0.49,2.43-0.93,3.64-1.47c1.21-0.5,2.43-1.01,3.65-1.52c1.21-0.52,2.43-1.04,3.66-1.57
								c2.45-1.01,4.89-2.11,7.35-3.15c9.79-4.23,19.51-8.57,28.02-12.86c8.55-4.27,17.05-8.46,25.83-12.45l1.65-0.74
								c0.31-0.13,0.47-0.23,0.68-0.34l0.61-0.31c0.83-0.38,1.58-0.89,2.35-1.35c1.49-1.02,2.93-2.08,4.32-3.44
								c2.81-2.62,5.58-6.1,9-9.88c2.87-3.19,6.23-6.57,10.17-9.44l1.49-1.06l0.73-0.51l0.65-0.43l2.62-1.72l5.21-3.32
								c6.89-4.36,13.62-8.46,19.24-12.97c2.8-2.25,5.3-4.61,7.39-7.11c0.5-0.63,1.06-1.24,1.49-1.9c0.46-0.66,0.91-1.24,1.45-2.06
								c1.01-1.55,2.12-3.05,3.01-4.64c0.5-0.83,0.78-1.39,0.83-1.56c0.01-0.03,0.01-0.03,0.01-0.04c0-0.01,0,0,0,0l0.52,0.19
								c0.3,0.11,0.62,0.21,0.89,0.3c0.23,0.08,0.54,0.15,0.73,0.21c0.2,0.06,0.44,0.1,0.59,0.14l0.47,0.08l0.35,0.04l0.08,0
								c0.3,0.02-0.38-0.02-0.3-0.02l0.03,0.01l0.06,0.01l0.24,0.03c0.32,0.03,0.66,0.01,1.01-0.06l0.13-0.03l0.05,0l0.1-0.01
								c0.07-0.01,0.15-0.02,0.22-0.05c0.07-0.02,0.17-0.06,0.23-0.09c-0.02,0.01-0.04,0.02-0.05,0.03
								c-0.01,0.01-0.02,0.02-0.02,0.02s0,0,0,0l-0.13,0.08c-0.17,0.12-0.3,0.25-0.4,0.38c-0.28,0.25-0.51,0.52-0.7,0.81l-0.13,0.22
								c-0.04,0.07-0.15,0.2-0.21,0.3c-0.15,0.21-0.29,0.43-0.41,0.65c-0.25,0.45-0.39,0.85-0.74,1.49l-0.21,0.45l-0.1,0.22
								c-0.03,0.08-0.01,0.02-0.01,0.04c0,0,0.01,0,0.01,0c-0.04-0.01-0.11-0.02-0.16-0.03l-0.08-0.03l-0.15-0.02l-0.3-0.06
								c-0.51-0.07-1.08-0.15-1.81-0.18c-0.7-0.04-1.48-0.05-2.34-0.04l-1.18,0.02c0.09-0.03-0.64,0.13-2.57,0.03l-19.18-0.98
								l11.9-15.15l0.96-1.23l0.82-0.98l1.56-1.81l3-3.35l1.47-1.72c0.64-0.78,1.25-1.51,1.74-2.24c0.43-0.77,0.79-1.53,0.82-2.3
								c0.01-0.42-0.1-0.85-0.35-1.2c-0.13-0.17-0.31-0.33-0.56-0.38c-0.25-0.05-0.52-0.01-0.77,0.07c-1.02,0.33-1.8,1.04-2.54,1.59
								l-1.97,1.57l-0.44,0.32l-0.21,0.15l-0.05,0.04c-0.1,0.05,0.24-0.1-0.08,0.05l-1.04,0.49c-1.45,0.65-3.02,1.29-4.97,1.84
								l-1.59,0.38c-0.59,0.11-1.23,0.21-1.84,0.29c-0.66,0.08-1.45,0.11-2.18,0.12c-0.8,0-1.74-0.09-2.6-0.19l-22.07-2.79
								l15.52-16.76l5.98-6.46l0.75-0.81l0.35-0.38l0.04-0.05l0.14-0.2l0.24-0.37c0.3-0.46,0.5-0.84,0.62-1.11
								c0.12-0.27,0.16-0.43,0.09-0.55c-0.03-0.06-0.11-0.12-0.26-0.16c-0.13-0.06-0.42-0.01-0.63,0.12
								c-0.86,0.54-1.18,0.97-1.29,1.12c-0.03,0.04-0.05,0.07-0.05,0.09l0,0l0,0l0,0v0c-0.14,0.05,0.3-0.1,0.18-0.06l-0.46,0.16
								c-0.3,0.11-0.62,0.21-0.97,0.32c-0.34,0.1-0.67,0.21-1.06,0.31c-1.5,0.38-3.27,0.76-5.69,0.76
								c-0.65-0.02-1.22-0.03-1.94-0.11c-0.73-0.1-1.37-0.18-2.17-0.38c-1.52-0.36-3.17-0.98-4.72-1.91
								c-1.46-0.83-3.26-2.31-4.42-3.81c-1.21-1.5-2.03-3.03-2.6-4.49l-0.17-0.45l-0.2-0.61c-0.12-0.41-0.23-0.82-0.33-1.24
								c-0.13-0.65-0.2-1.14-0.26-1.72l-0.02-0.16h0v0l0,0l0,0l0,0l-0.01,0l-0.01,0c0,0,0,0,0,0c0.03-0.02,0.07-0.07,0.13-0.14
								c0.06-0.07,0.17-0.22,0.17-0.32c0.02-0.19,0.02-0.26-0.13-0.27c-0.07,0-0.17,0.02-0.31,0.07l-0.24,0.1l-0.07,0.03
								c-0.03,0.02,0.01-0.02-0.06,0.04l-0.56,0.49l-2.25,1.94c-6.04,5.15-12.07,10.18-18.53,15.12l-2.5,1.85l-1.26,0.92l-1.35,0.94
								c-0.92,0.63-1.74,1.23-2.85,1.9c-1.04,0.65-2.14,1.33-3.04,1.81c-3.7,2.03-7.34,3.84-11.18,5.57
								c-0.96,0.43-1.93,0.85-2.91,1.26l-1.49,0.61l-2.25,0.88c-3.3,1.26-6.76,2.34-10.08,2.98c-3.33,0.63-6.56,0.81-9.47,0.33
								c-2.91-0.47-5.59-1.47-8-3.36c-1.2-0.9-2.26-2.18-2.96-3.25c-0.6-1.03-0.81-1.74-1.1-2.6c-0.31-0.82-0.39-1.86-0.73-3.35
								l-0.13-0.59l-0.13-0.67l-0.08-0.76c-0.01-0.26,0.08-0.53,0.11-0.8l0.57-3.21l0.28-1.6c0.09-0.53,0.25-1.11,0.08-1.49
								l-0.34-2.14c-0.09-0.63-0.2-1.27-0.27-1.9l-0.13-1.83l-0.12-1.83c-0.03-0.6-0.02-1.18-0.02-1.78c0-1.17-0.03-2.38,0.05-3.51
								c0.18-4.62,0.77-9.02,1.56-13.3c0.79-4.29,1.78-8.48,2.88-12.62c0.55-2.07,1.14-4.12,1.74-6.14c0.55-1.83,1.1-3.66,1.66-5.51
								c0.13-0.4,0.24-1.11,0.07-2.39c-0.15-1.25-0.53-2.9-1.07-4.93c-0.33-1.24-0.57-2.21-0.86-3.22
								c-0.28-0.98-0.57-1.92-0.87-2.74c-0.29-0.82-0.61-1.54-0.8-1.91l-0.08-0.15c0.03-0.03-0.13,0.08,0.25-0.2l0.71-0.49
								c0.45-0.31,0.93-0.75,1.3-1.02c1.6-1.32,2.59-2.55,2.93-3.27c0.37-0.75,0.05-0.8,0.35-0.06c0.27,0.71,1.21,2.02,2.72,3.35
								c0.39,0.36,0.8,0.7,1.22,1.01l0.72,0.58l0.29,0.23l0,0c0.05-0.1-0.17,0.24-0.31,0.45l-0.93,1.38l-1.86,2.77
								c-0.62,0.93-1.19,1.92-1.79,2.88c-4.76,7.72-9.15,15.99-13.43,24.37c-8.56,16.8-16.57,34.18-25.69,51.35
								c-1.15,2.15-2.42,4.55-3.94,7.13c-0.75,1.29-1.52,2.63-2.32,4.01c-0.85,1.37-1.72,2.77-2.62,4.21
								c-0.87,1.44-1.87,2.89-2.88,4.37c-0.92,1.36-1.86,2.74-2.81,4.14c-1.56,2.34-2.99,5.07-4.16,8.05
								c-1.19,2.95-2.23,6.06-3.07,9.22c-0.88,3.14-1.57,6.32-2.17,9.39c-1.19,6.15-1.98,11.9-2.6,16.54
								c-0.31,2.32-0.56,4.59-0.78,6.82c-0.13,1.16-0.27,2.46-0.45,3.64c-0.24,1.18-0.41,2.37-0.71,3.5
								c-1.09,4.55-2.65,8.65-4.35,12.61c-1.7,3.97-3.57,7.78-5.39,11.83c-1.81,4.05-3.62,8.32-4.86,13.44
								c-0.6-5.13-0.2-10.31,0.55-15.23c0.76-4.92,1.83-9.65,2.7-14.2c0.85-4.53,1.48-8.9,1.46-12.93l-0.33-6.82
								c-0.1-2.47-0.15-4.94-0.15-7.42c0.04-9.93,0.77-19.99,3.28-30.24c1.29-5.12,3.01-10.3,5.75-15.42l1.12-1.91l1.08-1.79
								l1.75-2.86c1.19-1.86,2.29-3.88,3.42-5.85c4.46-7.97,8.54-16.4,12.54-24.93c4-8.54,7.89-17.22,11.88-25.94
								c3.99-8.72,8.06-17.49,12.51-26.23l1.67-3.28l1.76-3.28l1.76-3.28l1.89-3.27c0.64-1.09,1.24-2.18,1.9-3.27l2.06-3.26
								l1.03-1.63l0.26-0.41l0.13-0.2l0.07-0.11l0.13-0.19c0.38-0.52,0.68-0.97,1.21-1.57c0.26-0.29,0.45-0.53,0.78-0.86
								c0.32-0.32,0.65-0.63,0.99-0.93c0.81-0.68,1.69-1.35,3.02-2.02c1.27-0.65,3.03-1.22,4.95-1.35c0.95-0.06,1.97-0.01,2.9,0.13
								c0.45,0.08,0.91,0.18,1.35,0.29l0.66,0.19l0.57,0.21c2.8,1.11,4.29,2.54,5.37,3.64c1.03,1.1,1.69,2.06,2.27,2.93
								c1.06,1.7,1.73,3.13,2.3,4.46c1.11,2.65,1.85,5.01,2.52,7.27l0.91,3.17c0.32,1.13,0.65,2.37,0.94,3.74
								c0.58,2.72,1.07,6.06,0.64,9.9c-0.16,1.83-0.83,4.23-1.02,4.88l-0.83,3.05c-0.53,1.99-1.05,3.96-1.52,5.91
								c-0.95,3.9-1.76,7.76-2.35,11.55c-0.6,3.78-0.97,7.51-0.98,10.96c-0.02,0.87,0.05,1.68,0.06,2.52
								c0.01,0.84,0.15,1.57,0.21,2.36c0.02,0.4,0.1,0.75,0.17,1.09l0.16,0.88c0.01,0.11,0.02,0.13,0.03,0.16l0.03,0.09l0.06,0.17
								c0.09,0.24-0.09,0.43-0.12,0.63c-0.05,0.23,0.25,0.38,0.47,0.37c0.48-0.01,0.9-0.21,1.27-0.38l0.14-0.07l0.32-0.15l1.17-0.52
								l1.29-0.59c1.72-0.81,3.46-1.68,5.18-2.58c1.72-0.91,3.45-1.86,5.1-2.83c0.39-0.23,0.85-0.49,1.14-0.69l0.94-0.63l0.47-0.31
								l0.55-0.4l1.1-0.8c2.99-2.24,6.15-4.81,9.28-7.47c3.13-2.65,6.26-5.39,9.37-8.17l4.67-4.2l4.34-3.93l4.61-4.21l9.24-8.55
								l4.63-4.29l1.16-1.07l0.58-0.54c0.2-0.19,0.39-0.36,0.56-0.47l2.16-1.59l2.16-1.6l1.08-0.8l0.27-0.2l0.23-0.12l0.45-0.23
								l3.62-1.79c1.05-0.39,1.99-0.65,2.99-0.97l0.37-0.12l0.31-0.06l0.62-0.12l1.24-0.24c1.53-0.22,2.93-0.27,4.49-0.16
								c0.77,0.07,1.59,0.19,2.48,0.39c0.89,0.21,1.81,0.55,2.94,0.91c1.04,0.44,2.15,1.06,3.21,1.84c1.1,0.86,1.63,1.45,2.06,1.94
								c0.84,0.97,1.33,1.76,1.84,2.63c0.25,0.43,0.46,0.9,0.67,1.39c0.22,0.49,0.43,1.01,0.6,1.61c0.35,1.19,0.67,2.58,0.68,4.55
								c0.01,1.43-0.19,3.24-0.79,5.49c-0.64,2.29-1.76,5.09-3.34,8.26c-1.56,3.16-3.49,6.59-5.44,10.05l-2.9,5.2l-1.38,2.58
								l-0.32,0.63c-0.03,0.05-0.05,0.11-0.09,0.15l-0.34-0.25l-0.68-0.51l-0.34-0.25c-22.45,4.57-6.26,1.27-11.29,2.29l-0.06,0.01
								c-0.08,0.02-0.17,0.04-0.25,0.07l-0.06,0.03c-2.34,0.89,3.11-1.18,2.54-0.97l-0.06,0.02l-0.12,0.05
								c-0.31,0.14-0.61,0.33-0.77,0.49l-0.1,0.1l-0.03,0.04l-0.01,0.02l-0.01,0.01l0.37-0.49c0.02-0.03,0-0.01,0.03-0.05
								c0.14-0.22,0.46-1.21,0.39-2.86c-0.04-1.63-0.43-3.94-1.24-6.79c0.01-0.01,0.03-0.01,0.05-0.01l0.12-0.04l0.26-0.1l0.13-0.06
								l0.26-0.11l0.52-0.22c0.34-0.15,0.68-0.33,1.02-0.49c2.69-1.37,5.4-3.41,8.15-5.22c2.74-1.84,5.42-3.42,7.95-4.92
								c2.54-1.49,4.93-2.84,7.24-4.09c2.31-1.25,4.59-2.45,6.76-3.39c4.35-1.92,7.92-2.8,10.76-3.09c2.87-0.29,4.96-0.06,6.84,0.35
								c1.91,0.44,3.62,1.07,5.59,2.28c0.98,0.62,2.09,1.44,3.31,2.74c1.22,1.32,2.24,2.92,2.85,4.34c0.65,1.45,1.05,2.89,1.24,4.07
								c0.2,1.2,0.26,2.21,0.25,3.16c-0.02,1.89-0.26,3.79-0.8,5.99c-0.6,2.21-1.5,4.76-3.63,8.14c-1.05,1.68-2.53,3.58-4.23,5.55
								c-1.69,1.96-3.62,4.01-5.64,6.04c-2.02,2.04-4.1,4.07-6.07,6.08l-5.91,6.04c-3.56,3.64-7.13,7.28-10.7,10.92
								c-2.05,2.07-4.11,4.14-6.17,6.21l-7.84-13.28c0.13-0.58,0.14-1.06,0.13-1.69c0.02-0.37,0.02-0.74-0.01-1.1
								c-0.01-0.18-0.03-0.36-0.05-0.54c-0.02-0.17-0.05-0.34-0.06-0.59c-0.06-0.93-0.21-1.78-0.42-2.7
								c-0.07-0.39-0.03-0.22-0.03-0.26l0.02,0c0.01,0,0.03,0,0.04,0c0.25-0.05,0.84-0.24,1.5-0.5l0.54-0.23l0.07-0.03l0.14-0.06
								l0.46-0.23l0.73-0.38c0.98-0.49,1.94-1.04,2.9-1.6c1.92-1.12,3.82-2.34,5.74-3.57c3.81-2.46,7.68-5.04,11.28-7.04
								c0.9-0.51,1.75-0.9,2.62-1.36c0.81-0.34,1.65-0.74,2.42-1.03c1.52-0.54,2.96-0.98,4.21-1.23c2.58-0.57,4.63-0.67,6.5-0.59
								c0.94,0.05,1.83,0.14,2.75,0.31c0.91,0.17,1.92,0.46,2.93,0.86c1.01,0.41,2.1,0.97,3.24,1.86c1.15,0.89,2.22,2.09,3.01,3.3
								c1.6,2.44,2.44,5.15,2.83,7.68c0.55,4.18,0.19,7.97-1.33,12.75c-0.8,2.32-1.8,4.51-3.21,6.99c-0.3,0.59-0.74,1.25-1.11,1.88
								c-0.4,0.64-0.73,1.25-1.2,1.92c-0.91,1.33-1.69,2.64-2.9,4.02l-1.37,1.69c-0.46,0.56-0.99,1.13-1.48,1.69
								c-1,1.13-2,2.26-3.05,3.39l-6.19,6.66l-4.02,4.32l-1.56,1.72l-0.68,0.78l-0.45,0.54l-8.49-10.17
								c0.04-0.49,0.06-1.1,0.06-2.31l-0.02-1.08l-0.04-1.51l-0.09-2.29c-0.02-0.39-0.01-0.14-0.01-0.21l0,0h0.01l0.94-0.04
								l1.03-0.01l0.83,0c1.13,0,2.36,0.04,3.65,0.13c1.29,0.09,2.67,0.24,4.16,0.52c0.74,0.13,1.56,0.33,2.36,0.54
								c0.89,0.28,1.68,0.49,2.69,0.94c0.49,0.22,0.92,0.38,1.46,0.67c0.54,0.29,1.07,0.6,1.58,0.92c0.25,0.14,0.53,0.35,0.82,0.57
								c0.29,0.22,0.57,0.44,0.84,0.67c0.28,0.23,0.55,0.47,0.81,0.71c0.27,0.26,0.56,0.58,0.83,0.89c0.54,0.64,1.06,1.24,1.51,1.98
								c0.45,0.75,0.86,1.53,1.21,2.33c0.35,0.79,0.55,1.59,0.76,2.42c0.1,0.41,0.18,0.82,0.26,1.23c0.05,0.38,0.07,0.73,0.1,1.1
								c0.27,3.04-0.39,5.6-1.11,7.54c-0.74,1.94-1.55,3.32-2.16,4.35c-0.6,0.96-1.13,1.88-1.74,2.77l-1.84,2.65
								c-0.62,0.89-1.19,1.73-1.96,2.74c-0.73,0.97-1.45,1.96-2.24,2.85c-3.09,3.69-6.53,6.86-10.02,9.64
								c-7.01,5.55-14.14,9.68-20.84,13.73c-3.36,2.02-6.64,4-9.81,6.02c-2.62,1.65-4.88,3.57-7.32,6.02
								c-2.93,2.92-6.03,6.64-10.12,10.48c-2.04,1.92-4.41,3.79-6.96,5.48c-1.33,0.8-2.62,1.62-4.04,2.28
								c-0.7,0.33-1.38,0.71-2.1,0.99l-2.15,0.84c-0.78,0.31-1.28,0.47-1.85,0.66l-1.67,0.56l-3.37,1.13l-6.81,2.23
								c-4.56,1.47-9.16,2.89-13.79,4.24c-9.26,2.66-20.16,6.32-31.37,9.26c-2.83,0.69-5.62,1.42-8.47,1.98
								c-1.42,0.28-2.83,0.56-4.23,0.84c-1.43,0.22-2.84,0.43-4.24,0.64C73.98,469.78,68.44,470.17,63.17,469.17z"/>
						</g>
					</g>
				</g>
				<path class="st7" d="M140.49,343.08c16.55-4.63,46.77-33.33,60.07-46.23c4.81-4.67,9.49-9.6,15.05-13.2
					c5.55-3.59,12.23-5.74,18.19-4.15c5.96,1.59,10.69,7.7,9.58,14.29"/>
				<path class="st7" d="M161.6,366.02c33.25-14.57,46.73-31.2,60.13-43.68c3.82-3.56,7.85-7.43,12.73-8.35
					c6.96-1.3,13.63,5.17,12.9,12.52"/>
				<path class="st7" d="M180.2,394.88c18.63-6.16,36.67-16.44,48.2-32.37"/>
				<path class="st7" d="M106.4,321.29c0,0,0.47-34.77,4.35-43.62c11.01-25.09-15.81-39.58-19.77-38.99
					c-1.97,0.29-6.52,10.94-7.09,12.39c-2,5.01-4.09,9.91-6.5,14.71c-3.05,6.08-7.39,11.38-10.8,17.26
					c-3.87,6.69-4.96,14.02-7.59,21.17c-3.27,8.88-9.49,16.38-13.15,25.14c-3.94,9.42-13.69,20.84-16.52,30.63
					c-4.24,14.7-7.89,29.63-10.31,44.74c-0.21,1.29-0.4,2.57-0.58,3.86"/>
				<path class="st7" d="M89.77,322.69c4.43,5.37,8.91,3.75,12.21,2.77c17.61-5.21,31.48-15.38,46.12-27.56
					c5.73-4.77,31.25-32.6,37.93-35.47c6.69-2.87,15.03-2.58,19.26,2.93"/>
			</g>
			<path class="st26" d="M201.49,277.24c0,0-4.15-8.81-10.42-2.44c-6.27,6.37-4.18,10.88,3.05,15.04"/>
			<path class="st26" d="M235.73,296.04c0,0-3.09-9.23-10.06-3.65c-6.97,5.59-5.42,10.32,1.27,15.3"/>
			<path class="st26" d="M247.55,327.44c0,0-3.67-9.02-10.27-3s-4.76,10.64,2.24,15.19"/>
		</g>
	</g>
	<g>
		<g>
			<circle class="st19" cx="39.64" cy="38.55" r="27.3"/>
		</g>
	</g>
	<g>
		<g>
			<path class="st17" d="M28.27,42.67c1.19-2.71,8.76-17.18,9.69-18.81c1.26-0.15,5.64-0.15,8.28,0c0.11,1.04,0.11,10.84,0.11,18.78
				l3.67,0.04c0.11,1.3,0.07,4.04,0,5.57l-3.71,0.04c-0.04,2.52-0.04,4.3-0.07,4.75c-1.04,0.15-4.38,0.15-5.83,0
				c-0.04-0.71-0.04-2.49-0.04-4.75c-5.38,0-11.13,0-12.1-0.04C28.16,46.6,28.16,44.82,28.27,42.67z M40.37,42.63
				c0.04-4.94,0.07-10.09,0.11-11.73c-0.82,2.12-4.68,9.5-5.79,11.76L40.37,42.63z"/>
			<path class="st28" d="M43.46,53.58c-1.16,0-2.37-0.04-3.1-0.11l-0.38-0.04l-0.02-0.38c-0.04-0.67-0.04-2.27-0.04-4.33
				c-5.34,0-10.72,0-11.67-0.04l-0.4-0.02l-0.03-0.4c-0.11-1.66-0.11-3.44,0-5.62l0.04-0.16c1.2-2.73,8.74-17.15,9.71-18.86
				l0.11-0.2l0.22-0.03c1.29-0.15,5.67-0.15,8.35,0l0.38,0.02l0.04,0.38c0.11,1.04,0.11,10.17,0.11,18.38l3.64,0.04l0.04,0.4
				c0.11,1.34,0.07,4.13,0,5.63l-0.02,0.42l-3.7,0.04c-0.01,0.75-0.02,1.42-0.02,2c-0.01,1.23-0.02,2.05-0.05,2.35l-0.03,0.35
				l-0.35,0.05C45.76,53.54,44.63,53.58,43.46,53.58z M40.84,52.61c1.38,0.1,3.81,0.1,4.97,0.01c0.01-0.41,0.02-1.08,0.03-1.92
				c0.01-0.69,0.02-1.52,0.03-2.44l0.01-0.43l3.72-0.04c0.05-1.37,0.08-3.42,0.01-4.69l-3.7-0.04v-0.44c0-7.3,0-16.24-0.09-18.35
				c-2.48-0.12-6.19-0.12-7.58,0c-1.31,2.38-8.27,15.7-9.52,18.5c-0.1,1.93-0.11,3.54-0.02,5.03c1.67,0.03,6.96,0.03,11.68,0.03
				h0.44v0.44C40.81,50.19,40.81,51.76,40.84,52.61z M33.97,43.12l0.32-0.65c0.31-0.63,0.84-1.66,1.45-2.87
				c1.58-3.1,3.74-7.36,4.32-8.86l0.92-2.38l-0.06,2.55c-0.03,1.53-0.07,6.26-0.1,10.84l-0.01,1.32L33.97,43.12z M40,33.06
				c-0.94,1.99-2.35,4.75-3.47,6.95c-0.43,0.85-0.82,1.61-1.12,2.21l4.52-0.03l0-0.44C39.95,38.55,39.98,35.27,40,33.06z"/>
		</g>
	</g>
</g>
</svg>
