<?xml version="1.0" encoding="utf-8"?>
<!-- Generator: Adobe Illustrator 25.4.1, SVG Export Plug-In . SVG Version: 6.00 Build 0)  -->
<svg version="1.1" xmlns="http://www.w3.org/2000/svg" xmlns:xlink="http://www.w3.org/1999/xlink" x="0px" y="0px"
	 viewBox="0 0 500 406" style="enable-background:new 0 0 500 406;" xml:space="preserve">
<style type="text/css">
	.st0{clip-path:url(#SVGID_00000152261925288824125470000015063619207978562978_);}
	.st1{fill:#FFCD00;stroke:#FFCE01;stroke-width:0.8895;stroke-miterlimit:10;}
	.st2{fill:#FFFFFF;stroke:#B1C8E5;stroke-width:10;stroke-miterlimit:10;}
	.st3{fill:#FFFFFF;}
	.st4{clip-path:url(#SVGID_00000173865340114820705770000000088690342522624135_);}
	.st5{fill:none;}
	.st6{fill:#FFE0CF;}
	.st7{fill:none;stroke:#FFBDA6;stroke-width:10;stroke-linecap:round;stroke-linejoin:round;stroke-miterlimit:10;}
	.st8{fill:#FFE0CF;stroke:#FFBDA6;stroke-width:10;stroke-linecap:round;stroke-linejoin:round;stroke-miterlimit:10;}
	.st9{fill:#154734;stroke:#154734;stroke-width:0.5219;stroke-miterlimit:10;}
	.st10{clip-path:url(#SVGID_00000068643815037200047290000013812199335671201206_);}
	.st11{fill:#6CC49A;}
	.st12{fill:#154734;stroke:#154734;stroke-width:17.4509;stroke-miterlimit:10;}
	.st13{fill:#0A2117;}
	.st14{fill:#3F4A54;}
	.st15{fill:none;stroke:#216345;stroke-width:17.4509;stroke-linecap:round;stroke-linejoin:round;stroke-miterlimit:10;}
	.st16{fill:none;stroke:#466E5F;stroke-width:2.9085;stroke-miterlimit:10;}
	.st17{fill:#FFCD00;}
	.st18{fill:#FFCD00;stroke:#FFCD00;stroke-width:5.817;stroke-linecap:round;stroke-linejoin:round;stroke-miterlimit:10;}
	.st19{fill:#154734;}
	.st20{fill:none;stroke:#CBEADB;stroke-width:5.817;stroke-linecap:round;stroke-linejoin:round;stroke-miterlimit:10;}
	.st21{fill:none;stroke:#6CC49A;stroke-width:29.1516;stroke-linecap:round;stroke-linejoin:round;stroke-miterlimit:10;}
	.st22{fill:#B0BFD6;}
	.st23{fill:#8595AA;}
	.st24{fill:#6A7989;}
	.st25{fill:none;stroke:#CAD5E0;stroke-width:14.6867;stroke-linecap:round;stroke-linejoin:round;stroke-miterlimit:10;}
	.st26{fill:#FFE0CF;stroke:#FFBDA6;stroke-width:7.5858;stroke-linecap:round;stroke-linejoin:round;stroke-miterlimit:10;}
	.st27{fill:none;stroke:#FFBDA6;stroke-width:6.2177;stroke-linecap:round;stroke-linejoin:round;stroke-miterlimit:10;}
	.st28{fill:#FFCE01;}
	.st29{clip-path:url(#SVGID_00000132770884803371510260000014358367245167944856_);}
	.st30{clip-path:url(#SVGID_00000038415702176053173220000017413961916945779355_);}
	.st31{clip-path:url(#SVGID_00000035505818831249655650000012155148850336771719_);}
	.st32{fill:none;stroke:#8A9AB2;stroke-width:15;stroke-miterlimit:10;}
	.st33{fill:none;stroke:#8A9AB2;stroke-width:12;stroke-miterlimit:10;}
	.st34{fill:none;stroke:#8A9AB2;stroke-width:10;stroke-miterlimit:10;}
	.st35{fill:none;stroke:#8A9AB2;stroke-width:7;stroke-miterlimit:10;}
	.st36{fill:none;stroke:#8A9AB2;stroke-width:5;stroke-miterlimit:10;}
	.st37{fill:none;stroke:#8A9AB2;stroke-width:4;stroke-miterlimit:10;}
	.st38{fill:#D2E4FF;}
	.st39{fill:#8A9AB2;}
	.st40{fill:#637082;stroke:#637082;stroke-width:0.7824;stroke-miterlimit:10;}
	.st41{fill:#637082;}
	.st42{fill:#FFFFFF;stroke:#FFFFFF;stroke-width:3.7482;stroke-miterlimit:10;}
	.st43{fill:#B1E2EF;}
	.st44{fill:none;stroke:#FFFFFF;stroke-width:0.5;stroke-linecap:round;stroke-linejoin:round;stroke-miterlimit:10;}
	.st45{opacity:0.45;fill:#FFFFFF;stroke:#FFFFFF;stroke-width:3.7482;stroke-miterlimit:10;}
	.st46{fill:#FFFFFF;stroke:#FFFFFF;stroke-width:1.2245;stroke-linecap:round;stroke-linejoin:round;stroke-miterlimit:10;}
	.st47{fill:none;stroke:#FFFFFF;stroke-width:10;stroke-miterlimit:10;}
	.st48{clip-path:url(#SVGID_00000150815972906266960240000011431234733106036360_);}
	.st49{fill:#B1C8E5;stroke:#FFFFFF;stroke-width:10;stroke-miterlimit:10;}
	.st50{fill:#F8FBFF;}
	.st51{fill:#154734;stroke:#154734;stroke-width:11.4666;stroke-miterlimit:10;}
	.st52{fill:none;stroke:#466E5F;stroke-width:1.9111;stroke-miterlimit:10;}
	.st53{fill:#FFCD00;stroke:#FFCD00;stroke-width:3.8222;stroke-linecap:round;stroke-linejoin:round;stroke-miterlimit:10;}
	.st54{fill:none;stroke:#216345;stroke-width:11.4666;stroke-linecap:round;stroke-linejoin:round;stroke-miterlimit:10;}
	.st55{fill:none;stroke:#CBEADB;stroke-width:3.8222;stroke-linecap:round;stroke-linejoin:round;stroke-miterlimit:10;}
	.st56{fill:none;stroke:#6CC49A;stroke-width:19.2499;stroke-linecap:round;stroke-linejoin:round;stroke-miterlimit:10;}
	.st57{fill:#216345;stroke:#216345;stroke-width:21.0221;stroke-linecap:round;stroke-linejoin:round;stroke-miterlimit:10;}
	.st58{fill:none;stroke:#6CC49A;stroke-width:28.6664;stroke-linecap:round;stroke-linejoin:round;stroke-miterlimit:10;}
	.st59{fill:#154734;stroke:#154734;stroke-width:1.8259;stroke-miterlimit:10;}
	.st60{fill:none;stroke:#466E5F;stroke-width:2.3505;stroke-miterlimit:10;}
</style>
<g id="레이어_2">
</g>
<g id="레이어_1">
</g>
<g id="레이어_5">
</g>
<g id="레이어_6">
	<g>
		<defs>
			<rect id="SVGID_00000169550468447252277640000010923228684234926233_" x="0" y="0" width="500" height="406.51"/>
		</defs>
		<clipPath id="SVGID_00000101071519852200969010000012706502192714474928_">
			<use xlink:href="#SVGID_00000169550468447252277640000010923228684234926233_"  style="overflow:visible;"/>
		</clipPath>
		<g style="clip-path:url(#SVGID_00000101071519852200969010000012706502192714474928_);">
			<rect x="0" y="0" class="st1" width="500" height="406.51"/>
			<g>
				<defs>
					<path id="SVGID_00000131336352953476396910000001030167434349491086_" d="M330.25,29.84H168.78
						c-78.41,0-141.97,63.56-141.97,141.97v0c0,78.41,63.56,141.97,141.97,141.97h161.48c78.41,0,141.97-63.56,141.97-141.97v0
						C472.22,93.41,408.66,29.84,330.25,29.84z"/>
				</defs>
				<clipPath id="SVGID_00000177474392535537013690000018396069267892669836_">
					<use xlink:href="#SVGID_00000131336352953476396910000001030167434349491086_"  style="overflow:visible;"/>
				</clipPath>
				<g style="clip-path:url(#SVGID_00000177474392535537013690000018396069267892669836_);">
					<path class="st19" d="M330.25,29.84H168.78c-78.41,0-141.97,63.56-141.97,141.97v0c0,78.41,63.56,141.97,141.97,141.97h161.48
						c78.41,0,141.97-63.56,141.97-141.97v0C472.22,93.41,408.66,29.84,330.25,29.84z"/>
					<g>
						<line class="st32" x1="18.89" y1="186.06" x2="474.5" y2="186.06"/>
						<line class="st33" x1="18.89" y1="166.53" x2="474.5" y2="166.53"/>
						<line class="st34" x1="18.89" y1="148.03" x2="474.5" y2="148.03"/>
						<line class="st35" x1="18.89" y1="132.1" x2="474.5" y2="132.1"/>
						<line class="st36" x1="18.89" y1="116.86" x2="474.5" y2="116.86"/>
						<line class="st37" x1="18.89" y1="103.96" x2="474.5" y2="103.96"/>
					</g>
					<g>
						<line class="st32" x1="18.89" y1="66.32" x2="474.5" y2="66.32"/>
						<line class="st33" x1="18.89" y1="46.79" x2="474.5" y2="46.79"/>
						<line class="st34" x1="18.89" y1="28.29" x2="474.5" y2="28.29"/>
						<line class="st35" x1="18.89" y1="12.36" x2="474.5" y2="12.36"/>
					</g>
					<g>
						<path class="st38" d="M209.92,115.17l-143.87,1.17c-8.84,0.07-15.13,11.3-12.62,22.51l7.42,33.08
							c1.69,7.54,6.96,12.71,12.9,12.66l129.57-1.05c5.95-0.05,11.13-5.3,12.7-12.87l6.88-33.19
							C225.23,126.23,218.76,115.1,209.92,115.17z"/>
						<path class="st39" d="M66.05,117.6l143.87-1.17c8.84-0.07,15.32,11.05,12.98,22.3l-1.6,7.7c-1.21,0.43-2.48,0.68-3.81,0.69
							l-160.13,1.3c-0.72,0.01-1.43-0.06-2.13-0.19l-1.82-8.12C50.92,128.9,57.21,117.67,66.05,117.6z"/>
						<path class="st40" d="M59.92,145.27L216.51,144c9.62-0.08,16.5-9.34,13.78-18.57l-8-27.23c-1.82-6.21-7.55-10.46-14.02-10.4
							L67.24,88.93c-6.47,0.05-12.12,4.39-13.85,10.63l-7.56,27.36C43.27,136.2,50.3,145.35,59.92,145.27z"/>
						<path class="st38" d="M59.9,142.64l156.59-1.27c9.62-0.08,16.5-9.34,13.78-18.57l-8-27.23c-1.82-6.21-7.55-10.46-14.02-10.4
							L67.22,86.31c-6.47,0.05-12.12,4.39-13.85,10.63l-7.56,27.36C43.25,133.57,50.27,142.72,59.9,142.64z"/>
						<path class="st39" d="M69.49,135.57l137.3-1.11c8.44-0.07,14.47-7.33,12.1-14.57l-7-21.34c-1.6-4.87-6.61-8.19-12.28-8.14
							l-123.65,1c-5.67,0.05-10.63,3.45-12.15,8.34l-6.65,21.45C54.9,128.47,61.05,135.64,69.49,135.57z"/>
						<g>
							<g>
								<g>
									<path class="st41" d="M203.64,93.68c0.9,0.87,0.95,1.89,1.23,2.72c0.28,0.84,0.35,1.66,0.29,2.45
										c-0.14,1.59-0.28,3.17-0.46,4.74c-0.35,3.15-0.43,6.16-1.02,9.27c-0.63,3.11-1.46,5.56-2.3,8.63
										c-0.41,1.53-0.86,3.06-1.32,4.59c-0.23,0.77-0.82,2.25-1.37,2.94c-0.53,0.68-0.88,1.26-1.95,1.72
										c-0.23-0.89-0.28-1.67-0.29-2.48c0.01-0.79,0.08-1.58,0.22-2.34c0.26-1.54,0.5-3.09,0.72-4.64
										c0.45-3.12,0.89-6.22,1.34-9.33c0.48-3.1,1.4-5.82,1.98-8.91l0.86-4.62c0.13-0.77,0.4-1.52,0.78-2.25
										C202.74,95.44,202.81,94.38,203.64,93.68z"/>
								</g>
							</g>
						</g>
						<g>
							<g>
								<g>
									<path class="st41" d="M71.64,94.73c0.63,0.46,0.98,0.87,1.28,1.29c0.29,0.42,0.49,0.84,0.76,1.21
										c0.54,0.74,0.85,1.49,0.97,2.25c0.26,1.53,0.52,3.07,0.78,4.6c0.53,3.07,1.42,5.91,1.78,8.99
										c0.34,3.08,0.21,5.64,0.44,8.73c0.13,1.54,0.23,3.09,0.4,4.61c0.07,0.77,0.1,2.28-0.14,3.12
										c-0.11,0.41-0.17,0.78-0.32,1.19c-0.12,0.38-0.3,0.8-0.58,1.53c-0.44-0.22-0.94-0.63-1.25-0.98
										c-0.31-0.34-0.58-0.71-0.82-1.09c-0.46-0.74-0.76-1.51-0.99-2.3c-0.44-1.56-0.84-3.11-1.22-4.66
										c-0.77-3.1-1.34-6.21-1.93-9.32c-0.5-3.12-0.27-6.02-0.51-9.17c-0.12-1.58-0.19-3.16-0.26-4.75
										c-0.04-0.79,0.1-1.61,0.41-2.43c0.17-0.41,0.22-0.9,0.35-1.39C70.91,95.68,71.16,95.1,71.64,94.73z"/>
								</g>
							</g>
						</g>
						<g>
							<g>
								<g>
									<path class="st3" d="M214.18,152.23c0.95,1.64,0.73,3.43,0.84,4.94c0.09,1.52-0.09,2.99-0.5,4.39
										c-0.82,2.81-1.75,5.54-2.94,8.28c-0.62,1.39-1.34,2.85-2.42,4.22c-1.08,1.38-2.43,2.51-3.87,3.37
										c-2.89,1.73-5.99,2.47-8.98,2.83c-5.91,0.6-10.59,0.15-16.29-0.14c-2.83-0.17-5.66-0.34-8.49-0.51
										c-1.41-0.08-4.21-0.43-5.62-0.9c-1.41-0.47-2.51-0.69-3.92-1.86c1.42-0.6,2.84-0.93,4.26-1.17
										c1.42-0.24,2.83-0.35,4.25-0.39l8.49-0.27c5.63-0.21,11.21-0.37,16.54-1.19c2.6-0.37,4.93-0.78,6.85-1.64
										c0.95-0.44,1.81-0.96,2.51-1.66c0.71-0.7,1.36-1.65,1.94-2.79c1.17-2.37,2.29-4.93,3.22-7.49
										c0.47-1.28,1.05-2.53,1.77-3.76C212.56,155.27,212.94,153.4,214.18,152.23z"/>
								</g>
							</g>
						</g>
						<g>
							<g>
								<g>
									<path class="st3" d="M80.17,151.21c-0.31,1.28-0.79,1.53-1.15,2.05c-0.37,0.51-0.75,0.78-1.14,0.86
										c-0.78,0.15-1.57,0.33-2.36,0.44c-1.58,0.25-3.07,0.82-4.66,0.78c-1.59-0.09-2.87-0.58-4.44-0.92
										c-0.79-0.16-1.57-0.36-2.35-0.55c-0.39-0.09-1.15-0.46-1.51-0.94c-0.36-0.48-0.65-0.72-0.94-1.89
										c0.43-0.58,0.84-0.89,1.24-1.12c0.4-0.23,0.79-0.33,1.17-0.35l2.3-0.22c1.53-0.19,3.06-0.28,4.58-0.45
										c1.52-0.09,2.89,0.46,4.42,0.51c0.76,0.01,1.53,0.07,2.29,0.1c0.38,0.01,0.77,0.18,1.17,0.53
										C79.2,150.38,79.72,150.27,80.17,151.21z"/>
								</g>
							</g>
						</g>
						<polygon class="st3" points="163.32,141.78 190.07,141.56 202.21,134.54 175.45,134.76 						"/>
						<polygon class="st3" points="127.53,142.07 139.71,141.97 151.85,134.95 139.67,135.05 						"/>
						<polygon class="st3" points="101.51,142.28 120.38,142.12 132.52,135.11 113.64,135.26 						"/>
						<g>
							<g>
								<g>
									<path class="st3" d="M96.11,180.76c0.02-1.59,0.84-2.47,1.3-3.45c0.47-0.97,1.08-1.75,1.8-2.37
										c1.44-1.26,2.89-2.52,4.33-3.78c2.89-2.52,5.35-5.19,8.32-7.57c3-2.36,5.68-3.98,8.77-6.24c1.54-1.13,3.09-2.27,4.63-3.41
										c0.77-0.57,2.4-1.58,3.42-1.87c1.02-0.29,1.72-0.63,3.2-0.41c-0.31,1.1-0.81,1.99-1.36,2.82c-0.56,0.83-1.2,1.55-1.89,2.23
										l-4.16,4.04c-2.77,2.7-5.66,5.27-8.54,7.85c-2.93,2.52-6.02,4.25-9.11,6.56c-1.54,1.16-3.12,2.27-4.69,3.39
										c-0.79,0.56-1.67,0.99-2.66,1.28C98.49,180.1,97.46,180.96,96.11,180.76z"/>
								</g>
							</g>
						</g>
						<g>
							<g>
								<g>
									<path class="st3" d="M110.33,149.7c0.13,1.6-0.63,2.61-1.02,3.66c-0.41,1.04-0.97,1.91-1.68,2.63
										c-1.41,1.44-2.8,2.89-4.25,4.29c-2.87,2.82-5.38,5.71-8.48,8.28c-3.14,2.53-5.96,4.23-9.28,6.51
										c-1.65,1.15-3.34,2.26-5.02,3.37c-0.83,0.56-2.61,1.51-3.69,1.75c-1.07,0.24-1.83,0.54-3.31,0.21
										c0.43-1.09,1.02-1.96,1.67-2.76c0.64-0.81,1.36-1.5,2.11-2.15l4.49-3.93c2.96-2.66,5.96-5.27,8.88-7.95
										c2.97-2.63,6.06-4.53,9.09-7.1l4.55-3.85c0.75-0.64,1.61-1.18,2.59-1.59C107.98,150.67,108.93,149.67,110.33,149.7z"/>
								</g>
							</g>
						</g>
					</g>
					<g>
						<path class="st38" d="M209.92-4.14L66.04-2.98C57.2-2.9,50.91,8.32,53.42,19.54l7.42,33.08c1.69,7.54,6.96,12.71,12.9,12.66
							l129.57-1.05c5.95-0.05,11.13-5.3,12.7-12.87l6.88-33.19C225.23,6.91,218.76-4.21,209.92-4.14z"/>
						<path class="st39" d="M66.05-1.72l143.87-1.17c8.84-0.07,15.32,11.05,12.98,22.3l-1.6,7.7c-1.21,0.43-2.48,0.68-3.81,0.69
							L57.38,29.1c-0.72,0.01-1.43-0.06-2.13-0.19l-1.82-8.12C50.92,9.58,57.21-1.64,66.05-1.72z"/>
						<path class="st40" d="M59.92,25.95l156.59-1.27c9.62-0.08,16.5-9.34,13.78-18.57l-8-27.23c-1.82-6.21-7.55-10.46-14.02-10.4
							L67.24-30.38c-6.47,0.05-12.12,4.39-13.85,10.63L45.84,7.61C43.27,16.88,50.3,26.03,59.92,25.95z"/>
						<path class="st38" d="M59.9,23.33l156.59-1.27c9.62-0.08,16.5-9.34,13.78-18.57l-8-27.23c-1.82-6.21-7.55-10.46-14.02-10.4
							L67.22-33.01c-6.47,0.05-12.12,4.39-13.85,10.63L45.81,4.98C43.25,14.25,50.27,23.4,59.9,23.33z"/>
						<path class="st39" d="M69.49,16.25l137.3-1.11c8.44-0.07,14.47-7.33,12.1-14.57l-7-21.34c-1.6-4.87-6.61-8.19-12.28-8.14
							l-123.65,1c-5.67,0.05-10.63,3.45-12.15,8.34L57.15,1.88C54.9,9.16,61.05,16.32,69.49,16.25z"/>
						<g>
							<g>
								<g>
									<path class="st41" d="M203.64-25.63c0.9,0.87,0.95,1.89,1.23,2.72c0.28,0.84,0.35,1.66,0.29,2.45
										c-0.14,1.59-0.28,3.17-0.46,4.74c-0.35,3.15-0.43,6.16-1.02,9.27c-0.63,3.11-1.46,5.56-2.3,8.63
										c-0.41,1.53-0.86,3.06-1.32,4.59c-0.23,0.77-0.82,2.25-1.37,2.94c-0.53,0.68-0.88,1.26-1.95,1.72
										c-0.23-0.89-0.28-1.67-0.29-2.48c0.01-0.79,0.08-1.58,0.22-2.34c0.26-1.54,0.5-3.09,0.72-4.64
										c0.45-3.12,0.89-6.22,1.34-9.33c0.48-3.1,1.4-5.82,1.98-8.91l0.86-4.62c0.13-0.77,0.4-1.52,0.78-2.25
										C202.74-23.88,202.81-24.93,203.64-25.63z"/>
								</g>
							</g>
						</g>
						<g>
							<g>
								<g>
									<path class="st41" d="M71.64-24.58c0.63,0.46,0.98,0.87,1.28,1.29c0.29,0.42,0.49,0.84,0.76,1.21
										c0.54,0.74,0.85,1.49,0.97,2.25c0.26,1.53,0.52,3.07,0.78,4.6c0.53,3.07,1.42,5.91,1.78,8.99
										c0.34,3.08,0.21,5.64,0.44,8.73c0.13,1.54,0.23,3.09,0.4,4.61c0.07,0.77,0.1,2.28-0.14,3.12
										c-0.11,0.41-0.17,0.78-0.32,1.19c-0.12,0.38-0.3,0.8-0.58,1.53c-0.44-0.22-0.94-0.63-1.25-0.98
										c-0.31-0.34-0.58-0.71-0.82-1.09c-0.46-0.74-0.76-1.51-0.99-2.3C73.52,7,73.12,5.45,72.74,3.9
										c-0.77-3.1-1.34-6.21-1.93-9.32c-0.5-3.12-0.27-6.02-0.51-9.17c-0.12-1.58-0.19-3.16-0.26-4.75
										c-0.04-0.79,0.1-1.61,0.41-2.43c0.17-0.41,0.22-0.9,0.35-1.39C70.91-23.64,71.16-24.21,71.64-24.58z"/>
								</g>
							</g>
						</g>
						<g>
							<g>
								<g>
									<path class="st3" d="M214.18,32.91c0.95,1.64,0.73,3.43,0.84,4.94c0.09,1.52-0.09,2.99-0.5,4.39
										c-0.82,2.81-1.75,5.54-2.94,8.28c-0.62,1.39-1.34,2.85-2.42,4.22c-1.08,1.38-2.43,2.51-3.87,3.37
										c-2.89,1.73-5.99,2.47-8.98,2.83c-5.91,0.6-10.59,0.15-16.29-0.14c-2.83-0.17-5.66-0.34-8.49-0.51
										c-1.41-0.08-4.21-0.43-5.62-0.9c-1.41-0.47-2.51-0.69-3.92-1.86c1.42-0.6,2.84-0.93,4.26-1.17
										c1.42-0.24,2.83-0.35,4.25-0.39l8.49-0.27c5.63-0.21,11.21-0.37,16.54-1.19c2.6-0.37,4.93-0.78,6.85-1.64
										c0.95-0.44,1.81-0.96,2.51-1.66c0.71-0.7,1.36-1.65,1.94-2.79c1.17-2.37,2.29-4.93,3.22-7.49
										c0.47-1.28,1.05-2.53,1.77-3.76C212.56,35.95,212.94,34.08,214.18,32.91z"/>
								</g>
							</g>
						</g>
						<g>
							<g>
								<g>
									<path class="st3" d="M80.17,31.9c-0.31,1.28-0.79,1.53-1.15,2.05c-0.37,0.51-0.75,0.78-1.14,0.86
										c-0.78,0.15-1.57,0.33-2.36,0.44c-1.58,0.25-3.07,0.82-4.66,0.78c-1.59-0.09-2.87-0.58-4.44-0.92
										c-0.79-0.16-1.57-0.36-2.35-0.55c-0.39-0.09-1.15-0.46-1.51-0.94c-0.36-0.48-0.65-0.72-0.94-1.89
										c0.43-0.58,0.84-0.89,1.24-1.12c0.4-0.23,0.79-0.33,1.17-0.35l2.3-0.22c1.53-0.19,3.06-0.28,4.58-0.45
										c1.52-0.09,2.89,0.46,4.42,0.51c0.76,0.01,1.53,0.07,2.29,0.1c0.38,0.01,0.77,0.18,1.17,0.53
										C79.2,31.06,79.72,30.95,80.17,31.9z"/>
								</g>
							</g>
						</g>
						<polygon class="st3" points="163.32,22.46 190.07,22.24 202.21,15.23 175.45,15.44 						"/>
						<polygon class="st3" points="127.53,22.75 139.71,22.65 151.85,15.63 139.67,15.73 						"/>
						<polygon class="st3" points="101.51,22.96 120.38,22.81 132.52,15.79 113.64,15.94 						"/>
						<g>
							<g>
								<g>
									<path class="st3" d="M96.11,61.44c0.02-1.59,0.84-2.47,1.3-3.45c0.47-0.97,1.08-1.75,1.8-2.37
										c1.44-1.26,2.89-2.52,4.33-3.78c2.89-2.52,5.35-5.19,8.32-7.57c3-2.36,5.68-3.98,8.77-6.24c1.54-1.13,3.09-2.27,4.63-3.41
										c0.77-0.57,2.4-1.58,3.42-1.87c1.02-0.29,1.72-0.63,3.2-0.41c-0.31,1.1-0.81,1.99-1.36,2.82c-0.56,0.83-1.2,1.55-1.89,2.23
										l-4.16,4.04c-2.77,2.7-5.66,5.27-8.54,7.85c-2.93,2.52-6.02,4.25-9.11,6.56c-1.54,1.16-3.12,2.27-4.69,3.39
										c-0.79,0.56-1.67,0.99-2.66,1.28C98.49,60.78,97.46,61.64,96.11,61.44z"/>
								</g>
							</g>
						</g>
						<g>
							<g>
								<g>
									<path class="st3" d="M110.33,30.39c0.13,1.6-0.63,2.61-1.02,3.66c-0.41,1.04-0.97,1.91-1.68,2.63
										c-1.41,1.44-2.8,2.89-4.25,4.29c-2.87,2.82-5.38,5.71-8.48,8.28c-3.14,2.53-5.96,4.23-9.28,6.51
										c-1.65,1.15-3.34,2.26-5.02,3.37c-0.83,0.56-2.61,1.51-3.69,1.75c-1.07,0.24-1.83,0.54-3.31,0.21
										c0.43-1.09,1.02-1.96,1.67-2.76c0.64-0.81,1.36-1.5,2.11-2.15l4.49-3.93c2.96-2.66,5.96-5.27,8.88-7.95
										c2.97-2.63,6.06-4.53,9.09-7.1l4.55-3.85c0.75-0.64,1.61-1.18,2.59-1.59C107.98,31.36,108.93,30.36,110.33,30.39z"/>
								</g>
							</g>
						</g>
					</g>
					<g>
						<path class="st38" d="M213.19,234.33L69.32,235.5c-8.84,0.07-15.13,11.3-12.62,22.51l7.42,33.08
							c1.69,7.54,6.96,12.71,12.9,12.66l129.57-1.05c5.95-0.05,11.13-5.3,12.7-12.87l6.88-33.19
							C228.51,245.38,222.03,234.26,213.19,234.33z"/>
						<path class="st39" d="M69.33,236.76l143.87-1.17c8.84-0.07,15.32,11.05,12.98,22.3l-1.6,7.7c-1.21,0.43-2.48,0.68-3.81,0.69
							l-160.13,1.3c-0.72,0.01-1.43-0.06-2.13-0.19l-1.82-8.12C54.19,248.06,60.49,236.83,69.33,236.76z"/>
						<path class="st40" d="M63.19,264.43l156.59-1.27c9.62-0.08,16.5-9.34,13.78-18.57l-8-27.23c-1.82-6.21-7.55-10.46-14.02-10.4
							l-141.03,1.14c-6.47,0.05-12.12,4.39-13.85,10.63l-7.56,27.36C46.55,255.35,53.57,264.5,63.19,264.43z"/>
						<path class="st38" d="M63.17,261.8l156.59-1.27c9.62-0.08,16.5-9.34,13.78-18.57l-8-27.23c-1.82-6.21-7.55-10.46-14.02-10.4
							L70.5,205.46c-6.47,0.05-12.12,4.39-13.85,10.63l-7.56,27.36C46.53,252.73,53.55,261.88,63.17,261.8z"/>
						<path class="st39" d="M72.76,254.73l137.3-1.11c8.44-0.07,14.47-7.33,12.1-14.57l-7-21.34c-1.6-4.87-6.61-8.19-12.28-8.14
							l-123.65,1c-5.67,0.05-10.63,3.45-12.15,8.34l-6.65,21.45C58.18,247.63,64.33,254.8,72.76,254.73z"/>
						<g>
							<g>
								<g>
									<path class="st41" d="M206.91,212.84c0.9,0.87,0.95,1.89,1.23,2.72c0.28,0.84,0.35,1.66,0.29,2.45
										c-0.14,1.59-0.28,3.17-0.46,4.74c-0.35,3.15-0.43,6.16-1.02,9.27c-0.63,3.11-1.46,5.56-2.3,8.63
										c-0.41,1.53-0.86,3.06-1.32,4.59c-0.23,0.77-0.82,2.25-1.37,2.94c-0.53,0.68-0.88,1.26-1.95,1.72
										c-0.23-0.89-0.28-1.67-0.29-2.48c0.01-0.79,0.08-1.58,0.22-2.34c0.26-1.54,0.5-3.09,0.72-4.64
										c0.45-3.12,0.89-6.22,1.34-9.33c0.48-3.1,1.4-5.82,1.98-8.91l0.86-4.62c0.13-0.77,0.4-1.52,0.78-2.25
										C206.02,214.6,206.08,213.54,206.91,212.84z"/>
								</g>
							</g>
						</g>
						<g>
							<g>
								<g>
									<path class="st41" d="M74.92,213.89c0.63,0.46,0.98,0.87,1.28,1.29c0.29,0.42,0.49,0.84,0.76,1.21
										c0.54,0.74,0.85,1.49,0.97,2.25c0.26,1.53,0.52,3.07,0.78,4.6c0.53,3.07,1.42,5.91,1.78,8.99
										c0.34,3.08,0.21,5.64,0.44,8.73c0.13,1.54,0.23,3.09,0.4,4.61c0.07,0.77,0.1,2.28-0.14,3.12
										c-0.11,0.41-0.17,0.78-0.32,1.19c-0.12,0.38-0.3,0.8-0.58,1.53c-0.44-0.22-0.94-0.63-1.25-0.98
										c-0.31-0.34-0.58-0.71-0.82-1.09c-0.46-0.74-0.76-1.51-0.99-2.3c-0.44-1.56-0.84-3.11-1.22-4.66
										c-0.77-3.1-1.34-6.21-1.93-9.32c-0.5-3.12-0.27-6.02-0.51-9.17c-0.12-1.58-0.19-3.16-0.26-4.75
										c-0.04-0.79,0.1-1.61,0.41-2.43c0.17-0.41,0.22-0.9,0.35-1.39C74.19,214.83,74.44,214.26,74.92,213.89z"/>
								</g>
							</g>
						</g>
						<g>
							<g>
								<g>
									<path class="st3" d="M217.45,271.39c0.95,1.64,0.73,3.43,0.84,4.94c0.09,1.52-0.09,2.99-0.5,4.39
										c-0.82,2.81-1.75,5.54-2.94,8.28c-0.62,1.39-1.34,2.85-2.42,4.22c-1.08,1.38-2.43,2.51-3.87,3.37
										c-2.89,1.73-5.99,2.47-8.98,2.83c-5.91,0.6-10.59,0.15-16.29-0.14c-2.83-0.17-5.66-0.34-8.49-0.51
										c-1.41-0.08-4.21-0.43-5.62-0.9c-1.41-0.47-2.51-0.69-3.92-1.86c1.42-0.6,2.84-0.93,4.26-1.17
										c1.42-0.24,2.83-0.35,4.25-0.39l8.49-0.27c5.63-0.21,11.21-0.37,16.54-1.19c2.6-0.37,4.93-0.78,6.85-1.64
										c0.95-0.44,1.81-0.96,2.51-1.66c0.71-0.7,1.36-1.65,1.94-2.79c1.17-2.37,2.29-4.93,3.22-7.49
										c0.47-1.28,1.05-2.53,1.77-3.76C215.84,274.42,216.22,272.55,217.45,271.39z"/>
								</g>
							</g>
						</g>
						<g>
							<g>
								<g>
									<path class="st3" d="M83.44,270.37c-0.31,1.28-0.79,1.53-1.15,2.05c-0.37,0.51-0.75,0.78-1.14,0.86
										c-0.78,0.15-1.57,0.33-2.36,0.44c-1.58,0.25-3.07,0.82-4.66,0.78c-1.59-0.09-2.87-0.58-4.44-0.92
										c-0.79-0.16-1.57-0.36-2.35-0.55c-0.39-0.09-1.15-0.46-1.51-0.94c-0.36-0.48-0.65-0.72-0.94-1.89
										c0.43-0.58,0.84-0.89,1.24-1.12c0.4-0.23,0.79-0.33,1.17-0.35l2.3-0.22c1.53-0.19,3.06-0.28,4.58-0.45
										c1.52-0.09,2.89,0.46,4.42,0.51c0.76,0.01,1.53,0.07,2.29,0.1c0.38,0.01,0.77,0.18,1.17,0.53
										C82.47,269.53,83,269.43,83.44,270.37z"/>
								</g>
							</g>
						</g>
						<polygon class="st3" points="166.59,260.93 193.34,260.72 205.48,253.7 178.73,253.92 						"/>
						<polygon class="st3" points="130.81,261.22 142.98,261.12 155.12,254.11 142.94,254.21 						"/>
						<polygon class="st3" points="104.78,261.43 123.65,261.28 135.79,254.26 116.92,254.42 						"/>
						<g>
							<g>
								<g>
									<path class="st3" d="M99.39,299.91c0.02-1.59,0.84-2.47,1.3-3.45c0.47-0.97,1.08-1.75,1.8-2.37
										c1.44-1.26,2.89-2.52,4.33-3.78c2.89-2.52,5.35-5.19,8.32-7.57c3-2.36,5.68-3.98,8.77-6.24c1.54-1.13,3.09-2.27,4.63-3.41
										c0.77-0.57,2.4-1.58,3.42-1.87c1.02-0.29,1.72-0.63,3.2-0.41c-0.31,1.1-0.81,1.99-1.36,2.82c-0.56,0.83-1.2,1.55-1.89,2.23
										l-4.16,4.04c-2.77,2.7-5.66,5.27-8.54,7.85c-2.93,2.52-6.02,4.25-9.11,6.56c-1.54,1.16-3.12,2.27-4.69,3.39
										c-0.79,0.56-1.67,0.99-2.66,1.28C101.76,299.26,100.74,300.11,99.39,299.91z"/>
								</g>
							</g>
						</g>
						<g>
							<g>
								<g>
									<path class="st3" d="M113.6,268.86c0.13,1.6-0.63,2.61-1.02,3.66c-0.41,1.04-0.97,1.91-1.68,2.63
										c-1.41,1.44-2.8,2.89-4.25,4.29c-2.87,2.82-5.38,5.71-8.48,8.28c-3.14,2.53-5.96,4.23-9.28,6.51
										c-1.65,1.15-3.34,2.26-5.02,3.37c-0.83,0.56-2.61,1.51-3.69,1.75c-1.07,0.24-1.83,0.54-3.31,0.21
										c0.43-1.09,1.02-1.96,1.67-2.76c0.64-0.81,1.36-1.5,2.11-2.15l4.49-3.93c2.96-2.66,5.96-5.27,8.88-7.95
										c2.97-2.63,6.06-4.53,9.09-7.1l4.55-3.85c0.75-0.64,1.61-1.18,2.59-1.59C111.26,269.83,112.21,268.83,113.6,268.86z"/>
								</g>
							</g>
						</g>
					</g>
					<g>
						<path class="st38" d="M422.96,115.17l-143.87,1.17c-8.84,0.07-15.13,11.3-12.62,22.51l7.42,33.08
							c1.69,7.54,6.96,12.71,12.9,12.66l129.57-1.05c5.95-0.05,11.13-5.3,12.7-12.87l6.88-33.19
							C438.28,126.23,431.8,115.1,422.96,115.17z"/>
						<path class="st39" d="M279.1,117.6l143.87-1.17c8.84-0.07,15.32,11.05,12.98,22.3l-1.6,7.7c-1.21,0.43-2.48,0.68-3.81,0.69
							l-160.13,1.3c-0.72,0.01-1.43-0.06-2.13-0.19l-1.82-8.12C263.96,128.9,270.26,117.67,279.1,117.6z"/>
						<path class="st40" d="M272.97,145.27L429.56,144c9.62-0.08,16.5-9.34,13.78-18.57l-8-27.23c-1.82-6.21-7.55-10.46-14.02-10.4
							l-141.03,1.14c-6.47,0.05-12.12,4.39-13.85,10.63l-7.56,27.36C256.32,136.2,263.34,145.35,272.97,145.27z"/>
						<path class="st38" d="M272.94,142.64l156.59-1.27c9.62-0.08,16.5-9.34,13.78-18.57l-8-27.23c-1.82-6.21-7.55-10.46-14.02-10.4
							l-141.03,1.14c-6.47,0.05-12.12,4.39-13.85,10.63l-7.56,27.36C256.3,133.57,263.32,142.72,272.94,142.64z"/>
						<path class="st39" d="M282.54,135.57l137.3-1.11c8.44-0.07,14.47-7.33,12.1-14.57l-7-21.34c-1.6-4.87-6.61-8.19-12.28-8.14
							L289,91.4c-5.67,0.05-10.63,3.45-12.15,8.34l-6.65,21.45C267.95,128.47,274.1,135.64,282.54,135.57z"/>
						<g>
							<g>
								<g>
									<path class="st41" d="M416.68,93.68c0.9,0.87,0.95,1.89,1.23,2.72c0.28,0.84,0.35,1.66,0.29,2.45
										c-0.14,1.59-0.28,3.17-0.46,4.74c-0.35,3.15-0.43,6.16-1.02,9.27c-0.63,3.11-1.46,5.56-2.3,8.63
										c-0.41,1.53-0.86,3.06-1.32,4.59c-0.23,0.77-0.82,2.25-1.37,2.94c-0.53,0.68-0.88,1.26-1.95,1.72
										c-0.23-0.89-0.28-1.67-0.29-2.48c0.01-0.79,0.08-1.58,0.22-2.34c0.26-1.54,0.5-3.09,0.72-4.64
										c0.45-3.12,0.89-6.22,1.34-9.33c0.48-3.1,1.4-5.82,1.98-8.91l0.86-4.62c0.13-0.77,0.4-1.52,0.78-2.25
										C415.79,95.44,415.85,94.38,416.68,93.68z"/>
								</g>
							</g>
						</g>
						<g>
							<g>
								<g>
									<path class="st41" d="M284.69,94.73c0.63,0.46,0.98,0.87,1.28,1.29c0.29,0.42,0.49,0.84,0.76,1.21
										c0.54,0.74,0.85,1.49,0.97,2.25c0.26,1.53,0.52,3.07,0.78,4.6c0.53,3.07,1.42,5.91,1.78,8.99
										c0.34,3.08,0.21,5.64,0.44,8.73c0.13,1.54,0.23,3.09,0.4,4.61c0.07,0.77,0.1,2.28-0.14,3.12
										c-0.11,0.41-0.17,0.78-0.32,1.19c-0.12,0.38-0.3,0.8-0.58,1.53c-0.44-0.22-0.94-0.63-1.25-0.98
										c-0.31-0.34-0.58-0.71-0.82-1.09c-0.46-0.74-0.76-1.51-0.99-2.3c-0.44-1.56-0.84-3.11-1.22-4.66
										c-0.77-3.1-1.34-6.21-1.93-9.32c-0.5-3.12-0.27-6.02-0.51-9.17c-0.12-1.58-0.19-3.16-0.26-4.75
										c-0.04-0.79,0.1-1.61,0.41-2.43c0.17-0.41,0.22-0.9,0.35-1.39C283.96,95.68,284.21,95.1,284.69,94.73z"/>
								</g>
							</g>
						</g>
						<g>
							<g>
								<g>
									<path class="st3" d="M427.22,152.23c0.95,1.64,0.73,3.43,0.84,4.94c0.09,1.52-0.09,2.99-0.5,4.39
										c-0.82,2.81-1.75,5.54-2.94,8.28c-0.62,1.39-1.34,2.85-2.42,4.22c-1.08,1.38-2.43,2.51-3.87,3.37
										c-2.89,1.73-5.99,2.47-8.98,2.83c-5.91,0.6-10.59,0.15-16.29-0.14c-2.83-0.17-5.66-0.34-8.49-0.51
										c-1.41-0.08-4.21-0.43-5.62-0.9c-1.41-0.47-2.51-0.69-3.92-1.86c1.42-0.6,2.84-0.93,4.25-1.17
										c1.42-0.24,2.83-0.35,4.25-0.39l8.49-0.27c5.63-0.21,11.21-0.37,16.54-1.19c2.6-0.37,4.93-0.78,6.85-1.64
										c0.95-0.44,1.81-0.96,2.51-1.66c0.71-0.7,1.36-1.65,1.94-2.79c1.17-2.37,2.29-4.93,3.22-7.49
										c0.47-1.28,1.05-2.53,1.77-3.76C425.61,155.27,425.99,153.4,427.22,152.23z"/>
								</g>
							</g>
						</g>
						<g>
							<g>
								<g>
									<path class="st3" d="M293.22,151.21c-0.31,1.28-0.79,1.53-1.15,2.05c-0.37,0.51-0.75,0.78-1.14,0.86
										c-0.78,0.15-1.57,0.33-2.36,0.44c-1.58,0.25-3.07,0.82-4.66,0.78c-1.59-0.09-2.87-0.58-4.44-0.92
										c-0.79-0.16-1.57-0.36-2.35-0.55c-0.39-0.09-1.15-0.46-1.51-0.94c-0.36-0.48-0.65-0.72-0.94-1.89
										c0.44-0.58,0.84-0.89,1.24-1.12c0.4-0.23,0.79-0.33,1.17-0.35l2.3-0.22c1.53-0.19,3.06-0.28,4.58-0.45
										c1.52-0.09,2.89,0.46,4.42,0.51c0.76,0.01,1.53,0.07,2.29,0.1c0.38,0.01,0.77,0.18,1.17,0.53
										C292.25,150.38,292.77,150.27,293.22,151.21z"/>
								</g>
							</g>
						</g>
						<polygon class="st3" points="376.36,141.78 403.12,141.56 415.25,134.54 388.5,134.76 						"/>
						<polygon class="st3" points="340.58,142.07 352.76,141.97 364.89,134.95 352.72,135.05 						"/>
						<polygon class="st3" points="314.56,142.28 333.43,142.12 345.56,135.11 326.69,135.26 						"/>
						<g>
							<g>
								<g>
									<path class="st3" d="M309.16,180.76c0.02-1.59,0.84-2.47,1.3-3.45c0.47-0.97,1.08-1.75,1.81-2.37
										c1.44-1.26,2.89-2.52,4.33-3.78c2.89-2.52,5.35-5.19,8.32-7.57c3-2.36,5.68-3.98,8.77-6.24c1.54-1.13,3.09-2.27,4.63-3.41
										c0.77-0.57,2.4-1.58,3.42-1.87c1.02-0.29,1.72-0.63,3.2-0.41c-0.31,1.1-0.81,1.99-1.36,2.82c-0.56,0.83-1.2,1.55-1.89,2.23
										l-4.16,4.04c-2.77,2.7-5.66,5.27-8.54,7.85c-2.93,2.52-6.02,4.25-9.11,6.56c-1.54,1.16-3.12,2.27-4.69,3.39
										c-0.79,0.56-1.67,0.99-2.66,1.28C311.54,180.1,310.51,180.96,309.16,180.76z"/>
								</g>
							</g>
						</g>
						<g>
							<g>
								<g>
									<path class="st3" d="M323.37,149.7c0.13,1.6-0.63,2.61-1.02,3.66c-0.41,1.04-0.97,1.91-1.68,2.63
										c-1.41,1.44-2.8,2.89-4.25,4.29c-2.87,2.82-5.38,5.71-8.48,8.28c-3.14,2.53-5.96,4.23-9.28,6.51
										c-1.65,1.15-3.34,2.26-5.02,3.37c-0.83,0.56-2.61,1.51-3.69,1.75c-1.07,0.24-1.83,0.54-3.31,0.21
										c0.43-1.09,1.02-1.96,1.67-2.76c0.64-0.81,1.36-1.5,2.11-2.15l4.49-3.93c2.96-2.66,5.96-5.27,8.88-7.95
										c2.97-2.63,6.06-4.53,9.09-7.1l4.55-3.85c0.76-0.64,1.61-1.18,2.59-1.59C321.03,150.67,321.98,149.67,323.37,149.7z"/>
								</g>
							</g>
						</g>
					</g>
					<g>
						<path class="st38" d="M422.96-4.14L279.09-2.98c-8.84,0.07-15.13,11.3-12.62,22.51l7.42,33.08
							c1.69,7.54,6.96,12.71,12.9,12.66l129.57-1.05c5.95-0.05,11.13-5.3,12.7-12.87l6.88-33.19C438.28,6.91,431.8-4.21,422.96-4.14
							z"/>
						<path class="st39" d="M279.1-1.72l143.87-1.17c8.84-0.07,15.32,11.05,12.98,22.3l-1.6,7.7c-1.21,0.43-2.48,0.68-3.81,0.69
							l-160.13,1.3c-0.72,0.01-1.43-0.06-2.13-0.19l-1.82-8.12C263.96,9.58,270.26-1.64,279.1-1.72z"/>
						<path class="st40" d="M272.97,25.95l156.59-1.27c9.62-0.08,16.5-9.34,13.78-18.57l-8-27.23c-1.82-6.21-7.55-10.46-14.02-10.4
							l-141.03,1.14c-6.47,0.05-12.12,4.39-13.85,10.63l-7.56,27.36C256.32,16.88,263.34,26.03,272.97,25.95z"/>
						<path class="st38" d="M272.94,23.33l156.59-1.27c9.62-0.08,16.5-9.34,13.78-18.57l-8-27.23c-1.82-6.21-7.55-10.46-14.02-10.4
							l-141.03,1.14c-6.47,0.05-12.12,4.39-13.85,10.63l-7.56,27.36C256.3,14.25,263.32,23.4,272.94,23.33z"/>
						<path class="st39" d="M282.54,16.25l137.3-1.11c8.44-0.07,14.47-7.33,12.1-14.57l-7-21.34c-1.6-4.87-6.61-8.19-12.28-8.14
							l-123.65,1c-5.67,0.05-10.63,3.45-12.15,8.34L270.2,1.88C267.95,9.16,274.1,16.32,282.54,16.25z"/>
						<g>
							<g>
								<g>
									<path class="st41" d="M416.68-25.63c0.9,0.87,0.95,1.89,1.23,2.72c0.28,0.84,0.35,1.66,0.29,2.45
										c-0.14,1.59-0.28,3.17-0.46,4.74c-0.35,3.15-0.43,6.16-1.02,9.27c-0.63,3.11-1.46,5.56-2.3,8.63
										c-0.41,1.53-0.86,3.06-1.32,4.59c-0.23,0.77-0.82,2.25-1.37,2.94c-0.53,0.68-0.88,1.26-1.95,1.72
										c-0.23-0.89-0.28-1.67-0.29-2.48c0.01-0.79,0.08-1.58,0.22-2.34c0.26-1.54,0.5-3.09,0.72-4.64
										c0.45-3.12,0.89-6.22,1.34-9.33c0.48-3.1,1.4-5.82,1.98-8.91l0.86-4.62c0.13-0.77,0.4-1.52,0.78-2.25
										C415.79-23.88,415.85-24.93,416.68-25.63z"/>
								</g>
							</g>
						</g>
						<g>
							<g>
								<g>
									<path class="st41" d="M284.69-24.58c0.63,0.46,0.98,0.87,1.28,1.29c0.29,0.42,0.49,0.84,0.76,1.21
										c0.54,0.74,0.85,1.49,0.97,2.25c0.26,1.53,0.52,3.07,0.78,4.6c0.53,3.07,1.42,5.91,1.78,8.99
										c0.34,3.08,0.21,5.64,0.44,8.73c0.13,1.54,0.23,3.09,0.4,4.61c0.07,0.77,0.1,2.28-0.14,3.12
										c-0.11,0.41-0.17,0.78-0.32,1.19c-0.12,0.38-0.3,0.8-0.58,1.53c-0.44-0.22-0.94-0.63-1.25-0.98
										c-0.31-0.34-0.58-0.71-0.82-1.09c-0.46-0.74-0.76-1.51-0.99-2.3c-0.44-1.56-0.84-3.11-1.22-4.66
										c-0.77-3.1-1.34-6.21-1.93-9.32c-0.5-3.12-0.27-6.02-0.51-9.17c-0.12-1.58-0.19-3.16-0.26-4.75
										c-0.04-0.79,0.1-1.61,0.41-2.43c0.17-0.41,0.22-0.9,0.35-1.39C283.96-23.64,284.21-24.21,284.69-24.58z"/>
								</g>
							</g>
						</g>
						<g>
							<g>
								<g>
									<path class="st3" d="M427.22,32.91c0.95,1.64,0.73,3.43,0.84,4.94c0.09,1.52-0.09,2.99-0.5,4.39
										c-0.82,2.81-1.75,5.54-2.94,8.28c-0.62,1.39-1.34,2.85-2.42,4.22c-1.08,1.38-2.43,2.51-3.87,3.37
										c-2.89,1.73-5.99,2.47-8.98,2.83c-5.91,0.6-10.59,0.15-16.29-0.14c-2.83-0.17-5.66-0.34-8.49-0.51
										c-1.41-0.08-4.21-0.43-5.62-0.9c-1.41-0.47-2.51-0.69-3.92-1.86c1.42-0.6,2.84-0.93,4.25-1.17
										c1.42-0.24,2.83-0.35,4.25-0.39l8.49-0.27c5.63-0.21,11.21-0.37,16.54-1.19c2.6-0.37,4.93-0.78,6.85-1.64
										c0.95-0.44,1.81-0.96,2.51-1.66c0.71-0.7,1.36-1.65,1.94-2.79c1.17-2.37,2.29-4.93,3.22-7.49
										c0.47-1.28,1.05-2.53,1.77-3.76C425.61,35.95,425.99,34.08,427.22,32.91z"/>
								</g>
							</g>
						</g>
						<g>
							<g>
								<g>
									<path class="st3" d="M293.22,31.9c-0.31,1.28-0.79,1.53-1.15,2.05c-0.37,0.51-0.75,0.78-1.14,0.86
										c-0.78,0.15-1.57,0.33-2.36,0.44c-1.58,0.25-3.07,0.82-4.66,0.78c-1.59-0.09-2.87-0.58-4.44-0.92
										c-0.79-0.16-1.57-0.36-2.35-0.55c-0.39-0.09-1.15-0.46-1.51-0.94c-0.36-0.48-0.65-0.72-0.94-1.89
										c0.44-0.58,0.84-0.89,1.24-1.12c0.4-0.23,0.79-0.33,1.17-0.35l2.3-0.22c1.53-0.19,3.06-0.28,4.58-0.45
										c1.52-0.09,2.89,0.46,4.42,0.51c0.76,0.01,1.53,0.07,2.29,0.1c0.38,0.01,0.77,0.18,1.17,0.53
										C292.25,31.06,292.77,30.95,293.22,31.9z"/>
								</g>
							</g>
						</g>
						<polygon class="st3" points="376.36,22.46 403.12,22.24 415.25,15.23 388.5,15.44 						"/>
						<polygon class="st3" points="340.58,22.75 352.76,22.65 364.89,15.63 352.72,15.73 						"/>
						<polygon class="st3" points="314.56,22.96 333.43,22.81 345.56,15.79 326.69,15.94 						"/>
						<g>
							<g>
								<g>
									<path class="st3" d="M309.16,61.44c0.02-1.59,0.84-2.47,1.3-3.45c0.47-0.97,1.08-1.75,1.81-2.37
										c1.44-1.26,2.89-2.52,4.33-3.78c2.89-2.52,5.35-5.19,8.32-7.57c3-2.36,5.68-3.98,8.77-6.24c1.54-1.13,3.09-2.27,4.63-3.41
										c0.77-0.57,2.4-1.58,3.42-1.87c1.02-0.29,1.72-0.63,3.2-0.41c-0.31,1.1-0.81,1.99-1.36,2.82c-0.56,0.83-1.2,1.55-1.89,2.23
										l-4.16,4.04c-2.77,2.7-5.66,5.27-8.54,7.85c-2.93,2.52-6.02,4.25-9.11,6.56c-1.54,1.16-3.12,2.27-4.69,3.39
										c-0.79,0.56-1.67,0.99-2.66,1.28C311.54,60.78,310.51,61.64,309.16,61.44z"/>
								</g>
							</g>
						</g>
						<g>
							<g>
								<g>
									<path class="st3" d="M323.37,30.39c0.13,1.6-0.63,2.61-1.02,3.66c-0.41,1.04-0.97,1.91-1.68,2.63
										c-1.41,1.44-2.8,2.89-4.25,4.29c-2.87,2.82-5.38,5.71-8.48,8.28c-3.14,2.53-5.96,4.23-9.28,6.51
										c-1.65,1.15-3.34,2.26-5.02,3.37c-0.83,0.56-2.61,1.51-3.69,1.75c-1.07,0.24-1.83,0.54-3.31,0.21
										c0.43-1.09,1.02-1.96,1.67-2.76c0.64-0.81,1.36-1.5,2.11-2.15l4.49-3.93c2.96-2.66,5.96-5.27,8.88-7.95
										c2.97-2.63,6.06-4.53,9.09-7.1l4.55-3.85c0.76-0.64,1.61-1.18,2.59-1.59C321.03,31.36,321.98,30.36,323.37,30.39z"/>
								</g>
							</g>
						</g>
					</g>
					<g>
						<path class="st38" d="M426.24,234.33l-143.87,1.17c-8.84,0.07-15.13,11.3-12.62,22.51l7.42,33.08
							c1.69,7.54,6.96,12.71,12.9,12.66l129.57-1.05c5.95-0.05,11.13-5.3,12.7-12.87l6.88-33.19
							C441.56,245.38,435.08,234.26,426.24,234.33z"/>
						<path class="st39" d="M282.38,236.76l143.87-1.17c8.84-0.07,15.32,11.05,12.98,22.3l-1.6,7.7c-1.21,0.43-2.48,0.68-3.81,0.69
							l-160.13,1.3c-0.72,0.01-1.43-0.06-2.13-0.19l-1.82-8.12C267.24,248.06,273.53,236.83,282.38,236.76z"/>
						<path class="st40" d="M276.24,264.43l156.59-1.27c9.62-0.08,16.5-9.34,13.78-18.57l-8-27.23c-1.82-6.21-7.55-10.46-14.02-10.4
							l-141.03,1.14c-6.47,0.05-12.12,4.39-13.85,10.63l-7.56,27.36C259.6,255.35,266.62,264.5,276.24,264.43z"/>
						<path class="st38" d="M276.22,261.8l156.59-1.27c9.62-0.08,16.5-9.34,13.78-18.57l-8-27.23c-1.82-6.21-7.55-10.46-14.02-10.4
							l-141.03,1.14c-6.47,0.05-12.12,4.39-13.85,10.63l-7.56,27.36C259.58,252.73,266.6,261.88,276.22,261.8z"/>
						<path class="st39" d="M285.81,254.73l137.3-1.11c8.44-0.07,14.47-7.33,12.1-14.57l-7-21.34c-1.6-4.87-6.61-8.19-12.28-8.14
							l-123.65,1c-5.67,0.05-10.63,3.45-12.15,8.34l-6.65,21.45C271.22,247.63,277.37,254.8,285.81,254.73z"/>
						<g>
							<g>
								<g>
									<path class="st41" d="M419.96,212.84c0.9,0.87,0.95,1.89,1.23,2.72c0.28,0.84,0.35,1.66,0.29,2.45
										c-0.14,1.59-0.28,3.17-0.46,4.74c-0.35,3.15-0.43,6.16-1.02,9.27c-0.63,3.11-1.46,5.56-2.3,8.63
										c-0.41,1.53-0.86,3.06-1.32,4.59c-0.23,0.77-0.82,2.25-1.37,2.94c-0.53,0.68-0.88,1.26-1.95,1.72
										c-0.23-0.89-0.28-1.67-0.29-2.48c0.01-0.79,0.08-1.58,0.22-2.34c0.26-1.54,0.5-3.09,0.72-4.64
										c0.45-3.12,0.89-6.22,1.34-9.33c0.48-3.1,1.4-5.82,1.98-8.91l0.86-4.62c0.13-0.77,0.4-1.52,0.78-2.25
										C419.07,214.6,419.13,213.54,419.96,212.84z"/>
								</g>
							</g>
						</g>
						<g>
							<g>
								<g>
									<path class="st41" d="M287.97,213.89c0.63,0.46,0.98,0.87,1.28,1.29c0.29,0.42,0.49,0.84,0.76,1.21
										c0.54,0.74,0.85,1.49,0.97,2.25c0.26,1.53,0.52,3.07,0.78,4.6c0.53,3.07,1.42,5.91,1.78,8.99
										c0.34,3.08,0.21,5.64,0.44,8.73c0.13,1.54,0.23,3.09,0.4,4.61c0.07,0.77,0.1,2.28-0.14,3.12
										c-0.11,0.41-0.17,0.78-0.32,1.19c-0.12,0.38-0.3,0.8-0.58,1.53c-0.44-0.22-0.94-0.63-1.25-0.98
										c-0.31-0.34-0.58-0.71-0.82-1.09c-0.46-0.74-0.76-1.51-0.99-2.3c-0.44-1.56-0.84-3.11-1.22-4.66
										c-0.77-3.1-1.34-6.21-1.93-9.32c-0.5-3.12-0.27-6.02-0.51-9.17c-0.12-1.58-0.19-3.16-0.26-4.75
										c-0.04-0.79,0.1-1.61,0.41-2.43c0.17-0.41,0.22-0.9,0.35-1.39C287.24,214.83,287.49,214.26,287.97,213.89z"/>
								</g>
							</g>
						</g>
						<g>
							<g>
								<g>
									<path class="st3" d="M430.5,271.39c0.95,1.64,0.73,3.43,0.84,4.94c0.09,1.52-0.09,2.99-0.5,4.39
										c-0.82,2.81-1.75,5.54-2.94,8.28c-0.62,1.39-1.34,2.85-2.42,4.22c-1.08,1.38-2.43,2.51-3.87,3.37
										c-2.89,1.73-5.99,2.47-8.98,2.83c-5.91,0.6-10.59,0.15-16.29-0.14c-2.83-0.17-5.66-0.34-8.49-0.51
										c-1.41-0.08-4.21-0.43-5.62-0.9c-1.41-0.47-2.51-0.69-3.92-1.86c1.42-0.6,2.84-0.93,4.25-1.17
										c1.42-0.24,2.83-0.35,4.25-0.39l8.49-0.27c5.63-0.21,11.21-0.37,16.54-1.19c2.6-0.37,4.93-0.78,6.85-1.64
										c0.95-0.44,1.81-0.96,2.51-1.66c0.71-0.7,1.36-1.65,1.94-2.79c1.17-2.37,2.29-4.93,3.22-7.49
										c0.47-1.28,1.05-2.53,1.77-3.76C428.89,274.42,429.27,272.55,430.5,271.39z"/>
								</g>
							</g>
						</g>
						<polygon class="st3" points="379.64,260.93 406.39,260.72 418.53,253.7 391.78,253.92 						"/>
						<polygon class="st3" points="343.86,261.22 356.03,261.12 368.17,254.11 355.99,254.21 						"/>
						<polygon class="st3" points="317.83,261.43 336.7,261.28 348.84,254.26 329.97,254.42 						"/>
					</g>
					<g>
						<path class="st42" d="M397.19,233.5c-27.22,3.78-47.57,25.35-50.98,51.34c-10.13-11.1-25.37-17.19-41.38-14.97
							c-9.78,1.36-18.44,5.63-25.24,11.81c-12.86-17.94-34.99-28.34-58.38-25.09c-16.01,2.22-29.7,10.44-39.15,22.05
							c-18.42-34.47-56.94-55.52-97.91-49.83C31.63,236.11-5.03,284.6,2.27,337.12s55.79,89.19,108.31,81.89
							c34.96-4.86,62.88-27.96,75.51-58.36c13.15,13.23,32.14,20.33,52.03,17.57c17.8-2.47,32.74-12.34,42.17-26.07
							c9.94,8.68,23.44,13.17,37.53,11.21c19.72-2.74,34.88-17.3,39.35-35.53c12.55,17.18,33.9,27.08,56.46,23.95
							c32.66-4.54,55.46-34.69,50.93-67.35S429.85,228.96,397.19,233.5z"/>
						<g>
							<g>
								<g>
									<path class="st43" d="M372.58,272.35c-0.95-0.3-1.7-0.7-2.31-1.16c-0.58-0.46-1.02-0.97-1.37-1.5
										c-0.67-1.07-0.96-2.19-1.4-3.31c-0.83-2.25-0.62-4.5,0.26-6.23c1.77-3.49,4.01-6.51,6.61-9.06c2.53-2.53,5-4.89,7.81-7.01
										c2.79-2.11,5.88-3.9,9.34-5c3.5-1.02,6.73-1.36,10.21-1.31c3.41,0.08,6.75,0.57,10.36,1.41c3.61,0.79,7.15,2.25,10.38,4.28
										c0.82,0.47,1.93,1.45,2.86,2.57c0.45,0.59,0.87,1.2,1.2,1.8c0.3,0.64,0.52,1.25,0.63,1.8c0.21,1.08,0.33,2.04,0.26,3.06
										c-0.1,1.05-0.51,2.28-1.52,3.79c-2.33-0.01-3.76-0.13-5.1-0.24c-0.33-0.03-0.62-0.07-0.91-0.12
										c-0.3-0.03-0.59-0.08-0.85-0.14c-0.5-0.15-1.06-0.24-1.51-0.45c-1.96-0.68-4.17-0.98-6.43-0.99
										c-2.26,0.02-4.57,0.29-6.8,0.81c-2.16,0.49-4.51,1.28-6.69,2.29c-2.21,0.9-4.41,1.49-6.64,2.23
										c-2.21,0.73-4.49,1.66-6.44,3.1c-1.85,1.41-3.6,2.89-4.8,4.48c-0.6,0.79-1.48,1.29-2.84,1.84
										c-0.71,0.28-1.07,0.79-1.62,1.32c-0.27,0.27-0.57,0.54-1.02,0.83C373.86,271.71,373.32,272.01,372.58,272.35z"/>
								</g>
							</g>
						</g>
						<g>
							<g>
								<g>
									<path class="st43" d="M288.72,292.66c-0.03,0.02-0.01,0.01-0.1,0.05c-0.1,0.05-0.21,0.08-0.31,0.12
										c-0.21,0.06-0.41,0.1-0.61,0.1c-0.4,0.01-0.76-0.11-1.06-0.31c-0.61-0.42-0.89-1.13-0.98-1.77
										c-0.17-1.33,0.21-2.42,0.44-3.54c0.13-0.56,0.33-1.07,0.58-1.55l0.21-0.35l0.11-0.17l0.05-0.13
										c0.07-0.17,0.15-0.34,0.23-0.49c0.33-0.62,0.73-1.1,1.22-1.43c1.93-1.35,3.9-2.73,6.05-3.88c2.13-1.18,4.22-2.5,6.5-3.62
										c2.27-1.11,4.73-2.03,7.42-2.31c2.68-0.21,5.26,0.11,7.7,0.71c2.45,0.61,4.8,1.49,7.32,2.53c2.53,1,4.91,2.38,7.1,3.97
										c1.12,0.77,2.9,3.01,3.04,4.87c0.08,0.93,0.18,1.67,0.08,2.57c-0.12,0.93-0.44,2.04-1.28,3.62
										c-2.02,0.66-3.31,0.9-4.44,1.04c-1.13,0.14-1.96,0.03-2.74-0.2c-1.56-0.45-3.17-0.71-4.8-0.8
										c-1.64-0.05-3.27-0.01-4.89,0.16c-1.62,0.17-3.16,0.47-4.79,0.94c-1.61,0.36-3.24,0.33-4.99,0.36
										c-1.74,0.03-3.58,0.11-5.4,0.69c-1.81,0.6-3.69,1.16-5.56,1.89c-0.47,0.18-0.99,0.25-1.57,0.23
										c-0.15-0.01-0.29-0.02-0.45-0.04c-0.15-0.02-0.34-0.03-0.36-0.14c-0.12-0.17-0.28-0.35-0.48-0.56
										c-0.18-0.17-0.36-0.35-0.55-0.54c-0.5-0.54-1.11-1.07-1.67-1.41c-0.57-0.35-1-0.48-1.19-0.49
										C288.38,292.75,288.51,292.79,288.72,292.66z"/>
								</g>
							</g>
						</g>
						<g>
							<g>
								<g>
									<path class="st43" d="M92.92,252.63c-0.04,0-0.08,0-0.13,0c-0.04,0-0.06,0-0.27-0.04c-0.33-0.07-0.6-0.16-0.86-0.31
										c-0.52-0.28-0.89-0.74-1.06-1.25c-0.37-1.05-0.06-2.19,0.39-3.05c0.46-0.87,1.06-1.57,1.67-2.19
										c0.61-0.62,1.24-1.17,1.85-1.77c0.62-0.58,1.29-1.06,1.99-1.44c0.16-0.1,0.4-0.18,0.5-0.27l0.35-0.25
										c0.23-0.16,0.47-0.3,0.7-0.43c0.93-0.52,1.85-0.79,2.75-0.82c3.6-0.15,7.29-0.32,11.01-0.06c3.72,0.2,7.48,0.18,11.3,0.54
										c3.81,0.35,7.7,1.09,11.4,2.78c3.64,1.77,6.74,4.12,9.5,6.72c2.76,2.62,5.23,5.49,7.82,8.69c2.64,3.15,4.84,6.7,6.68,10.4
										c0.24,0.45,0.46,1.08,0.67,1.77c0.21,0.69,0.39,1.47,0.47,2.3c0.22,1.62,0.09,3.37-0.42,4.66
										c-0.52,1.31-0.91,2.38-1.66,3.54c-0.79,1.16-1.99,2.44-4.22,3.94c-1.6-0.3-2.82-0.6-3.89-0.91
										c-1.1-0.3-1.92-0.64-2.76-0.95c-0.81-0.32-1.45-0.68-2.05-1.06c-0.29-0.19-0.56-0.4-0.8-0.61
										c-0.26-0.21-0.5-0.42-0.72-0.65c-1.81-1.79-3.86-3.39-6.06-4.79c-2.25-1.35-4.56-2.59-6.94-3.66
										c-2.38-1.07-4.79-1.94-7.41-2.64c-2.52-0.84-4.75-2.19-7.16-3.56c-2.39-1.36-4.94-2.73-7.85-3.48
										c-2.91-0.69-5.88-1.5-8.94-2.09c-0.77-0.15-1.51-0.48-2.26-0.97c-0.37-0.25-0.74-0.55-1.1-0.9
										c-0.04-0.31-0.14-0.69-0.25-1.09c-0.11-0.43-0.26-0.72-0.34-0.98c-0.02-0.07-0.06-0.14-0.06-0.2
										c-0.04-0.23-0.14-0.64-0.22-0.94c-0.07-0.32-0.16-0.63-0.27-0.95c-0.11-0.31-0.18-0.58-0.31-0.87
										c-0.43-1.1-0.99-1.85-1.3-2.08C92.37,252.46,92.47,252.65,92.92,252.63z"/>
								</g>
							</g>
						</g>
					</g>
				</g>
			</g>
			<g>
				<g>
					<g>
						<path class="st3" d="M387.98,98.83c0.96,0.76,1.21,1.96,1.53,2.92c0.32,0.97,0.42,1.99,0.31,2.99
							c-0.11,0.99-0.28,1.99-0.55,2.96c-0.26,0.99-0.6,1.89-0.85,2.72c-0.26,0.83-0.41,1.59-0.4,2.26c0.01,0.64,0.19,1.26,0.47,1.84
							c0.58,1.16,1.62,2.08,2.74,2.47c0.27,0.11,0.58,0.18,0.78,0.21c0.23,0.03,0.35,0.02,0.5-0.01c0.3-0.06,0.73-0.33,1.07-0.75
							c0.7-0.79,1.12-2.42,1.54-4.2c0.4-1.75,0.69-3.46,0.58-5.12c-0.02-0.83-0.28-2.45-0.47-3.32c-0.17-0.89-0.44-1.49-0.67-2.69
							c1.01,0.36,1.86,1.1,2.48,1.97c0.63,0.87,1.04,1.88,1.27,2.91c0.47,2.08,0.37,4.16,0.13,6.1c-0.12,0.98-0.26,1.9-0.44,2.87
							c-0.19,0.98-0.45,2.08-1.05,3.18c-0.62,1.1-1.54,2.14-2.95,2.73c-0.7,0.3-1.52,0.41-2.21,0.38c-0.71-0.03-1.32-0.17-1.92-0.37
							c-2.42-0.84-4.07-2.73-4.87-4.86c-0.4-1.08-0.57-2.25-0.48-3.43c0.09-1.16,0.42-2.19,0.76-3.14c0.34-0.95,0.71-1.78,0.98-2.58
							c0.28-0.8,0.49-1.62,0.64-2.46c0.15-0.84,0.33-1.67,0.57-2.54C387.68,101.01,387.53,99.82,387.98,98.83z"/>
					</g>
				</g>
			</g>
			<g>
				<g>
					<g>
						<path class="st3" d="M390.38,109.09c0.79-0.24,1.02,0.16,1.3,0.43c0.28,0.3,0.34,0.68,0.28,0.91
							c-0.1,0.35-0.21,0.71-0.31,1.05c-0.04,0.38,0.27,0.72,0.28,0.96c-0.02,0.26-0.25,0.54-0.19,0.96c0.04,0.19,0.09,0.41,0.2,0.61
							c0.05,0.1,0.1,0.38,0.08,0.7c-0.02,0.32,0.01,0.48-0.09,1.23c-0.31,0.3-0.6,0.41-0.87,0.44c-0.27,0.04-0.51-0.03-0.71-0.14
							c-0.41-0.22-0.8-0.5-1.15-0.84c-0.71-0.66-1.2-1.65-1.38-2.66c-0.14-1.05,0.41-1.92,0.89-2.75c0.18-0.3,0.34-0.47,0.52-0.71
							c0.07-0.09,0.15,0.01,0.39,0.01C389.84,109.27,389.83,109.38,390.38,109.09z"/>
					</g>
				</g>
			</g>
			<g>
				<g>
					<g>
						<path class="st3" d="M110.45,199.8c-0.95,0.6-1.25,1.2-1.44,1.84c-0.08,0.34-0.15,0.64-0.21,0.93
							c-0.08,0.31-0.2,0.65-0.33,0.96c-0.27,0.62-0.5,1.26-0.7,1.9c-0.2,0.65-0.38,1.29-0.45,1.84c-0.07,0.57-0.03,1,0.13,1.41
							c0.15,0.42,0.41,0.81,0.73,1.15c0.65,0.68,1.49,1.12,2.55,1.44c1.01,0.32,2.25,0.49,3.02,0.42c0.73-0.04,1.63-0.51,2.33-1.38
							c0.69-0.87,1.19-2.04,1.43-3.31c0.13-0.62,0.38-1.94,0.54-2.56c0.09-0.33,0.11-0.61,0.13-0.93c0.01-0.32,0.03-0.69-0.12-1.25
							c0.48,0.09,0.94,0.4,1.25,0.78c0.32,0.38,0.53,0.82,0.68,1.24c0.29,0.87,0.33,1.64,0.32,2.45c-0.05,1.6-0.36,3.27-1.19,4.85
							c-0.82,1.57-2.17,3.02-4.17,3.67c-0.99,0.31-1.95,0.35-2.79,0.33c-0.85-0.03-1.71-0.14-2.58-0.36
							c-1.71-0.45-3.35-1.52-4.4-3.05c-0.52-0.76-0.92-1.61-1.12-2.56c-0.21-0.94-0.18-1.98,0-2.85c0.17-0.89,0.46-1.64,0.74-2.35
							c0.29-0.72,0.62-1.42,0.97-2.11c0.18-0.34,0.39-0.67,0.63-0.98c0.27-0.36,0.59-0.68,0.97-0.96c0.38-0.27,0.81-0.64,1.41-0.86
							C109.38,199.28,110.06,199.38,110.45,199.8z"/>
					</g>
				</g>
			</g>
			<g>
				<g>
					<g>
						<path class="st3" d="M111.38,203.26c-0.33,0.3-0.3,0.66-0.23,0.72c0.05,0.09,0.2,0.24,0.36,0.33
							c0.13,0.08,0.24,0.13,0.32,0.17c0.04,0.02,0.07,0.03,0.09,0.04c0.02,0.01,0.06,0.01-0.02,0l-0.12-0.02l-0.01,0l0,0h0
							l0.22,0.02v0v0l0,0.01l0,0.02l0.01,0.03l0.02,0.12l0.04,0.24c0.03,0.16,0.06,0.32,0.07,0.48c0.05,0.3,0.14,0.65,0.23,0.9
							c0.1,0.03,0.19,0,0.18,0l0,0c-0.06,0-0.27,0.28-0.15,0.5c0.03,0.05,0.07,0.1,0.11,0.15c0.09,0.05,0.2,0.1,0.33,0.13
							c0.12,0.04,0.41,0.2,0.62,0.46c0.2,0.26,0.35,0.37,0.66,1.06c-0.09,0.42-0.21,0.66-0.36,0.85c-0.15,0.19-0.33,0.3-0.54,0.35
							c-0.2,0.06-0.42,0.11-0.66,0.14c-0.21,0.04-0.58,0.05-0.86,0.03c-1.2-0.06-2.41-0.77-3-1.91l-0.01-0.01
							c-0.28-0.58-0.27-1.24-0.15-1.84c0.11-0.41,0.24-0.67,0.29-1.03c0.05-0.37,0.12-0.63,0.19-1.08c0.07-0.36,0.29-0.65,0.68-0.88
							c0.2-0.1,0.39-0.29,0.75-0.4C110.83,202.71,111.35,202.89,111.38,203.26z"/>
					</g>
				</g>
			</g>
			<g>
				<g>
					<g>
						<path class="st3" d="M166.15,81.55c0.83,1.46,0.99,3.27,1.33,4.74c0.33,1.46,0.51,2.93,0.57,4.39
							c0.11,2.93,0.23,5.86,0.34,8.79c0.11,2.91,0.25,5.82,0.41,8.58c0.1,1.35,0.26,2.63,0.62,3.72c0.05,0.13,0.09,0.28,0.14,0.4
							c0.02,0.05,0.01,0,0.02,0.02c0.01,0,0.02,0,0.02,0c0.01-0.01,0.01-0.01,0.01-0.01c0,0.01,0.01,0.02,0.02,0.02
							c0.01,0,0.02,0,0.02,0l0,0.01l0,0.01l0.03-0.1c0.04-0.14,0.06-0.28,0.09-0.43c0.23-1.14,0.3-2.33,0.26-3.55
							c-0.06-2.45-0.54-5.01-1.04-7.94c-0.53-2.95-0.79-5.99-0.79-8.99c-0.03-1.51,0.25-4.48,0.69-5.93
							c0.42-1.45,0.69-2.59,1.65-3.91c0.15,1.5,0.2,2.95,0.25,4.39c0.04,1.45,0.09,2.87,0.13,4.29c0.1,2.85,0.45,5.68,1.04,8.45
							c0.59,2.79,1.41,5.66,1.77,8.79c0.17,1.56,0.21,3.2-0.02,4.86c-0.03,0.21-0.05,0.42-0.09,0.62l-0.19,0.87
							c-0.16,0.73-0.47,1.29-0.72,1.92c-0.23,0.67-0.65,1.06-1.08,1.43c-0.44,0.35-0.94,0.59-1.52,0.67
							c-1.23,0.14-2.1-0.37-2.92-1.4c-0.4-0.5-0.77-1.09-1.06-1.73c-0.16-0.3-0.3-0.64-0.41-0.98c-0.08-0.21-0.13-0.41-0.19-0.61
							c-0.45-1.64-0.53-3.2-0.55-4.66c0.02-2.89,0.11-5.61,0.1-8.56l0-8.8c0-1.47,0.1-2.93,0.32-4.4
							C165.63,85.06,165.55,83.03,166.15,81.55z"/>
					</g>
				</g>
			</g>
			<g>
				<g>
					<g>
						<path class="st3" d="M139.56,29.78c0.78,0.94,0.89,2.08,1.19,3.01c0.29,0.93,0.43,1.85,0.44,2.77
							c0.03,1.84,0.06,3.68,0.08,5.51c0.02,0.92,0.04,1.82,0.06,2.72c0.02,0.9,0.07,1.68,0.25,2.25c0.15,0.55,0.46,0.92,0.69,1.05
							c0.11,0.06,0.16,0.05,0.2,0.05c0.04,0,0.12-0.01,0.26-0.07c0.28-0.1,0.61-0.44,0.75-0.71c0.18-0.39,0.27-0.9,0.23-1.52
							c-0.06-1.24-0.68-2.64-1.39-4.5c-0.35-0.92-0.62-2.01-0.72-3.01c-0.11-1-0.12-1.96-0.14-2.88c-0.01-0.92,0.08-2.74,0.31-3.68
							c0.23-0.93,0.32-1.66,1-2.62c0.45,0.89,0.72,1.79,0.94,2.7c0.22,0.91,0.35,1.82,0.45,2.73c0.19,1.86,0.33,3.56,0.93,4.95
							c0.58,1.46,1.72,3.07,2.25,5.33c0.25,1.1,0.33,2.4-0.09,3.72c-0.46,1.41-1.41,2.55-2.78,3.24c-0.69,0.33-1.52,0.53-2.38,0.44
							c-0.86-0.08-1.67-0.44-2.27-0.92c-1.2-0.96-1.75-2.26-1.96-3.44c-0.2-1.17-0.1-2.19-0.05-3.07c0.06-0.88,0.12-1.78,0.16-2.69
							l0.26-5.5c0.04-0.92,0.19-1.83,0.44-2.74C138.93,31.95,138.91,30.68,139.56,29.78z"/>
					</g>
				</g>
			</g>
			<g>
				<g>
					<g>
						<path class="st3" d="M48.05,175.56c0.5,1.12,0.43,2.19,0.65,3.1c0.2,0.9,0.32,1.77,0.32,2.66c0.05,1.77,0,3.68,0.37,5.03
							c0.19,0.69,0.49,1.21,0.94,1.69c0.44,0.47,1,0.87,1.63,1.2c0.61,0.31,1.36,0.61,1.95,0.74c0.61,0.13,0.93,0.09,1.43-0.06
							c1-0.32,2.06-1.26,2.85-2.34c0.79-1.09,1.39-2.41,1.65-3.98c0.25-1.56,0.17-3.21-0.25-4.82c-0.18-0.81-0.68-2.41-0.89-3.3
							c-0.2-0.9-0.46-1.54-0.45-2.72c0.88,0.49,1.61,1.16,2.23,1.92c0.62,0.76,1.12,1.63,1.49,2.55c0.75,1.84,1.2,3.86,1.16,5.93
							c-0.02,2.06-0.53,4.15-1.54,6.04c-0.51,0.94-1.14,1.82-1.92,2.63c-0.79,0.8-1.75,1.52-2.97,1.99
							c-1.21,0.47-2.75,0.45-3.83,0.09c-1.11-0.35-1.95-0.8-2.84-1.37c-0.86-0.58-1.67-1.29-2.36-2.18c-0.68-0.88-1.21-2-1.45-3.1
							c-0.26-1.1-0.28-2.14-0.26-3.11c0.02-0.96,0.07-1.84,0.11-2.78c0.05-0.93,0.22-1.88,0.57-2.8
							C46.95,177.63,47.17,176.28,48.05,175.56z"/>
					</g>
				</g>
			</g>
			<g>
				<g>
					<g>
						<path class="st3" d="M51.36,181.18c0.78,0.29,0.9,0.54,1.2,0.75c0.3,0.21,0.45,0.4,0.48,0.58c0.06,0.35,0.16,0.68,0.25,0.98
							c0.2,0.62,0.69,0.91,0.87,1.22c0.08,0.17,0.12,0.33,0.17,0.5c0.05,0.16-0.01,0.27,0.09,0.39c0.08,0.1,0.22,0.21,0.4,0.23
							c0.08,0.01,0.31,0.1,0.62,0.2c0.32,0.09,0.52,0.08,1.21,0.4c0.16,0.42,0.18,0.72,0.09,1.03c-0.12,0.33-0.34,0.61-0.62,0.81
							c-0.55,0.4-1.24,0.63-1.96,0.61c-0.7,0-1.47-0.29-2.06-0.66c-0.55-0.34-1.01-0.79-1.39-1.26c-0.72-0.99-0.66-2.15-0.7-3.12
							c-0.03-0.5,0.02-0.97,0.07-1.42c0.03-0.22,0.16-0.44,0.41-0.63C50.74,181.6,50.72,181.31,51.36,181.18z"/>
					</g>
				</g>
			</g>
			<g>
				<g>
					<g>
						<path class="st3" d="M261.42,217.32c0.24,0.99-0.02,1.67,0.04,2.3c0.06,0.62,0.09,1.11,0.09,1.54c0,0.85,0.39,1.7,0.98,2.34
							c1.24,1.34,2.97,1.21,4.51,0.62c0.78-0.3,1.4-0.7,1.97-1.3c0.56-0.59,1.04-1.37,1.29-2.33c0.25-0.95,0.28-1.99,0.07-3.04
							c-0.08-0.52-0.33-1.58-0.39-2.22c-0.05-0.65-0.2-1.08-0.04-2.04c0.72,0.23,1.29,0.67,1.78,1.18c0.49,0.51,0.87,1.13,1.13,1.79
							c0.54,1.32,0.83,2.79,0.74,4.31c-0.08,1.5-0.54,3-1.38,4.32c-0.82,1.32-2.11,2.48-3.6,3.14c-1.5,0.65-3.14,0.75-4.68,0.34
							c-1.55-0.4-2.96-1.38-3.93-2.65c-1-1.26-1.56-2.92-1.41-4.61c0.07-0.84,0.42-1.6,0.93-2.17
							C260.04,218.28,260.53,217.44,261.42,217.32z"/>
					</g>
				</g>
			</g>
			<g>
				<g>
					<g>
						<path class="st3" d="M266.98,216.28c0.79,0.26,0.92,0.43,1.24,0.58c0.31,0.15,0.48,0.27,0.53,0.43
							c0.09,0.3,0.21,0.65,0.28,1.06c0.17,0.77,0.31,2.03-0.3,2.96c-0.63,0.91-1.54,1.3-2.52,1.55c-0.49,0.13-0.99,0.14-1.46,0.1
							c-0.24-0.01-0.7-0.22-0.87-0.54c-0.16-0.31-0.3-0.48-0.25-1.23c0.24-0.34,0.38-0.54,0.5-0.69c0.12-0.15,0.2-0.23,0.29-0.27
							c0.17-0.08,0.32-0.19,0.44-0.32c0.21-0.25,0.33-0.49,0.36-0.76c0.05-0.23,0.45-0.22,0.51-0.76c0.02-0.24,0.05-0.55,0.07-0.91
							c0.01-0.18,0.12-0.38,0.35-0.58C266.38,216.7,266.34,216.41,266.98,216.28z"/>
					</g>
				</g>
			</g>
			<g>
				<g>
					<g>
						<path class="st3" d="M392.21,172.1c0.88,1.54,1.11,3.49,1.5,5.06c0.38,1.57,0.61,3.14,0.7,4.72c0.19,3.16,0.36,6.34,0.43,9.52
							c0.08,3.18,0.14,6.28,0.09,9.38c-0.02,1.55-0.08,3.11-0.17,4.67c-0.09,1.57-0.23,3.06-0.22,4.47
							c0.01,1.41,0.17,2.65,0.59,3.68c0.42,1.06,1.07,1.97,1.85,2.52c0.38,0.27,0.84,0.48,1.24,0.56c0.4,0.07,0.59,0.06,0.98-0.13
							c0.37-0.18,0.75-0.55,1.1-1.01c0.34-0.46,0.6-1,0.79-1.61c0.37-1.23,0.43-2.67,0.31-4.14c-0.12-1.47-0.41-2.99-0.72-4.52
							c-0.3-1.53-0.89-4.57-1.08-6.15c-0.17-1.59-0.42-2.79-0.25-4.53c0.89,1.37,1.59,2.82,2.2,4.31c0.61,1.49,1.1,3.02,1.52,4.56
							c0.41,1.56,0.81,3.08,1.13,4.73c0.3,1.64,0.5,3.37,0.3,5.2c-0.19,1.82-0.88,3.79-2.36,5.29c-0.74,0.75-1.79,1.45-3.12,1.62
							c-1.31,0.14-2.35-0.17-3.32-0.6c-3.95-1.94-5.25-6.3-5.28-9.71c-0.04-1.75,0.15-3.35,0.29-4.83c0.15-1.49,0.29-2.97,0.4-4.45
							c0.24-2.96,0.4-5.94,0.42-9.07c0.02-3.13,0-6.28-0.08-9.42c-0.04-1.57,0.02-3.15,0.18-4.74
							C391.81,175.89,391.66,173.71,392.21,172.1z"/>
					</g>
				</g>
			</g>
			<g>
				<g>
					<g>
						<path class="st3" d="M398.86,206.59c0.74,0.37,0.84,0.53,1.14,0.7c0.29,0.16,0.44,0.27,0.47,0.38
							c0.08,0.23,0.16,0.47,0.23,0.69c0.16,0.49,0.58,0.99,0.58,1.71c-0.04,0.79-0.4,1.4-0.82,2.11c-0.21,0.36-0.48,0.71-0.82,1.01
							c-0.15,0.16-0.63,0.35-0.96,0.24c-0.32-0.11-0.54-0.14-0.99-0.74c-0.08-0.4-0.16-0.62-0.22-0.78
							c-0.06-0.16-0.09-0.24-0.09-0.3c0-0.12,0-0.26-0.02-0.42c-0.05-0.32-0.09-0.69-0.22-1.05c-0.08-0.43,0.23-0.96,0.25-1.61
							c0-0.32,0.05-0.67,0.11-1.04c0.03-0.18,0.17-0.37,0.43-0.51C398.21,206.85,398.22,206.58,398.86,206.59z"/>
					</g>
				</g>
			</g>
			<g>
				<g>
					<g>
						<path class="st3" d="M271.79,57.46c-0.73,0.87-1.36,1.32-1.67,1.96c-0.3,0.61-0.5,1.14-0.68,1.61
							c-0.37,0.94-0.14,1.97,0.45,2.88c1.25,1.83,3.7,2.19,6.19,2.2c1.23,0.01,2.27-0.13,3.11-0.5c0.82-0.35,1.52-0.99,2.02-2.11
							c0.49-1.11,0.75-2.49,0.87-3.87c0.08-0.7,0.13-1.8,0-2.39c-0.05-0.32-0.16-0.58-0.3-0.88c-0.15-0.29-0.33-0.63-0.74-1.04
							c0.99-0.31,2.1,0.23,2.75,1c0.71,0.82,0.95,1.82,1.03,2.7c0.07,0.89,0.05,1.63,0.01,2.46c-0.05,0.81-0.15,1.65-0.36,2.5
							c-0.2,0.85-0.54,1.72-1.04,2.55c-0.5,0.82-1.22,1.59-2.05,2.15c-1.67,1.13-3.55,1.49-5.27,1.57
							c-1.72,0.03-3.36-0.27-4.95-0.98c-1.57-0.7-3.09-1.91-4.05-3.57c-0.49-0.83-0.83-1.77-0.93-2.79c-0.1-1,0.08-2.1,0.52-3.02
							c0.43-0.93,1.18-1.66,2.07-2.05c0.44-0.2,0.94-0.44,1.48-0.56C270.78,57.16,271.36,57.18,271.79,57.46z"/>
					</g>
				</g>
			</g>
			<g>
				<g>
					<g>
						<path class="st3" d="M277.71,58.29c0.82,0.07,0.99,0.29,1.32,0.45c0.33,0.16,0.51,0.35,0.55,0.56
							c0.09,0.41,0.18,0.85,0.18,1.33c0,0.48,0.01,1.01-0.14,1.59c-0.14,0.57-0.48,1.2-1.02,1.64c-0.56,0.44-1.15,0.59-1.61,0.64
							c-0.48,0.05-0.87,0.01-1.27,0c-0.42,0-0.88-0.04-1.37-0.14c-0.24-0.04-0.76-0.32-0.9-0.68c-0.13-0.34-0.27-0.57,0.02-1.27
							c0.33-0.25,0.48-0.44,0.59-0.57c0.11-0.14,0.19-0.2,0.28-0.23c0.18-0.06,0.42-0.16,0.68-0.28c0.62-0.26,1.08-0.53,0.96-0.65
							c-0.01-0.04,0.05,0.01,0.18-0.04c0.12-0.05,0.28-0.19,0.33-0.41c0.05-0.22,0.11-0.49,0.14-0.78c0.01-0.15,0.12-0.3,0.34-0.48
							C277.19,58.76,277.11,58.54,277.71,58.29z"/>
					</g>
				</g>
			</g>
			<g>
				<g>
					<g>
						<path class="st3" d="M346.73,231.85c0.81,1,0.95,2.24,1.27,3.24c0.31,1,0.48,2,0.51,3c0.08,2,0.17,4,0.23,6
							c0.14,4,0.49,7.76,0.48,11.75c-0.04,4-0.34,7.24-0.52,11.24c-0.08,2-0.18,4-0.27,6c-0.04,1-0.25,2.98-0.54,3.98
							c-0.29,1-0.43,1.78-1.16,2.78c-0.39-1-0.61-2-0.77-3c-0.16-1-0.24-2-0.27-3l-0.22-6c-0.16-4-0.25-8-0.37-11.99
							c-0.07-4,0.29-7.61,0.35-11.61c0.02-2,0.07-4,0.11-6c0.02-1,0.14-2,0.37-3C346.16,234.23,346.11,232.85,346.73,231.85z"/>
					</g>
				</g>
			</g>
			<g>
				<g>
					<g>
						<path class="st3" d="M176.56,217.86c0.81,1.86,0.95,4.18,1.27,6.04c0.31,1.86,0.48,3.73,0.51,5.59
							c0.08,3.73,0.17,7.46,0.23,11.18c0.14,7.45,0.49,14.46,0.48,21.92c-0.04,7.45-0.34,13.49-0.52,20.95
							c-0.08,3.73-0.18,7.45-0.27,11.18c-0.04,1.86-0.25,5.55-0.54,7.42c-0.29,1.86-0.43,3.32-1.16,5.18
							c-0.39-1.86-0.61-3.73-0.77-5.59c-0.16-1.86-0.24-3.73-0.28-5.59l-0.22-11.18c-0.16-7.45-0.25-14.91-0.37-22.36
							c-0.07-7.45,0.29-14.19,0.35-21.65c0.02-3.73,0.07-7.45,0.11-11.18c0.02-1.86,0.14-3.73,0.37-5.59
							C175.99,222.31,175.94,219.73,176.56,217.86z"/>
					</g>
				</g>
			</g>
			<g>
				<g>
					<g>
						<path class="st3" d="M372.13,51.91c0.81,1.43,0.95,3.2,1.27,4.62c0.31,1.43,0.48,2.85,0.51,4.28
							c0.08,2.85,0.17,5.71,0.23,8.56c0.14,5.71,0.49,11.07,0.48,16.78c-0.04,5.71-0.34,10.33-0.52,16.04
							c-0.08,2.85-0.18,5.71-0.27,8.56c-0.04,1.43-0.25,4.25-0.54,5.68c-0.29,1.43-0.43,2.54-1.16,3.97
							c-0.39-1.43-0.61-2.85-0.77-4.28c-0.16-1.43-0.24-2.85-0.27-4.28l-0.22-8.56c-0.16-5.71-0.25-11.41-0.37-17.12
							c-0.07-5.71,0.29-10.86,0.35-16.57c0.02-2.85,0.07-5.71,0.11-8.56c0.02-1.43,0.14-2.85,0.37-4.28
							C371.56,55.31,371.51,53.34,372.13,51.91z"/>
					</g>
				</g>
			</g>
			<g>
				<g>
					<g>
						<path class="st3" d="M426.42,124.71c0.81,1.63,0.95,3.66,1.27,5.29c0.31,1.63,0.48,3.27,0.51,4.9
							c0.08,3.27,0.17,6.53,0.23,9.79c0.14,6.53,0.49,12.67,0.48,19.19c-0.04,6.53-0.34,11.82-0.52,18.35
							c-0.08,3.26-0.18,6.53-0.27,9.79c-0.04,1.63-0.25,4.86-0.54,6.5c-0.29,1.63-0.43,2.91-1.16,4.54
							c-0.39-1.63-0.61-3.27-0.77-4.9c-0.16-1.63-0.24-3.27-0.27-4.9l-0.22-9.79c-0.16-6.53-0.25-13.06-0.37-19.59
							c-0.07-6.53,0.29-12.43,0.35-18.96c0.02-3.26,0.07-6.53,0.11-9.79c0.02-1.63,0.14-3.26,0.37-4.9
							C425.85,128.6,425.8,126.34,426.42,124.71z"/>
					</g>
				</g>
			</g>
			<g>
				<g>
					<g>
						<path class="st3" d="M442.46,161.72c0.81,1.22,0.95,2.74,1.27,3.96c0.31,1.22,0.48,2.44,0.51,3.66
							c0.08,2.44,0.17,4.88,0.23,7.33c0.14,4.88,0.49,9.47,0.48,14.36c-0.04,4.88-0.34,8.84-0.52,13.72
							c-0.08,2.44-0.18,4.88-0.27,7.33c-0.04,1.22-0.25,3.64-0.54,4.86c-0.29,1.22-0.43,2.17-1.16,3.39
							c-0.39-1.22-0.61-2.44-0.77-3.66c-0.16-1.22-0.24-2.44-0.27-3.66l-0.22-7.33c-0.16-4.88-0.25-9.77-0.37-14.65
							c-0.07-4.88,0.29-9.3,0.35-14.18c0.02-2.44,0.07-4.88,0.11-7.33c0.02-1.22,0.14-2.44,0.37-3.66
							C441.89,164.64,441.84,162.95,442.46,161.72z"/>
					</g>
				</g>
			</g>
			<g>
				<g>
					<g>
						<path class="st3" d="M83.41,42.66c0.81,1.56,0.95,3.49,1.27,5.04c0.31,1.56,0.48,3.11,0.51,4.67
							c0.08,3.11,0.17,6.22,0.23,9.33c0.14,6.22,0.49,12.07,0.48,18.29c-0.04,6.22-0.34,11.26-0.52,17.48
							c-0.08,3.11-0.18,6.22-0.27,9.33c-0.04,1.55-0.25,4.63-0.54,6.19c-0.29,1.55-0.43,2.77-1.16,4.32
							c-0.39-1.56-0.61-3.11-0.77-4.67c-0.16-1.56-0.24-3.11-0.27-4.67l-0.22-9.33c-0.16-6.22-0.25-12.44-0.37-18.66
							c-0.07-6.22,0.29-11.84,0.35-18.06c0.02-3.11,0.07-6.22,0.11-9.33c0.02-1.55,0.14-3.11,0.37-4.67
							C82.84,46.37,82.79,44.21,83.41,42.66z"/>
					</g>
				</g>
			</g>
			<g>
				<g>
					<g>
						<path class="st3" d="M92.66,100.65c0.81,0.53,0.95,1.18,1.27,1.71c0.31,0.53,0.48,1.05,0.51,1.58
							c0.08,1.05,0.17,2.11,0.23,3.16c0.14,2.11,0.49,4.09,0.48,6.2c-0.04,2.11-0.34,3.82-0.52,5.92c-0.08,1.05-0.18,2.11-0.27,3.16
							c-0.04,0.53-0.25,1.57-0.54,2.1c-0.29,0.53-0.43,0.94-1.16,1.46c-0.39-0.53-0.61-1.05-0.77-1.58
							c-0.16-0.53-0.24-1.05-0.27-1.58l-0.22-3.16c-0.16-2.11-0.25-4.22-0.37-6.32c-0.07-2.11,0.29-4.01,0.35-6.12
							c0.02-1.05,0.07-2.11,0.11-3.16c0.02-0.53,0.14-1.05,0.37-1.58C92.09,101.91,92.04,101.18,92.66,100.65z"/>
					</g>
				</g>
			</g>
			<g>
				<g>
					<g>
						<path class="st3" d="M62.42,199.35c0.8,0.61,0.92,1.34,1.24,1.94c0.31,0.59,0.47,1.18,0.5,1.77c0.08,1.18,0.17,2.35,0.25,3.53
							c0.17,2.35,0.6,4.54,0.69,6.88c0.07,2.34-0.1,4.26-0.09,6.62c0.01,1.18,0.03,2.36,0.04,3.54c0.01,0.59-0.07,1.77-0.29,2.39
							c-0.22,0.62-0.31,1.09-0.97,1.77c-0.46-0.54-0.74-1.11-0.97-1.68c-0.22-0.57-0.36-1.16-0.46-1.75l-0.55-3.54
							c-0.36-2.37-0.6-4.75-0.84-7.13c-0.18-2.39,0.11-4.56,0.13-6.95c0-1.19,0.05-2.39,0.09-3.58c0.02-0.6,0.15-1.19,0.38-1.79
							C61.82,200.75,61.79,199.93,62.42,199.35z"/>
					</g>
				</g>
			</g>
			<g>
				<g>
					<g>
						<path class="st3" d="M237.64,106.82c0.81,1.53,0.95,3.43,1.27,4.96c0.31,1.53,0.48,3.06,0.51,4.59
							c0.08,3.06,0.17,6.12,0.23,9.18c0.14,6.12,0.49,11.87,0.48,17.99c-0.04,6.12-0.34,11.07-0.52,17.19
							c-0.08,3.06-0.18,6.12-0.27,9.18c-0.04,1.53-0.25,4.56-0.54,6.09c-0.29,1.53-0.43,2.72-1.16,4.25
							c-0.39-1.53-0.61-3.06-0.77-4.59c-0.16-1.53-0.24-3.06-0.27-4.59l-0.22-9.18c-0.16-6.12-0.25-12.24-0.37-18.35
							c-0.07-6.12,0.29-11.65,0.35-17.77c0.02-3.06,0.07-6.12,0.11-9.18c0.02-1.53,0.14-3.06,0.37-4.59
							C237.07,110.47,237.02,108.35,237.64,106.82z"/>
					</g>
				</g>
			</g>
			<g>
				<g>
					<g>
						<path class="st3" d="M246.27,171.6c0.81,0.59,0.95,1.32,1.27,1.92c0.31,0.59,0.48,1.18,0.51,1.77
							c0.08,1.18,0.17,2.37,0.23,3.55c0.14,2.36,0.49,4.59,0.48,6.95c-0.04,2.36-0.34,4.28-0.52,6.65
							c-0.08,1.18-0.18,2.36-0.27,3.55c-0.04,0.59-0.25,1.76-0.54,2.35c-0.29,0.59-0.43,1.05-1.16,1.64
							c-0.39-0.59-0.61-1.18-0.77-1.77c-0.16-0.59-0.24-1.18-0.27-1.77l-0.22-3.55c-0.16-2.36-0.25-4.73-0.37-7.09
							c-0.07-2.36,0.29-4.5,0.35-6.87c0.02-1.18,0.07-2.36,0.11-3.55c0.02-0.59,0.14-1.18,0.37-1.77
							C245.71,173.01,245.66,172.19,246.27,171.6z"/>
					</g>
				</g>
			</g>
			<g>
				<g>
					<g>
						<path class="st3" d="M237.64,26.62c0.81,0.62,0.95,1.38,1.27,2c0.31,0.62,0.48,1.23,0.51,1.85c0.08,1.23,0.17,2.47,0.23,3.7
							c0.14,2.47,0.49,4.79,0.48,7.25c-0.04,2.47-0.34,4.47-0.52,6.93c-0.08,1.23-0.18,2.47-0.27,3.7
							c-0.04,0.62-0.25,1.84-0.54,2.46c-0.29,0.62-0.43,1.1-1.16,1.72c-0.39-0.62-0.61-1.23-0.77-1.85
							c-0.16-0.62-0.24-1.23-0.27-1.85l-0.22-3.7c-0.16-2.47-0.25-4.94-0.37-7.4c-0.07-2.47,0.29-4.7,0.35-7.17
							c0.02-1.23,0.07-2.47,0.11-3.7c0.02-0.62,0.14-1.23,0.37-1.85C237.07,28.09,237.02,27.23,237.64,26.62z"/>
					</g>
				</g>
			</g>
			<polygon class="st45" points="120.22,342.06 8.15,342.06 105.79,23.69 217.85,23.69 			"/>
			<polygon class="st45" points="502.6,342.06 390.54,342.06 488.17,23.69 600.24,23.69 			"/>
			<polygon class="st45" points="251.28,342.06 228.1,342.06 325.73,23.69 348.92,23.69 			"/>
			<polygon class="st45" points="288.64,342.06 265.46,342.06 363.09,23.69 386.27,23.69 			"/>
			<path class="st1" d="M-24.18-11.53v455.15h567.55V-11.53H-24.18z M472.22,171.81c0,78.41-63.56,141.97-141.97,141.97H168.78
				c-78.41,0-141.97-63.56-141.97-141.97v0c0-78.41,63.56-141.97,141.97-141.97h161.48C408.66,29.84,472.22,93.41,472.22,171.81
				L472.22,171.81z"/>
			<rect x="-0.12" y="333.41" class="st19" width="499.27" height="6.29"/>
			<path class="st19" d="M352.28,353.85H146.75c-9.91,0-17.94,8.03-17.94,17.94v0c0,9.91,8.03,17.94,17.94,17.94h205.53
				c9.91,0,17.94-8.03,17.94-17.94v0C370.22,361.88,362.19,353.85,352.28,353.85z"/>
			<g>
				<path class="st46" d="M167.86,379.1l-0.16-0.38c-0.94-2.2-2.22-4.25-3.8-6.05l-1.08-1.23l0.77-0.78
					c1.75-1.77,3.19-3.82,4.27-6.06h0l0,0c1.15,2.31,2.67,4.43,4.48,6.27l0.56,0.57l-0.86,0.99c-1.64,1.87-2.98,3.98-3.99,6.25
					L167.86,379.1z"/>
				<path class="st46" d="M331.17,379.1l-0.16-0.38c-0.94-2.2-2.22-4.25-3.8-6.05l-1.08-1.23l0.77-0.78
					c1.75-1.77,3.19-3.82,4.27-6.06l0,0l0,0c1.15,2.31,2.67,4.43,4.48,6.27l0.56,0.57l-0.86,0.99c-1.64,1.87-2.98,3.98-3.99,6.25
					L331.17,379.1z"/>
			</g>
			<g>
				<path class="st3" d="M183.71,365.59c0.6-0.08,3.08-0.08,3.79,0c0.06,0.62,0.06,11.3,0,11.92c-0.57,0.04-1.81,0.04-2.4,0
					c-0.01-1.01-0.01-8.47,0-9.49c-0.45,0.03-0.91,0.03-1.39,0C183.65,367.58,183.65,366.03,183.71,365.59z M188.06,365.59
					c0.51-0.08,3.08-0.08,3.78,0c0.08,0.62,0.08,11.3,0,11.92c-0.56,0.04-1.8,0.04-2.39,0c-0.03-1.01-0.03-8.47,0-9.49
					c-0.39,0.03-0.94,0.03-1.39,0C188.02,367.58,188.02,366.03,188.06,365.59z M192.93,365.27c0.51-0.09,1.92-0.09,2.43,0
					c0.03,0.3,0.05,2.27,0.05,4.56h1.03c0-2.33,0.01-4.32,0.03-4.62c0.51-0.09,1.96-0.09,2.48,0c0.09,0.76,0.09,12.05,0,12.79
					c-0.45,0.11-1.89,0.11-2.48,0c-0.02-0.35-0.03-3.02-0.03-5.83h-1.03c0,2.72-0.02,5.29-0.05,5.63c-0.45,0.09-1.86,0.09-2.43,0
					C192.87,377.05,192.87,366.03,192.93,365.27z"/>
				<path class="st3" d="M203.5,373.49c0.57-0.08,2.27-0.08,2.84,0c1.3,1.09,3.14,2.73,3.61,3.16c-0.39,0.68-1.18,1.54-1.75,1.93
					c-0.66-0.5-2.4-2.02-3.28-2.95c-0.88,0.92-2.61,2.45-3.28,2.95c-0.57-0.39-1.36-1.25-1.75-1.93
					C200.36,376.22,202.2,374.58,203.5,373.49z M200,370.48c0.77-0.05,8.93-0.05,9.86,0c0.06,0.72,0.08,1.78,0,2.43
					c-0.94,0.03-9.09,0.03-9.86,0C199.92,372.23,199.92,371.19,200,370.48z M200.43,365.39c0.6-0.08,3.32-0.08,4.05,0
					c0.04,0.65,0.04,3.53,0,4.49c-0.63,0.06-1.89,0.06-2.52,0v-2.28c-0.53,0.03-0.95,0.03-1.53,0
					C200.37,367.22,200.37,365.87,200.43,365.39z M205.1,365.39c0.7-0.08,3.46-0.08,4.18,0c0.06,0.65,0.06,3.53,0,4.49
					c-0.62,0.06-1.89,0.06-2.52,0v-2.28c-0.68,0.03-1.13,0.03-1.66,0C205.06,367.22,205.06,365.87,205.1,365.39z"/>
				<path class="st3" d="M210.68,366.13c0.36-0.03,1.78-0.05,3.4-0.05c0-0.39,0.01-0.82,0.04-1.21c0.54-0.08,2.13-0.08,2.67,0
					c0.03,0.39,0.04,0.82,0.04,1.21c1.5,0.02,2.78,0.02,3.14,0.05c0.09,0.3,0.09,1.87,0,2.28c-0.98,0.04-8.41,0.04-9.31,0
					C210.57,368.05,210.57,366.48,210.68,366.13z M215.47,368.82c2.87,0,4.62,1.66,4.62,4.46c0,2.79-1.75,4.46-4.62,4.46
					s-4.62-1.66-4.62-4.46C210.84,370.48,212.6,368.82,215.47,368.82z M215.47,375.57c1.34,0,2.17-0.86,2.17-2.3
					c0-1.42-0.83-2.3-2.17-2.3c-1.34,0-2.18,0.88-2.18,2.3C213.29,374.71,214.12,375.57,215.47,375.57z M220.65,365.21
					c0.51-0.09,1.99-0.09,2.51,0c0.05,0.32,0.08,2.43,0.08,4.85c0.53,0,1.04,0.03,1.3,0.06c0.08,0.33,0.08,2.04,0,2.37
					c-0.26,0.03-0.77,0.04-1.3,0.04c0,2.67-0.03,5.14-0.08,5.47c-0.44,0.11-1.92,0.11-2.51,0
					C220.56,377.26,220.56,365.97,220.65,365.21z"/>
				<path class="st3" d="M224.89,365.59c0.75-0.08,4.14-0.08,4.89,0c0.03,0.24,0.04,2.08,0.06,4.25h1.1c0-2.3,0.01-4.26,0.04-4.56
					c0.51-0.09,1.92-0.09,2.43,0c0.06,0.75,0.06,11.78,0,12.54c-0.45,0.09-1.86,0.09-2.43,0c-0.03-0.35-0.04-2.92-0.04-5.63h-1.1
					c0,2.6-0.03,5.05-0.06,5.33c-0.6,0.04-1.9,0.04-2.52,0c-0.03-1.01-0.03-8.47,0-9.49c-0.62,0.03-1.69,0.03-2.37,0
					C224.83,367.58,224.83,366.03,224.89,365.59z M234.32,365.21c0.51-0.09,1.96-0.09,2.48,0c0.09,0.76,0.09,12.05,0,12.79
					c-0.45,0.11-1.89,0.11-2.48,0C234.27,377.26,234.27,365.97,234.32,365.21z"/>
				<path class="st3" d="M242.75,365.57c0.48-0.08,2.01-0.08,2.48,0c0.59,2.12,2.54,10.62,2.63,11.3c-0.42,0.2-1.83,0.53-2.43,0.53
					c-0.14-0.39-1.1-4.8-1.39-7.1c-0.36,2.15-1.39,6.83-1.54,7.24c-0.54,0-1.98-0.35-2.42-0.57
					C240.12,376.3,242.16,367.69,242.75,365.57z M247.16,369.47c0.35-0.01,0.86-0.01,1.42-0.01c0.01-2.13,0.01-3.9,0.04-4.18
					c0.51-0.09,1.92-0.09,2.43,0c0.06,0.75,0.06,11.78,0,12.54c-0.45,0.09-1.86,0.09-2.43,0c-0.03-0.36-0.04-3.16-0.04-6.01
					c-0.56,0-1.07-0.02-1.42-0.03C247.08,371.45,247.08,369.8,247.16,369.47z M251.87,365.21c0.51-0.09,1.96-0.09,2.48,0
					c0.09,0.76,0.09,12.05,0,12.79c-0.45,0.11-1.89,0.11-2.48,0C251.83,377.26,251.83,365.97,251.87,365.21z"/>
				<path class="st3" d="M256.99,368.41c-0.71,0-1.25-0.02-1.45-0.03c-0.08-0.32-0.08-1.89,0-2.22c0.32-0.03,1.3-0.06,2.46-0.06
					c0-0.48,0.02-1,0.05-1.33c0.51-0.08,2.11-0.08,2.64,0c0.03,0.33,0.04,0.85,0.04,1.33c1.13,0,2.07,0.03,2.34,0.06
					c0.08,0.3,0.08,1.84,0,2.22c-0.21,0.01-0.73,0.01-1.38,0.03c0.63,1.28,1.47,3.01,1.63,3.49c-0.35,0.33-1.62,1-2.13,1.13
					c-0.32-0.41-1.24-2.43-1.86-3.84c-0.62,1.4-1.54,3.43-1.86,3.84c-0.51-0.14-1.78-0.8-2.13-1.13
					C255.53,371.42,256.36,369.7,256.99,368.41z M255.94,373.61c0.77-0.08,10.97-0.08,11.72,0c0.08,0.63,0.08,3.94,0,4.56
					c-0.6,0.05-1.96,0.05-2.6,0c-0.01-0.45,0-1.71,0-2.28c-0.69,0.01-8.44,0.01-9.12,0C255.89,375.53,255.89,374.05,255.94,373.61z
					 M263.49,367.96c0.45-0.03,1.06-0.04,1.62-0.03c0.01-1.31,0.03-2.43,0.06-2.72c0.51-0.09,1.98-0.09,2.49,0
					c0.11,0.76,0.11,7.12,0,7.87c-0.44,0.06-1.9,0.06-2.49,0c-0.03-0.29-0.05-1.48-0.06-2.84c-0.56,0-1.16-0.01-1.62-0.03
					C263.41,369.56,263.43,368.49,263.49,367.96z"/>
				<path class="st3" d="M268.73,370.97c0.77-0.05,9.99-0.05,10.92,0c0.06,0.74,0.08,1.51,0,2.17c-0.39,0.02-2.19,0.02-4.23,0.02
					v0.42c3.02,0.18,4.12,1.07,4.12,2.48c0,1.59-1.4,2.51-5.36,2.51s-5.36-0.92-5.36-2.51c0-1.39,1.07-2.27,3.99-2.46v-0.44
					c-2.01,0-3.76,0-4.08-0.02C268.66,372.45,268.66,371.69,268.73,370.97z M272.01,367.6c-1.39,0-2.52,0-2.87-0.01
					c-0.08-0.63-0.08-1.75,0-2.31c1.04-0.06,9.15-0.06,10.11,0c0.08,0.6,0.08,1.72,0,2.31c-0.32,0.01-1.46,0.01-2.87,0.01
					c1.18,0.33,2.52,0.73,3.08,0.94c-0.12,0.68-0.51,1.66-0.83,2.15c-1.1-0.3-3.11-0.92-4.44-1.42c-1.31,0.5-3.32,1.12-4.43,1.42
					c-0.32-0.48-0.71-1.47-0.83-2.15C269.49,368.32,270.83,367.93,272.01,367.6z M274.18,376.57c2.34,0,2.76-0.2,2.76-0.51
					s-0.42-0.51-2.76-0.51s-2.76,0.2-2.76,0.51S271.84,376.57,274.18,376.57z"/>
				<path class="st3" d="M284.81,365.15c2.76,0,4.38,1.28,4.38,3.28s-1.62,3.28-4.38,3.28c-2.76,0-4.38-1.28-4.38-3.28
					S282.04,365.15,284.81,365.15z M281.07,372.14c0.44-0.06,1.99-0.06,2.51,0c0.01,0.24,0.01,0.62,0.01,1.03
					c1.48-0.01,4.96-0.03,6.41,0l0.01-1.03c0.54-0.06,1.99-0.06,2.48,0c0.06,0.76,0.08,5.03,0,6.01c-0.72,0.08-10.56,0.09-11.42,0
					C280.98,376.9,281.01,372.91,281.07,372.14z M284.81,369.55c1.33,0,1.92-0.48,1.92-1.12s-0.59-1.12-1.92-1.12
					c-1.33,0-1.92,0.48-1.92,1.12S283.48,369.55,284.81,369.55z M283.58,376.04c0.33,0.03,6.1,0.03,6.43,0L290,375.1
					c-1.45,0.02-4.92,0.02-6.41,0L283.58,376.04z M290,365.21c0.51-0.09,1.98-0.09,2.49,0c0.11,0.76,0.11,5.59,0,6.34
					c-0.44,0.06-1.9,0.06-2.49,0C289.93,370.81,289.93,365.97,290,365.21z"/>
				<path class="st3" d="M293.96,365.57c0.6-0.04,1.93-0.04,2.57,0c0.01,1,0.01,8.43,0,9.43c0.69-0.02,2.3-0.02,2.98,0
					c0.04,0.44,0.04,2.02,0,2.46c-0.77,0.06-4.79,0.06-5.54,0C293.88,376.83,293.88,366.19,293.96,365.57z M300.3,365.21
					c0.53-0.09,1.99-0.09,2.51,0c0.09,0.76,0.09,12.05,0,12.79c-0.45,0.11-1.92,0.11-2.51,0
					C300.21,377.26,300.21,365.97,300.3,365.21z"/>
				<path class="st3" d="M304.2,365.53c0.73-0.06,4.89-0.06,5.92,0c0.06,0.42,0.06,1.8,0,2.36c-0.7,0.02-2.81,0.02-3.31,0
					c-0.04,0.41-0.04,6.71,0,7.25c0.74-0.03,3.22-0.03,3.87,0c0.06,0.41,0.08,1.84,0,2.39c-0.88,0.06-5.48,0.06-6.48,0
					C304.1,376.1,304.1,366.95,304.2,365.53z M311.65,365.21c0.51-0.09,1.99-0.09,2.51,0c0.04,0.32,0.08,2.43,0.08,4.85
					c0.53,0,1.04,0.03,1.3,0.06c0.08,0.33,0.08,2.04,0,2.37c-0.26,0.03-0.77,0.04-1.3,0.04c0,2.67-0.03,5.14-0.08,5.47
					c-0.44,0.11-1.92,0.11-2.51,0C311.56,377.26,311.56,365.97,311.65,365.21z"/>
			</g>
			<path class="st47" d="M326.91,314.04H172.12c-78.68,0-143.06-64.38-143.06-143.06v0c0-78.68,64.38-143.06,143.06-143.06h154.79
				c78.68,0,143.06,64.38,143.06,143.06v0C469.97,249.66,405.59,314.04,326.91,314.04z"/>
		</g>
	</g>
	<g>
		<g>
			<circle class="st19" cx="39.64" cy="38.55" r="27.3"/>
		</g>
	</g>
	<g>
		<g>
			<path class="st17" d="M32.67,23.86c3.12-0.15,11.58-0.15,13.88,0c0.11,1.34,0.11,4.16,0,5.75c-2.26,0.07-4.86,0.07-7.61,0
				c0,1.63,0.04,4.01,0,5.6c5.64-0.15,9.43,3.23,9.43,8.87s-3.53,8.72-10.21,8.94c-1.11,0.04-3.86,0.07-5.08,0
				c-0.11-1.41-0.11-4.38,0-5.79c1.19,0,3.41,0,4.45-0.04c3.12-0.11,4.68-1.19,4.68-3.3s-1.56-3.34-4.68-3.34
				c-1.52,0-3.49,0.07-4.86,0C32.55,38.85,32.52,25.64,32.67,23.86z"/>
			<path class="st28" d="M35.22,53.51c-0.84,0-1.65-0.01-2.17-0.04l-0.39-0.02l-0.03-0.39c-0.11-1.42-0.11-4.44,0-5.86l0.03-0.41
				h0.41c1.19,0,3.41,0,4.44-0.04c3.81-0.14,4.25-1.7,4.25-2.86c0-1.92-1.42-2.9-4.23-2.9c-0.49,0-1.04,0.01-1.59,0.02
				c-1.16,0.02-2.36,0.03-3.3-0.02l-0.39-0.02l-0.03-0.39c-0.12-1.78-0.15-15,0-16.77l0.03-0.39l0.39-0.02
				c3.14-0.15,11.61-0.15,13.93,0l0.38,0.02l0.03,0.38c0.11,1.37,0.11,4.19,0,5.82l-0.03,0.4l-0.4,0.01
				c-2.13,0.07-4.6,0.07-7.18,0.01c0,0.4,0,0.83,0.01,1.28c0.01,1.15,0.02,2.4,0,3.42c2.79,0.02,5.14,0.89,6.82,2.52
				c1.7,1.66,2.6,4,2.6,6.8c0,5.91-3.68,9.16-10.63,9.39C37.5,53.49,36.33,53.51,35.22,53.51z M33.49,52.6
				c1.31,0.05,3.6,0.02,4.65-0.02c6.49-0.22,9.78-3.08,9.78-8.5c0-2.54-0.81-4.67-2.33-6.16c-1.6-1.55-3.92-2.34-6.64-2.27
				l-0.47,0.01l0.01-0.47c0.03-1.08,0.02-2.53,0.01-3.85c0-0.62-0.01-1.22-0.01-1.74v-0.46l0.46,0.01c2.56,0.07,5.03,0.07,7.18,0.01
				c0.08-1.45,0.08-3.61,0-4.9c-2.62-0.12-9.83-0.12-13.04,0c-0.11,2.61-0.09,13.21,0,15.85c0.84,0.03,1.85,0.01,2.83,0
				c0.56-0.01,1.1-0.02,1.6-0.02c4.46,0,5.12,2.37,5.12,3.78c0,2.37-1.72,3.63-5.1,3.75c-0.93,0.03-2.81,0.04-4.05,0.04
				C33.42,49.03,33.42,51.25,33.49,52.6z"/>
		</g>
	</g>
</g>
<g id="레이어_3">
</g>
</svg>
