<?xml version="1.0" encoding="utf-8"?>
<!-- Generator: Adobe Illustrator 25.4.1, SVG Export Plug-In . SVG Version: 6.00 Build 0)  -->
<svg version="1.1" xmlns="http://www.w3.org/2000/svg" xmlns:xlink="http://www.w3.org/1999/xlink" x="0px" y="0px"
	 viewBox="0 0 500 406" style="enable-background:new 0 0 500 406;" xml:space="preserve">
<style type="text/css">
	.st0{clip-path:url(#SVGID_00000094593088700950157190000007505390565070681779_);}
	.st1{fill:#FFCD00;stroke:#FFCE01;stroke-width:0.8895;stroke-miterlimit:10;}
	.st2{fill:#FFFFFF;stroke:#B1C8E5;stroke-width:10;stroke-miterlimit:10;}
	.st3{fill:#FFFFFF;}
	.st4{clip-path:url(#SVGID_00000039113586884248897960000012409897183705917840_);}
	.st5{fill:none;}
	.st6{fill:#FFE0CF;}
	.st7{fill:none;stroke:#FFBDA6;stroke-width:10;stroke-linecap:round;stroke-linejoin:round;stroke-miterlimit:10;}
	.st8{fill:#FFE0CF;stroke:#FFBDA6;stroke-width:10;stroke-linecap:round;stroke-linejoin:round;stroke-miterlimit:10;}
	.st9{fill:#154734;stroke:#154734;stroke-width:0.5219;stroke-miterlimit:10;}
	.st10{clip-path:url(#SVGID_00000097487951768317196990000013040959109544410265_);}
	.st11{fill:#6CC49A;}
	.st12{fill:#154734;stroke:#154734;stroke-width:17.4509;stroke-miterlimit:10;}
	.st13{fill:#0A2117;}
	.st14{fill:#3F4A54;}
	.st15{fill:none;stroke:#216345;stroke-width:17.4509;stroke-linecap:round;stroke-linejoin:round;stroke-miterlimit:10;}
	.st16{fill:none;stroke:#466E5F;stroke-width:2.9085;stroke-miterlimit:10;}
	.st17{fill:#FFCD00;}
	.st18{fill:#FFCD00;stroke:#FFCD00;stroke-width:5.817;stroke-linecap:round;stroke-linejoin:round;stroke-miterlimit:10;}
	.st19{fill:#154734;}
	.st20{fill:none;stroke:#CBEADB;stroke-width:5.817;stroke-linecap:round;stroke-linejoin:round;stroke-miterlimit:10;}
	.st21{fill:none;stroke:#6CC49A;stroke-width:29.1516;stroke-linecap:round;stroke-linejoin:round;stroke-miterlimit:10;}
	.st22{fill:#B0BFD6;}
	.st23{fill:#8595AA;}
	.st24{fill:#6A7989;}
	.st25{fill:none;stroke:#CAD5E0;stroke-width:14.6867;stroke-linecap:round;stroke-linejoin:round;stroke-miterlimit:10;}
	.st26{fill:#FFE0CF;stroke:#FFBDA6;stroke-width:7.5858;stroke-linecap:round;stroke-linejoin:round;stroke-miterlimit:10;}
	.st27{fill:none;stroke:#FFBDA6;stroke-width:6.2177;stroke-linecap:round;stroke-linejoin:round;stroke-miterlimit:10;}
	.st28{fill:#FFCE01;}
	.st29{clip-path:url(#SVGID_00000019657624251612095570000016668272585667152523_);}
	.st30{clip-path:url(#SVGID_00000004509993166527272100000012345017485108501164_);}
	.st31{clip-path:url(#SVGID_00000156556905618706413700000012205817539594946225_);}
	.st32{fill:none;stroke:#8A9AB2;stroke-width:15;stroke-miterlimit:10;}
	.st33{fill:none;stroke:#8A9AB2;stroke-width:12;stroke-miterlimit:10;}
	.st34{fill:none;stroke:#8A9AB2;stroke-width:10;stroke-miterlimit:10;}
	.st35{fill:none;stroke:#8A9AB2;stroke-width:7;stroke-miterlimit:10;}
	.st36{fill:none;stroke:#8A9AB2;stroke-width:5;stroke-miterlimit:10;}
	.st37{fill:none;stroke:#8A9AB2;stroke-width:4;stroke-miterlimit:10;}
	.st38{fill:#D2E4FF;}
	.st39{fill:#8A9AB2;}
	.st40{fill:#637082;stroke:#637082;stroke-width:0.7824;stroke-miterlimit:10;}
	.st41{fill:#637082;}
	.st42{fill:#FFFFFF;stroke:#FFFFFF;stroke-width:3.7482;stroke-miterlimit:10;}
	.st43{fill:#B1E2EF;}
	.st44{fill:none;stroke:#FFFFFF;stroke-width:0.5;stroke-linecap:round;stroke-linejoin:round;stroke-miterlimit:10;}
	.st45{opacity:0.45;fill:#FFFFFF;stroke:#FFFFFF;stroke-width:3.7482;stroke-miterlimit:10;}
	.st46{fill:#FFFFFF;stroke:#FFFFFF;stroke-width:1.2245;stroke-linecap:round;stroke-linejoin:round;stroke-miterlimit:10;}
	.st47{fill:none;stroke:#FFFFFF;stroke-width:10;stroke-miterlimit:10;}
	.st48{clip-path:url(#SVGID_00000020397868835517877970000010981727278457204355_);}
	.st49{fill:#B1C8E5;stroke:#FFFFFF;stroke-width:10;stroke-miterlimit:10;}
	.st50{fill:#F8FBFF;}
	.st51{fill:#154734;stroke:#154734;stroke-width:11.4666;stroke-miterlimit:10;}
	.st52{fill:none;stroke:#466E5F;stroke-width:1.9111;stroke-miterlimit:10;}
	.st53{fill:#FFCD00;stroke:#FFCD00;stroke-width:3.8222;stroke-linecap:round;stroke-linejoin:round;stroke-miterlimit:10;}
	.st54{fill:none;stroke:#216345;stroke-width:11.4666;stroke-linecap:round;stroke-linejoin:round;stroke-miterlimit:10;}
	.st55{fill:none;stroke:#CBEADB;stroke-width:3.8222;stroke-linecap:round;stroke-linejoin:round;stroke-miterlimit:10;}
	.st56{fill:none;stroke:#6CC49A;stroke-width:19.2499;stroke-linecap:round;stroke-linejoin:round;stroke-miterlimit:10;}
	.st57{fill:#216345;stroke:#216345;stroke-width:21.0221;stroke-linecap:round;stroke-linejoin:round;stroke-miterlimit:10;}
	.st58{fill:none;stroke:#6CC49A;stroke-width:28.6664;stroke-linecap:round;stroke-linejoin:round;stroke-miterlimit:10;}
	.st59{fill:#154734;stroke:#154734;stroke-width:1.8259;stroke-miterlimit:10;}
	.st60{fill:none;stroke:#466E5F;stroke-width:2.3505;stroke-miterlimit:10;}
</style>
<g id="레이어_2">
</g>
<g id="레이어_1">
	<g>
		<defs>
			<rect id="SVGID_00000140736565100616534470000007558445834283903915_" x="0" y="0" width="500" height="406.51"/>
		</defs>
		<clipPath id="SVGID_00000086674832417328512270000016994978241345326729_">
			<use xlink:href="#SVGID_00000140736565100616534470000007558445834283903915_"  style="overflow:visible;"/>
		</clipPath>
		<g style="clip-path:url(#SVGID_00000086674832417328512270000016994978241345326729_);">
			<rect x="0" y="0" class="st1" width="500" height="406.51"/>
			<g>
				<g>
					<path class="st11" d="M434.72,206.61L81.33,210.6c-8.06,0.09-14.66-6.37-14.75-14.42l-0.16-14.21
						c-0.09-8.06,6.37-14.66,14.42-14.75l146.84-12.63c21.07-1.81,42.25-2.03,63.35-0.66l143.19,9.31
						c8.06-0.09,14.66,6.37,14.75,14.42l0.16,14.21C449.23,199.92,442.77,206.52,434.72,206.61z"/>
					<g>
						<g>
							<path class="st11" d="M434.69,204.16c-17.19,4.9-38.58,5.93-55.79,8.01c-17.23,2.01-34.46,3.16-51.69,3.57
								c-34.49,0.84-68.97,1.67-103.46,2.51c-34.41,0.78-67.78,1.87-101.15,2.86c-8.34,0.24-16.69,0.47-25.05,0.71
								c-4.18,0.11-8.36,0.22-12.55,0.33l-3.14,0.08l-0.4,0.01l-0.7-0.01l-1.41-0.05c-0.94-0.03-1.88-0.2-2.81-0.32
								c-3.74-0.62-7.34-2.11-10.45-4.27c-3.12-2.16-5.76-4.98-7.71-8.27c-1.96-3.27-3.18-7.03-3.54-10.83l-0.1-1.43l-0.04-0.71
								l-0.01-0.41l-0.03-1.58l-0.06-3.17c-0.04-2.12-0.08-4.24-0.11-6.36l-0.03-1.59l-0.01-0.8l0-0.45l0.02-0.72
								c0.03-0.96,0.06-1.92,0.21-2.89c0.12-0.96,0.28-1.92,0.53-2.86c0.91-3.79,2.67-7.37,5.1-10.4c2.44-3.02,5.55-5.51,9.07-7.23
								c3.52-1.72,7.46-2.65,11.35-2.69l-0.9,0.04c0.14-0.01,0.29-0.02,0.44-0.04c34.37-2.83,65.52-5.01,96.67-7.1
								c15.58-1.03,31.15-2.07,47.14-3.13c2.02-0.13,4.05-0.26,6.09-0.39c2.06-0.12,4.13-0.24,6.2-0.32
								c4.15-0.2,8.34-0.32,12.56-0.39c8.45-0.15,17.06-0.05,25.86,0.29c4.4,0.17,8.8,0.41,13.19,0.72l12.97,1.02l25.79,2.08
								l51.58,4.18c13.85,1.1,38.62,3.53,56.27,5.87l-0.4-0.01c3.23,0.12,6.12,1.02,8.47,2.3c2.35,1.28,4.17,2.92,5.53,4.61
								c1.75,2.18,2.95,4.63,3.59,7.14c0.15,0.63,0.26,1.26,0.37,1.88c0.07,0.63,0.12,1.26,0.17,1.88
								c-0.01,0.62-0.02,1.23-0.03,1.84c-0.04,0.5-0.08,1-0.12,1.49c-0.33,3.96-0.68,7.8-1.11,11.64c-0.1,0.91-0.23,2.03-0.47,3.07
								c-0.25,1.04-0.6,2.05-1.06,2.99c-0.91,1.9-2.22,3.56-3.8,4.84C442.56,204.26,438.31,205.21,434.69,204.16
								c3.61-0.62,6.55-2.8,8.15-5.54c0.79-1.38,1.26-2.87,1.39-4.34c0.08-0.73,0.04-1.47-0.03-2.19l-0.3-3.14l-0.58-6.46
								l-0.27-3.23l-0.13-1.59c-0.07-0.31-0.1-0.63-0.18-0.93c-0.61-2.41-2.24-4.43-4.31-5.4c-1.31-0.65-2.73-0.86-4.11-0.75
								l-0.56-0.02c-14.49-0.27-28.96-0.86-43.42-1.64l-103.26-5.41c-16.83-0.72-33.69-0.42-50.45,0.87
								c-8.28,0.67-17,1.59-25.55,2.39l-25.75,2.47l-103.01,9.84c-0.15,0.01-0.3,0.03-0.44,0.04l-0.89,0.04
								c-0.8,0.05-1.44,0.41-1.97,1c-0.23,0.31-0.39,0.64-0.47,0.98c-0.01,0.04-0.03,0.08-0.05,0.13c0,0.05,0,0.09-0.01,0.14
								c-0.04,0.09-0.02,0.19-0.02,0.28c-0.02-0.09-0.01,0.64-0.01,1.13l0.01,1.58c0.03,3.95,0.07,7.87,0.1,11.79
								c0.02,0.39,0.1,0.73,0.26,1.07c0.17,0.33,0.43,0.64,0.74,0.89c0.31,0.25,0.64,0.42,1.01,0.53c0.09,0.05,0.19,0.02,0.28,0.06
								c0.1,0.02,0.21,0,0.31,0.03l2.98,0.01c4.12,0,8.24,0.01,12.35,0.01c8.22,0.03,16.41,0.06,24.6,0.08
								c32.76,0.14,65.53,0.38,99.95,0.15c34.49-0.18,68.98-0.35,103.48-0.53c17.23-0.08,34.49,0.41,51.75,1.57
								C393.52,201.31,417.4,200.75,434.69,204.16z"/>
						</g>
					</g>
				</g>
				<path class="st12" d="M411.97,633.22H87.06C60.52,633.22,39,611.7,39,585.16V253.3c0-26.55,21.52-48.07,48.07-48.07h324.9
					c26.55,0,48.07,21.52,48.07,48.07v331.86C460.03,611.7,438.51,633.22,411.97,633.22z"/>
				<g>
					<path class="st13" d="M428.93,255.14H81.51c-9.42,0-17.05-7.63-17.05-17.05v-10.08c0-9.42,7.63-17.05,17.05-17.05h347.42
						c9.42,0,17.05,7.63,17.05,17.05v10.08C445.98,247.51,438.34,255.14,428.93,255.14z"/>
					<g>
						<g>
							<path class="st13" d="M428.93,252.69c-17.13,4.7-38.38,5.5-55.5,7.38c-17.13,1.81-34.26,2.78-51.38,2.99
								c-34.26,0.45-68.51,0.89-102.77,1.34c-34.25,0.39-67.48,1.11-100.7,1.72c-8.31,0.14-16.61,0.28-24.93,0.43l-6.24,0.1
								l-3.12,0.05l-1.56,0.02l-0.78,0.01l-0.39,0.01l-0.63-0.01c-6.99-0.01-14.03-2.86-19.16-7.68
								c-5.18-4.77-8.53-11.62-9.08-18.74l-0.08-1.33c-0.02-0.43-0.04-0.96-0.04-1.14l-0.01-1.58l-0.02-3.16l-0.02-3.16l-0.01-1.58
								l0-0.44l0.02-0.67l0.06-1.34c0.47-7.18,3.8-14.19,9.1-19.11c2.64-2.47,5.75-4.46,9.14-5.8c3.39-1.35,7.06-2.04,10.68-2.04
								c68.51,0.26,124,1.98,192.51,3c34.25,0.53,68.51,1.06,102.76,1.6c8.56,0.12,21.32,0.48,34.08,1.02
								c3.19,0.15,6.38,0.29,9.5,0.44c1.56,0.08,3.11,0.16,4.63,0.24c0.76,0.04,1.51,0.09,2.26,0.13c0.37,0.02,0.75,0.04,1.12,0.06
								l0.55,0.03l0.72,0.06c3.85,0.31,7.42,1.57,10.2,3.44c2.81,1.85,4.9,4.16,6.31,6.45c1.41,2.28,2.34,4.74,2.8,7.18
								c0.25,1.22,0.33,2.45,0.36,3.64c-0.02,0.6-0.04,1.19-0.05,1.78c-0.05,0.49-0.09,0.99-0.14,1.48c-0.2,1.96-0.39,3.9-0.59,5.82
								c-0.11,0.96-0.21,1.92-0.32,2.88l-0.25,1.6c-0.09,0.53-0.26,1.04-0.39,1.56c-1.19,4.09-3.83,7.61-7.31,9.67
								C436.82,253.13,432.61,253.76,428.93,252.69c3.69-0.58,6.85-2.5,8.93-5.09c2.1-2.59,3.06-5.77,2.87-8.76l-0.47-6.1
								l-0.23-3.21l-0.12-1.58c-0.06-0.35-0.12-0.69-0.16-1.03c-0.56-2.69-2.11-5.01-4.19-6.51c-1.03-0.75-2.18-1.29-3.37-1.6
								c-0.29-0.1-0.59-0.14-0.89-0.19l-0.45-0.08l-0.46-0.02l-0.45-0.04c-0.15,0-0.31,0.01-0.46,0.02l-0.45,0.01l-0.11,0l-0.2,0.01
								l-0.4,0.02c-4.28,0.18-8.56,0.33-12.85,0.46c-8.56,0.26-17.13,0.42-25.69,0.52l-102.76,1.28
								c-68.51,0.95-137.01,1.45-205.52,2.14c-1.31,0.05-2.47,0.53-3.4,1.4c-0.93,0.88-1.48,2.02-1.59,3.25c0,0.08,0,0.16-0.01,0.24
								l-0.01,0.12l-0.01,0.07l0,0.2l0,1.57l-0.01,3.13l-0.01,3.13l-0.01,1.56l0,0.39c0,0.08,0,0.12,0,0.12l0.01,0.06
								c0.01,0.08,0.01,0.16,0.01,0.24c0.05,1.24,0.54,2.41,1.42,3.35c0.89,0.94,2.05,1.47,3.33,1.59c0.08,0.01,0.16,0.02,0.24,0.03
								c0.01,0.01,0.14,0.01,0.28,0.01l0.38,0l1.54,0.02l3.07,0.04c2.05,0.03,4.09,0.05,6.14,0.08c8.18,0.12,16.33,0.24,24.48,0.36
								c32.61,0.52,65.21,1.12,99.46,1.28c34.25,0.21,68.51,0.43,102.77,0.64c17.12,0.11,34.25,0.8,51.38,2.15
								C388.08,249.37,411.8,249.09,428.93,252.69z"/>
						</g>
					</g>
				</g>
				<g>
					<path class="st14" d="M429.96,261.39H77.73c-3.88,0-7.03-3.15-7.03-7.03v-8.29c0-3.88,3.15-7.03,7.03-7.03h352.23
						c3.88,0,7.03,3.15,7.03,7.03v8.29C436.98,258.24,433.84,261.39,429.96,261.39z"/>
				</g>
				<path class="st15" d="M441.36,209.68c-12.69-6.09-27.78-7.88-42.47-9.08c-94.15-7.66-189.14,4.13-283.73,1.64
					c-16.55-0.44-33.96-1.17-48.78,4.83"/>
				<g>
					<g>
						<g>
							<path class="st17" d="M198.37,320.66c3.03-0.25,22.98-0.25,27.27,0c0.19,1.64,0.19,7.07,0,9.28c-2.9,0.06-14.33,0.06-16.41,0
								c-0.19,1.64-0.19,5.68,0,7.89c3.09-0.13,16.03-0.13,18.75,0c0.25,1.58,0.25,7.26,0,9.41c-3.66,0.25-25.44,0.25-29.61,0
								C197.92,341.62,197.92,326.28,198.37,320.66z M199.76,350.77c3.35-0.38,39.33-0.38,42.67,0c0.44,3.09,0.44,20.14,0,23.17
								c-3.03,0.32-39.64,0.32-42.67,0C199.31,370.91,199.31,353.87,199.76,350.77z M231.89,365.1c0.13-2.02,0.13-3.47,0-5.43
								c-2.4-0.13-19.25-0.19-21.52,0c-0.13,1.96-0.13,3.41,0,5.43C212.7,365.29,229.55,365.29,231.89,365.1z M232.01,319.84
								c2.15-0.38,8.27-0.38,10.42,0c0.19,1.2,0.25,5.11,0.32,9.72c2.21,0,4.36,0.13,5.43,0.25c0.32,1.39,0.32,8.08,0,9.41
								c-1.07,0.13-3.22,0.25-5.43,0.25c-0.06,4.29-0.13,7.95-0.32,9.09c-1.83,0.25-7.95,0.25-10.42,0
								C231.7,345.47,231.7,323,232.01,319.84z"/>
						</g>
					</g>
					<g>
						<g>
							<path class="st17" d="M251.62,321.29c2.53-0.32,12.31-0.32,15.47,0c0.32,2.59,0.32,47.45,0,50.04
								c-2.52,0.19-8.08,0.19-10.67,0c-0.13-4.23-0.13-35.71,0-39.94c-1.64,0.06-3.22,0.13-4.8,0
								C251.36,329.56,251.36,323.13,251.62,321.29z M269.54,321.29c2.53-0.32,13-0.32,16.16,0c0.32,2.59,0.32,47.45,0,50.04
								c-2.52,0.19-8.08,0.19-10.67,0c-0.13-4.23-0.13-35.71,0-39.94c-2.02,0.06-3.91,0.13-5.49,0
								C269.29,329.56,269.29,323.13,269.54,321.29z M290.19,319.84c2.15-0.38,8.33-0.38,10.48,0c0.44,3.16,0.44,50.35,0,53.45
								c-1.83,0.44-8.02,0.44-10.48,0C289.81,370.2,289.81,323,290.19,319.84z"/>
						</g>
					</g>
				</g>
				<path class="st15" d="M57.98,254.47c13.08,6.16,28.66,8.02,43.83,9.29c97.23,8.12,195.41-3.2,293.12-0.25
					c17.1,0.52,35.07,1.34,50.42-4.59"/>
				<path class="st15" d="M438.33,315.49c0.09,85.27,7.39,172.81-4.98,257.49c-2.65,18.11-9.44,27.66-28.16,29.35
					c-44.37,4.01-89.08,6.7-133.65,5.64"/>
				<path class="st21" d="M98.05,634.04h-0.07c-3.67,0-6.68-3-6.68-6.68V271.34c0-3.67,3-6.68,6.68-6.68h0.07
					c3.67,0,6.68,3,6.68,6.68v356.03C104.73,631.04,101.72,634.04,98.05,634.04z"/>
				<path class="st21" d="M402.22,634.04h-0.07c-3.67,0-6.68-3-6.68-6.68V271.34c0-3.67,3-6.68,6.68-6.68h0.07
					c3.67,0,6.68,3,6.68,6.68v356.03C408.9,631.04,405.9,634.04,402.22,634.04z"/>
			</g>
			<g>
				<path class="st22" d="M195.02,130.64L365.5,84.26c15.54-4.23,32.11,12.36,33.22,33.26l3.28,61.66
					c0.75,14.06-5.95,25.71-16.4,28.56l-145.35,39.54c-10.45,2.84-22.13-3.82-28.6-16.32l-28.41-54.82
					C173.6,157.57,179.48,134.87,195.02,130.64z"/>
				<path class="st14" d="M385.1,135.5l-181.03,49.25c-16.15,4.39-32.3-8.88-32.36-26.61l-0.2-52.31
					c-0.05-11.93,7.42-22.19,18.28-25.15l154.9-42.14c10.87-2.96,22.5,2.11,28.5,12.42l26.33,45.2
					C408.45,111.48,401.26,131.1,385.1,135.5z"/>
				<path class="st23" d="M381.55,122.43l-181.03,49.25c-16.15,4.39-32.03-7.89-31.82-24.63l0.6-49.39
					c0.14-11.26,7.72-21.06,18.59-24.02l154.9-42.14c10.87-2.96,22.37,1.65,28.2,11.29l25.53,42.28
					C405.16,99.4,397.7,118.03,381.55,122.43z"/>
				<g>
					<g>
						<g>
							<path class="st3" d="M207.13,194.87c1.64,0.39,2.69,0.97,3.53,1.61c0.85,0.63,1.5,1.29,2.27,1.82
								c1.54,1.05,2.56,2.2,3.19,3.48c1.26,2.58,2.71,5.05,4.16,7.48c2.98,4.87,6.91,8.56,10.25,12.91c0.82,1.11,1.6,2.17,2.33,3.24
								c0.74,1.06,1.12,1.63,1.2,1.87c0.1,0.28,0.4,0.64,1.06,0.93c0.67,0.28,1.65,0.47,2.84,0.49c1.19,0,2.54-0.1,3.99-0.25
								c1.42-0.14,2.85-0.32,4.27-0.56c1.42-0.23,4.34-0.39,6.09,0.09c1.75,0.49,2.99,0.54,5.46,2.42
								c-0.85,1.94-2.05,3.26-3.34,4.37c-1.3,1.11-2.74,1.89-4.25,2.48c-1.51,0.6-3.03,1.15-4.58,1.66
								c-1.56,0.51-3.04,0.99-4.83,1.42c-1.75,0.43-3.69,0.77-5.92,0.76c-2.2,0-4.78-0.42-7.27-1.65c-1.24-0.61-2.43-1.44-3.31-2.19
								c-0.91-0.76-1.62-1.48-2.22-2.08c-1.16-1.19-2.3-2.37-3.4-3.6c-4.29-5.07-6.4-10.83-9.12-16.7c-1.39-2.94-2.51-6-3.53-9.08
								c-0.51-1.54-0.62-3.22-0.29-5c0.19-0.9,0.09-1.85,0.16-2.85C205.96,196.93,206.23,195.89,207.13,194.87z"/>
						</g>
					</g>
				</g>
				<path class="st14" d="M366.37,134.91c4.78-1.3,9.36,7.6,6.47,12.7c-9.05,15.98-36.09,32.84-70.43,42.18s-66.19,8.52-82.09-0.67
					c-5.07-2.93-5.65-12.92-0.86-14.23L366.37,134.91z"/>
				<path class="st24" d="M364.09,126.52c4.78-1.3,9.36,7.6,6.47,12.7c-9.05,15.98-36.09,32.84-70.43,42.18s-66.19,8.52-82.09-0.67
					c-5.07-2.93-5.65-12.92-0.86-14.23L364.09,126.52z"/>
				<path class="st25" d="M182.78,106.74c0.01,13.98-2.13,24.86,1.06,35.14c1.22,3.93,3.29,7.61,6.39,10.31
					c7.85,6.85,19.24,3.55,28.43,0.85c7.27-2.14,14.36-4.02,21.75-6.54"/>
			</g>
			<g>
				<g>
					<path class="st6" d="M544.96,0.52c15.11,80.06-23.52,162.12-96.56,205.09c-9.97,5.87-20.86,11.15-33.17,12.26
						s-26.34-2.73-34.1-11.9c-12.87-15.2-3.03-35.52,9.69-48.89c23.08-24.27,55.5-43.14,66.84-73.65c0.95-2.56,1.74-5.34,0.84-8.04
						c-1.73-5.21-6.77-24.9-11.99-28c-12.08-7.19-19.69-3.53-18.9-15.71s21.83,1.79,29.79-7.71c11.83-14.12-2.95-31.82,17.17-35.22
						C502.97-16.06,532.04-23.57,544.96,0.52"/>
					<g>
						<g>
							<path class="st6" d="M542.47,0.99c3.65,6.53,6.14,14.41,7.72,22.48c1.57,8.08,2.15,16.31,2.69,23.72
								c0.51,7.43,0.24,14.9-0.49,22.34c-0.82,7.43-2.28,14.79-4.25,22.01c-8.07,28.85-22.57,55.95-42.19,78.77
								c-2.4,2.9-4.99,5.61-7.5,8.38c-1.29,1.35-2.61,2.67-3.92,4l-1.96,1.99l-2.02,1.92c-1.35,1.27-2.7,2.55-4.05,3.82
								c-1.39,1.22-2.78,2.45-4.17,3.67c-1.37,1.24-2.8,2.41-4.24,3.57c-1.44,1.16-2.85,2.35-4.3,3.48
								c-2.95,2.21-5.84,4.5-8.88,6.56c-1.51,1.05-3,2.13-4.53,3.14l-4.63,2.99c-6.15,3.94-12.77,7.74-20.2,10.74
								c-3.71,1.49-7.61,2.77-11.69,3.68c-2.04,0.45-4.11,0.84-6.21,1.1c-1.04,0.15-2.13,0.24-3.22,0.33
								c-1.09,0.11-2.18,0.11-3.27,0.15c-4.36,0.08-8.69-0.31-13.01-1.21c-4.31-0.9-8.6-2.3-12.78-4.36
								c-4.17-2.06-8.26-4.78-11.83-8.46c-1.81-1.85-3.38-3.8-4.82-5.98c-1.42-2.2-2.64-4.58-3.61-7.08
								c-1.89-5.03-2.63-10.49-2.3-15.54c0.29-5.08,1.49-9.78,3.11-14.08c2.75-7.11,6.53-13.03,10.7-18.3
								c1.06-1.31,2.13-2.59,3.25-3.82c1.1-1.24,2.29-2.46,3.33-3.47c1.07-1.06,2.14-2.12,3.21-3.17c1.07-1.04,2.16-2.02,3.23-3.02
								c8.62-7.97,17.23-14.82,25.31-21.72c8.12-6.86,15.62-13.77,22.01-21.37c0.8-0.95,1.5-1.93,2.27-2.9
								c0.75-0.97,1.52-1.94,2.16-2.96c0.67-1.01,1.35-2.02,2.03-3.03c0.62-1.03,1.18-2.09,1.78-3.14l0.9-1.58l0.74-1.64
								c0.49-1.08,0.99-2.17,1.49-3.27l0.26-0.68c0.1-0.27,0.09-0.22,0.12-0.31c0.05-0.13,0.1-0.26,0.13-0.39
								c0.07-0.27,0.07-0.56-0.01-0.85c-0.53-1.93-1.08-3.94-1.65-6c-0.58-2.07-1.19-4.17-1.85-6.24c-0.66-2.07-1.37-4.13-2.13-6.03
								c-0.38-0.95-0.78-1.85-1.17-2.65c-0.5-0.97-0.47-0.94-0.68-1.27c-0.09-0.14-0.21-0.26-0.33-0.38
								c-0.13-0.11-0.29-0.19-0.34-0.24l-0.55-0.33l-0.7-0.35c-0.47-0.23-0.92-0.49-1.43-0.7c-1.97-0.92-4.01-1.59-6.98-2.7
								l-0.55-0.21l-0.64-0.27l-1.31-0.57c-0.52-0.26-1.03-0.53-1.53-0.81l-0.38-0.21c-0.13-0.08-0.29-0.19-0.43-0.28l-0.87-0.6
								l-0.85-0.63c-0.3-0.27-0.6-0.55-0.89-0.83c-0.57-0.58-1.15-1.13-1.61-1.84c-0.47-0.68-0.96-1.4-1.31-2.1
								c-0.32-0.69-0.61-1.39-0.87-2.11l-0.19-0.53l-0.11-0.47l-0.21-0.94l-0.19-0.94l-0.08-0.47l-0.04-0.4l-0.12-1.59l-0.04-0.8
								l0.02-0.69l0.05-1.37l0.03-0.68l0.01-0.17l0.03-0.25l0.06-0.5c0.1-0.69,0.14-1.27,0.37-2.08c0.21-0.77,0.39-1.48,0.8-2.35
								c0.19-0.42,0.38-0.83,0.59-1.23c0.25-0.42,0.53-0.85,0.82-1.26c0.55-0.83,1.31-1.57,2.07-2.26c1.54-1.3,3.31-2.17,4.74-2.59
								c2.96-0.89,5.07-0.82,6.88-0.78c1.81,0.08,3.33,0.28,4.75,0.47l3.91,0.55c1.2,0.16,2.33,0.29,3.32,0.34
								c0.48,0.02,0.97,0.05,1.38,0.03l0.28,0l0.17-0.01c0.11-0.01,0.22,0,0.33-0.02c0.89-0.06,1.81-0.43,2.4-1.16
								c0.1-0.12,0.22-0.24,0.31-0.37l0.39-0.54l0.43-0.73c0.14-0.25,0.25-0.51,0.39-0.76c0.49-1.04,0.86-2.19,1.13-3.52
								c0.57-2.66,0.61-5.89,0.82-9.99c0.07-1.05,0.14-2.04,0.34-3.52c0.21-1.59,0.6-3.24,1.18-4.88c0.6-1.63,1.45-3.23,2.57-4.69
								c1.1-1.48,2.56-2.73,4.17-3.79c1.61-1.08,3.47-1.83,5.37-2.44c0.46-0.12,0.92-0.24,1.38-0.36c0.45-0.11,0.95-0.24,1.33-0.29
								l1.21-0.2l0.61-0.1l0.49-0.06c2.59-0.32,5.23-0.66,7.88-0.99c5.33-0.66,10.76-1.26,15.83-1.56c5.07-0.29,9.78-0.29,13.58,0.1
								c3.79,0.37,7.4,0.93,10.82,1.86c3.42,0.93,6.68,2.21,9.59,4.04c2.91,1.83,5.45,4.19,7.36,7c1.92,2.8,3.2,6.02,3.82,9.5
								c-2.11-2.68-4.49-4.95-7.07-6.67c-2.56-1.75-5.36-2.89-8.29-3.62c-2.91-0.75-6.01-1.02-9.18-1.05
								c-3.17-0.02-6.43,0.23-9.73,0.66c-6.62,0.86-13.41,2.3-20.35,3.76c-3.47,0.73-6.99,1.48-10.56,2.18l-1.34,0.26
								c-0.42,0.09-0.63,0.15-0.96,0.22l-0.45,0.1l-0.27,0.09c-0.16,0.06-0.39,0.12-0.48,0.17c-0.49,0.2-0.95,0.48-1.3,0.86
								c-0.56,0.59-0.75,1.4-0.79,2.18c-0.07,0.85-0.11,2.06-0.12,3.33c-0.01,1.28-0.01,2.74-0.06,4.28
								c-0.09,3.08-0.38,6.65-1.43,10.34c-0.49,1.84-1.24,3.7-2.11,5.49c-0.47,0.88-0.92,1.77-1.48,2.6
								c-0.62,1.03-1.39,1.99-2.11,2.94c-2.44,2.99-5.82,5.17-9.56,6.19c-0.93,0.29-1.89,0.46-2.84,0.63l-1.45,0.18
								c-0.5,0.06-0.95,0.09-1.35,0.11c-1.59,0.1-3.01,0.06-4.38,0c-2.69-0.15-5.08-0.45-7.12-0.66c-1.02-0.1-1.97-0.19-2.71-0.21
								c-0.73-0.03-1.39,0-1.45,0.05c-0.02,0-0.02,0-0.01,0l0.01,0l-0.02-0.13l-0.04-0.3c-0.06-0.4-0.15-0.8-0.25-1.19
								c-0.13-0.45-0.16-0.68-0.24-0.97c-0.07-0.28-0.17-0.56-0.28-0.84c-0.14-0.32-0.17-0.46-0.24-0.64
								c-0.07-0.18-0.16-0.35-0.26-0.53l-0.08-0.13l-0.03-0.07l-0.07-0.13c-0.05-0.09-0.12-0.17-0.19-0.25
								c-0.05-0.06-0.03-0.05-0.07-0.08c0.14,0.13,0.24,0.18,0.41,0.26c0.3,0.19,0.61,0.32,0.92,0.39c0.5,0.21,1.01,0.35,1.51,0.42
								c0.2,0.01,0.65,0.14,0.98,0.19c0.36,0.06,0.71,0.11,1.06,0.14l0.53,0.03c0.1,0.01,0.02-0.05,0.05,0.01l0.01,0.24l-0.01,0.96
								c0.04,0.18,0.06,0.36,0.07,0.55c0.01,0.06,0.04,0,0.03,0.01c-0.49,0.09-1.39,0.37-1.9,0.56c-0.35,0.07-0.71,0.19-1.06,0.35
								c-0.18,0.08-0.35,0.18-0.52,0.28c-0.08,0.05-0.07,0.03-0.11,0.05c-0.06,0.03-0.14,0.08-0.22,0.15
								c0.21-0.16,0.39-0.33,0.53-0.51l0.1-0.13l0.05-0.07l0.03-0.04l0.08-0.09c0.22-0.25,0.43-0.5,0.62-0.77
								c0.19-0.26,0.37-0.53,0.53-0.81l0.23-0.42l0.11-0.21c0.01-0.03,0.03-0.06,0.09-0.15l0.07-0.11c0.02-0.03,0.01-0.01,0.01-0.02
								c0.05,0.01,0.1,0.03,0.15,0.05l0.07,0.04l0.21,0.08c1.04,0.42,3.41,1.11,5.77,1.94c0.88,0.31,1.77,0.63,2.68,1.01
								c0.91,0.35,1.81,0.75,2.72,1.18c0.45,0.21,0.91,0.42,1.35,0.64l1.67,0.9c0.71,0.38,1.34,0.74,1.92,1.18l0.89,0.64l0.83,0.72
								c1.07,1,2.02,2.13,2.87,3.33c0.42,0.61,0.83,1.21,1.21,1.86c0.34,0.55,0.58,0.98,0.84,1.46c1.02,1.86,1.81,3.59,2.54,5.29
								c1.44,3.39,2.6,6.64,3.68,9.85l1.55,4.77l1.53,4.81c0.84,2.46,1.16,5.07,0.96,7.66c-0.09,1.29-0.31,2.58-0.62,3.85
								l-0.25,0.95l-0.26,0.89c-0.15,0.48-0.3,0.93-0.45,1.36c-0.59,1.61-1.2,3.02-1.82,4.54l-0.93,2.24
								c-0.32,0.74-0.71,1.43-1.06,2.15l-2.19,4.26l-2.46,4.04c-0.42,0.67-0.82,1.35-1.25,2l-1.35,1.9
								c-0.9,1.26-1.79,2.55-2.72,3.78c-7.53,9.73-16.06,18.01-24.49,25.63c-8.44,7.66-16.83,14.82-24.36,22.24
								c-1.94,1.84-3.68,3.73-5.5,5.6c-1.68,1.77-3.13,3.52-4.52,5.38c-2.76,3.69-4.99,7.65-6.35,11.44
								c-0.88,2.43-1.41,4.76-1.51,6.8c-0.14,2.06,0.16,3.79,0.71,5.38c0.3,0.79,0.67,1.57,1.14,2.35c0.5,0.75,1.09,1.58,1.74,2.25
								c1.27,1.41,2.99,2.71,5.04,3.79c4.07,2.19,9.29,3.5,14.43,3.68l1.92,0.01c0.64-0.04,1.25-0.04,1.91-0.09
								c1.33-0.11,2.67-0.26,4.01-0.49c2.69-0.45,5.4-1.15,8.13-2.07c5.47-1.86,11.01-4.57,16.66-7.79
								c2.79-1.67,5.65-3.22,8.37-5.03c1.37-0.88,2.75-1.76,4.12-2.65c1.34-0.93,2.69-1.87,4.04-2.81c0.67-0.47,1.36-0.93,2.02-1.42
								l1.97-1.49c1.31-1,2.64-1.98,3.95-2.99c2.54-2.11,5.18-4.14,7.64-6.4c5.05-4.36,9.8-9.16,14.43-14.17
								c18.35-20.18,32.49-44.27,40.73-70.33c2.03-6.51,3.96-13.07,5.53-19.74l0.63-2.5l0.55-2.51c0.36-1.68,0.78-3.35,1.12-5.04
								c0.65-3.38,1.39-6.76,1.94-10.18c1.24-6.83,1.75-15.11,1.79-23.42C542.17,16.65,541.91,8.3,542.47,0.99z"/>
						</g>
					</g>
				</g>
				<path class="st8" d="M449.33,84.19c7.8-9.88-1.2-24.04-10.56-26.58c-13.78-3.74-29.71-3.73-43.44,0.13
					c-7.5,2.11-14.54,5.34-22.12,7.39c-25.13,6.79-57.55-12.44-50.74-22.97c9.12-14.12,55.47-19.65,65.03-27.98
					C417.49-12,458.94-12.51,489-22.05"/>
				<path class="st7" d="M411.62,182.37c30.06-8.46,55.89-30.84,68.55-59.38"/>
				<path class="st7" d="M427.23,204.32c34.39-9.97,63.92-35.55,78.69-68.16"/>
				<path class="st7" d="M363.94,198.72c-2.1-8.74,2.07-20.95,6.24-28.92c4.16-7.97,10.27-14.74,16.62-21.11
					c7.52-7.56,37.51-29.59,51.14-53.2"/>
				<path class="st7" d="M383.34,217.5c-1.24-3.81-0.02-8.05,2.12-11.44s9.1-9.46,12.01-12.22c2.86-2.72,3.45-3.75,5.55-6.6"/>
				<path class="st7" d="M437.58,217.23c12.75,1.88,32.47-13.93,40.06-21.1"/>
				<path class="st7" d="M401.77,225.06c3.4-6.28,8.66-11.54,14.95-14.92"/>
			</g>
			<path class="st8" d="M335,44.94c0,0,12.19,8.41,24.23-0.48c3.96-2.93-4.7-9.1-4.7-9.1"/>
			<path class="st26" d="M391.67,182.64c0,0-4.41-5.73-8.43-2.56c-4.02,3.17-11.15,13.15-7.02,19.97"/>
			<path class="st27" d="M408.57,208.19c0,0-3.71-4.56-6.99-1.9s-9.08,10.93-5.6,16.37"/>
		</g>
	</g>
	<g>
		<g>
			<circle class="st19" cx="39.64" cy="38.55" r="27.3"/>
		</g>
	</g>
	<g>
		<g>
			<path class="st17" d="M33.35,47.2h3.49c4.04,0,5.64-1.34,5.64-3.45s-1.6-3.27-5.79-3.27c-0.89,0-1.52,0-2.19-0.07
				c-0.07-1.22-0.11-3.75,0-5.34c0.63-0.07,1.22-0.07,2.08-0.07c3.34,0,4.53-1.15,4.53-3.04c0-1.74-1.56-2.67-4.82-2.67h-2.56
				c-0.11-1.34-0.11-4.19,0-5.57c1.19-0.07,2.23-0.15,3.3-0.11c6.72,0.22,10.21,2.75,10.21,8.09c0,2.26-0.63,4.42-2.67,5.6
				c2.86,1.3,4.16,3.64,4.16,7.01c0,5.34-3.56,8.79-11.13,8.79c-1.11,0-3.01-0.04-4.23-0.11C33.23,51.58,33.23,48.61,33.35,47.2z"/>
			<path class="st28" d="M37.58,53.54c-1.17,0-3.06-0.04-4.26-0.11l-0.39-0.02l-0.03-0.39c-0.11-1.42-0.11-4.44,0-5.86l0.03-0.41
				h3.9c5.2,0,5.2-2.26,5.2-3.01c0-1.31-0.61-2.82-5.34-2.82c-0.9,0-1.55,0-2.24-0.08l-0.37-0.04l-0.02-0.37
				c-0.07-1.21-0.11-3.76,0-5.4l0.03-0.37l0.37-0.04c0.66-0.08,1.27-0.08,2.13-0.08c3.62,0,4.08-1.39,4.08-2.6
				c0-0.55,0-2.23-4.38-2.23h-2.97l-0.03-0.41c-0.11-1.35-0.11-4.25,0-5.64l0.03-0.38l0.65-0.04c1.11-0.07,2.06-0.13,3.08-0.09
				c7.16,0.24,10.63,3.03,10.63,8.53c0,2.51-0.75,4.38-2.24,5.55c2.51,1.4,3.73,3.72,3.73,7.07C49.15,50.26,45.04,53.54,37.58,53.54
				z M33.76,52.56c1.17,0.06,2.78,0.09,3.81,0.09c6.89,0,10.69-2.97,10.69-8.35c0-3.26-1.27-5.42-3.9-6.61l-0.78-0.36l0.74-0.43
				c1.63-0.95,2.45-2.7,2.45-5.22c0-5-3.11-7.42-9.78-7.65c-0.93-0.03-1.84,0.02-2.87,0.09c-0.07,1.3-0.08,3.41,0,4.7h2.15
				c3.5,0,5.27,1.05,5.27,3.12c0,2.35-1.63,3.49-4.97,3.49c-0.68,0-1.18,0-1.66,0.04c-0.07,1.43-0.05,3.35,0,4.53
				c0.52,0.04,1.07,0.04,1.77,0.04c2.68,0,6.23,0.38,6.23,3.71c0,2.58-2.05,3.9-6.08,3.9h-3.07C33.69,49,33.69,51.22,33.76,52.56z"
				/>
		</g>
	</g>
</g>
<g id="레이어_5">
</g>
<g id="레이어_6">
</g>
<g id="레이어_3">
</g>
</svg>
