<svg xmlns="http://www.w3.org/2000/svg" xmlns:xlink="http://www.w3.org/1999/xlink" viewBox="0 0 500 406"><defs><style>.cls-1,.cls-13,.cls-14,.cls-16,.cls-18{fill:none;}.cls-2{clip-path:url(#clip-path);}.cls-19,.cls-3{fill:#ffe0cf;}.cls-4{clip-path:url(#clip-path-2);}.cls-10,.cls-11,.cls-5{fill:#ffcd00;}.cls-5{stroke:#ffce01;stroke-width:0.89px;}.cls-17,.cls-5,.cls-6,.cls-9{stroke-miterlimit:10;}.cls-6{fill:#b1c8e5;stroke:#fff;}.cls-18,.cls-6{stroke-width:10px;}.cls-7{fill:#8595aa;}.cls-8{fill:#6cc49a;}.cls-12,.cls-17,.cls-9{fill:#154734;}.cls-17,.cls-9{stroke:#154734;}.cls-13,.cls-9{stroke-width:11.47px;}.cls-11{stroke:#ffcd00;stroke-width:3.82px;}.cls-11,.cls-13,.cls-14,.cls-15,.cls-16,.cls-18,.cls-19{stroke-linecap:round;stroke-linejoin:round;}.cls-13,.cls-15{stroke:#216345;}.cls-14,.cls-16{stroke:#6cc49a;}.cls-14{stroke-width:19.25px;}.cls-15{fill:#216345;stroke-width:21.02px;}.cls-16{stroke-width:28.67px;}.cls-17{stroke-width:1.83px;}.cls-18,.cls-19{stroke:#ffbda6;}.cls-19{stroke-width:7.59px;}</style><clipPath id="clip-path"><rect class="cls-1" x="-527.21" width="500" height="406.51"/></clipPath><clipPath id="clip-path-2"><rect class="cls-1" width="500" height="406.51"/></clipPath></defs><g id="레이어_1" data-name="레이어 1"><g class="cls-2"><path class="cls-3" d="M17.74.52C32.85,80.58-5.78,162.64-78.81,205.61c-10,5.87-20.86,11.15-33.17,12.27s-26.34-2.74-34.1-11.9c-12.87-15.2-3-35.52,9.69-48.89,23.09-24.27,55.5-43.14,66.84-73.65,1-2.56,1.74-5.34.84-8-1.73-5.2-6.77-24.9-12-28-12.08-7.18-19.69-3.53-18.9-15.71S-77.78,33.47-69.81,24C-58,9.85-72.76-7.85-52.64-11.25-24.24-16.06,4.83-23.57,17.74.52"/><path class="cls-3" d="M15.26,1A77.07,77.07,0,0,1,23,23.46a204.65,204.65,0,0,1,2.69,23.73,133.44,133.44,0,0,1-.5,22.34,143.49,143.49,0,0,1-4.24,22,206.72,206.72,0,0,1-42.19,78.77c-2.4,2.9-5,5.61-7.51,8.38-1.28,1.35-2.61,2.66-3.91,4l-2,2-2,1.91-4,3.82-4.17,3.67c-1.38,1.24-2.81,2.41-4.24,3.57s-2.85,2.35-4.3,3.48c-3,2.21-5.84,4.51-8.89,6.57-1.51,1-3,2.12-4.53,3.14l-4.63,3a121.73,121.73,0,0,1-20.2,10.74,75.48,75.48,0,0,1-11.69,3.68c-2,.45-4.11.84-6.22,1.1-1,.15-2.12.24-3.22.32s-2.18.12-3.27.15a58.28,58.28,0,0,1-13-1.21,53.68,53.68,0,0,1-12.78-4.36,42.59,42.59,0,0,1-11.83-8.46,40.5,40.5,0,0,1-4.83-6,38.92,38.92,0,0,1-3.6-7.08,37.48,37.48,0,0,1-2.3-15.54,47.8,47.8,0,0,1,3.1-14.08,69.77,69.77,0,0,1,10.71-18.3c1.05-1.31,2.12-2.59,3.24-3.82s2.29-2.45,3.33-3.47l3.21-3.17c1.07-1.05,2.15-2,3.23-3,8.62-8,17.22-14.82,25.31-21.72a180.82,180.82,0,0,0,22-21.36c.81-1,1.51-1.94,2.27-2.9s1.52-1.94,2.16-3l2-3c.61-1,1.17-2.1,1.78-3.14l.89-1.58.74-1.64,1.49-3.26.26-.68a1.66,1.66,0,0,1,.12-.31,2.22,2.22,0,0,0,.12-.39,1.75,1.75,0,0,0,0-.85l-1.65-6c-.58-2.08-1.19-4.17-1.85-6.24s-1.37-4.13-2.13-6c-.39-.94-.78-1.85-1.18-2.64a10.89,10.89,0,0,0-.68-1.27,2.37,2.37,0,0,0-.33-.38c-.13-.11-.28-.19-.34-.24l-.55-.32-.7-.36c-.47-.23-.92-.49-1.42-.69-2-.92-4-1.6-7-2.7l-.56-.21-.64-.27-1.31-.56-1.53-.81-.38-.21-.43-.28-.87-.6-.85-.63c-.3-.27-.59-.55-.88-.83a12.34,12.34,0,0,1-1.61-1.84,17.57,17.57,0,0,1-1.32-2.11c-.31-.69-.61-1.39-.87-2.1l-.18-.53-.12-.47-.21-.94-.18-.94-.09-.47,0-.4-.12-1.59,0-.8v-.69l0-1.37,0-.68v-.17l0-.25.06-.5a13.89,13.89,0,0,1,.37-2.08,13.43,13.43,0,0,1,.8-2.36c.18-.42.38-.83.59-1.23s.53-.85.82-1.26a13,13,0,0,1,2.07-2.26,13.71,13.71,0,0,1,4.75-2.59A19.9,19.9,0,0,1-92,17.81c1.8.08,3.33.28,4.75.47l3.91.55c1.2.16,2.33.29,3.32.34.48,0,1,0,1.37,0h.45l.33,0A3.4,3.4,0,0,0-75.47,18c.1-.12.22-.24.3-.36l.39-.54.43-.73c.14-.25.26-.51.39-.76a16.16,16.16,0,0,0,1.14-3.52,71.07,71.07,0,0,0,.82-10c.07-1,.13-2,.34-3.52a24.21,24.21,0,0,1,1.18-4.88A18.08,18.08,0,0,1-67.92-11a16.34,16.34,0,0,1,4.18-3.79,21.65,21.65,0,0,1,5.37-2.45l1.38-.36c.45-.11,1-.24,1.32-.29l1.21-.2.6-.1.49-.07,7.88-1c5.33-.66,10.76-1.26,15.83-1.57a88.88,88.88,0,0,1,13.58.1A65.59,65.59,0,0,1-5.25-18.82a35,35,0,0,1,9.59,4,24.84,24.84,0,0,1,7.36,7,24.21,24.21,0,0,1,3.81,9.49A31,31,0,0,0,8.44-4.95,25.72,25.72,0,0,0,.15-8.58,37.84,37.84,0,0,0-9-9.62,70.61,70.61,0,0,0-18.76-9c-6.62.86-13.41,2.3-20.35,3.76-3.47.73-7,1.48-10.56,2.18L-51-2.76c-.42.09-.63.16-1,.23l-.44.1-.27.09a2.62,2.62,0,0,0-.48.17,3.58,3.58,0,0,0-1.3.85A3.34,3.34,0,0,0-55.26.86c-.07.85-.11,2.06-.12,3.33s0,2.74-.07,4.28a42,42,0,0,1-1.42,10.35A31,31,0,0,1-59,24.31c-.47.88-.93,1.77-1.48,2.6a33.67,33.67,0,0,1-2.12,2.94A18.72,18.72,0,0,1-72.14,36a25.31,25.31,0,0,1-2.84.64l-1.45.18c-.51.06-1,.09-1.35.11a39.81,39.81,0,0,1-4.38,0c-2.69-.14-5.08-.45-7.12-.66-1-.1-2-.19-2.71-.2a7.18,7.18,0,0,0-1.46,0s0,0,0,0h0V36l-.05-.29c-.06-.4-.15-.8-.25-1.2s-.16-.68-.24-1a6.82,6.82,0,0,0-.27-.84c-.14-.32-.17-.46-.25-.64a4.32,4.32,0,0,0-.26-.53l-.08-.13,0-.06-.07-.13a2.14,2.14,0,0,0-.19-.26l-.07-.08a1.62,1.62,0,0,0,.41.27,3.07,3.07,0,0,0,.92.39,6,6,0,0,0,1.51.42c.2,0,.64.14,1,.19s.72.11,1.07.14l.53,0c.1,0,0-.06,0,0v1.21a2.51,2.51,0,0,1,.06.55c0,.06,0,0,0,0a16.22,16.22,0,0,0-1.9.56,4.87,4.87,0,0,0-1.06.35,5.21,5.21,0,0,0-.52.28.42.42,0,0,1-.12.05,1.08,1.08,0,0,0-.22.15,3.31,3.31,0,0,0,.54-.51l.1-.13,0-.07,0,0,.08-.09a9.08,9.08,0,0,0,.62-.77,8.67,8.67,0,0,0,.53-.81l.23-.41.1-.21a.71.71,0,0,1,.09-.15l.07-.11s0,0,0,0l.15,0,.07,0,.21.08c1,.41,3.41,1.11,5.78,1.94.88.31,1.76.63,2.68,1s1.81.75,2.72,1.19c.45.21.9.41,1.35.64l1.67.9a15.31,15.31,0,0,1,1.92,1.18l.9.63.83.72a22.81,22.81,0,0,1,2.87,3.33c.42.61.84,1.22,1.21,1.86s.58,1,.84,1.46c1,1.87,1.81,3.59,2.54,5.29,1.44,3.39,2.6,6.64,3.68,9.85l1.55,4.77,1.53,4.81a19.15,19.15,0,0,1,1,7.66,24.12,24.12,0,0,1-.62,3.85l-.25.94-.26.89c-.15.48-.3.94-.45,1.37-.58,1.61-1.2,3-1.81,4.54l-.93,2.24c-.32.74-.71,1.43-1.06,2.15l-2.2,4.26-2.46,4c-.42.67-.82,1.35-1.25,2l-1.35,1.9c-.9,1.26-1.79,2.55-2.72,3.78-7.53,9.73-16.06,18-24.49,25.63s-16.82,14.82-24.36,22.23c-1.94,1.84-3.67,3.74-5.5,5.61a57.39,57.39,0,0,0-4.51,5.38,45.33,45.33,0,0,0-6.36,11.43,24.35,24.35,0,0,0-1.51,6.81A13.47,13.47,0,0,0-139,194a14,14,0,0,0,1.14,2.34,15.63,15.63,0,0,0,1.75,2.25,18.28,18.28,0,0,0,5,3.79,33.74,33.74,0,0,0,14.43,3.68h1.92c.64,0,1.26,0,1.92-.09,1.33-.11,2.67-.26,4-.49a55.75,55.75,0,0,0,8.13-2.07A97.76,97.76,0,0,0-84,195.65c2.78-1.66,5.65-3.22,8.36-5l4.13-2.65,4-2.8c.67-.47,1.35-.93,2-1.42l2-1.48c1.32-1,2.65-2,4-3,2.54-2.11,5.18-4.14,7.64-6.4A178.23,178.23,0,0,0-37.45,158.7,190.17,190.17,0,0,0,3.28,88.37c2-6.52,4-13.07,5.54-19.74l.63-2.5L10,63.62c.36-1.68.78-3.35,1.12-5,.65-3.38,1.4-6.76,2-10.19A142.42,142.42,0,0,0,14.86,25C15,16.65,14.7,8.3,15.26,1Z"/></g></g><g id="레이어_3" data-name="레이어 3"><g class="cls-4"><rect class="cls-5" width="500" height="406.51"/><rect class="cls-6" x="32.87" y="105.88" width="433.29" height="775.48" rx="38.7"/><rect class="cls-7" x="79.3" y="147.19" width="340.44" height="714.43" rx="32.93"/><path class="cls-8" d="M308.87,134.12l29.59-2.82a21.19,21.19,0,0,0-8.64-4.85,29.18,29.18,0,0,0-5.18-1c-.88-.11-1.77-.17-2.67-.2l-1.33,0-1.18,0a38.43,38.43,0,0,0-4.09.34c-.68.08-1.35.21-2,.32l-1.25.27c-.48.11-.88.22-1.32.34a28.56,28.56,0,0,0-9.52,4.44,23,23,0,0,0-4.4,4.35Z"/><path class="cls-8" d="M171.25,147.3c-.07-.05-.13-.11-.21-.16a24.93,24.93,0,0,0-10.4-4.24c-.94-.16-1.88-.28-2.83-.36-.47,0-1-.06-1.41-.07s-.82,0-1.22,0a30.59,30.59,0,0,0-5.61.57,26.5,26.5,0,0,0-10.25,4.24,21.93,21.93,0,0,0-3.93,3.58C147.63,149.63,159.55,148.44,171.25,147.3Z"/><rect class="cls-9" x="110.9" y="143.97" width="276.65" height="267.73" rx="30.82" transform="translate(-25.03 24.67) rotate(-5.4)"/><path class="cls-10" d="M216.32,201.23c1.57-.28,12-1.27,14.28-1.35a39.79,39.79,0,0,1,.46,4.86c-1.52.18-7.5.74-8.6.81a28.14,28.14,0,0,0,.39,4.13c1.62-.22,8.39-.86,9.82-.92a31.26,31.26,0,0,1,.47,4.92c-1.91.31-13.31,1.39-15.51,1.47A138.51,138.51,0,0,1,216.32,201.23Zm2.21,15.7c1.74-.37,20.58-2.15,22.35-2.11A107.7,107.7,0,0,1,242,227c-1.57.31-20.75,2.12-22.35,2.11A108.94,108.94,0,0,1,218.53,216.93Zm17.54,5.91a20.39,20.39,0,0,0-.27-2.84c-1.26.05-10.09.85-11.27,1.06a20,20,0,0,0,.27,2.85C226,223.89,234.86,223.06,236.07,222.84Zm-2.17-23.71a25.55,25.55,0,0,1,5.45-.51c.16.62.39,2.66.65,5.07a25.63,25.63,0,0,1,2.85-.13,24.12,24.12,0,0,1,.47,4.92c-.56.12-1.68.29-2.83.4.18,2.25.32,4.18.28,4.78a36.76,36.76,0,0,1-5.45.51C235,212.57,233.89,200.8,233.9,199.13Z"/><path class="cls-10" d="M244.23,198.92a66.39,66.39,0,0,1,8.1-.76c.3,1.34,2.52,24.83,2.48,26.2a51.36,51.36,0,0,1-5.59.53c-.27-2.21-1.83-18.69-2-20.91a21.85,21.85,0,0,1-2.52.23A35.89,35.89,0,0,1,244.23,198.92Zm9.39-.88a72.59,72.59,0,0,1,8.46-.8c.3,1.34,2.52,24.83,2.48,26.2A54,54,0,0,1,259,224c-.27-2.21-1.83-18.69-2-20.92a28.63,28.63,0,0,1-2.88.28A36.15,36.15,0,0,1,253.62,198Zm10.74-1.78a25.23,25.23,0,0,1,5.49-.52c.38,1.63,2.72,26.34,2.64,28a22,22,0,0,1-5.49.51C266.65,222.64,264.32,197.93,264.36,196.26Z"/><path class="cls-11" d="M252.55,313c-1.28.12-1.85.81-1.76,1.77l.22,2.31-6.09.57A5.42,5.42,0,0,0,240,323.6a8.93,8.93,0,0,0,.87,3.27,4,4,0,0,0,1,1.23l.86,4.62a6.79,6.79,0,0,0,7.35,5.55L253,338c.09,1,.79,1.53,2.06,1.41s1.85-.81,1.76-1.77l3-.28a6.8,6.8,0,0,0,6.19-6.83l0-4.83a3.71,3.71,0,0,0,.6-1.25,9,9,0,0,0,.25-3.37,5.43,5.43,0,0,0-5.91-4.89l-6.08.57-.22-2.3C254.52,313.49,253.82,312.92,252.55,313Z"/><path class="cls-11" d="M289.34,337a1.42,1.42,0,0,0,.92.21A20.42,20.42,0,0,0,294.57,299a9.06,9.06,0,0,1-4.12-4.09,20.44,20.44,0,0,0-20.16-11.14l-.15,0a9.38,9.38,0,0,1-6.57-1.94,20.39,20.39,0,0,0-27.7,2.62,9.31,9.31,0,0,1-6.08,3.13l-.16,0a20.43,20.43,0,0,0-17.72,14.71,9,9,0,0,1-3.28,4.79,20.42,20.42,0,0,0,11.23,36.8,3.28,3.28,0,0,1,3.15,3l.79,8.31a7.88,7.88,0,0,1-2.61,6.62l-3.31,3a2.07,2.07,0,0,0-.69,1.74h0a2.07,2.07,0,0,0,2.26,1.87l5.54-.52,5.91-.56a6.5,6.5,0,0,1,2.8.35l3.51,1.25a6.43,6.43,0,0,0,4.2.06l4.61-1.49a6.51,6.51,0,0,1,4,0l5.25,1.69a6.54,6.54,0,0,0,2.6.29,6.67,6.67,0,0,0,2.51-.77l4.85-2.65a6.48,6.48,0,0,1,3.93-.74l4.83.6a6.48,6.48,0,0,0,4.11-.84l3.22-1.89a6.56,6.56,0,0,1,2.68-.87l5.88-.55,5.57-.53a2.07,2.07,0,0,0,1.87-2.26h0a2,2,0,0,0-1-1.57l-3.81-2.26h0a3.49,3.49,0,0,0-3.74.07,11.34,11.34,0,0,1-5.22,1.86l-25.32,2.4a1,1,0,0,1-1.11-.76,1,1,0,0,1,.12-.77l7.2-13.71a28,28,0,0,1-8.73,2.11c-12.08,1.14-20.65-3.87-21.93-17.36s5.86-23.67,17.95-24.81c11.49-1.09,19.88,7,21.78,19.39.35.4.69.64,1.06.6a4.76,4.76,0,0,0,1.83-.73c.35-.25.89-.79,1.33-.26s.17,1.18,0,1.69a6.63,6.63,0,0,1-1.74,2.67l.21-.2a6.63,6.63,0,0,0-2.14,5.68,6.15,6.15,0,0,0,2.72,4.92h0a11.11,11.11,0,0,1,4.3,12.88h0a.59.59,0,0,0,0,.47.6.6,0,0,0,.43.36.63.63,0,0,0,.71-.37v0a11.12,11.12,0,0,0-2.38-12.13h0a11.11,11.11,0,0,1,6.24-18.21l.17,0h0a6.87,6.87,0,0,1,3.59,13.25,1.87,1.87,0,0,0-.48.2,1.61,1.61,0,0,0-.22,2.58h0Z"/><path class="cls-12" d="M289.63,334.15a6.86,6.86,0,0,0-3.39-13.3h0l-.17,0a11.11,11.11,0,0,0-6.24,18.21h0a11.12,11.12,0,0,1,2.38,12.13v0a.63.63,0,0,1-.71.37.6.6,0,0,1-.43-.36.59.59,0,0,1,0-.47h0a11.11,11.11,0,0,0-4.3-12.88h0a6.15,6.15,0,0,1-2.72-4.92,6.63,6.63,0,0,1,2.14-5.68l-.21.2a6.63,6.63,0,0,0,1.74-2.67c.19-.51.38-1.26,0-1.69s-1,0-1.33.26a4.76,4.76,0,0,1-1.83.73c-1.08.13-1.88-2.22-3.58-3.5h0a6.8,6.8,0,0,0-4.9-1.45h0a3.82,3.82,0,0,0-3.43,3.58,8.35,8.35,0,0,0,0,1,6.88,6.88,0,0,0,2.59,4.75h0a1.62,1.62,0,0,1-.22,2.76h0a6.86,6.86,0,0,1-9-2.52h0a1.62,1.62,0,0,0-3,.8,1.89,1.89,0,0,0,.09.6h0a11.11,11.11,0,0,0,10.3,7.84,2.63,2.63,0,0,1,2.59,2.38,2.52,2.52,0,0,1-.27,1.42l0,.1-8.42,16a1,1,0,0,0-.15.63,1,1,0,0,0,1.1.9l25.36-2.4a11.27,11.27,0,0,0,10.18-12.19,11.08,11.08,0,0,0-4.59-7.92h0a1.58,1.58,0,0,1-.54-1.06A1.63,1.63,0,0,1,289.63,334.15Z"/><path class="cls-12" d="M257.72,353.76l2.54-3.91a1.15,1.15,0,0,0,0-1.25,1.13,1.13,0,0,0-1.15-.49c-.81.15-2.31.42-3.19.51-14.38,1.36-23.39-5.74-24.73-19.48-.74-7.64,1.3-15,5.61-20.22a20.43,20.43,0,0,1,14.08-7.5,21.88,21.88,0,0,1,15.61,4.49,24,24,0,0,1,8.57,14.86,1.14,1.14,0,1,0,2.24-.39c-2.37-13.53-13.57-22.45-26.63-21.22A22.67,22.67,0,0,0,235,307.47c-4.68,5.68-6.91,13.66-6.11,21.89.75,7.74,3.69,13.56,8.71,17.29,4.67,3.47,11.06,4.93,18.49,4.23.25,0,.53-.06.82-.1l-1.13,1.75a1.13,1.13,0,0,0,.34,1.57,1.09,1.09,0,0,0,.72.17A1.15,1.15,0,0,0,257.72,353.76Z"/><path class="cls-13" d="M113.11,175.17c8.94,3.22,19.24,3.48,29.24,3.37,64.11-.69,127.64-14.17,191.74-18.28,11.21-.72,23-1.29,32.69-6.12"/><path class="cls-13" d="M365.69,191.59c5.33,55.77,15.52,112.58,12.66,168.75-.62,12-4.47,18.67-16.61,20.93-28.78,5.37-57.86,9.89-87.09,12"/><rect class="cls-14" x="146.82" y="176.42" width="8.82" height="245.13" rx="4.41" transform="translate(-27.45 15.55) rotate(-5.4)"/><rect class="cls-14" x="345.8" y="157.62" width="8.82" height="245.13" rx="4.41" transform="translate(-24.8 34.18) rotate(-5.4)"/><rect class="cls-15" x="136.03" y="176.93" width="8.82" height="15.63" rx="3.76" transform="translate(-16.75 14.03) rotate(-5.4)"/><rect class="cls-15" x="335.01" y="158.13" width="8.82" height="15.63" rx="3.76" transform="translate(-14.1 32.66) rotate(-5.4)"/><path class="cls-16" d="M138.93,182.35c-.12-2.57-.56-5.27.21-7.8,2.79-9.1,21-10.06,25.68-2.41a19.44,19.44,0,0,1,2.3,7.35c2,13.06,2,25.25,7.72,37.52,13.83,29.74,47.66,44.68,80.72,38.49,16.05-3,30.88-10.17,41.49-22.34,14.55-16.7,16.55-46.34,12.55-67.35-.45-2.36-1-4.77-.62-7.15,1-6.33,9.4-8.72,15-9.15a22.73,22.73,0,0,1,9.93,1.18c4.89,1.94,5.1,5.25,5.72,10"/><path class="cls-17" d="M249.49,21.22c-3.07,0-4.6,1.53-4.6,3.83v5.54H230.27a13,13,0,0,0-13,13,21.94,21.94,0,0,0,1.34,8,9.64,9.64,0,0,0,2,3.15l1,11.19A16.25,16.25,0,0,0,237.9,80.77h7c0,2.29,1.54,3.82,4.6,3.82s4.59-1.53,4.59-3.82h7.24a16.25,16.25,0,0,0,16.27-14.88l1-11.5a9.76,9.76,0,0,0,1.72-2.84,21.94,21.94,0,0,0,1.34-8,13,13,0,0,0-13-13H254.08V25.05C254.08,22.75,252.55,21.22,249.49,21.22Z"/><path class="cls-3" d="M63.2,466.45c19.1.25,69.52-20.59,88-27.63,14.22-5.42,18.14-17.63,31-26,16.19-10.51,31.64-17.73,40.7-30.81,1-1.45,2.06-2.86,3-4.37.4-.63.78-1.26,1.17-1.9A11.44,11.44,0,0,0,229,370.8c.4-6.42-9.35-6.34-13.56-6.3-.56,0-1.12.08-1.65,0,3.08-4.08,18.7-19.79,21.44-24.26,3-4.89,6.14-10.2,4.88-15.94a6.13,6.13,0,0,0-2.2-3.89c-1.67-1.14-4-.75-6-.15-7.78,2.29-27,19.46-35.13,18.17,8-8.25,15.86-16.54,23.82-24.77,4-4.08,8.12-8,11.68-12.44,1.73-2.17,3.36-4.61,3.6-7.37.93-10.55-11.5-4.64-16.29-2.1s-9.46,5.25-14,8.11c-4.31,2.69-8.39,6-13,8.13-2.28,1-6.18,2.83-8.53,1.05a3.3,3.3,0,0,1-1.09-1.51c-1.93-5.05,20.09-33.8,14.47-36.23-4.48-1.93-9.57,2.07-13.46,5.69-9.73,9.07-41,38.12-52.31,44.78-5.48,3.23-30.91,17.23-34.54,8.74-.76-1.79,2.38-5.25,1.75-7.2C94,308.5,101.29,284.71,104.05,275c1.31-4.63-.2-9.41-1.41-13.85-1.58-5.8-4.9-16.6-9.58-9.76C74.24,278.94,55.61,330.9,37,358.58c-9.4,14-11.38,38.31-11.36,55.79,0,14.87-8.93,29.77-8.92,44.64"/><path class="cls-3" d="M63.17,469.17,67,468.06c1.24-.41,2.45-.9,3.67-1.32s2.43-.95,3.64-1.42,2.43-.93,3.64-1.47l3.65-1.52,3.66-1.57c2.45-1,4.89-2.11,7.34-3.15,9.79-4.22,19.51-8.56,28-12.85s17.06-8.47,25.83-12.45l1.66-.75a7.12,7.12,0,0,0,.68-.34l.61-.31a24.69,24.69,0,0,0,2.35-1.35,30.3,30.3,0,0,0,4.32-3.44c2.81-2.62,5.58-6.1,9-9.88a66.71,66.71,0,0,1,10.16-9.44l1.49-1.05.73-.52.65-.43,2.62-1.72,5.21-3.32c6.89-4.35,13.62-8.46,19.24-13a52.23,52.23,0,0,0,7.39-7.11c.5-.63,1.06-1.24,1.49-1.9s.91-1.24,1.45-2.06c1-1.55,2.12-3.05,3-4.65a11.78,11.78,0,0,0,.84-1.56.08.08,0,0,0,0,0h0l.52.18c.29.11.61.21.89.3s.54.15.73.2.44.11.59.14l.47.08.35,0H223l-.3,0h.09l.23,0a3.93,3.93,0,0,0,1-.05l.13,0h.16l.22,0,.23-.09-.06,0h0l-.14.08a1.65,1.65,0,0,0-.4.39,3.81,3.81,0,0,0-.7.81l-.13.21a2.85,2.85,0,0,1-.21.3c-.15.21-.28.43-.41.65-.25.44-.39.84-.74,1.49l-.2.44-.1.23c0,.08,0,0,0,0h0l-.16,0-.08,0-.15,0-.3-.06a17.78,17.78,0,0,0-1.81-.18c-.7,0-1.48-.05-2.35,0l-1.18,0a14.22,14.22,0,0,1-2.57,0l-19.19-1,11.9-15.15,1-1.23.83-1,1.56-1.81,3-3.34,1.47-1.72c.64-.78,1.25-1.51,1.74-2.24a5.44,5.44,0,0,0,.81-2.31,2,2,0,0,0-.34-1.2,1,1,0,0,0-.56-.38,1.56,1.56,0,0,0-.77.07,9,9,0,0,0-2.54,1.59l-2,1.56-.43.33-.21.14-.05,0c-.11.05.23-.1-.08,0l-1,.5a36.26,36.26,0,0,1-5,1.83l-1.59.38c-.59.11-1.23.21-1.85.29A18.66,18.66,0,0,1,195,350l-22.07-2.79,15.52-16.76,6-6.46.74-.81.35-.38,0-.05.14-.2.24-.37a10.35,10.35,0,0,0,.62-1.11c.11-.27.15-.43.08-.55a.39.39,0,0,0-.26-.16.85.85,0,0,0-.64.12,4.5,4.5,0,0,0-1.29,1.12.29.29,0,0,0,0,.1h0l.19-.06-.47.16c-.3.11-.61.22-1,.32s-.67.21-1.06.31a21.85,21.85,0,0,1-5.69.76,19.21,19.21,0,0,1-1.94-.12,15.25,15.25,0,0,1-2.17-.38,16.79,16.79,0,0,1-4.72-1.91,16.39,16.39,0,0,1-4.42-3.8,17,17,0,0,1-2.6-4.49l-.17-.45-.2-.61c-.12-.41-.23-.82-.32-1.23a14.53,14.53,0,0,1-.26-1.73l0-.16h0a1,1,0,0,0,.13-.14.78.78,0,0,0,.18-.32c0-.19,0-.26-.13-.27a1,1,0,0,0-.31.07l-.24.1-.07,0s0,0-.06,0l-.56.49-2.26,1.93c-6,5.15-12.06,10.18-18.53,15.12l-2.49,1.85-1.26.93-1.36.93c-.92.63-1.74,1.23-2.85,1.9s-2.14,1.34-3,1.81c-3.7,2-7.34,3.84-11.18,5.57l-2.92,1.26-1.48.61-2.26.88a62.16,62.16,0,0,1-10.08,3,27.71,27.71,0,0,1-9.46.33,17.1,17.1,0,0,1-8-3.37,13.53,13.53,0,0,1-3-3.24,11.72,11.72,0,0,1-1.09-2.6,28.43,28.43,0,0,1-.73-3.35l-.14-.59-.12-.67-.08-.77a5.69,5.69,0,0,1,.11-.8l.57-3.21.28-1.6a3,3,0,0,0,.08-1.49l-.34-2.14c-.09-.63-.19-1.27-.27-1.9l-.13-1.83L86.37,315c0-.61,0-1.18,0-1.78,0-1.17,0-2.38.06-3.51A92.88,92.88,0,0,1,88,296.39c.79-4.29,1.78-8.49,2.88-12.62.55-2.06,1.14-4.12,1.74-6.14l1.66-5.51a5.45,5.45,0,0,0,.07-2.38,38.08,38.08,0,0,0-1.06-4.93c-.33-1.24-.57-2.21-.86-3.22s-.58-1.92-.87-2.74a16.27,16.27,0,0,0-.8-1.91l-.08-.15s-.12.07.26-.2l.7-.49c.45-.31.94-.75,1.31-1a11,11,0,0,0,2.92-3.27c.37-.75,0-.8.35-.06a10.45,10.45,0,0,0,2.72,3.35,14.52,14.52,0,0,0,1.22,1l.72.58.29.23h0a4.58,4.58,0,0,0-.32.45l-.92,1.39L98,261.52c-.62.93-1.19,1.93-1.79,2.88-4.77,7.73-9.16,16-13.43,24.37-8.57,16.8-16.57,34.19-25.69,51.35-1.16,2.14-2.43,4.55-3.94,7.13l-2.32,4-2.62,4.21c-.87,1.44-1.87,2.89-2.87,4.37s-1.87,2.74-2.81,4.13a42,42,0,0,0-4.16,8,77.24,77.24,0,0,0-3.07,9.22c-.88,3.14-1.57,6.32-2.17,9.39-1.19,6.15-2,11.9-2.6,16.54-.31,2.32-.56,4.59-.78,6.82-.13,1.15-.27,2.46-.44,3.64s-.41,2.37-.71,3.5a79.64,79.64,0,0,1-4.35,12.62c-1.7,4-3.57,7.78-5.39,11.82A76.27,76.27,0,0,0,14,459a57.31,57.31,0,0,1,.55-15.23c.76-4.92,1.83-9.65,2.7-14.2a69.83,69.83,0,0,0,1.45-12.93l-.32-6.82c-.1-2.46-.15-4.94-.15-7.42a127.29,127.29,0,0,1,3.28-30.24,67.47,67.47,0,0,1,5.75-15.42l1.12-1.91,1.07-1.79,1.75-2.86c1.2-1.86,2.29-3.88,3.42-5.85,4.46-8,8.54-16.4,12.55-24.93s7.89-17.22,11.87-25.94S67.13,276,71.58,267.24L73.25,264,75,260.68l1.76-3.28,1.89-3.26c.63-1.09,1.24-2.18,1.9-3.27l2.06-3.25,1-1.63.26-.41.13-.2.07-.11.13-.19a18.67,18.67,0,0,1,1.21-1.57c.26-.29.45-.53.77-.86s.65-.63,1-.93a14.74,14.74,0,0,1,3-2,13.16,13.16,0,0,1,5-1.35,13.37,13.37,0,0,1,2.9.13,12.47,12.47,0,0,1,1.35.29l.67.19.57.21a14.45,14.45,0,0,1,5.37,3.64,19.73,19.73,0,0,1,2.26,2.93,31.1,31.1,0,0,1,2.31,4.47,68.4,68.4,0,0,1,2.52,7.27l.91,3.17c.32,1.13.65,2.38.94,3.75a30.3,30.3,0,0,1,.64,9.89,31.27,31.27,0,0,1-1,4.89l-.83,3c-.53,2-1,4-1.52,5.91-1,3.9-1.76,7.76-2.35,11.55a72.35,72.35,0,0,0-1,11c0,.87,0,1.67.06,2.52s.16,1.57.21,2.36a7.11,7.11,0,0,0,.17,1.09l.15.88a1.12,1.12,0,0,0,0,.15l0,.09.06.17c.09.24-.09.42-.12.62s.25.38.47.37a3.15,3.15,0,0,0,1.26-.38l.14-.07.32-.15,1.17-.52,1.29-.59c1.72-.8,3.46-1.67,5.18-2.58s3.45-1.87,5.1-2.83c.39-.23.85-.49,1.14-.69l.94-.63.47-.3.55-.4,1.1-.81c3-2.24,6.15-4.81,9.27-7.47s6.26-5.39,9.37-8.17l4.67-4.2,4.34-3.93,4.61-4.21,9.24-8.55,4.63-4.29,1.16-1.07.58-.54a5.37,5.37,0,0,1,.56-.48l2.16-1.59,2.16-1.6,1.08-.79.27-.2.23-.12.46-.23,3.61-1.79c1.05-.39,2-.64,3-1l.37-.12.31-.06.62-.12,1.23-.24a19.82,19.82,0,0,1,4.49-.15,17.23,17.23,0,0,1,2.48.38c.89.21,1.81.55,2.94.91a15.13,15.13,0,0,1,3.21,1.85,13.75,13.75,0,0,1,2.07,1.94,17.17,17.17,0,0,1,1.84,2.62c.25.44.45.91.67,1.4a10.94,10.94,0,0,1,.6,1.6,15.51,15.51,0,0,1,.68,4.56,20.84,20.84,0,0,1-.79,5.49,48.64,48.64,0,0,1-3.35,8.26c-1.56,3.15-3.49,6.59-5.44,10l-2.9,5.2-1.38,2.58-.32.63c0,.05,0,.12-.09.15l-.33-.25-.68-.51-.34-.26-11.28,2.3h-.07a1.17,1.17,0,0,0-.25.07l-.06,0c-2.34.9,3.11-1.18,2.54-1l-.06,0-.12,0a2.84,2.84,0,0,0-.77.48l-.1.11,0,0h0l.37-.49s0,0,0-.05a6.2,6.2,0,0,0,.4-2.86,29.1,29.1,0,0,0-1.25-6.79h0l.12,0,.26-.1.13-.06.26-.11.51-.23c.35-.15.69-.32,1-.48a92.52,92.52,0,0,0,8.15-5.23c2.74-1.84,5.42-3.42,7.95-4.92s4.93-2.83,7.24-4.08,4.59-2.45,6.76-3.39a36.38,36.38,0,0,1,10.77-3.1,21,21,0,0,1,6.83.35,17.65,17.65,0,0,1,5.6,2.28,15.91,15.91,0,0,1,6.15,7.07,17.2,17.2,0,0,1,1.25,4.07,18.64,18.64,0,0,1,.25,3.17,25.69,25.69,0,0,1-.8,6,28.35,28.35,0,0,1-3.63,8.14,46.52,46.52,0,0,1-4.24,5.55c-1.68,2-3.62,4-5.63,6s-4.11,4.07-6.07,6.08l-5.91,6-10.7,10.92-6.17,6.21-7.84-13.27a7.24,7.24,0,0,0,.13-1.69,8.06,8.06,0,0,0,0-1.1,4.93,4.93,0,0,0-.05-.54c0-.17,0-.34-.06-.59a17.79,17.79,0,0,0-.41-2.7c-.07-.39,0-.22,0-.26h.07a11.43,11.43,0,0,0,1.5-.5l.54-.24.07,0,.13-.07.47-.23.73-.38c1-.49,1.94-1,2.9-1.6,1.91-1.12,3.82-2.33,5.73-3.56,3.81-2.46,7.68-5,11.29-7,.9-.5,1.74-.9,2.62-1.35s1.65-.75,2.42-1a31.57,31.57,0,0,1,4.21-1.23,24.34,24.34,0,0,1,6.51-.59,18.23,18.23,0,0,1,2.75.31A15.1,15.1,0,0,1,242,310a13.46,13.46,0,0,1,3.25,1.86,13.86,13.86,0,0,1,3,3.3,19.16,19.16,0,0,1,2.84,7.68,27.92,27.92,0,0,1-1.34,12.75,40.4,40.4,0,0,1-3.2,7c-.31.6-.75,1.26-1.11,1.88s-.73,1.25-1.21,1.92a38.11,38.11,0,0,1-2.89,4L240,352c-.47.57-1,1.13-1.49,1.7-1,1.13-2,2.26-3.05,3.38l-6.18,6.67-4,4.32-1.56,1.73-.68.78-.44.53L214.08,361c0-.49.06-1.1,0-2.31V357.6l-.05-1.51L214,353.8c0-.39,0-.14,0-.21h0l.94,0h1.86c1.13,0,2.36.05,3.65.14a38.21,38.21,0,0,1,4.16.51c.74.14,1.55.33,2.36.55a22.21,22.21,0,0,1,2.69.93c.5.22.93.38,1.46.67s1.07.6,1.58.92a8,8,0,0,1,.83.58c.28.21.56.44.84.67s.55.46.81.7a11.79,11.79,0,0,1,.83.89,16.72,16.72,0,0,1,1.52,2,19.76,19.76,0,0,1,1.21,2.33,15,15,0,0,1,.76,2.41c.09.41.18.82.25,1.24s.08.72.1,1.09a17.11,17.11,0,0,1-1.11,7.55,27.69,27.69,0,0,1-2.16,4.35c-.6,1-1.13,1.87-1.75,2.77L233,386.46c-.62.88-1.19,1.72-2,2.74s-1.45,2-2.24,2.85a70.25,70.25,0,0,1-10,9.64c-7,5.56-14.14,9.68-20.84,13.73-3.36,2-6.64,4-9.81,6a40.64,40.64,0,0,0-7.32,6c-2.93,2.92-6,6.63-10.12,10.48a52.78,52.78,0,0,1-7,5.48,43.12,43.12,0,0,1-4,2.27c-.7.34-1.38.71-2.1,1l-2.14.85c-.78.31-1.28.46-1.85.65l-1.67.56-3.37,1.13-6.81,2.23q-6.85,2.2-13.8,4.24c-9.26,2.67-20.15,6.32-31.37,9.26-2.83.68-5.62,1.42-8.47,2l-4.23.84-4.24.64C74,469.78,68.44,470.17,63.17,469.17Z"/><path class="cls-18" d="M140.49,343.08c16.55-4.63,46.76-33.33,60.07-46.23,4.81-4.67,9.49-9.6,15-13.19s12.23-5.74,18.19-4.15,10.69,7.69,9.57,14.28"/><path class="cls-18" d="M161.6,366c33.25-14.56,46.72-31.2,60.13-43.67,3.82-3.56,7.85-7.44,12.73-8.35,6.95-1.31,13.63,5.17,12.9,12.52"/><path class="cls-18" d="M180.2,394.88c18.63-6.16,36.67-16.45,48.2-32.37"/><path class="cls-18" d="M106.4,321.29s.47-34.77,4.35-43.62c11-25.08-15.81-39.58-19.77-39-2,.3-6.51,10.95-7.09,12.39-2,5-4.09,9.91-6.5,14.71-3,6.08-7.39,11.38-10.79,17.25-3.88,6.69-5,14-7.6,21.17-3.26,8.89-9.49,16.39-13.15,25.14-3.94,9.43-13.69,20.84-16.52,30.64A376.09,376.09,0,0,0,19,404.72c-.2,1.29-.4,2.57-.58,3.86"/><path class="cls-18" d="M89.77,322.69c4.42,5.37,8.91,3.74,12.2,2.77,17.61-5.21,31.49-15.38,46.12-27.56,5.73-4.78,31.25-32.61,37.94-35.47s15-2.59,19.26,2.93"/><path class="cls-19" d="M201.49,277.24s-4.15-8.81-10.41-2.44-4.18,10.88,3,15"/><path class="cls-19" d="M235.73,296s-3.09-9.24-10.06-3.65-5.42,10.32,1.28,15.3"/><path class="cls-19" d="M247.55,327.44s-3.67-9-10.27-3-4.76,10.65,2.24,15.19"/></g></g></svg>