<svg xmlns="http://www.w3.org/2000/svg" xmlns:xlink="http://www.w3.org/1999/xlink" viewBox="0 0 738 600"><defs><style>.cls-1{fill:none;}.cls-2{clip-path:url(#clip-path);}.cls-3{fill:#ffcd00;}.cls-4{fill:#ffce01;}.cls-5{fill:#234535;}.cls-6{fill:#b1c8e5;}.cls-7{fill:#fff;}.cls-8{fill:#8595aa;}.cls-9{fill:#6cc49a;}.cls-10{fill:#154734;}.cls-11{fill:#216345;}.cls-12{fill:#ffe0cf;}.cls-13{fill:#ffbda6;}</style><clipPath id="clip-path"><rect class="cls-1" width="738" height="600"/></clipPath></defs><g id="레이어_3" data-name="레이어 3"><g class="cls-2"><rect class="cls-3" width="739.43" height="601.17"/><path class="cls-4" d="M739.88,601.61H-.44V-.44H739.88ZM.44,600.72H739V.44H.44Z"/><circle class="cls-5" cx="67.61" cy="63.02" r="35.66"/><path class="cls-3" d="M53.82,68c1.35-3.07,10-19.5,11-21.36a90.48,90.48,0,0,1,9.39,0c.13,1.18.13,12.31.13,21.32l4.17,0a60.51,60.51,0,0,1,0,6.32l-4.21,0c0,2.86,0,4.88-.09,5.39a42.78,42.78,0,0,1-6.61,0c0-.8,0-2.82,0-5.39-6.11,0-12.64,0-13.74,0A55.24,55.24,0,0,1,53.82,68Zm13.74,0c0-5.6.08-11.46.13-13.31C66.76,57,62.38,65.38,61.11,68Z"/><path class="cls-4" d="M71.07,80.28c-1.31,0-2.68,0-3.51-.13l-.38,0,0-.38c0-.76,0-2.61,0-5-6.07,0-12.23,0-13.3,0l-.4,0,0-.4a51.81,51.81,0,0,1,0-6.37l0-.15c1.35-3.1,9.92-19.47,11-21.4l.11-.2.23,0a86.61,86.61,0,0,1,9.47,0l.38,0,0,.38c.12,1.18.13,11.58.13,20.92l4.13,0,0,.41c.13,1.52.08,4.68,0,6.38l0,.41-4.2.05c0,.85,0,1.63,0,2.3,0,1.41,0,2.35,0,2.69l0,.35-.35.05A28.11,28.11,0,0,1,71.07,80.28Zm-3-1a48.17,48.17,0,0,0,5.76,0c0-.47,0-1.26,0-2.26,0-.78,0-1.71,0-2.74v-.43l4.23,0c.06-1.57.09-4,0-5.43l-4.2-.05v-.44c0-8.34,0-18.59-.1-20.89-2.83-.14-7.13-.14-8.7,0-1.46,2.63-9.43,17.89-10.84,21.05a53.28,53.28,0,0,0,0,5.78c1.84,0,7.91,0,13.32,0H68v.45C68,76.53,68,78.34,68,79.3ZM60.4,68.4l.31-.64c.36-.72.95-1.89,1.65-3.26,1.8-3.53,4.25-8.35,4.91-10.06l.92-2.38-.06,2.55c0,1.65-.07,6.44-.11,11.5l0,2.24Zm6.81-11.63c-1.07,2.27-2.74,5.55-4.06,8.13l-1.32,2.6,5.29,0V66.11C67.16,62.52,67.18,59.07,67.21,56.77Z"/><rect class="cls-6" x="48.61" y="156.59" width="640.78" height="1146.83" rx="57.24"/><path class="cls-7" d="M632.15,1308.42H105.85a62.31,62.31,0,0,1-62.24-62.23V213.83a62.31,62.31,0,0,1,62.24-62.24h526.3a62.31,62.31,0,0,1,62.24,62.24V1246.19A62.31,62.31,0,0,1,632.15,1308.42ZM105.85,161.59a52.29,52.29,0,0,0-52.24,52.24V1246.19a52.29,52.29,0,0,0,52.24,52.23h526.3a52.29,52.29,0,0,0,52.24-52.23V213.83a52.29,52.29,0,0,0-52.24-52.24Z"/><rect class="cls-8" x="117.27" y="217.68" width="503.47" height="1056.55" rx="48.7"/><path class="cls-9" d="M456.77,198.34l43.77-4.17A31.47,31.47,0,0,0,487.76,187a42.8,42.8,0,0,0-7.66-1.55c-1.31-.16-2.62-.24-3.94-.29l-2,0-1.74,0a57.14,57.14,0,0,0-6.05.5c-1,.13-2,.31-3,.49l-1.84.39c-.71.16-1.3.32-2,.5a42.28,42.28,0,0,0-14.08,6.57A33.61,33.61,0,0,0,439,200Z"/><path class="cls-9" d="M253.26,217.83c-.11-.07-.2-.16-.31-.23a37.1,37.1,0,0,0-15.39-6.27c-1.38-.24-2.78-.42-4.18-.53-.7-.07-1.43-.09-2.09-.11s-1.2,0-1.8,0a45.13,45.13,0,0,0-8.3.85A39.15,39.15,0,0,0,206,217.79a32.92,32.92,0,0,0-5.82,5.3C218.33,221.28,236,219.53,253.26,217.83Z"/><rect class="cls-10" x="164" y="212.91" width="409.13" height="395.93" rx="45.57" transform="translate(-37.01 36.49) rotate(-5.4)"/><path class="cls-10" d="M224.58,628.86a51.38,51.38,0,0,1-51.05-46.48L144.87,278.94A51.29,51.29,0,0,1,191.12,223L507.7,193.13a51.3,51.3,0,0,1,55.9,46.25l28.67,303.44A51.3,51.3,0,0,1,546,598.72L229.44,628.63C227.81,628.79,226.18,628.86,224.58,628.86Zm288-424.5c-1.26,0-2.54.06-3.82.18L192.2,234.45a39.85,39.85,0,0,0-35.92,43.41L185,581.3a39.88,39.88,0,0,0,43.41,35.92l316.58-29.91a39.85,39.85,0,0,0,35.91-43.41L552.18,240.46a39.84,39.84,0,0,0-39.59-36.1Z"/><path class="cls-3" d="M318.76,306.73c2.33-.42,17.78-1.88,21.12-2a57.3,57.3,0,0,1,.68,7.19c-2.24.26-11.09,1.1-12.71,1.2a42,42,0,0,0,.58,6.11c2.38-.32,12.4-1.27,14.52-1.37a45.31,45.31,0,0,1,.68,7.28c-2.81.47-19.68,2.06-22.92,2.17A205.8,205.8,0,0,1,318.76,306.73ZM322,329.94c2.56-.53,30.43-3.17,33-3.12a157.47,157.47,0,0,1,1.69,17.94c-2.32.47-30.67,3.15-33,3.13A157.79,157.79,0,0,1,322,329.94ZM348,338.69a28.88,28.88,0,0,0-.4-4.2c-1.86.07-14.92,1.26-16.66,1.57a30.38,30.38,0,0,0,.39,4.21C333.12,340.24,346.18,339,348,338.69Zm-3.21-35.06a37,37,0,0,1,8.06-.76c.24.91.57,3.94,1,7.5a41.91,41.91,0,0,1,4.22-.2,36,36,0,0,1,.69,7.29c-.82.17-2.47.43-4.18.59.26,3.33.48,6.17.42,7.06a55.1,55.1,0,0,1-8.07.76C346.39,323.5,344.74,306.1,344.76,303.63Z"/><path class="cls-3" d="M360.05,303.32a98.77,98.77,0,0,1,12-1.13c.44,2,3.72,36.72,3.67,38.75a77.94,77.94,0,0,1-8.27.78c-.4-3.27-2.71-27.64-2.92-30.93a31.62,31.62,0,0,1-3.71.35A52.53,52.53,0,0,1,360.05,303.32ZM373.93,302a105.71,105.71,0,0,1,12.52-1.18c.43,2,3.71,36.72,3.66,38.75a80.4,80.4,0,0,1-8.27.78c-.4-3.27-2.71-27.65-2.92-30.93a40.84,40.84,0,0,1-4.25.4A52.53,52.53,0,0,1,373.93,302Zm15.88-2.64a37.46,37.46,0,0,1,8.11-.76c.58,2.41,4,39,3.92,41.39a32.27,32.27,0,0,1-8.12.76C393.2,338.4,389.75,301.85,389.81,299.37Z"/><path class="cls-3" d="M373.49,462.94c-1.89.18-2.74,1.21-2.61,2.62l.32,3.41-9,.85a8,8,0,0,0-7.23,8.74,13.65,13.65,0,0,0,1.29,4.84,6,6,0,0,0,1.41,1.82l1.26,6.83a10,10,0,0,0,10.88,8.2l4.3-.4c.14,1.41,1.17,2.26,3.05,2.08s2.74-1.21,2.6-2.62l4.46-.42a10,10,0,0,0,9.14-10.1l0-7.13a6.21,6.21,0,0,0,.89-1.85,13.43,13.43,0,0,0,.36-5,8,8,0,0,0-8.74-7.23l-9,.85-.32-3.41C376.4,463.62,375.37,462.76,373.49,462.94Z"/><path class="cls-3" d="M376.7,503.86a4.28,4.28,0,0,1-3.87-2l-2.83.27a11.94,11.94,0,0,1-12.93-9.77l-1.16-6.22a7.75,7.75,0,0,1-1.35-1.92,15.41,15.41,0,0,1-1.48-5.51A9.93,9.93,0,0,1,362,467.92l7.09-.67-.14-1.51c-.2-2.12,1.06-4.39,4.33-4.7h0a4.91,4.91,0,0,1,3.47.8,4.1,4.1,0,0,1,1.66,3l.14,1.5,7.09-.67a9.94,9.94,0,0,1,10.82,9,15.47,15.47,0,0,1-.42,5.69,7.9,7.9,0,0,1-.82,1.89l0,6.56a11.92,11.92,0,0,1-10.87,12l-3,.29a4.46,4.46,0,0,1-4.08,2.75Zm-2.58-5.92a1.9,1.9,0,0,1,1.9,1.72c0,.22.05.46,1,.37s.9-.33.88-.54a1.91,1.91,0,0,1,1.72-2.08l4.46-.42a8.14,8.14,0,0,0,7.41-8.19l0-7.13a1.84,1.84,0,0,1,.35-1.12,4.31,4.31,0,0,0,.61-1.26,11.81,11.81,0,0,0,.3-4.29,6.12,6.12,0,0,0-6.66-5.51l-9,.85a1.92,1.92,0,0,1-2.09-1.72l-.32-3.41a.48.48,0,0,0-.08-.27,1.54,1.54,0,0,0-.88-.1h0c-.93.09-.91.33-.89.54l.33,3.41a2,2,0,0,1-.43,1.4,1.9,1.9,0,0,1-1.3.68l-9,.85a6.13,6.13,0,0,0-5.51,6.66,11.84,11.84,0,0,0,1.1,4.16,4.14,4.14,0,0,0,1,1.25,1.91,1.91,0,0,1,.62,1.08l1.26,6.83a8.15,8.15,0,0,0,8.82,6.65l4.3-.4Z"/><path class="cls-3" d="M427.89,498.43a2.08,2.08,0,0,0,1.37.32,30.21,30.21,0,0,0,6.38-56.63,13.36,13.36,0,0,1-6.1-6,30.21,30.21,0,0,0-29.81-16.48l-.23,0a13.81,13.81,0,0,1-9.71-2.87,30.18,30.18,0,0,0-41,3.87,13.76,13.76,0,0,1-9,4.63l-.23,0a30.2,30.2,0,0,0-26.2,21.76,13.35,13.35,0,0,1-4.85,7.08,30.2,30.2,0,0,0,16.61,54.42,4.88,4.88,0,0,1,4.66,4.39L331,525.23a11.61,11.61,0,0,1-3.86,9.79l-4.9,4.37a3,3,0,0,0-1,2.58h0a3.06,3.06,0,0,0,3.34,2.76l8.2-.77,8.73-.83a9.72,9.72,0,0,1,4.14.52l5.2,1.85a9.68,9.68,0,0,0,6.2.09l6.81-2.21a9.58,9.58,0,0,1,5.92,0l7.77,2.5a9.65,9.65,0,0,0,3.85.42,9.55,9.55,0,0,0,3.71-1.14l7.17-3.91a9.66,9.66,0,0,1,5.82-1.11l7.14.91a9.72,9.72,0,0,0,6.08-1.25L416,537a9.62,9.62,0,0,1,4-1.28l8.68-.82,8.25-.78a3.06,3.06,0,0,0,2.76-3.34h0a3,3,0,0,0-1.48-2.33l-5.64-3.34h0a5.2,5.2,0,0,0-5.54.1,16.59,16.59,0,0,1-7.71,2.77l-37.45,3.53a1.52,1.52,0,0,1-1.64-1.12,1.46,1.46,0,0,1,.18-1.13L391.06,509a41.39,41.39,0,0,1-12.91,3.12c-17.87,1.69-30.55-5.71-32.43-25.67s8.66-35,26.54-36.69c17-1.61,29.4,10.35,32.2,28.67.52.59,1,.95,1.57.88a6.9,6.9,0,0,0,2.72-1.07c.51-.37,1.3-1.16,2-.38s.24,1.75,0,2.5a9.65,9.65,0,0,1-2.57,3.94l.31-.29a9.77,9.77,0,0,0-3.16,8.4c.32,3.37,1.6,5.66,4,7.27h0a16.44,16.44,0,0,1,6.37,19.06h0a.94.94,0,0,0,0,.7.9.9,0,0,0,.64.53.93.93,0,0,0,1.05-.54v0a16.43,16.43,0,0,0-3.52-17.94h0a16.43,16.43,0,0,1,9.23-26.93l.26,0h0a10.15,10.15,0,0,1,5.31,19.59,2.83,2.83,0,0,0-.71.31,2.37,2.37,0,0,0-.32,3.82h0C427.69,498.28,427.78,498.37,427.89,498.43Z"/><path class="cls-3" d="M380.45,548.24a11.47,11.47,0,0,1-3.53-.55l-7.76-2.5a7.71,7.71,0,0,0-4.75,0l-6.81,2.22a11.63,11.63,0,0,1-7.44-.11l-5.2-1.85a7.76,7.76,0,0,0-3.31-.42l-16.93,1.6a5,5,0,0,1-3.78-8.67l4.9-4.36a9.79,9.79,0,0,0,3.23-8.19l-1.17-12.29a2.94,2.94,0,0,0-2.84-2.66,32.24,32.24,0,0,1-30.49-29.06,31.89,31.89,0,0,1,12.83-28.8,11.63,11.63,0,0,0,4.16-6.07,31.93,31.93,0,0,1,27.85-23.15l.23,0a11.85,11.85,0,0,0,7.75-4A32.12,32.12,0,0,1,391,415.24a11.84,11.84,0,0,0,8.36,2.48l.22,0a31.94,31.94,0,0,1,31.71,17.52,11.53,11.53,0,0,0,5.22,5.18,32.12,32.12,0,0,1-6.78,60.21,4,4,0,0,1-2.8-.55h0l-.36-.26-.2-.16a4.3,4.3,0,0,1,.56-6.87,5,5,0,0,1,1.18-.52,8.24,8.24,0,0,0-2.37-16.12,9.58,9.58,0,0,0-1.82.19l-.21.06-.25,0a14.51,14.51,0,0,0-8.14,23.79l.14.19a18.34,18.34,0,0,1,3.66,19.75,2.21,2.21,0,0,1-.18.34,2.83,2.83,0,0,1-3,1.29,2.79,2.79,0,0,1-2-1.67,2.85,2.85,0,0,1-.09-2,.56.56,0,0,1,0-.12,14.53,14.53,0,0,0-5.57-16.8l0,0a11,11,0,0,1-4.87-8.68,11.69,11.69,0,0,1,3.33-9.56l.14-.14.11-.1a7.5,7.5,0,0,0,1.6-2.25,9.37,9.37,0,0,1-2.14.65l-.11,0a3.8,3.8,0,0,1-3.25-1.51,2,2,0,0,1-.46-1c-2.74-17.91-14.58-28.52-30.13-27.06-16.65,1.57-26.63,15.48-24.82,34.61,1.14,12.13,7.33,26.11,30.35,23.95a40.07,40.07,0,0,0,12.32-3,1.9,1.9,0,0,1,2.17.44,1.93,1.93,0,0,1,.3,2.19l-10.34,19.67L419.14,526A14.82,14.82,0,0,0,426,523.6a7.13,7.13,0,0,1,7.57-.16l5.65,3.34a5,5,0,0,1,2.41,3.8,5,5,0,0,1-4.48,5.43l-16.93,1.6a7.74,7.74,0,0,0-3.18,1l-4.77,2.8a11.56,11.56,0,0,1-7.28,1.49l-7.14-.9a7.7,7.7,0,0,0-4.66.88L386,546.83a11.54,11.54,0,0,1-4.44,1.36A10.05,10.05,0,0,1,380.45,548.24ZM366.79,541a11.64,11.64,0,0,1,3.54.56l7.76,2.5a7.88,7.88,0,0,0,3.09.34,7.73,7.73,0,0,0,3-.91l7.18-3.92a11.42,11.42,0,0,1,7-1.32l7.14.9a7.75,7.75,0,0,0,4.87-1l4.76-2.8a11.79,11.79,0,0,1,4.76-1.53l16.93-1.6a1.2,1.2,0,0,0,.78-.41,1.16,1.16,0,0,0-.29-1.73l-5.64-3.33a3.29,3.29,0,0,0-3.51,0,18.72,18.72,0,0,1-8.61,3.08l-37.44,3.54a3.44,3.44,0,0,1-3.68-2.59,3.34,3.34,0,0,1,.38-2.51l8.35-15.9a48.23,48.23,0,0,1-8.77,1.58c-20.41,1.94-32.67-7.8-34.52-27.39-2-21.07,9.64-37,28.27-38.77,17.22-1.64,30.86,10.18,34.14,29.45a4.56,4.56,0,0,0,1.42-.62l.15-.12c2.37-1.83,3.86-.56,4.39.06a3.11,3.11,0,0,1,.68,1.47,18.24,18.24,0,0,1,9.84-5.38l.13,0h.05a12.22,12.22,0,0,1,2.78-.32h0a12.06,12.06,0,0,1,3.48,23.6.74.74,0,0,0-.24.09.43.43,0,0,0-.24.45.49.49,0,0,0,.13.3l.06,0-1,1.64,1-1.55h0l0-.07.1,0a28.29,28.29,0,0,0,5.81-53,15.36,15.36,0,0,1-7-6.9,28.12,28.12,0,0,0-27.92-15.43l-.23,0a15.67,15.67,0,0,1-11.06-3.26,28.26,28.26,0,0,0-38.37,3.63A15.67,15.67,0,0,1,340,427.17l-.23,0a28.13,28.13,0,0,0-24.54,20.39,15.4,15.4,0,0,1-5.55,8.09A28.07,28.07,0,0,0,298.38,481a28.39,28.39,0,0,0,26.86,25.6,6.83,6.83,0,0,1,6.47,6.12l1.16,12.29a13.6,13.6,0,0,1-4.49,11.4l-4.9,4.36a1.2,1.2,0,0,0-.38,1,1.16,1.16,0,0,0,1.26,1l16.93-1.6a11.61,11.61,0,0,1,5,.62l5.2,1.85a7.76,7.76,0,0,0,5,.07l6.81-2.21A11.52,11.52,0,0,1,366.79,541Zm62.26-44.12Zm-20.87-9.64a8.07,8.07,0,0,0-1,4.95,7.9,7.9,0,0,0,1.76,4.64,18.7,18.7,0,0,1-.74-9.59Z"/><path class="cls-10" d="M428.32,494.17a10.16,10.16,0,0,0-5-19.68h0l-.26,0a16.43,16.43,0,0,0-9.23,26.93h0a16.43,16.43,0,0,1,3.52,17.94v0a.93.93,0,0,1-1.05.54.9.9,0,0,1-.64-.53.94.94,0,0,1,0-.7h0a16.44,16.44,0,0,0-6.37-19.06h0c-2.42-1.61-3.7-3.9-4-7.27a9.77,9.77,0,0,1,3.16-8.4l-.31.29a9.65,9.65,0,0,0,2.57-3.94c.28-.75.57-1.86,0-2.5s-1.46,0-2,.38a6.9,6.9,0,0,1-2.72,1.07c-1.59.21-2.77-3.28-5.29-5.17h0a10.12,10.12,0,0,0-7.25-2.14h0a5.66,5.66,0,0,0-5.07,5.3,10.5,10.5,0,0,0,0,1.48,10.13,10.13,0,0,0,3.82,7h0a2.4,2.4,0,0,1-.32,4.08h0a10,10,0,0,1-3.74,1.1,10.15,10.15,0,0,1-9.63-4.82h0a2.4,2.4,0,0,0-4.29,2.07h0a16.42,16.42,0,0,0,15.23,11.59,3.89,3.89,0,0,1,3.44,5.62l-.07.14-12.45,23.7a1.52,1.52,0,0,0-.22.92,1.48,1.48,0,0,0,1.62,1.34L419.32,528a16.69,16.69,0,0,0,15.05-18,16.35,16.35,0,0,0-6.79-11.7h0a2.36,2.36,0,0,1-.81-1.58A2.39,2.39,0,0,1,428.32,494.17Z"/><path class="cls-10" d="M381.13,523.17l3.75-5.79a1.68,1.68,0,0,0-1.71-2.57c-1.19.22-3.42.63-4.71.75-21.27,2-34.6-8.49-36.57-28.81-1.1-11.29,1.92-22.19,8.29-29.9A30.13,30.13,0,0,1,371,445.77a32.29,32.29,0,0,1,23.08,6.63,35.4,35.4,0,0,1,12.67,22,1.68,1.68,0,0,0,3.31-.58c-3.5-20-20.06-33.2-39.38-31.38a33.44,33.44,0,0,0-23.1,12.29c-6.93,8.4-10.23,20.19-9,32.37,1.11,11.44,5.44,20.05,12.88,25.58,6.9,5.12,16.35,7.28,27.34,6.24.36,0,.78-.08,1.22-.15l-1.68,2.59a1.68,1.68,0,0,0,.5,2.32,1.59,1.59,0,0,0,1.07.26A1.67,1.67,0,0,0,381.13,523.17Z"/><path class="cls-11" d="M205.62,269.8c-13.08,0-27.48-.74-40.29-5.35a5.73,5.73,0,0,1,3.89-10.79c12.65,4.56,27.92,4.79,41.24,4.64,54.33-.58,109.47-7.56,162.79-14.3,39.4-5,80.13-10.13,120.45-12.72l2-.12c15.47-1,31.48-2,44.18-8.33A5.73,5.73,0,0,1,545,233.09c-14.77,7.37-32,8.46-48.57,9.51l-2,.13c-40,2.56-80.52,7.69-119.74,12.65-53.65,6.78-109.12,13.79-164.1,14.39C209,269.79,207.3,269.8,205.62,269.8Z"/><path class="cls-11" d="M406.17,587.26a5.73,5.73,0,0,1-.4-11.45c37.06-2.62,77.78-8.2,128.14-17.59,14-2.62,19-9.08,19.89-25.62,3.07-60.38-4.25-122.31-11.33-182.19-2.58-21.85-5.25-44.43-7.37-66.54a5.74,5.74,0,0,1,11.42-1.09c2.1,22,4.76,44.5,7.34,66.28,7.13,60.36,14.51,122.77,11.39,184.12-.79,15.41-4.87,31.77-29.24,36.31-50.8,9.47-91.92,15.11-129.43,17.76Z"/><path class="cls-9" d="M240.07,632.26a16.15,16.15,0,0,1-16-14.62L191.15,269.72a16.14,16.14,0,0,1,32.14-3L256.16,614.6a16.15,16.15,0,0,1-14.55,17.59C241.09,632.24,240.58,632.26,240.07,632.26Zm3.11-16.43h0Z"/><path class="cls-9" d="M534.33,604.46a16.15,16.15,0,0,1-16.05-14.63L485.41,241.91a16.14,16.14,0,0,1,32.14-3L550.42,586.8a16.16,16.16,0,0,1-14.55,17.59h0C535.35,604.44,534.84,604.46,534.33,604.46Zm.63-9.65h0Z"/><rect class="cls-11" x="201.17" y="261.65" width="13.04" height="23.12" rx="5.57" transform="translate(-24.78 20.75) rotate(-5.4)"/><path class="cls-11" d="M207.29,295.35a16.1,16.1,0,0,1-16-14.57l-1.13-11.93a16.1,16.1,0,0,1,14.5-17.52l1.89-.18a16.1,16.1,0,0,1,17.52,14.5l1.13,11.93a16.1,16.1,0,0,1-14.49,17.52l-1.9.18C208.31,295.32,207.8,295.35,207.29,295.35Zm2.44-10.72h0Z"/><rect class="cls-11" x="495.43" y="233.85" width="13.04" height="23.12" rx="5.57" transform="translate(-20.86 48.3) rotate(-5.4)"/><path class="cls-11" d="M501.55,267.55a16.1,16.1,0,0,1-16-14.57l-1.13-11.93a16.1,16.1,0,0,1,14.5-17.52l1.9-.18a16.1,16.1,0,0,1,17.52,14.5l1.12,11.93A16.1,16.1,0,0,1,505,267.3l-1.9.17C502.57,267.52,502.05,267.55,501.55,267.55ZM504,256.83h0Z"/><path class="cls-9" d="M355.79,394.26c-47.54,0-90.81-25.57-110.22-67.29-7.26-15.62-9-30.75-10.77-45.38-.54-4.57-1.1-9.31-1.82-13.94a23.38,23.38,0,0,0-1.25-5.23c-2.48-1.69-9.8-1.42-12.29.38,0,.83.09,2.35.16,3.42s.14,1.87.18,2.8a14.33,14.33,0,0,1-28.64,1.3c0-.68-.08-1.36-.13-2.05-.27-3.72-.63-8.82,1.05-14.32,3.46-11.29,14-19.12,28.22-20.94,15.21-1.95,29.22,3.56,35.68,14,3.33,5.42,4.54,11,5.35,16.19s1.39,10.16,2,15c1.59,13.51,3,25.19,8.3,36.64,17.2,37,59.86,57.11,103.74,48.89,22.24-4.17,40.63-14,53.18-28.38s22.81-48.06,15.28-87.49l-.19-1c-.73-3.76-1.73-8.9-.78-14.62,2.36-14.22,15.89-24,35.3-25.48a47.06,47.06,0,0,1,21.07,2.72c14.77,5.86,16.34,18.09,17.27,25.39l.12.87a14.33,14.33,0,0,1-28.43,3.7l-.12-.92c-.11-.85-.24-1.87-.37-2.72a22.44,22.44,0,0,0-7.34-.45,22.85,22.85,0,0,0-9.19,2.46c.11,1,.4,2.48.61,3.56l.21,1.11c6.75,35.38,2.62,83.64-21.83,111.69-16.83,19.32-40.87,32.36-69.52,37.73A135.38,135.38,0,0,1,355.79,394.26Z"/><path class="cls-10" d="M369,31.38c-4.53,0-6.8,2.26-6.8,5.66v8.19H340.54a19.2,19.2,0,0,0-19.18,19.19,32.3,32.3,0,0,0,2,11.82,14.23,14.23,0,0,0,2.94,4.66l1.48,16.55a24,24,0,0,0,24.06,22h10.34c0,3.39,2.27,5.65,6.8,5.65s6.79-2.26,6.79-5.65h10.71a24,24,0,0,0,24.06-22l1.52-17a14.2,14.2,0,0,0,2.54-4.19,32.51,32.51,0,0,0,2-11.82,19.21,19.21,0,0,0-19.19-19.19H375.75V37C375.75,33.64,373.49,31.38,369,31.38Z"/><path class="cls-10" d="M369,126c-4.45,0-7.25-2.09-7.66-5.65h-9.47a24.94,24.94,0,0,1-25-22.83L325.4,81.29a15.3,15.3,0,0,1-2.91-4.72,33.21,33.21,0,0,1-2.05-12.15,20.13,20.13,0,0,1,20.1-20.1h20.71V37c0-4.12,2.88-6.57,7.71-6.57s7.71,2.45,7.71,6.57v7.28h20.7a20.12,20.12,0,0,1,20.1,20.1,33.21,33.21,0,0,1-2,12.15,15.28,15.28,0,0,1-2.5,4.23l-1.5,16.73a24.94,24.94,0,0,1-25,22.83h-9.85C376.21,123.92,373.41,126,369,126ZM340.54,46.15a18.3,18.3,0,0,0-18.27,18.27,31.56,31.56,0,0,0,1.92,11.49A13.28,13.28,0,0,0,327,80.27l.21.23,1.51,16.86a23.13,23.13,0,0,0,23.16,21.18h11.25v.91c0,3,2.09,4.74,5.88,4.74s5.87-1.69,5.88-4.74v-.91h11.62a23.12,23.12,0,0,0,23.15-21.18l1.55-17.3.19-.22a13.64,13.64,0,0,0,2.38-3.93,31.56,31.56,0,0,0,1.92-11.49,18.3,18.3,0,0,0-18.28-18.27H374.84V37c0-3.06-2.09-4.75-5.88-4.75S363.08,34,363.08,37v9.11Z"/><path class="cls-12" d="M93.47,689.82c28.24.37,102.81-30.45,130.13-40.86,21-8,26.82-26.07,45.88-38.44C293.43,595,316.27,584.3,329.66,565c1.49-2.14,3.06-4.23,4.46-6.46.59-.94,1.16-1.88,1.73-2.82,1.35-2.27,2.68-4.68,2.84-7.32.6-9.49-13.82-9.38-20.05-9.32-.83,0-1.65.13-2.45.07,4.56-6,27.67-29.27,31.72-35.88,4.43-7.23,9.07-15.09,7.21-23.58-.49-2.26-1.44-4.51-3.26-5.75-2.47-1.68-5.87-1.11-8.88-.22-11.51,3.39-40,28.79-52,26.88,11.75-12.21,23.44-24.47,35.23-36.63,5.84-6,12-11.84,17.26-18.41,2.56-3.21,5-6.81,5.34-10.9,1.37-15.59-17-6.86-24.1-3.09s-14,7.75-20.77,12c-6.39,4-12.42,8.9-19.25,12-3.36,1.53-9.13,4.18-12.62,1.55a5,5,0,0,1-1.61-2.24c-2.85-7.46,29.71-50,21.4-53.58-6.61-2.85-14.15,3.07-19.9,8.43-14.4,13.4-60.63,56.37-77.36,66.22-8.11,4.77-45.71,25.47-51.08,12.92-1.12-2.64,3.52-7.77,2.59-10.64-7.15-22,3.64-57.15,7.71-71.47,1.95-6.85-.28-13.91-2.07-20.48-2.34-8.57-7.26-24.55-14.17-14.44-27.83,40.71-55.4,117.55-82.87,158.48C40.87,551,37.94,587,38,612.8c0,22-13.2,44-13.18,66"/><path class="cls-12" d="M93.43,692.54a86.61,86.61,0,0,0,11-2.72c3.63-1.09,7.24-2.32,10.88-3.62,7.28-2.57,14.65-5.39,22-8.27,14.67-5.77,29.21-11.84,42-17.74s25.59-11.75,38.61-17.39l2.46-1c.44-.18.74-.34,1.08-.5l1-.48a40.26,40.26,0,0,0,3.89-2.1,47.75,47.75,0,0,0,7.1-5.43c4.55-4.11,8.77-9.36,13.75-14.81a106.86,106.86,0,0,1,11.14-10.78c1.06-.82,2.05-1.71,3.17-2.47l3.29-2.31c2-1.32,4.06-2.67,6.1-4,8.13-5.19,16.26-10.06,23.91-15.13s14.76-10.39,20.5-16.47c.7-.77,1.45-1.51,2.11-2.3l2-2.37c.62-.81,1.2-1.65,1.8-2.46l.45-.62.53-.76,1.05-1.51c.68-1,1.31-1.88,1.87-2.73l.32-.51.23-.42a7.42,7.42,0,0,0,.79-1.69,2,2,0,0,0-.32-1.82,3,3,0,0,0-1.69-.86,9.12,9.12,0,0,0-1.87-.18h-3.46l-.47,0a19.93,19.93,0,0,1-3.16,0L296.34,548l11.8-15,1.29-1.63L310.6,530c.78-.93,1.5-1.72,2.25-2.59l4.4-4.88,8.69-9.5c3.06-3.36,6.1-6.73,8.91-10l1-1.23,1-1.2c.33-.4.66-.8.91-1.15s.59-.76.79-1.05l.23-.36.12-.17a2.32,2.32,0,0,0,.15-.23l.85-1.42c.54-.92,1.06-1.82,1.54-2.69.23-.43.48-.87.69-1.29l.32-.63.08-.15,0,0,0-.1c.13-.3.2-.47.28-.7a5.27,5.27,0,0,0,.29-1.34A3.55,3.55,0,0,0,343,488a1.6,1.6,0,0,0-.73-1,2.17,2.17,0,0,0-1.62.08,7.15,7.15,0,0,0-1.39.76L339,488l-.07.05-.22.14-.83.54-3.4,2.24-7,4.75c-4.75,3.22-9.6,6.5-15,9.63a76.86,76.86,0,0,1-9,4.45c-.91.33-1.73.68-2.73,1l-1.46.45-1.63.39a23.17,23.17,0,0,1-8.43.4l-22-3.08,15.45-16.47,35.61-37.95c3.09-3.25,6.11-6.3,8.89-9.28q2.09-2.24,4-4.44c.62-.73,1.23-1.46,1.82-2.2s1.16-1.46,1.6-2.08a12,12,0,0,0,1.6-2.73c.09-.27.07-.26.06-.32v-.06a.66.66,0,0,1,0-.2c0-.22,0-.18,0-.26a17.1,17.1,0,0,0,6.27-1.33c1.18-.56,1.19-1,.78-.3a12.29,12.29,0,0,0-1.16,4.89,17.48,17.48,0,0,0-.08,2.06v.21H342l-.16,0a.91.91,0,0,0-.25,0,12,12,0,0,0-1.6.39c-.63.18-1.35.43-2.09.72-1.49.57-3.11,1.31-4.75,2.13-.83.42-1.62.84-2.5,1.32l-2.76,1.52c-1.83,1-3.65,2-5.47,3.1q-5.44,3.17-10.78,6.52c-1,.6-1.57,1-2.52,1.63l-5.42,3.7a105.05,105.05,0,0,1-10.78,6.66,53.85,53.85,0,0,1-10.12,4.18,25.45,25.45,0,0,1-8.57,1,19.13,19.13,0,0,1-7.1-1.89,16.07,16.07,0,0,1-1.76-1,18.7,18.7,0,0,1-1.83-1.26,17.43,17.43,0,0,1-3.14-3.35,18.43,18.43,0,0,1-1.83-3.15,17.14,17.14,0,0,1-1.06-3,18.21,18.21,0,0,1-.11-7.72,44,44,0,0,1,3.74-10.52c1.83-3.8,3.94-7.7,6.12-11.58,1.55-2.75,3.11-5.5,4.65-8.24.83-1.48,1.65-3,2.48-4.43,1.59-2.9,3.11-5.78,4.27-8.34a31,31,0,0,0,1.32-3.27l.08-.26.05-.18a.2.2,0,0,1,0-.07,3.91,3.91,0,0,1,.55.1l.72.14c.48.08,1,.16,1.46.22s.92.12,1.35.17.85.09,1.28.11.74.06,1.13.06.74,0,1.08,0,.6,0,.9,0l.45-.07a2.07,2.07,0,0,0,.35,0,4.06,4.06,0,0,0,.69-.16,2.3,2.3,0,0,0,.49-.15c.57-.2.71-.45.6-.3a.76.76,0,0,0-.13.23l0,.05-2.73,6.32v0a.81.81,0,0,0,.06-.13l0-.08v0a.4.4,0,0,0,0,.15v.19c0,.15,0,.29,0,.43v.47a5.27,5.27,0,0,0,0,.7l0,.34a2.15,2.15,0,0,1,.06.39,9.61,9.61,0,0,0,.16,1l.11.46c0,.11,0,.06,0,.06h0l-.06,0a.16.16,0,0,1-.07,0l-.14.07a10.07,10.07,0,0,0-2,1.05,33.55,33.55,0,0,0-2.85,2.12c-.51.42-1,.86-1.56,1.33l-1.69,1.53-3.7,3.38q-7.38,6.76-14.75,13.36c-9.82,8.81-19.62,17.41-29.6,25.81-5,4.2-10,8.34-15.26,12.42-2.58,2-5.29,4.05-8,6.06-1.45,1-2.84,2-4.34,3l-2.42,1.52c-.81.51-1.63,1-2.37,1.42-6,3.33-11.88,6.31-18.13,9.1-3.12,1.38-6.31,2.7-9.64,3.91l-2.53.89-1.29.42-.64.21-1,.3c-1.36.39-2.68.81-4.16,1.14l-2.16.51-2.15.38c-1.44.29-2.84.35-4.25.5a20.2,20.2,0,0,1-2,0c-.68,0-1.38,0-2-.05l-2-.21c-.64-.08-1.24-.25-1.86-.37l-.93-.2-.88-.29a12.69,12.69,0,0,1-1.73-.62,17.23,17.23,0,0,1-6-4.21c-.41-.49-.85-1-1.21-1.48s-.63-1.1-1-1.59a9.77,9.77,0,0,1-1.16-3c-.17-1-.39-1.88-.5-2.91a17,17,0,0,1,.1-3.51,22.72,22.72,0,0,1,1-4.44l.1-.3c.05-.1.21-.19.31-.29l.7-.58.35-.29c-1.7.08,15.47-1.41,8.24-.77h.08a1.53,1.53,0,0,0,.36-.07l.09,0-8.34,2.69,0-.18-.09-.38-.2-.74a49.52,49.52,0,0,1-1.33-5.95l-.45-2.93c-.18-1-.18-1.91-.27-2.88a105.65,105.65,0,0,1,.79-22,194.86,194.86,0,0,1,4-20.88c1.66-6.82,3.63-13.65,5.62-20.24l.36-1.23.2-.7a11,11,0,0,0,.22-1.26,15,15,0,0,0,0-3.14,56.78,56.78,0,0,0-1.84-8.72c-.48-1.8-.87-3.32-1.33-4.87s-.92-3-1.42-4.37a27.49,27.49,0,0,0-1.5-3.47c-.22-.4-.43-.71-.46-.76h0l.4-.36c.27-.23.55-.54.77-.72a14,14,0,0,0,1.26-1.31,9.28,9.28,0,0,0,.91-1.17,4,4,0,0,0,.32-.48c.1-.18.18-.37.24-.45a6.48,6.48,0,0,0,.25-.64,1.24,1.24,0,0,0,0-.22v0a3.06,3.06,0,0,0,.22.78c.05.06.13.3.21.46a3.77,3.77,0,0,0,.28.48c.09.11.23.37.37.58a7.47,7.47,0,0,0,.46.61c.3.31.75.92,1.19,1.36a8.7,8.7,0,0,0,.69.67,4.72,4.72,0,0,1,.53.52.1.1,0,0,1-.05,0l-.13.18a9.46,9.46,0,0,0-.55.8l-1.39,2.1-2.79,4.2c-.93,1.41-1.79,2.91-2.68,4.35-7.1,11.65-13.56,24-19.85,36.48-12.58,25-24.27,50.76-37.57,76.05-1.68,3.16-3.52,6.71-5.71,10.5l-3.36,5.9-3.77,6.18c-1.25,2.12-2.68,4.25-4.13,6.4s-3,4.5-4.12,6.23A66.83,66.83,0,0,0,53.57,549a116.52,116.52,0,0,0-4.42,14.1c-.65,2.38-1.13,4.79-1.67,7.15s-.94,4.71-1.33,7c-1.59,9.25-2.55,17.84-3.24,24.76-.35,3.46-.62,6.84-.84,10.16-.14,1.7-.3,3.54-.5,5.25s-.5,3.44-.89,5.08a122.78,122.78,0,0,1-5.74,18.61c-2.27,5.92-4.77,11.67-7.1,17.75a103.9,103.9,0,0,0-5.79,19.9,85,85,0,0,1,1.56-22c1.34-7.13,3.11-14,4.6-20.78A106.06,106.06,0,0,0,31,616.4l0-2.34V612.9l-.05-1.34c-.06-1.8-.14-3.6-.16-5.41-.08-3.6-.09-7.22,0-10.84.13-7.25.54-14.52,1.36-21.82a158,158,0,0,1,3.92-22,97,97,0,0,1,8.26-21.79l1.57-2.64,1.53-2.52,2.67-4.3c1.82-2.82,3.47-5.83,5.18-8.79,6.74-11.93,12.87-24.45,18.86-37.09s11.81-25.47,17.74-38.33,12-25.73,18.56-38.53l2.47-4.8,2.58-4.77,2.6-4.77,2.76-4.75c.92-1.57,1.82-3.16,2.78-4.73l3-4.69,1.5-2.35.37-.59.19-.29.1-.15.17-.24a22.49,22.49,0,0,1,1.47-1.91c.3-.34.54-.64.92-1s.75-.74,1.14-1.09,1-.78,1.48-1.14l.39-.27.5-.29c.33-.2.67-.38,1-.55a14.54,14.54,0,0,1,5.37-1.47,14.68,14.68,0,0,1,3.11.15,14.43,14.43,0,0,1,1.45.32l.72.2.62.23a14.33,14.33,0,0,1,2.25,1.09c.32.19.64.39.95.6s.52.38.78.58l.74.61.6.56c.4.38.78.77,1.07,1.1a24.49,24.49,0,0,1,2.77,3.86,45.11,45.11,0,0,1,3.05,6.36c.78,2,1.43,3.89,2,5.75l.83,2.76.75,2.6a78.51,78.51,0,0,1,2.71,12,37.5,37.5,0,0,1,.21,7.56,34.63,34.63,0,0,1-.6,4.08l-.25,1-.23.92-.36,1.28c-1.9,6.82-3.64,13.33-5.1,19.92A168.82,168.82,0,0,0,156,450.71a73.21,73.21,0,0,0,.15,18.17,27.78,27.78,0,0,0,.83,3.91l.66,2.44a18.52,18.52,0,0,1,.37,1.83l.06.46c0,.21,0,.2,0,.2v.22l0,.14c0,.18-.13.35-.19.52a.4.4,0,0,0,.15.49,1.3,1.3,0,0,0,1.09.13,4.42,4.42,0,0,0,.52-.14l1.52-.54a142.46,142.46,0,0,0,17.73-7.91c2.94-1.54,5.9-3.16,8.72-4.81.33-.2.71-.41,1-.6l.89-.59,1.78-1.16,3.87-2.82c5.26-4,10.57-8.43,15.82-12.89,10.52-9,20.9-18.41,31.21-27.89q7.72-7.12,15.41-14.33l3.84-3.61,1.93-1.83c.72-.67,1.47-1.35,2.24-2a64.52,64.52,0,0,1,5.17-4.14,39.08,39.08,0,0,1,6.72-3.95,24.63,24.63,0,0,1,13-2.38,27.28,27.28,0,0,1,3.17.54,26.17,26.17,0,0,1,3.07,1l.42.17c.35.15.7.33,1,.51a14.28,14.28,0,0,1,2,1.27,15.2,15.2,0,0,1,3.43,3.6,16.05,16.05,0,0,1,2.58,6.88,19.92,19.92,0,0,1,.07,4.18,26.94,26.94,0,0,1-1,5.07c-.39,1.35-.79,2.49-1.2,3.58s-.83,2.08-1.25,3c-1.69,3.83-3.43,7.16-5.18,10.43l-2.61,4.8-.53,1h0l0,0s.05,0,.05,0,0,0,0,0h0l0,0,.38-.25,1.56-1,1.48-.92q5.82-3.56,11.74-6.88,3-1.65,5.94-3.26l3-1.59c1.09-.56,2.2-1.13,3.34-1.67a76.58,76.58,0,0,1,7.28-3.05,43.76,43.76,0,0,1,9.06-2.24,26.12,26.12,0,0,1,6.42,0l.94.12,1.05.21,1,.25c.36.1.75.23,1.12.35l1.13.4c.38.16.79.35,1.18.54l1.17.61c.39.23.79.49,1.17.76s.77.54,1.14.82.73.63,1.08,1,.69.67,1,1,.6.71.89,1.08.56.75.82,1.14.45.74.66,1.11.41.77.61,1.15.31.72.46,1.09a21.11,21.11,0,0,1,1.17,4.1,25.27,25.27,0,0,1,.34,3.38c0,.51,0,1,0,1.54l-.07,1.38a25.16,25.16,0,0,1-.36,3.08,24.73,24.73,0,0,1-.76,3.08,25.51,25.51,0,0,1-1,2.76,38.62,38.62,0,0,1-5,8.27c-.85,1.1-1.62,2-2.4,3s-1.58,1.84-2.38,2.73c-1.59,1.77-3.19,3.46-4.78,5.09-3.18,3.25-6.31,6.27-9.22,9.2l-36.22,36.85-7.47-15.66a7.68,7.68,0,0,0,.2-2,21.43,21.43,0,0,0,0-2.53c-.07,0,.06,0,.11,0a.9.9,0,0,0,.29,0,2.57,2.57,0,0,1,.4-.08l.55-.16c.34-.07.83-.28,1.24-.4a52.58,52.58,0,0,0,6.16-2.91c4.4-2.38,9-5.31,13.69-8.35l7.21-4.67,3.77-2.38,1-.6.65-.4.86-.5c1.14-.67,2.28-1.36,3.44-2a46.64,46.64,0,0,1,7-3.15,34.94,34.94,0,0,1,6.93-1.49,18.93,18.93,0,0,1,12.57,2.93c5.38,3.71,7.88,10,8.43,16.77a32.4,32.4,0,0,1-1.06,10.6l-.36,1.35c-.13.45-.3.9-.45,1.34a26.1,26.1,0,0,1-1,2.67c-.38.89-.74,1.78-1.15,2.61l-.63,1.26-.48.9c-1.17,2.2-2.37,4.21-3.53,6.08-.31.5-.49.83-1,1.6l-.69,1-.35.51-.3.38-1.19,1.53c-.4.51-.76.92-1.14,1.39-3,3.58-5.93,6.77-8.89,10l-10.21,11-5,5.37-2.36,2.63-1.07,1.24-.83,1-8.36-11.87c.05-.61.08-1.41.08-2.65v-1.09l0-1.46c0-.74,0-.42,0-.49h0l.8,0c.43,0,1.24,0,1.43,0h1l2.07,0,1.2,0,1.68.07a39,39,0,0,1,12.75,2.61,19.94,19.94,0,0,1,9.22,7.33,17.71,17.71,0,0,1,2.68,11.34,25.1,25.1,0,0,1-3.85,10.83c-1,1.77-2,3.57-3.19,5.29l-1.16,1.7-1.06,1.48-2,2.73-2.39,3.19c-.8,1.06-1.69,2-2.53,3s-1.73,2-2.64,2.9c-1.77,1.92-3.66,3.63-5.53,5.39s-3.84,3.32-5.81,4.81-3.94,3-5.92,4.43-4,2.77-6,4c-8,5.25-16,9.86-23.66,14.58-1.9,1.18-3.84,2.35-5.71,3.55l-2.82,1.79-2.39,1.64a72.24,72.24,0,0,0-9,7.84c-4.53,4.55-9.07,10-14.81,15.48a72.88,72.88,0,0,1-9.59,7.66A59.85,59.85,0,0,1,233.9,655c-1,.46-1.88,1-2.86,1.38l-2.93,1.18c-1.05.43-1.81.68-2.64,1l-2.47.87-5,1.75-10,3.48q-10,3.45-20.19,6.7c-13.53,4.28-29.53,9.83-46,14.4a245.83,245.83,0,0,1-24.69,5.66,113.9,113.9,0,0,1-12.1,1.45A57.93,57.93,0,0,1,93.43,692.54Z"/><path class="cls-13" d="M207.76,512.37a5,5,0,0,1-1.35-9.82c16.3-4.56,45.47-27.15,86.7-67.14q1.63-1.57,3.25-3.17c6.09-6,12.39-12.18,19.77-16.95,10.59-6.85,21.56-9.26,30.9-6.77,12,3.19,19.8,15,17.8,26.79a5,5,0,0,1-9.86-1.66c1.26-7.49-4.48-13.86-10.52-15.47-6.47-1.72-14.82.28-22.89,5.51-6.52,4.22-12.19,9.79-18.19,15.68-1.1,1.08-2.19,2.16-3.29,3.22-43,41.74-72.8,64.51-91,69.59A4.89,4.89,0,0,1,207.76,512.37Z"/><path class="cls-13" d="M239,546.3a5,5,0,0,1-2-9.58c40.47-17.73,60.29-37.15,77.78-54.29,3.36-3.29,6.52-6.39,9.74-9.38l.54-.51c5.79-5.4,12.36-11.52,20.77-13.09a20.5,20.5,0,0,1,17.73,5.34,22.39,22.39,0,0,1,7.25,18.58,5,5,0,0,1-10-1,12.36,12.36,0,0,0-4.05-10.23,10.62,10.62,0,0,0-9.13-2.88c-5.56,1-10.76,5.89-15.79,10.58l-.55.51c-3.12,2.9-6.24,6-9.55,9.2-17.21,16.86-38.62,37.85-80.77,56.31A4.89,4.89,0,0,1,239,546.3Z"/><path class="cls-13" d="M266.49,589a5,5,0,0,1-1.56-9.75c21.25-7,50.44-20.71,68.8-46.05a5,5,0,1,1,8.1,5.87c-15.77,21.76-41.28,38.94-73.77,49.68A5,5,0,0,1,266.49,589Z"/><path class="cls-13" d="M28.73,611.42a5.65,5.65,0,0,1-.71,0,5,5,0,0,1-4.25-5.66q.42-2.9.88-5.79A555.64,555.64,0,0,1,40,533.15c2.55-8.86,8.4-18.15,14-27.14,4.21-6.7,8.19-13,10.57-18.71a144.85,144.85,0,0,1,9.54-17.93C78,463,81.6,456.9,84,450.33c1.29-3.53,2.36-7.22,3.4-10.79,2-7,4.16-14.33,8.19-21.3,2.21-3.81,4.67-7.46,7-11A131.74,131.74,0,0,0,111.44,393c3-6.06,6-12.65,9.43-21.36.4-1,2.35-5.64,4.65-10.19,4-7.89,6.45-10.72,9.75-11.21,6.18-.92,20.72,7.3,29.57,18.88,7.26,9.49,14,25.14,5,45.73-4.37,10-5.82,48.54-6,62.56a5,5,0,0,1-5,4.93h-.07a5,5,0,0,1-4.93-5.06c.07-5.37.88-52.84,6.85-66.45,5-11.42,4.6-22.17-1.25-31.94-6.5-10.87-17.64-17.05-21.85-18.44-2,2.91-5.61,10.4-7.4,14.9-3.59,9-6.6,15.81-9.78,22.14A142.47,142.47,0,0,1,111,412.85c-2.39,3.54-4.65,6.89-6.68,10.4-3.43,5.91-5.28,12.31-7.25,19.08-1.08,3.73-2.2,7.59-3.62,11.45-2.74,7.44-6.74,14.18-10.62,20.7a137,137,0,0,0-8.91,16.68c-2.7,6.45-7.08,13.43-11.33,20.17-5.28,8.4-10.74,17.09-12.91,24.59a550.12,550.12,0,0,0-15.11,65.57c-.29,1.88-.58,3.76-.85,5.63A5,5,0,0,1,28.73,611.42ZM136.32,360.13Zm2-.69"/><path class="cls-13" d="M141.45,492c-4.44,0-9.55-1.57-14.36-7.4a5,5,0,1,1,7.71-6.36c4,4.82,7.06,4.19,12.17,2.66l.61-.18c24-7.1,43.23-20.5,66.42-39.81,2.7-2.23,8.93-8.55,16.16-15.86,19.12-19.35,34.29-34.39,41.17-37.34,10.84-4.65,26.23-4.79,34.42,5.88a5,5,0,1,1-7.93,6.09c-4.94-6.43-15.15-5.95-22.55-2.78-5.63,2.41-25.89,22.92-38,35.18-7.71,7.8-13.8,14-16.87,16.52-24.17,20.12-44.31,34.12-70,41.71l-.58.17A28.56,28.56,0,0,1,141.45,492Z"/><path class="cls-12" d="M298,410s-6.14-13-15.4-3.62-6.18,16.1,4.51,22.25"/><path class="cls-13" d="M287.09,432.43a3.82,3.82,0,0,1-1.89-.5c-7.36-4.24-11.11-8.57-11.8-13.65-.64-4.71,1.47-9.47,6.47-14.55,4.38-4.45,8.43-4.86,11.06-4.4,6.57,1.11,10.1,8.25,10.48,9.06a3.79,3.79,0,0,1-6.85,3.25c-.69-1.43-2.79-4.49-4.91-4.84-1.53-.26-3.22,1.09-4.37,2.25-3.2,3.25-4.66,6-4.37,8.2.34,2.49,3.06,5.22,8.08,8.1a3.79,3.79,0,0,1-1.9,7.08Z"/><path class="cls-12" d="M348.62,437.8s-4.57-13.65-14.88-5.39-8,15.26,1.88,22.62"/><path class="cls-13" d="M335.62,458.83a3.81,3.81,0,0,1-2.26-.75c-6.82-5.07-10-9.82-10.13-14.94-.08-4.75,2.58-9.23,8.14-13.69,4.87-3.91,8.94-3.83,11.5-3.08,6.38,1.88,9.06,9.38,9.35,10.23A3.79,3.79,0,0,1,345,439c-.52-1.5-2.25-4.78-4.31-5.37-1.49-.44-3.33.69-4.6,1.72-3.56,2.85-5.34,5.42-5.3,7.63,0,2.51,2.42,5.54,7.07,9a3.8,3.8,0,0,1-2.27,6.84Z"/><path class="cls-12" d="M366.09,484.23s-5.43-13.34-15.19-4.43-7,15.73,3.31,22.45"/><path class="cls-13" d="M354.21,506.05a3.73,3.73,0,0,1-2.06-.62c-7.12-4.62-10.64-9.15-11-14.26-.39-4.74,2-9.37,7.25-14.18,4.61-4.21,8.68-4.39,11.28-3.8,6.49,1.47,9.64,8.78,10,9.61a3.79,3.79,0,0,1-7,2.88c-.61-1.47-2.54-4.63-4.64-5.09-1.5-.34-3.27.91-4.48,2-3.37,3.07-5,5.75-4.8,7.95.2,2.5,2.77,5.37,7.62,8.52a3.8,3.8,0,0,1-2.07,7Z"/></g></g></svg>