<svg xmlns="http://www.w3.org/2000/svg" xmlns:xlink="http://www.w3.org/1999/xlink" viewBox="0 0 738 600"><defs><style>.cls-1{fill:none;}.cls-2{clip-path:url(#clip-path);}.cls-3{fill:#ffcd00;}.cls-4{fill:#ffce01;}.cls-5{fill:#606060;}.cls-6{clip-path:url(#clip-path-2);}.cls-7{fill:#154734;}.cls-8{fill:#8a9ab2;}.cls-9{fill:#d2e4ff;}.cls-10{fill:#637082;}.cls-11{fill:#fff;}.cls-12{fill:#b1e2ef;}.cls-13{opacity:0.45;}.cls-14{fill:#234535;}</style><clipPath id="clip-path"><rect class="cls-1" width="738" height="600"/></clipPath><clipPath id="clip-path-2"><rect class="cls-1" x="39.64" y="44.14" width="658.71" height="419.91" rx="209.95"/></clipPath></defs><g id="레이어_3" data-name="레이어 3"><g class="cls-2"><rect class="cls-3" width="739.43" height="601.17"/><path class="cls-4" d="M739.88,601.61H-.44V-.44H739.88ZM.44,600.72H739V.44H.44Z"/><path class="cls-5" d="M899.07-129.79H-159.64V731H899.07ZM0,601.17V0H739.43V601.17Z"/><g class="cls-6"><rect class="cls-7" x="39.64" y="44.14" width="658.71" height="419.91" rx="209.95"/><rect class="cls-8" x="27.94" y="267.66" width="673.79" height="15"/><rect class="cls-8" x="27.94" y="240.28" width="673.79" height="12"/><rect class="cls-8" x="27.94" y="213.92" width="673.79" height="10"/><rect class="cls-8" x="27.94" y="191.86" width="673.79" height="7"/><rect class="cls-8" x="27.94" y="170.32" width="673.79" height="5"/><rect class="cls-8" x="27.94" y="151.75" width="673.79" height="4"/><rect class="cls-8" x="27.94" y="90.58" width="673.79" height="15"/><rect class="cls-8" x="27.94" y="63.2" width="673.79" height="12"/><rect class="cls-8" x="27.94" y="36.84" width="673.79" height="10"/><rect class="cls-8" x="27.94" y="14.77" width="673.79" height="7"/><path class="cls-9" d="M310.44,170.33,97.67,172.05c-13.08.11-22.39,16.71-18.67,33.29l11,48.92c2.51,11.15,10.29,18.79,19.09,18.72l191.62-1.55c8.8-.07,16.46-7.84,18.78-19l10.18-49.09C333.09,186.67,323.51,170.22,310.44,170.33Z"/><path class="cls-8" d="M97.68,173.91l212.77-1.72c13.08-.11,22.65,16.34,19.2,33l-2.36,11.39a16.81,16.81,0,0,1-5.63,1l-236.8,1.92a16.41,16.41,0,0,1-3.15-.28l-2.69-12C75.3,190.62,84.61,174,97.68,173.91Z"/><path class="cls-10" d="M88.61,214.83,320.19,213a21.43,21.43,0,0,0,20.38-27.47l-11.84-40.27A21.42,21.42,0,0,0,308,129.83L99.44,131.52A21.42,21.42,0,0,0,79,147.24L67.78,187.7A21.42,21.42,0,0,0,88.61,214.83Z"/><path class="cls-10" d="M88.43,215.23a21.82,21.82,0,0,1-21-27.63l11.18-40.46a21.91,21.91,0,0,1,20.85-16L308,129.44h.17a21.92,21.92,0,0,1,20.94,15.66l11.83,40.28a21.82,21.82,0,0,1-20.75,28L88.61,215.23Zm.18-.79v0l231.57-1.87a21,21,0,0,0,20-27l-11.83-40.27A21.13,21.13,0,0,0,308,130.22L99.45,131.91a21.13,21.13,0,0,0-20.11,15.43L68.16,187.81a21,21,0,0,0,20.27,26.63Z"/><path class="cls-9" d="M88.58,211l231.57-1.88a21.43,21.43,0,0,0,20.39-27.47L328.7,141.33A21.44,21.44,0,0,0,308,125.94L99.41,127.63a21.44,21.44,0,0,0-20.48,15.72L67.75,183.81A21.43,21.43,0,0,0,88.58,211Z"/><path class="cls-8" d="M102.76,200.49l203-1.65c12.48-.1,21.4-10.84,17.9-21.54l-10.35-31.56c-2.36-7.2-9.77-12.12-18.17-12.05l-182.86,1.48c-8.39.07-15.72,5.11-18,12.34l-9.84,31.73C81.19,190,90.29,200.59,102.76,200.49Z"/><path class="cls-10" d="M301.4,138.57c.86,1.24.86,2.72,1.09,3.93a12.28,12.28,0,0,1,.12,3.57c-.25,2.33-.5,4.66-.81,7-.6,4.65-.92,9-1.78,13.65s-2,8.25-3.09,12.8q-.85,3.41-1.79,6.8a21.35,21.35,0,0,1-1.72,4.4,7.39,7.39,0,0,1-2.24,2.74,22.37,22.37,0,0,1,0-3.57c.11-1.15.26-2.31.48-3.44.43-2.28.82-4.56,1.2-6.86q1.1-6.88,2.2-13.77c.75-4.59,1.9-8.66,2.73-13.23l1.21-6.86a17,17,0,0,1,.94-3.38C300.4,141.22,300.53,139.64,301.4,138.57Z"/><path class="cls-10" d="M106.27,140.12a12.09,12.09,0,0,1,2.07,3.72,10.44,10.44,0,0,1,1,3.37q.48,3.42,1,6.84c.68,4.56,1.73,8.8,2.29,13.37s.57,8.32,1,12.9c.25,2.28.48,4.57.79,6.83a24.75,24.75,0,0,1,.2,4.57c-.07.61-.08,1.12-.16,1.68s-.23,1.11-.36,2a8.51,8.51,0,0,1-2.47-3.13,16.51,16.51,0,0,1-1.24-3.39c-.6-2.3-1.13-4.59-1.63-6.88-1-4.58-1.79-9.18-2.57-13.78s-.61-8.85-1-13.5c-.21-2.32-.34-4.65-.47-7a12,12,0,0,1,.32-3.56C105.41,143,105.24,141.35,106.27,140.12Z"/><path class="cls-11" d="M317.05,225.19c.81,2.3.39,4.91.31,7.07a25.21,25.21,0,0,1-1.09,6.33,105.94,105.94,0,0,1-4.46,12,27.29,27.29,0,0,1-3.48,5.92,19.87,19.87,0,0,1-5.4,4.59,33.11,33.11,0,0,1-12.8,3.89c-8.6.9-15.49.47-23.88.17l-12.56-.54a60.35,60.35,0,0,1-8.32-.93,18.69,18.69,0,0,1-5.8-1.87,39.85,39.85,0,0,1,6.29-1.15c2.1-.23,4.19-.34,6.28-.37l12.55-.23c8.34-.19,16.64-.36,24.66-1.49A36.49,36.49,0,0,0,300,256a14.1,14.1,0,0,0,4-2.84,18.1,18.1,0,0,0,3-4.47,111.21,111.21,0,0,0,4.75-11.25,58.34,58.34,0,0,1,2.37-5.71C315.07,229.8,315.68,227,317.05,225.19Z"/><path class="cls-11" d="M118.58,223.94a4.71,4.71,0,0,1-1.76,2.09,3.15,3.15,0,0,1-1.7.88c-1.15.17-2.31.35-3.47.48a51.31,51.31,0,0,1-6.86.8,54.18,54.18,0,0,1-6.53-1c-1.16-.18-2.31-.4-3.46-.61a5.52,5.52,0,0,1-2.25-1,4.22,4.22,0,0,1-1.45-1.94,5.19,5.19,0,0,1,1.8-1.08,5.31,5.31,0,0,1,1.73-.31l3.42-.16,6.81-.39c2.26-.09,4.31.46,6.58.49l3.41.06a3.55,3.55,0,0,1,1.73.5C117.16,223.13,118,223,118.58,223.94Z"/><polygon class="cls-11" points="241.52 209.67 281.09 209.35 299.04 198.97 259.47 199.29 241.52 209.67"/><polygon class="cls-11" points="188.6 210.1 206.61 209.95 224.56 199.57 206.55 199.72 188.6 210.1"/><polygon class="cls-11" points="150.12 210.41 178.03 210.18 195.97 199.8 168.06 200.03 150.12 210.41"/><path class="cls-11" d="M142,267.06c.39-1.87,1.67-3.09,2.5-4.34a15.16,15.16,0,0,1,2.9-3.21l6.52-5.46c4.34-3.64,8.15-7.39,12.55-10.94s8.25-6.09,12.75-9.54l6.72-5.2a30,30,0,0,1,4.8-3.08,10,10,0,0,1,4.16-1.25,18.87,18.87,0,0,1-2.39,3.73,31.19,31.19,0,0,1-2.93,3.14l-6.25,5.84c-4.18,3.88-8.48,7.63-12.78,11.38s-8.75,6.44-13.3,9.88c-2.27,1.72-4.58,3.39-6.88,5.07a18.61,18.61,0,0,1-3.75,2.12C145.2,265.75,143.67,267,142,267.06Z"/><path class="cls-11" d="M163.37,221.62c-.21,1.93-1.41,3.34-2.15,4.72a15.79,15.79,0,0,1-2.74,3.59c-2.11,2.08-4.22,4.18-6.38,6.21-4.31,4.09-8.17,8.16-12.75,12s-8.64,6.43-13.45,9.9c-2.41,1.75-4.85,3.44-7.28,5.14a30.26,30.26,0,0,1-5.2,2.9,10.82,10.82,0,0,1-4.38,1,20.07,20.07,0,0,1,2.81-3.62,32,32,0,0,1,3.26-3q3.39-2.83,6.76-5.69c4.46-3.85,8.94-7.66,13.34-11.58s8.83-6.89,13.3-10.72l6.69-5.77a21.07,21.07,0,0,1,3.65-2.55C160.19,223.37,161.63,221.92,163.37,221.62Z"/><path class="cls-9" d="M310.44-6.13,97.67-4.4C84.59-4.3,75.28,12.31,79,28.89L90,77.81C92.48,89,100.26,96.6,109.06,96.53L300.68,95c8.8-.07,16.46-7.84,18.78-19l10.18-49.09C333.09,10.22,323.51-6.23,310.44-6.13Z"/><path class="cls-8" d="M97.68-2.54,310.45-4.26c13.08-.11,22.65,16.34,19.2,33l-2.36,11.39a17.32,17.32,0,0,1-5.63,1L84.86,43a16.41,16.41,0,0,1-3.15-.28L79,30.75C75.3,14.17,84.61-2.43,97.68-2.54Z"/><path class="cls-10" d="M88.61,38.38l231.58-1.87A21.43,21.43,0,0,0,340.57,9L328.73-31.24A21.42,21.42,0,0,0,308-46.62L99.44-44.93A21.42,21.42,0,0,0,79-29.21L67.78,11.25A21.42,21.42,0,0,0,88.61,38.38Z"/><path class="cls-10" d="M88.43,38.77a21.81,21.81,0,0,1-21-27.62L78.59-29.32a21.91,21.91,0,0,1,20.85-16L308-47h.17a21.92,21.92,0,0,1,20.94,15.66L340.94,8.93a21.82,21.82,0,0,1-20.75,28L88.61,38.77Zm.18-.78v0l231.57-1.88a21,21,0,0,0,20-27L328.36-31.13A21.08,21.08,0,0,0,308-46.23L99.45-44.54A21.13,21.13,0,0,0,79.34-29.11L68.16,11.35A21,21,0,0,0,88.43,38Z"/><path class="cls-9" d="M88.58,34.5l231.57-1.88A21.43,21.43,0,0,0,340.54,5.15L328.7-35.12A21.43,21.43,0,0,0,308-50.51L99.41-48.82A21.44,21.44,0,0,0,78.93-33.1L67.75,7.36A21.43,21.43,0,0,0,88.58,34.5Z"/><path class="cls-8" d="M102.76,24l203-1.65c12.48-.1,21.4-10.84,17.9-21.54L313.35-30.71c-2.36-7.2-9.77-12.12-18.17-12L112.32-41.28c-8.39.07-15.72,5.11-18,12.34L84.52,2.78C81.19,13.54,90.29,24.14,102.76,24Z"/><path class="cls-10" d="M301.4-37.89c.86,1.25.86,2.73,1.09,3.94a12.28,12.28,0,0,1,.12,3.57c-.25,2.33-.5,4.66-.81,7-.6,4.64-.92,9-1.78,13.65s-2,8.25-3.09,12.8q-.85,3.41-1.79,6.8a21.35,21.35,0,0,1-1.72,4.4A7.39,7.39,0,0,1,291.18,17a22.36,22.36,0,0,1,0-3.57c.11-1.15.26-2.31.48-3.44.43-2.28.82-4.57,1.2-6.86.73-4.6,1.47-9.18,2.2-13.77s1.9-8.66,2.73-13.24L299-30.75a16.91,16.91,0,0,1,.94-3.37C300.4-35.23,300.53-36.81,301.4-37.89Z"/><path class="cls-10" d="M106.27-36.33a12.17,12.17,0,0,1,2.07,3.71,10.58,10.58,0,0,1,1,3.38q.48,3.42,1,6.84c.68,4.56,1.73,8.8,2.29,13.36s.57,8.33,1,12.91c.25,2.28.48,4.57.79,6.83a24.75,24.75,0,0,1,.2,4.57c-.07.61-.08,1.12-.16,1.68s-.23,1.11-.36,2a8.41,8.41,0,0,1-2.47-3.12,16.38,16.38,0,0,1-1.24-3.4c-.6-2.29-1.13-4.58-1.63-6.87-1-4.58-1.79-9.18-2.57-13.78s-.61-8.86-1-13.5c-.21-2.32-.34-4.65-.47-7a12,12,0,0,1,.32-3.55C105.41-33.45,105.24-35.1,106.27-36.33Z"/><path class="cls-11" d="M317.05,48.74c.81,2.3.39,4.9.31,7.07a25.36,25.36,0,0,1-1.09,6.33,105.94,105.94,0,0,1-4.46,12,27,27,0,0,1-3.48,5.91,19.52,19.52,0,0,1-5.4,4.59,33.13,33.13,0,0,1-12.8,3.9c-8.6.9-15.49.47-23.88.17l-12.56-.55a58.82,58.82,0,0,1-8.32-.92,18.69,18.69,0,0,1-5.8-1.87,37.7,37.7,0,0,1,6.29-1.15c2.1-.24,4.19-.34,6.28-.37l12.55-.23c8.34-.19,16.64-.36,24.66-1.49A36.49,36.49,0,0,0,300,79.5a14.13,14.13,0,0,0,4-2.85,17.85,17.85,0,0,0,3-4.46,112.18,112.18,0,0,0,4.75-11.25,58.34,58.34,0,0,1,2.37-5.71C315.07,53.35,315.68,50.57,317.05,48.74Z"/><path class="cls-11" d="M118.58,47.49a4.71,4.71,0,0,1-1.76,2.09,3.15,3.15,0,0,1-1.7.88c-1.15.17-2.31.35-3.47.48a49.7,49.7,0,0,1-6.86.79,50.47,50.47,0,0,1-6.53-1c-1.16-.17-2.31-.39-3.46-.6a5.41,5.41,0,0,1-2.25-1,4.13,4.13,0,0,1-1.45-1.93,5,5,0,0,1,1.8-1.08,5.31,5.31,0,0,1,1.73-.31l3.42-.16,6.81-.39c2.26-.09,4.31.46,6.58.49l3.41.06a3.55,3.55,0,0,1,1.73.5C117.16,46.68,118,46.55,118.58,47.49Z"/><polygon class="cls-11" points="241.52 33.22 281.09 32.9 299.04 22.52 259.47 22.84 241.52 33.22"/><polygon class="cls-11" points="188.6 33.65 206.61 33.5 224.56 23.12 206.55 23.27 188.6 33.65"/><polygon class="cls-11" points="150.12 33.96 178.03 33.73 195.97 23.35 168.06 23.58 150.12 33.96"/><path class="cls-11" d="M142,90.61c.39-1.87,1.67-3.09,2.5-4.34a14.92,14.92,0,0,1,2.9-3.21l6.52-5.46c4.34-3.64,8.15-7.39,12.55-10.94s8.25-6.09,12.75-9.54l6.72-5.2a28.67,28.67,0,0,1,4.8-3.08,10,10,0,0,1,4.16-1.25,18.87,18.87,0,0,1-2.39,3.73,31.19,31.19,0,0,1-2.93,3.14l-6.25,5.83c-4.18,3.89-8.48,7.64-12.78,11.38s-8.75,6.45-13.3,9.88c-2.27,1.73-4.58,3.4-6.88,5.08a18.1,18.1,0,0,1-3.75,2.11C145.2,89.3,143.67,90.53,142,90.61Z"/><path class="cls-11" d="M163.37,45.17c-.21,1.93-1.41,3.34-2.15,4.72a16,16,0,0,1-2.74,3.59c-2.11,2.08-4.22,4.17-6.38,6.21-4.31,4.09-8.17,8.16-12.75,12s-8.64,6.43-13.45,9.9c-2.41,1.74-4.85,3.44-7.28,5.13a29.64,29.64,0,0,1-5.2,2.91,10.82,10.82,0,0,1-4.38,1A20.5,20.5,0,0,1,111.85,87a33,33,0,0,1,3.26-3q3.39-2.83,6.76-5.69c4.46-3.85,8.94-7.66,13.34-11.58S144,59.79,148.51,56l6.69-5.77a20.54,20.54,0,0,1,3.65-2.55C160.19,46.92,161.63,45.47,163.37,45.17Z"/><path class="cls-9" d="M315.28,346.54l-212.77,1.73c-13.07.1-22.38,16.71-18.66,33.29l11,48.92c2.5,11.15,10.29,18.79,19.08,18.72l191.63-1.55c8.79-.07,16.45-7.84,18.78-19l10.17-49.09C337.93,362.89,328.36,346.44,315.28,346.54Z"/><path class="cls-8" d="M102.53,350.13l212.77-1.72c13.07-.11,22.65,16.34,19.2,33l-2.36,11.38a17.16,17.16,0,0,1-5.63,1L89.7,395.71a17.14,17.14,0,0,1-3.14-.28l-2.7-12C80.14,366.84,89.45,350.24,102.53,350.13Z"/><path class="cls-10" d="M93.46,391.05,325,389.18a21.43,21.43,0,0,0,20.38-27.47l-11.83-40.28a21.42,21.42,0,0,0-20.73-15.38l-208.56,1.69a21.43,21.43,0,0,0-20.48,15.72L72.63,363.92A21.43,21.43,0,0,0,93.46,391.05Z"/><path class="cls-10" d="M93.28,391.44a21.81,21.81,0,0,1-21-27.63l11.18-40.46a21.92,21.92,0,0,1,20.86-16l208.55-1.69H313A21.9,21.9,0,0,1,334,321.32l11.84,40.28a21.82,21.82,0,0,1-20.76,28L93.46,391.44Zm.17-.78v0L325,388.78a21,21,0,0,0,20-27L333.2,321.54a21.07,21.07,0,0,0-20.35-15.1l-208.56,1.69a21.13,21.13,0,0,0-20.1,15.43L73,364a21,21,0,0,0,20.27,26.64Z"/><path class="cls-9" d="M93.42,387.17,325,385.29a21.43,21.43,0,0,0,20.38-27.47l-11.83-40.27a21.42,21.42,0,0,0-20.73-15.39l-208.56,1.69a21.44,21.44,0,0,0-20.48,15.72L72.6,360A21.43,21.43,0,0,0,93.42,387.17Z"/><path class="cls-8" d="M107.61,376.71l203-1.65c12.47-.1,21.4-10.85,17.89-21.54L318.19,322c-2.36-7.19-9.77-12.11-18.16-12l-182.86,1.48c-8.39.07-15.73,5.11-18,12.34l-9.83,31.72C86,366.21,95.13,376.81,107.61,376.71Z"/><path class="cls-10" d="M306.24,314.78c.86,1.25.86,2.73,1.09,3.94a12.29,12.29,0,0,1,.13,3.57c-.26,2.33-.51,4.66-.81,7-.6,4.64-.92,9.05-1.78,13.65s-2,8.25-3.1,12.79c-.56,2.28-1.17,4.55-1.79,6.81a20.8,20.8,0,0,1-1.72,4.4,7.26,7.26,0,0,1-2.23,2.74,20.24,20.24,0,0,1,0-3.57,30.6,30.6,0,0,1,.48-3.44q.63-3.42,1.19-6.86c.74-4.6,1.47-9.18,2.2-13.78s1.91-8.65,2.73-13.23l1.22-6.86a16.88,16.88,0,0,1,.93-3.37C305.25,317.44,305.37,315.86,306.24,314.78Z"/><path class="cls-10" d="M111.11,316.34a12,12,0,0,1,2.07,3.71,10.58,10.58,0,0,1,1,3.38l1,6.83c.67,4.57,1.73,8.81,2.28,13.37s.57,8.33,1,12.91c.25,2.28.48,4.57.8,6.83a24.72,24.72,0,0,1,.2,4.57c-.08.61-.08,1.12-.16,1.68s-.23,1.1-.36,2a8.21,8.21,0,0,1-2.47-3.12,17,17,0,0,1-1.25-3.4c-.6-2.29-1.13-4.58-1.62-6.87-1-4.58-1.8-9.18-2.58-13.78s-.61-8.86-1-13.5c-.2-2.32-.34-4.65-.47-7a12,12,0,0,1,.33-3.55C110.26,319.22,110.09,317.57,111.11,316.34Z"/><path class="cls-11" d="M321.89,401.41c.81,2.3.4,4.9.32,7.07a24.93,24.93,0,0,1-1.1,6.33,105.87,105.87,0,0,1-4.45,12.05,27.39,27.39,0,0,1-3.48,5.91,19.71,19.71,0,0,1-5.41,4.59,33.21,33.21,0,0,1-12.79,3.9c-8.6.9-15.49.47-23.89.17l-12.56-.55a58.52,58.52,0,0,1-8.31-.92,18.61,18.61,0,0,1-5.8-1.87,37.58,37.58,0,0,1,6.28-1.15c2.1-.24,4.19-.34,6.29-.37l12.55-.23a212.89,212.89,0,0,0,24.66-1.49,36.65,36.65,0,0,0,10.62-2.68,14,14,0,0,0,4.05-2.85,18.12,18.12,0,0,0,3-4.46,109.84,109.84,0,0,0,4.74-11.25A59.82,59.82,0,0,1,319,407.9C319.92,406,320.52,403.24,321.89,401.41Z"/><path class="cls-11" d="M123.42,400.16a4.66,4.66,0,0,1-1.75,2.08,3.13,3.13,0,0,1-1.7.89c-1.16.17-2.32.35-3.48.48a51.14,51.14,0,0,1-6.85.79,51.71,51.71,0,0,1-6.53-1c-1.16-.17-2.31-.39-3.47-.61a5.23,5.23,0,0,1-2.24-1,4.14,4.14,0,0,1-1.46-1.93,5.12,5.12,0,0,1,1.8-1.08,5.36,5.36,0,0,1,1.73-.31l3.42-.17,6.81-.39c2.26-.08,4.31.47,6.58.5l3.41.06a3.52,3.52,0,0,1,1.73.5C122,399.35,122.79,399.22,123.42,400.16Z"/><polygon class="cls-11" points="246.37 385.89 285.93 385.56 303.88 375.19 264.32 375.51 246.37 385.89"/><polygon class="cls-11" points="193.45 386.31 211.45 386.17 229.4 375.79 211.4 375.94 193.45 386.31"/><polygon class="cls-11" points="154.96 386.63 182.87 386.4 200.82 376.02 172.91 376.25 154.96 386.63"/><path class="cls-11" d="M146.8,443.28c.38-1.87,1.66-3.09,2.49-4.34a15,15,0,0,1,2.91-3.21l6.51-5.46c4.34-3.65,8.15-7.39,12.56-10.94s8.24-6.09,12.74-9.54l6.73-5.2a28.27,28.27,0,0,1,4.8-3.08,10,10,0,0,1,4.16-1.25,18.91,18.91,0,0,1-2.4,3.73,30.07,30.07,0,0,1-2.93,3.14L188.12,413c-4.18,3.89-8.47,7.64-12.78,11.38s-8.74,6.45-13.29,9.88c-2.27,1.73-4.58,3.4-6.88,5.08a17.92,17.92,0,0,1-3.76,2.11C150.05,442,148.51,443.2,146.8,443.28Z"/><path class="cls-11" d="M168.22,397.84c-.22,1.93-1.41,3.34-2.16,4.71a16.11,16.11,0,0,1-2.73,3.6c-2.12,2.08-4.23,4.17-6.39,6.21-4.3,4.09-8.17,8.16-12.75,11.95s-8.63,6.43-13.45,9.9c-2.4,1.74-4.84,3.44-7.28,5.13a29.93,29.93,0,0,1-5.2,2.91,10.82,10.82,0,0,1-4.38,1,20.55,20.55,0,0,1,2.82-3.63,32.92,32.92,0,0,1,3.25-3c2.27-1.89,4.52-3.78,6.76-5.7,4.47-3.84,9-7.65,13.34-11.57s8.84-6.89,13.31-10.72l6.69-5.77a20.18,20.18,0,0,1,3.65-2.55C165,399.59,166.47,398.14,168.22,397.84Z"/><path class="cls-9" d="M625.51,170.33l-212.77,1.72c-13.08.11-22.39,16.71-18.67,33.29l11,48.92c2.51,11.15,10.29,18.79,19.09,18.72l191.62-1.55c8.8-.07,16.46-7.84,18.78-19l10.18-49.09C648.16,186.67,638.58,170.22,625.51,170.33Z"/><path class="cls-8" d="M412.75,173.91l212.77-1.72c13.08-.11,22.65,16.34,19.2,33l-2.36,11.39a16.81,16.81,0,0,1-5.63,1l-236.8,1.92a16.41,16.41,0,0,1-3.15-.28l-2.69-12C390.37,190.62,399.68,174,412.75,173.91Z"/><path class="cls-10" d="M403.68,214.83,635.26,213a21.43,21.43,0,0,0,20.38-27.47L643.8,145.22a21.42,21.42,0,0,0-20.73-15.39l-208.56,1.69A21.42,21.42,0,0,0,394,147.24L382.85,187.7A21.42,21.42,0,0,0,403.68,214.83Z"/><path class="cls-10" d="M403.5,215.23a21.82,21.82,0,0,1-21-27.63l11.18-40.46a21.91,21.91,0,0,1,20.85-16l208.56-1.69h.18a21.91,21.91,0,0,1,20.93,15.66L656,185.38a21.82,21.82,0,0,1-20.75,28l-231.58,1.88Zm.18-.79v0l231.57-1.87a21,21,0,0,0,20-27l-11.83-40.27a21.13,21.13,0,0,0-20.18-15.11h-.17l-208.56,1.69a21.13,21.13,0,0,0-20.11,15.43l-11.18,40.47a21,21,0,0,0,20.27,26.63Z"/><path class="cls-9" d="M403.65,211l231.57-1.88a21.43,21.43,0,0,0,20.39-27.47l-11.84-40.27A21.44,21.44,0,0,0,623,125.94l-208.56,1.69A21.44,21.44,0,0,0,394,143.35l-11.18,40.46A21.43,21.43,0,0,0,403.65,211Z"/><path class="cls-8" d="M417.83,200.49l203-1.65c12.48-.1,21.4-10.84,17.9-21.54l-10.35-31.56c-2.36-7.2-9.77-12.12-18.17-12.05l-182.86,1.48c-8.39.07-15.72,5.11-18,12.34l-9.84,31.73C396.26,190,405.36,200.59,417.83,200.49Z"/><path class="cls-10" d="M616.47,138.57c.86,1.24.86,2.72,1.09,3.93a12.28,12.28,0,0,1,.12,3.57c-.25,2.33-.5,4.66-.81,7-.6,4.65-.92,9-1.78,13.65s-2,8.25-3.09,12.8q-.86,3.41-1.79,6.8a21.35,21.35,0,0,1-1.72,4.4,7.39,7.39,0,0,1-2.24,2.74,22.37,22.37,0,0,1,0-3.57c.11-1.15.26-2.31.48-3.44.43-2.28.82-4.56,1.2-6.86q1.09-6.88,2.2-13.77c.75-4.59,1.9-8.66,2.73-13.23l1.21-6.86a17,17,0,0,1,.94-3.38C615.48,141.22,615.6,139.64,616.47,138.57Z"/><path class="cls-10" d="M421.34,140.12a11.89,11.89,0,0,1,2.07,3.72,10.44,10.44,0,0,1,1,3.37q.48,3.42,1,6.84c.68,4.56,1.73,8.8,2.29,13.37s.57,8.32,1,12.9c.25,2.28.48,4.57.79,6.83a24.75,24.75,0,0,1,.2,4.57c-.07.61-.08,1.12-.16,1.68s-.23,1.11-.36,2a8.51,8.51,0,0,1-2.47-3.13,16.51,16.51,0,0,1-1.24-3.39c-.6-2.3-1.13-4.59-1.63-6.88-1-4.58-1.79-9.18-2.57-13.78s-.61-8.85-1-13.5c-.21-2.32-.34-4.65-.47-7a12,12,0,0,1,.32-3.56C420.48,143,420.31,141.35,421.34,140.12Z"/><path class="cls-11" d="M632.12,225.19c.81,2.3.39,4.91.31,7.07a25.21,25.21,0,0,1-1.09,6.33,105.94,105.94,0,0,1-4.46,12,27.29,27.29,0,0,1-3.48,5.92,19.87,19.87,0,0,1-5.4,4.59A33.11,33.11,0,0,1,605.2,265c-8.6.9-15.49.47-23.88.17l-12.56-.54a60.35,60.35,0,0,1-8.32-.93,18.61,18.61,0,0,1-5.8-1.87,39.85,39.85,0,0,1,6.29-1.15c2.09-.23,4.19-.34,6.28-.37l12.55-.23c8.34-.19,16.64-.36,24.66-1.49A36.49,36.49,0,0,0,615.05,256a14.1,14.1,0,0,0,4-2.84,18.1,18.1,0,0,0,3-4.47,111.21,111.21,0,0,0,4.75-11.25,58.34,58.34,0,0,1,2.37-5.71C630.14,229.8,630.75,227,632.12,225.19Z"/><path class="cls-11" d="M433.65,223.94a4.71,4.71,0,0,1-1.76,2.09,3.15,3.15,0,0,1-1.7.88c-1.15.17-2.31.35-3.47.48a51.31,51.31,0,0,1-6.86.8,54.18,54.18,0,0,1-6.53-1c-1.16-.18-2.31-.4-3.46-.61a5.52,5.52,0,0,1-2.25-1,4.22,4.22,0,0,1-1.45-1.94,5.19,5.19,0,0,1,1.8-1.08,5.31,5.31,0,0,1,1.73-.31l3.42-.16,6.81-.39c2.26-.09,4.31.46,6.58.49l3.41.06a3.55,3.55,0,0,1,1.73.5C432.23,223.13,433,223,433.65,223.94Z"/><polygon class="cls-11" points="556.59 209.67 596.16 209.35 614.11 198.97 574.54 199.29 556.59 209.67"/><polygon class="cls-11" points="503.67 210.1 521.68 209.95 539.63 199.57 521.62 199.72 503.67 210.1"/><polygon class="cls-11" points="465.19 210.41 493.1 210.18 511.04 199.8 483.13 200.03 465.19 210.41"/><path class="cls-11" d="M457,267.06c.39-1.87,1.67-3.09,2.5-4.34a15.16,15.16,0,0,1,2.9-3.21l6.52-5.46c4.34-3.64,8.15-7.39,12.55-10.94s8.25-6.09,12.75-9.54l6.72-5.2a30,30,0,0,1,4.8-3.08,10,10,0,0,1,4.16-1.25,18.43,18.43,0,0,1-2.39,3.73,31.19,31.19,0,0,1-2.93,3.14l-6.25,5.84c-4.18,3.88-8.48,7.63-12.78,11.38s-8.75,6.44-13.3,9.88c-2.27,1.72-4.58,3.39-6.88,5.07a18.61,18.61,0,0,1-3.75,2.12C460.27,265.75,458.74,267,457,267.06Z"/><path class="cls-11" d="M478.44,221.62c-.21,1.93-1.41,3.34-2.15,4.72a15.79,15.79,0,0,1-2.74,3.59c-2.11,2.08-4.22,4.18-6.38,6.21-4.31,4.09-8.17,8.16-12.75,12s-8.64,6.43-13.45,9.9c-2.41,1.75-4.85,3.44-7.28,5.14a30.26,30.26,0,0,1-5.2,2.9,10.82,10.82,0,0,1-4.38,1,20.07,20.07,0,0,1,2.81-3.62,32,32,0,0,1,3.26-3q3.39-2.83,6.76-5.69c4.46-3.85,8.94-7.66,13.34-11.58s8.83-6.89,13.3-10.72l6.69-5.77a21.07,21.07,0,0,1,3.65-2.55C475.26,223.37,476.7,221.92,478.44,221.62Z"/><path class="cls-9" d="M625.51-6.13,412.74-4.4c-13.08.1-22.39,16.71-18.67,33.29l11,48.92C407.55,89,415.33,96.6,424.13,96.53L615.75,95c8.8-.07,16.46-7.84,18.78-19l10.18-49.09C648.16,10.22,638.58-6.23,625.51-6.13Z"/><path class="cls-8" d="M412.75-2.54,625.52-4.26c13.08-.11,22.65,16.34,19.2,33l-2.36,11.39a17.32,17.32,0,0,1-5.63,1L399.93,43a16.41,16.41,0,0,1-3.15-.28l-2.69-12C390.37,14.17,399.68-2.43,412.75-2.54Z"/><path class="cls-10" d="M403.68,38.38l231.58-1.87A21.43,21.43,0,0,0,655.64,9L643.8-31.24a21.42,21.42,0,0,0-20.73-15.38L414.51-44.93A21.42,21.42,0,0,0,394-29.21L382.85,11.25A21.42,21.42,0,0,0,403.68,38.38Z"/><path class="cls-10" d="M403.5,38.77a21.81,21.81,0,0,1-21-27.62l11.18-40.47a21.91,21.91,0,0,1,20.85-16L623.07-47h.18a21.91,21.91,0,0,1,20.93,15.66L656,8.93a21.82,21.82,0,0,1-20.75,28L403.68,38.77Zm.18-.78v0l231.57-1.88a21,21,0,0,0,20-27L643.43-31.13a21.13,21.13,0,0,0-20.18-15.1h-.17L414.52-44.54a21.13,21.13,0,0,0-20.11,15.43L383.23,11.35A21,21,0,0,0,403.5,38Z"/><path class="cls-9" d="M403.65,34.5l231.57-1.88A21.43,21.43,0,0,0,655.61,5.15L643.77-35.12A21.43,21.43,0,0,0,623-50.51L414.48-48.82A21.44,21.44,0,0,0,394-33.1L382.82,7.36A21.43,21.43,0,0,0,403.65,34.5Z"/><path class="cls-8" d="M417.83,24l203-1.65c12.48-.1,21.4-10.84,17.9-21.54L628.42-30.71c-2.36-7.2-9.77-12.12-18.17-12L427.39-41.28c-8.39.07-15.72,5.11-18,12.34L399.59,2.78C396.26,13.54,405.36,24.14,417.83,24Z"/><path class="cls-10" d="M616.47-37.89c.86,1.25.86,2.73,1.09,3.94a12.28,12.28,0,0,1,.12,3.57c-.25,2.33-.5,4.66-.81,7-.6,4.64-.92,9-1.78,13.65s-2,8.25-3.09,12.8q-.86,3.41-1.79,6.8a21.35,21.35,0,0,1-1.72,4.4A7.39,7.39,0,0,1,606.25,17a22.36,22.36,0,0,1,0-3.57c.11-1.15.26-2.31.48-3.44.43-2.28.82-4.57,1.2-6.86.73-4.6,1.47-9.18,2.2-13.77s1.9-8.66,2.73-13.24l1.21-6.86a16.91,16.91,0,0,1,.94-3.37C615.48-35.23,615.6-36.81,616.47-37.89Z"/><path class="cls-10" d="M421.34-36.33a12,12,0,0,1,2.07,3.71,10.58,10.58,0,0,1,1,3.38q.48,3.42,1,6.84c.68,4.56,1.73,8.8,2.29,13.36s.57,8.33,1,12.91c.25,2.28.48,4.57.79,6.83a24.75,24.75,0,0,1,.2,4.57c-.07.61-.08,1.12-.16,1.68s-.23,1.11-.36,2a8.41,8.41,0,0,1-2.47-3.12,16.38,16.38,0,0,1-1.24-3.4c-.6-2.29-1.13-4.58-1.63-6.87-1-4.58-1.79-9.18-2.57-13.78s-.61-8.86-1-13.5c-.21-2.32-.34-4.65-.47-7a12,12,0,0,1,.32-3.55C420.48-33.45,420.31-35.1,421.34-36.33Z"/><path class="cls-11" d="M632.12,48.74c.81,2.3.39,4.9.31,7.07a25.36,25.36,0,0,1-1.09,6.33,105.94,105.94,0,0,1-4.46,12,27,27,0,0,1-3.48,5.91,19.52,19.52,0,0,1-5.4,4.59,33.13,33.13,0,0,1-12.8,3.9c-8.6.9-15.49.47-23.88.17l-12.56-.55a58.82,58.82,0,0,1-8.32-.92,18.61,18.61,0,0,1-5.8-1.87,37.7,37.7,0,0,1,6.29-1.15c2.09-.24,4.19-.34,6.28-.37l12.55-.23c8.34-.19,16.64-.36,24.66-1.49a36.49,36.49,0,0,0,10.63-2.68,14.13,14.13,0,0,0,4-2.85,17.85,17.85,0,0,0,3-4.46,112.18,112.18,0,0,0,4.75-11.25,58.34,58.34,0,0,1,2.37-5.71C630.14,53.35,630.75,50.57,632.12,48.74Z"/><path class="cls-11" d="M433.65,47.49a4.71,4.71,0,0,1-1.76,2.09,3.15,3.15,0,0,1-1.7.88c-1.15.17-2.31.35-3.47.48a49.7,49.7,0,0,1-6.86.79,50.47,50.47,0,0,1-6.53-1c-1.16-.17-2.31-.39-3.46-.6a5.41,5.41,0,0,1-2.25-1,4.13,4.13,0,0,1-1.45-1.93,5,5,0,0,1,1.8-1.08,5.31,5.31,0,0,1,1.73-.31l3.42-.16,6.81-.39c2.26-.09,4.31.46,6.58.49l3.41.06a3.55,3.55,0,0,1,1.73.5C432.23,46.68,433,46.55,433.65,47.49Z"/><polygon class="cls-11" points="556.59 33.22 596.16 32.9 614.11 22.52 574.54 22.84 556.59 33.22"/><polygon class="cls-11" points="503.67 33.65 521.68 33.5 539.63 23.12 521.62 23.27 503.67 33.65"/><polygon class="cls-11" points="465.19 33.96 493.1 33.73 511.04 23.35 483.13 23.58 465.19 33.96"/><path class="cls-11" d="M457,90.61c.39-1.87,1.67-3.09,2.5-4.34a14.92,14.92,0,0,1,2.9-3.21l6.52-5.46c4.34-3.64,8.15-7.39,12.55-10.94s8.25-6.09,12.75-9.54l6.72-5.2a28.67,28.67,0,0,1,4.8-3.08,10,10,0,0,1,4.16-1.25,18.43,18.43,0,0,1-2.39,3.73,31.19,31.19,0,0,1-2.93,3.14l-6.25,5.83c-4.18,3.89-8.48,7.64-12.78,11.38s-8.75,6.45-13.3,9.88c-2.27,1.73-4.58,3.4-6.88,5.08a18.1,18.1,0,0,1-3.75,2.11C460.27,89.3,458.74,90.53,457,90.61Z"/><path class="cls-11" d="M478.44,45.17c-.21,1.93-1.41,3.34-2.15,4.72a16,16,0,0,1-2.74,3.59c-2.11,2.08-4.22,4.17-6.38,6.21-4.31,4.09-8.17,8.16-12.75,12s-8.64,6.43-13.45,9.9c-2.41,1.74-4.85,3.44-7.28,5.13a29.64,29.64,0,0,1-5.2,2.91,10.82,10.82,0,0,1-4.38,1A20.5,20.5,0,0,1,426.92,87a33,33,0,0,1,3.26-3q3.39-2.83,6.76-5.69c4.46-3.85,8.94-7.66,13.34-11.58s8.83-6.89,13.3-10.72l6.69-5.77a20.54,20.54,0,0,1,3.65-2.55C475.26,46.92,476.7,45.47,478.44,45.17Z"/><path class="cls-9" d="M630.35,346.54l-212.77,1.73c-13.07.1-22.38,16.71-18.66,33.29l11,48.92c2.5,11.15,10.29,18.79,19.08,18.72l191.63-1.55c8.79-.07,16.45-7.84,18.78-19l10.17-49.09C653,362.89,643.43,346.44,630.35,346.54Z"/><path class="cls-8" d="M417.6,350.13l212.77-1.72c13.07-.11,22.65,16.34,19.2,33l-2.36,11.38a17.16,17.16,0,0,1-5.63,1l-236.81,1.92a17.14,17.14,0,0,1-3.14-.28l-2.7-12C395.21,366.84,404.52,350.24,417.6,350.13Z"/><path class="cls-10" d="M408.53,391.05l231.57-1.87a21.43,21.43,0,0,0,20.38-27.47l-11.83-40.28a21.42,21.42,0,0,0-20.73-15.38l-208.56,1.69a21.43,21.43,0,0,0-20.48,15.72L387.7,363.92A21.43,21.43,0,0,0,408.53,391.05Z"/><path class="cls-10" d="M408.35,391.44a21.81,21.81,0,0,1-21-27.63l11.18-40.46a21.92,21.92,0,0,1,20.86-16l208.55-1.69h.18A21.9,21.9,0,0,1,649,321.32l11.84,40.28a21.82,21.82,0,0,1-20.76,28l-231.57,1.87Zm.17-.78v0l231.58-1.88a21,21,0,0,0,20-27l-11.84-40.28a21.09,21.09,0,0,0-20.35-15.1l-208.56,1.69a21.12,21.12,0,0,0-20.1,15.43L388.08,364a21,21,0,0,0,20.27,26.64Z"/><path class="cls-9" d="M408.49,387.17l231.58-1.88a21.43,21.43,0,0,0,20.38-27.47l-11.83-40.27a21.42,21.42,0,0,0-20.73-15.39l-208.56,1.69a21.44,21.44,0,0,0-20.48,15.72L387.67,360A21.43,21.43,0,0,0,408.49,387.17Z"/><path class="cls-8" d="M422.68,376.71l203-1.65c12.47-.1,21.4-10.85,17.89-21.54L633.26,322c-2.36-7.19-9.77-12.11-18.16-12l-182.86,1.48c-8.39.07-15.73,5.11-18,12.34l-9.83,31.72C401.1,366.21,410.2,376.81,422.68,376.71Z"/><path class="cls-10" d="M621.31,314.78c.86,1.25.86,2.73,1.09,3.94a12.29,12.29,0,0,1,.13,3.57c-.26,2.33-.51,4.66-.81,7-.6,4.64-.92,9.05-1.78,13.65s-2,8.25-3.1,12.79c-.56,2.28-1.17,4.55-1.79,6.81a20.8,20.8,0,0,1-1.72,4.4,7.26,7.26,0,0,1-2.23,2.74,20.24,20.24,0,0,1,0-3.57,30.6,30.6,0,0,1,.48-3.44q.63-3.42,1.19-6.86c.74-4.6,1.47-9.18,2.2-13.78s1.91-8.65,2.73-13.23l1.22-6.86a16.88,16.88,0,0,1,.93-3.37C620.32,317.44,620.44,315.86,621.31,314.78Z"/><path class="cls-10" d="M426.18,316.34a12,12,0,0,1,2.07,3.71,10.58,10.58,0,0,1,1.05,3.38l1,6.83c.67,4.57,1.73,8.81,2.28,13.37s.57,8.33,1,12.91c.25,2.28.48,4.57.8,6.83a24.72,24.72,0,0,1,.2,4.57c-.08.61-.08,1.12-.16,1.68s-.23,1.1-.36,2a8.21,8.21,0,0,1-2.47-3.12,17,17,0,0,1-1.25-3.4c-.6-2.29-1.13-4.58-1.62-6.87-1-4.58-1.8-9.18-2.58-13.78s-.61-8.86-1-13.5c-.2-2.32-.34-4.65-.47-7a12,12,0,0,1,.33-3.55C425.33,319.22,425.16,317.57,426.18,316.34Z"/><path class="cls-11" d="M637,401.41c.81,2.3.4,4.9.32,7.07a24.93,24.93,0,0,1-1.1,6.33,105.87,105.87,0,0,1-4.45,12.05,27.81,27.81,0,0,1-3.48,5.91,19.71,19.71,0,0,1-5.41,4.59,33.21,33.21,0,0,1-12.79,3.9c-8.6.9-15.49.47-23.89.17l-12.56-.55a58.52,58.52,0,0,1-8.31-.92,18.61,18.61,0,0,1-5.8-1.87,37.58,37.58,0,0,1,6.28-1.15c2.1-.24,4.19-.34,6.29-.37l12.55-.23a212.89,212.89,0,0,0,24.66-1.49,36.65,36.65,0,0,0,10.62-2.68,14,14,0,0,0,4.05-2.85,18.12,18.12,0,0,0,3-4.46,109.84,109.84,0,0,0,4.74-11.25,59.82,59.82,0,0,1,2.37-5.71C635,406,635.59,403.24,637,401.41Z"/><polygon class="cls-11" points="561.44 385.89 601 385.56 618.95 375.19 579.39 375.51 561.44 385.89"/><polygon class="cls-11" points="508.52 386.31 526.52 386.17 544.47 375.79 526.47 375.94 508.52 386.31"/><polygon class="cls-11" points="470.03 386.63 497.94 386.4 515.89 376.02 487.98 376.25 470.03 386.63"/><path class="cls-11" d="M587.39,345.32A88.31,88.31,0,0,0,512,421.24a69.77,69.77,0,0,0-98.52-4.67,90.77,90.77,0,0,0-144.23-4.49,142,142,0,1,0,5.94,121.28A90.8,90.8,0,0,0,414.5,520.79a69.77,69.77,0,0,0,113.7-36,88.3,88.3,0,1,0,59.19-139.5Z"/><path class="cls-11" d="M143.89,622.9c-70.62,0-132.41-52.19-142.4-124.08C-9.42,420.24,45.63,347.44,124.2,336.53a143.93,143.93,0,0,1,145.38,72.24,92.64,92.64,0,0,1,144.2,5,71.67,71.67,0,0,1,96.94,3.41A90.17,90.17,0,1,1,529,489a71.65,71.65,0,0,1-114.16,34.58,92.88,92.88,0,0,1-62.46,37.66,91.93,91.93,0,0,1-76.56-24.59A144,144,0,0,1,143.89,622.9Zm.34-284a142.74,142.74,0,0,0-19.52,1.35C48.19,350.87-5.42,421.77,5.21,498.3S86.75,628.44,163.27,617.81a140.09,140.09,0,0,0,110.19-85.17l1.07-2.6,2,2a88.23,88.23,0,0,0,75.35,25.44A89.14,89.14,0,0,0,413,519.73l1.19-1.74,1.58,1.39a67.91,67.91,0,0,0,110.65-35l1-3.91,2.37,3.25a86.43,86.43,0,1,0,57.94-136.54l-.26-1.85.26,1.85a86.63,86.63,0,0,0-73.79,74.32l-.53,4-2.71-3A67.93,67.93,0,0,0,414.74,418l-1.55,1.42L412,417.66a88.9,88.9,0,0,0-141.26-4.4l-1.78,2.19L267.6,413a140.28,140.28,0,0,0-123.37-74.07Z"/><path class="cls-12" d="M550,402.79a7.18,7.18,0,0,1-3.6-3.82,15,15,0,0,1-.67-2.23c-.14-.73-.3-1.49-.46-2.22a12.12,12.12,0,0,1,1.18-8.18A48.26,48.26,0,0,1,556,374.07c1.85-1.75,3.63-3.36,5.51-4.93s3.78-3.07,5.8-4.46A50.37,50.37,0,0,1,580.48,358a51.62,51.62,0,0,1,14.14-2.2A67,67,0,0,1,609,357.18a45.37,45.37,0,0,1,14.52,5.45,19.2,19.2,0,0,1,4.11,3.27,25.91,25.91,0,0,1,1.83,2.26,12.05,12.05,0,0,1,1.11,2.22,15.57,15.57,0,0,1,.61,1.91,13.27,13.27,0,0,1,.36,1.86,9.38,9.38,0,0,1-.91,4.57,66.44,66.44,0,0,1-6.53-1.84c-.47-.14-.89-.31-1.32-.47s-.87-.29-1.29-.46c-.78-.37-1.66-.62-2.42-1a32.44,32.44,0,0,0-10.51-2.32,47.05,47.05,0,0,0-11.1.71c-.92.16-1.83.34-2.72.58s-1.82.46-2.74.72q-2.78.84-5.43,1.92c-3.58,1.36-7,2.49-10.47,3.9a42.14,42.14,0,0,0-9.9,5.44,38.44,38.44,0,0,0-7.68,7.66,17.57,17.57,0,0,1-3.78,3.78,9.24,9.24,0,0,0-1.91,2.5,9.52,9.52,0,0,1-1.09,1.46A8.82,8.82,0,0,1,550,402.79Z"/><path class="cls-12" d="M426.26,434.72a8.27,8.27,0,0,1-2.14-2.11,4.55,4.55,0,0,1-.75-2.24,9.8,9.8,0,0,1,.88-3.93,8.37,8.37,0,0,1,.91-1.76l.29-.39.15-.19.1-.16c.13-.2.26-.39.4-.58a7.12,7.12,0,0,1,1.92-1.77,94.66,94.66,0,0,1,8.9-5.15c3.11-1.56,6.15-3.2,9.4-4.58A37,37,0,0,1,456.74,409a38,38,0,0,1,10.62.61,68.88,68.88,0,0,1,10.21,2.95,46.32,46.32,0,0,1,10,5,14.07,14.07,0,0,1,2.79,2.54,9.81,9.81,0,0,1,2,3.42,17,17,0,0,1,.64,3,9.77,9.77,0,0,1-.75,4.1,20.09,20.09,0,0,1-3.12.19,21.31,21.31,0,0,1-2.51-.15,15.67,15.67,0,0,1-4.06-1,34.46,34.46,0,0,0-7.69-2,48.17,48.17,0,0,0-8-.35,43.52,43.52,0,0,0-7.9,1c-2.65.48-5.25.65-8,.93a37.11,37.11,0,0,0-8.27,1.63c-2.78,1-5.62,2-8.42,3.15a8.62,8.62,0,0,1-2.26.58l-.62.05c-.21,0-.46,0-.54-.05-.23-.11-.5-.22-.81-.35a2.37,2.37,0,0,0-1.72,0A11.36,11.36,0,0,1,426.26,434.72Z"/><path class="cls-12" d="M135.32,375.73a11.22,11.22,0,0,1-1-4.48,6.59,6.59,0,0,1,1-3.39,10.33,10.33,0,0,1,2.07-2.29c.83-.65,1.67-1.23,2.49-1.83a12.2,12.2,0,0,1,2.59-1.43c.21-.09.5-.18.65-.26l.5-.24c.34-.15.67-.29,1-.41a11.42,11.42,0,0,1,4-.7c5.2,0,10.48.08,15.78.63s10.58.83,15.9,1.63a59,59,0,0,1,15.84,4.4,60.78,60.78,0,0,1,13.48,8.84A114.93,114.93,0,0,1,221,387.62a75.4,75.4,0,0,1,9.89,14A18.36,18.36,0,0,1,232,404a18.67,18.67,0,0,1,.93,3,15.13,15.13,0,0,1,.34,6.08,24.78,24.78,0,0,1-1.21,4.56,14.68,14.68,0,0,1-3.84,5,33,33,0,0,1-4.3-2c-1.27-.67-2.22-1.39-3.25-2.05a29.12,29.12,0,0,1-2.62-2.13c-.39-.37-.76-.74-1.1-1.13s-.72-.76-1-1.16a57.18,57.18,0,0,0-9.16-8.47A88.15,88.15,0,0,0,196,399a76.07,76.07,0,0,0-11.65-4.92c-4-1.49-7.68-3.36-11.54-5.16a63.44,63.44,0,0,0-12.39-4.56c-4.49-1-9-2-13.72-2.79a13.46,13.46,0,0,1-3.46-1.09,13.83,13.83,0,0,1-1.7-1l-.85-1.11a4.33,4.33,0,0,0-1-.92,5.19,5.19,0,0,0-1.23-.57A22.33,22.33,0,0,1,135.32,375.73Z"/></g><path class="cls-11" d="M574,146.12a10,10,0,0,1,1.66,4.36,12.57,12.57,0,0,1,.21,4.32,28.28,28.28,0,0,1-.84,4.27c-.39,1.41-.9,2.72-1.3,4a12.38,12.38,0,0,0-.7,3.55,7.26,7.26,0,0,0,.68,3.11,8.13,8.13,0,0,0,4.55,4.25,5.54,5.54,0,0,0,1.42.35,2.89,2.89,0,0,0,1.12-.09,4.08,4.08,0,0,0,2-1.5c1.14-1.47,1.67-3.93,2.27-6.57a26.67,26.67,0,0,0,.73-7.79,21.84,21.84,0,0,0-.35-2.51,24.92,24.92,0,0,0-.65-2.49c-.39-1.28-.87-2.16-1.44-3.66a8.48,8.48,0,0,1,3.3,3,12.07,12.07,0,0,1,1.69,4.18,25.55,25.55,0,0,1,.09,8.76c-.19,1.42-.42,2.77-.69,4.18a15,15,0,0,1-1.5,4.43,8.17,8.17,0,0,1-3.92,3.62,6.67,6.67,0,0,1-2.87.47,9.61,9.61,0,0,1-2.57-.5,11.3,11.3,0,0,1-7.39-11.29,16.64,16.64,0,0,1,1-4.41c.48-1.37,1-2.62,1.43-3.84a24,24,0,0,0,.94-3.76l.67-3.86C573.81,149.36,573.6,147.55,574,146.12Z"/><path class="cls-11" d="M577.49,161.18a1.38,1.38,0,0,1,1.35.74,1.3,1.3,0,0,1,.2,1.15c-.21.65-.44,1.12-.52,1.43a5.34,5.34,0,0,0,.1,1.85,4.51,4.51,0,0,0,.1,1.77,4.19,4.19,0,0,0,.51.95,2.05,2.05,0,0,1,.33.87,4.93,4.93,0,0,1,.1,1.32,1.79,1.79,0,0,1-1.08.35,1.86,1.86,0,0,1-.91-.27,6.53,6.53,0,0,1-1.47-1.17,6.45,6.45,0,0,1-1.7-3.52,6,6,0,0,1,1.06-3.62,13.63,13.63,0,0,1,.77-1.14c.06-.11.19-.13.44-.18S577,161.49,577.49,161.18Z"/><path class="cls-11" d="M163.38,295.69a3.63,3.63,0,0,0-1.61.95,4,4,0,0,0-.86,1.29c-.19.45-.35.91-.51,1.35s-.37,1-.58,1.42c-.41.93-.78,1.88-1.1,2.85a17.78,17.78,0,0,0-.76,2.82,5.14,5.14,0,0,0,.14,2.43,5.8,5.8,0,0,0,1.17,2,8.54,8.54,0,0,0,4.21,2.54,12.81,12.81,0,0,0,4.93.54,6.1,6.1,0,0,0,3.86-2.48,11.93,11.93,0,0,0,2.12-5.24c.17-1,.45-3,.53-3.93a5.75,5.75,0,0,0,0-1.38,5.39,5.39,0,0,0-.43-1.61,3.1,3.1,0,0,1,1.58,1.17,5.53,5.53,0,0,1,.82,1.74,11,11,0,0,1,.33,3.48,15.78,15.78,0,0,1-1.76,6.82,10.07,10.07,0,0,1-5.72,5,11.13,11.13,0,0,1-3.81.41,16.66,16.66,0,0,1-3.6-.53,10.88,10.88,0,0,1-6-4.13,9.65,9.65,0,0,1-1.56-3.43,9.14,9.14,0,0,1,0-3.86,17.66,17.66,0,0,1,1-3.34,33.46,33.46,0,0,1,1.38-3.05,11.65,11.65,0,0,1,.86-1.44,7.12,7.12,0,0,1,1.26-1.38,7.38,7.38,0,0,1,1.84-1.24A2.26,2.26,0,0,1,163.38,295.69Z"/><path class="cls-11" d="M164.65,300.78c-.36.3-.41.61-.33.77a1.14,1.14,0,0,0,.25.39,2,2,0,0,1,.38.43,1.14,1.14,0,0,1,0,.29l0,.36.06.71c0,.47.12.94.2,1.38a3,3,0,0,0,.22.67h0c-.11,0-.07.5.43.78a3.34,3.34,0,0,0,1,.32,2.16,2.16,0,0,1,.93.41,3,3,0,0,1,.88,1,2.14,2.14,0,0,1-.6.9,1.82,1.82,0,0,1-.77.39,6.6,6.6,0,0,1-1.89.18,4.78,4.78,0,0,1-2-.6,4.27,4.27,0,0,1-1.73-1.83l-.11-.24a3.72,3.72,0,0,1-.12-2.13,14.57,14.57,0,0,0,.31-1.46c.07-.52.14-.94.23-1.55a1.7,1.7,0,0,1,.76-1.1,4,4,0,0,1,.84-.5C164,300.22,164.59,300.39,164.65,300.78Z"/><path class="cls-11" d="M245.92,120.6c.84,2.16,1,4.85,1.35,7a51,51,0,0,1,.6,6.5l.39,13c.13,4.31.28,8.58.47,12.7a24.28,24.28,0,0,0,.89,5.75,10.71,10.71,0,0,0,1.09,2.43,4.86,4.86,0,0,0,.35.53h0l0-.06a2.8,2.8,0,0,0,.19-.5,17.45,17.45,0,0,0,.71-2.64,24.79,24.79,0,0,0,.34-5.46,91.28,91.28,0,0,0-1.7-11.83,75.54,75.54,0,0,1-1.28-13.17,44.67,44.67,0,0,1,.76-8.72A21,21,0,0,1,252,120.3c0,2.19,0,4.34,0,6.48s0,4.26.06,6.39a73.49,73.49,0,0,0,1.44,12.64c.85,4.17,2,8.41,2.51,12.94a29,29,0,0,1-.06,7,20.58,20.58,0,0,1-.8,3.5c0,.15-.08.27-.15.44s-.14.36-.21.54a6,6,0,0,1-.34.63,5.17,5.17,0,0,1-.46.66,3.94,3.94,0,0,1-2.52,1.55,3.38,3.38,0,0,1-2.75-.88,6.44,6.44,0,0,1-1-1.21,8.52,8.52,0,0,1-.53-.8,14.21,14.21,0,0,1-1.44-3.38,26.08,26.08,0,0,1-.82-6.65c0-4.22.08-8.28,0-12.64l-.05-13a64.44,64.44,0,0,1,.29-6.51C245.41,125.78,245.33,122.78,245.92,120.6Z"/><path class="cls-11" d="M206.59,44a15.19,15.19,0,0,1,1.15,4.43,21,21,0,0,1,.4,4.08c0,2.72,0,5.43,0,8.15q0,2,0,4a14.9,14.9,0,0,0,.3,3.52,3.65,3.65,0,0,0,1.31,2.14,1.51,1.51,0,0,0,.79.29,1.75,1.75,0,0,0,.89-.19,3.3,3.3,0,0,0,1.59-1.62,5.62,5.62,0,0,0,.32-2.7c-.18-2-1.2-4.14-2.24-6.81a17.4,17.4,0,0,1-1.09-4.27c-.18-1.44-.22-2.84-.26-4.2a41.05,41.05,0,0,1,.2-5.42,12.44,12.44,0,0,1,.93-3.84,26.32,26.32,0,0,1,1,4c.25,1.34.41,2.69.53,4a27,27,0,0,0,1.32,7.55c.88,2.28,2.5,4.65,3.19,7.78a9.55,9.55,0,0,1-.13,5,7.1,7.1,0,0,1-3.64,4.19,5.65,5.65,0,0,1-3,.56,5.42,5.42,0,0,1-2.86-1.16,7.37,7.37,0,0,1-2.58-4.5,18.25,18.25,0,0,1-.11-4.33c.08-1.31.14-2.63.19-4l.33-8.13a26.6,26.6,0,0,1,.48-4.06C205.93,47.26,205.93,45.38,206.59,44Z"/><path class="cls-11" d="M71.25,259.69a38.65,38.65,0,0,1,.36,4.48,35.12,35.12,0,0,1,.22,3.95c0,1.31,0,2.68,0,4a16.71,16.71,0,0,0,.41,3.65,7.7,7.7,0,0,0,4.07,4.86,13.17,13.17,0,0,0,3.1,1.25,4.47,4.47,0,0,0,2.69-.08,10.1,10.1,0,0,0,4.64-3.93,14.87,14.87,0,0,0,2.43-6.27,18,18,0,0,0-.53-7.39c-.29-1.23-1.15-3.62-1.59-4.88A21.31,21.31,0,0,1,86,255.6a13.54,13.54,0,0,1,3,3,16.27,16.27,0,0,1,2,3.73,21.39,21.39,0,0,1,1.57,8.49,18.8,18.8,0,0,1-2.25,8.52A16.75,16.75,0,0,1,87.55,283a11.25,11.25,0,0,1-4.06,2.68,7.77,7.77,0,0,1-2.59.48,8.63,8.63,0,0,1-2.5-.36,15.62,15.62,0,0,1-4-1.88,13.47,13.47,0,0,1-3.3-3,10.88,10.88,0,0,1-2-4.24,18.19,18.19,0,0,1-.39-4.39c0-1.4.08-2.71.14-4.09a17.7,17.7,0,0,1,.66-4.1C69.9,262.77,70.24,260.82,71.25,259.69Z"/><path class="cls-11" d="M76.15,268A3.06,3.06,0,0,1,77.33,269a1.59,1.59,0,0,1,.46.86,14.09,14.09,0,0,0,.26,1.56,7.45,7.45,0,0,0,1.22,2.27c.19.33.35.62.52.9a2.48,2.48,0,0,0,.68.69.93.93,0,0,0,.75.18,6.08,6.08,0,0,1,1-.1,3.66,3.66,0,0,1,1.39.21,2.08,2.08,0,0,1-.09,1.23,2.21,2.21,0,0,1-.74.93,4.21,4.21,0,0,1-1.25.64,4,4,0,0,1-1.49.13A6.09,6.09,0,0,1,75.82,276a7.5,7.5,0,0,1-1-4.15,11.87,11.87,0,0,1,.06-2,1.55,1.55,0,0,1,.42-.92C75.51,268.61,75.51,268.19,76.15,268Z"/><path class="cls-11" d="M386.76,321.51a20,20,0,0,1-.46,3.12c-.06.88-.11,1.66-.14,2.38a6,6,0,0,0,1.49,4c2,2.3,5,2.41,7.65,1.36a8.16,8.16,0,0,0,3.26-2.31,9.05,9.05,0,0,0,1.93-3.84,10.62,10.62,0,0,0-.05-4.79c-.15-.81-.64-2.4-.86-3.29a11.41,11.41,0,0,1-.53-2.71,7.3,7.3,0,0,1,2.3,1.9,9.42,9.42,0,0,1,1.5,2.59,13.86,13.86,0,0,1,.95,6.05,12.57,12.57,0,0,1-2,6,11.28,11.28,0,0,1-4.95,4.25,10.11,10.11,0,0,1-6.36.51,9.82,9.82,0,0,1-5.36-3.53,8.92,8.92,0,0,1-1.95-6.26,5.84,5.84,0,0,1,1.15-3C385,323.05,385.68,321.87,386.76,321.51Z"/><path class="cls-11" d="M395,319.87a4.26,4.26,0,0,1,1.22.84,1.14,1.14,0,0,1,.54.66,14,14,0,0,1,.3,1.54,5.5,5.5,0,0,1-.53,3.85,5.43,5.43,0,0,1-3.18,2.12,5.52,5.52,0,0,1-1.92.22,1.76,1.76,0,0,1-1.18-.55,1.74,1.74,0,0,1-.47-1.27,6.46,6.46,0,0,1,.73-.65,1.61,1.61,0,0,1,.53-.26,2.76,2.76,0,0,0,.9-.42,2.9,2.9,0,0,0,1.08-1.36c.22-.5.68-.79.74-1.64,0-.4,0-.87,0-1.38a1.39,1.39,0,0,1,.35-.82C394.41,320.48,394.38,320.08,395,319.87Z"/><path class="cls-11" d="M580.22,254.5c.92,2.3,1.19,5.19,1.61,7.51a55,55,0,0,1,.8,7c.24,4.68.45,9.36.52,14.06s.11,9.25,0,13.82c-.06,2.29-.16,4.58-.32,6.88s-.37,4.54-.34,6.71a15.73,15.73,0,0,0,1,5.81,9,9,0,0,0,3.15,4.09,5.71,5.71,0,0,0,2.2.92,2.8,2.8,0,0,0,2-.33,6,6,0,0,0,1.85-1.77,8.69,8.69,0,0,0,1.24-2.62,17.55,17.55,0,0,0,.41-6.39,60.67,60.67,0,0,0-1.15-6.75c-.46-2.27-1.44-6.75-1.85-9.06a43.15,43.15,0,0,1-.89-6.53,48.55,48.55,0,0,1,2.89,6.47,69.45,69.45,0,0,1,2.12,6.75c.58,2.3,1.16,4.55,1.6,6.95a25.27,25.27,0,0,1,.39,7.46,12.29,12.29,0,0,1-3.29,7.31,7.1,7.1,0,0,1-4.11,2.13,8.33,8.33,0,0,1-4.42-.82,12.18,12.18,0,0,1-5.62-5.95,18.68,18.68,0,0,1-1.6-7.61,62.5,62.5,0,0,1,.42-7.06c.21-2.22.4-4.41.55-6.61.31-4.4.5-8.81.52-13.46s0-9.3-.16-14q-.1-3.49.09-7C579.91,260.09,579.71,256.87,580.22,254.5Z"/><path class="cls-11" d="M590.06,305.58a5.16,5.16,0,0,1,1.09.92c.28.23.43.41.45.58.06.35.15.72.23,1.1a10.15,10.15,0,0,1,.63,2.5,6.5,6.5,0,0,1-.92,2.87,5.7,5.7,0,0,1-1,1.38,1.52,1.52,0,0,1-1.14.43,1.57,1.57,0,0,1-1.15-.63c0-.44,0-.69,0-.89a1,1,0,0,1,0-.45,3,3,0,0,0,.17-.78,6.9,6.9,0,0,0-.09-1.85c-.09-.7.19-1.48.19-2.39a12.41,12.41,0,0,1,.11-1.45,1.17,1.17,0,0,1,.45-.72C589.37,306,589.4,305.63,590.06,305.58Z"/><path class="cls-11" d="M402,85.17a14.25,14.25,0,0,0-2.73,2.38A12.66,12.66,0,0,0,397.87,90a5.3,5.3,0,0,0,.6,4.93A7.69,7.69,0,0,0,402.68,98a18,18,0,0,0,5.61.77c3.88,0,6.79-1,8.29-4.58a19.44,19.44,0,0,0,1.2-6,15.27,15.27,0,0,0,0-1.94,6.86,6.86,0,0,0-.34-1.81,4.24,4.24,0,0,0-.66-1.22A5.21,5.21,0,0,0,415.6,82a3.86,3.86,0,0,1,3.61,1.58,6.58,6.58,0,0,1,1.3,3.71,25.91,25.91,0,0,1,0,3.53,19.28,19.28,0,0,1-.56,3.54,12.22,12.22,0,0,1-1.49,3.52,9.87,9.87,0,0,1-2.8,2.89,13.8,13.8,0,0,1-7.3,2.09,16.85,16.85,0,0,1-7-1.32,12,12,0,0,1-5.64-4.84,9.16,9.16,0,0,1-1.27-3.79,7.67,7.67,0,0,1,.67-4.06A6.24,6.24,0,0,1,397.83,86a9.14,9.14,0,0,1,2-.87A3.43,3.43,0,0,1,402,85.17Z"/><path class="cls-11" d="M410.89,86.17a2.51,2.51,0,0,1,1.35.72,1.31,1.31,0,0,1,.57.82,9.31,9.31,0,0,1-.1,3.91,4.08,4.08,0,0,1-1.33,2,4.3,4.3,0,0,1-2,.87,15.37,15.37,0,0,1-1.74.1,9.44,9.44,0,0,1-1.89-.08,2,2,0,0,1-1.23-.74,1.42,1.42,0,0,1-.2-1.37c.4-.2.63-.35.83-.46a1.32,1.32,0,0,1,.52-.19,6.87,6.87,0,0,0,1.2-.31c1-.33,1.77-.66,1.91-1,.12-.15.28-.23.48-.43a1.83,1.83,0,0,0,.46-.89,9.62,9.62,0,0,0,.16-1.3,1.33,1.33,0,0,1,.33-.74C410.4,86.85,410.31,86.51,410.89,86.17Z"/><path class="cls-11" d="M513,342.87a17.37,17.37,0,0,1,1.27,4.79,24.89,24.89,0,0,1,.52,4.44c.07,2.95.17,5.91.23,8.87.13,5.91.49,11.46.47,17.38s-.34,10.7-.51,16.61c-.08,3-.18,5.92-.28,8.87a46.54,46.54,0,0,1-.53,5.88,14.05,14.05,0,0,1-1.17,4.11,29.56,29.56,0,0,1-.77-4.43c-.16-1.48-.24-3-.27-4.43l-.22-8.87c-.17-5.92-.25-11.83-.37-17.74s.29-11.26.34-17.17c0-3,.08-5.91.11-8.87a31.66,31.66,0,0,1,.37-4.44C512.39,346.4,512.35,344.35,513,342.87Z"/><path class="cls-11" d="M261.31,322.19c.81,2.76.95,6.18,1.27,8.93s.48,5.52.52,8.27c.07,5.51.17,11,.23,16.54.13,11,.49,21.38.47,32.41s-.34,20-.51,31c-.08,5.51-.19,11-.28,16.53,0,2.76-.24,8.21-.53,11a44.92,44.92,0,0,1-1.17,7.66c-.39-2.75-.61-5.51-.77-8.26s-.24-5.52-.27-8.27L260,421.41c-.16-11-.25-22.05-.36-33.07s.29-21,.34-32c0-5.52.08-11,.11-16.54,0-2.76.14-5.51.37-8.27S260.69,325,261.31,322.19Z"/><path class="cls-11" d="M550.53,76.77c.81,2.11.94,4.73,1.27,6.84a50,50,0,0,1,.51,6.33c.08,4.22.17,8.44.23,12.66.14,8.44.5,16.37.48,24.81s-.34,15.27-.52,23.71c-.08,4.22-.18,8.44-.27,12.66,0,2.11-.25,6.29-.54,8.4a27.76,27.76,0,0,1-1.16,5.86,62.14,62.14,0,0,1-.78-6.33c-.16-2.11-.24-4.22-.27-6.33l-.22-12.66c-.16-8.44-.25-16.87-.37-25.31s.29-16.07.35-24.51c0-4.22.07-8.44.11-12.66a61.06,61.06,0,0,1,.37-6.33C550,81.8,549.91,78.88,550.53,76.77Z"/><path class="cls-11" d="M630.82,184.43c.8,2.41.94,5.41,1.26,7.82a62.94,62.94,0,0,1,.52,7.24c.07,4.83.17,9.66.23,14.49.13,9.65.49,18.73.48,28.38s-.35,17.48-.52,27.14c-.08,4.82-.18,9.65-.27,14.48,0,2.41-.25,7.19-.54,9.61a35.87,35.87,0,0,1-1.16,6.71c-.4-2.42-.61-4.83-.78-7.25s-.24-4.82-.27-7.24l-.22-14.48c-.17-9.66-.25-19.31-.37-29s.29-18.38.34-28c0-4.82.08-9.65.11-14.48,0-2.41.14-4.83.37-7.24S630.2,186.84,630.82,184.43Z"/><path class="cls-11" d="M654.54,239.17c.81,1.8.94,4.05,1.26,5.85a35.51,35.51,0,0,1,.52,5.42c.07,3.61.17,7.22.23,10.83.13,7.22.49,14,.48,21.24s-.34,13.07-.52,20.29c-.08,3.61-.18,7.22-.27,10.84,0,1.8-.25,5.38-.54,7.18a20.61,20.61,0,0,1-1.16,5,43.79,43.79,0,0,1-.78-5.41c-.16-1.81-.24-3.62-.27-5.42l-.22-10.84c-.17-7.22-.25-14.44-.37-21.66s.29-13.76.35-21c0-3.61.07-7.22.1-10.83a44.88,44.88,0,0,1,.38-5.42C654,243.48,653.92,241,654.54,239.17Z"/><path class="cls-11" d="M123.55,63.09c.81,2.3.94,5.15,1.27,7.45a59.31,59.31,0,0,1,.51,6.9c.08,4.6.17,9.2.23,13.8.14,9.2.5,17.84.48,27s-.34,16.65-.52,25.85c-.08,4.6-.18,9.2-.27,13.8,0,2.3-.25,6.86-.54,9.16a32.69,32.69,0,0,1-1.16,6.39c-.39-2.3-.61-4.6-.77-6.9s-.25-4.6-.28-6.9l-.22-13.8c-.16-9.2-.25-18.4-.37-27.6s.29-17.51.35-26.71c0-4.6.07-9.2.11-13.8,0-2.3.13-4.6.37-6.9S122.93,65.39,123.55,63.09Z"/><path class="cls-11" d="M137.23,148.85a6.13,6.13,0,0,1,1.27,2.52,7.31,7.31,0,0,1,.52,2.34c.07,1.56.17,3.12.23,4.68.13,3.11.49,6,.47,9.16s-.34,5.64-.51,8.76c-.08,1.56-.19,3.12-.28,4.67a13.51,13.51,0,0,1-.53,3.11,5.2,5.2,0,0,1-1.17,2.16,9.3,9.3,0,0,1-.77-2.34,14.1,14.1,0,0,1-.27-2.33L136,176.9c-.16-3.12-.25-6.23-.36-9.35s.29-5.94.34-9.05c0-1.56.08-3.12.11-4.68a9.06,9.06,0,0,1,.37-2.34A7.2,7.2,0,0,1,137.23,148.85Z"/><path class="cls-11" d="M92.51,294.81a7.49,7.49,0,0,1,1.22,2.86,9.05,9.05,0,0,1,.5,2.62c.08,1.74.17,3.49.26,5.23.18,3.48.64,6.74.79,10.21s0,6.31.13,9.8c.06,1.74.12,3.48.19,5.23a17.33,17.33,0,0,1-.18,3.51,6,6,0,0,1-.88,2.55,11.44,11.44,0,0,1-1.06-2.53,17,17,0,0,1-.55-2.6l-.7-5.24c-.46-3.49-.78-7-1.07-10.52s0-6.72,0-10.24c0-1.76,0-3.52.08-5.28a11,11,0,0,1,.39-2.64C91.9,296.9,91.87,295.68,92.51,294.81Z"/><path class="cls-11" d="M351.64,158c.81,2.26.94,5.07,1.26,7.33a55.26,55.26,0,0,1,.52,6.78c.07,4.53.17,9,.23,13.58.14,9,.49,17.55.48,26.59s-.34,16.38-.52,25.43c-.08,4.52-.18,9-.27,13.57,0,2.26-.25,6.74-.54,9a31.59,31.59,0,0,1-1.16,6.29,68.19,68.19,0,0,1-.78-6.79c-.16-2.26-.24-4.52-.27-6.78l-.22-13.57c-.17-9.05-.25-18.1-.37-27.15s.29-17.22.35-26.27c0-4.52.07-9,.11-13.57a67.32,67.32,0,0,1,.37-6.79C351.07,163.36,351,160.23,351.64,158Z"/><path class="cls-11" d="M364.41,253.77a7.39,7.39,0,0,1,1.27,2.83,9,9,0,0,1,.51,2.62c.08,1.75.17,3.5.23,5.25.14,3.5.5,6.78.48,10.28s-.34,6.33-.52,9.83c-.07,1.75-.18,3.5-.27,5.24a16.68,16.68,0,0,1-.54,3.48,6.08,6.08,0,0,1-1.16,2.43,11.16,11.16,0,0,1-.77-2.62,16.65,16.65,0,0,1-.28-2.62l-.22-5.25c-.16-3.49-.25-7-.37-10.49s.29-6.66.35-10.16c0-1.74.07-3.49.11-5.24a11.19,11.19,0,0,1,.37-2.62C363.84,255.85,363.79,254.64,364.41,253.77Z"/><path class="cls-11" d="M351.64,39.36a7.79,7.79,0,0,1,1.26,3,9.47,9.47,0,0,1,.52,2.74c.07,1.82.17,3.65.23,5.47.14,3.65.49,7.08.48,10.73s-.34,6.61-.52,10.26c-.08,1.82-.18,3.65-.27,5.47a19,19,0,0,1-.54,3.63,6.62,6.62,0,0,1-1.16,2.54,12.42,12.42,0,0,1-.78-2.74,19.41,19.41,0,0,1-.27-2.74l-.22-5.47c-.17-3.65-.25-7.3-.37-10.95s.29-6.95.35-10.6c0-1.82.07-3.65.11-5.47a11.22,11.22,0,0,1,.37-2.74C351.07,41.54,351,40.28,351.64,39.36Z"/><g class="cls-13"><polygon class="cls-11" points="177.79 505.86 12.06 505.86 156.44 35.03 322.18 35.03 177.79 505.86"/><path class="cls-11" d="M179.17,507.73H9.52L155.06,33.15H324.71ZM14.59,504H176.4L319.64,36.9H157.83Z"/></g><g class="cls-13"><polygon class="cls-11" points="743.28 505.86 577.55 505.86 721.94 35.03 887.67 35.03 743.28 505.86"/><path class="cls-11" d="M744.67,507.73H575L720.55,33.15H890.21ZM580.09,504H741.9L885.14,36.9H723.33Z"/></g><g class="cls-13"><polygon class="cls-11" points="371.62 505.86 337.33 505.86 481.72 35.03 516 35.03 371.62 505.86"/><path class="cls-11" d="M373,507.73H334.79L480.33,33.15h38.21ZM339.86,504h30.37L513.47,36.9H483.1Z"/></g><g class="cls-13"><polygon class="cls-11" points="426.86 505.86 392.57 505.86 536.96 35.03 571.25 35.03 426.86 505.86"/><path class="cls-11" d="M428.24,507.73H390L535.58,33.15h38.2ZM395.11,504h30.36L568.71,36.9H538.35Z"/></g><path class="cls-3" d="M-35.77-17v673.1H803.57V-17ZM698.36,254.09c0,116-94,210-210,210H249.6c-116,0-210-94-210-209.95h0c0-116,94-209.95,210-209.95H488.4c116,0,210,94,210,210Z"/><path class="cls-4" d="M804,656.5H-36.21v-674H804Zm-839.33-.89H803.13V-16.6H-35.32ZM488.4,464.49H249.6c-116,0-210.4-94.39-210.4-210.4s94.38-210.4,210.4-210.4H488.4c116,0,210.4,94.39,210.4,210.4h0C698.8,370.1,604.42,464.49,488.4,464.49ZM249.6,44.58c-115.53,0-209.51,94-209.51,209.51s94,209.51,209.51,209.51H488.4c115.53,0,209.51-94,209.51-209.51S603.93,44.58,488.4,44.58Z"/><circle class="cls-14" cx="67.61" cy="63.02" r="35.66"/><path class="cls-3" d="M60.05,46.59c3.54-.16,13.15-.16,15.76,0a54.66,54.66,0,0,1,0,6.53c-2.57.09-5.52.09-8.64,0,0,1.86,0,4.55,0,6.37,6.41-.17,10.7,3.66,10.7,10.07s-4,9.9-11.58,10.15c-1.27,0-4.38.08-5.77,0a55.39,55.39,0,0,1,0-6.57c1.34,0,3.87,0,5,0,3.54-.12,5.31-1.34,5.31-3.75s-1.77-3.79-5.31-3.79c-1.73,0-4,.09-5.52,0C59.93,63.62,59.88,48.62,60.05,46.59Z"/><path class="cls-4" d="M63,80.2c-1,0-1.87,0-2.46,0l-.39,0,0-.39a61.28,61.28,0,0,1,0-6.64l0-.41h.41c1.35,0,3.86,0,5,0,4.37-.16,4.88-2,4.88-3.31,0-2.76-2.65-3.34-4.87-3.34l-1.8,0c-1.32,0-2.68,0-3.74,0l-.39,0,0-.4c-.13-2-.17-17,0-19l0-.39.39,0c3.57-.17,13.17-.17,15.81,0l.38,0,0,.38a55.83,55.83,0,0,1,0,6.6l0,.4h-.41c-2.43.08-5.26.08-8.2,0,0,.47,0,1,0,1.52,0,1.33,0,2.77,0,3.94a10.91,10.91,0,0,1,7.76,2.84,10.4,10.4,0,0,1,2.93,7.68c0,6.67-4.16,10.33-12,10.59C65.54,80.18,64.21,80.2,63,80.2Zm-2-.92c1.48.06,4.13,0,5.34,0,7.41-.24,11.16-3.51,11.16-9.7a9.55,9.55,0,0,0-2.66-7,10.14,10.14,0,0,0-7.59-2.59h-.46v-.46c0-1.23,0-2.87,0-4.38,0-.71,0-1.38,0-2v-.45h.45c2.93.08,5.76.08,8.21,0,.09-1.66.09-4.2,0-5.67-2.94-.14-11.27-.14-14.92,0-.13,2.89-.1,15.19,0,18.11,1,0,2.14,0,3.27,0l1.82,0c5,0,5.75,2.65,5.75,4.23,0,2.65-1.93,4.06-5.73,4.2-1.08,0-3.25,0-4.66,0C60.84,75.13,60.84,77.74,60.93,79.28Z"/><rect class="cls-7" x="-0.18" y="493.07" width="738.36" height="9.31"/><rect class="cls-7" x="190.49" y="523.3" width="357.01" height="53.05" rx="26.53"/><path class="cls-11" d="M248.24,560.64l-.24-.56a33.26,33.26,0,0,0-5.61-8.94l-1.6-1.83,1.14-1.16a33.24,33.24,0,0,0,6.31-9h0a36.23,36.23,0,0,0,6.63,9.28l.82.84-1.27,1.46a35.87,35.87,0,0,0-5.9,9.24Z"/><path class="cls-11" d="M248.24,561.25h0a.6.6,0,0,1-.56-.37l-.24-.56a32.73,32.73,0,0,0-5.51-8.78l-1.6-1.83a.61.61,0,0,1,0-.83l1.15-1.16a32.59,32.59,0,0,0,6.19-8.79.61.61,0,0,1,.55-.35h0a.62.62,0,0,1,.55.34A35.62,35.62,0,0,0,255.3,548l.83.84a.6.6,0,0,1,0,.83l-1.27,1.46a35.4,35.4,0,0,0-5.8,9.09l-.28.62A.61.61,0,0,1,248.24,561.25Zm-6.62-11.92,1.23,1.4a33.88,33.88,0,0,1,5.4,8.39,37,37,0,0,1,5.71-8.76l.9-1-.43-.43a36.87,36.87,0,0,1-6.18-8.36,33.93,33.93,0,0,1-5.88,8Z"/><path class="cls-11" d="M489.76,560.64l-.24-.56a33.26,33.26,0,0,0-5.61-8.94l-1.6-1.83,1.14-1.16a33.24,33.24,0,0,0,6.31-9h0a36.23,36.23,0,0,0,6.63,9.28l.82.84-1.27,1.46A35.87,35.87,0,0,0,490,560Z"/><path class="cls-11" d="M489.76,561.25h0a.6.6,0,0,1-.55-.37l-.24-.56a32.73,32.73,0,0,0-5.51-8.78l-1.6-1.83a.6.6,0,0,1,0-.83l1.14-1.16a32.62,32.62,0,0,0,6.2-8.79.61.61,0,0,1,.54-.35h0a.62.62,0,0,1,.55.34,35.62,35.62,0,0,0,6.51,9.12l.83.84a.61.61,0,0,1,0,.83l-1.27,1.46a35.4,35.4,0,0,0-5.8,9.09l-.28.63A.62.62,0,0,1,489.76,561.25Zm-6.62-11.92,1.23,1.4a33.88,33.88,0,0,1,5.4,8.39,37,37,0,0,1,5.71-8.76l.9-1-.43-.43a36.87,36.87,0,0,1-6.18-8.36,33.93,33.93,0,0,1-5.88,8Z"/><path class="cls-11" d="M271.69,540.65a47.53,47.53,0,0,1,5.6,0c.09.92.09,16.71,0,17.63a30,30,0,0,1-3.55,0c0-1.5,0-12.53,0-14a17.52,17.52,0,0,1-2.05,0A24,24,0,0,1,271.69,540.65Zm6.43,0a47.16,47.16,0,0,1,5.58,0c.12.92.12,16.71,0,17.63a29.69,29.69,0,0,1-3.53,0c0-1.5,0-12.53,0-14a17.51,17.51,0,0,1-2.05,0A30.88,30.88,0,0,1,278.12,540.65Zm7.19-.47a16.66,16.66,0,0,1,3.6,0c0,.45.07,3.36.07,6.75h1.51c0-3.44,0-6.39.05-6.83a16,16,0,0,1,3.66,0c.14,1.11.14,17.82,0,18.92a14.92,14.92,0,0,1-3.66,0c0-.52-.05-4.47-.05-8.63H289c0,4,0,7.82-.07,8.34a16.64,16.64,0,0,1-3.6,0C285.22,557.61,285.22,541.3,285.31,540.18Z"/><path class="cls-11" d="M301,552.34a26.77,26.77,0,0,1,4.2,0c1.92,1.61,4.65,4,5.34,4.67a10.52,10.52,0,0,1-2.59,2.86,55.59,55.59,0,0,1-4.85-4.36,55.59,55.59,0,0,1-4.85,4.36,10.52,10.52,0,0,1-2.59-2.86C296.3,556.38,299,554,301,552.34Zm-5.18-4.45c1.14-.07,13.2-.07,14.59,0a21.63,21.63,0,0,1,0,3.6c-1.39,0-13.45,0-14.59,0A19.68,19.68,0,0,1,295.77,547.89Zm.65-7.53a54.2,54.2,0,0,1,6,0c.07,1,.07,5.23,0,6.64a25.8,25.8,0,0,1-3.73,0v-3.38a16.89,16.89,0,0,1-2.25,0A19.68,19.68,0,0,1,296.42,540.36Zm6.9,0a58.09,58.09,0,0,1,6.19,0c.09,1,.09,5.23,0,6.64a25.8,25.8,0,0,1-3.73,0v-3.38a20.09,20.09,0,0,1-2.46,0A25.29,25.29,0,0,1,303.32,540.36Z"/><path class="cls-11" d="M311.56,541.46c.54-.05,2.64-.07,5-.07,0-.58,0-1.21.07-1.79a23.68,23.68,0,0,1,3.95,0c0,.58.07,1.21.07,1.79,2.21,0,4.11,0,4.64.07a13.56,13.56,0,0,1,0,3.37c-1.45.07-12.44.07-13.76,0A12.67,12.67,0,0,1,311.56,541.46Zm7.08,4c4.25,0,6.84,2.46,6.84,6.59s-2.59,6.59-6.84,6.59-6.83-2.45-6.83-6.59S314.4,545.43,318.64,545.43Zm0,10a3.4,3.4,0,1,0-3.21-3.4A3.06,3.06,0,0,0,318.64,555.42Zm7.67-15.32a16.35,16.35,0,0,1,3.7,0c.07.46.12,3.59.12,7.17a17.52,17.52,0,0,1,1.92.09,18.6,18.6,0,0,1,0,3.5,18.62,18.62,0,0,1-1.92.07c0,4-.05,7.6-.12,8.09a15.23,15.23,0,0,1-3.7,0C326.17,557.92,326.17,541.21,326.31,540.1Z"/><path class="cls-11" d="M332.59,540.65c1.11-.11,6.12-.11,7.23,0,.05.36.07,3.09.09,6.28h1.63c0-3.39,0-6.3.07-6.75a16.66,16.66,0,0,1,3.6,0c.09,1.12.09,17.43,0,18.55a16.64,16.64,0,0,1-3.6,0c0-.52-.07-4.32-.07-8.34h-1.63c0,3.85,0,7.46-.09,7.89a33.15,33.15,0,0,1-3.73,0c0-1.5,0-12.53,0-14-.91,0-2.5,0-3.5,0A24,24,0,0,1,332.59,540.65Zm13.94-.55a16,16,0,0,1,3.66,0c.13,1.11.13,17.82,0,18.92a14.92,14.92,0,0,1-3.66,0C346.46,557.92,346.46,541.21,346.53,540.1Z"/><path class="cls-11" d="M359,540.63a20.45,20.45,0,0,1,3.67,0c.87,3.13,3.75,15.71,3.88,16.71a13.25,13.25,0,0,1-3.59.78c-.2-.58-1.63-7.1-2.06-10.5-.54,3.18-2.06,10.1-2.28,10.7a12.35,12.35,0,0,1-3.57-.85C355.1,556.49,358.12,543.76,359,540.63Zm6.52,5.76c.52,0,1.28,0,2.1,0,0-3.15,0-5.76.07-6.19a16.66,16.66,0,0,1,3.6,0c.09,1.12.09,17.43,0,18.55a16.64,16.64,0,0,1-3.6,0c0-.54-.07-4.67-.07-8.9-.82,0-1.58,0-2.1,0A17.56,17.56,0,0,1,365.51,546.39Zm7-6.29a16.09,16.09,0,0,1,3.67,0c.13,1.11.13,17.82,0,18.92a15,15,0,0,1-3.67,0C372.42,557.92,372.42,541.21,372.48,540.1Z"/><path class="cls-11" d="M380.06,544.83c-1.05,0-1.85,0-2.15,0a16.44,16.44,0,0,1,0-3.29c.47,0,1.93-.09,3.65-.09,0-.71,0-1.47.06-2a23.2,23.2,0,0,1,3.91,0c.05.49.07,1.25.07,2,1.67,0,3.06.05,3.46.09a16.43,16.43,0,0,1,0,3.29c-.31,0-1.07,0-2,0,.94,1.9,2.17,4.45,2.41,5.16a11.44,11.44,0,0,1-3.15,1.68,54.57,54.57,0,0,1-2.75-5.68,53,53,0,0,1-2.74,5.68,11.44,11.44,0,0,1-3.15-1.68C377.89,549.28,379.12,546.73,380.06,544.83Zm-1.56,7.69c1.13-.12,16.21-.12,17.33,0,.11.93.11,5.83,0,6.74a35.13,35.13,0,0,1-3.84,0c0-.67,0-2.52,0-3.37-1,0-12.49,0-13.49,0A27.05,27.05,0,0,1,378.5,552.52Zm11.16-8.36c.67,0,1.57-.07,2.4,0,0-2,0-3.6.08-4a16.26,16.26,0,0,1,3.69,0c.16,1.11.16,10.52,0,11.63a25.19,25.19,0,0,1-3.69,0c0-.42-.06-2.19-.08-4.2-.83,0-1.73,0-2.4,0A19.46,19.46,0,0,1,389.66,544.16Z"/><path class="cls-11" d="M397.42,548.61c1.14-.07,14.76-.07,16.15,0a17.2,17.2,0,0,1,0,3.21c-.58,0-3.24,0-6.26,0v.62c4.47.27,6.1,1.59,6.1,3.66,0,2.35-2.08,3.71-7.93,3.71s-7.93-1.36-7.93-3.71c0-2,1.59-3.35,5.9-3.64v-.64c-3,0-5.56,0-6,0A15.65,15.65,0,0,1,397.42,548.61Zm4.85-5c-2.06,0-3.73,0-4.25,0a17.75,17.75,0,0,1,0-3.42c1.54-.08,13.54-.08,15,0a17.76,17.76,0,0,1,0,3.42c-.47,0-2.17,0-4.25,0,1.74.5,3.73,1.08,4.56,1.39a10.23,10.23,0,0,1-1.23,3.17c-1.63-.44-4.6-1.36-6.57-2.1-1.94.74-4.91,1.66-6.54,2.1a10.23,10.23,0,0,1-1.23-3.17C398.54,544.7,400.52,544.12,402.27,543.62Zm3.21,13.27c3.46,0,4.09-.29,4.09-.76s-.63-.75-4.09-.75-4.09.29-4.09.75S402,556.89,405.48,556.89Z"/><path class="cls-11" d="M421.19,540c4.09,0,6.48,1.89,6.48,4.84s-2.39,4.85-6.48,4.85-6.48-1.9-6.48-4.85S417.1,540,421.19,540Zm-5.52,10.34a25.51,25.51,0,0,1,3.71,0c0,.36,0,.91,0,1.52,2.19,0,7.33,0,9.47,0l0-1.52a25,25,0,0,1,3.67,0c.09,1.12.11,7.44,0,8.89-1.07.11-15.62.13-16.89,0C415.54,557.39,415.58,551.49,415.67,550.35Zm5.52-3.84c2,0,2.83-.72,2.83-1.66s-.87-1.65-2.83-1.65-2.84.72-2.84,1.65S419.22,546.51,421.19,546.51Zm-1.81,9.6c.49,0,9,0,9.51,0l0-1.38c-2.14,0-7.28,0-9.47,0Zm9.49-16a16.26,16.26,0,0,1,3.69,0c.15,1.11.15,8.26,0,9.38a25.2,25.2,0,0,1-3.69,0C428.76,548.38,428.76,541.21,428.87,540.1Z"/><path class="cls-11" d="M434.73,540.63a34.22,34.22,0,0,1,3.79,0c0,1.48,0,12.47,0,13.94,1,0,3.4,0,4.4,0a31.57,31.57,0,0,1,0,3.64c-1.13.09-7.08.09-8.19,0C434.61,557.27,434.61,541.55,434.73,540.63Zm9.38-.53a16.44,16.44,0,0,1,3.71,0c.13,1.11.13,17.82,0,18.92a15.32,15.32,0,0,1-3.71,0C444,557.92,444,541.21,444.11,540.1Z"/><path class="cls-11" d="M449.87,540.56c1.08-.09,7.24-.09,8.76,0a22.55,22.55,0,0,1,0,3.49c-1,0-4.16,0-4.89,0-.07.6-.07,9.92,0,10.72,1.09,0,4.76,0,5.72,0a20.77,20.77,0,0,1,0,3.53c-1.3.09-8.11.09-9.59,0C449.72,556.2,449.72,542.66,449.87,540.56Zm11-.46a16.35,16.35,0,0,1,3.7,0c.07.46.12,3.59.12,7.17a17.52,17.52,0,0,1,1.92.09,18.6,18.6,0,0,1,0,3.5,18.62,18.62,0,0,1-1.92.07c0,4,0,7.6-.12,8.09a15.23,15.23,0,0,1-3.7,0C460.75,557.92,460.75,541.21,460.89,540.1Z"/><path class="cls-11" d="M483.45,469.42H254.55c-57.62,0-111.94-22.59-153-63.61S38,310.47,38,252.85,60.57,140.92,101.59,99.9s95.34-63.61,153-63.61h228.9c57.62,0,111.94,22.59,153,63.61S700,195.24,700,252.85s-22.59,111.94-63.61,153S541.07,469.42,483.45,469.42ZM254.55,46.29c-55,0-106.75,21.55-145.89,60.68A205.09,205.09,0,0,0,48,252.85c0,55,21.55,106.75,60.68,145.89s90.94,60.68,145.89,60.68h228.9c54.95,0,106.75-21.55,145.89-60.68S690,307.8,690,252.85A205.09,205.09,0,0,0,629.34,107C590.2,67.84,538.4,46.29,483.45,46.29Z"/></g></g></svg>