<svg xmlns="http://www.w3.org/2000/svg" xmlns:xlink="http://www.w3.org/1999/xlink" viewBox="0 0 500 406"><defs><style>.cls-1,.cls-10,.cls-11,.cls-21,.cls-6,.cls-7,.cls-8,.cls-9{fill:none;}.cls-2{clip-path:url(#clip-path);}.cls-3{fill:#ffcd00;stroke:#ffce01;stroke-width:0.89px;}.cls-10,.cls-11,.cls-14,.cls-17,.cls-19,.cls-21,.cls-3,.cls-6,.cls-7,.cls-8,.cls-9{stroke-miterlimit:10;}.cls-4{clip-path:url(#clip-path-2);}.cls-5{fill:#154734;}.cls-10,.cls-11,.cls-6,.cls-7,.cls-8,.cls-9{stroke:#8a9ab2;}.cls-6{stroke-width:15px;}.cls-7{stroke-width:12px;}.cls-21,.cls-8{stroke-width:10px;}.cls-9{stroke-width:7px;}.cls-10{stroke-width:5px;}.cls-11{stroke-width:4px;}.cls-12{fill:#d2e4ff;}.cls-13{fill:#8a9ab2;}.cls-14,.cls-15{fill:#637082;}.cls-14{stroke:#637082;stroke-width:0.78px;}.cls-16,.cls-17,.cls-19,.cls-20{fill:#fff;}.cls-17,.cls-19,.cls-20,.cls-21{stroke:#fff;}.cls-17,.cls-19{stroke-width:3.75px;}.cls-18{fill:#b1e2ef;}.cls-19{opacity:0.45;}.cls-20{stroke-linecap:round;stroke-linejoin:round;stroke-width:1.22px;}</style><clipPath id="clip-path"><rect class="cls-1" width="500" height="406.51"/></clipPath><clipPath id="clip-path-2"><rect class="cls-1" x="26.81" y="29.84" width="445.42" height="283.94" rx="141.97"/></clipPath></defs><g id="레이어_6" data-name="레이어 6"><g class="cls-2"><rect class="cls-3" width="500" height="406.51"/><g class="cls-4"><rect class="cls-5" x="26.81" y="29.84" width="445.42" height="283.94" rx="141.97"/><line class="cls-6" x1="18.89" y1="186.06" x2="474.5" y2="186.06"/><line class="cls-7" x1="18.89" y1="166.53" x2="474.5" y2="166.53"/><line class="cls-8" x1="18.89" y1="148.03" x2="474.5" y2="148.03"/><line class="cls-9" x1="18.89" y1="132.1" x2="474.5" y2="132.1"/><line class="cls-10" x1="18.89" y1="116.86" x2="474.5" y2="116.86"/><line class="cls-11" x1="18.89" y1="103.96" x2="474.5" y2="103.96"/><line class="cls-6" x1="18.89" y1="66.32" x2="474.5" y2="66.32"/><line class="cls-7" x1="18.89" y1="46.79" x2="474.5" y2="46.79"/><line class="cls-8" x1="18.89" y1="28.29" x2="474.5" y2="28.29"/><line class="cls-9" x1="18.89" y1="12.36" x2="474.5" y2="12.36"/><path class="cls-12" d="M209.92,115.17,66,116.34c-8.84.07-15.13,11.3-12.62,22.51l7.42,33.08c1.69,7.54,7,12.71,12.9,12.66l129.58-1.05c6,0,11.13-5.3,12.7-12.87l6.88-33.19C225.23,126.23,218.76,115.1,209.92,115.17Z"/><path class="cls-13" d="M66.05,117.6l143.88-1.17c8.84-.07,15.31,11.06,13,22.31l-1.6,7.69a11.27,11.27,0,0,1-3.8.69l-160.13,1.3a12.5,12.5,0,0,1-2.13-.19l-1.82-8.12C50.92,128.9,57.21,117.67,66.05,117.6Z"/><path class="cls-14" d="M59.92,145.27,216.51,144a14.49,14.49,0,0,0,13.78-18.57l-8-27.24a14.5,14.5,0,0,0-14-10.4l-141,1.14A14.49,14.49,0,0,0,53.4,99.56l-7.56,27.36A14.48,14.48,0,0,0,59.92,145.27Z"/><path class="cls-12" d="M59.9,142.64l156.59-1.27a14.49,14.49,0,0,0,13.78-18.57l-8-27.23a14.51,14.51,0,0,0-14-10.41l-141,1.15A14.48,14.48,0,0,0,53.38,96.93l-7.57,27.36A14.49,14.49,0,0,0,59.9,142.64Z"/><path class="cls-13" d="M69.49,135.57l137.29-1.11c8.44-.07,14.47-7.34,12.1-14.57l-7-21.34c-1.59-4.87-6.6-8.19-12.28-8.15L76,91.4c-5.67,0-10.63,3.46-12.15,8.35L57.15,121.2C54.9,128.47,61.05,135.64,69.49,135.57Z"/><path class="cls-15" d="M203.64,93.68a5.49,5.49,0,0,1,1.23,2.72,6.17,6.17,0,0,1,.29,2.45c-.15,1.59-.28,3.17-.46,4.75-.36,3.15-.44,6.16-1,9.27s-1.46,5.56-2.3,8.63c-.41,1.53-.86,3.06-1.32,4.59a11,11,0,0,1-1.37,2.94,4.45,4.45,0,0,1-1.95,1.72,9.51,9.51,0,0,1-.29-2.48,13.05,13.05,0,0,1,.21-2.34c.26-1.54.5-3.09.72-4.64q.68-4.67,1.34-9.33c.48-3.1,1.4-5.82,2-8.91l.86-4.62a7.92,7.92,0,0,1,.78-2.25C202.74,95.44,202.81,94.38,203.64,93.68Z"/><path class="cls-15" d="M71.64,94.73A4.84,4.84,0,0,1,72.92,96c.3.42.5.84.77,1.21a5.08,5.08,0,0,1,1,2.25c.26,1.53.53,3.06.79,4.59.52,3.08,1.42,5.91,1.78,9s.21,5.64.43,8.73c.14,1.54.23,3.1.4,4.61a10.64,10.64,0,0,1-.14,3.12c-.11.41-.17.78-.31,1.19s-.3.8-.58,1.53a4.45,4.45,0,0,1-1.25-1,7.77,7.77,0,0,1-.82-1.09,9.09,9.09,0,0,1-1-2.3c-.44-1.56-.84-3.12-1.22-4.67-.76-3.09-1.34-6.21-1.93-9.32s-.27-6-.51-9.17c-.12-1.58-.19-3.16-.26-4.75a6,6,0,0,1,.41-2.43,11.79,11.79,0,0,0,.34-1.39A2.6,2.6,0,0,1,71.64,94.73Z"/><path class="cls-16" d="M214.18,152.23c.95,1.64.73,3.42.83,4.94a12.84,12.84,0,0,1-.5,4.39,69.71,69.71,0,0,1-2.94,8.27,19.7,19.7,0,0,1-2.41,4.22,14.59,14.59,0,0,1-3.87,3.38,22.66,22.66,0,0,1-9,2.83c-5.91.59-10.59.15-16.28-.14l-8.49-.51a28.18,28.18,0,0,1-5.63-.89,10,10,0,0,1-3.91-1.86,18.86,18.86,0,0,1,4.25-1.17,30.66,30.66,0,0,1,4.25-.39L179,175a147.94,147.94,0,0,0,16.54-1.19,26.9,26.9,0,0,0,6.85-1.64,8.79,8.79,0,0,0,2.52-1.67,11,11,0,0,0,1.94-2.79,78.46,78.46,0,0,0,3.21-7.49,22.91,22.91,0,0,1,1.77-3.76C212.56,155.27,212.94,153.4,214.18,152.23Z"/><path class="cls-16" d="M80.17,151.21A4.38,4.38,0,0,1,79,153.27a1.92,1.92,0,0,1-1.15.85c-.78.16-1.57.33-2.36.44a25.65,25.65,0,0,1-4.66.79,27.62,27.62,0,0,1-4.44-.93c-.79-.16-1.57-.36-2.35-.55a3.06,3.06,0,0,1-1.5-.94,4,4,0,0,1-.94-1.9,3.88,3.88,0,0,1,1.24-1.12,2.7,2.7,0,0,1,1.17-.35l2.31-.22c1.53-.19,3-.28,4.57-.45s2.89.46,4.42.51c.76,0,1.53.07,2.29.09a2,2,0,0,1,1.18.53C79.2,150.38,79.72,150.27,80.17,151.21Z"/><polygon class="cls-16" points="163.32 141.78 190.07 141.56 202.21 134.54 175.45 134.76 163.32 141.78"/><polygon class="cls-16" points="127.53 142.07 139.71 141.97 151.84 134.95 139.67 135.05 127.53 142.07"/><polygon class="cls-16" points="101.51 142.28 120.38 142.12 132.52 135.11 113.64 135.26 101.51 142.28"/><path class="cls-16" d="M96.11,180.76c0-1.6.85-2.48,1.31-3.46a7.47,7.47,0,0,1,1.8-2.37l4.33-3.78c2.89-2.51,5.35-5.18,8.32-7.57s5.68-4,8.77-6.24l4.63-3.41a13.8,13.8,0,0,1,3.43-1.87,6.17,6.17,0,0,1,3.2-.41,9.85,9.85,0,0,1-1.36,2.82,14.09,14.09,0,0,1-1.89,2.23l-4.17,4c-2.77,2.69-5.65,5.27-8.53,7.85s-6,4.25-9.12,6.56c-1.54,1.16-3.12,2.27-4.69,3.39a8.86,8.86,0,0,1-2.66,1.28C98.49,180.1,97.46,181,96.11,180.76Z"/><path class="cls-16" d="M110.33,149.7c.13,1.61-.63,2.61-1,3.66a7.69,7.69,0,0,1-1.67,2.63c-1.41,1.44-2.8,2.89-4.25,4.29-2.87,2.82-5.37,5.72-8.48,8.28s-6,4.23-9.28,6.51c-1.65,1.15-3.34,2.26-5,3.37a14.52,14.52,0,0,1-3.68,1.75,6.48,6.48,0,0,1-3.32.21,10.41,10.41,0,0,1,1.67-2.76,14.81,14.81,0,0,1,2.11-2.15l4.5-3.93c3-2.66,6-5.27,8.88-7.95s6-4.54,9.09-7.11l4.55-3.85a9.66,9.66,0,0,1,2.59-1.58C108,150.67,108.93,149.67,110.33,149.7Z"/><path class="cls-12" d="M209.92-4.14,66-3C57.2-2.9,50.91,8.32,53.42,19.54l7.42,33.07c1.69,7.54,7,12.71,12.9,12.66l129.58-1c6,0,11.13-5.3,12.7-12.87l6.88-33.19C225.23,6.91,218.76-4.21,209.92-4.14Z"/><path class="cls-13" d="M66.05-1.72,209.93-2.88c8.84-.07,15.31,11.05,13,22.3l-1.6,7.7a11.78,11.78,0,0,1-3.8.69L57.38,29.1a10.75,10.75,0,0,1-2.13-.19L53.43,20.8C50.92,9.58,57.21-1.64,66.05-1.72Z"/><path class="cls-14" d="M59.92,26l156.59-1.26A14.5,14.5,0,0,0,230.29,6.11l-8-27.23a14.48,14.48,0,0,0-14-10.4l-141,1.14A14.47,14.47,0,0,0,53.4-19.75L45.84,7.61A14.48,14.48,0,0,0,59.92,26Z"/><path class="cls-12" d="M59.9,23.33l156.59-1.27A14.49,14.49,0,0,0,230.27,3.48l-8-27.23a14.48,14.48,0,0,0-14-10.4L67.22-33A14.47,14.47,0,0,0,53.38-22.38L45.81,5A14.5,14.5,0,0,0,59.9,23.33Z"/><path class="cls-13" d="M69.49,16.25l137.29-1.11c8.44-.07,14.47-7.33,12.1-14.57l-7-21.34c-1.59-4.87-6.6-8.19-12.28-8.14L76-27.91c-5.67,0-10.63,3.45-12.15,8.34L57.15,1.88C54.9,9.16,61.05,16.32,69.49,16.25Z"/><path class="cls-15" d="M203.64-25.63a5.45,5.45,0,0,1,1.23,2.72,6.15,6.15,0,0,1,.29,2.45c-.15,1.58-.28,3.16-.46,4.74-.36,3.15-.44,6.16-1,9.27s-1.46,5.57-2.3,8.63c-.41,1.54-.86,3.06-1.32,4.59a10.89,10.89,0,0,1-1.37,2.94,4.39,4.39,0,0,1-1.95,1.72A9.39,9.39,0,0,1,196.45,9a13,13,0,0,1,.21-2.34c.26-1.54.5-3.09.72-4.64.45-3.12.9-6.22,1.34-9.33s1.4-5.82,2-8.91l.86-4.62a8,8,0,0,1,.78-2.26C202.74-23.88,202.81-24.93,203.64-25.63Z"/><path class="cls-15" d="M71.64-24.58a5,5,0,0,1,1.28,1.29c.3.43.5.85.77,1.21a5.12,5.12,0,0,1,1,2.25c.26,1.53.53,3.07.79,4.6.52,3.07,1.42,5.91,1.78,9s.21,5.63.43,8.73c.14,1.54.23,3.09.4,4.61a10.66,10.66,0,0,1-.14,3.12c-.11.41-.17.77-.31,1.18s-.3.8-.58,1.54a4.64,4.64,0,0,1-1.25-1,7.31,7.31,0,0,1-.82-1.1,9.09,9.09,0,0,1-1-2.3C73.52,7,73.12,5.45,72.74,3.9,72,.8,71.4-2.31,70.81-5.43s-.27-6-.51-9.17c-.12-1.57-.19-3.16-.26-4.75a5.94,5.94,0,0,1,.41-2.42,12.85,12.85,0,0,0,.34-1.39A2.56,2.56,0,0,1,71.64-24.58Z"/><path class="cls-16" d="M214.18,32.91c.95,1.64.73,3.43.83,4.94a12.84,12.84,0,0,1-.5,4.39,69.23,69.23,0,0,1-2.94,8.28,19.7,19.7,0,0,1-2.41,4.22,14.55,14.55,0,0,1-3.87,3.37,22.34,22.34,0,0,1-9,2.83c-5.91.6-10.59.16-16.28-.14l-8.49-.5a28.21,28.21,0,0,1-5.63-.9A10,10,0,0,1,162,57.55a18.35,18.35,0,0,1,4.25-1.17A30.66,30.66,0,0,1,170.5,56l8.49-.27a145.61,145.61,0,0,0,16.54-1.19,26.08,26.08,0,0,0,6.85-1.64,8.76,8.76,0,0,0,2.52-1.66,11.1,11.1,0,0,0,1.94-2.8,77.38,77.38,0,0,0,3.21-7.49,23.3,23.3,0,0,1,1.77-3.76C212.56,36,212.94,34.08,214.18,32.91Z"/><path class="cls-16" d="M80.17,31.9A4.33,4.33,0,0,1,79,34a1.94,1.94,0,0,1-1.15.86c-.78.15-1.57.33-2.36.44a25.63,25.63,0,0,1-4.66.78,27.59,27.59,0,0,1-4.44-.92c-.79-.16-1.57-.37-2.35-.56a3,3,0,0,1-1.5-.94,3.92,3.92,0,0,1-.94-1.89,3.65,3.65,0,0,1,1.24-1.12A2.72,2.72,0,0,1,64,30.24L66.34,30c1.53-.18,3-.28,4.57-.45s2.89.46,4.42.51c.76,0,1.53.07,2.29.1a1.93,1.93,0,0,1,1.18.52C79.2,31.06,79.72,31,80.17,31.9Z"/><polygon class="cls-16" points="163.32 22.46 190.07 22.24 202.21 15.23 175.45 15.44 163.32 22.46"/><polygon class="cls-16" points="127.53 22.75 139.71 22.65 151.84 15.63 139.67 15.73 127.53 22.75"/><polygon class="cls-16" points="101.51 22.96 120.38 22.81 132.52 15.79 113.64 15.94 101.51 22.96"/><path class="cls-16" d="M96.11,61.44c0-1.59.85-2.47,1.31-3.45a7.26,7.26,0,0,1,1.8-2.37l4.33-3.78c2.89-2.52,5.35-5.19,8.32-7.58s5.68-4,8.77-6.23l4.63-3.41a13.83,13.83,0,0,1,3.43-1.88,6.18,6.18,0,0,1,3.2-.4,9.85,9.85,0,0,1-1.36,2.82,15.05,15.05,0,0,1-1.89,2.23l-4.17,4c-2.77,2.7-5.65,5.27-8.53,7.86s-6,4.25-9.12,6.55c-1.54,1.16-3.12,2.27-4.69,3.4a8.86,8.86,0,0,1-2.66,1.28C98.49,60.78,97.46,61.64,96.11,61.44Z"/><path class="cls-16" d="M110.33,30.39c.13,1.6-.63,2.61-1,3.66a7.74,7.74,0,0,1-1.67,2.62c-1.41,1.44-2.8,2.89-4.25,4.3-2.87,2.82-5.37,5.71-8.48,8.28s-6,4.22-9.28,6.5C84,56.9,82.28,58,80.6,59.12a14.19,14.19,0,0,1-3.68,1.75,6.27,6.27,0,0,1-3.32.21,10.57,10.57,0,0,1,1.67-2.76,15.9,15.9,0,0,1,2.11-2.15l4.5-3.93c3-2.66,6-5.26,8.88-8s6-4.53,9.09-7.1l4.55-3.85A9.69,9.69,0,0,1,107,31.75C108,31.36,108.93,30.36,110.33,30.39Z"/><path class="cls-12" d="M213.19,234.33,69.32,235.5c-8.84.07-15.14,11.3-12.62,22.51l7.42,33.07c1.69,7.55,6.95,12.71,12.9,12.67l129.57-1.05c5.95-.05,11.13-5.3,12.7-12.87l6.88-33.2C228.51,245.38,222,234.26,213.19,234.33Z"/><path class="cls-13" d="M69.33,236.76l143.87-1.17c8.84-.07,15.32,11,13,22.3l-1.59,7.7a11.58,11.58,0,0,1-3.81.69l-160.13,1.3a12.38,12.38,0,0,1-2.12-.19l-1.82-8.12C54.19,248.06,60.49,236.83,69.33,236.76Z"/><path class="cls-14" d="M63.19,264.43l156.59-1.27a14.5,14.5,0,0,0,13.79-18.58l-8-27.23a14.48,14.48,0,0,0-14-10.4l-141,1.14a14.49,14.49,0,0,0-13.85,10.63l-7.56,27.36A14.5,14.5,0,0,0,63.19,264.43Z"/><path class="cls-12" d="M63.17,261.8l156.59-1.27A14.48,14.48,0,0,0,233.54,242l-8-27.24a14.48,14.48,0,0,0-14-10.4l-141,1.14a14.5,14.5,0,0,0-13.85,10.63l-7.56,27.36A14.49,14.49,0,0,0,63.17,261.8Z"/><path class="cls-13" d="M72.76,254.73l137.3-1.12c8.43-.06,14.47-7.33,12.1-14.56l-7-21.35c-1.6-4.86-6.61-8.19-12.28-8.14l-123.65,1c-5.68.05-10.63,3.45-12.15,8.34l-6.65,21.46C58.18,247.63,64.33,254.8,72.76,254.73Z"/><path class="cls-15" d="M206.91,212.84a5.48,5.48,0,0,1,1.24,2.72,6.14,6.14,0,0,1,.28,2.45c-.14,1.58-.27,3.17-.46,4.74-.35,3.15-.43,6.16-1,9.28s-1.46,5.56-2.29,8.62c-.42,1.54-.87,3.07-1.32,4.6a11,11,0,0,1-1.37,2.93,4.44,4.44,0,0,1-2,1.73,10,10,0,0,1-.29-2.48,14,14,0,0,1,.22-2.34c.25-1.54.49-3.09.72-4.64.45-3.12.89-6.22,1.34-9.33s1.4-5.82,2-8.91l.86-4.62a7.63,7.63,0,0,1,.78-2.25C206,214.6,206.08,213.54,206.91,212.84Z"/><path class="cls-15" d="M74.92,213.89a5.32,5.32,0,0,1,1.28,1.29c.29.43.49.85.76,1.21a5.2,5.2,0,0,1,1,2.25l.78,4.6c.53,3.07,1.42,5.91,1.78,9s.22,5.64.44,8.73c.13,1.54.23,3.09.4,4.61a10.66,10.66,0,0,1-.14,3.12c-.11.41-.18.78-.32,1.19s-.29.79-.57,1.53a4.64,4.64,0,0,1-1.25-1,8.71,8.71,0,0,1-.83-1.09,9.31,9.31,0,0,1-1-2.31c-.44-1.55-.84-3.11-1.21-4.66-.77-3.1-1.34-6.21-1.93-9.32s-.27-6-.51-9.18c-.12-1.57-.19-3.15-.26-4.74a5.94,5.94,0,0,1,.4-2.43,12.82,12.82,0,0,0,.35-1.39A2.56,2.56,0,0,1,74.92,213.89Z"/><path class="cls-16" d="M217.45,271.39c1,1.63.74,3.42.84,4.94a12.79,12.79,0,0,1-.5,4.38,71,71,0,0,1-2.94,8.28,19.76,19.76,0,0,1-2.42,4.22,14.19,14.19,0,0,1-3.86,3.37,22.57,22.57,0,0,1-9,2.84c-5.91.59-10.59.15-16.29-.14l-8.49-.51a28.11,28.11,0,0,1-5.62-.9,9.89,9.89,0,0,1-3.91-1.85,18.72,18.72,0,0,1,4.25-1.17,30.52,30.52,0,0,1,4.25-.39l8.49-.27A145.77,145.77,0,0,0,198.81,293a26.18,26.18,0,0,0,6.85-1.64,8.38,8.38,0,0,0,2.51-1.66,10.67,10.67,0,0,0,1.94-2.8,74.84,74.84,0,0,0,3.22-7.48,23,23,0,0,1,1.77-3.77C215.84,274.42,216.22,272.55,217.45,271.39Z"/><path class="cls-16" d="M83.44,270.37a4.2,4.2,0,0,1-1.15,2.05,1.88,1.88,0,0,1-1.14.86c-.78.15-1.57.33-2.36.44a25.92,25.92,0,0,1-4.66.78,26.34,26.34,0,0,1-4.44-.92c-.79-.16-1.57-.36-2.35-.55a3.11,3.11,0,0,1-1.51-.95,4.1,4.1,0,0,1-.94-1.89,3.88,3.88,0,0,1,1.25-1.12,2.57,2.57,0,0,1,1.17-.35l2.3-.22c1.54-.19,3.06-.29,4.58-.46s2.89.47,4.42.51c.76,0,1.53.08,2.29.1a1.87,1.87,0,0,1,1.17.53C82.47,269.53,83,269.43,83.44,270.37Z"/><polygon class="cls-16" points="166.59 260.93 193.34 260.72 205.48 253.7 178.73 253.92 166.59 260.93"/><polygon class="cls-16" points="130.81 261.22 142.98 261.13 155.12 254.11 142.94 254.21 130.81 261.22"/><polygon class="cls-16" points="104.78 261.43 123.66 261.28 135.79 254.26 116.92 254.42 104.78 261.43"/><path class="cls-16" d="M99.39,299.91c0-1.59.84-2.47,1.3-3.45a7.15,7.15,0,0,1,1.81-2.37l4.33-3.78c2.88-2.52,5.34-5.19,8.32-7.57s5.67-4,8.77-6.24l4.63-3.41a13.92,13.92,0,0,1,3.42-1.87,6.1,6.1,0,0,1,3.2-.41,9.83,9.83,0,0,1-1.35,2.82,14.62,14.62,0,0,1-1.9,2.23l-4.16,4c-2.77,2.69-5.66,5.27-8.54,7.85s-6,4.25-9.11,6.55c-1.54,1.16-3.13,2.27-4.69,3.4a8.86,8.86,0,0,1-2.66,1.28C101.76,299.26,100.74,300.11,99.39,299.91Z"/><path class="cls-16" d="M113.6,268.86c.14,1.6-.63,2.61-1,3.66a7.84,7.84,0,0,1-1.67,2.63c-1.41,1.43-2.81,2.89-4.25,4.29-2.87,2.82-5.38,5.71-8.49,8.28s-6,4.22-9.28,6.51c-1.65,1.15-3.33,2.25-5,3.36a14.09,14.09,0,0,1-3.69,1.75,6.23,6.23,0,0,1-3.31.21,10.55,10.55,0,0,1,1.66-2.76,15.32,15.32,0,0,1,2.12-2.14l4.49-3.93c3-2.66,6-5.27,8.88-8s6.06-4.53,9.1-7.1l4.55-3.85a9.51,9.51,0,0,1,2.59-1.58C111.26,269.83,112.21,268.83,113.6,268.86Z"/><path class="cls-12" d="M423,115.17l-143.87,1.17c-8.84.07-15.14,11.3-12.62,22.51l7.42,33.08c1.69,7.54,7,12.71,12.9,12.66l129.58-1.05c5.94,0,11.13-5.3,12.7-12.87L436,137.48C438.28,126.23,431.8,115.1,423,115.17Z"/><path class="cls-13" d="M279.1,117.6,423,116.43c8.84-.07,15.32,11.06,13,22.31l-1.6,7.69a11.33,11.33,0,0,1-3.81.69l-160.12,1.3a12.41,12.41,0,0,1-2.13-.19l-1.82-8.12C264,128.9,270.26,117.67,279.1,117.6Z"/><path class="cls-14" d="M273,145.27,429.56,144a14.49,14.49,0,0,0,13.78-18.57l-8-27.24a14.5,14.5,0,0,0-14-10.4l-141,1.14a14.51,14.51,0,0,0-13.85,10.63l-7.56,27.36A14.49,14.49,0,0,0,273,145.27Z"/><path class="cls-12" d="M272.94,142.64l156.59-1.27a14.49,14.49,0,0,0,13.79-18.57l-8-27.23a14.48,14.48,0,0,0-14-10.41l-141,1.15a14.5,14.5,0,0,0-13.85,10.62l-7.56,27.36A14.49,14.49,0,0,0,272.94,142.64Z"/><path class="cls-13" d="M282.54,135.57l137.29-1.11c8.44-.07,14.47-7.34,12.1-14.57l-7-21.34c-1.59-4.87-6.61-8.19-12.28-8.15L289,91.4c-5.67,0-10.63,3.46-12.15,8.35L270.2,121.2C268,128.47,274.1,135.64,282.54,135.57Z"/><path class="cls-15" d="M416.68,93.68a5.43,5.43,0,0,1,1.24,2.72,6.17,6.17,0,0,1,.29,2.45c-.15,1.59-.28,3.17-.47,4.75-.35,3.15-.43,6.16-1,9.27s-1.46,5.56-2.29,8.63c-.41,1.53-.86,3.06-1.32,4.59a11,11,0,0,1-1.37,2.94,4.45,4.45,0,0,1-1.95,1.72,9.54,9.54,0,0,1-.3-2.48,14,14,0,0,1,.22-2.34c.26-1.54.49-3.09.72-4.64.45-3.11.89-6.22,1.34-9.33s1.4-5.82,2-8.91l.86-4.62a7.63,7.63,0,0,1,.78-2.25C415.79,95.44,415.85,94.38,416.68,93.68Z"/><path class="cls-15" d="M284.69,94.73A4.84,4.84,0,0,1,286,96c.3.42.5.84.77,1.21a5.08,5.08,0,0,1,1,2.25l.78,4.59c.53,3.08,1.42,5.91,1.79,9s.21,5.64.43,8.73c.13,1.54.23,3.1.4,4.61a10.64,10.64,0,0,1-.14,3.12c-.11.41-.17.78-.32,1.19s-.29.8-.57,1.53a4.45,4.45,0,0,1-1.25-1,8.71,8.71,0,0,1-.83-1.09,9.46,9.46,0,0,1-1-2.3c-.44-1.56-.83-3.12-1.21-4.67-.77-3.09-1.34-6.21-1.93-9.32s-.27-6-.51-9.17c-.12-1.58-.19-3.16-.26-4.75a6.17,6.17,0,0,1,.4-2.43,10.07,10.07,0,0,0,.35-1.39A2.6,2.6,0,0,1,284.69,94.73Z"/><path class="cls-16" d="M427.22,152.23c.95,1.64.74,3.42.84,4.94a12.84,12.84,0,0,1-.5,4.39,71.53,71.53,0,0,1-2.94,8.27,19.76,19.76,0,0,1-2.42,4.22,14.4,14.4,0,0,1-3.86,3.38,22.66,22.66,0,0,1-9,2.83c-5.91.59-10.59.15-16.28-.14l-8.5-.51a28.09,28.09,0,0,1-5.62-.89,9.91,9.91,0,0,1-3.91-1.86,18.86,18.86,0,0,1,4.25-1.17,30.66,30.66,0,0,1,4.25-.39L392,175a147.94,147.94,0,0,0,16.54-1.19,26.9,26.9,0,0,0,6.85-1.64,8.6,8.6,0,0,0,2.51-1.67,10.54,10.54,0,0,0,1.94-2.79,76,76,0,0,0,3.22-7.49,22.91,22.91,0,0,1,1.77-3.76C425.61,155.27,426,153.4,427.22,152.23Z"/><path class="cls-16" d="M293.22,151.21a4.38,4.38,0,0,1-1.15,2.06,1.94,1.94,0,0,1-1.15.85c-.78.16-1.57.33-2.36.44a25.8,25.8,0,0,1-4.66.79,27.62,27.62,0,0,1-4.44-.93c-.79-.16-1.57-.36-2.35-.55a3,3,0,0,1-1.5-.94,4,4,0,0,1-.95-1.9,4,4,0,0,1,1.25-1.12,2.7,2.7,0,0,1,1.17-.35l2.31-.22c1.53-.19,3.05-.28,4.57-.45s2.89.46,4.42.51c.76,0,1.53.07,2.29.09a1.92,1.92,0,0,1,1.17.53C292.25,150.38,292.77,150.27,293.22,151.21Z"/><polygon class="cls-16" points="376.36 141.78 403.12 141.56 415.25 134.54 388.5 134.76 376.36 141.78"/><polygon class="cls-16" points="340.58 142.07 352.76 141.97 364.89 134.95 352.72 135.05 340.58 142.07"/><polygon class="cls-16" points="314.56 142.28 333.43 142.12 345.56 135.11 326.69 135.26 314.56 142.28"/><path class="cls-16" d="M309.16,180.76c0-1.6.84-2.48,1.31-3.46a7.33,7.33,0,0,1,1.8-2.37l4.33-3.78c2.88-2.51,5.34-5.18,8.32-7.57s5.68-4,8.77-6.24l4.63-3.41a13.92,13.92,0,0,1,3.42-1.87,6.23,6.23,0,0,1,3.21-.41,9.85,9.85,0,0,1-1.36,2.82,14.09,14.09,0,0,1-1.89,2.23l-4.17,4c-2.77,2.69-5.65,5.27-8.53,7.85s-6,4.25-9.12,6.56c-1.54,1.16-3.12,2.27-4.69,3.39a8.86,8.86,0,0,1-2.66,1.28C311.54,180.1,310.51,181,309.16,180.76Z"/><path class="cls-16" d="M323.37,149.7c.14,1.61-.62,2.61-1,3.66a7.84,7.84,0,0,1-1.67,2.63c-1.41,1.44-2.81,2.89-4.25,4.29-2.87,2.82-5.37,5.72-8.48,8.28s-6,4.23-9.28,6.51c-1.66,1.15-3.34,2.26-5,3.37a14.52,14.52,0,0,1-3.68,1.75,6.48,6.48,0,0,1-3.32.21,10.41,10.41,0,0,1,1.67-2.76,14.81,14.81,0,0,1,2.11-2.15l4.49-3.93c3-2.66,6-5.27,8.89-7.95s6.05-4.54,9.09-7.11l4.55-3.85a9.66,9.66,0,0,1,2.59-1.58C321,150.67,322,149.67,323.37,149.7Z"/><path class="cls-12" d="M423-4.14,279.09-3c-8.84.08-15.14,11.3-12.62,22.52l7.42,33.07c1.69,7.54,7,12.71,12.9,12.66l129.58-1c5.94,0,11.13-5.3,12.7-12.87L436,18.16C438.28,6.91,431.8-4.21,423-4.14Z"/><path class="cls-13" d="M279.1-1.72,423-2.88c8.84-.07,15.32,11.05,13,22.3l-1.6,7.7a11.84,11.84,0,0,1-3.81.69L270.43,29.1a10.69,10.69,0,0,1-2.13-.19l-1.82-8.11C264,9.58,270.26-1.64,279.1-1.72Z"/><path class="cls-14" d="M273,26l156.59-1.26A14.5,14.5,0,0,0,443.34,6.11l-8-27.23a14.48,14.48,0,0,0-14-10.4l-141,1.14a14.49,14.49,0,0,0-13.85,10.63L258.88,7.61A14.49,14.49,0,0,0,273,26Z"/><path class="cls-12" d="M272.94,23.33l156.59-1.27A14.49,14.49,0,0,0,443.32,3.48l-8-27.23a14.46,14.46,0,0,0-14-10.4L280.27-33a14.49,14.49,0,0,0-13.85,10.63L258.86,5A14.5,14.5,0,0,0,272.94,23.33Z"/><path class="cls-13" d="M282.54,16.25l137.29-1.11c8.44-.07,14.47-7.33,12.1-14.57l-7-21.34c-1.59-4.87-6.61-8.19-12.28-8.14L289-27.91c-5.67,0-10.63,3.45-12.15,8.34L270.2,1.88C268,9.16,274.1,16.32,282.54,16.25Z"/><path class="cls-15" d="M416.68-25.63a5.39,5.39,0,0,1,1.24,2.72,6.15,6.15,0,0,1,.29,2.45c-.15,1.58-.28,3.16-.47,4.74-.35,3.15-.43,6.16-1,9.27s-1.46,5.57-2.29,8.63c-.41,1.54-.86,3.06-1.32,4.59a10.89,10.89,0,0,1-1.37,2.94,4.39,4.39,0,0,1-1.95,1.72,9.42,9.42,0,0,1-.3-2.47,14,14,0,0,1,.22-2.34c.26-1.54.49-3.09.72-4.64.45-3.12.89-6.22,1.34-9.33s1.4-5.82,2-8.91l.86-4.62a7.69,7.69,0,0,1,.78-2.26C415.79-23.88,415.85-24.93,416.68-25.63Z"/><path class="cls-15" d="M284.69-24.58A5,5,0,0,1,286-23.29c.3.43.5.85.77,1.21a5.12,5.12,0,0,1,1,2.25l.78,4.6c.53,3.07,1.42,5.91,1.79,9s.21,5.63.43,8.73c.13,1.54.23,3.09.4,4.61a10.66,10.66,0,0,1-.14,3.12c-.11.41-.17.77-.32,1.18s-.29.8-.57,1.54a4.64,4.64,0,0,1-1.25-1,8.13,8.13,0,0,1-.83-1.1,9.46,9.46,0,0,1-1-2.3c-.44-1.56-.83-3.11-1.21-4.66-.77-3.1-1.34-6.21-1.93-9.33s-.27-6-.51-9.17c-.12-1.57-.19-3.16-.26-4.75a6.1,6.1,0,0,1,.4-2.42,10.85,10.85,0,0,0,.35-1.39A2.56,2.56,0,0,1,284.69-24.58Z"/><path class="cls-16" d="M427.22,32.91c.95,1.64.74,3.43.84,4.94a12.84,12.84,0,0,1-.5,4.39,71,71,0,0,1-2.94,8.28,19.76,19.76,0,0,1-2.42,4.22,14.36,14.36,0,0,1-3.86,3.37,22.34,22.34,0,0,1-9,2.83c-5.91.6-10.59.16-16.28-.14l-8.5-.5a28.11,28.11,0,0,1-5.62-.9,9.89,9.89,0,0,1-3.91-1.85,18.35,18.35,0,0,1,4.25-1.17,30.66,30.66,0,0,1,4.25-.39l8.49-.27a145.61,145.61,0,0,0,16.54-1.19,26.08,26.08,0,0,0,6.85-1.64,8.57,8.57,0,0,0,2.51-1.66,10.61,10.61,0,0,0,1.94-2.8,75,75,0,0,0,3.22-7.49,23.3,23.3,0,0,1,1.77-3.76C425.61,36,426,34.08,427.22,32.91Z"/><path class="cls-16" d="M293.22,31.9A4.33,4.33,0,0,1,292.07,34a2,2,0,0,1-1.15.86c-.78.15-1.57.33-2.36.44a25.77,25.77,0,0,1-4.66.78,27.59,27.59,0,0,1-4.44-.92c-.79-.16-1.57-.37-2.35-.56a3,3,0,0,1-1.5-.94,4,4,0,0,1-.95-1.89,3.76,3.76,0,0,1,1.25-1.12,2.72,2.72,0,0,1,1.17-.36l2.31-.22c1.53-.18,3.05-.28,4.57-.45s2.89.46,4.42.51c.76,0,1.53.07,2.29.1a1.9,1.9,0,0,1,1.17.52C292.25,31.06,292.77,31,293.22,31.9Z"/><polygon class="cls-16" points="376.36 22.46 403.12 22.24 415.25 15.23 388.5 15.44 376.36 22.46"/><polygon class="cls-16" points="340.58 22.75 352.76 22.65 364.89 15.63 352.72 15.73 340.58 22.75"/><polygon class="cls-16" points="314.56 22.96 333.43 22.81 345.56 15.79 326.69 15.94 314.56 22.96"/><path class="cls-16" d="M309.16,61.44c0-1.59.84-2.47,1.31-3.45a7.12,7.12,0,0,1,1.8-2.37l4.33-3.78c2.88-2.52,5.34-5.19,8.32-7.58s5.68-4,8.77-6.23l4.63-3.41a13.94,13.94,0,0,1,3.42-1.88,6.24,6.24,0,0,1,3.21-.4,9.85,9.85,0,0,1-1.36,2.82,15.05,15.05,0,0,1-1.89,2.23l-4.17,4c-2.77,2.7-5.65,5.27-8.53,7.86s-6,4.25-9.12,6.55c-1.54,1.16-3.12,2.27-4.69,3.4a8.86,8.86,0,0,1-2.66,1.28C311.54,60.78,310.51,61.64,309.16,61.44Z"/><path class="cls-16" d="M323.37,30.39c.14,1.6-.62,2.61-1,3.66a7.9,7.9,0,0,1-1.67,2.62c-1.41,1.44-2.81,2.89-4.25,4.3-2.87,2.82-5.37,5.71-8.48,8.28s-6,4.22-9.28,6.5c-1.66,1.15-3.34,2.26-5,3.37A14.19,14.19,0,0,1,290,60.87a6.27,6.27,0,0,1-3.32.21,10.57,10.57,0,0,1,1.67-2.76,15.9,15.9,0,0,1,2.11-2.15l4.49-3.93c3-2.66,6-5.26,8.89-8s6.05-4.53,9.09-7.1l4.55-3.85A9.69,9.69,0,0,1,320,31.75C321,31.36,322,30.36,323.37,30.39Z"/><path class="cls-12" d="M426.24,234.33,282.36,235.5c-8.84.07-15.13,11.3-12.61,22.51l7.41,33.07c1.7,7.55,7,12.71,12.91,12.67l129.57-1.05c5.95-.05,11.13-5.3,12.7-12.87l6.88-33.2C441.56,245.38,435.08,234.26,426.24,234.33Z"/><path class="cls-13" d="M282.38,236.76l143.87-1.17c8.84-.07,15.32,11,13,22.3l-1.59,7.7a11.58,11.58,0,0,1-3.81.69l-160.13,1.3a12.38,12.38,0,0,1-2.12-.19l-1.82-8.12C267.24,248.06,273.53,236.83,282.38,236.76Z"/><path class="cls-14" d="M276.24,264.43l156.59-1.27a14.49,14.49,0,0,0,13.78-18.58l-8-27.23a14.49,14.49,0,0,0-14-10.4l-141,1.14a14.49,14.49,0,0,0-13.85,10.63l-7.56,27.36A14.5,14.5,0,0,0,276.24,264.43Z"/><path class="cls-12" d="M276.22,261.8l156.59-1.27A14.48,14.48,0,0,0,446.59,242l-8-27.24a14.5,14.5,0,0,0-14-10.4l-141,1.14a14.5,14.5,0,0,0-13.85,10.63l-7.56,27.36A14.49,14.49,0,0,0,276.22,261.8Z"/><path class="cls-13" d="M285.81,254.73l137.3-1.12c8.43-.06,14.47-7.33,12.09-14.56l-7-21.35c-1.6-4.86-6.61-8.19-12.28-8.14l-123.65,1c-5.68.05-10.64,3.45-12.15,8.34l-6.65,21.46C271.22,247.63,277.37,254.8,285.81,254.73Z"/><path class="cls-15" d="M420,212.84a5.45,5.45,0,0,1,1.23,2.72,6,6,0,0,1,.29,2.45c-.14,1.58-.27,3.17-.46,4.74-.35,3.15-.43,6.16-1,9.28s-1.46,5.56-2.3,8.62c-.41,1.54-.86,3.07-1.31,4.6a10.71,10.71,0,0,1-1.38,2.93,4.41,4.41,0,0,1-1.95,1.73,10,10,0,0,1-.29-2.48,14,14,0,0,1,.21-2.34c.26-1.54.5-3.09.73-4.64.44-3.12.89-6.22,1.34-9.33s1.4-5.82,2-8.91l.87-4.62a7.63,7.63,0,0,1,.78-2.25C419.07,214.6,419.13,213.54,420,212.84Z"/><path class="cls-15" d="M288,213.89a5.32,5.32,0,0,1,1.28,1.29c.29.43.49.85.76,1.21a5.2,5.2,0,0,1,1,2.25l.78,4.6c.53,3.07,1.42,5.91,1.78,9s.21,5.64.44,8.73c.13,1.54.22,3.09.39,4.61a10.65,10.65,0,0,1-.13,3.12c-.11.41-.18.78-.32,1.19s-.3.79-.58,1.53a4.8,4.8,0,0,1-1.25-1,9.7,9.7,0,0,1-.82-1.09,9.31,9.31,0,0,1-1-2.31c-.44-1.55-.84-3.11-1.22-4.66-.76-3.1-1.34-6.21-1.93-9.32s-.26-6-.5-9.18c-.13-1.57-.19-3.15-.27-4.74a6.13,6.13,0,0,1,.41-2.43,12.82,12.82,0,0,0,.35-1.39A2.56,2.56,0,0,1,288,213.89Z"/><path class="cls-16" d="M430.5,271.39c.95,1.63.73,3.42.84,4.94a13,13,0,0,1-.51,4.38,67.52,67.52,0,0,1-2.94,8.28,19.29,19.29,0,0,1-2.41,4.22,14.08,14.08,0,0,1-3.87,3.37,22.48,22.48,0,0,1-9,2.84c-5.91.59-10.6.15-16.29-.14l-8.49-.51a28.11,28.11,0,0,1-5.62-.9,10,10,0,0,1-3.92-1.85,18.8,18.8,0,0,1,4.26-1.17,30.52,30.52,0,0,1,4.25-.39l8.48-.27A146,146,0,0,0,411.86,293a26.18,26.18,0,0,0,6.85-1.64,8.38,8.38,0,0,0,2.51-1.66,10.67,10.67,0,0,0,1.94-2.8,77.24,77.24,0,0,0,3.22-7.48,23,23,0,0,1,1.77-3.77C428.89,274.42,429.27,272.55,430.5,271.39Z"/><polygon class="cls-16" points="379.64 260.93 406.39 260.72 418.53 253.7 391.78 253.92 379.64 260.93"/><polygon class="cls-16" points="343.86 261.22 356.03 261.13 368.17 254.11 355.99 254.21 343.86 261.22"/><polygon class="cls-16" points="317.83 261.43 336.7 261.28 348.84 254.26 329.97 254.42 317.83 261.43"/><path class="cls-17" d="M397.19,233.5a59.71,59.71,0,0,0-51,51.34,47.19,47.19,0,0,0-66.62-3.16,61.37,61.37,0,0,0-97.53-3,96,96,0,1,0,4,82,61.39,61.39,0,0,0,94.2-8.5,47.18,47.18,0,0,0,76.88-24.32,59.71,59.71,0,1,0,40-94.33Z"/><path class="cls-18" d="M372.58,272.35a7.56,7.56,0,0,1-2.31-1.16,6.18,6.18,0,0,1-1.37-1.5,18.44,18.44,0,0,1-1.4-3.32,7.8,7.8,0,0,1,.26-6.23,34.68,34.68,0,0,1,6.61-9.06,75.81,75.81,0,0,1,7.82-7,31.31,31.31,0,0,1,9.33-5,33.63,33.63,0,0,1,10.21-1.31,51,51,0,0,1,10.36,1.41,32.84,32.84,0,0,1,10.39,4.28,12.4,12.4,0,0,1,2.86,2.57,14.91,14.91,0,0,1,1.2,1.81,7.5,7.5,0,0,1,.62,1.79,11.54,11.54,0,0,1,.27,3.06,8.3,8.3,0,0,1-1.53,3.79c-2.33,0-3.76-.14-5.09-.24-.33,0-.62-.08-.91-.12a6.85,6.85,0,0,1-.85-.14,11.55,11.55,0,0,1-1.51-.46,20.42,20.42,0,0,0-6.43-1,32,32,0,0,0-6.8.81,34.41,34.41,0,0,0-6.69,2.29c-2.2.91-4.4,1.49-6.63,2.24a22.82,22.82,0,0,0-6.45,3.1,25,25,0,0,0-4.79,4.48,6.36,6.36,0,0,1-2.84,1.84,5.12,5.12,0,0,0-1.62,1.32,5.49,5.49,0,0,1-1,.83A10.62,10.62,0,0,1,372.58,272.35Z"/><path class="cls-18" d="M288.72,292.66l-.09,0-.32.12a2.59,2.59,0,0,1-.6.1,1.79,1.79,0,0,1-1.06-.31,2.53,2.53,0,0,1-1-1.77,10.1,10.1,0,0,1,.44-3.54,6.05,6.05,0,0,1,.58-1.54l.2-.35.11-.17.05-.13c.07-.17.15-.33.23-.49a4,4,0,0,1,1.22-1.43,60.1,60.1,0,0,1,6.06-3.87c2.13-1.18,4.22-2.51,6.5-3.62a21.76,21.76,0,0,1,7.41-2.31,24.2,24.2,0,0,1,7.7.71,53,53,0,0,1,7.32,2.53,32.52,32.52,0,0,1,7.1,4,8.09,8.09,0,0,1,3,4.86,12.35,12.35,0,0,1,.08,2.57,10.43,10.43,0,0,1-1.28,3.62,22.31,22.31,0,0,1-4.44,1,6.61,6.61,0,0,1-2.75-.2,21,21,0,0,0-4.8-.81,36,36,0,0,0-4.88.16,27,27,0,0,0-4.79.94,24,24,0,0,1-5,.35,18.89,18.89,0,0,0-5.4.69c-1.81.6-3.69,1.16-5.56,1.89a3.79,3.79,0,0,1-1.57.23l-.44,0c-.15,0-.35,0-.36-.14s-.29-.35-.48-.56l-.55-.54a8.34,8.34,0,0,0-1.67-1.41,3.09,3.09,0,0,0-1.18-.5C288.38,292.75,288.51,292.79,288.72,292.66Z"/><path class="cls-18" d="M92.92,252.63H92.8l-.28,0a2.93,2.93,0,0,1-.86-.31A2.23,2.23,0,0,1,90.6,251,3.89,3.89,0,0,1,91,248a9.17,9.17,0,0,1,1.67-2.19c.61-.62,1.24-1.17,1.86-1.77a9.4,9.4,0,0,1,2-1.44,4.14,4.14,0,0,0,.49-.27l.36-.25c.23-.16.47-.31.7-.44a6,6,0,0,1,2.75-.82,98.5,98.5,0,0,1,11-.06c3.72.21,7.48.18,11.3.54a34.86,34.86,0,0,1,11.41,2.78,38.48,38.48,0,0,1,9.49,6.72,89.8,89.8,0,0,1,7.82,8.69,53,53,0,0,1,6.68,10.41,9.67,9.67,0,0,1,.68,1.77,12.81,12.81,0,0,1,.47,2.3,10.08,10.08,0,0,1-.42,4.67,18.7,18.7,0,0,1-1.66,3.53,14.93,14.93,0,0,1-4.21,3.94c-1.6-.3-2.82-.6-3.9-.91s-1.91-.64-2.75-.95a11.85,11.85,0,0,1-2-1.06,6.46,6.46,0,0,1-.8-.61,7.54,7.54,0,0,1-.72-.65,36.41,36.41,0,0,0-6.06-4.79,66.61,66.61,0,0,0-6.94-3.66,48.64,48.64,0,0,0-7.42-2.64,41,41,0,0,1-7.15-3.55,31.7,31.7,0,0,0-7.85-3.48c-2.91-.69-5.88-1.5-8.95-2.09a6.3,6.3,0,0,1-2.25-1,8.26,8.26,0,0,1-1.11-.9,9.16,9.16,0,0,0-.25-1.1c-.11-.42-.25-.71-.33-1a.7.7,0,0,1-.06-.19,9.6,9.6,0,0,0-.22-.95,9.1,9.1,0,0,0-.27-1c-.11-.31-.18-.58-.31-.86a5.38,5.38,0,0,0-1.3-2.09C92.37,252.46,92.47,252.65,92.92,252.63Z"/></g><path class="cls-16" d="M388,98.83a5.68,5.68,0,0,1,1.53,2.92,7.11,7.11,0,0,1,.31,3,20,20,0,0,1-.55,3c-.26,1-.6,1.89-.85,2.72a7.1,7.1,0,0,0-.4,2.26,4.24,4.24,0,0,0,.46,1.84,5,5,0,0,0,2.74,2.47,3,3,0,0,0,.78.21,1.35,1.35,0,0,0,.5,0,2.08,2.08,0,0,0,1.06-.74,11.17,11.17,0,0,0,1.55-4.2,18.25,18.25,0,0,0,.57-5.12,23.06,23.06,0,0,0-.47-3.32c-.17-.9-.44-1.49-.67-2.69a5.38,5.38,0,0,1,2.48,2,7.88,7.88,0,0,1,1.27,2.91,17.93,17.93,0,0,1,.13,6.1c-.12,1-.26,1.89-.44,2.87a10.52,10.52,0,0,1-1.05,3.17,6.14,6.14,0,0,1-2.95,2.74,5.23,5.23,0,0,1-2.21.37,6.82,6.82,0,0,1-1.92-.36A8.09,8.09,0,0,1,385,116a8.26,8.26,0,0,1-.48-3.43,11.94,11.94,0,0,1,.76-3.14c.34-.94.71-1.78,1-2.57a15.85,15.85,0,0,0,.63-2.46c.15-.84.34-1.67.57-2.54S387.53,99.82,388,98.83Z"/><path class="cls-16" d="M390.38,109.09a1.06,1.06,0,0,1,1.3.43,1,1,0,0,1,.27.91c-.1.34-.21.71-.3,1s.27.72.27,1-.25.54-.18,1a2.14,2.14,0,0,0,.19.61,1.68,1.68,0,0,1,.08.7,9.75,9.75,0,0,1-.09,1.23,1.55,1.55,0,0,1-.87.45,1.2,1.2,0,0,1-.72-.14,4.86,4.86,0,0,1-1.14-.84,4.79,4.79,0,0,1-1.38-2.66,4.35,4.35,0,0,1,.88-2.75c.19-.3.35-.47.53-.71s.15,0,.39,0A1.06,1.06,0,0,0,390.38,109.09Z"/><path class="cls-16" d="M110.45,199.8a3,3,0,0,0-1.44,1.84c-.08.34-.15.64-.21.93a7.27,7.27,0,0,1-.33,1,18,18,0,0,0-.7,1.9,11.4,11.4,0,0,0-.45,1.84,2.75,2.75,0,0,0,.13,1.4,3.35,3.35,0,0,0,.73,1.15,5.6,5.6,0,0,0,2.55,1.44,9.06,9.06,0,0,0,3,.43,3.57,3.57,0,0,0,2.34-1.38,7.68,7.68,0,0,0,1.43-3.31c.13-.62.38-1.94.53-2.56a4.69,4.69,0,0,0,0-2.18,2.12,2.12,0,0,1,1.25.78,4,4,0,0,1,.68,1.24,7.07,7.07,0,0,1,.32,2.45,11.32,11.32,0,0,1-1.19,4.85,7.32,7.32,0,0,1-4.18,3.67,8.2,8.2,0,0,1-2.78.33,12.14,12.14,0,0,1-2.58-.36,7.76,7.76,0,0,1-4.4-3.05,7.24,7.24,0,0,1-1.12-2.55,7,7,0,0,1,0-2.85,12.27,12.27,0,0,1,.74-2.35c.29-.72.62-1.43,1-2.11a6.8,6.8,0,0,1,.63-1,4.61,4.61,0,0,1,1-1,5.7,5.7,0,0,1,1.4-.86A1.55,1.55,0,0,1,110.45,199.8Z"/><path class="cls-16" d="M111.38,203.26c-.33.3-.3.65-.23.72a1.07,1.07,0,0,0,.36.33,2.08,2.08,0,0,0,.32.17l.09,0h-.14l.21,0h0v0l0,.12,0,.24c0,.16.05.32.07.48a5.63,5.63,0,0,0,.23.9.33.33,0,0,0,.19,0h0a.4.4,0,0,0-.15.5.72.72,0,0,0,.11.15,1.26,1.26,0,0,0,.33.13,1.65,1.65,0,0,1,.62.46,3.49,3.49,0,0,1,.65,1.06,1.83,1.83,0,0,1-.36.85,1,1,0,0,1-.54.36,4.14,4.14,0,0,1-.65.14,4,4,0,0,1-.86,0,3.64,3.64,0,0,1-3-1.91h0a2.91,2.91,0,0,1-.15-1.84c.1-.41.23-.67.28-1s.12-.63.2-1.08a1.26,1.26,0,0,1,.68-.88,3.85,3.85,0,0,1,.75-.4C110.83,202.71,111.35,202.89,111.38,203.26Z"/><path class="cls-16" d="M166.15,81.55a17.21,17.21,0,0,1,1.33,4.74,24.33,24.33,0,0,1,.57,4.39q.16,4.39.34,8.79c.11,2.92.25,5.82.41,8.58a15.87,15.87,0,0,0,.62,3.72c.05.14.09.28.14.4s0,0,0,0h0l0,0h0l0-.09c0-.14.06-.29.09-.43a15.4,15.4,0,0,0,.26-3.55,57.09,57.09,0,0,0-1-7.94,52.06,52.06,0,0,1-.78-9,25.23,25.23,0,0,1,.69-5.93,10.87,10.87,0,0,1,1.65-3.91c.15,1.49.2,2.94.25,4.38s.09,2.88.13,4.29a49,49,0,0,0,1,8.46,88.68,88.68,0,0,1,1.76,8.79,19.77,19.77,0,0,1,0,4.86c0,.21-.05.41-.09.62l-.19.87a11.32,11.32,0,0,1-.72,1.93,3.38,3.38,0,0,1-1.07,1.43,3,3,0,0,1-4.45-.73,8.25,8.25,0,0,1-1.06-1.73,7.59,7.59,0,0,1-.4-1c-.08-.21-.14-.41-.2-.62a17.67,17.67,0,0,1-.54-4.66c0-2.89.11-5.61.1-8.57V90.93a31.14,31.14,0,0,1,.31-4.41C165.63,85.06,165.55,83,166.15,81.55Z"/><path class="cls-16" d="M139.56,29.78a7.73,7.73,0,0,1,1.18,3,9.59,9.59,0,0,1,.44,2.77l.09,5.51.06,2.72a9.2,9.2,0,0,0,.24,2.25,1.8,1.8,0,0,0,.69,1c.11.06.16.05.19,0a.51.51,0,0,0,.26-.07,1.61,1.61,0,0,0,.75-.71,3.15,3.15,0,0,0,.23-1.52,16.81,16.81,0,0,0-1.39-4.5,12.28,12.28,0,0,1-.72-3c-.11-1-.12-2-.13-2.89a17.56,17.56,0,0,1,.31-3.67,6.41,6.41,0,0,1,1-2.62,12.21,12.21,0,0,1,.94,2.7,19.43,19.43,0,0,1,.45,2.73,17.23,17.23,0,0,0,.93,4.94c.58,1.46,1.72,3.07,2.24,5.33a7.15,7.15,0,0,1-.08,3.72,5.43,5.43,0,0,1-2.79,3.23,4.35,4.35,0,0,1-4.65-.48,5.49,5.49,0,0,1-2-3.44,12.37,12.37,0,0,1,0-3.08c.06-.88.12-1.77.16-2.69l.26-5.5a11.77,11.77,0,0,1,.44-2.74C138.93,32,138.91,30.68,139.56,29.78Z"/><path class="cls-16" d="M48.05,175.56a15,15,0,0,1,.64,3.1,12.16,12.16,0,0,1,.32,2.66,24.21,24.21,0,0,0,.37,5,3.91,3.91,0,0,0,.94,1.68,6.1,6.1,0,0,0,1.63,1.2,8.48,8.48,0,0,0,1.95.73,2.34,2.34,0,0,0,1.42-.06,6.35,6.35,0,0,0,2.85-2.34,9.31,9.31,0,0,0,1.65-4,11.76,11.76,0,0,0-.25-4.82c-.18-.81-.68-2.41-.89-3.3a10.43,10.43,0,0,1-.45-2.72,7.65,7.65,0,0,1,2.23,1.92A10,10,0,0,1,62,177.22a15.18,15.18,0,0,1,1.16,5.93,13.21,13.21,0,0,1-1.54,6,11.86,11.86,0,0,1-1.93,2.63,8.32,8.32,0,0,1-3,2,6.1,6.1,0,0,1-3.84.09A11,11,0,0,1,50,192.51a9.66,9.66,0,0,1-2.35-2.18,7.89,7.89,0,0,1-1.45-3.1,12.6,12.6,0,0,1-.27-3.1c0-1,.07-1.84.11-2.78a10,10,0,0,1,.57-2.81C47,177.63,47.17,176.28,48.05,175.56Z"/><path class="cls-16" d="M51.36,181.18a3.37,3.37,0,0,1,1.2.75c.3.22.45.4.48.58a7.76,7.76,0,0,0,.25,1c.2.62.69.91.88,1.23a2.91,2.91,0,0,1,.16.5c.05.15,0,.26.09.39a.57.57,0,0,0,.4.22l.61.21a4.56,4.56,0,0,1,1.21.4,1.54,1.54,0,0,1,.09,1,1.72,1.72,0,0,1-.62.81,3.12,3.12,0,0,1-2,.6,4,4,0,0,1-2-.66A5.61,5.61,0,0,1,50.71,187a5.29,5.29,0,0,1-.7-3.12,8.24,8.24,0,0,1,.07-1.42,1,1,0,0,1,.41-.63C50.74,181.6,50.72,181.31,51.36,181.18Z"/><path class="cls-16" d="M261.42,217.32a10,10,0,0,1,0,2.3c.06.63.1,1.11.1,1.54a3.54,3.54,0,0,0,1,2.35c1.23,1.33,3,1.21,4.51.62a5.32,5.32,0,0,0,3.26-3.63,6.75,6.75,0,0,0,.07-3c-.08-.52-.33-1.57-.39-2.21a6.41,6.41,0,0,1-.05-2.05,4.32,4.32,0,0,1,1.78,1.18,5.6,5.6,0,0,1,1.13,1.79,9.76,9.76,0,0,1,.74,4.31,9,9,0,0,1-1.38,4.32,8.17,8.17,0,0,1-3.6,3.14,7.06,7.06,0,0,1-4.68.34,7.3,7.3,0,0,1-3.93-2.65,6.48,6.48,0,0,1-1.4-4.61,3.73,3.73,0,0,1,.93-2.17C260,218.28,260.53,217.44,261.42,217.32Z"/><path class="cls-16" d="M267,216.28a5.88,5.88,0,0,1,1.24.58c.31.14.48.27.53.43a7.24,7.24,0,0,1,.27,1.05,4,4,0,0,1-.3,3,4.05,4.05,0,0,1-2.52,1.55,4.27,4.27,0,0,1-1.46.1,1.22,1.22,0,0,1-.86-.55,1.8,1.8,0,0,1-.26-1.23c.24-.34.38-.54.5-.69a1,1,0,0,1,.29-.27,1.33,1.33,0,0,0,.44-.31,1.44,1.44,0,0,0,.36-.76c.05-.24.45-.23.51-.76,0-.24,0-.55.07-.91a.88.88,0,0,1,.35-.58C266.38,216.7,266.34,216.41,267,216.28Z"/><path class="cls-16" d="M392.21,172.1a19.5,19.5,0,0,1,1.5,5.06,26.24,26.24,0,0,1,.7,4.72c.19,3.17.36,6.34.43,9.52s.14,6.28.09,9.38c0,1.55-.08,3.11-.18,4.67s-.23,3.07-.21,4.48a10,10,0,0,0,.59,3.68,5.46,5.46,0,0,0,1.85,2.52,3.4,3.4,0,0,0,1.24.55,1.35,1.35,0,0,0,1-.12,3.44,3.44,0,0,0,1.1-1,5.13,5.13,0,0,0,.78-1.61,11.17,11.17,0,0,0,.31-4.13,39.72,39.72,0,0,0-.72-4.53c-.3-1.53-.89-4.57-1.08-6.15a19.79,19.79,0,0,1-.25-4.53,26.18,26.18,0,0,1,2.21,4.31,39.32,39.32,0,0,1,1.52,4.56c.41,1.56.81,3.08,1.12,4.73a17.48,17.48,0,0,1,.3,5.2,8.79,8.79,0,0,1-2.36,5.29A5.4,5.4,0,0,1,399,220.3a6.26,6.26,0,0,1-3.33-.6c-3.95-1.94-5.25-6.3-5.28-9.72a40,40,0,0,1,.29-4.83c.15-1.49.29-3,.41-4.45.23-3,.4-5.93.42-9.07s0-6.27-.07-9.42a35.91,35.91,0,0,1,.18-4.74C391.81,175.89,391.66,173.71,392.21,172.1Z"/><path class="cls-16" d="M398.86,206.59a10.26,10.26,0,0,1,1.14.71c.29.16.45.27.48.38s.15.46.23.68a4.91,4.91,0,0,1,.58,1.71,4.61,4.61,0,0,1-.82,2.11,4,4,0,0,1-.81,1,1.07,1.07,0,0,1-1,.24,1.54,1.54,0,0,1-1-.74,5.9,5.9,0,0,0-.21-.77,1,1,0,0,1-.1-.31,2,2,0,0,0,0-.41,5.48,5.48,0,0,0-.22-1c-.07-.43.23-1,.25-1.61a6.7,6.7,0,0,1,.11-1A.78.78,0,0,1,398,207C398.21,206.85,398.22,206.58,398.86,206.59Z"/><path class="cls-16" d="M271.79,57.46a12.32,12.32,0,0,0-1.67,2,16.9,16.9,0,0,0-.68,1.61,3.09,3.09,0,0,0,.45,2.88c1.24,1.83,3.69,2.19,6.19,2.2a7.79,7.79,0,0,0,3.11-.49,3.88,3.88,0,0,0,2-2.11,12.26,12.26,0,0,0,.87-3.87,8.69,8.69,0,0,0,0-2.39,3,3,0,0,0-.3-.88,3.92,3.92,0,0,0-.74-1,2.73,2.73,0,0,1,2.75,1,4.6,4.6,0,0,1,1,2.69,16.87,16.87,0,0,1,0,2.46,13,13,0,0,1-.36,2.5,8.91,8.91,0,0,1-1,2.55,7.2,7.2,0,0,1-2.05,2.14,10.06,10.06,0,0,1-5.27,1.57,11.47,11.47,0,0,1-4.95-1,8.93,8.93,0,0,1-4.06-3.57,6.58,6.58,0,0,1-.92-2.79,5.78,5.78,0,0,1,.52-3,4.13,4.13,0,0,1,2.07-2,6.71,6.71,0,0,1,1.47-.56A2.05,2.05,0,0,1,271.79,57.46Z"/><path class="cls-16" d="M277.71,58.29a2.63,2.63,0,0,1,1.32.44.9.9,0,0,1,.55.56,6.1,6.1,0,0,1,.18,1.33,6,6,0,0,1-.14,1.58,3,3,0,0,1-1,1.64,3.1,3.1,0,0,1-1.61.64,9.09,9.09,0,0,1-1.28,0,7.86,7.86,0,0,1-1.37-.14,1.4,1.4,0,0,1-.9-.68,1.33,1.33,0,0,1,0-1.27,4.08,4.08,0,0,0,.59-.57c.11-.14.18-.21.27-.23s.42-.16.69-.28c.62-.26,1.08-.53,1-.65s0,0,.18,0a.62.62,0,0,0,.33-.41,5,5,0,0,0,.14-.78.77.77,0,0,1,.34-.49C277.19,58.76,277.11,58.54,277.71,58.29Z"/><path class="cls-16" d="M346.73,231.85a9.1,9.1,0,0,1,1.27,3.24,11.64,11.64,0,0,1,.51,3c.07,2,.17,4,.23,6,.14,4,.49,7.76.48,11.76s-.34,7.23-.52,11.23c-.08,2-.18,4-.27,6a22.65,22.65,0,0,1-.54,4,7.51,7.51,0,0,1-1.16,2.78,14.43,14.43,0,0,1-.78-3,23.38,23.38,0,0,1-.27-3l-.22-6c-.17-4-.25-8-.37-12s.29-7.62.35-11.61c0-2,.07-4,.11-6a13.38,13.38,0,0,1,.37-3C346.16,234.23,346.11,232.85,346.73,231.85Z"/><path class="cls-16" d="M176.56,217.86a26.68,26.68,0,0,1,1.27,6,37.84,37.84,0,0,1,.51,5.59c.08,3.73.18,7.46.24,11.19.13,7.45.49,14.46.47,21.91s-.34,13.49-.51,21c-.08,3.73-.19,7.45-.28,11.18a74.25,74.25,0,0,1-.54,7.42,21.57,21.57,0,0,1-1.16,5.18,46.9,46.9,0,0,1-.77-5.59c-.16-1.87-.24-3.73-.28-5.59L175.29,285c-.16-7.46-.25-14.91-.37-22.37s.3-14.19.35-21.65c0-3.72.08-7.45.11-11.18a50.12,50.12,0,0,1,.37-5.59C176,222.31,175.94,219.73,176.56,217.86Z"/><path class="cls-16" d="M372.13,51.91a16.71,16.71,0,0,1,1.27,4.62,23.25,23.25,0,0,1,.51,4.28c.08,2.86.17,5.71.23,8.56.14,5.71.49,11.07.48,16.78s-.34,10.33-.52,16c-.08,2.85-.18,5.7-.27,8.56a45.3,45.3,0,0,1-.54,5.67,13.57,13.57,0,0,1-1.16,4,27.92,27.92,0,0,1-.78-4.28c-.16-1.43-.24-2.85-.27-4.28l-.22-8.56c-.16-5.71-.25-11.41-.37-17.12s.29-10.86.35-16.57c0-2.85.07-5.71.11-8.56a26.89,26.89,0,0,1,.37-4.28C371.56,55.31,371.51,53.34,372.13,51.91Z"/><path class="cls-16" d="M426.42,124.71a20.76,20.76,0,0,1,1.26,5.29,29,29,0,0,1,.52,4.89c.07,3.27.17,6.53.23,9.8.13,6.53.49,12.66.48,19.19s-.34,11.82-.52,18.35c-.08,3.26-.18,6.53-.27,9.79a59.13,59.13,0,0,1-.54,6.5,17.24,17.24,0,0,1-1.16,4.54,36.17,36.17,0,0,1-.78-4.9c-.16-1.63-.24-3.26-.27-4.9l-.22-9.79c-.17-6.53-.25-13.06-.37-19.59s.29-12.43.35-19c0-3.26.07-6.53.11-9.79a35.25,35.25,0,0,1,.37-4.9C425.85,128.6,425.8,126.34,426.42,124.71Z"/><path class="cls-16" d="M442.46,161.72a12.77,12.77,0,0,1,1.27,4,17.07,17.07,0,0,1,.51,3.66c.07,2.45.17,4.89.23,7.33.13,4.88.49,9.47.48,14.36s-.34,8.84-.52,13.72c-.08,2.44-.18,4.89-.27,7.33a33.46,33.46,0,0,1-.54,4.86,10.35,10.35,0,0,1-1.16,3.39,20.79,20.79,0,0,1-.78-3.66,34.65,34.65,0,0,1-.27-3.66l-.22-7.33c-.17-4.88-.25-9.77-.37-14.65s.29-9.3.35-14.18c0-2.45.07-4.89.11-7.33a19.75,19.75,0,0,1,.37-3.66C441.89,164.64,441.84,163,442.46,161.72Z"/><path class="cls-16" d="M83.41,42.66a18.91,18.91,0,0,1,1.26,5,26.39,26.39,0,0,1,.52,4.66c.07,3.11.17,6.22.23,9.33.14,6.22.49,12.07.48,18.29s-.34,11.26-.52,17.48c-.08,3.11-.18,6.22-.27,9.33a53.68,53.68,0,0,1-.54,6.19,15.83,15.83,0,0,1-1.16,4.33,33.22,33.22,0,0,1-.78-4.67c-.16-1.55-.24-3.11-.27-4.67l-.22-9.33C82,92.42,81.89,86.2,81.77,80s.29-11.84.35-18.06c0-3.11.07-6.22.11-9.33a32,32,0,0,1,.37-4.67C82.84,46.37,82.79,44.21,83.41,42.66Z"/><path class="cls-16" d="M92.66,100.65a3.88,3.88,0,0,1,1.27,1.71,3.46,3.46,0,0,1,.51,1.58c.08,1,.17,2.11.23,3.16.14,2.11.5,4.09.48,6.2s-.34,3.81-.52,5.92c-.07,1-.18,2.11-.27,3.16a6.52,6.52,0,0,1-.54,2.1,3.32,3.32,0,0,1-1.16,1.46,4.91,4.91,0,0,1-.77-1.58,6.73,6.73,0,0,1-.28-1.58l-.22-3.16c-.16-2.11-.25-4.22-.37-6.32s.29-4,.35-6.13c0-1,.07-2.1.11-3.16a4.38,4.38,0,0,1,.37-1.58C92.09,101.91,92,101.18,92.66,100.65Z"/><path class="cls-16" d="M62.42,199.35a4.38,4.38,0,0,1,1.23,1.93,4.5,4.5,0,0,1,.51,1.77c.08,1.18.16,2.36.25,3.53.17,2.35.59,4.54.69,6.88s-.1,4.26-.09,6.62c0,1.17,0,2.36,0,3.54a8.23,8.23,0,0,1-.3,2.38,3.75,3.75,0,0,1-1,1.77,6.14,6.14,0,0,1-1-1.68,9.22,9.22,0,0,1-.46-1.75l-.54-3.55c-.36-2.36-.61-4.74-.84-7.13s.11-4.56.12-6.95c0-1.19,0-2.38.09-3.58a5.41,5.41,0,0,1,.38-1.78C61.82,200.75,61.79,199.93,62.42,199.35Z"/><path class="cls-16" d="M237.64,106.82a18.9,18.9,0,0,1,1.27,5,26.54,26.54,0,0,1,.51,4.59c.08,3.06.17,6.12.23,9.18.14,6.12.49,11.87.48,18s-.34,11.07-.52,17.19c-.08,3.05-.18,6.11-.27,9.17a52.16,52.16,0,0,1-.54,6.09,15.31,15.31,0,0,1-1.16,4.25,31.91,31.91,0,0,1-.78-4.59c-.16-1.53-.24-3.06-.27-4.58l-.22-9.18c-.16-6.12-.25-12.24-.37-18.35s.29-11.65.35-17.77c0-3.06.07-6.12.11-9.18a32.27,32.27,0,0,1,.37-4.59C237.07,110.47,237,108.35,237.64,106.82Z"/><path class="cls-16" d="M246.27,171.6a4.34,4.34,0,0,1,1.27,1.91,4.42,4.42,0,0,1,.52,1.77c.07,1.19.17,2.37.23,3.55.13,2.37.49,4.59.47,6.95s-.34,4.28-.51,6.65c-.08,1.18-.19,2.36-.28,3.55a8,8,0,0,1-.53,2.35,3.73,3.73,0,0,1-1.17,1.64,5.92,5.92,0,0,1-.77-1.77,8.34,8.34,0,0,1-.27-1.77l-.22-3.55c-.17-2.37-.25-4.73-.37-7.1s.29-4.5.34-6.86c0-1.19.08-2.37.11-3.55a5.34,5.34,0,0,1,.37-1.77C245.71,173,245.66,172.19,246.27,171.6Z"/><path class="cls-16" d="M237.64,26.62a4.61,4.61,0,0,1,1.27,2,4.71,4.71,0,0,1,.51,1.85c.08,1.23.17,2.47.23,3.7.14,2.47.49,4.79.48,7.25s-.34,4.47-.52,6.94c-.08,1.23-.18,2.47-.27,3.7a9.06,9.06,0,0,1-.54,2.46,4,4,0,0,1-1.16,1.71,6.37,6.37,0,0,1-.78-1.85,9.08,9.08,0,0,1-.27-1.85l-.22-3.7c-.16-2.47-.25-4.94-.37-7.41s.29-4.69.35-7.16c0-1.24.07-2.47.11-3.7a5.49,5.49,0,0,1,.37-1.85C237.07,28.09,237,27.23,237.64,26.62Z"/><polygon class="cls-19" points="120.22 342.06 8.15 342.06 105.79 23.69 217.85 23.69 120.22 342.06"/><polygon class="cls-19" points="502.6 342.06 390.54 342.06 488.17 23.69 600.24 23.69 502.6 342.06"/><polygon class="cls-19" points="251.28 342.06 228.1 342.06 325.73 23.69 348.92 23.69 251.28 342.06"/><polygon class="cls-19" points="288.64 342.06 265.45 342.06 363.09 23.69 386.27 23.69 288.64 342.06"/><path class="cls-3" d="M-24.18-11.53V443.62H543.37V-11.53Zm496.4,183.34a142,142,0,0,1-142,142H168.78a142,142,0,0,1-142-142h0a142,142,0,0,1,142-142H330.25a142,142,0,0,1,142,142Z"/><rect class="cls-5" x="-0.12" y="333.41" width="499.27" height="6.29"/><rect class="cls-5" x="128.81" y="353.85" width="241.41" height="35.87" rx="17.94"/><path class="cls-20" d="M167.86,379.1l-.16-.38a22.69,22.69,0,0,0-3.8-6.05l-1.08-1.23.77-.78a22.54,22.54,0,0,0,4.27-6.06h0a24.58,24.58,0,0,0,4.48,6.27l.56.57-.86,1a24.79,24.79,0,0,0-4,6.26Z"/><path class="cls-20" d="M331.17,379.1l-.16-.38a22.44,22.44,0,0,0-3.8-6.05l-1.08-1.23.78-.78a22.73,22.73,0,0,0,4.26-6.06h0a24.83,24.83,0,0,0,4.48,6.27l.56.57-.86,1a24.76,24.76,0,0,0-4,6.26Z"/><path class="cls-16" d="M183.71,365.59a29.94,29.94,0,0,1,3.79,0c.06.62.06,11.3,0,11.92-.57,0-1.81,0-2.4,0,0-1,0-8.48,0-9.49a10.74,10.74,0,0,1-1.39,0A16.43,16.43,0,0,1,183.71,365.59Zm4.35,0a29.76,29.76,0,0,1,3.78,0c.07.62.07,11.3,0,11.92a23.81,23.81,0,0,1-2.39,0c0-1,0-8.48,0-9.49a10.73,10.73,0,0,1-1.39,0C188,367.58,188,366,188.06,365.59Zm4.87-.32a11,11,0,0,1,2.43,0c0,.3,0,2.27,0,4.56h1c0-2.32,0-4.32,0-4.62a11.42,11.42,0,0,1,2.48,0c.09.76.09,12.05,0,12.79a9.34,9.34,0,0,1-2.48,0c0-.34,0-3,0-5.83h-1c0,2.72,0,5.29,0,5.64a11,11,0,0,1-2.43,0C192.87,377.05,192.87,366,192.93,365.27Z"/><path class="cls-16" d="M203.5,373.49a16.83,16.83,0,0,1,2.84,0c1.3,1.09,3.14,2.73,3.61,3.16a7,7,0,0,1-1.75,1.93,39.08,39.08,0,0,1-3.28-2.95,36.17,36.17,0,0,1-3.28,2.95,7,7,0,0,1-1.75-1.93C200.36,376.22,202.2,374.58,203.5,373.49Zm-3.5-3c.77,0,8.93,0,9.86,0a14.08,14.08,0,0,1,0,2.43c-.93,0-9.09,0-9.86,0A12.33,12.33,0,0,1,200,370.48Zm.43-5.09a39.06,39.06,0,0,1,4,0c.05.65.05,3.54,0,4.49a17.66,17.66,0,0,1-2.52,0V367.6a13,13,0,0,1-1.53,0A13.57,13.57,0,0,1,200.43,365.39Zm4.67,0a41.83,41.83,0,0,1,4.19,0c.06.65.06,3.54,0,4.49a17.66,17.66,0,0,1-2.52,0V367.6a15.43,15.43,0,0,1-1.67,0A20.34,20.34,0,0,1,205.1,365.39Z"/><path class="cls-16" d="M210.68,366.13c.36,0,1.78,0,3.4,0,0-.4,0-.82,0-1.21a15,15,0,0,1,2.68,0c0,.39,0,.81,0,1.21,1.5,0,2.78,0,3.14,0a9.65,9.65,0,0,1,0,2.28c-1,0-8.41,0-9.3,0A7.92,7.92,0,0,1,210.68,366.13Zm4.79,2.69c2.87,0,4.62,1.66,4.62,4.46s-1.75,4.45-4.62,4.45-4.63-1.66-4.63-4.45S212.6,368.82,215.47,368.82Zm0,6.75a2.3,2.3,0,1,0-2.18-2.29A2.06,2.06,0,0,0,215.47,375.57Zm5.18-10.36a11.61,11.61,0,0,1,2.5,0c0,.32.08,2.43.08,4.85a13,13,0,0,1,1.3.06,13.4,13.4,0,0,1,0,2.37c-.26,0-.77.05-1.3.05,0,2.67,0,5.13-.08,5.46a9.49,9.49,0,0,1-2.5,0C220.56,377.26,220.56,366,220.65,365.21Z"/><path class="cls-16" d="M224.89,365.59c.76-.08,4.14-.08,4.9,0,0,.24,0,2.08.06,4.24H231c0-2.29,0-4.26.05-4.56a11,11,0,0,1,2.43,0c.06.76.06,11.78,0,12.54a11,11,0,0,1-2.43,0c0-.35-.05-2.92-.05-5.64h-1.1c0,2.6,0,5.05-.06,5.34-.61,0-1.91,0-2.52,0,0-1,0-8.48,0-9.49-.63,0-1.7,0-2.38,0A16.42,16.42,0,0,1,224.89,365.59Zm9.43-.38a11.42,11.42,0,0,1,2.48,0c.09.76.09,12.05,0,12.79a9.35,9.35,0,0,1-2.48,0C234.27,377.26,234.27,366,234.32,365.21Z"/><path class="cls-16" d="M242.75,365.57a14.67,14.67,0,0,1,2.48,0c.58,2.12,2.53,10.62,2.62,11.3a8.77,8.77,0,0,1-2.43.53c-.13-.39-1.1-4.8-1.39-7.1-.36,2.15-1.39,6.83-1.54,7.24a8.4,8.4,0,0,1-2.42-.58C240.12,376.3,242.16,367.69,242.75,365.57Zm4.41,3.9c.35,0,.86,0,1.42,0,0-2.12,0-3.89,0-4.18a11.06,11.06,0,0,1,2.44,0c.06.76.06,11.78,0,12.54a11,11,0,0,1-2.44,0c0-.36,0-3.16,0-6-.56,0-1.07,0-1.42,0A11.05,11.05,0,0,1,247.16,369.47Zm4.71-4.26a11.42,11.42,0,0,1,2.48,0c.09.76.09,12.05,0,12.79a9.34,9.34,0,0,1-2.48,0C251.83,377.26,251.83,366,251.87,365.21Z"/><path class="cls-16" d="M257,368.41c-.71,0-1.25,0-1.45,0a11.76,11.76,0,0,1,0-2.22c.32,0,1.3-.06,2.47-.06,0-.48,0-1,0-1.33a16.62,16.62,0,0,1,2.64,0,12.87,12.87,0,0,1,.05,1.33c1.13,0,2.07,0,2.34.06a10.29,10.29,0,0,1,0,2.22c-.21,0-.72,0-1.37,0,.63,1.29,1.46,3,1.63,3.49a8,8,0,0,1-2.13,1.14,36.38,36.38,0,0,1-1.86-3.84,36.38,36.38,0,0,1-1.86,3.84,8,8,0,0,1-2.13-1.14C255.53,371.42,256.36,369.7,257,368.41Zm-1.05,5.2c.77-.08,11-.08,11.72,0,.07.63.07,3.94,0,4.56a22.55,22.55,0,0,1-2.6,0c0-.45,0-1.71,0-2.28-.69,0-8.44,0-9.12,0A17.33,17.33,0,0,1,255.94,373.61Zm7.55-5.65c.45,0,1.06,0,1.62,0,0-1.31,0-2.43.06-2.72a11.52,11.52,0,0,1,2.49,0c.1.76.1,7.12,0,7.87a17.21,17.21,0,0,1-2.49,0c0-.29-.05-1.48-.06-2.84-.56,0-1.17,0-1.62,0A12.06,12.06,0,0,1,263.49,368Z"/><path class="cls-16" d="M268.73,371c.77-.05,10-.05,10.92,0a11.23,11.23,0,0,1,0,2.17c-.39,0-2.19,0-4.23,0v.42c3,.18,4.13,1.07,4.13,2.48,0,1.58-1.41,2.5-5.37,2.5s-5.36-.92-5.36-2.5c0-1.39,1.07-2.27,4-2.47v-.43c-2,0-3.76,0-4.08,0A11.24,11.24,0,0,1,268.73,371ZM272,367.6c-1.39,0-2.52,0-2.87,0a11.14,11.14,0,0,1,0-2.31c1-.06,9.15-.06,10.11,0a12.73,12.73,0,0,1,0,2.31c-.32,0-1.47,0-2.87,0,1.17.33,2.52.72,3.08.93a7.14,7.14,0,0,1-.83,2.15c-1.11-.3-3.12-.92-4.45-1.42-1.31.5-3.32,1.12-4.42,1.42a6.89,6.89,0,0,1-.83-2.15C269.49,368.32,270.83,367.93,272,367.6Zm2.17,9c2.35,0,2.77-.2,2.77-.51s-.42-.52-2.77-.52-2.76.2-2.76.52S271.84,376.57,274.18,376.57Z"/><path class="cls-16" d="M284.81,365.15c2.76,0,4.38,1.28,4.38,3.28s-1.62,3.28-4.38,3.28-4.39-1.29-4.39-3.28S282,365.15,284.81,365.15Zm-3.74,7a17.52,17.52,0,0,1,2.51,0c0,.25,0,.62,0,1,1.48,0,4.95,0,6.4,0l0-1a17,17,0,0,1,2.47,0c.06.76.08,5,0,6-.72.07-10.56.09-11.42,0C281,376.9,281,372.91,281.07,372.14Zm3.74-2.59c1.32,0,1.91-.49,1.91-1.12s-.59-1.12-1.91-1.12-1.92.48-1.92,1.12S283.48,369.55,284.81,369.55ZM283.58,376c.33,0,6.1,0,6.44,0l0-.94c-1.45,0-4.92,0-6.4,0ZM290,365.21a11.52,11.52,0,0,1,2.49,0,60.94,60.94,0,0,1,0,6.34,14.75,14.75,0,0,1-2.49,0C289.93,370.81,289.93,366,290,365.21Z"/><path class="cls-16" d="M294,365.57c.6,0,1.93,0,2.57,0,0,1,0,8.43,0,9.43.69,0,2.29,0,3,0a20.19,20.19,0,0,1,0,2.46c-.77.06-4.79.06-5.54,0C293.88,376.83,293.88,366.19,294,365.57Zm6.34-.36a11.7,11.7,0,0,1,2.51,0c.09.76.09,12.05,0,12.79a9.57,9.57,0,0,1-2.51,0C300.21,377.26,300.21,366,300.3,365.21Z"/><path class="cls-16" d="M304.2,365.53c.73-.06,4.9-.06,5.92,0a15.34,15.34,0,0,1,0,2.35c-.69,0-2.81,0-3.31,0,0,.41,0,6.71,0,7.25.75,0,3.22,0,3.87,0a13.6,13.6,0,0,1,0,2.39c-.87.06-5.48.06-6.48,0C304.1,376.1,304.1,367,304.2,365.53Zm7.45-.32a11.7,11.7,0,0,1,2.51,0c0,.32.07,2.43.07,4.85a13,13,0,0,1,1.3.06,11.73,11.73,0,0,1,0,2.37c-.26,0-.77.05-1.3.05,0,2.67,0,5.13-.07,5.46a9.57,9.57,0,0,1-2.51,0C311.56,377.26,311.56,366,311.65,365.21Z"/><rect class="cls-21" x="29.06" y="27.92" width="440.9" height="286.12" rx="143.06"/></g></g></svg>