<svg id="레이어_1" data-name="레이어 1" xmlns="http://www.w3.org/2000/svg" xmlns:xlink="http://www.w3.org/1999/xlink" viewBox="0 0 960 432.49"><defs><style>.cls-1{fill:none;}.cls-2{fill:#154734;}.cls-3{clip-path:url(#clip-path);}.cls-4{fill:#ffcd00;}.cls-5{clip-path:url(#clip-path-2);}.cls-6{fill:#4b3e3b;}.cls-7{fill:#65524d;}.cls-8{fill:#ffe0cf;}.cls-9{fill:#ffbda6;}.cls-10{fill:#b3b3b3;}.cls-11{fill:#f7a19b;}.cls-12{fill:#433734;}.cls-13{fill:#edf5f7;}.cls-14{fill:#96c9d6;}.cls-15{fill:#fff;}.cls-16{clip-path:url(#clip-path-3);}.cls-17{fill:#b1c8e5;}.cls-18{fill:#a5b8ce;}.cls-19{fill:#8595aa;}</style><clipPath id="clip-path"><circle class="cls-1" cx="479.72" cy="123.26" r="75.1"/></clipPath><clipPath id="clip-path-2"><circle class="cls-1" cx="195.77" cy="123.26" r="75.1"/></clipPath><clipPath id="clip-path-3"><circle class="cls-2" cx="766.63" cy="123.26" r="75.1"/></clipPath></defs><g class="cls-3"><circle class="cls-4" cx="479.72" cy="123.26" r="75.1"/></g><g class="cls-5"><circle class="cls-4" cx="195.77" cy="123.26" r="75.1"/></g><path class="cls-6" d="M476.14,62.77a14.41,14.41,0,0,1,8.6-1.86,32.59,32.59,0,0,1,11,3.43A34.1,34.1,0,0,1,506,72.13a30.71,30.71,0,0,1,8.11,19.16c.27,7.89-2.62,15.55-3,23.43-.21,4.85,2.92,10.19,1.79,14.91-1,4.18-3.72,7.35-7.67,10-1.47,1-4.19,2.22-5.83.83-1.95-1.66-.07-4.72.26-6.62a7.9,7.9,0,0,0-3.62-7.85c-2.2-1.4-3.39-2.49-3.17-5.2.81-10.36-13.74-14.21-19.94-22.84-3.36-4.69-6.64-9.76-7-15.4-.26-3.89.89-7.72,2-11.46.89-2.88,1.08-4,2-6.94"/><path class="cls-6" d="M476.26,63a16,16,0,0,1,1.41-.86,15.67,15.67,0,0,1,1.61-.71,13,13,0,0,1,3.63-.75,13.39,13.39,0,0,1,1.9,0c.31,0,.62,0,.93.08l.47.06.46.06a31.35,31.35,0,0,1,3.48.74A36.09,36.09,0,0,1,496.46,64a32.08,32.08,0,0,1,5.7,3.56A34.61,34.61,0,0,1,507,72.07l.54.62.52.64c.35.42.66.87,1,1.31.17.21.31.44.47.66L510,76l.43.69c.14.23.29.46.42.69a32.29,32.29,0,0,1,2.69,5.86,29,29,0,0,1,1.38,6.22,32.86,32.86,0,0,1,0,6.27c-.17,2.06-.48,4.08-.82,6.07a117.12,117.12,0,0,0-1.8,11.76l0,.72,0,.37c0,.06,0,.12,0,.18V115a10.85,10.85,0,0,0,.06,1.39,22.59,22.59,0,0,0,.5,2.84c.44,1.92,1,3.88,1.36,6a13.93,13.93,0,0,1,.15,3.24l0,.42-.06.41c0,.14-.05.28-.08.42l0,.21-.05.19-.11.4c0,.13-.07.26-.11.39s-.16.52-.26.77a14.55,14.55,0,0,1-1.48,3A17.26,17.26,0,0,1,510,137.2a21.24,21.24,0,0,1-2.49,2.18l-.66.49-.67.46c-.22.15-.47.31-.72.45s-.5.28-.75.41a9.71,9.71,0,0,1-1.66.65,6,6,0,0,1-1.93.26,4.66,4.66,0,0,1-1.09-.17,3.9,3.9,0,0,1-1-.49,3.76,3.76,0,0,1-.8-.74,3.2,3.2,0,0,1-.53-.93,3.8,3.8,0,0,1-.22-1,5.17,5.17,0,0,1,0-.88,8.07,8.07,0,0,1,.32-1.57c.14-.49.3-1,.45-1.39a11.84,11.84,0,0,0,.37-1.24c0-.09,0-.19.05-.29l0-.3,0-.31c0-.1,0-.2,0-.3v-.3c0-.11,0-.21,0-.31s0-.2,0-.3l-.05-.31A7.15,7.15,0,0,0,496,127.1a2.48,2.48,0,0,0-.26-.19l-.26-.19-.65-.43a11.75,11.75,0,0,1-1.29-1,5.51,5.51,0,0,1-1.08-1.39,5,5,0,0,1-.53-1.66l0-.41a2.81,2.81,0,0,1,0-.41V121l0-.38a9.55,9.55,0,0,0,0-1.31,8.68,8.68,0,0,0-.54-2.59,10.75,10.75,0,0,0-1.32-2.44,17.36,17.36,0,0,0-1.92-2.25c-.72-.71-1.51-1.4-2.33-2.07-3.32-2.7-7.08-5.06-10.33-8.09-.4-.38-.8-.77-1.18-1.17s-.75-.81-1.11-1.24-.69-.88-1-1.32l-.92-1.32c-.6-.88-1.2-1.77-1.76-2.69-.29-.45-.55-.92-.83-1.38s-.52-.94-.76-1.42a26,26,0,0,1-1.55-3.54,19.21,19.21,0,0,1-1-4.52,15.59,15.59,0,0,1-.07-2.36,19.37,19.37,0,0,1,.23-2.22,27.38,27.38,0,0,1,.84-3.67c.59-2,1.23-3.71,1.83-5.44.29-.87.58-1.74.89-2.64s.66-1.81,1.06-2.76c-.25,1-.48,2-.7,3s-.45,2-.71,3-.53,2-.79,3-.51,2-.71,3a23.12,23.12,0,0,0-.55,6l0,.37.05.37c0,.25,0,.49.08.74l.13.73,0,.19,0,.18.09.36.08.37c0,.12.07.24.1.36l.21.72c.17.47.32,1,.52,1.42s.39.94.59,1.4.44.93.69,1.38.5.9.76,1.35c.13.23.26.45.4.67s.27.44.41.66c.55.89,1.15,1.75,1.75,2.62l.92,1.29.46.62.24.3.24.29a30.41,30.41,0,0,0,4.6,4.3c1.68,1.32,3.47,2.56,5.24,3.86a45.63,45.63,0,0,1,5.17,4.2,18.11,18.11,0,0,1,2.23,2.55,12.44,12.44,0,0,1,1.6,3,10.83,10.83,0,0,1,.62,3.32c0,.55,0,1.16,0,1.57a4.15,4.15,0,0,0,.17,1.25,2.91,2.91,0,0,0,.57,1,5.81,5.81,0,0,0,1,.91c.2.14.41.29.63.43l.33.21.39.27.19.13.18.14.36.3c.22.2.46.41.66.63a9.37,9.37,0,0,1,1.89,3,8.18,8.18,0,0,1,.48,4.3,3.43,3.43,0,0,1-.09.44c0,.14-.07.28-.1.42-.16.53-.33,1-.48,1.5a11.24,11.24,0,0,0-.37,1.37,3.47,3.47,0,0,0,0,1.19,1.28,1.28,0,0,0,.42.78,1.39,1.39,0,0,0,.81.37,3.41,3.41,0,0,0,1.19-.12,7,7,0,0,0,1.31-.49c.22-.11.43-.22.64-.35l.31-.18.15-.1.16-.11.63-.44.62-.46a18.78,18.78,0,0,0,2.25-2,14,14,0,0,0,3.1-4.8c.16-.44.3-.88.42-1.34,0-.11.06-.22.08-.33s.05-.21.06-.32l.05-.33,0-.33a10.26,10.26,0,0,0,0-1.36,13.31,13.31,0,0,0-.13-1.39c-.25-1.87-.8-3.77-1.24-5.74a24.72,24.72,0,0,1-.52-3c0-.52-.08-1.05-.08-1.58s.05-1,.08-1.53A106,106,0,0,1,512,101.93c.36-1.94.7-3.88.91-5.85a33.54,33.54,0,0,0,.14-5.93,27.86,27.86,0,0,0-1.15-5.9c-.13-.49-.32-1-.48-1.44-.08-.24-.18-.47-.28-.71l-.28-.71-.32-.69c-.1-.24-.2-.47-.32-.7-.24-.45-.45-.91-.71-1.36a33,33,0,0,0-8-9.55,34.94,34.94,0,0,0-5.27-3.59c-.93-.51-1.9-1-2.89-1.45s-2-.86-3-1.24a27.2,27.2,0,0,0-3.38-1c-.3-.07-.61-.12-.92-.18l-.46-.08-.48-.07a15,15,0,0,0-1.9-.15,14.3,14.3,0,0,0-3.72.44,17.09,17.09,0,0,0-1.71.53C477.27,62.52,476.76,62.74,476.26,63Z"/><path class="cls-7" d="M508.59,109.85c0,.4-.1.74-.14,1.07a5.18,5.18,0,0,0-.05,1,8.51,8.51,0,0,1,0,.88,8.72,8.72,0,0,1,0,.89,29.56,29.56,0,0,0-.1,3.52,22.52,22.52,0,0,0,.37,3.41c.18,1.1.47,2.23.61,3.51a18.36,18.36,0,0,1,0,3.56,33.31,33.31,0,0,1-.55,3.48,13.37,13.37,0,0,1-1.25,3.63,6.35,6.35,0,0,1-.74,1.08,4.36,4.36,0,0,1-1,.86,3.87,3.87,0,0,1-.82.4,2,2,0,0,1-.93.08,14.62,14.62,0,0,0,1.05-1.35,13.07,13.07,0,0,0,.83-1.39,10.53,10.53,0,0,0,.94-3.19c.09-.57.15-1.15.2-1.73s.09-1.16.1-1.74a20.53,20.53,0,0,0-.18-3.43c-.15-1.13-.34-2.27-.43-3.47s-.11-2.38-.09-3.63a29.14,29.14,0,0,1,.29-3.73,9.18,9.18,0,0,1,.19-.91,6,6,0,0,1,.33-.92,9.39,9.39,0,0,1,.49-1,2.17,2.17,0,0,1,.38-.48A1.44,1.44,0,0,1,508.59,109.85Z"/><path class="cls-7" d="M496.9,121a3.18,3.18,0,0,1,1.39.61,3.43,3.43,0,0,1,1,.82c.53.64,1.06,1.3,1.54,2s1,1.38,1.4,2.11a11.38,11.38,0,0,1,1.06,2.35,9.84,9.84,0,0,1,.3,1.25,10.13,10.13,0,0,1,.14,1.22c0,.41,0,.81,0,1.23s-.06.84-.13,1.28a11.19,11.19,0,0,1-.65,2.56,3.12,3.12,0,0,1-.15.36,4.36,4.36,0,0,1-.23.42,3.94,3.94,0,0,1-.26.4,1.62,1.62,0,0,1-.27.3l-.23.23-.25.19a1.79,1.79,0,0,1-.65.28,6.74,6.74,0,0,1,.17-1.25c.07-.39.18-.76.28-1.12a8.81,8.81,0,0,0,.24-1.11,8.69,8.69,0,0,0,.13-1.13,11.87,11.87,0,0,0-.12-2.23,11.69,11.69,0,0,0-.58-2.16,21.15,21.15,0,0,0-1.77-4.12c-.41-.67-.85-1.34-1.31-2a4.38,4.38,0,0,1-.56-1.1A3.42,3.42,0,0,1,496.9,121Z"/><path class="cls-6" d="M478,64.57c-5.29-5-13.14-1.73-19.58,1.63-7.83,4.09-14.89,15.68-14.8,24.17.09,8.22,2.09,13.68,5.13,20.64,2.7,6.19.83,9.75-.29,16.67a14.34,14.34,0,0,0,3.79,12.07c3.26,3.49,4.24,4.32,5.5,4.62a4.46,4.46,0,0,0,5.47-5.27c-.2-.82-.49-1.8-.93-3.22-1.44-4.63-.11-10.21.89-14.92,1.27-5.94,1.71-11,2.74-17,1.7-9.84.71-20.15,3.89-29.64,1.37-4.1,5.42-5.45,5-9.75"/><path class="cls-6" d="M478.14,64.41l-.33-.24a4.15,4.15,0,0,0-.34-.24c-.24-.15-.47-.31-.73-.44a9.39,9.39,0,0,0-1.58-.71l-.42-.14-.43-.11-.43-.1-.44-.08-.45-.06-.44,0-.45,0h-.44a14.75,14.75,0,0,0-1.77.12c-.58.09-1.16.2-1.71.33a23.25,23.25,0,0,0-3.15,1,56.23,56.23,0,0,0-5.64,2.72l-.69.38-.65.38-.64.41-.62.43a25.17,25.17,0,0,0-2.33,1.91,28.39,28.39,0,0,0-2.1,2.15c-.66.76-1.29,1.53-1.88,2.34s-1.14,1.63-1.66,2.48-1,1.72-1.43,2.6-.84,1.78-1.2,2.7a27.41,27.41,0,0,0-.92,2.78l-.19.7-.16.71-.14.71c0,.24-.07.48-.11.72s-.05.48-.08.71,0,.24,0,.36l0,.36,0,.36v.71c0,.12,0,.25,0,.37a42,42,0,0,0,.52,5.84,41,41,0,0,0,1.34,5.67c.58,1.85,1.28,3.68,2,5.49.38.9.78,1.8,1.17,2.71.1.22.2.46.3.7l.3.72.25.73.12.37c0,.13.07.25.1.38l.2.76.15.76c0,.13.05.26.06.39l.05.39,0,.38,0,.2v.19l0,.78c0,.26,0,.51,0,.77s0,.51,0,.77,0,.51-.07.76l-.09.75-.12.74c0,.25-.08.49-.13.74s-.08.49-.13.73c-.19,1-.38,1.91-.58,2.87l-.26,1.43-.12.71-.06.36c0,.12,0,.23-.05.34a12.46,12.46,0,0,0-.09,2.73,13.47,13.47,0,0,0,1.59,5.33,14.39,14.39,0,0,0,1.59,2.34l.47.54.52.55,1,1.09,1,1c.35.33.69.65,1,.92l.25.19.25.17a2.82,2.82,0,0,0,.46.23,3.12,3.12,0,0,0,.51.14l.28,0a2.62,2.62,0,0,0,.28,0,3.28,3.28,0,0,0,1.08-.15,3.6,3.6,0,0,0,1-.49,3.5,3.5,0,0,0,1.26-1.72,3.37,3.37,0,0,0,.16-1,2.45,2.45,0,0,0,0-.27l0-.26,0-.13v-.07l0-.08-.08-.32c-.22-.86-.48-1.73-.74-2.6l-.05-.17-.05-.17-.09-.36-.1-.36c0-.12,0-.24-.07-.35s-.09-.48-.13-.72l-.09-.72c0-.24,0-.48-.06-.71s0-.48,0-.72v-.71l0-.71c0-1,.12-1.89.25-2.82.05-.46.13-.93.2-1.39s.16-.93.26-1.39c.17-.92.37-1.84.58-2.77l.31-1.38c.09-.47.2-.93.29-1.39.38-1.87.72-3.78,1-5.75s.6-4,.89-5.93c.16-1,.32-2,.49-3s.33-2,.48-2.94C466,98,466.18,94,466.48,90c.15-2,.4-5,.89-8l.09-.55.1-.56.22-1.09c.07-.36.16-.72.24-1.07l.24-1,.28-1,.13-.47c.05-.15.09-.3.14-.45l.55-1.6a9.74,9.74,0,0,1,1.49-2.58c.59-.76,1.23-1.42,1.84-2.09a11,11,0,0,0,1.64-2.18,5.82,5.82,0,0,0,.67-2.82,5.5,5.5,0,0,1-.35,3.1A11.44,11.44,0,0,1,473,70.29a20.93,20.93,0,0,0-1.74,2.42,8,8,0,0,0-.63,1.28c0,.11-.08.22-.11.33a3.38,3.38,0,0,0-.11.34l-.2.71c-.13.48-.28.95-.38,1.43s-.23,1-.33,1.44l-.28,1.46c-.09.48-.16,1-.24,1.46-.29,2-.5,3.93-.66,5.91-.32,4-.45,8-.83,12-.05.51-.09,1-.15,1.51l-.18,1.51c-.15,1-.3,2-.46,3-.31,2-.58,3.94-.85,5.92s-.55,4-.87,6c-.17,1-.34,2-.53,3s-.41,2-.61,3-.39,1.94-.56,2.91-.31,1.94-.41,2.91a25.51,25.51,0,0,0-.13,2.89,14.85,14.85,0,0,0,.3,2.83l.07.34c0,.12.06.23.08.34l.1.34,0,.17.06.18.45,1.46q.22.73.42,1.5a1.17,1.17,0,0,1,0,.2l.05.22c0,.15.05.31.07.46a5.64,5.64,0,0,1,0,.92,5.19,5.19,0,0,1-.45,1.77,5.52,5.52,0,0,1-1.06,1.53c-.11.12-.23.22-.34.33l-.38.29a5.53,5.53,0,0,1-.84.51,5.78,5.78,0,0,1-.93.36,6.78,6.78,0,0,1-1,.19,5.91,5.91,0,0,1-1,0c-.17,0-.34,0-.51-.06l-.25-.05-.25-.06-.26-.07-.25-.08c-.17-.07-.34-.14-.49-.22l-.45-.25-.39-.27a12.65,12.65,0,0,1-1.33-1.12c-.4-.38-.78-.76-1.15-1.14s-.74-.76-1.11-1.15l-.54-.57-.56-.63a16.49,16.49,0,0,1-1.89-2.74,15.3,15.3,0,0,1-1.83-6.13,15,15,0,0,1,.11-3.14l0-.38.06-.37.13-.72c.09-.48.19-1,.28-1.44.2-1,.4-1.89.59-2.83s.38-1.85.49-2.75c0-.23.06-.46.08-.68L449,118l0-.67v-1c0-.11,0-.22,0-.33s0-.45-.07-.67c-.08-.44-.14-.88-.26-1.31a15.88,15.88,0,0,0-.87-2.6l-.56-1.34-.57-1.36c-.73-1.82-1.43-3.67-2-5.57a42.42,42.42,0,0,1-1.39-5.84,45,45,0,0,1-.55-6l0-.77c0-.12,0-.25,0-.39v-.78l0-.4c0-.26,0-.52.07-.78a22.91,22.91,0,0,1,.58-3.06,31.18,31.18,0,0,1,2.17-5.78c.22-.47.47-.93.71-1.38s.5-.91.77-1.35c.53-.89,1.1-1.76,1.71-2.6a33.25,33.25,0,0,1,4.13-4.76,24.73,24.73,0,0,1,2.47-2.06,20.22,20.22,0,0,1,2.79-1.71A49.75,49.75,0,0,1,464,62.89a31.29,31.29,0,0,1,3.42-1,16.2,16.2,0,0,1,3.92-.41,10.51,10.51,0,0,1,2,.23c.33.06.65.16,1,.25l.47.17a1.09,1.09,0,0,1,.23.09l.22.09.23.1.21.11.42.22c.26.17.53.33.76.51A8.85,8.85,0,0,1,478.14,64.41Z"/><path class="cls-7" d="M465.43,76.62a2.68,2.68,0,0,1-.6.27,2.76,2.76,0,0,0-.46.15,2.2,2.2,0,0,1-.77.22,6.89,6.89,0,0,0-.76.1l-.78.14c-1.05.23-2,.66-3,1l-.72.21-.7.21c-.23.07-.46.14-.7.23l-.35.12-.37.15-.73.34c-.24.12-.49.24-.72.37a5,5,0,0,1-.5.23,2.42,2.42,0,0,1-.56.16,2,2,0,0,1-1,0,2.42,2.42,0,0,1,.4-.89,2.9,2.9,0,0,1,.62-.64c.45-.38.94-.72,1.43-1.06a17.08,17.08,0,0,1,3.18-1.64,5.16,5.16,0,0,1,.85-.25,3.15,3.15,0,0,1,.42-.09l.43-.07c.56-.09,1.13-.12,1.72-.2l.9-.07q.45,0,.93,0a2,2,0,0,1,1,.3c.15.1.33.17.5.28A.82.82,0,0,1,465.43,76.62Z"/><path class="cls-8" d="M449.31,103.92c.84,8.9,5.24,17,13.64,21a29.7,29.7,0,0,0,22.51,1.6c5.89-1.93,11.45-4.72,14.93-10.23.69-1.09,1.36-2.53,2.69-2.82s2.61.25,3.92.14a11.84,11.84,0,0,0,4.82-1.49,12.29,12.29,0,0,0,6.09-8c.65-3.08-.28-6.87-3.1-8.05a5.12,5.12,0,0,0-3.28-.18,5.35,5.35,0,0,1-6.2-3c-2-4.55-9.76-3.43-14.26-5.48-3.75-1.71-9.46-9.58-13.51-9.54-4.79,0-4.57,3.53-9.23,4.86a42.5,42.5,0,0,0-13.31,6,10.65,10.65,0,0,0-1,.87,16.09,16.09,0,0,0-3.39,5.13A17.91,17.91,0,0,0,449.31,103.92Z"/><path class="cls-8" d="M472.56,127.92a31.37,31.37,0,0,1-9.67-2.88,22.93,22.93,0,0,1-9.71-8.72,28.65,28.65,0,0,1-4-12.39h0a18,18,0,0,1,1.28-9.2,16.41,16.41,0,0,1,3.43-5.18,9.57,9.57,0,0,1,1.06-.89,42.23,42.23,0,0,1,13.35-6.06A9.27,9.27,0,0,0,472.48,80a6.57,6.57,0,0,1,5.08-2.28c2.46,0,5.44,2.73,8.32,5.4,1.93,1.78,3.75,3.47,5.25,4.15a23,23,0,0,0,5.64,1.38c3.62.58,7.35,1.19,8.69,4.18a5.21,5.21,0,0,0,6,2.91,5.2,5.2,0,0,1,3.37.18c2.93,1.23,3.83,5.15,3.18,8.21a12.44,12.44,0,0,1-6.16,8.08,12.22,12.22,0,0,1-4.88,1.52,8.49,8.49,0,0,1-1.75-.11,6.23,6.23,0,0,0-2.15,0c-1.07.24-1.69,1.26-2.29,2.26-.1.17-.2.34-.31.5-3.79,6-10,8.65-15,10.29A29.45,29.45,0,0,1,472.56,127.92ZM478,78.05a3.25,3.25,0,0,0-.44,0,6.28,6.28,0,0,0-4.88,2.21,9.67,9.67,0,0,1-4.32,2.65,41.8,41.8,0,0,0-13.25,6,11.7,11.7,0,0,0-1,.86,16.05,16.05,0,0,0-3.36,5.09,17.79,17.79,0,0,0-1.27,9.06h0a28.37,28.37,0,0,0,4,12.27,22.61,22.61,0,0,0,9.59,8.61,29.52,29.52,0,0,0,22.4,1.59c4.95-1.62,11.12-4.25,14.86-10.17.1-.15.2-.32.3-.49.6-1,1.29-2.13,2.48-2.39a6.48,6.48,0,0,1,2.24,0,8,8,0,0,0,1.69.1,11.78,11.78,0,0,0,4.77-1.48,12.14,12.14,0,0,0,6-7.89c.63-3-.22-6.72-3-7.89a5,5,0,0,0-3.19-.17A5.48,5.48,0,0,1,505.2,93c-1.28-2.84-4.93-3.44-8.47-4a23.26,23.26,0,0,1-5.72-1.4,24.7,24.7,0,0,1-5.32-4.2C483,80.88,480.27,78.33,478,78.05Z"/><path class="cls-6" d="M474.73,75.71C478.64,84,486.35,89.1,494,93.76c5.38,3.27,14.83,7,17-3.48.52-2.52-3.25-7.77-3.66-10.31"/><path class="cls-6" d="M474.51,75.81a7.14,7.14,0,0,1,.7.75c.11.13.22.26.32.4l.16.21.16.2c.45.54.83,1.1,1.26,1.54.21.23.42.46.61.69s.42.44.62.67l.6.68.61.66a38.82,38.82,0,0,0,5.35,4.89,63.64,63.64,0,0,0,5.94,4c.51.31,1,.62,1.53.92l1.54.92.78.46.76.43c.51.29,1,.56,1.57.83a25.26,25.26,0,0,0,3.11,1.31,14,14,0,0,0,3,.7,6.91,6.91,0,0,0,2.91-.27l.18-.06a.56.56,0,0,0,.16-.07c.11,0,.23-.09.34-.15a5.85,5.85,0,0,0,.63-.38,6.66,6.66,0,0,0,.59-.49,3.57,3.57,0,0,0,.27-.28l.14-.15.12-.16A9.17,9.17,0,0,0,510,91c.08-.28.15-.56.22-.84a.86.86,0,0,0,0-.18.7.7,0,0,0,0-.16v-.17a1.09,1.09,0,0,0,0-.18,7.15,7.15,0,0,0-.35-1.62c-.1-.28-.22-.63-.36-1s-.31-.81-.48-1.23c-.34-.84-.69-1.7-.88-2.3a15.55,15.55,0,0,1-.5-1.67,4.86,4.86,0,0,1-.14-.85,3.42,3.42,0,0,1,0-.9,12.57,12.57,0,0,0,.8,1.6c.3.53.61,1,.92,1.59a30.72,30.72,0,0,1,1.73,3.33,12.63,12.63,0,0,1,.68,1.85,6.5,6.5,0,0,1,.21,1c0,.09,0,.19,0,.28v.3c0,.1,0,.2,0,.31l0,.16a.19.19,0,0,1,0,.08v.06a12.42,12.42,0,0,1-1.32,3.76c-.08.15-.17.3-.26.45l-.3.43c-.05.07-.09.14-.15.21l-.17.21-.35.4a7,7,0,0,1-3.73,2l-.52.1-.52.06c-.17,0-.35,0-.52,0h-.51l-.52,0-.5,0c-.17,0-.34,0-.5-.06s-.34,0-.5-.08a17.47,17.47,0,0,1-1.93-.45A26.36,26.36,0,0,1,496,96.18c-.58-.28-1.14-.58-1.68-.89l-.8-.48-.77-.48-.76-.47-.75-.49-.74-.48-.74-.5c-2-1.33-3.9-2.73-5.87-4.3a39.8,39.8,0,0,1-5.48-5.23l-.6-.73-.15-.19-.14-.19-.27-.4-.53-.79c-.16-.27-.31-.56-.46-.84l-.24-.43c-.09-.15-.18-.3-.26-.46l-.51-1a6.6,6.6,0,0,1-.43-1A6.75,6.75,0,0,1,474.51,75.81Z"/><path class="cls-7" d="M485.49,79.05a2.83,2.83,0,0,1,.62.69,7.54,7.54,0,0,0,.47.66,8.67,8.67,0,0,1,.83,1.17l.19.29.18.3.41.57c.28.38.59.74.89,1.11.63.72,1.31,1.37,2,2s1.37,1.32,2.05,2,1.27,1.29,1.9,1.87c.32.29.64.57,1,.84a10.31,10.31,0,0,0,1.1.79,12.13,12.13,0,0,0,2.5,1.24l.87.32.49.18.41.16.65.27a4.77,4.77,0,0,1,.7.42,4.19,4.19,0,0,1-1.58.4,5.77,5.77,0,0,1-1.6-.13A11.62,11.62,0,0,1,498,93.8a12,12,0,0,1-1.47-.61,20.41,20.41,0,0,1-5.08-3.63,23.37,23.37,0,0,1-2-2.18c-.61-.74-1.21-1.49-1.84-2.31-.32-.41-.62-.83-.91-1.27a13.33,13.33,0,0,1-.79-1.38,4.3,4.3,0,0,1-.47-1.55c0-.13,0-.28-.05-.43a1.85,1.85,0,0,1,0-.23,1.94,1.94,0,0,1,0-.24A1.67,1.67,0,0,1,485.49,79.05Z"/><path class="cls-7" d="M495,80.1a2.37,2.37,0,0,1,1.15.52,2.17,2.17,0,0,1,.74.66c.37.52.75,1,1.13,1.51a16.11,16.11,0,0,0,1.2,1.37c.41.42.83.82,1.24,1.25s.77.82,1.14,1.19c.2.18.39.37.6.55s.44.35.69.53c.5.34,1,.68,1.57,1a4.43,4.43,0,0,1,1,.85,2,2,0,0,1,.5,1,3.1,3.1,0,0,1-1.06,0,4.79,4.79,0,0,1-.93-.29c-.59-.25-1.19-.51-1.8-.8a12,12,0,0,1-1.78-1,15.89,15.89,0,0,1-1.62-1.3,10.42,10.42,0,0,1-1.25-1.54c-.36-.54-.69-1.08-1-1.64s-.69-1.12-1-1.68a2.68,2.68,0,0,1-.32-.94C495.14,80.92,494.89,80.55,495,80.1Z"/><path class="cls-7" d="M503.61,77.08a2.09,2.09,0,0,1,1.19.06,2,2,0,0,1,.86.39c.47.38.93.76,1.37,1.19a14.4,14.4,0,0,1,2.41,2.69A8.76,8.76,0,0,1,510.2,83c.2.53.36,1.07.53,1.66a14.35,14.35,0,0,1,.38,1.82,3.86,3.86,0,0,1,0,.62,1.86,1.86,0,0,1-.11.62,2.89,2.89,0,0,1-.18.44,1.52,1.52,0,0,1-.39.44,1.88,1.88,0,0,1-.31-.4,2.56,2.56,0,0,1-.22-.39,3.29,3.29,0,0,1-.17-.39c-.05-.13-.09-.26-.13-.39a12.2,12.2,0,0,0-.56-1.53,16.71,16.71,0,0,0-1.61-2.82A26.65,26.65,0,0,0,505.66,80c-.37-.42-.74-.84-1.13-1.24a2.21,2.21,0,0,1-.48-.73C503.93,77.77,503.61,77.54,503.61,77.08Z"/><path class="cls-9" d="M507.55,110a5,5,0,0,1-1.28-.32.86.86,0,1,1,.63-1.6,4.06,4.06,0,0,0,2.91,0,5.73,5.73,0,0,0,2.48-1.94,4.11,4.11,0,0,0,.93-3.22c-.18-.88-1.07-1.76-1.94-1.59a.87.87,0,0,1-1-.67.86.86,0,0,1,.68-1,3.1,3.1,0,0,1,2.57.68,4,4,0,0,1,1.38,2.23,5.82,5.82,0,0,1-1.24,4.61,7.35,7.35,0,0,1-3.23,2.51A6,6,0,0,1,507.55,110Z"/><path class="cls-6" d="M476.67,74.86c.41,14.34-18.62,26.54-28.52,24.47-8.5-1.78-.94-7.16-2.49-10.27s3.7-2.31,10.67-6S476.57,71.35,476.67,74.86Z"/><path class="cls-6" d="M449,99.61a7.93,7.93,0,0,1-.85-.14c-2.14-.45-3.44-1.16-4-2.17-.66-1.28,0-2.84.68-4.34s1.22-2.78.7-3.84a1.75,1.75,0,0,1-.19-1.52c.37-.85,1.7-1.26,3.72-1.87a38.21,38.21,0,0,0,7.19-2.82c1.09-.58,2.34-1.27,3.66-2,7.94-4.37,14.65-7.91,16.43-6.89a.93.93,0,0,1,.46.83,18.54,18.54,0,0,1-2.57,9.67,29.52,29.52,0,0,1-6.8,8,34,34,0,0,1-10,5.83A18.56,18.56,0,0,1,449,99.61Zm26.81-25.47c-2.42-.3-10,3.9-15.72,7-1.32.73-2.57,1.42-3.66,2A37.7,37.7,0,0,1,449.15,86c-1.87.57-3.22,1-3.54,1.72a1.55,1.55,0,0,0,.18,1.28c.59,1.17-.06,2.65-.69,4.08s-1.28,2.93-.68,4.09c.48.93,1.71,1.59,3.76,2a17.27,17.27,0,0,0,9.19-1.13,33.63,33.63,0,0,0,9.89-5.78,29.25,29.25,0,0,0,6.73-7.9,18.26,18.26,0,0,0,2.53-9.52.65.65,0,0,0-.31-.59A1.09,1.09,0,0,0,475.78,74.14Z"/><path class="cls-7" d="M465.63,81.43a2.15,2.15,0,0,1,0,.91c-.06.29-.15.56-.21.82a4.84,4.84,0,0,1-.25.73,3.81,3.81,0,0,1-.38.65,22.44,22.44,0,0,1-1.86,2.36A33.43,33.43,0,0,1,458.75,91c-.39.3-.77.57-1.15.83s-.75.5-1.14.74A28.24,28.24,0,0,1,454,93.91,13.65,13.65,0,0,1,451.11,95a4.17,4.17,0,0,1-.46.09,3.43,3.43,0,0,1-.57.06c-.2,0-.39,0-.57,0a4.34,4.34,0,0,1-.47-.07,6,6,0,0,1-.71-.22,2,2,0,0,1-.64-.47l.36-.13.35-.1.33-.1.17,0,.16-.06.32-.09.32-.1.32-.09.31-.1a11.69,11.69,0,0,0,2.45-1.11,37.93,37.93,0,0,0,4.51-3.36c1.47-1.21,2.91-2.15,4.24-3.47.66-.66,1.3-1.34,1.89-2.06a5.82,5.82,0,0,1,.46-.53,4.77,4.77,0,0,1,.52-.48A8.11,8.11,0,0,0,465,82,1.88,1.88,0,0,1,465.63,81.43Z"/><path class="cls-7" d="M476.12,65.29a1.84,1.84,0,0,1,.45.8.84.84,0,0,1,.11.57c0,.17-.06.33-.08.5s0,.33-.07.49c-.08.66,0,1.29,0,1.93s-.25,1.15-.3,1.82c0,.33-.05.67,0,1a3.24,3.24,0,0,1-.05.35,1.09,1.09,0,0,1-.14.37,1.67,1.67,0,0,1-.53.63,1.52,1.52,0,0,1-.56-.44,1.81,1.81,0,0,1-.26-.52l-.14-.55-.12-.56a11.69,11.69,0,0,1-.22-2.29,8.79,8.79,0,0,1,.55-2.16c.05-.19.11-.37.17-.55s.14-.35.2-.53a1.06,1.06,0,0,1,.39-.46C475.65,65.57,475.72,65.32,476.12,65.29Z"/><ellipse class="cls-8" cx="448.25" cy="107.7" rx="6.18" ry="7.4" transform="translate(-12.73 112.45) rotate(-14.1)"/><path class="cls-8" d="M453.88,105.82a3.33,3.33,0,0,1,.77,1.3,8.15,8.15,0,0,1,.33,1.49,5.87,5.87,0,0,1-.27,2.87,7.38,7.38,0,0,1-1.55,2.55,6.13,6.13,0,0,1-2.6,1.65,6.41,6.41,0,0,1-3.07.22,7.2,7.2,0,0,1-2.78-1.15,8.76,8.76,0,0,1-3.46-4.74,9.25,9.25,0,0,1,.06-5.59,8.16,8.16,0,0,1,1.34-2.45,6.63,6.63,0,0,1,2.32-1.84,6,6,0,0,1,3-.57,6.55,6.55,0,0,1,2.86.91,6.48,6.48,0,0,1,1.51,1.23,6.75,6.75,0,0,1,.64.82,5.9,5.9,0,0,1,.41.76,5.78,5.78,0,0,1,.42,1.23,3.55,3.55,0,0,1,.05,1.31,15.78,15.78,0,0,0-1.49-2.08,9.24,9.24,0,0,0-1.8-1.58,5.12,5.12,0,0,0-2.12-.82,4.28,4.28,0,0,0-2.16.23,4.55,4.55,0,0,0-1.76,1.25,5.49,5.49,0,0,0-1.09,2,7.27,7.27,0,0,0,.05,4.54,8.33,8.33,0,0,0,1,2,6.67,6.67,0,0,0,1.45,1.59,5.24,5.24,0,0,0,1.88,1,4,4,0,0,0,2.1,0,4.34,4.34,0,0,0,1.89-1.06,5.33,5.33,0,0,0,1.28-1.87,11.88,11.88,0,0,0,.71-2.28,6.22,6.22,0,0,0,.09-1.4A14.41,14.41,0,0,1,453.88,105.82Z"/><path class="cls-9" d="M448.57,113.59a5.82,5.82,0,0,1-3.58-1.94,7.53,7.53,0,0,1-1.75-3.73,5.83,5.83,0,0,1,1-4.67,3.9,3.9,0,0,1,2.24-1.35,3.1,3.1,0,0,1,2.6.58.86.86,0,0,1-1.07,1.34,1.83,1.83,0,0,0-2.43.51,4.11,4.11,0,0,0-.62,3.3,5.79,5.79,0,0,0,1.34,2.88,4.06,4.06,0,0,0,2.58,1.38.86.86,0,0,1,.76,1,.85.85,0,0,1-.94.76Z"/><path class="cls-10" d="M437.89,141.37a.86.86,0,0,1-.62-.39.85.85,0,0,1,.26-1.18A326.56,326.56,0,0,1,470,121.53a.86.86,0,1,1,.76,1.54,327.14,327.14,0,0,0-32.26,18.17A.85.85,0,0,1,437.89,141.37Z"/><path class="cls-10" d="M438.52,133.78a.85.85,0,0,1-.7-.53.87.87,0,0,1,.48-1.12l2.77-1.06c1.39-.51,2.71-1,3.83-1.51,7.59-3.44,15.26-7,22.79-10.58a.86.86,0,0,1,1.14.41.87.87,0,0,1-.4,1.15c-7.54,3.58-15.22,7.14-22.82,10.58-1.18.54-2.52,1-3.94,1.56-.9.34-1.83.69-2.73,1A.78.78,0,0,1,438.52,133.78Z"/><path class="cls-8" d="M449.3,147.51c-1.25-.84-2.26-4.24-3.48-6.82a13,13,0,0,1-1.5-4.63c-.15-2.48,1.09-4.81,2.29-7a5.74,5.74,0,0,1,1.27-1.72,5.82,5.82,0,0,1,1.3-.7l2.81-1.19a14.33,14.33,0,0,1,2.5-.89A1.24,1.24,0,0,1,456,126v0a1.24,1.24,0,0,0,.75,1.36,1,1,0,0,1,.78.81,1.56,1.56,0,0,1-.16.79c-.7,1.62-2,2.93-2.52,4.63-1.18,4.08,2.89,8.54,1.14,12.39a4.49,4.49,0,0,1-4.27,2.49,4.05,4.05,0,0,1-2.37-1Z"/><path class="cls-8" d="M449.43,147.3a1.84,1.84,0,0,1-.85-.5,5.18,5.18,0,0,1-.71-.83c-.42-.61-.77-1.25-1.1-1.81s-.63-1.12-.92-1.69l-.43-.84-.42-.84a15.9,15.9,0,0,1-1.42-3.78,7.7,7.7,0,0,1-.11-2.14,8.83,8.83,0,0,1,.41-2.07,21.33,21.33,0,0,1,1.56-3.63l.45-.85a8.23,8.23,0,0,1,.54-.9,4.45,4.45,0,0,1,.81-.89,5.24,5.24,0,0,1,1-.62c.32-.16.59-.28.88-.41l.84-.38,1.71-.76a16.2,16.2,0,0,1,1.87-.73,4.44,4.44,0,0,1,.52-.15,3,3,0,0,1,.8-.1,2.37,2.37,0,0,1,1.66.8,2.4,2.4,0,0,1,.6,1.3,2.06,2.06,0,0,1,0,.35,1.87,1.87,0,0,1,0,.34v0h0v0s0,.06,0,.06h0a3.58,3.58,0,0,1,.55.28,2.46,2.46,0,0,1,.56.52,2,2,0,0,1,.34.77,1.84,1.84,0,0,1,.05.41,2.22,2.22,0,0,1,0,.37,3.29,3.29,0,0,1-.16.57c-.06.16-.12.27-.18.4s-.25.48-.38.71c-.53.89-1.12,1.62-1.55,2.35a6,6,0,0,0-.53,1.08,4.89,4.89,0,0,0-.25,1.16,8.47,8.47,0,0,0,.29,2.66c.28,1.19.7,2.4,1,3.7a12.11,12.11,0,0,1,.31,2,6.86,6.86,0,0,1-.23,2.15,5,5,0,0,1-.54,1.22,4.34,4.34,0,0,1-1.08,1.19,4.48,4.48,0,0,1-1.37.74,4.67,4.67,0,0,1-1.25.25,5.27,5.27,0,0,1-1-.06,3.55,3.55,0,0,1-.89-.27,3.17,3.17,0,0,1-.75-.5,3.34,3.34,0,0,1-.32-.33l-.14-.19-.06-.1,0,0,0,0h0l-.16.19.16-.19h.05l.05,0,.1.05.2.1a3.56,3.56,0,0,0,.41.17,4.35,4.35,0,0,0,.83.2l.41,0h.41a5.29,5.29,0,0,0,.81-.17,4,4,0,0,0,2.38-1.93,1.3,1.3,0,0,1,.08-.17l.07-.19.06-.19.05-.18a4.19,4.19,0,0,0,.12-.79,5.77,5.77,0,0,0,0-.83c0-.28-.06-.56-.12-.85A36.18,36.18,0,0,0,454.3,139a14.47,14.47,0,0,1-.72-3.27,7.36,7.36,0,0,1,.07-1.81,6.76,6.76,0,0,1,.56-1.75c.51-1.07,1.16-1.94,1.63-2.76.12-.21.23-.42.33-.62l.13-.3.06-.18v0h.07a1.24,1.24,0,0,0,.2,0h0a.44.44,0,0,0-.11.1.36.36,0,0,0-.08.09s0,0,0,0h0l-.11,0a2.21,2.21,0,0,1-1.1-.83,2.42,2.42,0,0,1-.44-1.25,1.93,1.93,0,0,1,0-.34v-.19h0s0,0,0,0h0a0,0,0,0,0,0,0s0,0,0,0h0l-.13,0-.39.1c-.53.16-1.06.37-1.63.6l-3.36,1.38a3.13,3.13,0,0,0-.61.31,2.18,2.18,0,0,0-.45.42,5.91,5.91,0,0,0-.44.64l-.45.77a18.35,18.35,0,0,0-1.56,3.22,8.35,8.35,0,0,0-.4,1.66,5.7,5.7,0,0,0,0,1.65,12.39,12.39,0,0,0,1.13,3.37l.2.43c.07.16.13.31.2.46.12.3.24.61.35.91.22.61.41,1.23.59,1.84s.44,1.31.72,2c.14.34.29.67.44,1A4.57,4.57,0,0,0,449.43,147.3Z"/><path class="cls-9" d="M445.22,136.76a.94.94,0,0,1-.52-.27,1.52,1.52,0,0,1-.16-2.1,1.49,1.49,0,0,1,1.38,2.14A.88.88,0,0,1,445.22,136.76Zm.68-1.52Z"/><path class="cls-9" d="M447.84,137.5a1,1,0,0,1-.41-.16,1.87,1.87,0,0,1-.69-.81,1.15,1.15,0,0,1,.06-.92.85.85,0,0,1,1.7.1.71.71,0,0,1,0,.26.86.86,0,0,1-.64,1.53Zm-1-1.75Z"/><path class="cls-9" d="M450.52,138.27a.9.9,0,0,1-.28-.08,1.55,1.55,0,0,1-.93-1.27,1.11,1.11,0,0,1,.54-1,.84.84,0,0,1,1.18.27.8.8,0,0,1,.12.56.86.86,0,0,1,.24,1.07A.85.85,0,0,1,450.52,138.27Zm.43-1.66h0Z"/><path class="cls-9" d="M451.91,133.56l-.16,0a.86.86,0,0,1-.55-1.09,7,7,0,0,1,2.9-3.76.86.86,0,0,1,.93,1.45,5.36,5.36,0,0,0-2.2,2.85A.86.86,0,0,1,451.91,133.56Z"/><path class="cls-9" d="M448,130.9a.89.89,0,0,1-.37-.14.86.86,0,0,1-.24-1.19,9.87,9.87,0,0,1,6.2-4,.86.86,0,1,1,.36,1.68,8.18,8.18,0,0,0-5.13,3.24A.84.84,0,0,1,448,130.9Z"/><path class="cls-9" d="M477.65,111.9a.87.87,0,0,1-.4-.16,3.77,3.77,0,0,1-.37-5.49.85.85,0,0,1,1.21,0,.85.85,0,0,1,0,1.21,1.93,1.93,0,0,0-.5,1.51,1.9,1.9,0,0,0,.68,1.38.86.86,0,0,1,.18,1.2A.85.85,0,0,1,477.65,111.9Z"/><path class="cls-9" d="M485,98.26a.9.9,0,0,1-.58-.34.86.86,0,0,1,.17-1.2,7,7,0,0,1,7.78-.35.87.87,0,0,1,.27,1.19.86.86,0,0,1-1.18.27,5.25,5.25,0,0,0-5.84.26A.88.88,0,0,1,485,98.26Z"/><path class="cls-9" d="M460.88,99.54a.87.87,0,0,1-.55-.3.86.86,0,0,1,.1-1.21,7,7,0,0,1,7.76-.78.86.86,0,0,1-.84,1.51,5.24,5.24,0,0,0-5.81.58A.86.86,0,0,1,460.88,99.54Z"/><path class="cls-9" d="M500.9,103.1a7.41,7.41,0,0,0-5.38-1.69A7.92,7.92,0,0,0,491,103a4.47,4.47,0,0,0-1.87,3.71,4.18,4.18,0,0,0,1.46,2.94,6.84,6.84,0,0,0,3.79,1.63,8.37,8.37,0,0,0,1.59.06,8,8,0,0,0,4.5-1.62,4.51,4.51,0,0,0,1.88-3.72A4.2,4.2,0,0,0,500.9,103.1Z"/><path class="cls-9" d="M464.65,104.89a7.42,7.42,0,0,0-5.38-1.69,8,8,0,0,0-4.5,1.62,4.51,4.51,0,0,0-1.88,3.72,4.2,4.2,0,0,0,1.46,2.93,6.91,6.91,0,0,0,3.79,1.64,9.41,9.41,0,0,0,1.6,0,7.92,7.92,0,0,0,4.5-1.62,4.5,4.5,0,0,0,1.88-3.71A4.19,4.19,0,0,0,464.65,104.89Z"/><path class="cls-11" d="M472.09,114.77c2-.06,3.93.44,5.88.38s4-.69,6-.76a2,2,0,0,1,1.62,2.9A8.42,8.42,0,0,1,475.32,121a10,10,0,0,1-4.4-2.78A2,2,0,0,1,472.09,114.77Z"/><path class="cls-11" d="M477.16,122.28a10.3,10.3,0,0,1-2.13-.51,10.89,10.89,0,0,1-4.77-3,3.09,3.09,0,0,1-.47-3.25,2.58,2.58,0,0,1,2.27-1.55h0a20.75,20.75,0,0,1,3.07.19,21.05,21.05,0,0,0,2.82.18,19.67,19.67,0,0,0,2.86-.37,22.3,22.3,0,0,1,3.09-.38,2.66,2.66,0,0,1,2.27,1.22,2.91,2.91,0,0,1,.16,2.89,9.21,9.21,0,0,1-5,4.17A8.79,8.79,0,0,1,477.16,122.28Zm-5-6.65a.88.88,0,0,0-.77.55,1.4,1.4,0,0,0,.24,1.46,9.15,9.15,0,0,0,4,2.51,7.58,7.58,0,0,0,9.16-3.22,1.2,1.2,0,0,0,0-1.22,1,1,0,0,0-.78-.46,21,21,0,0,0-2.86.37,22.26,22.26,0,0,1-3.1.38,20.53,20.53,0,0,1-3.06-.19,21.26,21.26,0,0,0-2.82-.18Z"/><path class="cls-9" d="M481.08,118.46q-.7-.13-1.41-.21a15.8,15.8,0,0,0-4.75.28,8.09,8.09,0,0,0-1.19.34,3.57,3.57,0,0,0-.38.14.6.6,0,0,0-.05,1.08c.21.11.43.21.63.3a11.93,11.93,0,0,0,1.39.57A8.39,8.39,0,0,0,481,121a8.49,8.49,0,0,0,2.19-1.06.6.6,0,0,0-.15-1c-.42-.13-.89-.2-1.23-.29Z"/><path class="cls-9" d="M477.16,122.28a10.3,10.3,0,0,1-2.13-.51,15,15,0,0,1-1.47-.6l-.22-.11-.42-.2a1.42,1.42,0,0,1-.8-1.35,1.45,1.45,0,0,1,.91-1.3l.41-.15a9.06,9.06,0,0,1,1.3-.37,16.64,16.64,0,0,1,5-.29,14.44,14.44,0,0,1,1.49.22h0c.28,0,.56.11.83.18l.39.09a8.38,8.38,0,0,1,.87.21,1.45,1.45,0,0,1,.41,2.55,9.26,9.26,0,0,1-2.41,1.17A8.79,8.79,0,0,1,477.16,122.28Zm-2.91-2.69.05,0a12,12,0,0,0,1.31.54,7.54,7.54,0,0,0,5.13.06,11.2,11.2,0,0,0,1.47-.62l-.1,0-.47-.1-.73-.17h0c-.43-.08-.87-.15-1.32-.19a15.22,15.22,0,0,0-4.5.26C474.82,119.43,474.54,119.5,474.25,119.59Z"/><path class="cls-12" d="M485.34,105a.79.79,0,0,1-.41-.17.85.85,0,0,1-.17-1.2,5.19,5.19,0,0,1,3.73-2.3,5.83,5.83,0,0,1,4.36,1.83.85.85,0,0,1,0,1.21.85.85,0,0,1-1.21,0,4.25,4.25,0,0,0-3-1.34,3.55,3.55,0,0,0-2.49,1.62A.86.86,0,0,1,485.34,105Z"/><path class="cls-12" d="M461.8,106.68a1,1,0,0,1-.38-.15.85.85,0,0,1-.21-1.2,5.21,5.21,0,0,1,3.65-2.43,5.76,5.76,0,0,1,4.41,1.65.86.86,0,1,1-1.15,1.28,4.29,4.29,0,0,0-3.07-1.23,3.58,3.58,0,0,0-2.44,1.72A.85.85,0,0,1,461.8,106.68Z"/><ellipse class="cls-13" cx="219.31" cy="80.02" rx="10.98" ry="14.67" transform="translate(10.12 183.66) rotate(-46.4)"/><ellipse class="cls-13" cx="172.9" cy="80.37" rx="14.61" ry="11.02" transform="translate(-16.42 102.97) rotate(-31.74)"/><ellipse class="cls-13" cx="195.48" cy="71.47" rx="14.54" ry="11.07"/><ellipse class="cls-6" cx="218.04" cy="102.47" rx="7.71" ry="13.67" transform="translate(-16.11 45.77) rotate(-11.56)"/><path class="cls-6" d="M219.89,116.09a5.89,5.89,0,0,1-3.2-1c-2.89-1.88-5.32-6.06-6.33-10.92-1.55-7.46.63-14.27,4.86-15.18a5.47,5.47,0,0,1,4.16.93c2.89,1.88,5.32,6.07,6.33,10.93,1.55,7.45-.63,14.26-4.86,15.18A4.34,4.34,0,0,1,219.89,116.09Zm-3.71-27a3.88,3.88,0,0,0-.9.1c-4.08.88-6.16,7.54-4.64,14.84,1,4.79,3.38,8.9,6.21,10.74a5.2,5.2,0,0,0,3.94.9c4.08-.88,6.16-7.54,4.64-14.84-1-4.79-3.38-8.91-6.21-10.75A5.67,5.67,0,0,0,216.18,89.13Z"/><path class="cls-6" d="M178,82.42c-6.74.09-9.53,7.58-11.35,14.18-2.21,8,1.16,20.74,7,26.53,5.63,5.61,10.61,8.05,17.26,10.82"/><path class="cls-6" d="M178,82.18c-.73.25-1.5.48-2.21.8a7.48,7.48,0,0,0-1.89,1.17,15.29,15.29,0,0,0-2.59,3.08,20.43,20.43,0,0,0-1.87,3.67,41.13,41.13,0,0,0-1.34,4c-.2.67-.38,1.35-.55,2-.07.33-.15.65-.21,1l-.08.49-.07.49a23,23,0,0,0-.13,4,40.42,40.42,0,0,0,2.56,11.76,31.56,31.56,0,0,0,1.55,3.44,23.29,23.29,0,0,0,2,3.15l.14.18.15.18.31.37.32.35q.15.18.33.36l.72.72c.24.25.49.48.75.72a37.53,37.53,0,0,0,3.19,2.72,41.53,41.53,0,0,0,3.46,2.38c.3.17.67.41,1.09.65l.64.38.68.39c.45.27.92.52,1.34.77s.81.45,1.11.64a25.52,25.52,0,0,1,3.37,2.19,37.2,37.2,0,0,1-4.12-1.31,34.94,34.94,0,0,1-3.94-1.81,41.07,41.07,0,0,1-7.24-4.89l-.42-.35-.41-.36-.82-.73L173,124l-.4-.39c-.13-.14-.27-.27-.39-.42a22.07,22.07,0,0,1-2.67-3.6,33.38,33.38,0,0,1-2-4,38.18,38.18,0,0,1-1.47-4.17,32.1,32.1,0,0,1-1.23-8.45,26.68,26.68,0,0,1,.29-4.26c.06-.36.11-.71.2-1.07l.11-.54.14-.53.07-.27.08-.26.15-.51.31-1a41.25,41.25,0,0,1,1.47-4.12,22.86,22.86,0,0,1,2.08-3.94,11.1,11.1,0,0,1,1.45-1.77,9,9,0,0,1,1.84-1.4,9.16,9.16,0,0,1,2.39-1A5.66,5.66,0,0,1,178,82.18Z"/><path class="cls-8" d="M169.93,117.19a30.54,30.54,0,0,0,5.8,16.7C181.64,141.9,193,145,202,142a28.08,28.08,0,0,0,13.87-11.41c2.65-4.27,1.58-8.28,4.14-8.35a8.66,8.66,0,0,0,4.17-1.49,11,11,0,0,0,5.08-7.38c.47-2.79-.47-6.18-3-7.16a4.35,4.35,0,0,0-2.87-.06c-3.29,1-5.22.31-6.51-2.49-1.48-3.2-1.7-11.56-5-13.2A17.33,17.33,0,0,0,206.94,89a60.84,60.84,0,0,0-16.28-.63c-4.88.5-11.49,1.34-15.53,4.54-2.14,1.69-3.57,9.69-4.14,12.31A44.53,44.53,0,0,0,169.93,117.19Z"/><path class="cls-8" d="M194.81,143.26a25.11,25.11,0,0,1-7.15-1,23.21,23.21,0,0,1-12-8.23,30.68,30.68,0,0,1-5.82-16.78,44.42,44.42,0,0,1,1.06-12c.06-.3.14-.67.23-1.1.71-3.41,2-9.77,4-11.29,3.8-3,9.74-4,15.6-4.57a61.11,61.11,0,0,1,16.33.63,17.71,17.71,0,0,1,5,1.42c2.24,1.11,3.09,5.13,3.84,8.68a24.6,24.6,0,0,0,1.24,4.59c1.23,2.67,3.07,3.37,6.34,2.41a4.49,4.49,0,0,1,3,.07c2.61,1,3.53,4.53,3.06,7.32a11.18,11.18,0,0,1-5.14,7.47,8.6,8.6,0,0,1-4.25,1.51c-1.31,0-1.6,1.23-2,3a16.71,16.71,0,0,1-2,5.26,28.45,28.45,0,0,1-13.94,11.47A22.68,22.68,0,0,1,194.81,143.26Zm1.54-55a55.83,55.83,0,0,0-5.68.28c-3.91.4-11.2,1.15-15.46,4.51-1.85,1.46-3.2,8-3.85,11.13-.09.43-.17.8-.23,1.1a44.26,44.26,0,0,0-1,11.91h0a30.32,30.32,0,0,0,5.76,16.63,22.91,22.91,0,0,0,11.9,8.13,23.73,23.73,0,0,0,14.21-.1,28.13,28.13,0,0,0,13.8-11.35,16.62,16.62,0,0,0,1.95-5.18c.45-1.86.77-3.2,2.3-3.25a8.27,8.27,0,0,0,4.11-1.46,10.93,10.93,0,0,0,5-7.28c.45-2.67-.41-6-2.89-7a4.25,4.25,0,0,0-2.78-.06c-3.44,1-5.37.27-6.68-2.56A25.45,25.45,0,0,1,215.51,99c-.73-3.49-1.57-7.44-3.68-8.49a17.66,17.66,0,0,0-4.91-1.39A63.17,63.17,0,0,0,196.35,88.25Z"/><path class="cls-9" d="M220.86,120.18a4.24,4.24,0,0,1-.51,0,.86.86,0,1,1,.23-1.71,3.5,3.5,0,0,0,3-1.52,7.29,7.29,0,0,0,1.61-5.08,2.78,2.78,0,0,0-1.17-2,1.32,1.32,0,0,0-1.81.21A.86.86,0,0,1,221,108.8a3,3,0,0,1,4-.38,4.49,4.49,0,0,1,1.9,3.19,9,9,0,0,1-2,6.41A5.42,5.42,0,0,1,220.86,120.18Z"/><path class="cls-13" d="M163.73,90.23l.32,10.9a2.17,2.17,0,0,0,3.7,1.52c8.44-8.44,28.05-17.26,55.09.64,1.61,1.07,3.7.18,3.6-1.78l-.69-11.75L207.34,74.18H175.7Z"/><path class="cls-14" d="M167,89.68a1.72,1.72,0,0,1,.28.71c.05.22.06.43.11.63a3.78,3.78,0,0,1,.08.56,2.4,2.4,0,0,1,0,.54c-.08.71-.11,1.41-.13,2.11a15.39,15.39,0,0,0,.13,2.06c0,.34.09.67.14,1v0h0a.11.11,0,0,0,0,.07s0,0,0,0,0,0,.06,0l.13-.06.07,0,0,0,.05,0,.1-.08.86-.67a18.52,18.52,0,0,1,1.88-1.32,3.77,3.77,0,0,1,.7-.35,2.7,2.7,0,0,1,.8-.19,2.77,2.77,0,0,1,.58,0,2.06,2.06,0,0,1,.64.21,3.11,3.11,0,0,1-.43.45l-.39.36q-.37.33-.78.63a18.52,18.52,0,0,0-1.57,1.4l-.75.76-.19.2-.09.09,0,0,0,0-.09.08-.68.64-.35.32a1.93,1.93,0,0,1-.38.23,1.78,1.78,0,0,1-.8.17,1.68,1.68,0,0,1-.81-.26,2.55,2.55,0,0,1-.3-.26,1,1,0,0,1-.2-.36l-.18-.41,0-.1,0,0v-.07l0-.26-.06-.53,0-.26s0-.09,0-.13v-.1c0-.37,0-.74,0-1.11,0-.74.09-1.48.16-2.25a17.69,17.69,0,0,1,.35-2.28,3,3,0,0,1,.44-1.08c.11-.17.19-.38.3-.58A1.35,1.35,0,0,1,167,89.68Z"/><path class="cls-14" d="M225.54,75.92a1.17,1.17,0,0,1,.3-.21,1.32,1.32,0,0,1,.32-.07,1.69,1.69,0,0,1,.32,0l.31,0a1.77,1.77,0,0,1,1,.53A7.75,7.75,0,0,1,229,78c.15.31.3.59.44.88s.28.57.41.87a9.28,9.28,0,0,1,.6,1.89,8.46,8.46,0,0,1,.09,1.93,10.69,10.69,0,0,1-.34,1.94,9.57,9.57,0,0,1-.33,1,8.1,8.1,0,0,1-.47.93,1.64,1.64,0,0,1-.17.26l-.12.15a.86.86,0,0,1-.13.14,1.79,1.79,0,0,1-.28.27l-.14.1-.13.07-.24.12a1.69,1.69,0,0,1-.24.08,1.19,1.19,0,0,1-.6,0,6,6,0,0,1,.24-.93c.09-.28.2-.52.3-.77s.1-.26.15-.38.09-.26.12-.39a5.42,5.42,0,0,0,.17-.8,7.51,7.51,0,0,0,.06-1.64A9.2,9.2,0,0,0,228.1,82c-.12-.55-.22-1.09-.35-1.63-.06-.27-.13-.55-.2-.82s-.18-.56-.28-.82a6.82,6.82,0,0,0-.76-1.42,3.8,3.8,0,0,1-.38-.66.82.82,0,0,0-.11-.17l-.16-.16a1.45,1.45,0,0,1-.16-.18A1.05,1.05,0,0,1,225.54,75.92Z"/><path class="cls-14" d="M196,63.56a3.19,3.19,0,0,1,1.49-.54,3.59,3.59,0,0,1,1.38-.06,11.66,11.66,0,0,1,2.69.76,12,12,0,0,1,1.28.67,9.4,9.4,0,0,1,1.15.84,9.76,9.76,0,0,1,1.84,2.11A12.42,12.42,0,0,1,207,69.67a21.86,21.86,0,0,1,.77,2.44,14.69,14.69,0,0,1,.44,2.72v.42c0,.16,0,.33,0,.5a3.68,3.68,0,0,1-.22.91,4.77,4.77,0,0,1-.29.6,1.8,1.8,0,0,1-.51.53,10.44,10.44,0,0,1-.3-1.27c0-.21-.08-.41-.1-.61s-.06-.4-.09-.59A12,12,0,0,0,206,73a18.61,18.61,0,0,0-1-2.25c-.18-.37-.38-.73-.59-1.09a11.61,11.61,0,0,0-.65-1,16.24,16.24,0,0,0-1.35-1.8,5.87,5.87,0,0,0-1.71-1.37,9.76,9.76,0,0,0-2.22-.81,5.87,5.87,0,0,1-1.18-.44C197,64,196.38,64,196,63.56Z"/><path class="cls-14" d="M166.87,75.1a1.63,1.63,0,0,1-.26.59c-.09.16-.19.27-.26.41a2,2,0,0,1-.47.64,6.58,6.58,0,0,0-.95,1.09,5.41,5.41,0,0,0-.64,1.27c-.16.45-.29.89-.44,1.34s-.29.89-.42,1.34a10.52,10.52,0,0,0-.31,1.41c-.06.52-.12,1-.15,1.59a3.11,3.11,0,0,1-.24,1.09,1.86,1.86,0,0,1-.59.83,2.67,2.67,0,0,1-.52-.8,3,3,0,0,1-.21-.84c-.07-.56-.13-1.14-.15-1.72a12.52,12.52,0,0,1,.33-3.58,5.76,5.76,0,0,1,.75-1.65,12.31,12.31,0,0,1,1.1-1.45,7,7,0,0,1,1.4-1.26,1.75,1.75,0,0,1,.43-.22,1.94,1.94,0,0,1,.49-.11l.53-.09A.88.88,0,0,1,166.87,75.1Z"/><path class="cls-14" d="M170,88.56a6.33,6.33,0,0,1,.91-1.38l.57-.61.27-.29L172,86a11.87,11.87,0,0,1,1.1-1l.59-.47c.2-.15.42-.28.62-.42a33.47,33.47,0,0,1,5.33-2.81,38,38,0,0,1,5.6-1.88c.48-.11.95-.23,1.43-.33l1.45-.28c.48-.07,1-.15,1.46-.21l.76-.07a6.32,6.32,0,0,1,.76-.06l.74,0,.37,0H194l1.37.06,1.36.11c1.8.16,3.58.39,5.54.71a58,58,0,0,1,5.82,1.27l.87.25,1,.36.52.19.49.22c.31.14.59.27.81.39.44.26.83.47,1.2.72a6.53,6.53,0,0,1,1.06.95l-.73-.16-.35-.1-.35-.09-.7-.17c-.24,0-.47-.13-.7-.17l-.71-.17-.69-.18c-.47-.1-.94-.22-1.4-.34a54.66,54.66,0,0,0-5.69-1q-2.88-.36-5.76-.5a47.7,47.7,0,0,0-5.74.07l-.7,0-.69.07c-.46,0-.92.11-1.37.16l-1.36.2-1.34.23A30.16,30.16,0,0,0,180.47,83a33.72,33.72,0,0,0-5.14,2.47c-.2.13-.41.24-.62.36s-.41.25-.62.36l-.63.35c-.2.12-.41.24-.63.35-.43.22-.89.57-1.38.88-.25.15-.48.32-.73.46A4.43,4.43,0,0,1,170,88.56Z"/><ellipse class="cls-8" cx="169.44" cy="113.26" rx="5.61" ry="8.16" transform="translate(-27.45 60.61) rotate(-18.79)"/><path class="cls-8" d="M174.46,111.42a3.6,3.6,0,0,1,.89,1.27,11.7,11.7,0,0,1,.51,1.47,6.29,6.29,0,0,1,.16,2.93,7.4,7.4,0,0,1-1.13,2.87,5.77,5.77,0,0,1-1.12,1.2,4.9,4.9,0,0,1-1.49.81,5.14,5.14,0,0,1-1.67.26A5.82,5.82,0,0,1,169,122a7.84,7.84,0,0,1-2.71-1.48,10,10,0,0,1-2-2.21,11.92,11.92,0,0,1-1.34-2.67,12.35,12.35,0,0,1-.61-2.84,10.85,10.85,0,0,1,.11-2.79,8.42,8.42,0,0,1,.94-2.71,6.57,6.57,0,0,1,.91-1.24,5.1,5.1,0,0,1,1.28-1,4.9,4.9,0,0,1,1.59-.57,5.13,5.13,0,0,1,1.66,0,6.63,6.63,0,0,1,2.84,1.27,7.58,7.58,0,0,1,1.4,1.39,7.23,7.23,0,0,1,1,1.66,8.34,8.34,0,0,1,.4,1.27,4,4,0,0,1,.05,1.35c-.54-.76-1-1.47-1.58-2.12a13.87,13.87,0,0,0-1.75-1.76,5.57,5.57,0,0,0-2-1.07,3.11,3.11,0,0,0-2,.11,3.16,3.16,0,0,0-.83.53,3.77,3.77,0,0,0-.66.81,5.64,5.64,0,0,0-.74,2.11,9.51,9.51,0,0,0,.56,4.73,12.34,12.34,0,0,0,1,2.13,8.74,8.74,0,0,0,1.4,1.77,5.64,5.64,0,0,0,1.78,1.18,2.94,2.94,0,0,0,3.61-1,5.27,5.27,0,0,0,.95-2.06,18,18,0,0,0,.4-2.44,7.1,7.1,0,0,0,0-1.44A9.85,9.85,0,0,1,174.46,111.42Z"/><path class="cls-9" d="M169.91,120.32h-.09a5.69,5.69,0,0,1-3.74-2.17,9.46,9.46,0,0,1-1.85-4.18,7.38,7.38,0,0,1,.71-5.27,3.68,3.68,0,0,1,2.54-1.69,2.85,2.85,0,0,1,2.31.68.86.86,0,0,1-1.14,1.28,1.13,1.13,0,0,0-.94-.27,2,2,0,0,0-1.33.92,5.74,5.74,0,0,0-.48,4,7.77,7.77,0,0,0,1.5,3.42,4,4,0,0,0,2.59,1.56.85.85,0,0,1,.77.93A.86.86,0,0,1,169.91,120.32Z"/><path class="cls-9" d="M207.19,100.52a.85.85,0,0,1-.48-.15,4.42,4.42,0,0,0-4.88-.18.8.8,0,0,1-1.1-.25.81.81,0,0,1,.25-1.11,6.08,6.08,0,0,1,6.68.25.8.8,0,0,1-.47,1.44Z"/><path class="cls-9" d="M188.51,100.52a.8.8,0,0,1-.47-.15,4.42,4.42,0,0,0-4.88-.18.81.81,0,0,1-1.11-.25.82.82,0,0,1,.25-1.11,6.08,6.08,0,0,1,6.68.25.8.8,0,0,1,.18,1.12A.81.81,0,0,1,188.51,100.52Z"/><ellipse class="cls-12" cx="204.71" cy="107.71" rx="2.66" ry="1.42" transform="matrix(0, -1, 1, 0, 96.06, 311.93)"/><path class="cls-12" d="M204.7,111.31h0c-1.34,0-2.35-1.56-2.34-3.61a5,5,0,0,1,.54-2.32,2.13,2.13,0,0,1,1.83-1.26h0c1.34,0,2.35,1.55,2.34,3.6h0a5,5,0,0,1-.54,2.33A2.13,2.13,0,0,1,204.7,111.31Zm0-5.3a2.52,2.52,0,0,0-.5,1.7,2.58,2.58,0,0,0,.48,1.71,2.52,2.52,0,0,0,.5-1.7A2.62,2.62,0,0,0,204.72,106Zm1.41,1.71h0Z"/><ellipse class="cls-15" cx="205.31" cy="106.59" rx="1.16" ry="0.8" transform="translate(97.8 311.42) rotate(-89.74)"/><ellipse class="cls-12" cx="185.21" cy="107.71" rx="2.66" ry="1.42" transform="matrix(0, -1, 1, 0, 76.65, 292.43)"/><path class="cls-12" d="M185.2,111.31h0c-1.34,0-2.35-1.56-2.34-3.61a4.9,4.9,0,0,1,.54-2.32,2.13,2.13,0,0,1,1.83-1.26h0c1.35,0,2.36,1.55,2.35,3.6a5.17,5.17,0,0,1-.54,2.33A2.14,2.14,0,0,1,185.2,111.31Zm0-5.3a2.52,2.52,0,0,0-.5,1.7,2.58,2.58,0,0,0,.48,1.71,3.21,3.21,0,0,0,0-3.41Z"/><ellipse class="cls-15" cx="185.81" cy="106.59" rx="1.16" ry="0.8" transform="translate(78.39 291.92) rotate(-89.74)"/><path class="cls-11" d="M185,126.58c3.26-.09,6.55.74,9.82.65s6.61-1.09,9.93-1.17a3.19,3.19,0,0,1,2.72,4.73c-1.41,3-5,5.16-7.52,6a14.33,14.33,0,0,1-9.54-.14c-2.43-.85-5.46-2.3-7.34-4.58S182.45,126.64,185,126.58Z"/><path class="cls-11" d="M195.45,139.15a16.93,16.93,0,0,1-5.59-1,18.55,18.55,0,0,1-8-5.06,5.19,5.19,0,0,1-.83-5.45,4.43,4.43,0,0,1,3.93-2.65h0a37.42,37.42,0,0,1,5.12.34,33.25,33.25,0,0,0,4.7.32,35.08,35.08,0,0,0,4.75-.57,39.84,39.84,0,0,1,5.18-.61,4.64,4.64,0,0,1,3.93,2.14,4.84,4.84,0,0,1,.24,4.82,12,12,0,0,1-3.83,4.4,18.18,18.18,0,0,1-4.58,2.46A15.05,15.05,0,0,1,195.45,139.15ZM185,126.58l0,1.56a1.3,1.3,0,0,0-1.16.81,2,2,0,0,0,.39,2.17c1.71,2.06,4.57,3.37,6.66,4.1a12.74,12.74,0,0,0,8.5.14c2.4-.85,5.49-2.85,6.62-5.24a1.74,1.74,0,0,0,0-1.79,1.52,1.52,0,0,0-1.23-.71,35.27,35.27,0,0,0-4.75.57,38,38,0,0,1-5.18.6,36.14,36.14,0,0,1-5.13-.33,33.21,33.21,0,0,0-4.69-.32Z"/><path class="cls-9" d="M199.71,132.66c-.78-.15-1.56-.27-2.35-.35a27.07,27.07,0,0,0-7.93.41,17,17,0,0,0-2,.54c-.2.07-.41.14-.62.23a1,1,0,0,0-.09,1.77c.36.18.72.33,1,.49a24.65,24.65,0,0,0,2.33.94,14.3,14.3,0,0,0,9.53.14,14.74,14.74,0,0,0,3.66-1.7,1,1,0,0,0-.26-1.7c-.7-.22-1.48-.33-2.05-.48C200.58,132.84,200.14,132.74,199.71,132.66Z"/><path class="cls-9" d="M195.19,139.15a17,17,0,0,1-5.59-1,25.17,25.17,0,0,1-2.48-1l-.36-.17-.71-.33a2.54,2.54,0,0,1,.21-4.63l.68-.25a16.57,16.57,0,0,1,2.19-.59,28.59,28.59,0,0,1,8.39-.43c.84.08,1.68.21,2.49.37.46.09.93.19,1.38.31l.65.14a14.2,14.2,0,0,1,1.47.36,2.49,2.49,0,0,1,1.73,2,2.53,2.53,0,0,1-1,2.46,16.3,16.3,0,0,1-4.05,1.91A15,15,0,0,1,195.19,139.15Zm-6.41-4.67c.59.27,1.21.51,1.85.74a12.74,12.74,0,0,0,8.5.14c.56-.2,1.29-.46,2-.78l-.5-.11c-.4-.11-.81-.2-1.21-.28h0c-.72-.14-1.46-.25-2.2-.32a25.79,25.79,0,0,0-7.47.38C189.42,134.32,189.1,134.39,188.78,134.48Zm13.8.44Z"/><ellipse class="cls-6" cx="188.46" cy="121.02" rx="2.87" ry="2.13" transform="translate(-6.85 230.65) rotate(-62.01)"/><path class="cls-6" d="M187.9,123.89a1.79,1.79,0,0,1-.91-.24c-1.08-.63-1.3-2.31-.5-3.76a3.33,3.33,0,0,1,2-1.65,1.88,1.88,0,0,1,1.48.16c1.08.62,1.31,2.31.5,3.76h0a3.34,3.34,0,0,1-2,1.65A2.45,2.45,0,0,1,187.9,123.89Zm1.13-5.45a2.31,2.31,0,0,0-.51.07,3.17,3.17,0,0,0-1.78,1.52c-.73,1.31-.55,2.82.4,3.37a1.56,1.56,0,0,0,1.26.13,3.09,3.09,0,0,0,1.78-1.51c.73-1.31.56-2.83-.39-3.38A1.54,1.54,0,0,0,189,118.44Zm1.27,3.65h0Z"/><ellipse class="cls-6" cx="192.06" cy="121" rx="2.87" ry="2.13" transform="translate(-4.92 233.82) rotate(-62.01)"/><path class="cls-6" d="M191.49,123.87a1.76,1.76,0,0,1-.9-.24c-1.08-.63-1.31-2.32-.5-3.77a3.41,3.41,0,0,1,1.95-1.65,2,2,0,0,1,1.49.16c1.08.63,1.3,2.32.5,3.77h0a3.4,3.4,0,0,1-2,1.65A2.38,2.38,0,0,1,191.49,123.87Zm1.13-5.45a1.77,1.77,0,0,0-.5.07,3.12,3.12,0,0,0-1.78,1.51c-.73,1.31-.56,2.83.39,3.38a1.62,1.62,0,0,0,1.27.13,3.15,3.15,0,0,0,1.78-1.51c.73-1.31.55-2.83-.4-3.38A1.51,1.51,0,0,0,192.62,118.42Zm1.28,3.65Z"/><ellipse class="cls-6" cx="195.01" cy="120.98" rx="2.12" ry="2.88" transform="translate(-0.75 1.21) rotate(-0.35)"/><path class="cls-6" d="M195,124a2,2,0,0,1-1.61-.89,3.6,3.6,0,0,1-.66-2.11c0-1.67,1-3,2.24-3h0a2,2,0,0,1,1.61.89,3.55,3.55,0,0,1,.66,2.11h0c0,1.67-1,3-2.24,3Zm0-5.76h0c-1.08,0-2,1.24-2,2.75a3.32,3.32,0,0,0,.6,2,1.75,1.75,0,0,0,1.38.78h0c1.09,0,2-1.24,2-2.75h0a3.33,3.33,0,0,0-.61-2A1.74,1.74,0,0,0,195,118.24Z"/><ellipse class="cls-6" cx="201.43" cy="120.94" rx="2.13" ry="2.87" transform="translate(-33.33 111.66) rotate(-28.72)"/><path class="cls-6" d="M202,123.8a2.15,2.15,0,0,1-.55-.08,3.34,3.34,0,0,1-2-1.62h0c-.82-1.44-.62-3.13.45-3.77a1.88,1.88,0,0,1,1.48-.18,3.38,3.38,0,0,1,2,1.62c.82,1.44.62,3.13-.45,3.77A1.79,1.79,0,0,1,202,123.8ZM199.73,122a3.12,3.12,0,0,0,1.8,1.49,1.6,1.6,0,0,0,1.26-.15c.94-.56,1.1-2.08.35-3.38a3.11,3.11,0,0,0-1.8-1.49,1.64,1.64,0,0,0-1.26.14c-.94.57-1.1,2.08-.35,3.39Z"/><ellipse class="cls-6" cx="197.9" cy="120.96" rx="2.13" ry="2.87" transform="translate(-33.78 109.97) rotate(-28.72)"/><path class="cls-6" d="M198.48,123.82a2.2,2.2,0,0,1-.56-.07,3.41,3.41,0,0,1-2-1.63h0c-.83-1.43-.63-3.13.45-3.77a1.88,1.88,0,0,1,1.48-.17,3.29,3.29,0,0,1,2,1.62c.83,1.43.63,3.13-.45,3.77A1.72,1.72,0,0,1,198.48,123.82Zm-1.15-5.43a1.5,1.5,0,0,0-.78.21c-.94.56-1.1,2.08-.35,3.38h0a3.09,3.09,0,0,0,1.8,1.49,1.6,1.6,0,0,0,1.26-.15c.94-.56,1.1-2.08.35-3.38a3.11,3.11,0,0,0-1.8-1.49A2.1,2.1,0,0,0,197.33,118.39Z"/><path class="cls-9" d="M205.88,138.17a.8.8,0,0,1-.41-1.49c1.6-1,4.44-4.46,4.91-7,.43-2.29-.67-3.27-.72-3.31h0l1-1.25c.07.06,1.89,1.56,1.28,4.85-.58,3.08-3.79,7-5.67,8.09A.77.77,0,0,1,205.88,138.17Z"/><path class="cls-9" d="M179.5,128.91a.8.8,0,0,1-.8-.79c0-3.51,3.29-4.86,5.07-5.09a.79.79,0,0,1,.89.69.8.8,0,0,1-.69.9h0a6.31,6.31,0,0,0-2,.67,3,3,0,0,0-1.71,2.81.8.8,0,0,1-.79.81Z"/><path class="cls-9" d="M195.48,117.45a.66.66,0,0,1-.28,0l-.41-.14a15.94,15.94,0,0,1-2.13-.87c-.77-.41-1.63-1.1-1.31-2.06a12.49,12.49,0,0,1,2.86-4.89l.17-.19a.79.79,0,0,1,1.13-.06.8.8,0,0,1,.07,1.13l-.19.2a10.78,10.78,0,0,0-2.46,4.15,9.38,9.38,0,0,0,2.39,1.07l.43.16a.79.79,0,0,1,.48,1A.8.8,0,0,1,195.48,117.45Z"/><circle class="cls-2" cx="766.63" cy="123.26" r="75.1"/><g class="cls-16"><circle class="cls-2" cx="766.63" cy="123.26" r="75.1"/></g><rect class="cls-4" x="720.74" y="71.26" width="91.79" height="79.86" rx="5.59"/><rect class="cls-17" x="726.86" y="90.7" width="79.54" height="51.09" rx="4.26"/><path class="cls-15" d="M802.15,142.41h-71a4.89,4.89,0,0,1-4.88-4.88V95a4.89,4.89,0,0,1,4.88-4.88h71A4.89,4.89,0,0,1,807,95v42.57A4.89,4.89,0,0,1,802.15,142.41Zm-71-51.09A3.64,3.64,0,0,0,727.49,95v42.57a3.64,3.64,0,0,0,3.63,3.64h71a3.64,3.64,0,0,0,3.63-3.64V95a3.64,3.64,0,0,0-3.63-3.64Z"/><path class="cls-18" d="M737.63,123.18h58a2.25,2.25,0,0,1,2.23,2.23L803.27,141H730l5.4-15.61A2.24,2.24,0,0,1,737.63,123.18Z"/><path class="cls-2" d="M766.63,75.16c-.56,0-.84.28-.84.7v1h-2.68a2.38,2.38,0,0,0-2.38,2.38,4.16,4.16,0,0,0,.24,1.47,1.85,1.85,0,0,0,.37.58l.18,2a3,3,0,0,0,3,2.73h1.28c0,.42.28.7.84.7s.85-.28.85-.7h1.33a3,3,0,0,0,3-2.73l.19-2.11a2,2,0,0,0,.32-.52,4.16,4.16,0,0,0,.24-1.47,2.38,2.38,0,0,0-2.38-2.38h-2.68v-1C767.48,75.44,767.2,75.16,766.63,75.16Z"/><path class="cls-19" d="M735.39,91.46h62.5a0,0,0,0,1,0,0v32.05a3.13,3.13,0,0,1-3.13,3.13H738.52a3.13,3.13,0,0,1-3.13-3.13V91.46A0,0,0,0,1,735.39,91.46Z"/><path class="cls-2" d="M389.65,313a62.52,62.52,0,0,1,0,8.87c-1.79.38-197,.38-198.8,0a52.44,52.44,0,0,1,0-8.87C192.6,312.7,387.86,312.7,389.65,313Z"/><path class="cls-2" d="M563.89,129.55c-.12-1.5-.12-5.83,0-7.33,1-.31,114.38-.31,115.39,0a59.63,59.63,0,0,1,0,7.33C678.27,129.82,564.93,129.82,563.89,129.55Z"/><path class="cls-2" d="M685.92,121.58a55.85,55.85,0,0,1,0,8.58c-4.18,3.48-12.6,9.51-17.71,13.15a26.26,26.26,0,0,1-5.38-7.5c2.17-2,10.6-7.77,13.91-9.94-3.31-2.18-11.74-8-13.91-10a25.93,25.93,0,0,1,5.33-7.49C673.32,112,681.74,118.1,685.92,121.58Z"/><path class="cls-4" d="M277.41,129.55a68.93,68.93,0,0,1,0-7.33c1-.31,114.38-.31,115.39,0a59.63,59.63,0,0,1,0,7.33C391.79,129.82,278.44,129.82,277.41,129.55Z"/><path class="cls-4" d="M399.44,121.58a55.85,55.85,0,0,1,0,8.58c-4.18,3.48-12.61,9.51-17.71,13.15a26.26,26.26,0,0,1-5.38-7.5c2.17-2,10.59-7.77,13.91-9.94-3.32-2.18-11.74-8-13.91-10a25.9,25.9,0,0,1,5.32-7.49C386.83,112,395.26,118.1,399.44,121.58Z"/><path class="cls-2" d="M196.63,322c-1.5.11-5.83.11-7.33,0-.31-.92-.31-101.76,0-102.66a68.79,68.79,0,0,1,7.33,0C196.89,220.21,196.89,321.05,196.63,322Z"/><path class="cls-2" d="M188.65,212.68a56,56,0,0,1,8.59,0c3.47,4.19,9.5,12.61,13.15,17.71a26.26,26.26,0,0,1-7.5,5.38c-2-2.17-7.77-10.59-9.95-13.91-2.17,3.32-8,11.74-9.94,13.91a26.09,26.09,0,0,1-7.5-5.32C179.09,225.29,185.17,216.87,188.65,212.68Z"/><path class="cls-2" d="M768.55,313a52.44,52.44,0,0,1,0,8.87c-1.75.38-197,.38-198.8,0a59.69,59.69,0,0,1,0-8.87C571.53,312.7,766.8,312.7,768.55,313Z"/><path class="cls-2" d="M762.77,208.58a63.89,63.89,0,0,1,7.33,0c.31,1,.31,112.36,0,113.38-1.5.12-5.83.12-7.33,0C762.5,320.94,762.5,209.58,762.77,208.58Z"/><path class="cls-2" d="M586.07,300a26.12,26.12,0,0,1,5.33,7.5c-2.17,2-10.6,7.77-13.91,9.95,3.31,2.17,11.74,8,13.91,9.94a26.26,26.26,0,0,1-5.38,7.5c-5.11-3.65-13.53-9.67-17.71-13.15a56,56,0,0,1,0-8.59C572.49,309.72,580.91,303.63,586.07,300Z"/><circle class="cls-2" cx="480" cy="316.61" r="75.1"/><path class="cls-4" d="M459.13,350.27c1.23-.1,9.37-.1,11.13,0a34.16,34.16,0,0,1,0,3.79c-1.19,0-5.85,0-6.7,0a21.57,21.57,0,0,0,0,3.22c1.26,0,6.54,0,7.65,0a24.56,24.56,0,0,1,0,3.84c-1.5.1-10.38.1-12.08,0C459,358.83,459,352.57,459.13,350.27Zm.56,12.29c1.37-.15,16.05-.15,17.42,0a82.93,82.93,0,0,1,0,9.46c-1.24.12-16.18.12-17.42,0A82.93,82.93,0,0,1,459.69,362.56Zm13.12,5.85a16.45,16.45,0,0,0,0-2.22c-1-.05-7.86-.07-8.79,0a16.45,16.45,0,0,0,0,2.22C465,368.49,471.85,368.49,472.81,368.41Zm.05-18.47a20.13,20.13,0,0,1,4.25,0c.07.49.1,2.09.13,4,.9,0,1.77,0,2.21.1a19,19,0,0,1,0,3.84c-.44,0-1.31.1-2.21.1,0,1.75-.06,3.25-.13,3.71a30.08,30.08,0,0,1-4.25,0C472.73,360.4,472.73,351.23,472.86,349.94Z"/><path class="cls-4" d="M480.86,350.53a51,51,0,0,1,6.31,0c.13,1.06.13,19.36,0,20.42a39.45,39.45,0,0,1-4.35,0c-.06-1.73-.06-14.57,0-16.3a14.24,14.24,0,0,1-2,0A25.76,25.76,0,0,1,480.86,350.53Zm7.31,0a55.85,55.85,0,0,1,6.6,0c.13,1.06.13,19.36,0,20.42a39.63,39.63,0,0,1-4.36,0c-.05-1.73-.05-14.57,0-16.3a18.54,18.54,0,0,1-2.24,0A28.33,28.33,0,0,1,488.17,350.53Zm8.43-.59a20.32,20.32,0,0,1,4.27,0c.18,1.29.18,20.55,0,21.81a16.92,16.92,0,0,1-4.27,0C496.44,370.49,496.44,351.23,496.6,349.94Z"/><path class="cls-4" d="M492.17,301.69a4.91,4.91,0,0,0-4.91-4.9h-5.52v-2.1c0-.87-.58-1.44-1.74-1.44s-1.74.57-1.74,1.44v2.1h-5.52a4.91,4.91,0,0,0-4.91,4.9,8.27,8.27,0,0,0,.51,3,3.59,3.59,0,0,0,.75,1.19l.38,4.24a6.15,6.15,0,0,0,6.15,5.62h2.64c0,.87.58,1.44,1.74,1.44s1.74-.57,1.74-1.44h2.73a6.16,6.16,0,0,0,6.16-5.62l.38-4.35a3.5,3.5,0,0,0,.65-1.08A8.27,8.27,0,0,0,492.17,301.69Z"/><path class="cls-4" d="M528,300a18.47,18.47,0,0,0-8.91-15.81,8.15,8.15,0,0,1-3.36-4,18.48,18.48,0,0,0-17.21-11.75h-.14a8.42,8.42,0,0,1-5.75-2.31,18.49,18.49,0,0,0-25.18,0,8.42,8.42,0,0,1-5.75,2.31h-.14a18.48,18.48,0,0,0-17.21,11.75,8.15,8.15,0,0,1-3.36,4,18.48,18.48,0,0,0,7,34.1,3,3,0,0,1,2.59,2.95v7.55a7.11,7.11,0,0,1-2.91,5.74l-3.24,2.38a1.87,1.87,0,0,0-.77,1.51h0a1.88,1.88,0,0,0,1.88,1.87h10.41a5.76,5.76,0,0,1,2.48.56l3.07,1.42a5.89,5.89,0,0,0,3.77.42l4.28-1a5.85,5.85,0,0,1,3.6.34l4.59,2a6,6,0,0,0,4.64,0l4.6-2a5.86,5.86,0,0,1,3.6-.33l4.3,1a5.93,5.93,0,0,0,3.78-.42l3.06-1.42a5.81,5.81,0,0,1,2.49-.56h10.4a1.88,1.88,0,0,0,1.88-1.87h0a1.85,1.85,0,0,0-.77-1.5l-3.24-2.36h0a3.18,3.18,0,0,0-3.38-.25,10.14,10.14,0,0,1-4.86,1.24h-23a.93.93,0,0,1-.93-.78.85.85,0,0,1,.18-.68l7.65-11.74a25.31,25.31,0,0,1-8.05,1.16c-11,0-18.27-5.24-18.27-17.5S469,285.12,480,285.12c10.44,0,17.31,8,18,19.31.28.39.57.64.9.63a4.19,4.19,0,0,0,1.72-.5c.33-.19.86-.63,1.22-.11s.05,1.07-.17,1.52a6,6,0,0,1-1.79,2.25l.21-.16a6,6,0,0,0-2.41,4.93,5.53,5.53,0,0,0,2,4.66h0a10,10,0,0,1,2.77,12h0a.57.57,0,0,0,0,.43.55.55,0,0,0,.36.35.56.56,0,0,0,.67-.26v0a9.93,9.93,0,0,0,1.18-4.73,10,10,0,0,0-2.29-6.4h0a10,10,0,0,1,7.17-15.88h.15a5.85,5.85,0,0,1,1.45,0,6.21,6.21,0,0,1,.66,12.27,1.69,1.69,0,0,0-.45.14,1.44,1.44,0,0,0-.82,1.3,1.47,1.47,0,0,0,.4,1h0a1.3,1.3,0,0,0,.18.15,1.22,1.22,0,0,0,.81.27A18.47,18.47,0,0,0,528,300Z"/><path class="cls-2" d="M481.12,335.48h23.05a10.2,10.2,0,0,0,10.21-10.12,10,10,0,0,0-3.46-7.52h0a1.47,1.47,0,0,1,.68-2.42,6.21,6.21,0,0,0-.47-12.3,5.84,5.84,0,0,0-1.45,0h-.15A10,10,0,0,0,502.36,319h0a10,10,0,0,1,2.29,6.4,9.93,9.93,0,0,1-1.18,4.73v0a.56.56,0,0,1-.67.26.55.55,0,0,1-.36-.35.57.57,0,0,1,0-.43h0a10,10,0,0,0-2.77-12h0a5.53,5.53,0,0,1-2-4.66,6,6,0,0,1,2.41-4.93l-.21.16a6,6,0,0,0,1.79-2.25c.22-.45.46-1.11.17-1.52s-.89-.08-1.22.11a4.19,4.19,0,0,1-1.72.5c-1,0-1.5-2.16-2.92-3.46h0a6.23,6.23,0,0,0-4.29-1.72h0a3.46,3.46,0,0,0-3.39,2.94,6.56,6.56,0,0,0-.07.9,6.21,6.21,0,0,0,1.93,4.5h0a1.48,1.48,0,0,1,.5,1.1,1.46,1.46,0,0,1-.93,1.36h0a6.06,6.06,0,0,1-2.34.46,6.21,6.21,0,0,1-5.59-3.49h0a1.46,1.46,0,0,0-1.38-.8,1.48,1.48,0,0,0-1.38,1.26,1.67,1.67,0,0,0,0,.55h0a10.06,10.06,0,0,0,8.61,7.94h0a2.38,2.38,0,0,1,2.13,2.36,2.47,2.47,0,0,1-.36,1.26l0,.08L480.41,334h0a.87.87,0,0,0-.19.55.9.9,0,0,0,.9.91"/><path class="cls-2" d="M491.76,302.9a.91.91,0,1,1-.91-.9A.91.91,0,0,1,491.76,302.9Z"/><path class="cls-2" d="M480.38,330.76a1,1,0,0,1-.63-.23,1,1,0,0,1-.17-1.44l1.17-1.48c-.27,0-.53,0-.75,0-6.75,0-12.39-1.85-16.29-5.37-4.22-3.8-6.36-9.29-6.38-16.32,0-7.49,2.67-14.48,7.37-19.2a20.49,20.49,0,0,1,14.78-6.15c11.87,0,21.2,9,22.18,21.37a1,1,0,1,1-2.05.17A21.66,21.66,0,0,0,493.15,288a19.75,19.75,0,0,0-13.67-5.37,18.48,18.48,0,0,0-13.33,5.55c-4.32,4.33-6.78,10.8-6.76,17.74,0,12.49,7.54,19.65,20.61,19.65.79,0,2.17-.12,2.92-.18a1,1,0,0,1,1,.53,1.05,1.05,0,0,1-.1,1.13l-2.62,3.31A1,1,0,0,1,480.38,330.76Z"/><rect class="cls-15" x="262.88" y="259.48" width="55.12" height="112.29" transform="translate(606.07 25.19) rotate(90)"/><path class="cls-2" d="M245.77,306.29a25.13,25.13,0,0,1,4.59,0c1.1,3.92,4.71,19.68,4.88,20.94a16.5,16.5,0,0,1-4.51,1c-.25-.73-2-8.9-2.58-13.16-.67,4-2.57,12.66-2.85,13.41a15.62,15.62,0,0,1-4.48-1.06C240.9,326.17,244.68,310.21,245.77,306.29Zm8.18,7.22c.64,0,1.59,0,2.63,0,0-3.94,0-7.22.09-7.75a19.92,19.92,0,0,1,4.5,0c.11,1.4.11,21.84,0,23.24a19.89,19.89,0,0,1-4.5,0c-.06-.67-.09-5.85-.09-11.15-1,0-2,0-2.63-.05A21.66,21.66,0,0,1,254,313.51Zm8.73-7.89a20.81,20.81,0,0,1,4.6,0c.16,1.4.16,22.34,0,23.71a17.68,17.68,0,0,1-4.6,0C262.6,328,262.6,307,262.68,305.62Z"/><path class="cls-2" d="M272.18,311.55c-1.32,0-2.33,0-2.69-.05a20.26,20.26,0,0,1,0-4.12c.59-.06,2.41-.11,4.56-.11,0-.9,0-1.85.09-2.47a28.64,28.64,0,0,1,4.9,0c0,.62.08,1.57.08,2.47,2.1,0,3.84.05,4.34.11a20.25,20.25,0,0,1,0,4.12c-.39,0-1.34,0-2.55.05,1.18,2.38,2.72,5.57,3,6.47a14.35,14.35,0,0,1-3.95,2.1,67.32,67.32,0,0,1-3.45-7.11,65.76,65.76,0,0,1-3.44,7.11,14.35,14.35,0,0,1-4-2.1C269.46,317.12,271,313.93,272.18,311.55Zm-2,9.63c1.42-.14,20.32-.14,21.72,0,.14,1.18.14,7.31,0,8.46-1.12.08-3.64.08-4.81,0,0-.84,0-3.16,0-4.23-1.29,0-15.65,0-16.91,0A33.15,33.15,0,0,1,270.22,321.18Zm14-10.47c.84,0,2-.08,3,0,0-2.44.06-4.51.11-5a21,21,0,0,1,4.62,0c.2,1.4.2,13.18,0,14.58a29.62,29.62,0,0,1-4.62,0c-.05-.53-.08-2.74-.11-5.26-1,0-2.15,0-3-.06A22.31,22.31,0,0,1,284.22,310.71Z"/><path class="cls-2" d="M310.79,305.73a46,46,0,0,1,5,0c2.07,3.11,5.71,9,7.59,12.18a15.69,15.69,0,0,1-4.12,2.66c-1-1.49-4.87-7.84-6-9.63-1.09,1.79-5,8.14-6,9.63a15.52,15.52,0,0,1-4.12-2.66C305.08,314.74,308.71,308.84,310.79,305.73ZM303.48,325c.48,0,3.67-.08,7.36-.08,0-2.21,0-5.4.06-6.38a41.47,41.47,0,0,1,4.73,0c.08,1,.11,4.17.06,6.38,3.64,0,6.8,0,7.36.08a14.88,14.88,0,0,1,0,4.32c-1.4.11-18.42.11-19.57,0A15.63,15.63,0,0,1,303.48,325Z"/><path class="cls-2" d="M324.51,317.1c.53,0,2.91,0,5.71,0v-1.15l-4.87-.08a82.91,82.91,0,0,1,0-10c1.34-.2,12.46-.2,14.36,0a20.72,20.72,0,0,1,0,4.17c-1.85,0-7.95,0-9.44,0v1.71c1.94-.06,8-.06,9.72,0a25.35,25.35,0,0,1,0,4.09c-.59.05-2.55.05-4.87.08v1.15c2.71,0,5.07,0,5.71,0a23.73,23.73,0,0,1,0,4.22c-1.68.09-14.95.09-16.32,0A21.23,21.23,0,0,1,324.51,317.1Zm.58,5.4c1.43-.14,13.89-.14,15.12,0a70.82,70.82,0,0,1,0,7.14,34.66,34.66,0,0,1-4.78,0c0-.59,0-2.46,0-3.25-1.26,0-9.08,0-10.34,0A19.45,19.45,0,0,1,325.09,322.5Z"/><path class="cls-2" d="M297.61,314.38a2.8,2.8,0,1,1-2.83,2.8A2.8,2.8,0,0,1,297.61,314.38Z"/><rect class="cls-15" x="645.53" y="286.67" width="55.12" height="57.92" transform="translate(988.72 -357.46) rotate(90)"/><path class="cls-2" d="M653.59,318.38c1.15-.14,16.78-.11,18.18,0a14.83,14.83,0,0,1,0,4.26c-.56.06-3.39.08-6.67.08,0,2.38,0,5.77-.08,6.75a21.5,21.5,0,0,1-4.68,0c-.08-1-.11-4.37-.08-6.75-3.31,0-6.19,0-6.67-.08A16,16,0,0,1,653.59,318.38Zm6.89-12.65a29.78,29.78,0,0,1,4.43,0c1.79,2.15,4.9,6.49,6.77,9.13a13.5,13.5,0,0,1-3.86,2.77c-1-1.12-4-5.46-5.13-7.17-1.12,1.71-4.11,6.05-5.12,7.17a13.44,13.44,0,0,1-3.86-2.75C655.55,312.22,658.69,307.88,660.48,305.73Z"/><path class="cls-2" d="M673.14,306.26c1.4-.14,8.54-.14,9.94,0,0,.67.08,4,.11,7.87,1.09,0,2.41,0,3.5,0,0-4.29.06-7.95.11-8.51a21.26,21.26,0,0,1,4.65,0c.2,1.4.2,22.34,0,23.71a18.06,18.06,0,0,1-4.65,0c-.08-.64-.11-5.57-.11-10.75h-3.5c0,4.73-.06,9.18-.11,9.86a26.69,26.69,0,0,1-4.73,0c-.06-1.32-.06-16.24,0-17.62-1.6.06-3.92.09-5.21,0A24.81,24.81,0,0,1,673.14,306.26Z"/><path class="cls-2" d="M460.79,171.44c.34,0,1.63-.06,3.33-.09,0-3.1,0-8.68.06-9.74a27,27,0,0,1,4.76,0c.06,1.06.08,6.61.06,9.74,3.41,0,6.77,0,7.44.09a14.68,14.68,0,0,1,0,4.34c-1.4.11-14.5.11-15.65,0A16.59,16.59,0,0,1,460.79,171.44Zm.76-18.68c1.79-.08,12.46-.08,14.11,0,.11,1.37.11,14.31,0,15.71a21.69,21.69,0,0,1-4.7,0c-.06-1.71,0-8.71,0-11.37-1,.06-8.07,0-9.41,0A22.17,22.17,0,0,1,461.55,152.76Z"/><path class="cls-2" d="M477.87,152.76c1.4-.14,7.37-.14,8.77,0,.14,1.15.14,11.17,0,12.32a39.22,39.22,0,0,1-4.6,0c-.05-1.87-.05-6.05,0-7.92-1.14.05-2.91.05-4.17,0A29.37,29.37,0,0,1,477.87,152.76Zm1,13.64c1.43-.14,18.4-.14,19.8,0,.14,1.17.14,8.62,0,9.77-1.12.08-3.64.08-4.82,0,0-.84,0-4.48,0-5.54-1.29.05-13.72.05-15,0A37.29,37.29,0,0,1,478.88,166.4Zm9.38-14.14a23.31,23.31,0,0,1,4.42,0c0,.45.06,2.24.06,4.37h1.37c0-2.19,0-4,0-4.49a21.53,21.53,0,0,1,4.54,0c.16,1.27.16,11.93,0,13.25a31.26,31.26,0,0,1-4.54,0l0-4.48h-1.37c0,2.1,0,3.86-.06,4.37a19.17,19.17,0,0,1-4.42,0C488.15,163.93,488.15,153.43,488.26,152.26Z"/><rect class="cls-2" x="716.36" y="147.11" width="100.56" height="29.53"/><path class="cls-4" d="M730.05,152.54a25.78,25.78,0,0,1,4.65,0c0,.5,0,1.65,0,3,1.76,0,4.84,0,6.55,0,0-1.32,0-2.47,0-3a25.45,25.45,0,0,1,4.62,0c.17,1.68.17,11.9,0,13.72-1.34.14-14.28.17-15.88,0C729.86,163.93,729.89,154.25,730.05,152.54Zm.65,15.29a22.28,22.28,0,0,1,4.76,0c0,.92,0,2.85,0,3.61,1.29-.06,16.29-.06,17.53,0a20.13,20.13,0,0,1,0,4.39c-1.91.11-20.28.11-22.29,0C730.59,173.93,730.56,169.51,730.7,167.83Zm4-5.55c.62.06,6,.06,6.61,0l0-2.85c-1.71,0-4.79,0-6.55,0Zm13.36-10.14a22.58,22.58,0,0,1,4.65,0c.08.59.14,3.39.14,6.58a22,22,0,0,1,2.4.12,20.75,20.75,0,0,1,0,4.17c-.47.05-1.42.11-2.4.11,0,3.14-.06,5.85-.14,6.41a32.74,32.74,0,0,1-4.65,0C748,168.16,748,153.55,748.06,152.14Z"/><path class="cls-4" d="M756.82,152.71a24.91,24.91,0,0,1,4.73,0c.06,1.31.06,4.31,0,5.06,1-.11,5.94-.11,7.23,0a21.35,21.35,0,0,1,0,4.23c-1.4.14-10.56.14-12,0C756.68,160.29,756.68,154.13,756.82,152.71Zm.53,10.86a32.79,32.79,0,0,1,4.65,0c0,.48,0,1.34,0,2.35,2.16,0,6.41,0,8.51,0,0-1,0-1.9,0-2.35a32,32,0,0,1,4.59,0c.11,1.34.14,10.75,0,12.57-1.34.14-16.21.17-17.81,0C757.19,173.82,757.24,165,757.35,163.57ZM762,172c.62.05,8,.05,8.57,0l0-2.24c-2.1,0-6.35,0-8.51,0Zm8.54-19.83a22.29,22.29,0,0,1,4.62,0c.09.54.11,2,.14,3.65a22.91,22.91,0,0,1,2.41.11,20.75,20.75,0,0,1,0,4.17,23.12,23.12,0,0,1-2.44.11c0,1.07,0,1.91-.11,2.3a32.31,32.31,0,0,1-4.62,0C770.4,161.1,770.4,153.55,770.54,152.14Z"/><path class="cls-4" d="M779.11,153.26c.62,0,3,0,5.68,0,0-.59,0-1.2.06-1.76a26.69,26.69,0,0,1,4.73,0,16.86,16.86,0,0,1,.09,1.76c2.54,0,4.7,0,5.34,0a15,15,0,0,1,0,3.9c-1.7.08-14.33.08-15.9,0A12.75,12.75,0,0,1,779.11,153.26Zm8.12,4.51c5.54,0,7.9,1.77,7.9,4.37s-2.36,4.4-7.9,4.4-7.9-1.77-7.9-4.4S781.69,157.77,787.23,157.77Zm-6.86,9.58c1.48-.14,18.84-.17,20.33,0a67.85,67.85,0,0,1,0,8.79c-1.35.14-19,.14-20.33,0A64.46,64.46,0,0,1,780.37,167.35Zm6.86-4.2c2.86,0,3.67-.36,3.67-1s-.81-1-3.67-1-3.67.36-3.67,1S784.37,163.15,787.23,163.15Zm8.79,9.29a5.24,5.24,0,0,0,0-1.37c-1.06,0-9.94-.08-10.95,0a6.27,6.27,0,0,0,0,1.37C786.11,172.53,795,172.53,796,172.44Zm.06-20.3a22.29,22.29,0,0,1,4.62,0c.08.65.14,3.23.14,6a22.91,22.91,0,0,1,2.41.11,20.75,20.75,0,0,1,0,4.17,22.91,22.91,0,0,1-2.41.11c0,1.88-.09,3.39-.14,3.84a32.31,32.31,0,0,1-4.62,0C795.94,165,795.94,153.55,796.08,152.14Z"/><path class="cls-2" d="M164.18,162.39c1.43-.08,14.87-.08,16.61,0a23,23,0,0,1,0,4.15c-1.74.05-15.18.05-16.61,0A20.54,20.54,0,0,1,164.18,162.39Zm8.29-10.72c5.49,0,7.84,2,7.84,5.07s-2.35,5.07-7.84,5.07-7.84-2-7.84-5.07S167,151.67,172.47,151.67Zm-7.67,16c1.31-.14,14-.14,15.37,0a64.46,64.46,0,0,1,0,8.79c-1.43.17-13.94.17-15.37,0A64.46,64.46,0,0,1,164.8,167.63Zm4.81,5c1,.09,4.74.09,5.74,0v-1.17c-1-.09-4.73-.09-5.74,0Zm2.86-14.67c2.21,0,2.83-.56,2.83-1.2s-.62-1.21-2.83-1.21-2.83.56-2.83,1.21S170.26,157.94,172.47,157.94Z"/><path class="cls-2" d="M186.89,152.43a28.29,28.29,0,0,1,4.87,0c.62.95,4.87,9.88,5.29,11a18.8,18.8,0,0,1-4.06,2.1c-.53-.75-2.29-4.4-3.64-7.33-1.28,3-3,6.72-3.44,7.5a17.57,17.57,0,0,1-4.26-1.91C182,162.59,186.25,153.46,186.89,152.43Zm-3.75,14.28c1.43-.15,18.08-.15,19.48,0,.14,1.17.14,8.59,0,9.46-1.12.08-3.63.08-4.81,0,0-.84,0-4.17,0-5.24-1.29,0-13.41,0-14.67,0A33,33,0,0,1,183.14,166.71ZM198,152.14a22.29,22.29,0,0,1,4.62,0c.2,1.41.2,12.19,0,13.58a29.62,29.62,0,0,1-4.62,0C197.87,164.35,197.87,153.55,198,152.14Z"/><path class="cls-2" d="M207.64,156.88c-1.26,0-2.24,0-2.58-.06a21.86,21.86,0,0,1,0-4.28c1.63-.23,12.57-.23,14,0a21.83,21.83,0,0,1,0,4.28c-.39,0-1.34,0-2.57.06,1.14,2.35,2.57,5.54,2.85,6.49a14.45,14.45,0,0,1-4.23,1.88,71.25,71.25,0,0,1-3.05-6.94,74.64,74.64,0,0,1-2.88,6.91,15.15,15.15,0,0,1-4.26-1.68A66,66,0,0,1,207.64,156.88Zm-1.77,9.35c1.49-.17,20-.17,21.45,0a81.91,81.91,0,0,1,0,9.91c-1.34.14-20.1.14-21.45,0A86.22,86.22,0,0,1,205.87,166.23Zm16.77,6a11.58,11.58,0,0,0,0-2c-1.06-.06-11.06-.09-12.06,0a11.58,11.58,0,0,0,0,2C211.61,172.31,221.61,172.31,222.64,172.22Zm-3.27-14.95c.84-.06,2.1-.09,3.22-.06,0-2.38,0-4.48.11-5.07a22.29,22.29,0,0,1,4.62,0c.2,1.41.2,11.71,0,13.11a32.31,32.31,0,0,1-4.62,0c-.06-.48-.08-2-.08-3.84-1.15,0-2.41,0-3.25,0A22.31,22.31,0,0,1,219.37,157.27Z"/></svg>