<svg id="레이어_1" data-name="레이어 1" xmlns="http://www.w3.org/2000/svg" xmlns:xlink="http://www.w3.org/1999/xlink" viewBox="0 0 741.58 432.49"><defs><style>.cls-1{fill:none;}.cls-2{fill:#154734;}.cls-3{clip-path:url(#clip-path);}.cls-4{fill:#ffcd00;}.cls-5{fill:#4b3e3b;}.cls-6{fill:#65524d;}.cls-7{fill:#ffe0cf;}.cls-8{fill:#ffbda6;}.cls-9{fill:#b3b3b3;}.cls-10{fill:#f7a19b;}.cls-11{fill:#433734;}.cls-12{fill:#edf5f7;}.cls-13{fill:#96c9d6;}.cls-14{fill:#fff;}.cls-15{clip-path:url(#clip-path-2);}.cls-16{fill:#b1c8e5;}.cls-17{fill:#a5b8ce;}.cls-18{fill:#8595aa;}</style><clipPath id="clip-path"><circle class="cls-1" cx="369.8" cy="96.4" r="75.1"/></clipPath><clipPath id="clip-path-2"><circle class="cls-2" cx="656.71" cy="96.4" r="75.1"/></clipPath></defs><g class="cls-3"><circle class="cls-4" cx="369.8" cy="96.4" r="75.1"/></g><circle class="cls-4" cx="85.85" cy="96.4" r="75.1"/><path class="cls-5" d="M366.21,35.91a14.42,14.42,0,0,1,8.6-1.86,32.59,32.59,0,0,1,11,3.43,34.27,34.27,0,0,1,10.24,7.79,30.7,30.7,0,0,1,8.1,19.16c.27,7.89-2.62,15.55-3,23.43-.22,4.85,2.91,10.19,1.79,14.91-1,4.18-3.72,7.35-7.68,10-1.46,1-4.18,2.22-5.83.83-1.95-1.66-.07-4.72.27-6.62a7.93,7.93,0,0,0-3.63-7.85c-2.19-1.4-3.38-2.49-3.17-5.2.81-10.36-13.73-14.2-19.93-22.84-3.37-4.68-6.65-9.76-7-15.4-.27-3.89.89-7.72,2-11.45.88-2.89,1.08-4.06,2-6.94"/><path class="cls-5" d="M366.34,36.1a16,16,0,0,1,1.41-.86,14.59,14.59,0,0,1,1.6-.71,13.17,13.17,0,0,1,3.63-.75,15.06,15.06,0,0,1,1.9,0c.31,0,.63,0,.94.09l.46.05.46.07a29.25,29.25,0,0,1,3.48.73,35.89,35.89,0,0,1,6.32,2.39,32.44,32.44,0,0,1,5.7,3.56,35.1,35.1,0,0,1,4.81,4.54l.55.63.51.63c.35.43.67.87,1,1.31a8,8,0,0,1,.47.67l.46.67.43.69c.14.23.3.46.43.69a33,33,0,0,1,2.69,5.86A29,29,0,0,1,405,62.58a33.81,33.81,0,0,1,0,6.28c-.17,2-.48,4.07-.83,6.06a117.05,117.05,0,0,0-1.79,11.76l0,.73,0,.36v.35a13,13,0,0,0,.06,1.39,22.65,22.65,0,0,0,.51,2.84c.44,1.92,1,3.88,1.36,6a14.53,14.53,0,0,1,.15,3.24l0,.42-.06.41c0,.14-.06.28-.08.42l-.05.21-.05.19-.1.4c0,.13-.07.26-.12.39s-.16.52-.26.77a14.5,14.5,0,0,1-1.47,3,17.33,17.33,0,0,1-2.09,2.61,22.3,22.3,0,0,1-2.49,2.19l-.66.48-.67.46c-.21.15-.47.31-.71.45a8,8,0,0,1-.76.41,9.6,9.6,0,0,1-1.65.65,6,6,0,0,1-1.94.26,4.11,4.11,0,0,1-1.08-.17,3.76,3.76,0,0,1-1-.49,3.59,3.59,0,0,1-.81-.74,3.2,3.2,0,0,1-.53-.93,3.72,3.72,0,0,1-.22-1,5.25,5.25,0,0,1,0-.89,8.24,8.24,0,0,1,.31-1.57c.14-.49.3-1,.45-1.39s.29-.87.38-1.24a2.54,2.54,0,0,0,0-.29l.05-.3V106a1.51,1.51,0,0,0,0-.3v-.3c0-.1,0-.21,0-.31s0-.2,0-.3l-.05-.3a6.89,6.89,0,0,0-.91-2.32,7.19,7.19,0,0,0-1.67-1.9,2.48,2.48,0,0,0-.26-.19l-.27-.19-.65-.43a10.79,10.79,0,0,1-1.28-1A5.33,5.33,0,0,1,382.52,97a4.92,4.92,0,0,1-.52-1.66l0-.41c0-.14,0-.27,0-.41v-.4l0-.38a9.55,9.55,0,0,0,0-1.31,8.76,8.76,0,0,0-.55-2.59,10.7,10.7,0,0,0-1.31-2.44,16.73,16.73,0,0,0-1.93-2.24,27.76,27.76,0,0,0-2.33-2.08C372.57,80.4,368.8,78,365.56,75c-.41-.38-.8-.76-1.19-1.17s-.75-.81-1.1-1.24-.69-.88-1-1.32-.62-.87-.92-1.32c-.61-.88-1.2-1.77-1.77-2.69-.28-.45-.55-.92-.82-1.38s-.53-.93-.77-1.41a28.19,28.19,0,0,1-1.54-3.55,19.11,19.11,0,0,1-1-4.52,16.85,16.85,0,0,1-.06-2.35,22.16,22.16,0,0,1,.22-2.23,29.29,29.29,0,0,1,.85-3.67c.59-2,1.23-3.71,1.82-5.44.3-.87.58-1.74.89-2.64s.66-1.81,1.06-2.76c-.24,1-.48,2-.7,3s-.44,2-.7,3-.54,2-.8,3-.5,2-.71,3a22.71,22.71,0,0,0-.54,6l0,.37,0,.36c0,.25.05.5.09.74l.12.73,0,.19,0,.18.08.36.09.37a2.42,2.42,0,0,0,.1.36c.07.24.13.48.21.72.16.48.32,1,.51,1.42s.4.94.6,1.41.44.92.69,1.37.49.9.75,1.35c.13.23.27.45.4.67l.41.67c.56.88,1.15,1.74,1.75,2.61l.92,1.29.46.62.24.3.25.3a30.79,30.79,0,0,0,4.59,4.29c1.69,1.32,3.47,2.56,5.25,3.86a47.47,47.47,0,0,1,5.17,4.2,18.71,18.71,0,0,1,2.22,2.55,12.83,12.83,0,0,1,1.61,3,10.53,10.53,0,0,1,.61,3.32c0,.55,0,1.16,0,1.57a3.86,3.86,0,0,0,.16,1.25,2.71,2.71,0,0,0,.58,1,5.48,5.48,0,0,0,1,.91c.2.15.41.29.63.43l.33.22.38.26.19.13.19.15.35.29a8,8,0,0,1,.66.64,9.25,9.25,0,0,1,1.9,3,8.37,8.37,0,0,1,.56,3.43,6.42,6.42,0,0,1-.09.87,3.39,3.39,0,0,1-.08.44c0,.14-.07.28-.11.42-.15.53-.33,1-.48,1.5a11.14,11.14,0,0,0-.36,1.37,3.5,3.5,0,0,0-.05,1.19,1.28,1.28,0,0,0,.42.78,1.42,1.42,0,0,0,.82.37,3.46,3.46,0,0,0,1.19-.12,6.89,6.89,0,0,0,1.3-.49l.64-.34.31-.19.15-.1.16-.11c.21-.15.43-.29.63-.44l.62-.46a18.78,18.78,0,0,0,2.26-2,13.85,13.85,0,0,0,3.09-4.8,12.8,12.8,0,0,0,.42-1.33c0-.12.06-.23.08-.34s.05-.21.07-.32l.05-.33,0-.33a12.29,12.29,0,0,0,0-1.36c0-.46-.07-.92-.13-1.39-.26-1.87-.81-3.77-1.25-5.74a26.8,26.8,0,0,1-.52-3c-.05-.52-.08-1-.08-1.57s.06-1,.09-1.53a108.2,108.2,0,0,1,1.91-11.73c.37-1.94.7-3.88.91-5.84a32.74,32.74,0,0,0,.14-5.94,27.23,27.23,0,0,0-1.14-5.9c-.14-.49-.32-1-.49-1.44-.08-.24-.18-.47-.27-.71l-.29-.71-.31-.69c-.11-.23-.21-.47-.33-.7-.23-.45-.45-.91-.71-1.36a33.17,33.17,0,0,0-8-9.55,35.4,35.4,0,0,0-5.27-3.58c-.93-.52-1.91-1-2.89-1.46s-2-.86-3-1.23a24.41,24.41,0,0,0-3.37-1c-.3-.08-.61-.13-.92-.19l-.47-.08-.47-.07a15.2,15.2,0,0,0-1.9-.15,14.43,14.43,0,0,0-3.73.44c-.59.15-1.16.33-1.71.53S366.83,35.88,366.34,36.1Z"/><path class="cls-6" d="M398.67,83c-.05.4-.11.74-.15,1.07a5.14,5.14,0,0,0,0,1c0,.3,0,.59,0,.88a8.7,8.7,0,0,1,0,.89,31.83,31.83,0,0,0-.1,3.52,25.41,25.41,0,0,0,.37,3.41c.19,1.1.47,2.23.61,3.51a17.6,17.6,0,0,1,0,3.56,30.86,30.86,0,0,1-.55,3.48,13.34,13.34,0,0,1-1.24,3.63,5.61,5.61,0,0,1-.75,1.08,4.33,4.33,0,0,1-1,.86,4.12,4.12,0,0,1-.82.4,2,2,0,0,1-.94.08,14.81,14.81,0,0,0,1.06-1.35,13,13,0,0,0,.82-1.39,10.84,10.84,0,0,0,.95-3.19c.08-.57.15-1.15.2-1.73s.08-1.16.1-1.74a20.53,20.53,0,0,0-.19-3.43c-.14-1.12-.33-2.27-.42-3.47s-.11-2.38-.1-3.63a27.45,27.45,0,0,1,.3-3.73,5.66,5.66,0,0,1,.19-.91,5.93,5.93,0,0,1,.32-.92c.14-.3.28-.68.49-1a2.56,2.56,0,0,1,.39-.48A1.35,1.35,0,0,1,398.67,83Z"/><path class="cls-6" d="M387,94.14a3.07,3.07,0,0,1,1.39.61,3.41,3.41,0,0,1,1,.81c.53.64,1,1.3,1.54,2s1,1.38,1.39,2.11a11.41,11.41,0,0,1,1.07,2.35,8.63,8.63,0,0,1,.29,1.25,8.44,8.44,0,0,1,.14,1.22c0,.41,0,.81,0,1.23s-.06.84-.12,1.28a11.73,11.73,0,0,1-.65,2.56,3.38,3.38,0,0,1-.16.36,4.23,4.23,0,0,1-.22.42c-.09.14-.18.28-.27.4a3,3,0,0,1-.26.31l-.24.22-.24.19a1.93,1.93,0,0,1-.66.28,7.7,7.7,0,0,1,.17-1.25c.08-.39.18-.75.29-1.12a11,11,0,0,0,.24-1.11,10.55,10.55,0,0,0,.12-1.13,10.27,10.27,0,0,0-.12-2.22,11.76,11.76,0,0,0-.57-2.17,20.61,20.61,0,0,0-1.78-4.12c-.41-.67-.84-1.34-1.31-2a4.75,4.75,0,0,1-.56-1.1C387.31,95.11,386.94,94.68,387,94.14Z"/><path class="cls-5" d="M368.05,37.71c-5.29-5-13.15-1.73-19.58,1.63-7.83,4.09-14.89,15.69-14.8,24.17.09,8.22,2.09,13.68,5.12,20.64,2.71,6.19.84,9.75-.29,16.67a14.37,14.37,0,0,0,3.79,12.07c3.26,3.5,4.24,4.33,5.5,4.62a4.45,4.45,0,0,0,5.47-5.27c-.2-.82-.49-1.8-.93-3.22-1.44-4.63-.11-10.21.9-14.92,1.27-5.93,1.71-11,2.74-17,1.69-9.85.71-20.16,3.88-29.65,1.37-4.09,5.42-5.45,5-9.75"/><path class="cls-5" d="M368.22,37.55l-.34-.24-.34-.24c-.23-.15-.47-.3-.72-.44a10.83,10.83,0,0,0-1.59-.71l-.42-.14-.43-.11-.43-.1-.44-.08-.44-.06-.45,0c-.14,0-.29,0-.44,0h-.45a15,15,0,0,0-1.77.12q-.87.13-1.71.33a22.66,22.66,0,0,0-3.14,1,56.4,56.4,0,0,0-5.65,2.72l-.68.38-.66.38-.63.41c-.21.14-.42.28-.62.43a25.3,25.3,0,0,0-2.34,1.91,28.39,28.39,0,0,0-2.1,2.15c-.66.76-1.29,1.53-1.87,2.34s-1.15,1.63-1.66,2.48-1,1.72-1.44,2.6-.84,1.79-1.19,2.7a27.47,27.47,0,0,0-.93,2.78c-.06.23-.13.47-.18.7l-.16.71-.14.71c0,.24-.07.48-.11.72s-.06.48-.09.71l0,.36,0,.36,0,.36v.71c0,.12,0,.25,0,.37a42,42,0,0,0,.51,5.84,40.63,40.63,0,0,0,1.34,5.67c.59,1.85,1.29,3.68,2.05,5.49.37.9.77,1.81,1.17,2.71.1.22.2.46.3.7l.29.72.25.74.12.37c0,.12.07.25.11.37l.2.76.14.77c0,.12.05.25.07.38l0,.39.05.39,0,.19v.19l0,.78c0,.26,0,.52,0,.77s0,.52,0,.77,0,.51-.07.76l-.1.75-.11.74c0,.25-.09.5-.13.74s-.09.49-.14.73l-.57,2.87-.27,1.43-.12.71-.06.36c0,.12,0,.23-.05.34a13,13,0,0,0,1.51,8.06,13.78,13.78,0,0,0,1.59,2.34l.46.54.52.55c.34.37.69.73,1,1.09s.68.71,1,1,.69.65,1,.92l.26.19.24.17a2.55,2.55,0,0,0,.47.23,3.12,3.12,0,0,0,.51.14l.28,0,.27,0a3.64,3.64,0,0,0,1.09-.16,3.44,3.44,0,0,0,1.74-1.26,3.43,3.43,0,0,0,.49-1,3.37,3.37,0,0,0,.16-1c0-.09,0-.18,0-.27s0-.17,0-.26l0-.13,0-.07v-.08l-.08-.32c-.22-.85-.49-1.73-.75-2.6l-.05-.17,0-.17-.1-.36-.09-.36c0-.11-.05-.23-.07-.35s-.1-.48-.14-.72l-.09-.72c0-.24,0-.47-.06-.71s0-.48,0-.72v-1.42c0-.94.12-1.88.25-2.81.06-.47.14-.93.21-1.4s.16-.93.25-1.39c.18-.92.38-1.84.58-2.77l.31-1.38.3-1.39c.38-1.87.71-3.78,1-5.75s.59-4,.89-5.93q.22-1.49.48-3c.18-1,.33-2,.49-2.95.56-3.92.79-7.9,1.08-11.9.16-2,.41-5,.89-8l.09-.55.11-.56.21-1.09c.07-.36.16-.72.24-1.07s.16-.69.25-1l.28-1,.13-.47a3.88,3.88,0,0,1,.14-.45l.55-1.6a9.74,9.74,0,0,1,1.49-2.58c.58-.76,1.22-1.42,1.84-2.09a10.6,10.6,0,0,0,1.63-2.18,5.94,5.94,0,0,0,.68-2.82,5.62,5.62,0,0,1-.36,3.1A11.11,11.11,0,0,1,363,43.43a23.64,23.64,0,0,0-1.74,2.42,8.88,8.88,0,0,0-.62,1.28c0,.11-.09.22-.12.33s-.07.22-.11.34l-.2.71c-.13.48-.27,1-.37,1.43s-.24,1-.34,1.44l-.28,1.46c-.09.48-.15,1-.23,1.46-.3,2-.51,3.93-.67,5.91-.32,4-.45,8-.83,12,0,.5-.09,1-.15,1.5l-.18,1.51c-.14,1-.29,2-.46,3-.31,2-.58,3.94-.85,5.93s-.54,4-.87,6c-.16,1-.34,2-.53,3s-.4,2-.61,3-.39,1.94-.56,2.91-.31,1.94-.41,2.91a23.36,23.36,0,0,0-.12,2.89,14.76,14.76,0,0,0,.29,2.83l.07.34a3.37,3.37,0,0,0,.09.34l.09.34.05.17c0,.05,0,.12.05.18.16.48.31,1,.46,1.46s.29,1,.42,1.5a1.94,1.94,0,0,0,.05.2l0,.22a3.65,3.65,0,0,1,.07.46,5.63,5.63,0,0,1,0,.92,5.21,5.21,0,0,1-.46,1.77,5.49,5.49,0,0,1-1,1.53c-.11.12-.23.22-.35.33s-.24.2-.38.3a5.9,5.9,0,0,1-1.77.86,6.54,6.54,0,0,1-1,.19,5.79,5.79,0,0,1-1,0l-.51-.06-.25,0-.25,0-.26-.08-.26-.08-.49-.22a4.6,4.6,0,0,1-.44-.25l-.4-.27a12.5,12.5,0,0,1-1.32-1.12c-.41-.38-.78-.76-1.16-1.14s-.74-.76-1.1-1.15l-.54-.57c-.19-.2-.38-.42-.56-.63a16.23,16.23,0,0,1-1.89-2.73,15.23,15.23,0,0,1-1.83-6.14,15,15,0,0,1,.1-3.14l.06-.38.06-.36.13-.73c.09-.48.18-1,.28-1.44.19-1,.39-1.89.59-2.83s.37-1.85.49-2.75c0-.23.06-.46.07-.68s0-.45.06-.68l0-.67v-1c0-.11,0-.22,0-.33l-.06-.67c-.09-.44-.14-.88-.26-1.31a18,18,0,0,0-.87-2.6l-.57-1.34-.56-1.36c-.74-1.82-1.44-3.67-2-5.57a41,41,0,0,1-1.39-5.84,44.75,44.75,0,0,1-.56-6l0-.76v-1l0-.19,0-.4c0-.26.05-.52.08-.78a24.59,24.59,0,0,1,.57-3.06,31.22,31.22,0,0,1,2.18-5.78c.22-.47.47-.92.7-1.38s.51-.91.78-1.35c.53-.89,1.1-1.76,1.71-2.6a33.65,33.65,0,0,1,4.12-4.76,25.92,25.92,0,0,1,2.47-2.06,19.75,19.75,0,0,1,2.8-1.71A48.91,48.91,0,0,1,354.07,36a32,32,0,0,1,3.42-1,16.28,16.28,0,0,1,3.93-.41,10.5,10.5,0,0,1,2,.23,10,10,0,0,1,1,.25l.47.17a1,1,0,0,1,.22.09l.23.09.22.1.21.11.42.23a8.49,8.49,0,0,1,.77.5A8.85,8.85,0,0,1,368.22,37.55Z"/><path class="cls-6" d="M355.5,49.76a2.11,2.11,0,0,1-.59.27,2.88,2.88,0,0,0-.47.15,1.92,1.92,0,0,1-.76.22,6.89,6.89,0,0,0-.76.1l-.79.15a29.26,29.26,0,0,0-3,1l-.73.22-.69.2c-.23.07-.47.14-.7.23l-.36.12-.36.16c-.25.1-.49.22-.74.33l-.72.37a4.11,4.11,0,0,1-.5.23,2.29,2.29,0,0,1-.56.16,1.88,1.88,0,0,1-1,0,2.41,2.41,0,0,1,.39-.89,3.14,3.14,0,0,1,.62-.64c.46-.38.94-.72,1.44-1.06a16.77,16.77,0,0,1,3.18-1.64,6.68,6.68,0,0,1,.84-.25c.14,0,.28-.06.43-.09l.42-.07c.57-.08,1.14-.12,1.73-.19l.89-.08c.3,0,.62,0,.94,0a2,2,0,0,1,.95.3c.14.1.33.17.5.28A.81.81,0,0,1,355.5,49.76Z"/><path class="cls-7" d="M339.38,77.06c.85,8.9,5.25,17,13.64,21a29.61,29.61,0,0,0,22.51,1.6c5.89-1.93,11.45-4.72,14.94-10.23.69-1.09,1.36-2.53,2.68-2.82s2.61.25,3.92.14a11.84,11.84,0,0,0,4.83-1.49,12.32,12.32,0,0,0,6.09-8c.65-3.08-.28-6.87-3.1-8.05a5.06,5.06,0,0,0-3.28-.17,5.33,5.33,0,0,1-6.2-3c-2-4.55-9.77-3.43-14.26-5.48C377.4,58.85,371.68,51,367.64,51c-4.79,0-4.57,3.54-9.24,4.86a42.34,42.34,0,0,0-13.3,6,9.78,9.78,0,0,0-1,.87,16.06,16.06,0,0,0-3.4,5.14A18,18,0,0,0,339.38,77.06Z"/><path class="cls-7" d="M362.63,101.07A31.67,31.67,0,0,1,353,98.18a22.93,22.93,0,0,1-9.71-8.72,28.79,28.79,0,0,1-4-12.39h0a18,18,0,0,1,1.29-9.2A16.24,16.24,0,0,1,344,62.69,12.21,12.21,0,0,1,345,61.8a42.33,42.33,0,0,1,13.35-6.06,9.31,9.31,0,0,0,4.2-2.58,6.55,6.55,0,0,1,5.07-2.28c2.47,0,5.44,2.73,8.33,5.4,1.93,1.78,3.75,3.47,5.25,4.15a22.84,22.84,0,0,0,5.64,1.38c3.61.59,7.35,1.19,8.69,4.18a5.21,5.21,0,0,0,6,2.91,5.2,5.2,0,0,1,3.37.18c2.94,1.23,3.84,5.15,3.19,8.21A12.46,12.46,0,0,1,402,85.37a12.13,12.13,0,0,1-4.88,1.52,8.49,8.49,0,0,1-1.75-.11,6.23,6.23,0,0,0-2.15,0c-1.07.24-1.69,1.27-2.29,2.26l-.3.5c-3.79,6-10,8.65-15,10.29A29.66,29.66,0,0,1,362.63,101.07Zm5.44-49.88a3.11,3.11,0,0,0-.43,0,6.3,6.3,0,0,0-4.89,2.21A9.57,9.57,0,0,1,358.44,56a41.76,41.76,0,0,0-13.26,6,10,10,0,0,0-1,.85A16.07,16.07,0,0,0,340.79,68a17.71,17.71,0,0,0-1.26,9.07h0a28.49,28.49,0,0,0,4,12.26,22.67,22.67,0,0,0,9.59,8.61,29.59,29.59,0,0,0,22.41,1.6c4.95-1.63,11.11-4.26,14.86-10.17l.3-.5c.6-1,1.28-2.13,2.47-2.39a6.53,6.53,0,0,1,2.25,0,8,8,0,0,0,1.69.1,11.88,11.88,0,0,0,4.77-1.48,12.17,12.17,0,0,0,6-7.89c.62-3-.22-6.72-3-7.89a5,5,0,0,0-3.19-.17,5.48,5.48,0,0,1-6.37-3.07c-1.27-2.84-4.93-3.43-8.47-4a23.29,23.29,0,0,1-5.71-1.41c-1.54-.7-3.38-2.4-5.33-4.2C373.09,54,370.34,51.47,368.07,51.19Z"/><path class="cls-5" d="M364.8,48.85c3.92,8.29,11.62,13.39,19.29,18.05,5.38,3.27,14.83,7,17-3.48.53-2.51-3.24-7.77-3.65-10.31"/><path class="cls-5" d="M364.58,49a7.14,7.14,0,0,1,.7.75l.33.4.15.21.17.2c.44.54.83,1.1,1.26,1.54l.61.69c.2.22.41.44.61.67s.4.45.6.68l.61.66A39.4,39.4,0,0,0,375,59.64a66.4,66.4,0,0,0,5.94,4l1.53.92,1.55.92.77.46.76.43c.52.29,1,.57,1.57.83a23.8,23.8,0,0,0,3.11,1.31,14.32,14.32,0,0,0,3,.7,7,7,0,0,0,2.92-.27l.17-.06a.61.61,0,0,0,.17-.07l.33-.14a6.65,6.65,0,0,0,.63-.39,4.65,4.65,0,0,0,.59-.49c.1-.08.18-.19.28-.28l.13-.15a1,1,0,0,0,.12-.16,9,9,0,0,0,1.49-3c.08-.29.15-.57.23-.85,0-.08,0-.12,0-.18s0-.1,0-.16v-.17a1.08,1.08,0,0,0,0-.18A6.68,6.68,0,0,0,400,61c-.09-.28-.21-.63-.36-1s-.31-.8-.48-1.23c-.34-.84-.69-1.7-.88-2.3s-.37-1.12-.5-1.67a7.53,7.53,0,0,1-.14-.85,3.44,3.44,0,0,1,0-.9,11.38,11.38,0,0,0,.8,1.6c.3.53.61,1.06.92,1.59a32.61,32.61,0,0,1,1.73,3.33,14.43,14.43,0,0,1,.68,1.85,7.83,7.83,0,0,1,.2,1.05,2.64,2.64,0,0,1,0,.29v.29a1.67,1.67,0,0,1,0,.31l0,.16a.25.25,0,0,0,0,.08l0,.06a12.67,12.67,0,0,1-1.31,3.76l-.26.45-.3.43-.15.21-.18.21c-.11.13-.22.27-.35.4a7.61,7.61,0,0,1-1.71,1.31,7.69,7.69,0,0,1-2,.73l-.52.1-.52.06-.52,0c-.18,0-.35,0-.52,0l-.51,0-.51,0c-.17,0-.33,0-.5-.06s-.33,0-.5-.08a17.84,17.84,0,0,1-1.92-.45,25.87,25.87,0,0,1-3.62-1.41c-.58-.28-1.14-.58-1.68-.89-.28-.15-.54-.31-.81-.48l-.77-.47L382,67l-.75-.49-.75-.48-.74-.5c-2-1.33-3.9-2.72-5.87-4.29A40.4,40.4,0,0,1,368.46,56c-.21-.24-.41-.49-.61-.73l-.14-.19-.14-.19-.27-.4c-.18-.26-.36-.52-.53-.79s-.32-.56-.47-.83a4.77,4.77,0,0,0-.24-.44c-.08-.15-.17-.3-.25-.46-.17-.32-.35-.66-.51-1a6.91,6.91,0,0,1-.43-1A7.34,7.34,0,0,1,364.58,49Z"/><path class="cls-6" d="M375.57,52.19a3.28,3.28,0,0,1,.62.69,7.17,7.17,0,0,0,.47.67,8,8,0,0,1,.83,1.16,2.82,2.82,0,0,0,.18.29c.06.1.12.2.19.3s.26.38.41.57c.28.38.58.74.89,1.11.62.72,1.3,1.37,2,2s1.37,1.32,2.05,2,1.28,1.29,1.91,1.87c.31.29.63.57,1,.85a13.21,13.21,0,0,0,1.09.78,12.39,12.39,0,0,0,2.5,1.24l.87.32.49.18.41.16.65.27a3.91,3.91,0,0,1,.7.42,4.14,4.14,0,0,1-1.57.4,5.71,5.71,0,0,1-1.6-.13,13.89,13.89,0,0,1-3-1,20.41,20.41,0,0,1-5.08-3.63,24.85,24.85,0,0,1-2-2.18c-.6-.73-1.2-1.49-1.84-2.31-.31-.41-.62-.83-.9-1.27a15.52,15.52,0,0,1-.8-1.38,4.5,4.5,0,0,1-.46-1.55c0-.13,0-.28-.06-.43s0-.15,0-.23,0-.16,0-.24A1.77,1.77,0,0,1,375.57,52.19Z"/><path class="cls-6" d="M385.11,53.24a2.37,2.37,0,0,1,1.15.52,2.21,2.21,0,0,1,.75.66c.36.52.75,1,1.12,1.52a17.64,17.64,0,0,0,1.2,1.36c.42.42.83.82,1.24,1.25s.77.82,1.15,1.19c.19.18.38.37.59.55s.44.35.69.53c.5.34,1,.68,1.58,1a4.66,4.66,0,0,1,1,.85,2,2,0,0,1,.49,1,3,3,0,0,1-1.05,0,4,4,0,0,1-.93-.29c-.59-.25-1.2-.51-1.8-.8a12.35,12.35,0,0,1-1.79-1,17.16,17.16,0,0,1-1.62-1.31,9.92,9.92,0,0,1-1.25-1.54c-.35-.53-.68-1.08-1-1.63s-.68-1.13-1-1.69a2.51,2.51,0,0,1-.33-.94C385.22,54.06,385,53.69,385.11,53.24Z"/><path class="cls-6" d="M393.69,50.22a2.1,2.1,0,0,1,1.19.06,2,2,0,0,1,.86.39c.46.38.93.77,1.36,1.19a14.45,14.45,0,0,1,2.42,2.69,9.49,9.49,0,0,1,.76,1.58c.19.53.36,1.07.52,1.67a11.2,11.2,0,0,1,.38,1.81,2.87,2.87,0,0,1,0,.62,2.22,2.22,0,0,1-.11.63,2.8,2.8,0,0,1-.19.43,1.29,1.29,0,0,1-.39.44,2.55,2.55,0,0,1-.3-.39c-.09-.14-.16-.27-.23-.4s-.12-.25-.17-.38a2.64,2.64,0,0,1-.12-.4,14.07,14.07,0,0,0-.57-1.53,15.44,15.44,0,0,0-1.61-2.82,28.38,28.38,0,0,0-1.78-2.64c-.37-.42-.74-.84-1.14-1.24a2.66,2.66,0,0,1-.48-.72C394,50.91,393.68,50.68,393.69,50.22Z"/><path class="cls-8" d="M397.63,83.16a5.08,5.08,0,0,1-1.29-.32.86.86,0,0,1,.63-1.6,4.09,4.09,0,0,0,2.92,0,5.71,5.71,0,0,0,2.47-1.94A4.16,4.16,0,0,0,403.3,76c-.19-.88-1.08-1.76-1.94-1.59a.86.86,0,0,1-.34-1.68,3.09,3.09,0,0,1,2.57.68A4,4,0,0,1,405,75.68a5.85,5.85,0,0,1-1.24,4.61,7.38,7.38,0,0,1-3.24,2.51A5.93,5.93,0,0,1,397.63,83.16Z"/><path class="cls-5" d="M366.74,48c.41,14.34-18.61,26.54-28.52,24.47-8.5-1.78-.93-7.16-2.48-10.27s3.7-2.31,10.67-6S366.64,44.49,366.74,48Z"/><path class="cls-5" d="M339.05,72.75a8.11,8.11,0,0,1-.86-.14c-2.14-.44-3.43-1.15-3.95-2.17-.67-1.28,0-2.84.68-4.34s1.22-2.78.69-3.84a1.79,1.79,0,0,1-.19-1.52c.37-.85,1.71-1.26,3.72-1.87a37.58,37.58,0,0,0,7.2-2.82c1.09-.58,2.34-1.27,3.66-2,7.93-4.37,14.65-7.9,16.43-6.89a.92.92,0,0,1,.45.83,18.42,18.42,0,0,1-2.57,9.67,29.66,29.66,0,0,1-6.79,8,34,34,0,0,1-10,5.83A18.58,18.58,0,0,1,339.05,72.75Zm26.81-25.47c-2.42-.3-10.05,3.9-15.73,7-1.32.72-2.57,1.41-3.66,2a37.24,37.24,0,0,1-7.24,2.84c-1.88.57-3.23,1-3.55,1.72a1.52,1.52,0,0,0,.19,1.28c.58,1.17-.07,2.65-.69,4.08s-1.29,2.93-.69,4.09c.48.93,1.71,1.59,3.76,2a17.3,17.3,0,0,0,9.2-1.13,33.58,33.58,0,0,0,9.88-5.78,29.25,29.25,0,0,0,6.73-7.9A18.18,18.18,0,0,0,366.6,48a.64.64,0,0,0-.32-.59A1,1,0,0,0,365.86,47.28Z"/><path class="cls-6" d="M355.7,54.57a2,2,0,0,1,0,.91c-.06.29-.16.56-.21.82a3.73,3.73,0,0,1-.26.73,4.28,4.28,0,0,1-.37.66A25,25,0,0,1,353,60a32.1,32.1,0,0,1-4.19,4.06c-.39.3-.77.57-1.14.83s-.76.5-1.14.74a28.24,28.24,0,0,1-2.47,1.38,13.74,13.74,0,0,1-2.89,1.08,2.34,2.34,0,0,1-.46.09,3.43,3.43,0,0,1-.56.06,5.42,5.42,0,0,1-.57,0,4.56,4.56,0,0,1-.48-.07,4.42,4.42,0,0,1-.7-.22,1.91,1.91,0,0,1-.64-.47l.36-.12.34-.11.34-.1.16,0,.16-.06.33-.09.31-.1a3,3,0,0,0,.32-.09l.32-.1a11.62,11.62,0,0,0,2.44-1.11,37.14,37.14,0,0,0,4.51-3.36c1.47-1.21,2.91-2.15,4.25-3.47a26.07,26.07,0,0,0,1.88-2.06,4.62,4.62,0,0,1,.46-.52,6.15,6.15,0,0,1,.53-.49c.18-.16.35-.38.55-.59A2.07,2.07,0,0,1,355.7,54.57Z"/><path class="cls-6" d="M366.19,38.43a1.83,1.83,0,0,1,.46.8.9.9,0,0,1,.11.57c0,.17-.06.33-.08.5s-.05.33-.07.49c-.08.66,0,1.29,0,1.93s-.24,1.16-.3,1.82c0,.33,0,.67,0,1a1.63,1.63,0,0,1,0,.35,1.35,1.35,0,0,1-.14.37,1.63,1.63,0,0,1-.54.63,1.48,1.48,0,0,1-.55-.44,1.41,1.41,0,0,1-.26-.52l-.15-.55-.12-.56a11,11,0,0,1-.21-2.29,8.77,8.77,0,0,1,.54-2.16c.05-.19.12-.37.18-.55s.13-.35.2-.53a1,1,0,0,1,.39-.46C365.72,38.71,365.8,38.46,366.19,38.43Z"/><ellipse class="cls-7" cx="338.32" cy="80.84" rx="6.18" ry="7.4" transform="translate(-9.5 84.86) rotate(-14.1)"/><path class="cls-7" d="M344,79a3.33,3.33,0,0,1,.77,1.3,9.36,9.36,0,0,1,.34,1.49,5.76,5.76,0,0,1-.28,2.87,7.21,7.21,0,0,1-1.55,2.56,6.08,6.08,0,0,1-2.59,1.64,6.33,6.33,0,0,1-3.08.22,7.41,7.41,0,0,1-2.78-1.14,8.85,8.85,0,0,1-3.45-4.75,9.18,9.18,0,0,1,.06-5.59,8,8,0,0,1,1.34-2.45,6.54,6.54,0,0,1,2.32-1.84,6,6,0,0,1,3-.57,6.64,6.64,0,0,1,2.86.91,6.25,6.25,0,0,1,1.5,1.23,7.63,7.63,0,0,1,.64.82,6.1,6.1,0,0,1,.42.76,7.16,7.16,0,0,1,.42,1.23A3.56,3.56,0,0,1,344,79a14.91,14.91,0,0,0-1.49-2.08,9.18,9.18,0,0,0-1.79-1.58,5.18,5.18,0,0,0-2.12-.82,4.27,4.27,0,0,0-2.16.23A4.58,4.58,0,0,0,334.62,76a5.74,5.74,0,0,0-1.09,2,7.27,7.27,0,0,0,.06,4.54,8.69,8.69,0,0,0,1,2A6.93,6.93,0,0,0,336,86.08a5.09,5.09,0,0,0,1.88,1,4,4,0,0,0,2.1,0A4.53,4.53,0,0,0,341.88,86a5.46,5.46,0,0,0,1.28-1.87,12.37,12.37,0,0,0,.7-2.28,6.19,6.19,0,0,0,.1-1.4A14.49,14.49,0,0,1,344,79Z"/><path class="cls-8" d="M338.65,86.73a5.87,5.87,0,0,1-3.59-1.94,7.44,7.44,0,0,1-1.74-3.72,5.84,5.84,0,0,1,1-4.68A3.93,3.93,0,0,1,336.53,75a3.08,3.08,0,0,1,2.59.58A.86.86,0,1,1,338.05,77a1.83,1.83,0,0,0-2.43.51,4.11,4.11,0,0,0-.61,3.3,5.87,5.87,0,0,0,1.33,2.88A4.15,4.15,0,0,0,338.92,85a.85.85,0,1,1-.17,1.7Z"/><path class="cls-9" d="M328,114.51a.83.83,0,0,1-.62-.39.85.85,0,0,1,.26-1.18A325.44,325.44,0,0,1,360,94.67a.86.86,0,1,1,.76,1.54,326,326,0,0,0-32.26,18.17A.79.79,0,0,1,328,114.51Z"/><path class="cls-9" d="M328.59,106.93a.87.87,0,0,1-.69-.54.85.85,0,0,1,.48-1.11c.91-.37,1.86-.72,2.77-1.06,1.39-.52,2.7-1,3.83-1.52,7.59-3.44,15.25-7,22.78-10.57a.86.86,0,0,1,1.15.4.87.87,0,0,1-.41,1.15c-7.54,3.58-15.21,7.14-22.82,10.59-1.17.53-2.51,1-3.93,1.56-.9.33-1.84.68-2.73,1A.92.92,0,0,1,328.59,106.93Z"/><path class="cls-7" d="M339.37,120.65c-1.25-.84-2.26-4.24-3.47-6.82a12.79,12.79,0,0,1-1.5-4.63c-.16-2.48,1.09-4.8,2.29-7a5.53,5.53,0,0,1,1.27-1.71,4.89,4.89,0,0,1,1.29-.7l2.81-1.2a14.43,14.43,0,0,1,2.51-.89A1.24,1.24,0,0,1,346,99.15v0a1.24,1.24,0,0,0,.76,1.36,1,1,0,0,1,.77.81,1.46,1.46,0,0,1-.16.79c-.7,1.63-2,2.93-2.52,4.64-1.18,4.07,2.89,8.53,1.15,12.38a4.49,4.49,0,0,1-4.27,2.49,4,4,0,0,1-2.38-1Z"/><path class="cls-7" d="M339.51,120.45a1.89,1.89,0,0,1-.86-.51,5.74,5.74,0,0,1-.71-.83c-.42-.6-.76-1.25-1.1-1.8s-.63-1.13-.92-1.7l-.42-.84-.42-.84a15.33,15.33,0,0,1-1.42-3.78,7.71,7.71,0,0,1-.12-2.14,10,10,0,0,1,.41-2.07,21.7,21.7,0,0,1,1.57-3.63l.44-.84c.16-.29.33-.6.54-.91a5.18,5.18,0,0,1,.82-.89,5.51,5.51,0,0,1,1-.62c.32-.16.6-.28.88-.41l.85-.38,1.7-.76a16.94,16.94,0,0,1,1.87-.73c.17-.06.35-.1.52-.15a3,3,0,0,1,.81-.1,2.39,2.39,0,0,1,1.66.8,2.42,2.42,0,0,1,.59,1.3c0,.12,0,.23,0,.35s0,.23,0,.34,0,0,0,0h0v0a.22.22,0,0,0,0,.06h0a3.65,3.65,0,0,1,.56.28,2.23,2.23,0,0,1,.55.52,2.14,2.14,0,0,1,.35.77,1.9,1.9,0,0,1,0,.41,2.17,2.17,0,0,1,0,.37,2.41,2.41,0,0,1-.17.57,3.89,3.89,0,0,1-.18.4,6,6,0,0,1-.38.71c-.53.89-1.11,1.62-1.54,2.35a5.39,5.39,0,0,0-.53,1.08,4.44,4.44,0,0,0-.25,1.16,8.44,8.44,0,0,0,.28,2.66c.28,1.19.7,2.4,1,3.7a12.23,12.23,0,0,1,.31,2,6.53,6.53,0,0,1-.22,2.14,5.87,5.87,0,0,1-.54,1.22,4.51,4.51,0,0,1-1.08,1.19,4.8,4.8,0,0,1-1.38.75,5,5,0,0,1-1.25.24,5.27,5.27,0,0,1-1-.06,3.29,3.29,0,0,1-.89-.27,3.11,3.11,0,0,1-.74-.5,2.5,2.5,0,0,1-.32-.33,1.33,1.33,0,0,1-.14-.19l-.07-.09,0-.06v0h0c-.07.09.16-.18-.16.19.32-.37.09-.1.16-.19h.05l.05,0,.1,0,.2.1a3.69,3.69,0,0,0,.42.17,3.46,3.46,0,0,0,.83.2l.41,0h.2l.21,0a4.38,4.38,0,0,0,.8-.17,3.91,3.91,0,0,0,2.38-1.93,1.3,1.3,0,0,0,.08-.17l.07-.19a.64.64,0,0,0,.06-.18l.06-.19a6.84,6.84,0,0,0,.12-.79,5.79,5.79,0,0,0,0-.83,6.43,6.43,0,0,0-.12-.85,31.46,31.46,0,0,0-1.06-3.57,15,15,0,0,1-.72-3.27,7.39,7.39,0,0,1,.08-1.81,6.4,6.4,0,0,1,.56-1.75c.51-1.07,1.16-1.94,1.63-2.76.12-.21.22-.41.32-.62l.13-.29a.62.62,0,0,0,.06-.19v0h.06a1.4,1.4,0,0,0,.21,0h0a.44.44,0,0,0-.11.1l-.08.09h0l-.11,0a2.22,2.22,0,0,1-1.09-.84,2.35,2.35,0,0,1-.45-1.25c0-.11,0-.22,0-.34l0-.16v0h0v0h0s0,0,0,0,0,0,0,0h0l-.13,0-.39.1c-.52.16-1.06.38-1.62.61L339.31,101a3.45,3.45,0,0,0-.61.31,2.15,2.15,0,0,0-.44.42,4.76,4.76,0,0,0-.44.64c-.15.24-.3.51-.46.77a19.87,19.87,0,0,0-1.56,3.22,8.35,8.35,0,0,0-.4,1.66,6.51,6.51,0,0,0,0,1.65,12.78,12.78,0,0,0,1.14,3.37l.2.44.19.45c.13.3.24.61.35.91.22.62.41,1.23.59,1.84s.45,1.31.73,2c.14.34.29.67.44,1A5.09,5.09,0,0,0,339.51,120.45Z"/><path class="cls-8" d="M335.3,109.9a.88.88,0,0,1-.52-.27,1.51,1.51,0,0,1-.16-2.1.86.86,0,0,1,1.42.93.87.87,0,0,1-.05,1.21A.86.86,0,0,1,335.3,109.9Zm.67-1.52Z"/><path class="cls-8" d="M337.92,110.64a.77.77,0,0,1-.41-.16,1.83,1.83,0,0,1-.7-.81,1.2,1.2,0,0,1,.06-.92.86.86,0,0,1,1.71.11,1.09,1.09,0,0,1,0,.26.85.85,0,0,1-.63,1.52Zm-1.06-1.75Z"/><path class="cls-8" d="M340.59,111.41a1,1,0,0,1-.28-.08,1.55,1.55,0,0,1-.92-1.27,1.12,1.12,0,0,1,.53-1,.85.85,0,0,1,1.18.27.82.82,0,0,1,.13.57.85.85,0,0,1-.64,1.52Zm.44-1.65Z"/><path class="cls-8" d="M342,106.7l-.16,0a.86.86,0,0,1-.55-1.08,7,7,0,0,1,2.91-3.77.86.86,0,0,1,1.19.26.87.87,0,0,1-.27,1.19,5.39,5.39,0,0,0-2.19,2.85A.86.86,0,0,1,342,106.7Z"/><path class="cls-8" d="M338.06,104a.85.85,0,0,1-.36-.14.86.86,0,0,1-.25-1.19,9.87,9.87,0,0,1,6.2-4,.86.86,0,0,1,.37,1.68,8.1,8.1,0,0,0-5.13,3.25A.87.87,0,0,1,338.06,104Z"/><path class="cls-8" d="M367.73,85a.9.9,0,0,1-.41-.16A3.58,3.58,0,0,1,366,82.25a3.65,3.65,0,0,1,1-2.86.86.86,0,0,1,1.22,1.22,1.91,1.91,0,0,0-.5,1.51,1.86,1.86,0,0,0,.68,1.38.85.85,0,0,1,.17,1.2A.84.84,0,0,1,367.73,85Z"/><path class="cls-8" d="M375.08,71.4a.86.86,0,0,1-.41-1.54,7,7,0,0,1,7.78-.34.86.86,0,0,1,.27,1.18.87.87,0,0,1-1.19.27,5.25,5.25,0,0,0-5.83.26A.89.89,0,0,1,375.08,71.4Z"/><path class="cls-8" d="M351,72.68a.92.92,0,0,1-.55-.3.87.87,0,0,1,.11-1.21,7,7,0,0,1,7.75-.77.85.85,0,0,1,.34,1.16.86.86,0,0,1-1.17.34,5.26,5.26,0,0,0-5.82.58A.86.86,0,0,1,351,72.68Z"/><path class="cls-8" d="M391,76.24a7.38,7.38,0,0,0-5.38-1.69,7.92,7.92,0,0,0-4.5,1.62,4.5,4.5,0,0,0-1.88,3.71,4.2,4.2,0,0,0,1.46,2.94,7,7,0,0,0,3.79,1.64,9.33,9.33,0,0,0,1.59.05,8,8,0,0,0,4.51-1.62,4.47,4.47,0,0,0,1.87-3.72A4.16,4.16,0,0,0,391,76.24Z"/><path class="cls-8" d="M354.73,78a7.44,7.44,0,0,0-5.38-1.69A8,8,0,0,0,344.84,78,4.5,4.5,0,0,0,343,81.68a4.16,4.16,0,0,0,1.46,2.93,6.88,6.88,0,0,0,3.79,1.64,9.3,9.3,0,0,0,1.59,0,7.92,7.92,0,0,0,4.5-1.62A4.48,4.48,0,0,0,356.19,81,4.18,4.18,0,0,0,354.73,78Z"/><path class="cls-10" d="M362.16,87.92c2-.07,3.93.43,5.89.37s4-.69,6-.75a1.94,1.94,0,0,1,1.62,2.89A8.43,8.43,0,0,1,365.4,94.1a10,10,0,0,1-4.4-2.78C359.85,89.91,360.66,88,362.16,87.92Z"/><path class="cls-10" d="M367.23,95.42a10.37,10.37,0,0,1-2.12-.51,11,11,0,0,1-4.78-3,3.11,3.11,0,0,1-.47-3.25,2.59,2.59,0,0,1,2.28-1.55h0a20.53,20.53,0,0,1,3.06.19,19.6,19.6,0,0,0,2.82.18,20.9,20.9,0,0,0,2.86-.36,21,21,0,0,1,3.1-.39,2.67,2.67,0,0,1,2.27,1.22,2.94,2.94,0,0,1,.16,2.89,9.28,9.28,0,0,1-5,4.18A8.9,8.9,0,0,1,367.23,95.42Zm-5-6.65a.88.88,0,0,0-.76.55,1.39,1.39,0,0,0,.23,1.46,9.26,9.26,0,0,0,4,2.51,7.46,7.46,0,0,0,5.14.06,7.57,7.57,0,0,0,4-3.28,1.22,1.22,0,0,0,0-1.22,1,1,0,0,0-.78-.46,21.15,21.15,0,0,0-2.86.37,23.93,23.93,0,0,1-3.09.39A22.2,22.2,0,0,1,365,89a19.65,19.65,0,0,0-2.82-.19Z"/><path class="cls-8" d="M371.15,91.6a13.1,13.1,0,0,0-1.4-.2,15.53,15.53,0,0,0-4.76.27,8.46,8.46,0,0,0-1.19.34l-.37.14a.6.6,0,0,0-.06,1.09l.63.29a12.08,12.08,0,0,0,1.4.57,8.36,8.36,0,0,0,5.71.06,8.71,8.71,0,0,0,2.2-1.06.6.6,0,0,0-.16-1c-.42-.13-.88-.2-1.22-.28S371.41,91.65,371.15,91.6Z"/><path class="cls-8" d="M367.23,95.42a10.37,10.37,0,0,1-2.12-.51,15.23,15.23,0,0,1-1.48-.6l-.21-.1c-.14-.07-.29-.13-.43-.21a1.41,1.41,0,0,1-.79-1.35,1.47,1.47,0,0,1,.91-1.3c.13-.06.27-.1.4-.15a9.85,9.85,0,0,1,1.3-.37,16.7,16.7,0,0,1,5-.29,14.86,14.86,0,0,1,1.49.22h0c.27,0,.55.11.82.18l.39.09c.27.06.58.12.88.21a1.44,1.44,0,0,1,1,1.14,1.47,1.47,0,0,1-.57,1.42A9.66,9.66,0,0,1,371.4,95,8.9,8.9,0,0,1,367.23,95.42Zm-2.9-2.68,0,0c.41.19.85.37,1.31.53a7.46,7.46,0,0,0,5.14.06,11.71,11.71,0,0,0,1.46-.62l-.1,0-.47-.1-.72-.17h0c-.44-.08-.88-.15-1.33-.19a15.15,15.15,0,0,0-4.49.26A6.56,6.56,0,0,0,364.33,92.74Z"/><path class="cls-11" d="M375.41,78.16A.82.82,0,0,1,375,78a.86.86,0,0,1-.17-1.2,5.19,5.19,0,0,1,3.74-2.29,5.78,5.78,0,0,1,4.35,1.82.86.86,0,1,1-1.2,1.23,4.24,4.24,0,0,0-3-1.34,3.57,3.57,0,0,0-2.5,1.62A.85.85,0,0,1,375.41,78.16Z"/><path class="cls-11" d="M351.88,79.82a.93.93,0,0,1-.39-.15.86.86,0,0,1-.21-1.2A5.21,5.21,0,0,1,354.93,76a5.83,5.83,0,0,1,4.42,1.65.87.87,0,0,1,.06,1.22.86.86,0,0,1-1.21.06,4.3,4.3,0,0,0-3.07-1.23,3.57,3.57,0,0,0-2.44,1.72A.86.86,0,0,1,351.88,79.82Z"/><ellipse class="cls-12" cx="109.39" cy="53.16" rx="10.98" ry="14.67" transform="translate(-4.54 95.72) rotate(-46.4)"/><ellipse class="cls-12" cx="62.98" cy="53.51" rx="14.61" ry="11.02" transform="translate(-18.73 41.13) rotate(-31.74)"/><ellipse class="cls-12" cx="85.55" cy="44.62" rx="14.54" ry="11.07"/><ellipse class="cls-5" cx="108.11" cy="75.61" rx="7.71" ry="13.67" transform="translate(-12.96 23.2) rotate(-11.56)"/><path class="cls-5" d="M110,89.23a5.88,5.88,0,0,1-3.19-1c-2.89-1.88-5.32-6.06-6.33-10.92-1.56-7.46.62-14.27,4.85-15.18a5.47,5.47,0,0,1,4.16.93c2.9,1.88,5.32,6.07,6.33,10.93,1.56,7.45-.62,14.27-4.85,15.18A4.5,4.5,0,0,1,110,89.23Zm-3.7-27a4,4,0,0,0-.91.1c-4.07.88-6.15,7.54-4.63,14.84,1,4.79,3.37,8.9,6.2,10.74a5.22,5.22,0,0,0,4,.9C115,88,117,81.31,115.5,74c-1-4.79-3.37-8.91-6.2-10.75A5.67,5.67,0,0,0,106.26,62.27Z"/><path class="cls-5" d="M68.07,55.57c-6.75.08-9.54,7.57-11.35,14.17-2.21,8,1.16,20.74,7,26.53,5.63,5.61,10.6,8,17.25,10.83"/><path class="cls-5" d="M68.06,55.32a23.52,23.52,0,0,0-2.21.81A7.29,7.29,0,0,0,64,57.29a15.28,15.28,0,0,0-2.6,3.08A20.72,20.72,0,0,0,59.51,64c-.52,1.29-.95,2.62-1.35,4-.19.67-.37,1.35-.54,2-.07.33-.16.65-.21,1l-.09.49-.06.49a23,23,0,0,0-.14,4,37,37,0,0,0,1.33,8c.37,1.34.78,2.59,1.24,3.79a30.39,30.39,0,0,0,1.55,3.43,23.22,23.22,0,0,0,2,3.15l.15.18.15.19.3.36.32.36c.11.11.21.23.34.35l.71.72c.24.25.5.48.75.72a40.93,40.93,0,0,0,3.19,2.72,41.7,41.7,0,0,0,3.47,2.38l1.08.65.65.38.68.39,1.33.77c.43.24.81.45,1.12.64a26.9,26.9,0,0,1,3.37,2.19A36.54,36.54,0,0,1,76.73,106a34.29,34.29,0,0,1-4-1.81,41.44,41.44,0,0,1-7.24-4.89L65.12,99l-.41-.36c-.27-.24-.55-.48-.81-.73l-.8-.75-.39-.39-.4-.41a22.52,22.52,0,0,1-2.66-3.61,32,32,0,0,1-2-4,36.13,36.13,0,0,1-1.46-4.17,32.11,32.11,0,0,1-1.24-8.45,26.68,26.68,0,0,1,.29-4.26c.07-.35.12-.71.2-1.07l.12-.54.14-.53.07-.27.07-.26.15-.51.31-1a41.33,41.33,0,0,1,1.48-4.12,22.86,22.86,0,0,1,2.08-3.94,10.61,10.61,0,0,1,1.45-1.76,8.67,8.67,0,0,1,1.83-1.41,9.31,9.31,0,0,1,2.39-1A5.66,5.66,0,0,1,68.06,55.32Z"/><path class="cls-7" d="M60,90.33A30.42,30.42,0,0,0,65.8,107c5.91,8,17.26,11.12,26.28,8.08a28.1,28.1,0,0,0,13.86-11.41c2.66-4.27,1.58-8.28,4.14-8.35a8.73,8.73,0,0,0,4.18-1.49,11,11,0,0,0,5.07-7.38c.47-2.79-.46-6.18-3-7.16a4.38,4.38,0,0,0-2.88-.06c-3.29,1-5.21.31-6.5-2.49-1.48-3.2-1.71-11.56-5-13.2A17.36,17.36,0,0,0,97,62.16a60.91,60.91,0,0,0-16.29-.63c-4.87.5-11.48,1.35-15.53,4.54-2.14,1.69-3.57,9.69-4.14,12.31A44.52,44.52,0,0,0,60,90.33Z"/><path class="cls-7" d="M84.89,116.4a25.23,25.23,0,0,1-7.16-1.05,23.15,23.15,0,0,1-12-8.23,30.61,30.61,0,0,1-5.83-16.78,44.83,44.83,0,0,1,1.06-12c.07-.3.14-.67.23-1.1.71-3.41,2-9.77,4-11.29,3.8-3,9.75-4,15.61-4.57A61,61,0,0,1,97,62a17.77,17.77,0,0,1,5,1.42c2.24,1.11,3.09,5.13,3.84,8.68a24.6,24.6,0,0,0,1.24,4.59c1.23,2.68,3.06,3.37,6.33,2.41a4.49,4.49,0,0,1,3,.07c2.62,1,3.53,4.54,3.06,7.32A11.12,11.12,0,0,1,114.33,94a8.6,8.6,0,0,1-4.24,1.51c-1.32,0-1.6,1.23-2,3a16.86,16.86,0,0,1-2,5.26c-3.23,5.19-8.7,9.7-13.95,11.47A22.62,22.62,0,0,1,84.89,116.4Zm1.53-55a55.63,55.63,0,0,0-5.67.28c-3.92.41-11.2,1.15-15.46,4.51-1.85,1.46-3.21,8-3.86,11.13-.09.43-.16.8-.23,1.1a44.26,44.26,0,0,0-1.05,11.91h0A30.25,30.25,0,0,0,65.92,107a22.87,22.87,0,0,0,11.9,8.13A23.73,23.73,0,0,0,92,115a28.11,28.11,0,0,0,13.79-11.35,16.42,16.42,0,0,0,2-5.18c.44-1.86.77-3.2,2.3-3.25a8.24,8.24,0,0,0,4.1-1.46,10.86,10.86,0,0,0,5-7.28c.45-2.67-.41-6-2.88-7a4.22,4.22,0,0,0-2.79,0c-3.43,1-5.37.27-6.67-2.57a23.93,23.93,0,0,1-1.26-4.65c-.74-3.49-1.57-7.44-3.69-8.49A17.69,17.69,0,0,0,97,62.3,63.28,63.28,0,0,0,86.42,61.39Z"/><path class="cls-8" d="M110.93,93.32a4.36,4.36,0,0,1-.51,0,.87.87,0,0,1-.74-1,.86.86,0,0,1,1-.73,3.56,3.56,0,0,0,3-1.53,7.27,7.27,0,0,0,1.6-5.08,2.75,2.75,0,0,0-1.17-2,1.31,1.31,0,0,0-1.8.21.87.87,0,0,1-1.22,0,.85.85,0,0,1,0-1.21,3,3,0,0,1,4-.37,4.49,4.49,0,0,1,1.9,3.18,9.06,9.06,0,0,1-2,6.41A5.42,5.42,0,0,1,110.93,93.32Z"/><path class="cls-12" d="M53.81,63.37l.32,10.9a2.16,2.16,0,0,0,3.69,1.52c8.44-8.44,28.05-17.25,55.09.65,1.61,1.06,3.71.17,3.6-1.78l-.69-11.76L97.42,47.32H65.77Z"/><path class="cls-13" d="M57.07,62.83a1.87,1.87,0,0,1,.29.7c0,.22,0,.43.1.63a3.75,3.75,0,0,1,.09.57,3.09,3.09,0,0,1,0,.53c-.09.71-.12,1.41-.14,2.12a13.84,13.84,0,0,0,.14,2.05c0,.34.09.67.14,1v0h0a.12.12,0,0,0,0,.07.08.08,0,0,0,0,0s0,0,.06,0a.45.45,0,0,0,.12-.06l.07,0,0,0,0,0,.11-.08.85-.67a21.06,21.06,0,0,1,1.88-1.32,5.22,5.22,0,0,1,.71-.35,2.72,2.72,0,0,1,.79-.19,2.84,2.84,0,0,1,.59,0,2.31,2.31,0,0,1,.63.21,3.19,3.19,0,0,1-.43.46l-.39.35a9.74,9.74,0,0,1-.78.63,20.1,20.1,0,0,0-1.56,1.4c-.25.25-.51.5-.75.76l-.19.2-.1.09,0,0,0,0-.08.08-.69.64-.34.32a1.74,1.74,0,0,1-.39.23,1.71,1.71,0,0,1-.79.17,1.65,1.65,0,0,1-.81-.26,1.56,1.56,0,0,1-.3-.26c-.1-.07-.14-.23-.21-.36l-.18-.41,0-.1,0,0v-.07l0-.26-.06-.53,0-.26a.62.62,0,0,1,0-.13v-.1c0-.37,0-.74,0-1.11,0-.74.09-1.48.16-2.24A19.79,19.79,0,0,1,55.85,65a3.24,3.24,0,0,1,.44-1.08c.11-.17.2-.38.31-.58A1.24,1.24,0,0,1,57.07,62.83Z"/><path class="cls-13" d="M115.62,49.07a.89.89,0,0,1,.3-.22,1.14,1.14,0,0,1,.32-.07h.32l.3.05a1.74,1.74,0,0,1,1,.53,7.43,7.43,0,0,1,1.19,1.73l.44.88c.14.28.28.57.41.87a8.19,8.19,0,0,1,.6,1.89,8,8,0,0,1,.09,1.94,10.59,10.59,0,0,1-.34,1.93,6.76,6.76,0,0,1-.33,1,8,8,0,0,1-.46.93,1.75,1.75,0,0,1-.18.26l-.11.15-.13.15-.28.26-.14.1-.14.07-.23.12-.24.08a1.23,1.23,0,0,1-.61,0,6,6,0,0,1,.24-.93A7.72,7.72,0,0,1,118,60c.06-.12.1-.26.15-.38s.09-.26.12-.39a5.42,5.42,0,0,0,.17-.8,8.16,8.16,0,0,0,0-1.64,8.36,8.36,0,0,0-.26-1.64c-.13-.55-.23-1.09-.35-1.63-.06-.27-.13-.54-.21-.82a7.92,7.92,0,0,0-.28-.82,6.82,6.82,0,0,0-.76-1.42,3.78,3.78,0,0,1-.37-.66.88.88,0,0,0-.12-.17c0-.06-.1-.1-.15-.16a1.49,1.49,0,0,1-.17-.18A1.83,1.83,0,0,1,115.62,49.07Z"/><path class="cls-13" d="M86.07,36.7a3.19,3.19,0,0,1,1.49-.54,3.53,3.53,0,0,1,1.37-.06,10.07,10.07,0,0,1,4,1.43,8.69,8.69,0,0,1,1.15.84,9.25,9.25,0,0,1,1.84,2.11A13.49,13.49,0,0,1,97,42.81a24.16,24.16,0,0,1,.77,2.44A13.87,13.87,0,0,1,98.23,48c0,.11,0,.25,0,.41s0,.33,0,.51a3.74,3.74,0,0,1-.21.9,4.18,4.18,0,0,1-.29.6,1.69,1.69,0,0,1-.51.53,10.14,10.14,0,0,1-.31-1.27c0-.21-.07-.41-.1-.61s0-.39-.08-.59a12.81,12.81,0,0,0-.58-2.35,18.67,18.67,0,0,0-1-2.25c-.18-.37-.38-.73-.58-1.08s-.42-.7-.65-1A18.81,18.81,0,0,0,92.55,40a6,6,0,0,0-1.7-1.37,9.93,9.93,0,0,0-2.22-.81,6.32,6.32,0,0,1-1.19-.43C87.05,37.14,86.46,37.1,86.07,36.7Z"/><path class="cls-13" d="M57,48.24a1.82,1.82,0,0,1-.26.59c-.09.16-.2.27-.27.42a1.84,1.84,0,0,1-.46.63A6.2,6.2,0,0,0,55,51a6.58,6.58,0,0,0-.64,1.27c-.16.45-.29.89-.43,1.35s-.3.88-.42,1.33a9.44,9.44,0,0,0-.31,1.41c-.07.52-.13,1.05-.15,1.59A3.63,3.63,0,0,1,52.81,59a1.9,1.9,0,0,1-.6.83,2.35,2.35,0,0,1-.51-.8,3.09,3.09,0,0,1-.22-.83c-.07-.57-.12-1.15-.15-1.73a12.19,12.19,0,0,1,.34-3.58,5.76,5.76,0,0,1,.75-1.65,13.19,13.19,0,0,1,1.1-1.45,7.33,7.33,0,0,1,1.4-1.26,2.18,2.18,0,0,1,.43-.22,1.87,1.87,0,0,1,.48-.11l.54-.09A.89.89,0,0,1,57,48.24Z"/><path class="cls-13" d="M60.07,61.7A6,6,0,0,1,61,60.32c.18-.21.37-.41.56-.61l.28-.29.27-.28a10.72,10.72,0,0,1,1.1-1l.59-.47c.2-.15.41-.28.62-.42a32.94,32.94,0,0,1,5.32-2.81,38.11,38.11,0,0,1,5.61-1.88c.47-.11,1-.23,1.43-.33l1.44-.28c.49-.07,1-.15,1.47-.21l.75-.07c.25,0,.51,0,.76-.06l.75,0,.37,0h.36c.48,0,1,0,1.42,0l1.38.06,1.35.1c1.8.16,3.59.39,5.55.71a58,58,0,0,1,5.82,1.27l.86.25,1,.36a4.65,4.65,0,0,1,.52.2l.49.21c.31.14.59.27.82.39.43.26.82.47,1.19.72a5.8,5.8,0,0,1,1.06,1l-.72-.16-.35-.1-.36-.08-.7-.18-.7-.17-.7-.17c-.23-.06-.46-.13-.7-.18-.47-.1-.93-.22-1.4-.34a54.19,54.19,0,0,0-5.69-1Q90,54,87.06,53.87a47.54,47.54,0,0,0-5.73.07l-.7.05-.69.07-1.38.16-1.35.2-1.35.23a31,31,0,0,0-5.32,1.47,33.62,33.62,0,0,0-5.13,2.47l-.62.36c-.21.13-.41.25-.62.36l-.63.35-.63.36a15.37,15.37,0,0,0-1.39.87c-.24.15-.48.32-.72.46A4.85,4.85,0,0,1,60.07,61.7Z"/><ellipse class="cls-7" cx="59.51" cy="86.4" rx="5.61" ry="8.16" transform="translate(-24.66 23.77) rotate(-18.79)"/><path class="cls-7" d="M64.53,84.56a3.62,3.62,0,0,1,.9,1.27,11.7,11.7,0,0,1,.51,1.47,6.29,6.29,0,0,1,.16,2.93A7.52,7.52,0,0,1,65,93.1a5.46,5.46,0,0,1-1.11,1.2,4.9,4.9,0,0,1-1.49.81,5.93,5.93,0,0,1-.83.21,7.91,7.91,0,0,1-.84.06,6.16,6.16,0,0,1-1.62-.25,7.86,7.86,0,0,1-2.72-1.47,10.53,10.53,0,0,1-2-2.22A11.32,11.32,0,0,1,53,88.77a11.75,11.75,0,0,1-.61-2.84,10.42,10.42,0,0,1,.11-2.79,8.36,8.36,0,0,1,.94-2.7,6.27,6.27,0,0,1,.9-1.25,5,5,0,0,1,1.29-1,4.73,4.73,0,0,1,1.59-.57,5.13,5.13,0,0,1,1.66,0,6.53,6.53,0,0,1,2.83,1.27,7.29,7.29,0,0,1,1.4,1.39,6.81,6.81,0,0,1,1,1.67,9.08,9.08,0,0,1,.4,1.26,4,4,0,0,1,0,1.35c-.53-.76-1-1.47-1.58-2.12a13.24,13.24,0,0,0-1.75-1.76,5.73,5.73,0,0,0-2-1.07,3.22,3.22,0,0,0-2,.11,2.87,2.87,0,0,0-.84.54,3.48,3.48,0,0,0-.66.8,5.82,5.82,0,0,0-.74,2.11,9.52,9.52,0,0,0,.57,4.73,12.3,12.3,0,0,0,1,2.13A8.78,8.78,0,0,0,57.9,91.8,5.42,5.42,0,0,0,59.68,93a2.94,2.94,0,0,0,3.61-1A5.27,5.27,0,0,0,64.24,90a18.12,18.12,0,0,0,.4-2.43,8,8,0,0,0,0-1.45A8.78,8.78,0,0,1,64.53,84.56Z"/><path class="cls-8" d="M60,93.46H59.9a5.77,5.77,0,0,1-3.75-2.18A9.46,9.46,0,0,1,54.3,87.1,7.43,7.43,0,0,1,55,81.83a3.66,3.66,0,0,1,2.53-1.69,2.8,2.8,0,0,1,2.31.69.84.84,0,0,1,.07,1.2.85.85,0,0,1-1.2.07,1.13,1.13,0,0,0-.94-.27,2,2,0,0,0-1.33.92,5.69,5.69,0,0,0-.48,4,7.65,7.65,0,0,0,1.49,3.42,4,4,0,0,0,2.6,1.56.84.84,0,0,1,.76.93A.85.85,0,0,1,60,93.46Z"/><path class="cls-8" d="M97.26,73.66a.82.82,0,0,1-.47-.15,4.42,4.42,0,0,0-4.88-.18.81.81,0,0,1-1.11-.25.8.8,0,0,1,.26-1.1,6.06,6.06,0,0,1,6.68.24.8.8,0,0,1-.48,1.44Z"/><path class="cls-8" d="M78.58,73.66a.82.82,0,0,1-.47-.15,4.42,4.42,0,0,0-4.88-.18.8.8,0,0,1-1.1-.25.79.79,0,0,1,.25-1.1,6.06,6.06,0,0,1,6.68.24.8.8,0,0,1,.17,1.12A.81.81,0,0,1,78.58,73.66Z"/><ellipse class="cls-11" cx="94.78" cy="80.85" rx="2.66" ry="1.42" transform="matrix(0, -1, 1, 0, 13.5, 175.27)"/><path class="cls-11" d="M94.78,84.45h0c-1.35,0-2.35-1.56-2.34-3.61A5,5,0,0,1,93,78.52a2.16,2.16,0,0,1,1.83-1.26h0c1.35,0,2.35,1.55,2.34,3.61h0a5,5,0,0,1-.53,2.32A2.16,2.16,0,0,1,94.78,84.45Zm0-5.3a2.64,2.64,0,0,0-.5,1.7,2.55,2.55,0,0,0,.49,1.71,2.64,2.64,0,0,0,.5-1.7A2.55,2.55,0,0,0,94.79,79.15Zm1.42,1.71Z"/><ellipse class="cls-14" cx="95.39" cy="79.73" rx="1.16" ry="0.8" transform="translate(15.23 174.76) rotate(-89.74)"/><ellipse class="cls-11" cx="75.28" cy="80.85" rx="2.66" ry="1.42" transform="matrix(0, -1, 1, 0, -5.91, 155.77)"/><path class="cls-11" d="M75.27,84.45h0c-1.35,0-2.36-1.56-2.35-3.61a5.15,5.15,0,0,1,.54-2.32,2.14,2.14,0,0,1,1.83-1.26h0c1.34,0,2.35,1.55,2.34,3.61a4.9,4.9,0,0,1-.54,2.32A2.13,2.13,0,0,1,75.27,84.45Zm0-5.3a3.21,3.21,0,0,0,0,3.41,2.52,2.52,0,0,0,.5-1.7A2.56,2.56,0,0,0,75.29,79.15Z"/><ellipse class="cls-14" cx="75.88" cy="79.73" rx="1.16" ry="0.8" transform="translate(-4.19 155.26) rotate(-89.74)"/><path class="cls-10" d="M75,99.72c3.27-.09,6.56.74,9.82.65s6.62-1.08,9.94-1.17a3.19,3.19,0,0,1,2.71,4.73c-1.4,3-5,5.16-7.52,6a14.3,14.3,0,0,1-9.53-.14,17,17,0,0,1-7.35-4.57C71.18,102.94,72.52,99.78,75,99.72Z"/><path class="cls-10" d="M85.52,112.29a17,17,0,0,1-5.59-1c-2.46-.86-5.86-2.44-8-5.06a5.15,5.15,0,0,1-.83-5.45A4.43,4.43,0,0,1,75,98.15h0a37.67,37.67,0,0,1,5.13.34,33.21,33.21,0,0,0,4.69.32,35.42,35.42,0,0,0,4.76-.57,38,38,0,0,1,5.18-.6,4.58,4.58,0,0,1,3.92,2.13,4.88,4.88,0,0,1,.25,4.83A12.13,12.13,0,0,1,95.08,109a18,18,0,0,1-4.58,2.46A15,15,0,0,1,85.52,112.29ZM75,99.72l0,1.56a1.32,1.32,0,0,0-1.16.81,2.06,2.06,0,0,0,.39,2.17,15.57,15.57,0,0,0,6.67,4.1,12.71,12.71,0,0,0,8.49.14c2.4-.85,5.5-2.84,6.63-5.24a1.71,1.71,0,0,0,0-1.78,1.5,1.5,0,0,0-1.22-.72,35.42,35.42,0,0,0-4.76.57,39.43,39.43,0,0,1-5.18.61,37.42,37.42,0,0,1-5.12-.34,33.25,33.25,0,0,0-4.7-.32Z"/><path class="cls-8" d="M89.78,105.8a23.14,23.14,0,0,0-2.34-.34,26.7,26.7,0,0,0-7.93.4,16.68,16.68,0,0,0-2,.54l-.62.23a1,1,0,0,0-.08,1.77c.36.18.72.34,1,.49a24.65,24.65,0,0,0,2.33.94,14.33,14.33,0,0,0,9.54.14,14.91,14.91,0,0,0,3.66-1.7,1,1,0,0,0-.27-1.7c-.7-.22-1.47-.33-2-.48S90.22,105.89,89.78,105.8Z"/><path class="cls-8" d="M85.26,112.29a16.92,16.92,0,0,1-5.58-1,24.21,24.21,0,0,1-2.48-1l-.36-.16-.71-.34a2.53,2.53,0,0,1,.2-4.63c.25-.1.5-.18.68-.24a15.22,15.22,0,0,1,2.19-.6,28.62,28.62,0,0,1,8.39-.43c.84.08,1.68.21,2.5.37.46.09.92.19,1.38.31l.65.14c.45.1,1,.2,1.46.36a2.52,2.52,0,0,1,.72,4.46,16.2,16.2,0,0,1-4.06,1.91A15,15,0,0,1,85.26,112.29Zm-6.4-4.67c.58.27,1.2.51,1.85.74a12.74,12.74,0,0,0,8.5.14c.55-.2,1.28-.45,2-.78l-.5-.11c-.39-.1-.8-.2-1.21-.28h0c-.72-.14-1.46-.25-2.2-.32a25.46,25.46,0,0,0-7.47.39C79.5,107.46,79.18,107.53,78.86,107.62Zm13.8.44Z"/><ellipse class="cls-5" cx="78.54" cy="94.17" rx="2.87" ry="2.13" transform="translate(-41.47 119.33) rotate(-62.01)"/><path class="cls-5" d="M78,97a1.76,1.76,0,0,1-.9-.24c-1.08-.62-1.31-2.31-.5-3.76a3.31,3.31,0,0,1,2-1.65,1.91,1.91,0,0,1,1.49.16c1.08.63,1.3,2.31.49,3.76h0a3.29,3.29,0,0,1-2,1.65A2,2,0,0,1,78,97Zm1.13-5.44a1.77,1.77,0,0,0-.5.07,3.09,3.09,0,0,0-1.78,1.51c-.73,1.31-.56,2.83.39,3.38a1.65,1.65,0,0,0,1.26.13,3.11,3.11,0,0,0,1.78-1.52c.74-1.31.56-2.83-.39-3.37A1.44,1.44,0,0,0,79.1,91.59Zm1.28,3.64Z"/><ellipse class="cls-5" cx="82.13" cy="94.14" rx="2.87" ry="2.13" transform="translate(-39.54 122.49) rotate(-62.01)"/><path class="cls-5" d="M81.57,97a1.79,1.79,0,0,1-.91-.24c-1.08-.63-1.3-2.32-.49-3.77a3.3,3.3,0,0,1,2-1.64,1.88,1.88,0,0,1,1.48.15c1.08.63,1.31,2.32.5,3.77h0a3.38,3.38,0,0,1-1.95,1.65A2.38,2.38,0,0,1,81.57,97Zm1.13-5.45a1.73,1.73,0,0,0-.5.07,3.09,3.09,0,0,0-1.78,1.51c-.74,1.32-.56,2.83.39,3.38a1.6,1.6,0,0,0,1.26.13,3.09,3.09,0,0,0,1.78-1.51c.73-1.31.56-2.83-.39-3.38A1.54,1.54,0,0,0,82.7,91.56ZM84,95.21Z"/><ellipse class="cls-5" cx="85.09" cy="94.12" rx="2.12" ry="2.88" transform="translate(-0.58 0.53) rotate(-0.35)"/><path class="cls-5" d="M85.09,97.15a2,2,0,0,1-1.6-.9,3.61,3.61,0,0,1-.67-2.11c0-1.67,1-3,2.25-3h0a2,2,0,0,1,1.61.89,3.63,3.63,0,0,1,.66,2.12h0c0,1.66-1,3-2.24,3Zm0-5.77h0c-1.09,0-2,1.25-2,2.75a3.3,3.3,0,0,0,.61,2,1.74,1.74,0,0,0,1.38.78h0c1.09,0,2-1.24,2-2.75h0a3.32,3.32,0,0,0-.6-2A1.75,1.75,0,0,0,85.08,91.38Z"/><ellipse class="cls-5" cx="91.51" cy="94.08" rx="2.13" ry="2.87" transform="translate(-33.95 55.54) rotate(-28.72)"/><path class="cls-5" d="M92.09,96.94a2.23,2.23,0,0,1-.56-.08,3.29,3.29,0,0,1-2-1.62h0c-.83-1.44-.63-3.13.45-3.77a1.88,1.88,0,0,1,1.48-.18,3.37,3.37,0,0,1,2,1.62c.83,1.44.63,3.13-.45,3.78A1.84,1.84,0,0,1,92.09,96.94ZM89.81,95.1a3.1,3.1,0,0,0,1.79,1.49,1.59,1.59,0,0,0,1.26-.15c1-.56,1.1-2.08.35-3.38a3.09,3.09,0,0,0-1.8-1.49,1.61,1.61,0,0,0-1.26.15c-.94.56-1.09,2.08-.34,3.38Z"/><ellipse class="cls-5" cx="87.98" cy="94.1" rx="2.13" ry="2.87" transform="translate(-34.39 53.85) rotate(-28.72)"/><path class="cls-5" d="M88.55,97a2.13,2.13,0,0,1-.55-.07,3.41,3.41,0,0,1-2-1.62h0c-.82-1.44-.62-3.13.45-3.78A1.93,1.93,0,0,1,88,91.32a3.34,3.34,0,0,1,2,1.62c.83,1.44.62,3.13-.45,3.77A1.75,1.75,0,0,1,88.55,97ZM87.4,91.53a1.52,1.52,0,0,0-.78.21c-.94.56-1.1,2.08-.35,3.38h0a3.11,3.11,0,0,0,1.8,1.49,1.6,1.6,0,0,0,1.26-.15c.94-.56,1.1-2.08.35-3.38a3.09,3.09,0,0,0-1.8-1.49A2,2,0,0,0,87.4,91.53Z"/><path class="cls-8" d="M96,111.31a.8.8,0,0,1-.41-1.49c1.6-.94,4.43-4.46,4.91-7,.43-2.29-.68-3.27-.72-3.31h0l1-1.25c.08.06,1.89,1.57,1.28,4.85-.58,3.09-3.78,7-5.67,8.09A.73.73,0,0,1,96,111.31Z"/><path class="cls-8" d="M69.57,102.05a.81.81,0,0,1-.8-.79c0-3.51,3.3-4.86,5.07-5.09a.8.8,0,1,1,.21,1.59h0a6.22,6.22,0,0,0-2,.67,3,3,0,0,0-1.71,2.81.81.81,0,0,1-.79.81Z"/><path class="cls-8" d="M85.55,90.59a.65.65,0,0,1-.27,0l-.42-.14a16.5,16.5,0,0,1-2.13-.87c-.77-.41-1.62-1.09-1.3-2.06a12.33,12.33,0,0,1,2.86-4.89l.17-.19a.8.8,0,0,1,1.19,1.07,1.7,1.7,0,0,1-.19.2A10.78,10.78,0,0,0,83,87.81a9.94,9.94,0,0,0,2.39,1.08l.44.15a.8.8,0,0,1-.28,1.55Z"/><circle class="cls-2" cx="656.71" cy="96.4" r="75.1"/><g class="cls-15"><circle class="cls-2" cx="656.71" cy="96.4" r="75.1"/></g><rect class="cls-4" x="610.82" y="44.41" width="91.79" height="79.86" rx="5.59"/><rect class="cls-16" x="616.94" y="63.84" width="79.54" height="51.09" rx="4.26"/><path class="cls-14" d="M692.22,115.55h-71a4.88,4.88,0,0,1-4.87-4.88V68.1a4.88,4.88,0,0,1,4.87-4.88h71a4.89,4.89,0,0,1,4.88,4.88v42.57A4.89,4.89,0,0,1,692.22,115.55Zm-71-51.08a3.63,3.63,0,0,0-3.63,3.63v42.57a3.64,3.64,0,0,0,3.63,3.64h71a3.64,3.64,0,0,0,3.64-3.64V68.1a3.63,3.63,0,0,0-3.64-3.63Z"/><path class="cls-17" d="M627.7,96.33h58A2.23,2.23,0,0,1,688,98.56l5.37,15.6H620.08l5.39-15.6A2.24,2.24,0,0,1,627.7,96.33Z"/><path class="cls-2" d="M656.71,48.3c-.56,0-.84.28-.84.7v1h-2.69a2.39,2.39,0,0,0-2.38,2.38,3.94,3.94,0,0,0,.25,1.47,1.83,1.83,0,0,0,.36.58l.19,2a3,3,0,0,0,3,2.73h1.29c0,.42.28.7.84.7s.84-.28.84-.7h1.33a3,3,0,0,0,3-2.73l.19-2.11a1.71,1.71,0,0,0,.31-.52,3.94,3.94,0,0,0,.25-1.47A2.39,2.39,0,0,0,660.24,50h-2.69V49C657.55,48.58,657.27,48.3,656.71,48.3Z"/><path class="cls-18" d="M625.46,64.6H688a0,0,0,0,1,0,0V96.65a3.13,3.13,0,0,1-3.13,3.13H628.59a3.13,3.13,0,0,1-3.13-3.13V64.6A0,0,0,0,1,625.46,64.6Z"/><path class="cls-2" d="M279.72,337a59.69,59.69,0,0,1,0,8.87c-1.78.37-197,.37-198.8,0a52.44,52.44,0,0,1,0-8.87C82.67,336.66,277.94,336.66,279.72,337Z"/><path class="cls-2" d="M454,102.69a68.93,68.93,0,0,1,0-7.33c1-.31,114.37-.31,115.39,0a63.89,63.89,0,0,1,0,7.33C568.34,103,455,103,454,102.69Z"/><path class="cls-2" d="M576,94.72a55.85,55.85,0,0,1,0,8.58c-4.19,3.48-12.61,9.51-17.71,13.15a26.26,26.26,0,0,1-5.38-7.5c2.17-2,10.59-7.77,13.91-9.94-3.32-2.18-11.74-8-13.91-9.94a26,26,0,0,1,5.32-7.5C563.39,85.15,571.81,91.24,576,94.72Z"/><path class="cls-4" d="M167.48,102.69c-.12-1.5-.12-5.83,0-7.33,1-.31,114.38-.31,115.39,0a59.63,59.63,0,0,1,0,7.33C281.86,103,168.52,103,167.48,102.69Z"/><path class="cls-4" d="M289.51,94.72a55.85,55.85,0,0,1,0,8.58c-4.18,3.48-12.6,9.51-17.71,13.15a26.26,26.26,0,0,1-5.38-7.5c2.18-2,10.6-7.77,13.91-9.94-3.31-2.18-11.73-8-13.91-9.94a26,26,0,0,1,5.33-7.5C276.91,85.15,285.33,91.24,289.51,94.72Z"/><path class="cls-2" d="M86.7,345.93c-1.5.11-5.83.11-7.33,0-.31-.92-.31-157.83,0-158.73a68.79,68.79,0,0,1,7.33,0C87,188.1,87,345,86.7,345.93Z"/><path class="cls-2" d="M78.73,180.35a58.5,58.5,0,0,1,8.58,0c3.48,4.19,9.51,12.61,13.15,17.72a26.12,26.12,0,0,1-7.5,5.38c-1.95-2.18-7.77-10.6-9.94-13.91-2.17,3.31-8,11.73-9.94,13.91a26,26,0,0,1-7.5-5.33C69.16,193,75.25,184.54,78.73,180.35Z"/><path class="cls-2" d="M658.62,337a52.44,52.44,0,0,1,0,8.87c-1.75.37-197,.37-198.8,0a62.52,62.52,0,0,1,0-8.87C461.61,336.66,656.87,336.66,658.62,337Z"/><path class="cls-2" d="M652.84,180.09a63.89,63.89,0,0,1,7.33,0c.31,1,.31,164.81,0,165.83-1.5.12-5.83.12-7.33,0C652.58,344.9,652.58,181.09,652.84,180.09Z"/><path class="cls-2" d="M476.15,324a26.09,26.09,0,0,1,5.32,7.5c-2.17,2-10.59,7.77-13.91,9.94,3.32,2.18,11.74,8,13.91,9.95a26.26,26.26,0,0,1-5.38,7.5c-5.1-3.65-13.52-9.68-17.71-13.15a56,56,0,0,1,0-8.59C462.57,333.67,471,327.59,476.15,324Z"/><circle class="cls-2" cx="370.07" cy="340.56" r="75.1"/><path class="cls-4" d="M349.2,374.23c1.24-.1,9.38-.1,11.13,0a29.89,29.89,0,0,1,0,3.79c-1.18,0-5.85,0-6.7,0a24.64,24.64,0,0,0,0,3.22c1.27-.05,6.55-.05,7.65,0a22.33,22.33,0,0,1,0,3.84c-1.49.1-10.38.1-12.08,0C349,382.78,349,376.53,349.2,374.23Zm.57,12.29c1.36-.15,16.05-.15,17.41,0a82.75,82.75,0,0,1,0,9.45c-1.23.13-16.17.13-17.41,0A82.75,82.75,0,0,1,349.77,386.52Zm13.11,5.85a16.45,16.45,0,0,0,0-2.22c-1,0-7.86-.08-8.78,0a16.45,16.45,0,0,0,0,2.22C355.05,392.44,361.93,392.44,362.88,392.37Zm.05-18.47a18.88,18.88,0,0,1,4.25,0c.08.49.11,2.08.13,4a22.13,22.13,0,0,1,2.22.11,19,19,0,0,1,0,3.84c-.44.05-1.32.1-2.22.1,0,1.75-.05,3.24-.13,3.71a30.07,30.07,0,0,1-4.25,0C362.8,384.36,362.8,375.19,362.93,373.9Z"/><path class="cls-4" d="M370.93,374.49a51.05,51.05,0,0,1,6.31,0c.13,1.06.13,19.36,0,20.42a39.45,39.45,0,0,1-4.35,0c-.05-1.73-.05-14.57,0-16.3a16,16,0,0,1-2,0A28.33,28.33,0,0,1,370.93,374.49Zm7.32,0a55.68,55.68,0,0,1,6.59,0c.13,1.06.13,19.36,0,20.42a39.45,39.45,0,0,1-4.35,0c-.05-1.73-.05-14.57,0-16.3a20.84,20.84,0,0,1-2.24,0A25.76,25.76,0,0,1,378.25,374.49Zm8.42-.59a19.14,19.14,0,0,1,4.28,0c.18,1.29.18,20.54,0,21.81a17,17,0,0,1-4.28,0C386.52,394.44,386.52,375.19,386.67,373.9Z"/><path class="cls-4" d="M382.24,325.65a4.91,4.91,0,0,0-4.9-4.9h-5.53v-2.1c0-.87-.58-1.45-1.73-1.45s-1.74.58-1.74,1.45v2.1h-5.53a4.92,4.92,0,0,0-4.91,4.9,8.27,8.27,0,0,0,.51,3,3.59,3.59,0,0,0,.75,1.19l.38,4.23a6.15,6.15,0,0,0,6.15,5.63h2.65c0,.87.58,1.44,1.73,1.44s1.74-.57,1.74-1.44h2.74a6.15,6.15,0,0,0,6.15-5.63l.39-4.35a3.74,3.74,0,0,0,.65-1.07A8.28,8.28,0,0,0,382.24,325.65Z"/><path class="cls-4" d="M418,323.9a18.45,18.45,0,0,0-8.9-15.8,8.22,8.22,0,0,1-3.37-4,18.48,18.48,0,0,0-17.21-11.75h-.14a8.46,8.46,0,0,1-5.75-2.31,18.47,18.47,0,0,0-25.17,0,8.46,8.46,0,0,1-5.75,2.31h-.14a18.48,18.48,0,0,0-17.21,11.75,8.22,8.22,0,0,1-3.37,4,18.48,18.48,0,0,0,7,34.1,3,3,0,0,1,2.58,2.94v7.55a7.13,7.13,0,0,1-2.91,5.75l-3.23,2.37a1.88,1.88,0,0,0-.77,1.52h0a1.88,1.88,0,0,0,1.88,1.87H346a6,6,0,0,1,2.49.55l3.06,1.43a5.83,5.83,0,0,0,3.77.41l4.28-.95a6,6,0,0,1,3.61.33l4.58,2a5.87,5.87,0,0,0,4.65,0l4.59-2a5.89,5.89,0,0,1,3.61-.34l4.3,1a5.83,5.83,0,0,0,3.77-.41l3.06-1.43a6,6,0,0,1,2.49-.55h10.4a1.88,1.88,0,0,0,1.88-1.87h0a1.84,1.84,0,0,0-.77-1.51l-3.24-2.35h0a3.17,3.17,0,0,0-3.37-.26,10.2,10.2,0,0,1-4.86,1.24h-23a.94.94,0,0,1-.94-.77.93.93,0,0,1,.18-.68l7.65-11.74a25.49,25.49,0,0,1-8,1.16c-11,0-18.28-5.24-18.28-17.51s7.29-20.82,18.28-20.82c10.44,0,17.31,8,18,19.32.29.39.57.64.91.63a4.34,4.34,0,0,0,1.72-.5c.33-.19.86-.63,1.21-.12s.05,1.08-.16,1.52a6,6,0,0,1-1.79,2.25l.2-.15a6,6,0,0,0-2.41,4.93,5.53,5.53,0,0,0,2,4.66h0a10,10,0,0,1,3.69,7.78,9.91,9.91,0,0,1-.91,4.19h0a.56.56,0,0,0,1,.51v0A10.06,10.06,0,0,0,392.4,343h0a10.05,10.05,0,0,1,7.17-15.87h.16a6.21,6.21,0,0,1,2.1,12.23,1.83,1.83,0,0,0-.45.15,1.45,1.45,0,0,0-.41,2.3h0l.17.15a1.24,1.24,0,0,0,.82.27A18.47,18.47,0,0,0,418,323.9Z"/><path class="cls-2" d="M371.2,359.43h23.05a10.21,10.21,0,0,0,10.21-10.11A10,10,0,0,0,401,341.8h0a1.43,1.43,0,0,1-.4-1,1.46,1.46,0,0,1,1.07-1.41,6.21,6.21,0,0,0-1.91-12.27h-.16A10.05,10.05,0,0,0,392.43,343h0a10.06,10.06,0,0,1,1.12,11.13v0a.56.56,0,0,1-1-.51h0a9.91,9.91,0,0,0,.91-4.19,10,10,0,0,0-3.69-7.78h0a5.53,5.53,0,0,1-2-4.66,6,6,0,0,1,2.41-4.93l-.2.15a6,6,0,0,0,1.79-2.25c.21-.44.45-1.1.16-1.52s-.88-.07-1.21.12a4.34,4.34,0,0,1-1.72.5c-1,0-1.5-2.16-2.93-3.46h0a6.19,6.19,0,0,0-4.29-1.72h0a3.47,3.47,0,0,0-3.39,2.94,6.58,6.58,0,0,0-.06.9,6.2,6.2,0,0,0,1.92,4.49h0a1.47,1.47,0,0,1,.5,1.11,1.45,1.45,0,0,1-.93,1.36h0a6.06,6.06,0,0,1-2.34.46,6.24,6.24,0,0,1-5.59-3.49h0a1.46,1.46,0,0,0-1.38-.8,1.48,1.48,0,0,0-1.37,1.26,1.44,1.44,0,0,0,0,.55h0a10.07,10.07,0,0,0,8.61,7.94h0a2.37,2.37,0,0,1,2.13,2.36,2.31,2.31,0,0,1-.36,1.25l-.05.09L370.48,358h0a.87.87,0,0,0-.19.55.9.9,0,0,0,.91.9"/><path class="cls-2" d="M381.83,326.86a.91.91,0,1,1-1.81,0,.91.91,0,0,1,1.81,0Z"/><path class="cls-2" d="M370.46,354.71a1,1,0,0,1-.64-.22,1,1,0,0,1-.17-1.44l1.17-1.48-.75,0c-6.75,0-12.38-1.86-16.29-5.38-4.21-3.79-6.36-9.28-6.38-16.32,0-7.48,2.67-14.48,7.37-19.19a20.48,20.48,0,0,1,14.78-6.16c11.87,0,21.2,9,22.18,21.38a1,1,0,1,1-2,.17A21.73,21.73,0,0,0,383.23,312a19.77,19.77,0,0,0-13.68-5.37,18.46,18.46,0,0,0-13.32,5.55c-4.32,4.33-6.79,10.8-6.77,17.74,0,12.49,7.55,19.65,20.61,19.65.8,0,2.18-.12,2.92-.19a1,1,0,0,1,1,.54,1,1,0,0,1-.1,1.13l-2.62,3.3A1,1,0,0,1,370.46,354.71Z"/><rect class="cls-14" x="152.95" y="283.44" width="55.12" height="112.29" transform="translate(520.1 159.07) rotate(90)"/><path class="cls-2" d="M135.85,330.25a25.13,25.13,0,0,1,4.59,0c1.09,3.92,4.7,19.68,4.87,20.94a16.8,16.8,0,0,1-4.51,1c-.25-.73-2-8.9-2.57-13.16-.67,4-2.58,12.66-2.86,13.41a15.62,15.62,0,0,1-4.48-1.06C131,350.13,134.76,334.17,135.85,330.25Zm8.17,7.22c.65,0,1.6,0,2.64,0,0-3.95,0-7.22.08-7.75a20,20,0,0,1,4.51,0c.11,1.4.11,21.84,0,23.24a21.22,21.22,0,0,1-4.51,0c-.06-.68-.08-5.86-.08-11.15-1,0-2,0-2.64,0A21.66,21.66,0,0,1,144,337.47Zm8.74-7.9a22,22,0,0,1,4.59,0c.17,1.4.17,22.35,0,23.72a17.6,17.6,0,0,1-4.59,0C152.68,351.92,152.68,331,152.76,329.57Z"/><path class="cls-2" d="M162.25,335.51c-1.31,0-2.32,0-2.69-.06a20.16,20.16,0,0,1,0-4.11c.59-.06,2.41-.11,4.57-.11,0-.9,0-1.85.08-2.47a28.64,28.64,0,0,1,4.9,0c.06.62.08,1.57.08,2.47,2.1,0,3.84,0,4.34.11a20.15,20.15,0,0,1,0,4.11c-.39,0-1.34,0-2.54.06,1.17,2.38,2.71,5.57,3,6.47a14.33,14.33,0,0,1-3.95,2.1,69.84,69.84,0,0,1-3.44-7.11,69.84,69.84,0,0,1-3.44,7.11,14.33,14.33,0,0,1-4-2.1C159.53,341.08,161.07,337.89,162.25,335.51Zm-2,9.63c1.43-.14,20.33-.14,21.73,0,.14,1.18.14,7.31,0,8.46-1.12.08-3.64.08-4.82,0,0-.84,0-3.17,0-4.23-1.29,0-15.65,0-16.91,0A37.28,37.28,0,0,1,160.29,345.14Zm14-10.47c.84-.06,2-.08,3-.06,0-2.43.05-4.5.11-5a22.29,22.29,0,0,1,4.62,0c.19,1.4.19,13.19,0,14.59a32.31,32.31,0,0,1-4.62,0c-.06-.53-.08-2.74-.11-5.26-1,0-2.16,0-3-.06A23.2,23.2,0,0,1,174.29,334.67Z"/><path class="cls-2" d="M200.86,329.69a46.14,46.14,0,0,1,5,0c2.07,3.1,5.71,9,7.58,12.18a15.89,15.89,0,0,1-4.11,2.66c-1-1.49-4.87-7.84-6-9.64-1.09,1.8-4.95,8.15-6,9.64a15.94,15.94,0,0,1-4.12-2.66C195.15,338.7,198.79,332.79,200.86,329.69Zm-7.31,19.23c.48-.05,3.67-.08,7.37-.08-.06-2.21,0-5.41.05-6.39a46.84,46.84,0,0,1,4.74,0c.08,1,.11,4.18,0,6.39,3.64,0,6.81,0,7.37.08a15.17,15.17,0,0,1,0,4.31c-1.4.12-18.43.12-19.58,0A16.37,16.37,0,0,1,193.55,348.92Z"/><path class="cls-2" d="M214.58,341.05c.53,0,2.91,0,5.71,0v-1.15c-2.26,0-4.2-.06-4.87-.09a87.09,87.09,0,0,1,0-10c1.35-.2,12.46-.2,14.37,0a20.72,20.72,0,0,1,0,4.17c-1.85,0-8,0-9.44,0v1.71c1.93-.06,8-.06,9.72,0a25.23,25.23,0,0,1,0,4.08c-.59.06-2.55.06-4.88.09V341c2.72,0,5.07,0,5.72,0a23.85,23.85,0,0,1,0,4.23c-1.68.09-15,.09-16.33,0A21.33,21.33,0,0,1,214.58,341.05Zm.59,5.41c1.43-.14,13.89-.14,15.12,0,.11,1.15.11,6.19,0,7.14a34.8,34.8,0,0,1-4.79,0c0-.59,0-2.47,0-3.25-1.26,0-9.07,0-10.33,0A18.07,18.07,0,0,1,215.17,346.46Z"/><path class="cls-2" d="M187.69,338.33a2.8,2.8,0,1,1-2.83,2.8A2.8,2.8,0,0,1,187.69,338.33Z"/><rect class="cls-14" x="535.6" y="310.63" width="55.12" height="57.92" transform="translate(902.75 -223.58) rotate(90)"/><path class="cls-2" d="M543.67,342.34c1.15-.14,16.77-.11,18.17,0a14.14,14.14,0,0,1,0,4.26c-.56,0-3.39.08-6.66.08,0,2.38,0,5.77-.09,6.75a21.41,21.41,0,0,1-4.67,0c-.09-1-.11-4.37-.09-6.75-3.3,0-6.18,0-6.66-.08A15.2,15.2,0,0,1,543.67,342.34Zm6.89-12.65a27.18,27.18,0,0,1,4.42,0c1.79,2.15,4.9,6.49,6.78,9.12a13.57,13.57,0,0,1-3.87,2.78c-1-1.12-4-5.46-5.12-7.17-1.12,1.71-4.12,6.05-5.12,7.17a13.49,13.49,0,0,1-3.87-2.75C545.63,336.18,548.77,331.84,550.56,329.69Z"/><path class="cls-2" d="M563.21,330.22c1.4-.14,8.54-.14,9.94,0,.06.67.09,4,.12,7.87,1.09,0,2.4,0,3.5,0,0-4.29.05-8,.11-8.52a22.58,22.58,0,0,1,4.65,0c.19,1.4.19,22.35,0,23.72a18.06,18.06,0,0,1-4.65,0c-.09-.64-.11-5.57-.11-10.75h-3.5c0,4.73-.06,9.18-.12,9.85a26.69,26.69,0,0,1-4.73,0c-.06-1.31-.06-16.24,0-17.61-1.6.06-3.92.09-5.21,0A24.81,24.81,0,0,1,563.21,330.22Z"/><path class="cls-2" d="M350.87,144.58c.33,0,1.62-.06,3.33-.09,0-3.1,0-8.68.06-9.74a27,27,0,0,1,4.76,0c.05,1.06.08,6.61.05,9.74,3.42,0,6.78,0,7.45.09a15,15,0,0,1,0,4.34c-1.4.11-14.5.11-15.65,0A15.77,15.77,0,0,1,350.87,144.58Zm.75-18.68c1.8-.08,12.46-.08,14.12,0,.11,1.37.11,14.31,0,15.71a21.78,21.78,0,0,1-4.71,0c0-1.71,0-8.71,0-11.37-.95.06-8.06,0-9.41,0A22.17,22.17,0,0,1,351.62,125.9Z"/><path class="cls-2" d="M368,125.9c1.4-.14,7.36-.14,8.76,0,.14,1.15.14,11.17,0,12.32a39,39,0,0,1-4.59,0c-.06-1.87-.06-6.05,0-7.92-1.15,0-2.91,0-4.17,0A26.93,26.93,0,0,1,368,125.9Zm1,13.64c1.43-.14,18.4-.14,19.8,0,.14,1.17.14,8.62,0,9.77-1.12.08-3.64.08-4.81,0,0-.84,0-4.48,0-5.54-1.29,0-13.72,0-15,0A37.29,37.29,0,0,1,369,139.54Zm9.38-14.14a23.42,23.42,0,0,1,4.43,0c0,.45.06,2.24.06,4.37h1.37c0-2.19,0-4,0-4.48a20.27,20.27,0,0,1,4.54,0c.17,1.26.17,11.92,0,13.24a31.26,31.26,0,0,1-4.54,0l0-4.48h-1.37c0,2.1,0,3.86-.06,4.37a19.26,19.26,0,0,1-4.43,0C378.22,137.07,378.22,126.57,378.33,125.4Z"/><rect class="cls-2" x="606.43" y="120.25" width="100.56" height="29.53"/><path class="cls-4" d="M620.13,125.68a25.78,25.78,0,0,1,4.65,0c0,.5,0,1.65,0,3,1.76,0,4.84,0,6.55,0,0-1.32,0-2.47,0-3a25.46,25.46,0,0,1,4.62,0c.16,1.68.16,11.9,0,13.72-1.35.14-14.28.17-15.88,0C619.93,137.07,620,127.39,620.13,125.68Zm.64,15.29a22.28,22.28,0,0,1,4.76,0c0,.92.06,2.85,0,3.61,1.29-.06,16.3-.06,17.53,0a19,19,0,0,1,0,4.39c-1.9.12-20.27.12-22.29,0C620.66,147.07,620.63,142.65,620.77,141Zm4-5.55c.61.06,6,.06,6.61,0l0-2.85c-1.71,0-4.79,0-6.55,0Zm13.35-10.13a21.26,21.26,0,0,1,4.65,0c.09.58.14,3.38.14,6.58a22.91,22.91,0,0,1,2.41.11,20.75,20.75,0,0,1,0,4.17,22.91,22.91,0,0,1-2.41.11c0,3.14,0,5.85-.14,6.41a30,30,0,0,1-4.65,0C638,141.3,638,126.69,638.13,125.29Z"/><path class="cls-4" d="M646.9,125.85a26.69,26.69,0,0,1,4.73,0c.06,1.31.06,4.31,0,5.06,1-.11,5.94-.11,7.22,0a21.35,21.35,0,0,1,0,4.23c-1.4.14-10.55.14-12,0C646.76,133.43,646.76,127.27,646.9,125.85Zm.53,10.86a32.79,32.79,0,0,1,4.65,0c0,.48,0,1.34,0,2.35,2.15,0,6.41-.05,8.51,0,0-1,0-1.9,0-2.35a32,32,0,0,1,4.59,0c.11,1.34.14,10.75,0,12.57-1.35.14-16.21.17-17.81,0C647.26,147,647.32,138.14,647.43,136.71Zm4.65,8.4c.61.06,7.95.06,8.57,0l0-2.24c-2.1,0-6.36,0-8.51,0Zm8.54-19.82a21,21,0,0,1,4.62,0c.08.53.11,2,.14,3.64a22.91,22.91,0,0,1,2.41.11,20.75,20.75,0,0,1,0,4.17,23.12,23.12,0,0,1-2.44.11c0,1.07-.06,1.91-.11,2.3a32.31,32.31,0,0,1-4.62,0C660.48,134.25,660.48,126.69,660.62,125.29Z"/><path class="cls-4" d="M669.19,126.41c.61,0,3-.06,5.68-.06,0-.59,0-1.2.06-1.76a26.69,26.69,0,0,1,4.73,0c.05.56.08,1.17.08,1.76,2.55,0,4.71,0,5.35.06a14.88,14.88,0,0,1,0,3.89c-1.71.08-14.34.08-15.9,0A12.69,12.69,0,0,1,669.19,126.41Zm8.12,4.5c5.54,0,7.89,1.77,7.89,4.37s-2.35,4.4-7.89,4.4-7.9-1.77-7.9-4.4S671.76,130.91,677.31,130.91Zm-6.86,9.58c1.48-.14,18.84-.17,20.32,0a64.46,64.46,0,0,1,0,8.79c-1.34.14-19,.14-20.32,0A64.46,64.46,0,0,1,670.45,140.49Zm6.86-4.2c2.85,0,3.66-.36,3.66-1s-.81-1-3.66-1-3.67.37-3.67,1S674.45,136.29,677.31,136.29Zm8.79,9.3a6.37,6.37,0,0,0,0-1.38c-1.07-.05-9.94-.08-11,0a5.31,5.31,0,0,0,0,1.38C676.19,145.67,685.06,145.67,686.1,145.59Zm0-20.3a21,21,0,0,1,4.62,0c.09.64.14,3.22.14,6a22.76,22.76,0,0,1,2.41.11,20.75,20.75,0,0,1,0,4.17,22.76,22.76,0,0,1-2.41.11c0,1.88-.08,3.39-.14,3.84a32.31,32.31,0,0,1-4.62,0C686,138.14,686,126.69,686.15,125.29Z"/><path class="cls-2" d="M54.26,135.53c1.42-.08,14.86-.08,16.6,0a23,23,0,0,1,0,4.15c-1.74,0-15.18,0-16.6,0A20.54,20.54,0,0,1,54.26,135.53Zm8.28-10.72c5.49,0,7.84,2,7.84,5.07S68,135,62.54,135s-7.84-2-7.84-5.07S57.06,124.81,62.54,124.81Zm-7.67,16c1.32-.14,14.06-.14,15.37,0a64.46,64.46,0,0,1,0,8.79c-1.42.17-13.94.17-15.37,0A67.85,67.85,0,0,1,54.87,140.77Zm4.82,5c1,.09,4.73.09,5.74,0v-1.17c-1-.09-4.73-.09-5.74,0Zm2.85-14.67c2.22,0,2.83-.56,2.83-1.2s-.61-1.21-2.83-1.21-2.82.56-2.82,1.21S60.33,131.08,62.54,131.08Z"/><path class="cls-2" d="M77,125.57a28.4,28.4,0,0,1,4.88,0c.61,1,4.87,9.88,5.29,11a19.27,19.27,0,0,1-4.06,2.1c-.53-.75-2.3-4.39-3.64-7.33-1.29,3-3,6.72-3.45,7.5a17.68,17.68,0,0,1-4.25-1.9C72.12,135.73,76.32,126.6,77,125.57Zm-3.75,14.28c1.43-.14,18.09-.14,19.49,0,.14,1.17.14,8.59,0,9.46-1.12.08-3.64.08-4.82,0,0-.84,0-4.17,0-5.24-1.28,0-13.41,0-14.67,0A37.11,37.11,0,0,1,73.21,139.85Zm14.87-14.56a21,21,0,0,1,4.62,0c.2,1.4.2,12.18,0,13.58a32.31,32.31,0,0,1-4.62,0C87.94,137.49,87.94,126.69,88.08,125.29Z"/><path class="cls-2" d="M97.71,130c-1.26,0-2.24,0-2.57-.06a21.86,21.86,0,0,1,0-4.28c1.62-.23,12.57-.23,14,0a21.83,21.83,0,0,1,0,4.28c-.4,0-1.35,0-2.58.06a70.3,70.3,0,0,1,2.86,6.49,14.45,14.45,0,0,1-4.23,1.88,71.25,71.25,0,0,1-3-6.94c-.93,2.46-2.36,6-2.89,6.91A15,15,0,0,1,95,136.68,65.41,65.41,0,0,1,97.71,130ZM96,139.37c1.48-.17,20-.17,21.45,0a86.22,86.22,0,0,1,0,9.91c-1.35.14-20.11.14-21.45,0A81.91,81.91,0,0,1,96,139.37Zm16.77,6a11.58,11.58,0,0,0,0-2c-1.06-.06-11.06-.09-12.07,0a13.89,13.89,0,0,0,0,2C101.69,145.45,111.68,145.45,112.72,145.36Zm-3.28-15c.84-.06,2.1-.08,3.22-.06,0-2.38.06-4.48.12-5.06a21,21,0,0,1,4.62,0c.19,1.4.19,11.7,0,13.1a32.32,32.32,0,0,1-4.62,0c-.06-.48-.09-2-.09-3.84-1.15,0-2.41,0-3.25-.05A22.31,22.31,0,0,1,109.44,130.41Z"/></svg>