<svg width="47" height="18" viewBox="0 0 47 18" fill="none" xmlns="http://www.w3.org/2000/svg">
<path d="M0.123047 16.28C0.703047 16.62 2.60305 17.2 3.34305 17.26C3.58305 16.72 4.92305 11.8 6.06305 7.20002C7.24305 11.68 8.58305 16.58 8.82305 17.1C9.62305 17.02 11.503 16.4 12.043 16.08C11.843 15.18 8.54305 4.10002 7.62305 1.34002C6.98305 1.24002 5.04305 1.24002 4.40305 1.34002C3.48305 4.14002 0.243047 15.4 0.123047 16.28ZM10.803 8.80002C11.323 8.86002 12.943 8.88002 14.163 8.86002C14.143 13 14.183 17.3 14.243 17.8C15.023 17.94 16.983 17.94 17.563 17.8C17.703 16.82 17.703 1.86002 17.563 0.860019C16.883 0.74002 14.923 0.74002 14.243 0.860019C14.203 1.20002 14.183 3.18002 14.163 5.68002C12.943 5.66002 11.323 5.68002 10.803 5.74002C10.703 6.18002 10.703 8.36002 10.803 8.80002Z" fill="#FFCD00"/>
<path d="M19.4005 17.22C20.5405 17.34 26.8205 17.32 27.7805 17.22C27.8605 15.92 27.8605 3.04002 27.7805 1.24002C27.1405 1.14002 25.2405 1.14002 24.5205 1.24002C24.5005 1.90002 24.5005 3.52002 24.5005 5.40002C23.9405 5.40002 23.2605 5.40002 22.7005 5.42002C22.7005 3.54002 22.7005 1.90002 22.6805 1.24002C22.0005 1.14002 19.9805 1.14002 19.4005 1.24002C19.3005 3.06002 19.2805 15.56 19.4005 17.22ZM22.6805 14.18C22.6805 13.92 22.7005 11.34 22.7005 8.50002C23.2605 8.52002 23.9405 8.50002 24.5005 8.50002C24.5005 11.32 24.5205 13.92 24.5205 14.18C24.0805 14.22 23.1205 14.22 22.6805 14.18ZM29.0805 17.8C29.8605 17.94 31.8205 17.94 32.4005 17.8C32.5405 16.82 32.5405 1.86002 32.4005 0.860019C31.7205 0.74002 29.7605 0.74002 29.0805 0.860019C28.9605 1.86002 28.9605 16.82 29.0805 17.8Z" fill="#FFCD00"/>
<path d="M33.8443 17.76C34.6643 17.84 45.4243 17.84 46.4243 17.76C46.5843 17.04 46.5643 15.48 46.4243 14.68C45.4243 14.6 34.6643 14.58 33.8443 14.68C33.7043 15.44 33.7043 16.98 33.8443 17.76ZM33.9043 11.6C34.3243 12.06 36.2643 12.76 37.0443 12.92C37.4643 12.1 39.8043 6.58002 40.1443 5.62002C40.4643 6.58002 42.8243 12.1 43.2443 12.92C44.0043 12.76 45.9643 12.06 46.3643 11.6C45.4243 9.14002 42.4443 2.64002 41.5643 0.940019C40.9843 0.880019 39.2843 0.880019 38.7043 0.940019C37.8243 2.64002 34.8443 9.14002 33.9043 11.6Z" fill="#FFCD00"/>
</svg>
