<svg id="레이어_1" data-name="레이어 1" xmlns="http://www.w3.org/2000/svg" viewBox="0 0 68.02 18.51"><defs><style>.cls-1{fill:#ffcd00;}</style></defs><path class="cls-1" d="M7.42,1.06c3.74,0,6,2.54,6,7.82,0,5.5-2.4,7.83-6,7.83-3.72,0-6-2.52-6-7.83C1.46,3.38,3.86,1.06,7.42,1.06Zm0,12.61C9,13.67,10,12.12,10,8.88S8.93,4.1,7.42,4.1,4.81,5.63,4.81,8.88,5.91,13.67,7.42,13.67ZM14.31.83a14.45,14.45,0,0,1,3.22,0c.13,1,.13,15.45,0,16.4a13.32,13.32,0,0,1-3.22,0C14.2,16.28,14.2,1.8,14.31.83Z"/><path class="cls-1" d="M18.91,8c.23,0,1,0,2.11,0V6.5a2.73,2.73,0,0,1-1.78-2.63c0-2,1.62-3.37,6.39-3.37S32,1.87,32,3.87a2.72,2.72,0,0,1-1.8,2.63V8c1.06,0,1.84,0,2.11,0a18,18,0,0,1,0,2.94c-1.2,0-12.43,0-13.42,0A14.43,14.43,0,0,1,18.91,8Zm6.7,3.45c4.84,0,6.58,1.18,6.58,3.23s-1.74,3.23-6.58,3.23S19,16.76,19,14.71,20.77,11.48,25.61,11.48Zm0,3.91c2.73,0,3.25-.29,3.25-.68S28.34,14,25.61,14s-3.25.29-3.25.68S22.88,15.39,25.61,15.39Zm0-10.79c2.5,0,2.92-.33,2.92-.73s-.42-.74-2.92-.74-2.93.33-2.93.74S23.13,4.6,25.63,4.6ZM27,8V7.2c-.44,0-.91,0-1.41,0s-1,0-1.43,0V8Z"/><path class="cls-1" d="M33.71,1a18.28,18.28,0,0,1,3.14,0c0,.31,0,.87,0,1.53.91,0,2.26,0,3.13,0,0-.66,0-1.22,0-1.53a18.05,18.05,0,0,1,3.12,0c.11,1.13.11,7,0,8.19-.93.1-8.33.12-9.43,0C33.57,7.68,33.59,2.18,33.71,1ZM41,10c5.13,0,7.14,1.35,7.14,3.87s-2,3.87-7.14,3.87-7.14-1.36-7.14-3.87S35.84,10,41,10ZM36.85,6.56c.42,0,2.75,0,3.17,0l0-1.43c-.87,0-2.22,0-3.13,0ZM41,15c3,0,3.78-.35,3.78-1.1S44,12.78,41,12.78s-3.78.34-3.78,1.1S38,15,41,15ZM44.44.83a14.18,14.18,0,0,1,3.19,0c.06.37.08,1.57.1,3a16,16,0,0,1,1.66.08,13.86,13.86,0,0,1,0,2.88,16,16,0,0,1-1.66.08c0,1.36,0,2.52-.1,2.87a24.21,24.21,0,0,1-3.19,0C44.34,8.77,44.34,1.8,44.44.83Z"/><path class="cls-1" d="M50.41,1a17.94,17.94,0,0,1,3.11,0c0,.27,0,.78,0,1.38,1.11,0,2.91,0,4,0,0-.6,0-1.11,0-1.38a17.82,17.82,0,0,1,3.1,0c0,.33.06,1.2.08,2.25.75,0,1.7,0,2.52,0,0-1.14,0-2.09,0-2.44a14.27,14.27,0,0,1,3.2,0c.13,1,.13,7.45,0,8.42a21.32,21.32,0,0,1-3.2,0c0-.37,0-1.59-.07-3-.8,0-1.75,0-2.5,0,0,1.22,0,2.27-.08,2.71-.93.1-9.1.12-10.2,0C50.27,7.39,50.29,2.07,50.41,1Zm.44,9a21.62,21.62,0,0,1,3.22,0l0,1.14c2,0,7.18,0,9.17,0l0-1.14a21.09,21.09,0,0,1,3.18,0c.08,1,.1,6.15,0,7.41-.93.1-14.5.12-15.61,0C50.74,15.81,50.78,11,50.85,10Zm2.67-3.7c.43,0,3.57,0,4,0l0-1.36c-1,0-2.84,0-4,0Zm.55,8.4c.42,0,8.79,0,9.21,0l0-1.08c-2,0-7.12,0-9.17,0Z"/></svg>