<svg width="77" height="19" viewBox="0 0 77 19" fill="none" xmlns="http://www.w3.org/2000/svg">
<path d="M0.865238 13.2C1.24524 13.22 2.80524 13.24 4.68524 13.24C4.64524 14.88 4.66524 17.2 4.72524 17.9C5.50524 18.02 7.44524 18.02 8.04524 17.9C8.10524 17.2 8.12524 14.88 8.08524 13.24C9.94524 13.24 11.5252 13.22 11.9652 13.2C12.0852 12.48 12.0652 10.92 11.9652 10.12C10.8052 10.04 1.82524 10.02 0.865238 10.12C0.745238 10.88 0.745238 12.42 0.865238 13.2ZM1.12524 5.12001C1.12524 7.60001 3.10524 9.48001 6.44524 9.48001C9.78524 9.48001 11.7652 7.60001 11.7652 5.12001C11.7652 2.64001 9.78524 0.76001 6.44524 0.76001C3.10524 0.76001 1.12524 2.64001 1.12524 5.12001ZM4.44524 5.12001C4.44524 4.32001 5.16524 3.68001 6.44524 3.68001C7.72524 3.68001 8.44524 4.32001 8.44524 5.12001C8.44524 5.92001 7.72524 6.56001 6.44524 6.56001C5.16524 6.56001 4.44524 5.92001 4.44524 5.12001ZM12.7452 17.8C13.5252 17.94 15.4852 17.94 16.0852 17.8C16.2252 16.82 16.2252 1.86001 16.0852 0.86001C15.4052 0.74001 13.4452 0.74001 12.7452 0.86001C12.6252 1.86001 12.6252 16.84 12.7452 17.8Z" fill="#FFCD00"/>
<path d="M17.1459 9.04001C17.7259 9.42001 19.5659 10.12 20.2659 10.22C20.5859 9.56001 21.4459 7.08001 21.9659 5.54001C22.5459 7.06001 23.4859 9.52001 23.8259 10.16C24.5259 10.04 26.3259 9.28001 26.9059 8.88001C26.6259 7.98001 24.0459 1.92001 23.7059 1.12001C23.0859 1.04001 20.9259 1.04001 20.2259 1.12001C19.7659 2.00001 17.3859 8.14001 17.1459 9.04001ZM18.0659 14.44C18.0659 17.04 20.1459 18.34 26.4459 18.34C32.9459 18.34 35.0259 17.04 35.0259 14.44C35.0259 11.84 32.9459 10.54 26.4459 10.54C20.1459 10.54 18.0659 11.84 18.0659 14.44ZM21.5459 14.44C21.5459 13.74 22.3459 13.38 26.4459 13.38C30.7459 13.38 31.5459 13.74 31.5459 14.44C31.5459 15.14 30.7459 15.5 26.4459 15.5C22.3459 15.5 21.5459 15.14 21.5459 14.44ZM27.3059 9.90001C28.0859 10.02 29.8859 10.02 30.4659 9.90001C30.4859 9.56001 30.5059 8.40001 30.5059 7.02001H31.4659C31.4659 8.56001 31.4859 9.88001 31.4859 10.24C32.2059 10.32 34.0859 10.32 34.7259 10.24C34.8459 9.28001 34.8459 1.74001 34.7259 0.86001C34.0459 0.74001 32.1659 0.74001 31.4859 0.86001C31.4859 1.18001 31.4659 2.46001 31.4659 3.96001H30.5059C30.5059 2.50001 30.4859 1.26001 30.4659 0.94001C29.7859 0.84001 27.9859 0.84001 27.3059 0.94001C27.2259 1.78001 27.2259 8.94001 27.3059 9.90001Z" fill="#FFCD00"/>
<path d="M36.0787 9.50001C36.0787 10.62 36.9787 11.5 38.0987 11.5C39.2187 11.5 40.1187 10.62 40.1187 9.50001C40.1187 8.38001 39.2187 7.50001 38.0987 7.50001C36.9787 7.50001 36.0787 8.38001 36.0787 9.50001Z" fill="#FFCD00"/>
<path d="M41.1006 6.08001C41.1006 9.32001 43.2606 11.32 46.8006 11.32C50.3406 11.32 52.5005 9.32001 52.5005 6.08001C52.5005 2.84001 50.3406 0.84001 46.8006 0.84001C43.2606 0.84001 41.1006 2.84001 41.1006 6.08001ZM41.9606 17.78C43.4006 17.86 55.7206 17.86 57.0806 17.78C57.2006 17.12 57.2006 15.32 57.0806 14.64C56.2006 14.6 46.2805 14.6 45.3605 14.64C45.4006 14.1 45.3806 12.5 45.3605 11.84C44.6605 11.72 42.6406 11.72 41.9606 11.84C41.8606 13.04 41.8806 16.42 41.9606 17.78ZM44.3806 6.08001C44.3806 4.62001 45.3006 3.70001 46.8006 3.70001C48.3006 3.70001 49.2206 4.62001 49.2206 6.08001C49.2206 7.54001 48.3006 8.46001 46.8006 8.46001C45.3006 8.46001 44.3806 7.54001 44.3806 6.08001ZM53.5606 13.28C54.3405 13.36 56.3006 13.36 56.8806 13.28C56.9406 12.86 56.9806 10.7 56.9806 8.30001C57.6806 8.30001 58.3605 8.26001 58.7006 8.22001C58.8005 7.80001 58.8005 5.68001 58.7006 5.24001C58.3605 5.20001 57.6806 5.16001 56.9806 5.16001C56.9606 3.04001 56.9406 1.24001 56.8806 0.86001C56.2006 0.74001 54.2406 0.74001 53.5606 0.86001C53.4805 1.86001 53.4805 12.3 53.5606 13.28Z" fill="#FFCD00"/>
<path d="M59.5427 9.94001C60.0627 10.32 61.8827 11 62.5827 11.08C62.9227 10.5 63.9427 7.70001 64.6827 5.58001C65.5027 7.56001 66.8427 10.52 67.2227 11.16C67.9427 11.02 69.6427 10.22 70.1627 9.76001C69.9627 9.14001 68.6427 6.30001 67.6827 4.30001C68.6827 4.28001 69.4827 4.28001 69.8027 4.26001C69.9027 3.74001 69.9027 1.58001 69.8027 1.20001C68.7827 1.04001 60.7827 1.04001 59.6227 1.20001C59.5227 1.62001 59.5227 3.82001 59.6227 4.26001C59.8827 4.28001 60.6227 4.30001 61.6027 4.30001C60.7627 6.42001 59.6827 9.28001 59.5427 9.94001ZM60.2027 17.78C61.6427 17.86 74.5627 17.86 75.9227 17.78C76.0427 17.12 76.0427 15.32 75.9227 14.64C75.0427 14.6 64.5227 14.6 63.6027 14.64C63.6427 14.1 63.6227 12.56 63.6027 11.9C62.9027 11.78 60.8827 11.78 60.2027 11.9C60.1027 13.1 60.1227 16.42 60.2027 17.78ZM69.9627 7.70001C70.5827 7.72001 71.5027 7.74001 72.3427 7.74001C72.3427 10.36 72.3627 12.82 72.4027 13.28C73.1827 13.36 75.1427 13.36 75.7227 13.28C75.8627 12.28 75.8627 1.86001 75.7227 0.86001C75.0427 0.74001 73.0827 0.74001 72.4027 0.86001C72.3827 1.22001 72.3627 2.78001 72.3427 4.68001C71.5027 4.66001 70.5827 4.68001 69.9627 4.72001C69.8827 5.42001 69.8627 6.84001 69.9627 7.70001Z" fill="#FFCD00"/>
</svg>
