<svg id="레이어_1" data-name="레이어 1" xmlns="http://www.w3.org/2000/svg" viewBox="0 0 800 440"><defs><style>.cls-1{fill:#154734;}.cls-2{fill:#ffcd00;}.cls-3{fill:none;}</style></defs><path class="cls-1" d="M388.48,94.21H395c.08,2,1.49,3.37,4.24,3.37s4.16-1.34,4.24-3.37h6.73A19,19,0,0,0,428.76,79.7a40.77,40.77,0,0,0-7.24-1.81c-.11.37-.23.73-.37,1.08v0a12.43,12.43,0,0,1-.75,1.56l-.11.2a12,12,0,0,1-1,1.46h0a13.19,13.19,0,0,1-10.47,5.11h-19a13.23,13.23,0,0,1-10.54-5.17h0a14.93,14.93,0,0,1-.93-1.41l-.15-.27a13.92,13.92,0,0,1-.72-1.51v0c-.07-.17-.12-.34-.18-.51a24.36,24.36,0,0,0-7.07,2.42A19,19,0,0,0,388.48,94.21Z"/><path class="cls-1" d="M98.43,63.58a.32.32,0,0,0,0-.09H81.25c-6.58.22-25.24-.87-32.64-8.35A10.32,10.32,0,0,1,45.51,47,3.9,3.9,0,0,0,41.78,43a4,4,0,0,0-4.05,3.72,18,18,0,0,0,5.35,13.93C52.93,70.56,73.89,71.3,79.81,71.3c.89,0,1.44,0,1.57,0h19.13l-.46-5.14A8,8,0,0,1,98.43,63.58Z"/><path class="cls-1" d="M374.18,63.58a.32.32,0,0,1,0-.09H148.56l0,.09a7.76,7.76,0,0,1-1.4,2.31l-.48,5.39h229.6l-.46-5.14A7.82,7.82,0,0,1,374.18,63.58Z"/><path class="cls-1" d="M377,77.32l-.09-.39a15.45,15.45,0,0,1-.28-1.7h0l-.81-9.09a7.82,7.82,0,0,1-1.61-2.56,11.49,11.49,0,0,1-.48-1.47,19,19,0,0,1-.61-5A10.5,10.5,0,0,1,376,49.8a10.09,10.09,0,0,1,.83-.77,10.55,10.55,0,0,1,3.28-1.87l.61-.19a10.53,10.53,0,0,1,2.87-.41h31.2A10.55,10.55,0,0,1,425.36,57.1a20.81,20.81,0,0,1-.27,3.45,15.85,15.85,0,0,1-.82,3,8,8,0,0,1-1.39,2.31L422,75.23a14.17,14.17,0,0,1-.28,1.73l-.09.37c-.05.19-.09.38-.15.56a40.77,40.77,0,0,1,7.24,1.81,20.15,20.15,0,0,0,.51-2.93l.85-9.5a13.06,13.06,0,0,0,1.44-2.71,24.33,24.33,0,0,0,1.51-8.85,16.06,16.06,0,0,0-16-16H403.48v-5c0-2.13-1.42-3.55-4.26-3.55S395,32.56,395,34.69v5H381.41a16.06,16.06,0,0,0-16,16,24.16,24.16,0,0,0,1.52,8.85,12.52,12.52,0,0,0,1.7,3.08l.82,9.13a18.83,18.83,0,0,0,.82,4.07,24.36,24.36,0,0,1,7.07-2.42C377.17,78.06,377.07,77.69,377,77.32Z"/><path class="cls-1" d="M393,74.32c1.46-1.45,3.68-4.08,4.83-5.41,2.5-2.91,3.34-4.61,3.34-6.59s-1.21-2.91-4.21-2.91c-1.2,0-2.5,0-3.55,0a41.25,41.25,0,0,1,0-4.85c1.09-.06,2.54-.09,3.87-.09,6.4,0,9.13,2.72,9.13,7.45a11.42,11.42,0,0,1-2.63,7.92,45.56,45.56,0,0,1-3.9,4.27c2.57-.07,5.32,0,7,0a43,43,0,0,1,0,4.82c-1.92.12-11.63.12-13.8,0A24,24,0,0,1,393,74.32Z"/><path class="cls-2" d="M411.17,78.94a24.11,24.11,0,0,1-9.35,2.25h-3.09a60.76,60.76,0,0,1-13.39-2.42,18.24,18.24,0,0,0-8-.36c.06.17.1.36.17.52v0a13.92,13.92,0,0,0,.72,1.51l.15.27a14.93,14.93,0,0,0,.93,1.41h0a13.23,13.23,0,0,0,10.54,5.17h19a13.22,13.22,0,0,0,11.45-6.56l.11-.2a12.43,12.43,0,0,0,.75-1.56v0c.14-.35.24-.72.35-1.08C417.92,77.37,414.25,77.48,411.17,78.94Z"/><path class="cls-3" d="M650.24,49.65A10.6,10.6,0,0,1,654.55,47,10.6,10.6,0,0,0,650.24,49.65Z"/><path class="cls-3" d="M697.39,65.26c-.15.21-.28.43-.45.63l-.11,1.23h0l.11-1.23C697.11,65.69,697.24,65.47,697.39,65.26Z"/><path class="cls-3" d="M647.15,57.1h0a10.48,10.48,0,0,1,1.27-5A10.48,10.48,0,0,0,647.15,57.1Z"/><path class="cls-3" d="M669.55,46.56h19.33A10.55,10.55,0,0,1,699.42,57.1a17.82,17.82,0,0,1-1.09,6.48,7.77,7.77,0,0,1-.4.82,7.77,7.77,0,0,0,.4-.82,17.82,17.82,0,0,0,1.09-6.48,10.55,10.55,0,0,0-10.54-10.54h-31.2a10.78,10.78,0,0,0-3.13.47,10.78,10.78,0,0,1,3.13-.47Z"/><path class="cls-1" d="M699.51,63.49h-1.15l0,.09a9,9,0,0,1-.94,1.68c-.15.21-.28.43-.45.63l-.11,1.23c-4.3-1-9-1.2-12.79.6-7.06,3.35-15.11,2.82-25.82-.17a18.39,18.39,0,0,0-8.27-.31l-.1-1.1a7.82,7.82,0,0,1-1.61-2.56l0-.09H424.3l0,.09a8,8,0,0,1-1.39,2.31l-.49,5.39H699.51a3.9,3.9,0,0,0,0-7.79Z"/><path class="cls-1" d="M649.85,66.14a7.82,7.82,0,0,1-1.61-2.56,17.61,17.61,0,0,1-1.09-6.48h0a10.48,10.48,0,0,1,1.27-5,10.37,10.37,0,0,1,1.82-2.43A10.6,10.6,0,0,1,654.55,47a10.78,10.78,0,0,1,3.13-.47h31.2A10.55,10.55,0,0,1,699.42,57.1a17.82,17.82,0,0,1-1.09,6.48,9,9,0,0,1-.94,1.68c-.15.21-.28.43-.45.63l-.11,1.23A47,47,0,0,1,704,69.36l.19-2.09a13.06,13.06,0,0,0,1.44-2.71,24.12,24.12,0,0,0,1.51-8.85,16.06,16.06,0,0,0-16-16H677.54v-5c0-2.13-1.42-3.55-4.26-3.55S669,32.56,669,34.69v5H655.48a16.06,16.06,0,0,0-16,16A24.16,24.16,0,0,0,641,64.56a12.52,12.52,0,0,0,1.7,3.08l.19,2.11A24.91,24.91,0,0,1,650,67.24Z"/><path class="cls-1" d="M697.93,64.4a7.73,7.73,0,0,1-.54.86A7.73,7.73,0,0,0,697.93,64.4Z"/><path class="cls-1" d="M649.85,66.14a7.82,7.82,0,0,1-1.61-2.56,17.61,17.61,0,0,1-1.09-6.48h0a17.61,17.61,0,0,0,1.09,6.48,7.82,7.82,0,0,0,1.61,2.56l.1,1.1h0Z"/><path class="cls-2" d="M696.28,73.21a10.51,10.51,0,0,0-7.4-3h-31.2A10.48,10.48,0,0,0,650.47,73l.2,2.19a13.19,13.19,0,0,0,13.21,12.08h19A13.21,13.21,0,0,0,696.1,75.23l.73-8.11h0Z"/><path class="cls-2" d="M669.55,70.16h19.33a10.51,10.51,0,0,1,7.4,3l.55-6.09c-4.3-1-9-1.2-12.79.6-7.06,3.35-15.11,2.82-25.82-.17a18.39,18.39,0,0,0-8.27-.31l.52,5.8a10.48,10.48,0,0,1,7.21-2.88Z"/><path class="cls-1" d="M662.55,94.21H669c.08,2,1.49,3.37,4.24,3.37s4.17-1.34,4.25-3.37h6.72a19.05,19.05,0,0,0,19.08-17.44l.66-7.41a47,47,0,0,0-7.16-2.24l-.73,8.11a13.21,13.21,0,0,1-13.21,12.08h-19a13.19,13.19,0,0,1-13.21-12.08l-.2-2.19h0l-.52-5.8a24.91,24.91,0,0,0-7.11,2.51l.63,7A19.05,19.05,0,0,0,662.55,94.21Z"/><rect class="cls-2" x="650.21" y="67.23" height="5.82" transform="translate(-3.66 58.25) rotate(-5.12)"/><path class="cls-1" d="M720.12,333.69c-.91,0-1.48,0-1.63,0H97.64a3.9,3.9,0,0,1,0-7.79h621c6.7.21,25.37-.87,32.77-8.35a10.31,10.31,0,0,0,3.1-8.11,3.89,3.89,0,1,1,7.78-.33A18,18,0,0,1,756.92,323C747.08,333,726.15,333.69,720.12,333.69Z"/><path class="cls-1" d="M775.65,275.78l.11.05c4.8,2.23,5.2,7.69,5,10.84A2.42,2.42,0,0,0,782.3,289a3.08,3.08,0,0,0,.54.16,8.17,8.17,0,0,1,1.66.48,4.3,4.3,0,0,1,2.68,2.81c.85,3-1.66,5.66-3.65,7.23a2.2,2.2,0,0,0-.23,3.23c1.06,1.19,2,2.86,1.35,4.52-1.75,4.18-6.91,5.61-16.76,4.69a21.27,21.27,0,0,1-6.3-1.57,21.57,21.57,0,0,1-6.08-3.82c-7.42-6.62-10.24-11.37-8.7-15.08.7-1.66,2.56-2.14,4.16-2.22a2.19,2.19,0,0,0,2.11-2.46c-.33-2.63-.27-6.45,2.6-7.66a5.09,5.09,0,0,1,3.83.35,14.35,14.35,0,0,1,1.57.79l.3.15a2.43,2.43,0,0,0,2.76-.6c2-2.35,6.29-6.18,11.39-4.28l.12,0m2.77-6.65L778,269a15.31,15.31,0,0,0-12.68.9,21,21,0,0,0-4,2.78A11.15,11.15,0,0,0,746.15,281a15.14,15.14,0,0,0-.35,2.3,10.34,10.34,0,0,0-5.64,5.59c-1.16,2.77-1.85,7.25,1.4,12.85,1.84,3.16,4.75,6.47,9.15,10.4a28.92,28.92,0,0,0,8.1,5.09,28.52,28.52,0,0,0,8.41,2.09c5.95.56,10.41.35,14-.67,6.12-1.7,8.84-5.52,10-8.43a10.33,10.33,0,0,0,0-8,17.16,17.16,0,0,0,1.28-1.77,12.09,12.09,0,0,0,1.57-9.93,11.35,11.35,0,0,0-6.2-7.2c-.56-6.52-3.77-11.52-9.13-14l-.37-.16Z"/><path class="cls-1" d="M761.06,311.71a22.56,22.56,0,0,0,6.58,1.65c7,.65,15.48.54,18.28-6.18a6.46,6.46,0,0,0-1-6.46c4.1-3.73,3.91-7.24,3.39-9.07a7,7,0,0,0-4.26-4.61,10.36,10.36,0,0,0-1.33-.44c.11-5.64-2.19-9.94-6.37-11.88l-.22-.1-.22-.08c-4.43-1.65-9.18-.16-13.16,4.07-.36-.18-.71-.35-1.06-.49a7.52,7.52,0,0,0-5.93-.32c-1.85.78-4.75,3-4.39,8.94a6.45,6.45,0,0,0-5.26,3.84c-2.55,6.11,3.26,12.37,8.61,17.15a22.6,22.6,0,0,0,6.34,4Z"/><path class="cls-1" d="M307.06,149.21c.71-.09,6.3-.13,12.64-.13-.08-2.69,0-6.34.09-7.85a30.88,30.88,0,0,1,6.93,0c.12,1.51.17,5.16.08,7.85,6.22,0,11.68,0,12.56.13a21.92,21.92,0,0,1,0,6.47c-2.1.16-30.58.16-32.3,0A23.37,23.37,0,0,1,307.06,149.21Zm8.74-18.91c-4.12,0-7.31,0-7.94-.08a43.29,43.29,0,0,1,0-6.64c.92-.12,5.88-.21,11.55-.21,0-1.68,0-3.53.12-4.45a43.07,43.07,0,0,1,7.36,0c.08.92.12,2.77.12,4.45,5.76,0,10.76.09,11.55.21a35.06,35.06,0,0,1,0,6.64c-.75,0-3.9,0-8,.08,3.49,3.53,7.9,8.11,8.61,9.12a23.5,23.5,0,0,1-5.29,4.66c-1.18-1.09-7.27-7.39-10.67-11.09-3.44,3.7-9.53,10-10.71,11.09a23.5,23.5,0,0,1-5.29-4.66C307.94,138.41,312.35,133.83,315.8,130.3Z"/><path class="cls-1" d="M341.55,135.55c2.14-.12,22.3-.12,24.91,0a34.85,34.85,0,0,1,0,6.22c-2.61.09-22.77.09-24.91,0A30.76,30.76,0,0,1,341.55,135.55ZM354,119.47c8.23,0,11.76,3,11.76,7.6s-3.53,7.6-11.76,7.6-11.76-3-11.76-7.6S345.75,119.47,354,119.47Zm-11.51,23.94c2-.21,21.09-.21,23.06,0a96.77,96.77,0,0,1,0,13.19c-2.14.25-20.92.25-23.06,0A100.1,100.1,0,0,1,342.47,143.41Zm7.23,7.48c1.47.12,7.09.12,8.61,0v-1.77c-1.47-.12-7.1-.12-8.61,0Zm4.28-22c3.32,0,4.24-.84,4.24-1.8s-.92-1.81-4.24-1.81-4.24.84-4.24,1.81S350.66,128.87,354,128.87Z"/><path class="cls-1" d="M368.6,147.69c.46,0,1.85-.08,3.78-.08-.59-6.3-1.35-16.84-1.26-18.23a52.37,52.37,0,0,1,6.8-.46c.26,1.43,1.05,12.39,1.39,18.65h3.57c.34-6.26,1.18-17.27,1.35-18.7a62.19,62.19,0,0,1,6.84.47c.05,1.43-.71,12-1.26,18.27,2,0,3.45,0,3.95.08a24.58,24.58,0,0,1,0,6.64c-2.27.13-23.06.13-25.16,0A29.49,29.49,0,0,1,368.6,147.69Zm.38-26.63c2.94-.17,21.93-.17,24.28,0a33.27,33.27,0,0,1,0,6.47c-2.35,0-21.34,0-24.28,0A26.93,26.93,0,0,1,369,121.06Zm26.63-.88a32.48,32.48,0,0,1,7,0c.13.88.21,6.76.21,13.48,1.47,0,2.9.09,3.62.17a34.65,34.65,0,0,1,0,6.6c-.72.08-2.15.12-3.62.12,0,7.44-.08,14.29-.21,15.21a28,28,0,0,1-7,0C395.36,153.7,395.36,122.28,395.61,120.18Z"/><path class="cls-1" d="M421.28,121.19a37.65,37.65,0,0,1,6.88,0c1.64,5.88,7.06,29.53,7.31,31.42a25.16,25.16,0,0,1-6.76,1.47c-.38-1.09-3.07-13.36-3.86-19.74-1,6-3.87,19-4.29,20.12a23.51,23.51,0,0,1-6.72-1.6C414,151,419.64,127.07,421.28,121.19ZM433.54,132c1-.05,2.4-.05,3.95-.05,0-5.92,0-10.83.13-11.63a30.56,30.56,0,0,1,6.76,0c.17,2.1.17,32.76,0,34.86a29.35,29.35,0,0,1-6.76,0c-.09-1-.13-8.78-.13-16.72-1.55,0-3,0-3.95-.08A32.38,32.38,0,0,1,433.54,132Zm13.11-11.85a31.74,31.74,0,0,1,6.89,0c.25,2.1.25,33.52,0,35.58a27.35,27.35,0,0,1-6.89,0C446.52,153.7,446.52,122.28,446.65,120.18Z"/><path class="cls-1" d="M460.89,129.08c-2,0-3.49,0-4-.08a30.29,30.29,0,0,1,0-6.17c.88-.09,3.61-.17,6.84-.17,0-1.35.05-2.77.13-3.7a43,43,0,0,1,7.35,0c.09.93.13,2.35.13,3.7,3.15,0,5.75.08,6.51.17a30.27,30.27,0,0,1,0,6.17c-.59,0-2,0-3.82.08,1.76,3.58,4.07,8.36,4.53,9.71a21.61,21.61,0,0,1-5.92,3.15c-.88-1.13-3.45-6.76-5.17-10.67-1.72,3.91-4.28,9.54-5.16,10.67a21.82,21.82,0,0,1-5.93-3.15C456.82,137.44,459.12,132.66,460.89,129.08ZM458,143.54c2.14-.21,30.5-.21,32.6,0,.21,1.76.21,11,0,12.68a67.06,67.06,0,0,1-7.23,0c0-1.26,0-4.74,0-6.34-1.93,0-23.48,0-25.37,0A51.55,51.55,0,0,1,458,143.54Zm21-15.72c1.26-.08,2.94-.12,4.5-.08,0-3.65.08-6.76.17-7.56a32.11,32.11,0,0,1,6.93,0c.29,2.1.29,19.79,0,21.89a50,50,0,0,1-6.93,0c-.09-.8-.13-4.12-.17-7.9-1.56,0-3.24,0-4.5-.09A34.4,34.4,0,0,1,479,127.82Z"/><path class="cls-1" d="M141.29,39.67H127.74v-5c0-2.13-1.42-3.55-4.26-3.55s-4.26,1.42-4.26,3.55v5H105.67a16.06,16.06,0,0,0-16,16,24.37,24.37,0,0,0,1.51,8.85,12.89,12.89,0,0,0,1.71,3.08l.81,9.13a19.06,19.06,0,0,0,19.08,17.44h6.5c.08,2,1.48,3.37,4.24,3.37s4.16-1.34,4.24-3.37h6.73a19,19,0,0,0,19.07-17.44l.85-9.5a12.64,12.64,0,0,0,1.45-2.71,24.33,24.33,0,0,0,1.51-8.85A16.06,16.06,0,0,0,141.29,39.67Zm7.24,23.91a7.76,7.76,0,0,1-1.4,2.31l-.83,9.34a13.21,13.21,0,0,1-13.21,12.08h-19a13.21,13.21,0,0,1-13.21-12.08l-.81-9.09a8,8,0,0,1-1.62-2.56,17.82,17.82,0,0,1-1.08-6.48,10.55,10.55,0,0,1,10.53-10.54h31.2A10.55,10.55,0,0,1,149.62,57.1,17.82,17.82,0,0,1,148.53,63.58Z"/><path class="cls-1" d="M118,54.68a68.55,68.55,0,0,1,8.6,0c.19,1.55.19,22.8,0,24.31a23.93,23.93,0,0,1-5.22,0c-.13-1-.19-11.84-.1-19.39-1.2.06-2.16,0-3.28,0C118,58.58,117.92,56,118,54.68Z"/><path class="cls-1" d="M51.31,120.68c6.72,0,10,4.67,10,17,0,12.77-3.65,17-10,17-6.8,0-10.08-4.67-10.08-17C41.23,124.88,44.88,120.68,51.31,120.68Zm0,27.22c1.93,0,3.07-2.1,3.07-10.25,0-8.4-1.3-10.25-3.07-10.25-1.93,0-3.07,2.11-3.07,10.25C48.24,146.1,49.5,147.9,51.31,147.9Zm11.6-27.55a30.56,30.56,0,0,1,6.76,0c.08.84.12,6.3.12,12.68h2.53c0-6.46,0-12,.08-12.85a31.74,31.74,0,0,1,6.89,0c.25,2.1.25,33.52,0,35.58a27.35,27.35,0,0,1-6.89,0c0-1-.08-8.4-.08-16.22H69.79c0,7.57,0,14.71-.12,15.67a29.35,29.35,0,0,1-6.76,0C62.74,153.11,62.74,122.45,62.91,120.35Z"/><path class="cls-1" d="M83.15,120.52a36.43,36.43,0,0,1,6.77,0l0,2.31c2.81-.09,8-.09,10.67,0l0-2.26a35.91,35.91,0,0,1,6.72,0c.09.75.13,2.26.17,4.11,1.26,0,2.77,0,4.2,0,0-2,0-3.7.13-4.41a32.11,32.11,0,0,1,6.93,0,145,145,0,0,1,0,15.88,47.05,47.05,0,0,1-6.93,0c-.09-.88-.13-2.9-.13-5.25-1.43,0-2.94,0-4.2,0,0,2.14-.08,4-.17,4.91-2,.17-21.84.21-24.24,0A141.72,141.72,0,0,1,83.15,120.52Zm.8,17c2.56-.17,32.3-.17,34.87,0a72.58,72.58,0,0,1,0,11.63c-3.7.13-25.16,0-27.52,0v1.39c2.15-.09,24.24-.09,28.36,0a22.83,22.83,0,0,1,0,5.84c-3.62.25-31.93.25-35.54,0a98.34,98.34,0,0,1,0-12.14c4.16-.09,23.86,0,27.68,0v-1.35c-3.86.09-23.65.09-27.85,0A23,23,0,0,1,84,137.49Zm6-7.27c.92.08,9.83.08,10.75,0l0-2.23c-2.69,0-7.86,0-10.67,0Z"/><path class="cls-1" d="M135.41,121.19a37.75,37.75,0,0,1,6.89,0c1.64,5.88,7.06,29.53,7.31,31.42a25.24,25.24,0,0,1-6.76,1.47c-.38-1.09-3.07-13.36-3.87-19.74-1,6-3.86,19-4.28,20.12a23.5,23.5,0,0,1-6.73-1.6C128.1,151,133.77,127.07,135.41,121.19ZM147.68,132c1-.05,2.39-.05,3.94-.05,0-5.92,0-10.83.13-11.63a30.56,30.56,0,0,1,6.76,0c.17,2.1.17,32.76,0,34.86a29.35,29.35,0,0,1-6.76,0c-.08-1-.13-8.78-.13-16.72-1.55,0-3,0-3.94-.08A32.38,32.38,0,0,1,147.68,132Zm13.1-11.85a31.74,31.74,0,0,1,6.89,0c.25,2.1.25,33.52,0,35.58a27.35,27.35,0,0,1-6.89,0C160.66,153.7,160.66,122.28,160.78,120.18Z"/><path class="cls-1" d="M175,129.08c-2,0-3.48,0-4-.08a30.29,30.29,0,0,1,0-6.17c.88-.09,3.61-.17,6.85-.17,0-1.35,0-2.77.12-3.7a43.07,43.07,0,0,1,7.36,0c.08.93.12,2.35.12,3.7,3.15,0,5.76.08,6.51.17a30.27,30.27,0,0,1,0,6.17c-.59,0-2,0-3.82.08,1.76,3.58,4.07,8.36,4.54,9.71a21.82,21.82,0,0,1-5.93,3.15c-.88-1.13-3.44-6.76-5.16-10.67-1.73,3.91-4.29,9.54-5.17,10.67a21.61,21.61,0,0,1-5.92-3.15C171,137.44,173.26,132.66,175,129.08Zm-2.94,14.46c2.15-.21,30.5-.21,32.6,0,.21,1.76.21,11,0,12.68a67.06,67.06,0,0,1-7.23,0c0-1.26,0-4.74,0-6.34-1.93,0-23.48,0-25.37,0A55.84,55.84,0,0,1,172.08,143.54Zm21-15.72c1.26-.08,2.94-.12,4.49-.08,0-3.65.08-6.76.17-7.56a32.11,32.11,0,0,1,6.93,0c.29,2.1.29,19.79,0,21.89a50,50,0,0,1-6.93,0c-.09-.8-.13-4.12-.17-7.9-1.55,0-3.23,0-4.49-.09A34.4,34.4,0,0,1,193.09,127.82Z"/><path class="cls-1" d="M668.24,74.14h2.91c3.37,0,4.7-1.12,4.7-2.88s-1.33-2.72-4.82-2.72a16.79,16.79,0,0,1-1.83-.06,44.12,44.12,0,0,1,0-4.46,15,15,0,0,1,1.73-.06c2.79,0,3.78-1,3.78-2.54s-1.3-2.22-4-2.22h-2.14a39.9,39.9,0,0,1,0-4.64c1-.06,1.86-.13,2.75-.1,5.6.19,8.51,2.29,8.51,6.75,0,1.88-.53,3.68-2.23,4.67,2.38,1.08,3.47,3,3.47,5.84,0,4.46-3,7.33-9.28,7.33-.93,0-2.51,0-3.53-.09A43.06,43.06,0,0,1,668.24,74.14Z"/><path class="cls-3" d="M414.82,307h-31.2a10.53,10.53,0,0,0-2.87.41,10.53,10.53,0,0,1,2.87-.41h31.2a10.54,10.54,0,0,1,9.6,6.21h0A10.54,10.54,0,0,0,414.82,307Z"/><path class="cls-3" d="M376.86,309.45a10.33,10.33,0,0,1,3.28-1.86A10.33,10.33,0,0,0,376.86,309.45Z"/><path class="cls-3" d="M395.49,314.47H389c8,1.89,14.48,2.12,20.23,0H395.49Z"/><path class="cls-2" d="M425.21,319.94a18.89,18.89,0,0,1-.32,1.95A16.53,16.53,0,0,0,425.21,319.94Z"/><path class="cls-2" d="M373.2,319.71a21.83,21.83,0,0,1-.11-2.19A21.83,21.83,0,0,0,373.2,319.71Z"/><path class="cls-2" d="M373.56,321.89a19.12,19.12,0,0,1-.33-1.94A19.12,19.12,0,0,0,373.56,321.89Z"/><path class="cls-2" d="M425.36,317.52a21.92,21.92,0,0,1-.12,2.19c.07-.71.12-1.43.12-2.19a10.42,10.42,0,0,0-.94-4.33h0A10.42,10.42,0,0,1,425.36,317.52Z"/><path class="cls-2" d="M424.42,313.19c-4.42-1-9.32-1.36-13.25.49-.62.3-1.26.55-1.9.79-5.75,2.12-12.21,1.89-20.23,0-1.2-.28-2.43-.6-3.7-1a19.29,19.29,0,0,0-11.68.59,10.65,10.65,0,0,0-.57,3.41h0a21.83,21.83,0,0,0,.11,2.19l0,.24a19.12,19.12,0,0,0,.33,1.94h0a14.3,14.3,0,0,0,.62,2.11,7.82,7.82,0,0,0,1.61,2.56l.81,9.09a13.21,13.21,0,0,0,13.22,12.08h19A13.21,13.21,0,0,0,422,335.65l.84-9.34a8,8,0,0,0,1.39-2.31,15.63,15.63,0,0,0,.62-2.11h0a18.89,18.89,0,0,0,.32-1.95l0-.23a21.92,21.92,0,0,0,.12-2.19A10.42,10.42,0,0,0,424.42,313.19Z"/><path class="cls-1" d="M376.86,309.45a10.33,10.33,0,0,1,3.28-1.86,6.21,6.21,0,0,1,.61-.2,10.53,10.53,0,0,1,2.87-.41h31.2a10.54,10.54,0,0,1,9.6,6.21,50.19,50.19,0,0,1,8.65,2.95h0a16.06,16.06,0,0,0-16-16H403.48v-5c0-2.13-1.42-3.55-4.26-3.55S395,293,395,295.11v5H381.41a16.06,16.06,0,0,0-16,16c0,.88,0,1.71.11,2.53a28.23,28.23,0,0,1,8.18-4.55A10.54,10.54,0,0,1,376.86,309.45Z"/><path class="cls-1" d="M381.24,353.23l-11.56-14.11A19,19,0,0,0,381.24,353.23Z"/><path class="cls-1" d="M392.05,354.63H395c.08,2,1.49,3.37,4.24,3.37s4.16-1.34,4.24-3.37h6.73a19.06,19.06,0,0,0,19.08-17.44l.85-9.5a12.81,12.81,0,0,0,1.44-2.71,24.28,24.28,0,0,0,1.51-8.84,50.19,50.19,0,0,0-8.65-2.95,10.42,10.42,0,0,1,.94,4.33c0,.76-.05,1.48-.12,2.19l0,.23a16.53,16.53,0,0,1-.32,1.95h0a15.63,15.63,0,0,1-.62,2.11,8,8,0,0,1-1.39,2.31l-.84,9.34a13.21,13.21,0,0,1-13.21,12.08h-19a13.21,13.21,0,0,1-13.22-12.08l-.81-9.09a7.82,7.82,0,0,1-1.61-2.56,14.3,14.3,0,0,1-.62-2.11h0a19.12,19.12,0,0,1-.33-1.94l0-.24a21.83,21.83,0,0,1-.11-2.19h0a10.65,10.65,0,0,1,.57-3.41,28.23,28.23,0,0,0-8.18,4.55,22.9,22.9,0,0,0,1.41,6.32,12.52,12.52,0,0,0,1.7,3.08l.82,9.13c.06.65.15,1.3.27,1.93l11.56,14.11a19.37,19.37,0,0,0,7.24,1.4Z"/><path class="cls-1" d="M380.14,307.59a6.21,6.21,0,0,1,.61-.2A6.21,6.21,0,0,0,380.14,307.59Z"/><path class="cls-1" d="M376.86,309.45a10.54,10.54,0,0,0-3.2,4.66h0A10.54,10.54,0,0,1,376.86,309.45Z"/><path class="cls-1" d="M425.24,319.71l0,.23Z"/><path class="cls-1" d="M373.66,314.11h0a10.65,10.65,0,0,0-.57,3.41h0A10.65,10.65,0,0,1,373.66,314.11Z"/><polygon class="cls-1" points="424.89 321.89 424.89 321.89 424.89 321.89 424.89 321.89"/><path class="cls-1" d="M373.23,320l0-.24Z"/><polygon class="cls-1" points="373.56 321.89 373.56 321.89 373.56 321.89 373.56 321.89"/><path class="cls-1" d="M393.41,314.53c2.6-.13,9.65-.13,11.57,0a42.47,42.47,0,0,1,0,4.79c-1.89.06-4.05.06-6.34,0,0,1.36,0,3.34,0,4.67,4.7-.12,7.86,2.69,7.86,7.39s-2.94,7.27-8.51,7.46c-.93,0-3.22.06-4.24,0a43.24,43.24,0,0,1,0-4.83c1,0,2.85,0,3.72,0,2.59-.09,3.89-1,3.89-2.75s-1.3-2.78-3.89-2.78c-1.27,0-2.91.06-4.06,0C393.32,327,393.29,316,393.41,314.53Z"/><path class="cls-3" d="M139.08,307h-31.2a10.45,10.45,0,0,0-3.13.48,10.45,10.45,0,0,1,3.13-.48h31.2a10.55,10.55,0,0,1,10.54,10.54,20.42,20.42,0,0,1-.25,3.22h0a20.42,20.42,0,0,0,.25-3.22A10.55,10.55,0,0,0,139.08,307Z"/><path class="cls-3" d="M126.8,323h-6.38A33.15,33.15,0,0,0,126.8,323Z"/><path class="cls-3" d="M100.43,310.07a10.58,10.58,0,0,1,4.32-2.61A10.58,10.58,0,0,0,100.43,310.07Z"/><path class="cls-3" d="M97.35,317.52h0a10.48,10.48,0,0,1,1.27-5A10.48,10.48,0,0,0,97.35,317.52Z"/><path class="cls-2" d="M100,326.51a8.55,8.55,0,0,1-.9-1.16A8.55,8.55,0,0,0,100,326.51Z"/><path class="cls-2" d="M148.53,324a6.27,6.27,0,0,1-.41.82,6.27,6.27,0,0,0,.41-.82,15.73,15.73,0,0,0,.84-3.26h0A15.73,15.73,0,0,1,148.53,324Z"/><path class="cls-2" d="M134.59,320.85A23.79,23.79,0,0,1,126.8,323a33.15,33.15,0,0,1-6.38,0,66.2,66.2,0,0,1-11.65-2.31,19.18,19.18,0,0,0-11.13.4,15.64,15.64,0,0,0,.79,2.92,7.72,7.72,0,0,0,1.58,2.51v0l0,0,.81,9.09a13.21,13.21,0,0,0,13.21,12.08h19a13.21,13.21,0,0,0,13.21-12.08l.83-9.34c.08-.09.14-.2.22-.3a7.81,7.81,0,0,0,.77-1.19,6.27,6.27,0,0,0,.41-.82,15.73,15.73,0,0,0,.84-3.26C144.58,319.43,139,318.77,134.59,320.85Z"/><path class="cls-1" d="M97.35,317.52h0a10.48,10.48,0,0,1,1.27-5,10.83,10.83,0,0,1,1.81-2.43,10.58,10.58,0,0,1,4.32-2.61,10.45,10.45,0,0,1,3.13-.48h31.2a10.55,10.55,0,0,1,10.54,10.54,20.42,20.42,0,0,1-.25,3.22,51.81,51.81,0,0,1,7,2.52,25.31,25.31,0,0,0,1-7.13,16.06,16.06,0,0,0-16-16H127.74v-5c0-2.13-1.42-3.55-4.26-3.55s-4.26,1.42-4.26,3.55v5H105.67a16.06,16.06,0,0,0-16,16,24.59,24.59,0,0,0,1.3,8.21,27.78,27.78,0,0,1,6.71-3.26A20,20,0,0,1,97.35,317.52Z"/><path class="cls-1" d="M92.85,328.06l.81,9.13a19.06,19.06,0,0,0,19.08,17.44h6.5c.08,2,1.48,3.37,4.24,3.37s4.16-1.34,4.24-3.37h6.73a19,19,0,0,0,19.07-17.44l.85-9.5a12.41,12.41,0,0,0,1.45-2.71c.21-.56.39-1.14.56-1.72a51.81,51.81,0,0,0-7-2.52,15.73,15.73,0,0,1-.84,3.26,6.27,6.27,0,0,1-.41.82,7.81,7.81,0,0,1-.77,1.19c-.08.1-.14.21-.22.3l-.83,9.34a13.21,13.21,0,0,1-13.21,12.08h-19a13.21,13.21,0,0,1-13.21-12.08l-.81-9.09,0,0h0v0A7.72,7.72,0,0,1,98.43,324a15.64,15.64,0,0,1-.79-2.92,27.78,27.78,0,0,0-6.71,3.26c.08.21.13.43.21.64A12.89,12.89,0,0,0,92.85,328.06Z"/><path class="cls-1" d="M97.35,317.52h0a20,20,0,0,0,.29,3.56h0A20,20,0,0,1,97.35,317.52Z"/><path class="cls-1" d="M100,326.53h0v0Z"/><path class="cls-1" d="M148.12,324.82a7.81,7.81,0,0,1-.77,1.19A7.81,7.81,0,0,0,148.12,324.82Z"/><path class="cls-1" d="M97.64,321.08h0a15.64,15.64,0,0,0,.79,2.92,8.52,8.52,0,0,0,.68,1.35,8.52,8.52,0,0,1-.68-1.35A15.64,15.64,0,0,1,97.64,321.08Z"/><path class="cls-1" d="M114.21,330.21c1-2.26,7.3-14.32,8.08-15.68a60,60,0,0,1,6.89,0c.1.86.1,9,.1,15.65l3.06,0c.09,1.08.06,3.37,0,4.64l-3.09,0c0,2.1,0,3.59-.07,4a32.63,32.63,0,0,1-4.85,0c0-.59,0-2.07,0-4-4.49,0-9.28,0-10.09,0A39.71,39.71,0,0,1,114.21,330.21Zm10.09,0c0-4.12.06-8.41.09-9.78-.68,1.77-3.9,7.92-4.82,9.81Z"/><path class="cls-2" d="M669.55,307H657.68a10.55,10.55,0,0,0-10.53,10.54,17.61,17.61,0,0,0,1.09,6.48,7.82,7.82,0,0,0,1.61,2.56l.82,9.09a13.19,13.19,0,0,0,13.21,12.08h19a13.21,13.21,0,0,0,13.21-12.08l.84-9.34a8,8,0,0,0,1.39-2.31,17.82,17.82,0,0,0,1.09-6.48A10.55,10.55,0,0,0,688.88,307H669.55Z"/><path class="cls-1" d="M691.09,300.09H677.54v-5c0-2.13-1.42-3.55-4.26-3.55S669,293,669,295.11v5H655.48a16.06,16.06,0,0,0-16,16A24.16,24.16,0,0,0,641,325a12.52,12.52,0,0,0,1.7,3.08l.82,9.13a19.05,19.05,0,0,0,19.08,17.44H669c.08,2,1.49,3.37,4.24,3.37s4.17-1.34,4.25-3.37h6.72a19.05,19.05,0,0,0,19.08-17.44l.85-9.5a12.81,12.81,0,0,0,1.44-2.71,24.12,24.12,0,0,0,1.51-8.85A16.06,16.06,0,0,0,691.09,300.09ZM698.33,324a8,8,0,0,1-1.39,2.31l-.84,9.34a13.21,13.21,0,0,1-13.21,12.08h-19a13.19,13.19,0,0,1-13.21-12.08l-.82-9.09a7.82,7.82,0,0,1-1.61-2.56,17.61,17.61,0,0,1-1.09-6.48A10.55,10.55,0,0,1,657.68,307h31.2a10.55,10.55,0,0,1,10.54,10.54A17.82,17.82,0,0,1,698.33,324Z"/><path class="cls-1" d="M668.86,314.22a24.75,24.75,0,0,1,4.95,1.24c-.34,1.2-2,7-2.51,8.5a4.82,4.82,0,0,1,2.78-.71c4.24,0,8,2.69,8,7.7s-3.65,8.26-8.6,8.26c-5.17,0-9.1-3.37-8.66-9.19C665.12,326.68,668.24,315.64,668.86,314.22Zm4.67,20.29a3.41,3.41,0,1,0-3.41-3.4A3.14,3.14,0,0,0,673.53,334.51Z"/><path class="cls-1" d="M553.52,149.12c.5,0,2.43-.08,5-.12,0-4.67,0-13,.08-14.62a40.54,40.54,0,0,1,7.14,0c.09,1.59.13,9.91.09,14.62,5.12,0,10.16,0,11.17.12a22.53,22.53,0,0,1,0,6.51c-2.1.17-21.76.17-23.48,0A23.66,23.66,0,0,1,553.52,149.12Zm1.13-28c2.69-.12,18.7-.12,21.18,0,.16,2.06.16,21.47,0,23.57a33.27,33.27,0,0,1-7.06,0c-.09-2.56,0-13.06,0-17.06-1.43.09-12.1,0-14.12,0A33.3,33.3,0,0,1,554.65,121.1Z"/><path class="cls-1" d="M579.19,138.41c.88,0,5.41-.08,10.67-.08v-1.52c-7-.79-10-3.86-10-8.36,0-5.2,4.07-8.52,13.69-8.52s13.69,3.32,13.69,8.52c0,4.5-3,7.57-10,8.32v1.56c5.12,0,9.62,0,10.67.08a33.3,33.3,0,0,1,0,6.47c-2.61.08-26.55.08-28.69,0A33.3,33.3,0,0,1,579.19,138.41Zm1,8.15a34.08,34.08,0,0,1,7.14,0,30.16,30.16,0,0,1,0,3.44c1.94-.08,18.4-.08,20.25,0a27.31,27.31,0,0,1,0,6.39c-2.86.17-24.36.17-27.39,0A84.78,84.78,0,0,1,580.15,146.56Zm13.36-15.84c5.34,0,6.51-1,6.51-2.27s-1.17-2.26-6.51-2.26-6.51,1-6.51,2.26S588.18,130.72,593.51,130.72Z"/><path class="cls-1" d="M617.12,149.12c.5,0,2.43-.08,5-.12,0-4.67,0-13,.08-14.62a40.54,40.54,0,0,1,7.14,0c.09,1.59.13,9.91.09,14.62,5.12,0,10.16,0,11.17.12a22.53,22.53,0,0,1,0,6.51c-2.1.17-21.76.17-23.48,0A23.66,23.66,0,0,1,617.12,149.12Zm1.13-28c2.69-.12,18.7-.12,21.17,0,.17,2.06.17,21.47,0,23.57a33.17,33.17,0,0,1-7,0c-.09-2.56,0-13.06,0-17.06-1.43.09-12.1,0-14.12,0A33.3,33.3,0,0,1,618.25,121.1Z"/><path class="cls-1" d="M654.21,120c6.85,0,11.34,3.57,11.34,9.12s-4.49,9.11-11.34,9.11-11.34-3.57-11.34-9.11S647.36,120,654.21,120Zm-9.53,19.45a47.67,47.67,0,0,1,7,0c0,.67,0,1.72,0,2.86,3.82,0,12.39-.09,16.13,0l0-2.86a46.59,46.59,0,0,1,6.89,0c.17,2.1.21,14,0,16.72-2,.21-27.68.25-30.07,0C644.42,152.69,644.51,141.6,644.68,139.46Zm9.53-7.22c2.86,0,4.5-1.35,4.5-3.11s-1.64-3.11-4.5-3.11-4.49,1.34-4.49,3.11S651.36,132.24,654.21,132.24Zm-2.56,18.06c.92.08,15.29.08,16.21,0l0-2.61c-3.74.05-12.31.05-16.13,0Zm16.17-30.12a32.11,32.11,0,0,1,6.93,0c.13.76.17,3.11.21,5.8,1.47,0,2.9.08,3.62.16a31.18,31.18,0,0,1,0,6.26,34.19,34.19,0,0,1-3.62.17c0,2.48-.12,4.54-.21,5.25a47,47,0,0,1-6.93,0C667.61,135.76,667.61,122.28,667.82,120.18Z"/><path class="cls-1" d="M679.88,139.33c1.72-.21,25.16-.16,27.26,0a21.71,21.71,0,0,1,0,6.39c-.84.08-5.08.13-10,.13,0,3.57,0,8.65-.12,10.12a32.89,32.89,0,0,1-7,0c-.13-1.47-.17-6.55-.13-10.12-5,0-9.28,0-10-.13A22.8,22.8,0,0,1,679.88,139.33Zm10.33-19a43.29,43.29,0,0,1,6.64,0c2.69,3.23,7.35,9.74,10.16,13.69a20.16,20.16,0,0,1-5.79,4.16c-1.52-1.68-6-8.19-7.69-10.75-1.68,2.56-6.18,9.07-7.69,10.75a20.24,20.24,0,0,1-5.8-4.12C682.82,130.09,687.52,123.58,690.21,120.35Z"/><path class="cls-1" d="M722.94,121.19a37.65,37.65,0,0,1,6.88,0c1.64,5.88,7.06,29.53,7.31,31.42a25.16,25.16,0,0,1-6.76,1.47c-.38-1.09-3.07-13.36-3.86-19.74-1,6-3.87,19-4.29,20.12a23.51,23.51,0,0,1-6.72-1.6C715.63,151,721.3,127.07,722.94,121.19ZM735.2,132c1-.05,2.4-.05,3.95-.05,0-5.92,0-10.83.13-11.63a30.56,30.56,0,0,1,6.76,0c.17,2.1.17,32.76,0,34.86a29.35,29.35,0,0,1-6.76,0c-.09-1-.13-8.78-.13-16.72-1.55,0-3,0-3.95-.08A32.38,32.38,0,0,1,735.2,132Zm13.11-11.85a31.74,31.74,0,0,1,6.89,0c.25,2.1.25,33.52,0,35.58a27.35,27.35,0,0,1-6.89,0C748.18,153.7,748.18,122.28,748.31,120.18Z"/><path class="cls-1" d="M762.55,129.08c-2,0-3.49,0-4-.08a30.29,30.29,0,0,1,0-6.17c.88-.09,3.61-.17,6.84-.17,0-1.35,0-2.77.13-3.7a43,43,0,0,1,7.35,0c.08.93.13,2.35.13,3.7,3.15,0,5.75.08,6.51.17a30.27,30.27,0,0,1,0,6.17c-.59,0-2,0-3.82.08,1.76,3.58,4.07,8.36,4.53,9.71a21.61,21.61,0,0,1-5.92,3.15c-.88-1.13-3.45-6.76-5.17-10.67-1.72,3.91-4.28,9.54-5.16,10.67a21.82,21.82,0,0,1-5.93-3.15C758.47,137.44,760.78,132.66,762.55,129.08Zm-2.94,14.46c2.14-.21,30.5-.21,32.6,0,.21,1.76.21,11,0,12.68a67.06,67.06,0,0,1-7.23,0c0-1.26,0-4.74,0-6.34-1.93,0-23.48,0-25.37,0A51.55,51.55,0,0,1,759.61,143.54Zm21-15.72c1.26-.08,2.94-.12,4.5-.08,0-3.65.08-6.76.16-7.56a32.2,32.2,0,0,1,6.94,0c.29,2.1.29,19.79,0,21.89a50.13,50.13,0,0,1-6.94,0c-.08-.8-.12-4.12-.16-7.9-1.56,0-3.24,0-4.5-.09A34.4,34.4,0,0,1,780.61,127.82Z"/><path class="cls-1" d="M65.85,380.35c6.05,0,10.08,3.1,10.08,8s-4,8-10.08,8-10.09-3.11-10.09-8S59.8,380.35,65.85,380.35ZM57.4,397.69c2.57-.16,28.11-.16,30.67,0a73.66,73.66,0,0,1,0,11.81c-3.7.12-20.12,0-23.32,0v1.38c3-.08,20-.08,24.16,0a23.85,23.85,0,0,1,0,6c-3.61.25-27.73.25-31.34,0a101.11,101.11,0,0,1,0-12.31c4.16-.08,19.66,0,23.48,0v-1.38c-3.86.08-19.45.08-23.65,0A23.83,23.83,0,0,1,57.4,397.69Zm8.45-7c2,0,3.23-1,3.23-2.31s-1.26-2.31-3.23-2.31-3.24,1-3.24,2.31S63.87,390.68,65.85,390.68Zm11.3-1.3c.75-.05,2.35-.09,3.9-.05v-1.68c-1.55.05-3.1,0-3.9,0a24.09,24.09,0,0,1,0-5.5C78,382,79.5,382,81.1,382l0-1.35a32.11,32.11,0,0,1,6.93,0,139.79,139.79,0,0,1,0,15.59,50,50,0,0,1-6.93,0l0-1.26c-1.6,0-3.15,0-3.95-.09A24.43,24.43,0,0,1,77.15,389.38Z"/><path class="cls-1" d="M91.05,396.52c2.14-.13,27.77-.13,30.37,0a31.16,31.16,0,0,1,0,6c-1,0-6,0-11.55,0V404c8.23.5,11.26,3,11.26,6.84,0,4.41-3.91,7-14.91,7s-14.92-2.57-14.92-7c0-3.9,3-6.34,11.3-6.84v-1.48c-5.67,0-10.67,0-11.55,0A28.24,28.24,0,0,1,91.05,396.52Zm1.26-6.93H95.8l-.25-2.73H92.31a25.59,25.59,0,0,1,0-5.67c2.14-.21,24.41-.21,27.85,0a28.25,28.25,0,0,1,0,5.67h-3.23l-.25,2.73h3.48a26.22,26.22,0,0,1,0,5.46c-3.44.17-25.71.17-27.85,0A23.74,23.74,0,0,1,92.31,389.59Zm13.91,22.68c6.51,0,7.68-.54,7.68-1.43s-1.17-1.43-7.68-1.43-7.69.55-7.69,1.43S99.7,412.27,106.22,412.27Zm-3.49-22.73h7l.26-2.64h-7.52Z"/><path class="cls-1" d="M130.83,381.31c2.1-.21,15.75-.21,17.86,0,.08.93.12,3.36.12,6.18,1.56-.05,3.45-.05,5,0,0-3.45.08-6.14.13-6.81a32.48,32.48,0,0,1,7,0c.29,2.1.29,24,0,26.09a47.6,47.6,0,0,1-7,0c-.09-1-.13-6.89-.13-12.81-1.55,0-3.44,0-5,0,0,2.94-.08,5.46-.16,6.25a37.42,37.42,0,0,1-7,0c0-2,0-10.45,0-12.51-4,.12-8.91.12-10.84,0A32.49,32.49,0,0,1,130.83,381.31Zm1.68,20.88a34.08,34.08,0,0,1,7.14,0c0,1.39.09,6.3,0,7.43,1.94-.08,19.83-.08,21.68,0a29.13,29.13,0,0,1,0,6.6c-2.86.17-25.79.17-28.82,0C132.34,413.36,132.3,404.71,132.51,402.19Z"/><path class="cls-1" d="M163.93,409.71c.72-.09,5-.13,10.09-.13-.05-2.85,0-6.64.12-8.1a30.83,30.83,0,0,1,6.93,0c.13,1.46.17,5.25.13,8.1,4.91,0,9.16,0,10,.13a22.61,22.61,0,0,1,0,6.47c-2.1.17-25.54.17-27.27,0A24.17,24.17,0,0,1,163.93,409.71Zm6.35-21.26c-2.73,0-4.79,0-5.38-.08a35.06,35.06,0,0,1,0-6.64c2.44-.33,23.15-.33,25.29,0a35.06,35.06,0,0,1,0,6.64c-.67,0-2.73,0-5.34.08,2.44,5.17,5.76,12.35,6.22,13.57a27.44,27.44,0,0,1-6.43,3c-.79-1.35-4.83-10.34-7.1-15.59-2.22,5.25-6.26,14.24-7,15.59a27.44,27.44,0,0,1-6.43-3C164.52,400.8,167.8,393.62,170.28,388.45Z"/><path class="cls-1" d="M344.32,380.85a71.78,71.78,0,0,1,7.48,0c3.1,4.66,8.57,13.53,11.38,18.27a23.2,23.2,0,0,1-6.18,4c-1.51-2.22-7.3-11.76-8.94-14.45-1.64,2.69-7.44,12.23-8.95,14.45a23.36,23.36,0,0,1-6.18-4C335.75,394.38,341.21,385.51,344.32,380.85Zm-11,28.86c.72-.09,5.51-.13,11-.13-.08-3.32,0-8.1.09-9.58a70.06,70.06,0,0,1,7.1,0c.12,1.48.16,6.26.08,9.58,5.46,0,10.21,0,11.05.13a22.61,22.61,0,0,1,0,6.47c-2.1.17-27.64.17-29.37,0A24.17,24.17,0,0,1,333.35,409.71Z"/><path class="cls-1" d="M364.9,397.9c.8,0,4.37,0,8.57,0v-1.72c-3.4,0-6.3-.08-7.31-.13a128.56,128.56,0,0,1,0-14.95c2-.29,18.7-.29,21.55,0a31.13,31.13,0,0,1,0,6.26c-2.77,0-11.93,0-14.15,0v2.56c2.89-.08,11.93-.08,14.57,0a36.86,36.86,0,0,1,0,6.13c-.88.09-3.82.09-7.31.13v1.72c4.08,0,7.61,0,8.57,0a35.36,35.36,0,0,1,0,6.35c-2.52.12-22.43.12-24.49,0A32,32,0,0,1,364.9,397.9Zm.88,8.11c2.15-.21,20.84-.21,22.69,0,.17,1.72.17,9.29,0,10.71a50.74,50.74,0,0,1-7.19,0c0-.88,0-3.69,0-4.87-1.88,0-13.61,0-15.5,0A28.49,28.49,0,0,1,365.78,406Z"/><path class="cls-1" d="M405.65,380.93a47.66,47.66,0,0,1,6.76,0,89.51,89.51,0,0,1,8.74,11.68c-1.13,1.22-4.41,3.4-5.88,3.61a80.67,80.67,0,0,1-6-8.31,76.71,76.71,0,0,1-5.21,8.4,16.62,16.62,0,0,1-6.3-3.32A100,100,0,0,1,405.65,380.93Zm-5.34,16.76c2.57-.16,26.43-.16,29,0a73.66,73.66,0,0,1,0,11.81c-3.7.12-18.44,0-21.63,0v1.38c3-.08,18.35-.08,22.47,0a23.85,23.85,0,0,1,0,6c-3.61.25-26.05.25-29.66,0a101.11,101.11,0,0,1,0-12.31c4.16-.08,18,0,21.8,0v-1.38c-3.86.08-17.76.08-22,0A23.83,23.83,0,0,1,400.31,397.69Zm22.06-17a32.11,32.11,0,0,1,6.93,0c.13.76.17,2.77.21,5.13,1.47,0,2.9.08,3.61.16a31.18,31.18,0,0,1,0,6.26c-.71.09-2.14.13-3.65.13a37,37,0,0,1-.17,3.91,50,50,0,0,1-6.93,0C422.16,394.21,422.16,383,422.37,380.68Z"/><path class="cls-1" d="M434.38,394.42c2.15-.13,28.19-.13,30.79,0a40.14,40.14,0,0,1,0,6.76l-4.24,0a49,49,0,0,1-.12,6.09,45,45,0,0,1-6.77,0c-.08-1.72-.12-4.2-.08-6.09h-2.52c0,1.89,0,4.37-.09,6.09a44.86,44.86,0,0,1-6.76,0,48.8,48.8,0,0,1-.13-6.09c-5.08,0-9.28,0-10.08,0A36.35,36.35,0,0,1,434.38,394.42Zm1,10.37a34.85,34.85,0,0,1,7.22,0c.05,1.52.09,4.37,0,5.51,1.94-.09,20.42-.09,22.27,0a29,29,0,0,1,0,6.59c-2.86.17-26.47.17-29.49,0C435.18,414.08,435.14,407.31,435.35,404.79Zm.38-23.31c2.14-.34,26.17-.34,28,0,.16,1.76.16,10.29,0,11.22a41.11,41.11,0,0,1-7.19,0c0-.8,0-3.49,0-4.71-1.89.13-18.94.13-20.83,0A41.59,41.59,0,0,1,435.73,381.48Z"/><path class="cls-1" d="M605.7,388c-2.08,0-3.59,0-4.16-.09a34.75,34.75,0,0,1,0-6.61c2.51-.35,19.87-.35,22.07,0a33.14,33.14,0,0,1,0,6.61c-.65.05-2.25.05-4.28.09a86.31,86.31,0,0,1,4.8,9.55,21,21,0,0,1-6.36,3.25,117.09,117.09,0,0,1-5.32-10.55c-1.43,3.8-3.68,9.55-4.54,11a23.47,23.47,0,0,1-6.58-2.59A110.15,110.15,0,0,1,605.7,388Zm13.85,13.62c13,0,17.48,3,17.48,8.43s-4.5,8.43-17.48,8.43-17.49-3-17.49-8.43S606.56,401.66,619.55,401.66Zm0,10.67c8.22,0,10-.86,10-2.24s-1.73-2.25-10-2.25-10,.86-10,2.25S611.32,412.33,619.55,412.33Zm4.5-23.6c1.3-.08,3.24-.13,5-.08,0-3.72.08-7,.17-7.92a34.08,34.08,0,0,1,7.14,0c.3,2.17.3,18.12,0,20.28a49.94,49.94,0,0,1-7.14,0c-.09-.74-.13-3.11-.13-6-1.77,0-3.72,0-5.06-.08A32.36,32.36,0,0,1,624.05,388.73Z"/><path class="cls-1" d="M640.4,381.08c2.29-.26,18-.26,20.25,0a130.16,130.16,0,0,1,0,15.3c-2.07.22-18.17.22-20.25,0A130.16,130.16,0,0,1,640.4,381.08Zm.82,17.16c2.64-.17,27.65-.17,30.29,0a74.43,74.43,0,0,1,0,12.15c-3.8.13-19.43,0-22.72,0v1.43c3.08-.09,19.35-.09,23.59,0a24.19,24.19,0,0,1,0,6.13c-3.72.26-27.26.26-31,0a102.83,102.83,0,0,1,0-12.66c4.28-.09,19,0,22.89,0v-1.43c-4,.09-18.74.09-23.07,0A25.15,25.15,0,0,1,641.22,398.24Zm12.42-7.69a16.57,16.57,0,0,0,0-3.59c-1.6,0-4.63-.09-6.19,0a16.57,16.57,0,0,0,0,3.59C649.18,390.63,652.08,390.63,653.64,390.55Zm10.73-9.82a34.08,34.08,0,0,1,7.14,0,138.44,138.44,0,0,1,0,16,47.17,47.17,0,0,1-7.14,0C664.16,394.65,664.16,383.07,664.37,380.73Z"/><path class="cls-1" d="M682.15,381.38c2.17-.21,16.23-.21,18.4,0,.08,1,.13,3.29.13,5.93,1.94-.05,4.5-.05,6.44,0,0-3.07.09-5.75.18-6.58a34.08,34.08,0,0,1,7.14,0c.3,2.17.3,16.65,0,18.81a50,50,0,0,1-7.14,0c-.09-.74-.13-2.94-.13-5.58-2,.05-4.55.05-6.49,0,0,2.21,0,4-.13,4.71a39.68,39.68,0,0,1-7.23,0c-.09-2-.09-9.55,0-10.72-1.56.13-9.17.13-11.17,0A34.34,34.34,0,0,1,682.15,381.38Zm1.74,19.67c2.29-.26,28.25-.26,30.55,0a155.61,155.61,0,0,1,0,16.73c-2.08.22-28.48.22-30.55,0A150.6,150.6,0,0,1,683.89,401.05Zm23.32,10.68a38.88,38.88,0,0,0,0-4.58c-1.64-.09-14.5-.13-16.05,0a38.88,38.88,0,0,0,0,4.58C692.76,411.86,705.61,411.86,707.21,411.73Z"/><path class="cls-1" d="M717.55,400.45c1.77-.22,25.92-.18,28.08,0a21.92,21.92,0,0,1,0,6.57c-.86.08-5.23.13-10.3.13,0,3.67,0,8.9-.13,10.42a34.79,34.79,0,0,1-7.22,0c-.13-1.52-.18-6.75-.13-10.42-5.11,0-9.57,0-10.3-.13A23.32,23.32,0,0,1,717.55,400.45Zm10.64-19.54a43.39,43.39,0,0,1,6.84,0c2.77,3.33,7.57,10,10.47,14.09a20.73,20.73,0,0,1-6,4.28c-1.56-1.73-6.19-8.43-7.92-11.07-1.73,2.64-6.36,9.34-7.92,11.07a20.61,20.61,0,0,1-6-4.24C720.58,390.94,725.42,384.24,728.19,380.91Z"/><path class="cls-1" d="M24.35,13.39l.12,0c5.1-1.9,9.37,1.93,11.39,4.28a2.45,2.45,0,0,0,2.76.6c.1-.05.2-.09.3-.15a14.35,14.35,0,0,1,1.57-.79,5.14,5.14,0,0,1,3.83-.36c2.87,1.21,2.93,5,2.6,7.67A2.18,2.18,0,0,0,49,27.05c1.6.09,3.46.57,4.16,2.23,1.54,3.71-1.28,8.46-8.7,15.08a21.68,21.68,0,0,1-12.38,5.39c-9.85.92-15-.51-16.76-4.69-.69-1.67.29-3.33,1.35-4.53a2.19,2.19,0,0,0-.23-3.22c-2-1.57-4.5-4.23-3.65-7.24a4.31,4.31,0,0,1,2.68-2.8,8.17,8.17,0,0,1,1.66-.48,3.08,3.08,0,0,0,.54-.16,2.44,2.44,0,0,0,1.54-2.36c-.2-3.14.2-8.6,5-10.83l.11,0M21.58,6.74l-.37.16c-5.36,2.48-8.57,7.48-9.13,14a11.4,11.4,0,0,0-6.2,7.21A12.09,12.09,0,0,0,7.45,38,16,16,0,0,0,8.73,39.8a10.36,10.36,0,0,0,0,8c1.21,2.9,3.93,6.72,10.05,8.43,3.62,1,8.08,1.23,14,.67a28.77,28.77,0,0,0,16.51-7.19c4.4-3.93,7.31-7.23,9.15-10.39,3.25-5.6,2.56-10.08,1.4-12.85a10.34,10.34,0,0,0-5.64-5.59,15.14,15.14,0,0,0-.35-2.3,11.15,11.15,0,0,0-15.17-8.34,21,21,0,0,0-4-2.78A15.31,15.31,0,0,0,22,6.59a2.5,2.5,0,0,0-.38.15Z"/><path class="cls-1" d="M38.94,49.32A22.54,22.54,0,0,1,32.36,51c-7,.66-15.48.55-18.28-6.17a6.47,6.47,0,0,1,1-6.47c-4.1-3.72-3.91-7.23-3.39-9.06A7,7,0,0,1,16,24.65a10.36,10.36,0,0,1,1.33-.44c-.11-5.64,2.19-9.94,6.37-11.88l.22-.1.22-.08c4.43-1.65,9.18-.17,13.16,4.07.36-.19.71-.35,1.06-.5a7.52,7.52,0,0,1,5.93-.31c1.85.78,4.75,3,4.39,8.94a6.44,6.44,0,0,1,5.26,3.83c2.55,6.12-3.26,12.38-8.61,17.16a22.6,22.6,0,0,1-6.34,4Z"/><path class="cls-3" d="M422,75.23l.84-9.34a8,8,0,0,0,1.39-2.31,8,8,0,0,1-1.39,2.31Z"/><path class="cls-3" d="M421.5,77.89h0c.06-.18.1-.37.15-.56C421.62,77.52,421.55,77.7,421.5,77.89Z"/><path class="cls-3" d="M395.49,46.56h19.33A10.55,10.55,0,0,1,425.36,57.1a20.81,20.81,0,0,1-.27,3.45,20.81,20.81,0,0,0,.27-3.45,10.55,10.55,0,0,0-10.54-10.54h-31.2a10.53,10.53,0,0,0-2.87.41,10.53,10.53,0,0,1,2.87-.41Z"/><path class="cls-3" d="M377,77.32c.1.37.2.74.33,1.1h0C377.19,78.05,377.07,77.7,377,77.32Z"/><path class="cls-1" d="M376.86,49a10.55,10.55,0,0,1,3.28-1.87A10.55,10.55,0,0,0,376.86,49Z"/><path class="cls-1" d="M375.79,66.14a7.82,7.82,0,0,1-1.61-2.56,7.82,7.82,0,0,0,1.61,2.56l.81,9.09h0Z"/><path class="cls-1" d="M376,49.8a10.5,10.5,0,0,0-2.94,7.3,19,19,0,0,0,.61,5,19.05,19.05,0,0,1-.61-5A10.5,10.5,0,0,1,376,49.8Z"/><path class="cls-2" d="M421.15,79c.14-.35.26-.71.37-1.08h0C421.39,78.25,421.29,78.62,421.15,79Z"/><path class="cls-2" d="M377.3,78.42c.06.17.11.34.18.51-.07-.16-.11-.35-.17-.52Z"/><path class="cls-2" d="M419.3,82.21a12,12,0,0,0,1-1.46,13.15,13.15,0,0,1-1,1.45Z"/><polygon class="cls-2" points="379.28 82.14 379.28 82.14 379.28 82.14 379.28 82.14"/></svg>