<svg width="1657" height="4418" viewBox="0 0 1657 4418" fill="none" xmlns="http://www.w3.org/2000/svg">
<path d="M0 0H1656.75V4418H0V0Z" fill="white"/>
<path d="M0 0H1656.75V1347.49H0V0Z" fill="black" fill-opacity="0.03"/>
<path d="M0 2699.4H1656.75V4409.16H0V2699.4Z" fill="black" fill-opacity="0.03"/>
<path d="M138.136 1347.49C138.809 1347.49 139.482 1347.5 140.155 1347.51L1656.75 1347.72L1516.1 1347.72C1491.55 1347.73 1467.3 1352.83 1445.04 1362.67L1357.58 1401.43C1323.99 1416.39 1286.14 1420.38 1249.91 1412.8L1127.16 1386.76C1092.69 1379.45 1056.67 1382.65 1024.22 1395.92L892.978 1449.4C872.02 1457.95 849.449 1462.36 826.64 1462.36C803.831 1462.36 781.26 1457.95 760.301 1449.4L629.361 1396.03C596.884 1382.8 560.851 1379.59 526.355 1386.88L404.207 1412.8C367.979 1420.38 330.127 1416.39 296.535 1401.43L209.141 1362.67C187.524 1353.04 164.011 1347.87 140.155 1347.51L0 1347.49L138.136 1347.49Z" fill="black" fill-opacity="0.03"/>
<path d="M138.136 2699.4C138.809 2699.4 139.482 2699.41 140.155 2699.42L1656.75 2699.63L1516.1 2699.63C1491.55 2699.63 1467.3 2704.73 1445.04 2714.57L1357.58 2753.34C1323.99 2768.3 1286.14 2772.29 1249.91 2764.7L1127.16 2738.67C1092.69 2731.36 1056.67 2734.56 1024.22 2747.82L892.978 2801.31C872.02 2809.86 849.449 2814.27 826.64 2814.27C803.831 2814.27 781.26 2809.86 760.301 2801.31L629.361 2747.94C596.884 2734.7 560.851 2731.5 526.355 2738.79L404.207 2764.7C367.979 2772.29 330.127 2768.3 296.535 2753.34L209.141 2714.57C187.524 2704.94 164.011 2699.78 140.155 2699.42L0 2699.4L138.136 2699.4Z" fill="white"/>
</svg>
