<svg width="44" height="14" viewBox="0 0 44 14" fill="none" xmlns="http://www.w3.org/2000/svg">
<path d="M0.995313 13.088C1.61931 13.2 3.25131 13.2 3.73131 13.088C3.76331 12.736 3.77931 10.384 3.79531 7.808C4.78731 7.824 6.16331 7.824 7.18731 7.808C7.20331 10.384 7.21931 12.736 7.25131 13.088C7.87531 13.2 9.50731 13.2 9.98731 13.088C10.0833 12.304 10.0833 1.312 9.98731 0.511999C9.44331 0.415999 7.81131 0.415999 7.25131 0.511999C7.21931 0.832 7.20331 2.864 7.18731 5.184H3.79531C3.77931 2.864 3.76331 0.832 3.73131 0.511999C3.18731 0.415999 1.55531 0.415999 0.995313 0.511999C0.899313 1.312 0.899313 12.304 0.995313 13.088ZM11.2211 6.8C11.2211 10.976 14.0371 13.296 17.5571 13.296C21.0771 13.296 23.8931 10.976 23.8931 6.8C23.8931 2.624 21.0771 0.304 17.5571 0.304C14.0371 0.304 11.2211 2.624 11.2211 6.8ZM14.0851 6.8C14.0851 4.448 15.2531 2.912 17.5571 2.912C19.8611 2.912 21.0291 4.448 21.0291 6.8C21.0291 9.152 19.8611 10.688 17.5571 10.688C15.2531 10.688 14.0851 9.152 14.0851 6.8ZM23.8866 1.024C24.2866 2.336 27.3586 11.792 27.9186 13.088C28.9746 13.216 30.2226 13.216 31.2466 13.088C31.5826 12.288 32.7186 8.352 33.7746 5.2C34.8146 8.352 35.9506 12.288 36.2866 13.088C37.3106 13.216 38.5586 13.216 39.6146 13.088C40.1746 11.792 43.2466 2.336 43.6466 1.024C42.9746 0.655999 41.5986 0.4 40.8786 0.351999C40.4946 1.28 38.8146 7.232 37.9506 9.76C37.0866 7.152 35.4066 1.52 35.0866 0.639999C34.4466 0.559999 33.0866 0.559999 32.4466 0.639999C32.1266 1.52 30.4466 7.152 29.5826 9.76C28.7186 7.232 27.0386 1.28 26.6546 0.351999C25.9346 0.4 24.5586 0.655999 23.8866 1.024Z" fill="#FFCD00"/>
</svg>
