<svg width="69" height="19" viewBox="0 0 69 19" fill="none" xmlns="http://www.w3.org/2000/svg">
<path d="M1.08498 9.54002C2.40498 9.62002 9.30498 9.62002 10.465 9.54002C10.545 8.86002 10.545 7.06002 10.465 6.56002C9.60498 6.52002 5.50498 6.52002 4.52498 6.56002C4.46498 5.86002 4.46498 4.58002 4.52498 4.06002C5.18498 4.08002 8.80498 4.08002 9.72498 4.06002C9.78498 3.36002 9.78498 1.64002 9.72498 1.12002C8.36498 1.04002 2.04498 1.04002 1.08498 1.12002C0.94498 2.90002 0.94498 7.76002 1.08498 9.54002ZM1.52498 18C2.48498 18.1 14.085 18.1 15.045 18C15.185 17.04 15.185 11.64 15.045 10.66C13.985 10.54 2.58498 10.54 1.52498 10.66C1.38498 11.64 1.38498 17.04 1.52498 18ZM4.88498 15.2C4.84498 14.56 4.84498 14.1 4.88498 13.48C5.60498 13.42 10.945 13.44 11.705 13.48C11.745 14.1 11.745 14.56 11.705 15.2C10.965 15.26 5.62498 15.26 4.88498 15.2ZM11.745 9.96002C12.525 10.04 14.465 10.04 15.045 9.96002C15.105 9.60002 15.125 8.44002 15.145 7.08002C15.845 7.08002 16.525 7.04002 16.865 7.00002C16.965 6.58002 16.965 4.46002 16.865 4.02002C16.525 3.98002 15.845 3.94002 15.145 3.94002C15.125 2.48002 15.105 1.24002 15.045 0.860019C14.365 0.74002 12.425 0.74002 11.745 0.860019C11.645 1.86002 11.645 8.98002 11.745 9.96002Z" fill="#FFCD00"/>
<path d="M17.3409 4.52002C17.8409 4.56002 18.3409 4.54002 18.8609 4.52002C18.8209 5.86002 18.8209 15.84 18.8609 17.18C19.6809 17.24 21.4409 17.24 22.2409 17.18C22.3409 16.36 22.3409 2.14002 22.2409 1.32002C21.2409 1.22002 18.1409 1.22002 17.3409 1.32002C17.2609 1.90002 17.2609 3.94002 17.3409 4.52002ZM23.0209 4.52002C23.5209 4.56002 24.1209 4.54002 24.7609 4.52002C24.7209 5.86002 24.7209 15.84 24.7609 17.18C25.5809 17.24 27.3409 17.24 28.1409 17.18C28.2409 16.36 28.2409 2.14002 28.1409 1.32002C27.1409 1.22002 23.8209 1.22002 23.0209 1.32002C22.9409 1.90002 22.9409 3.94002 23.0209 4.52002ZM29.5609 17.8C30.3409 17.94 32.3009 17.94 32.8809 17.8C33.0209 16.82 33.0209 1.86002 32.8809 0.860019C32.2009 0.74002 30.2409 0.74002 29.5609 0.860019C29.4409 1.86002 29.4409 16.82 29.5609 17.8Z" fill="#FFCD00"/>
<path d="M37.5153 9.64002C38.0153 10.18 39.6753 11.26 40.4553 11.54C41.1753 10.48 43.9353 5.94002 44.7153 4.66002C45.4953 5.94002 48.2553 10.48 48.9753 11.54C49.7553 11.26 51.4153 10.18 51.9153 9.64002C50.5753 7.38002 47.9753 3.16002 46.4953 0.940019C45.7553 0.880019 43.6553 0.880019 42.9353 0.940019C41.4553 3.16002 38.8553 7.38002 37.5153 9.64002ZM37.7153 17.76C38.5353 17.84 50.6953 17.84 51.6953 17.76C51.8553 17.04 51.8353 15.48 51.6953 14.68C51.2953 14.64 49.0353 14.62 46.4353 14.62C46.4753 13.04 46.4553 10.76 46.3953 10.06C45.7153 10 43.6953 10 43.0153 10.06C42.9553 10.76 42.9353 13.04 42.9753 14.62C40.3353 14.62 38.0553 14.64 37.7153 14.68C37.5753 15.44 37.5753 16.98 37.7153 17.76Z" fill="#FFCD00"/>
<path d="M52.6144 4.58002C53.5144 4.62002 54.6344 4.62002 55.4544 4.58002C55.4144 5.92002 55.4144 15.8 55.4544 17.14C56.2744 17.2 57.9944 17.2 58.7944 17.14C58.8944 16.32 58.8944 2.18002 58.7944 1.36002C57.7944 1.26002 53.6144 1.26002 52.6144 1.36002C52.5344 1.94002 52.5344 4.00002 52.6144 4.58002ZM60.1744 17.54C60.9344 17.66 62.7944 17.66 63.3944 17.54C63.4344 17.08 63.4544 13.68 63.4544 10.08H64.6544C64.6544 13.8 64.6744 17.34 64.6944 17.8C65.4744 17.94 67.3744 17.94 67.9743 17.8C68.0944 16.82 68.0944 1.86002 67.9743 0.860019C67.2943 0.74002 65.3744 0.74002 64.6944 0.860019C64.6744 1.26002 64.6544 3.90002 64.6544 6.98002H63.4544C63.4544 3.94002 63.4344 1.34002 63.3944 0.940019C62.7144 0.820019 60.8544 0.820019 60.1744 0.940019C60.0944 1.94002 60.0944 16.54 60.1744 17.54Z" fill="#FFCD00"/>
</svg>
