<svg width="448" height="184" viewBox="0 0 448 184" fill="none" xmlns="http://www.w3.org/2000/svg">
<path d="M186.432 8C186.432 9.96 187.392 11.36 189.112 12.58C191.112 14 190.492 16.16 188.332 16.22C187.532 16.24 187.032 16.22 186.552 16.26C186.452 17.26 186.452 18.24 186.552 19.36C187.192 19.44 188.212 19.44 189.192 19.38C192.292 19.18 193.772 17.34 193.772 15.3C193.772 12.56 193.152 11.22 190.732 9.48C189.392 8.52 189.852 6.86 191.552 6.76C192.112 6.74 192.412 6.74 192.812 6.74C192.912 5.72 192.912 4.76 192.812 3.64C192.292 3.56 191.832 3.56 191.052 3.62C187.972 3.84 186.432 5.72 186.432 8ZM195.117 19.36C196.877 19.48 201.657 19.5 203.037 19.36C203.117 18.4 203.117 16.92 203.037 16.14C202.317 16.12 199.377 16.1 198.597 16.14C198.597 10.42 198.597 4.2 198.537 3.64C197.937 3.5 195.897 3.5 195.117 3.64C194.997 4.74 195.017 17.84 195.117 19.36ZM203.27 11.5C203.27 16.72 206.79 19.62 211.19 19.62C215.59 19.62 219.11 16.72 219.11 11.5C219.11 6.28 215.59 3.38 211.19 3.38C206.79 3.38 203.27 6.28 203.27 11.5ZM206.85 11.5C206.85 8.56 208.31 6.64 211.19 6.64C214.07 6.64 215.53 8.56 215.53 11.5C215.53 14.44 214.07 16.36 211.19 16.36C208.31 16.36 206.85 14.44 206.85 11.5ZM220.087 11.5C220.087 17.22 223.787 19.64 229.147 19.46C229.787 19.44 230.447 19.4 230.807 19.32C230.927 18.22 230.907 10.72 230.807 9.4C229.107 9.28 226.747 9.3 225.967 9.42C225.927 10.06 225.927 11.98 225.967 12.42C226.687 12.44 227.227 12.46 227.607 12.42V16.22C224.987 15.94 223.547 14.24 223.547 11.5C223.547 8.26 225.567 6.5 229.247 6.8C229.347 6 229.347 4.26 229.247 3.5C223.787 3.22 220.087 5.78 220.087 11.5ZM231.914 18.66C232.534 18.98 234.294 19.5 235.254 19.56C235.454 19.08 235.974 17.66 236.574 15.92C238.314 15.94 240.914 15.94 242.694 15.92C243.294 17.66 243.814 19.08 244.014 19.56C244.974 19.5 246.734 18.98 247.354 18.66C246.794 16.84 242.954 6.08 241.914 3.64C240.674 3.46 238.634 3.46 237.354 3.64C236.314 6.08 232.474 16.84 231.914 18.66ZM237.674 12.78C238.414 10.6 239.174 8.42 239.634 7.1C240.094 8.42 240.854 10.6 241.594 12.78H237.674ZM248.535 19.36C249.315 19.5 251.335 19.5 251.955 19.36C251.995 18.76 252.035 13.78 252.015 9.62C253.555 12.8 255.735 17.04 257.015 19.38C257.715 19.5 260.295 19.5 260.995 19.38C261.115 18.38 261.115 4.64 260.995 3.66C260.215 3.52 258.195 3.52 257.575 3.66C257.535 4.26 257.535 9.26 257.535 13.42C255.995 10.24 253.815 6 252.515 3.64C251.815 3.52 249.235 3.52 248.535 3.64C248.415 4.64 248.415 18.38 248.535 19.36Z" fill="#FFCD00"/>
<path d="M30.1661 66.024C32.7421 66.192 35.6541 66.136 38.8461 66.024C38.7341 68.768 38.7341 98.616 38.8461 101.248C41.0861 101.528 45.9581 101.528 48.1981 101.248C48.4781 98.392 48.4781 60.312 48.1981 56.896C45.3981 56.616 32.9661 56.616 30.1661 56.896C29.8861 58.52 29.8861 64.4 30.1661 66.024ZM51.8941 103.04C54.0781 103.432 59.5661 103.432 61.1901 103.04C61.3581 101.808 61.4701 92.68 61.4701 82.768C63.4301 82.768 65.3341 82.712 66.2861 82.6C66.5661 81.368 66.5661 75.04 66.2861 73.808C65.3341 73.696 63.4301 73.584 61.4701 73.584C61.4701 64.624 61.3581 56.784 61.1901 55.608C59.2861 55.272 53.7981 55.272 51.8941 55.608C51.5581 58.408 51.5581 100.296 51.8941 103.04ZM67.7911 76.832C68.9671 78.232 73.5031 81.256 75.4071 81.928C76.9191 80.248 82.9111 71.848 86.1591 66.92C89.7991 71.68 96.0711 79.352 97.6951 80.92C99.5431 80.136 103.855 76.776 104.975 75.32C104.191 73.92 100.327 69.216 96.7431 65.072C100.271 65.016 102.903 65.016 103.799 64.96C104.079 63.504 104.079 57.456 103.799 56.392C100.943 55.944 71.5431 55.944 68.2951 56.392C68.0151 57.568 68.0151 63.728 68.2951 64.96C69.0791 65.016 72.1031 65.072 76.0791 65.072C72.5511 69.664 68.4631 75.264 67.7911 76.832ZM68.9671 93.352C68.9671 100.632 74.7911 104.552 93.2711 104.552C111.751 104.552 117.575 100.632 117.575 93.352C117.575 86.072 111.751 82.152 93.2711 82.152C74.7911 82.152 68.9671 86.072 68.9671 93.352ZM78.7111 93.352C78.7111 91.28 80.9511 90.16 93.2711 90.16C105.591 90.16 107.831 91.28 107.831 93.352C107.831 95.424 105.591 96.544 93.2711 96.544C80.9511 96.544 78.7111 95.424 78.7111 93.352ZM106.935 81.312C109.119 81.536 114.551 81.536 116.175 81.312C116.343 80.304 116.399 76.944 116.455 73.024C118.415 73.024 120.319 72.912 121.271 72.8C121.551 71.624 121.551 65.688 121.271 64.456C120.319 64.344 118.415 64.232 116.455 64.232C116.399 60.144 116.343 56.672 116.175 55.608C114.271 55.272 108.839 55.272 106.935 55.608C106.655 58.408 106.655 78.568 106.935 81.312ZM131.021 66.024C132.813 66.136 134.493 66.136 136.173 66.024C136.117 69.776 136.117 97.44 136.173 101.192C138.357 101.36 142.949 101.36 145.077 101.192C145.301 98.896 145.301 59.304 145.077 57.008C142.445 56.728 133.261 56.728 131.021 57.008C130.797 58.632 130.797 64.4 131.021 66.024ZM147.149 66.024C148.829 66.136 150.845 66.136 152.301 66.024C152.189 69.776 152.189 97.44 152.301 101.192C154.485 101.36 159.077 101.36 161.149 101.192C161.429 98.896 161.429 59.304 161.149 57.008C158.573 56.728 149.053 56.728 147.149 57.008C146.981 58.632 146.981 64.4 147.149 66.024ZM165.181 102.312C167.309 102.648 172.517 102.648 174.197 102.312C174.309 101.024 174.365 91.504 174.365 81.424H178.173C178.173 91.84 178.229 101.752 178.285 103.04C180.469 103.432 185.789 103.432 187.469 103.04C187.805 100.296 187.805 58.408 187.469 55.608C185.565 55.272 180.189 55.272 178.285 55.608C178.229 56.728 178.173 64.12 178.173 72.744H174.365C174.365 64.232 174.309 56.952 174.197 55.832C172.293 55.496 167.085 55.496 165.181 55.832C164.957 58.632 164.957 99.512 165.181 102.312ZM190.452 98C191.908 100.52 194.82 103.712 196.948 105.168C199.412 103.32 205.852 97.664 209.1 94.248C212.348 97.664 218.788 103.32 221.252 105.168C223.38 103.712 226.292 100.52 227.748 98C226.012 96.432 219.18 90.328 214.364 86.296C212.236 86.016 205.964 86.016 203.836 86.296C199.02 90.328 192.188 96.432 190.452 98ZM190.844 84.168C193.7 84.28 223.94 84.28 227.412 84.168C227.692 81.76 227.636 77.84 227.412 75.152C223.94 74.984 193.7 74.984 190.844 75.152C190.564 77.784 190.564 81.648 190.844 84.168ZM192.468 64.456C194.596 64.568 196.164 64.568 198.124 64.456V72.912C200.476 73.136 205.124 73.136 207.476 72.912C207.644 69.384 207.644 58.688 207.476 56.28C204.788 56 194.708 56 192.468 56.28C192.244 58.072 192.244 63.056 192.468 64.456ZM209.772 64.456C211.732 64.568 213.412 64.568 215.932 64.456V72.912C218.284 73.136 222.988 73.136 225.284 72.912C225.508 69.384 225.508 58.688 225.284 56.28C222.596 56 212.348 56 209.772 56.28C209.604 58.072 209.604 63.056 209.772 64.456ZM229.884 67.48C233.188 67.648 260.74 67.648 264.38 67.48C264.716 65.968 264.716 60.144 264.38 59.024C263.036 58.912 258.276 58.912 252.732 58.856C252.732 57.4 252.676 55.832 252.564 54.376C250.548 54.096 244.668 54.096 242.652 54.376C242.54 55.832 242.484 57.4 242.484 58.856C236.492 58.856 231.228 58.912 229.884 59.024C229.492 60.312 229.492 66.136 229.884 67.48ZM230.5 85.512C230.5 95.872 236.996 102.032 247.636 102.032C258.276 102.032 264.772 95.872 264.772 85.512C264.772 75.152 258.276 68.992 247.636 68.992C236.996 68.992 230.5 75.152 230.5 85.512ZM239.572 85.512C239.572 80.248 242.652 77 247.636 77C252.62 77 255.7 80.248 255.7 85.512C255.7 90.832 252.62 94.024 247.636 94.024C242.652 94.024 239.572 90.832 239.572 85.512ZM266.844 103.04C269.028 103.432 274.516 103.432 276.14 103.04C276.308 101.808 276.42 92.68 276.42 82.768C278.38 82.768 280.284 82.712 281.236 82.6C281.516 81.368 281.516 75.04 281.236 73.808C280.284 73.696 278.38 73.584 276.42 73.584C276.42 64.624 276.308 56.784 276.14 55.608C274.236 55.272 268.748 55.272 266.844 55.608C266.508 58.408 266.508 100.296 266.844 103.04ZM282.029 66.024C284.549 66.136 288.525 66.136 290.821 66.024C290.709 69.776 290.709 97.44 290.821 101.192C293.117 101.36 297.933 101.36 300.173 101.192C300.285 100.128 300.397 91.056 300.397 81.424H304.485C304.485 91.504 304.541 101.024 304.653 102.312C306.781 102.648 311.989 102.648 313.669 102.312C313.893 99.512 313.893 58.632 313.669 55.832C311.765 55.496 306.557 55.496 304.653 55.832C304.541 56.952 304.485 64.232 304.485 72.744H300.397C300.341 64.736 300.285 57.904 300.173 57.008C297.373 56.728 284.829 56.728 282.029 57.008C281.805 58.632 281.805 64.4 282.029 66.024ZM316.973 103.04C319.157 103.432 324.477 103.432 326.157 103.04C326.493 100.296 326.493 58.408 326.157 55.608C324.253 55.272 318.877 55.272 316.973 55.608C316.805 58.408 316.805 100.296 316.973 103.04ZM385.028 88.2C387.884 88.312 414.204 88.312 417.676 88.2C417.956 85.792 417.956 81.984 417.676 79.576C414.204 79.408 387.884 79.408 385.028 79.576C384.748 82.152 384.748 85.68 385.028 88.2ZM385.868 66.808C385.868 73.92 391.804 78.344 401.324 78.344C410.844 78.344 416.78 73.92 416.78 66.808C416.78 59.696 410.844 55.272 401.324 55.272C391.804 55.272 385.868 59.696 385.868 66.808ZM386.316 103.88C390.348 104.104 413.42 104.104 417.228 103.88C417.564 102.032 417.564 97.272 417.228 95.368C414.764 95.256 398.412 95.256 395.836 95.368C395.948 93.856 395.892 92.456 395.836 90.44C393.876 90.104 388.22 90.104 386.316 90.44C386.036 93.632 386.092 100.072 386.316 103.88ZM395.5 66.808C395.5 64.96 397.18 63.616 401.324 63.616C405.468 63.616 407.148 64.96 407.148 66.808C407.148 68.656 405.468 70 401.324 70C397.18 70 395.5 68.656 395.5 66.808ZM141.29 147.912C144.986 148.136 165.986 148.136 169.234 147.912C169.458 146.008 169.458 141.024 169.234 139.624C166.826 139.512 153.554 139.512 150.81 139.624C150.642 137.664 150.642 133.968 150.81 132.512C152.658 132.568 165.706 132.568 166.602 132.512C166.77 130.552 166.77 125.792 166.602 124.336C165.034 124.112 143.978 124.112 141.29 124.336C140.898 129.32 140.898 142.928 141.29 147.912ZM141.57 161.352C141.57 168.632 147.394 172.552 162.514 172.552C177.634 172.552 183.458 168.632 183.458 161.352C183.458 154.072 177.634 150.152 162.514 150.152C147.394 150.152 141.57 154.072 141.57 161.352ZM151.314 161.352C151.314 159.28 153.554 158.16 162.514 158.16C171.474 158.16 173.714 159.28 173.714 161.352C173.714 163.424 171.474 164.544 162.514 164.544C153.554 164.544 151.314 163.424 151.314 161.352ZM172.818 149.312C175.002 149.536 180.434 149.536 182.058 149.312C182.226 148.304 182.282 144.944 182.338 141.024C184.298 141.024 186.202 140.912 187.154 140.8C187.434 139.624 187.434 133.688 187.154 132.456C186.202 132.344 184.298 132.232 182.338 132.232C182.282 128.144 182.226 124.672 182.058 123.608C180.154 123.272 174.722 123.272 172.818 123.608C172.538 126.408 172.538 146.568 172.818 149.312ZM187.214 149.368C188.782 150.488 193.99 152.504 195.95 152.84C196.734 151.328 200.038 142.984 202.614 136.824C205.582 142.872 209.222 151.216 210.174 152.672C212.134 152.28 217.174 149.984 218.686 148.808C217.846 146.176 208.326 126.744 206.926 124.336C205.078 124.224 199.59 124.224 197.742 124.336C196.454 126.8 187.886 146.736 187.214 149.368ZM190.798 170.984C194.83 171.208 226.526 171.208 230.334 170.984C230.67 169.136 230.67 164.096 230.334 162.192C227.87 162.08 202.894 162.08 200.318 162.192C200.43 160.68 200.374 156.368 200.318 154.52C198.358 154.184 192.702 154.184 190.798 154.52C190.518 157.88 190.574 167.176 190.798 170.984ZM220.478 158.384C222.662 158.608 228.15 158.608 229.774 158.384C230.166 155.584 230.166 126.408 229.774 123.608C227.87 123.272 222.382 123.272 220.478 123.608C220.254 126.408 220.254 155.64 220.478 158.384ZM233.163 169.248C235.851 169.416 264.915 169.416 268.163 169.248C268.499 167.232 268.443 162.864 268.163 160.624C264.915 160.4 235.851 160.344 233.163 160.624C232.827 162.752 232.827 167.064 233.163 169.248ZM233.555 139.736C233.555 149.48 240.387 155.752 250.467 155.752C260.547 155.752 267.379 149.48 267.379 139.736C267.379 129.936 260.491 123.72 250.467 123.72C240.387 123.72 233.555 129.992 233.555 139.736ZM242.963 139.736C242.963 134.92 245.987 132.288 250.467 132.288C254.947 132.288 257.971 134.92 257.971 139.736C257.971 144.496 254.947 147.184 250.467 147.184C245.987 147.184 242.963 144.496 242.963 139.736ZM270.347 171.04C272.531 171.432 278.019 171.432 279.699 171.04C280.091 168.296 280.091 126.408 279.699 123.608C277.795 123.272 272.307 123.272 270.347 123.608C270.011 126.408 270.011 168.352 270.347 171.04ZM292.09 134.584C295.226 134.752 318.242 134.752 321.658 134.584C321.994 133.184 321.994 127.696 321.658 126.632C320.426 126.576 316.562 126.52 312.082 126.52C312.082 125.12 312.026 123.72 311.914 122.376C310.01 122.096 304.41 122.096 302.45 122.376C302.338 123.72 302.338 125.12 302.338 126.52C297.466 126.52 293.322 126.576 292.09 126.632C291.698 127.864 291.698 133.352 292.09 134.584ZM292.538 145.952C292.538 152.336 297.242 156.032 307.21 156.032C317.178 156.032 321.882 152.336 321.882 145.952C321.882 139.568 317.178 135.872 307.21 135.872C297.242 135.872 292.538 139.568 292.538 145.952ZM294.61 170.984C298.642 171.208 329.778 171.208 333.586 170.984C333.922 169.136 333.922 164.096 333.586 162.192C331.122 162.08 306.706 162.08 304.13 162.192C304.242 160.68 304.186 159.168 304.13 157.32C302.17 156.984 296.514 156.984 294.61 157.32C294.33 160.68 294.386 167.176 294.61 170.984ZM300.994 145.952C300.994 144.272 302.898 142.984 307.21 142.984C311.522 142.984 313.426 144.272 313.426 145.952C313.426 147.632 311.522 148.92 307.21 148.92C302.898 148.92 300.994 147.632 300.994 145.952ZM323.73 158.664C325.914 158.888 331.402 158.888 333.026 158.664C333.138 157.656 333.25 153.344 333.306 148.024C335.266 148.024 337.17 147.912 338.122 147.8C338.29 146.568 338.29 140.632 338.122 139.456C337.17 139.344 335.266 139.232 333.306 139.232C333.306 131.84 333.194 124.896 333.026 123.608C331.122 123.272 325.634 123.272 323.73 123.608C323.506 126.408 323.506 155.92 323.73 158.664Z" fill="white"/>
<path d="M339.736 79.912C343.432 80.136 362.752 80.136 366 79.912C366.224 78.008 366.224 72.968 366 71.568C363.592 71.456 352.112 71.456 349.368 71.568C349.2 69.608 349.2 66.024 349.368 64.568C351.216 64.624 361.352 64.624 363.928 64.568C364.096 62.608 364.096 57.792 363.928 56.336C360.12 56.112 342.424 56.112 339.736 56.336C339.344 61.32 339.344 74.928 339.736 79.912ZM340.968 103.6C343.656 103.88 376.136 103.88 378.824 103.6C379.216 100.912 379.216 85.792 378.824 83.048C375.856 82.712 343.936 82.712 340.968 83.048C340.576 85.792 340.576 100.912 340.968 103.6ZM350.376 95.76C350.264 93.968 350.264 92.68 350.376 90.944C352.392 90.776 367.344 90.832 369.472 90.944C369.584 92.68 369.584 93.968 369.472 95.76C367.4 95.928 352.448 95.928 350.376 95.76ZM369.584 81.088C371.768 81.312 377.2 81.312 378.824 81.088C378.992 80.08 379.048 76.832 379.104 73.024C381.064 73.024 382.968 72.912 383.92 72.8C384.2 71.624 384.2 65.688 383.92 64.456C382.968 64.344 381.064 64.232 379.104 64.232C379.048 60.144 378.992 56.672 378.824 55.608C376.92 55.272 371.488 55.272 369.584 55.608C369.304 58.408 369.304 78.344 369.584 81.088ZM338.882 133.856C340.282 133.968 341.682 133.912 343.138 133.856C343.026 137.608 343.026 165.552 343.138 169.304C345.434 169.472 350.362 169.472 352.602 169.304C352.882 167.008 352.882 127.192 352.602 124.896C349.802 124.616 341.122 124.616 338.882 124.896C338.658 126.52 338.658 132.232 338.882 133.856ZM354.786 133.856C356.186 133.968 357.866 133.912 359.658 133.856C359.546 137.608 359.546 165.552 359.658 169.304C361.954 169.472 366.882 169.472 369.122 169.304C369.402 167.008 369.402 127.192 369.122 124.896C366.322 124.616 357.026 124.616 354.786 124.896C354.562 126.52 354.562 132.232 354.786 133.856ZM373.098 171.04C375.282 171.432 380.77 171.432 382.394 171.04C382.786 168.296 382.786 126.408 382.394 123.608C380.49 123.272 375.002 123.272 373.098 123.608C372.762 126.408 372.762 168.296 373.098 171.04Z" fill="#FFCD00"/>
</svg>
