<svg width="168" height="93" viewBox="0 0 168 93" fill="none" xmlns="http://www.w3.org/2000/svg">
<path d="M0.928314 42.296C2.03231 42.368 3.28031 42.344 4.64831 42.296C4.60031 43.472 4.60031 56.264 4.64831 57.392C5.60831 57.512 7.69631 57.512 8.65631 57.392C8.77631 56.168 8.77631 39.848 8.65631 38.384C7.45631 38.264 2.12831 38.264 0.928314 38.384C0.808314 39.08 0.808314 41.6 0.928314 42.296ZM10.2403 58.16C11.1763 58.328 13.5283 58.328 14.2243 58.16C14.2963 57.632 14.3443 53.72 14.3443 49.472C15.1843 49.472 16.0003 49.448 16.4083 49.4C16.5283 48.872 16.5283 46.16 16.4083 45.632C16.0003 45.584 15.1843 45.536 14.3443 45.536C14.3443 41.696 14.2963 38.336 14.2243 37.832C13.4083 37.688 11.0563 37.688 10.2403 37.832C10.0963 39.032 10.0963 56.984 10.2403 58.16ZM17.0533 46.928C17.5573 47.528 19.5013 48.824 20.3173 49.112C20.9653 48.392 23.5333 44.792 24.9253 42.68C26.4853 44.72 29.1733 48.008 29.8693 48.68C30.6613 48.344 32.5093 46.904 32.9893 46.28C32.6533 45.68 30.9973 43.664 29.4613 41.888C30.9733 41.864 32.1013 41.864 32.4853 41.84C32.6053 41.216 32.6053 38.624 32.4853 38.168C31.2613 37.976 18.6613 37.976 17.2693 38.168C17.1493 38.672 17.1493 41.312 17.2693 41.84C17.6053 41.864 18.9013 41.888 20.6053 41.888C19.0933 43.856 17.3413 46.256 17.0533 46.928ZM17.5573 54.008C17.5573 57.128 20.0533 58.808 27.9733 58.808C35.8933 58.808 38.3893 57.128 38.3893 54.008C38.3893 50.888 35.8933 49.208 27.9733 49.208C20.0533 49.208 17.5573 50.888 17.5573 54.008ZM21.7333 54.008C21.7333 53.12 22.6933 52.64 27.9733 52.64C33.2533 52.64 34.2133 53.12 34.2133 54.008C34.2133 54.896 33.2533 55.376 27.9733 55.376C22.6933 55.376 21.7333 54.896 21.7333 54.008ZM33.8293 48.848C34.7653 48.944 37.0933 48.944 37.7893 48.848C37.8613 48.416 37.8853 46.976 37.9093 45.296C38.7493 45.296 39.5653 45.248 39.9733 45.2C40.0933 44.696 40.0933 42.152 39.9733 41.624C39.5653 41.576 38.7493 41.528 37.9093 41.528C37.8853 39.776 37.8613 38.288 37.7893 37.832C36.9733 37.688 34.6453 37.688 33.8293 37.832C33.7093 39.032 33.7093 47.672 33.8293 48.848ZM44.1519 42.296C44.9199 42.344 45.6399 42.344 46.3599 42.296C46.3359 43.904 46.3359 55.76 46.3599 57.368C47.2959 57.44 49.2639 57.44 50.1759 57.368C50.2719 56.384 50.2719 39.416 50.1759 38.432C49.0479 38.312 45.1119 38.312 44.1519 38.432C44.0559 39.128 44.0559 41.6 44.1519 42.296ZM51.0639 42.296C51.7839 42.344 52.6479 42.344 53.2719 42.296C53.2239 43.904 53.2239 55.76 53.2719 57.368C54.2079 57.44 56.1759 57.44 57.0639 57.368C57.1839 56.384 57.1839 39.416 57.0639 38.432C55.9599 38.312 51.8799 38.312 51.0639 38.432C50.9919 39.128 50.9919 41.6 51.0639 42.296ZM58.7919 57.848C59.7039 57.992 61.9359 57.992 62.6559 57.848C62.7039 57.296 62.7279 53.216 62.7279 48.896H64.3599C64.3599 53.36 64.3839 57.608 64.4079 58.16C65.3439 58.328 67.6239 58.328 68.3439 58.16C68.4879 56.984 68.4879 39.032 68.3439 37.832C67.5279 37.688 65.2239 37.688 64.4079 37.832C64.3839 38.312 64.3599 41.48 64.3599 45.176H62.7279C62.7279 41.528 62.7039 38.408 62.6559 37.928C61.8399 37.784 59.6079 37.784 58.7919 37.928C58.6959 39.128 58.6959 56.648 58.7919 57.848ZM69.6223 56C70.2463 57.08 71.4943 58.448 72.4063 59.072C73.4623 58.28 76.2223 55.856 77.6143 54.392C79.0063 55.856 81.7663 58.28 82.8223 59.072C83.7343 58.448 84.9823 57.08 85.6063 56C84.8623 55.328 81.9343 52.712 79.8703 50.984C78.9583 50.864 76.2703 50.864 75.3583 50.984C73.2943 52.712 70.3663 55.328 69.6223 56ZM69.7903 50.072C71.0143 50.12 83.9743 50.12 85.4623 50.072C85.5823 49.04 85.5583 47.36 85.4623 46.208C83.9743 46.136 71.0143 46.136 69.7903 46.208C69.6703 47.336 69.6703 48.992 69.7903 50.072ZM70.4863 41.624C71.3983 41.672 72.0703 41.672 72.9103 41.624V45.248C73.9183 45.344 75.9103 45.344 76.9183 45.248C76.9903 43.736 76.9903 39.152 76.9183 38.12C75.7663 38 71.4463 38 70.4863 38.12C70.3903 38.888 70.3903 41.024 70.4863 41.624ZM77.9023 41.624C78.7423 41.672 79.4623 41.672 80.5423 41.624V45.248C81.5503 45.344 83.5663 45.344 84.5503 45.248C84.6463 43.736 84.6463 39.152 84.5503 38.12C83.3983 38 79.0063 38 77.9023 38.12C77.8303 38.888 77.8303 41.024 77.9023 41.624ZM86.5219 42.92C87.9379 42.992 99.7459 42.992 101.306 42.92C101.45 42.272 101.45 39.776 101.306 39.296C100.73 39.248 98.6899 39.248 96.3139 39.224C96.3139 38.6 96.2899 37.928 96.2419 37.304C95.3779 37.184 92.8579 37.184 91.9939 37.304C91.9459 37.928 91.9219 38.6 91.9219 39.224C89.3539 39.224 87.0979 39.248 86.5219 39.296C86.3539 39.848 86.3539 42.344 86.5219 42.92ZM86.7859 50.648C86.7859 55.088 89.5699 57.728 94.1299 57.728C98.6899 57.728 101.474 55.088 101.474 50.648C101.474 46.208 98.6899 43.568 94.1299 43.568C89.5699 43.568 86.7859 46.208 86.7859 50.648ZM90.6739 50.648C90.6739 48.392 91.9939 47 94.1299 47C96.2659 47 97.5859 48.392 97.5859 50.648C97.5859 52.928 96.2659 54.296 94.1299 54.296C91.9939 54.296 90.6739 52.928 90.6739 50.648ZM102.362 58.16C103.298 58.328 105.65 58.328 106.346 58.16C106.418 57.632 106.466 53.72 106.466 49.472C107.306 49.472 108.122 49.448 108.53 49.4C108.65 48.872 108.65 46.16 108.53 45.632C108.122 45.584 107.306 45.536 106.466 45.536C106.466 41.696 106.418 38.336 106.346 37.832C105.53 37.688 103.178 37.688 102.362 37.832C102.218 39.032 102.218 56.984 102.362 58.16ZM108.869 42.296C109.949 42.344 111.653 42.344 112.637 42.296C112.589 43.904 112.589 55.76 112.637 57.368C113.621 57.44 115.685 57.44 116.645 57.368C116.693 56.912 116.741 53.024 116.741 48.896H118.493C118.493 53.216 118.517 57.296 118.565 57.848C119.477 57.992 121.709 57.992 122.429 57.848C122.525 56.648 122.525 39.128 122.429 37.928C121.613 37.784 119.381 37.784 118.565 37.928C118.517 38.408 118.493 41.528 118.493 45.176H116.741C116.717 41.744 116.693 38.816 116.645 38.432C115.445 38.312 110.069 38.312 108.869 38.432C108.773 39.128 108.773 41.6 108.869 42.296ZM123.845 58.16C124.781 58.328 127.061 58.328 127.781 58.16C127.925 56.984 127.925 39.032 127.781 37.832C126.965 37.688 124.661 37.688 123.845 37.832C123.773 39.032 123.773 56.984 123.845 58.16ZM153.012 51.8C154.236 51.848 165.516 51.848 167.004 51.8C167.124 50.768 167.124 49.136 167.004 48.104C165.516 48.032 154.236 48.032 153.012 48.104C152.892 49.208 152.892 50.72 153.012 51.8ZM153.372 42.632C153.372 45.68 155.916 47.576 159.996 47.576C164.076 47.576 166.62 45.68 166.62 42.632C166.62 39.584 164.076 37.688 159.996 37.688C155.916 37.688 153.372 39.584 153.372 42.632ZM153.564 58.52C155.292 58.616 165.18 58.616 166.812 58.52C166.956 57.728 166.956 55.688 166.812 54.872C165.756 54.824 158.748 54.824 157.644 54.872C157.692 54.224 157.668 53.624 157.644 52.76C156.804 52.616 154.38 52.616 153.564 52.76C153.444 54.128 153.468 56.888 153.564 58.52ZM157.5 42.632C157.5 41.84 158.22 41.264 159.996 41.264C161.772 41.264 162.492 41.84 162.492 42.632C162.492 43.424 161.772 44 159.996 44C158.22 44 157.5 43.424 157.5 42.632ZM48.5529 77.248C50.1369 77.344 59.1369 77.344 60.5289 77.248C60.6249 76.432 60.6249 74.296 60.5289 73.696C59.4969 73.648 53.8089 73.648 52.6329 73.696C52.5609 72.856 52.5609 71.272 52.6329 70.648C53.4249 70.672 59.0169 70.672 59.4009 70.648C59.4729 69.808 59.4729 67.768 59.4009 67.144C58.7289 67.048 49.7049 67.048 48.5529 67.144C48.3849 69.28 48.3849 75.112 48.5529 77.248ZM48.6729 83.008C48.6729 86.128 51.1689 87.808 57.6489 87.808C64.1289 87.808 66.6249 86.128 66.6249 83.008C66.6249 79.888 64.1289 78.208 57.6489 78.208C51.1689 78.208 48.6729 79.888 48.6729 83.008ZM52.8489 83.008C52.8489 82.12 53.8089 81.64 57.6489 81.64C61.4889 81.64 62.4489 82.12 62.4489 83.008C62.4489 83.896 61.4889 84.376 57.6489 84.376C53.8089 84.376 52.8489 83.896 52.8489 83.008ZM62.0649 77.848C63.0009 77.944 65.3289 77.944 66.0249 77.848C66.0969 77.416 66.1209 75.976 66.1449 74.296C66.9849 74.296 67.8009 74.248 68.2089 74.2C68.3289 73.696 68.3289 71.152 68.2089 70.624C67.8009 70.576 66.9849 70.528 66.1449 70.528C66.1209 68.776 66.0969 67.288 66.0249 66.832C65.2089 66.688 62.8809 66.688 62.0649 66.832C61.9449 68.032 61.9449 76.672 62.0649 77.848ZM68.2346 77.872C68.9066 78.352 71.1386 79.216 71.9786 79.36C72.3146 78.712 73.7306 75.136 74.8346 72.496C76.1066 75.088 77.6666 78.664 78.0746 79.288C78.9146 79.12 81.0746 78.136 81.7226 77.632C81.3626 76.504 77.2826 68.176 76.6826 67.144C75.8906 67.096 73.5386 67.096 72.7466 67.144C72.1946 68.2 68.5226 76.744 68.2346 77.872ZM69.7706 87.136C71.4986 87.232 85.0826 87.232 86.7146 87.136C86.8586 86.344 86.8586 84.184 86.7146 83.368C85.6586 83.32 74.9546 83.32 73.8506 83.368C73.8986 82.72 73.8746 80.872 73.8506 80.08C73.0106 79.936 70.5866 79.936 69.7706 80.08C69.6506 81.52 69.6746 85.504 69.7706 87.136ZM82.4906 81.736C83.4266 81.832 85.7786 81.832 86.4746 81.736C86.6426 80.536 86.6426 68.032 86.4746 66.832C85.6586 66.688 83.3066 66.688 82.4906 66.832C82.3946 68.032 82.3946 80.56 82.4906 81.736ZM87.9272 86.392C89.0792 86.464 101.535 86.464 102.927 86.392C103.071 85.528 103.047 83.656 102.927 82.696C101.535 82.6 89.0792 82.576 87.9272 82.696C87.7832 83.608 87.7832 85.456 87.9272 86.392ZM88.0952 73.744C88.0952 77.92 91.0232 80.608 95.3432 80.608C99.6632 80.608 102.591 77.92 102.591 73.744C102.591 69.544 99.6392 66.88 95.3432 66.88C91.0232 66.88 88.0952 69.568 88.0952 73.744ZM92.1272 73.744C92.1272 71.68 93.4232 70.552 95.3432 70.552C97.2632 70.552 98.5592 71.68 98.5592 73.744C98.5592 75.784 97.2632 76.936 95.3432 76.936C93.4232 76.936 92.1272 75.784 92.1272 73.744ZM103.863 87.16C104.799 87.328 107.151 87.328 107.871 87.16C108.039 85.984 108.039 68.032 107.871 66.832C107.055 66.688 104.703 66.688 103.863 66.832C103.719 68.032 103.719 86.008 103.863 87.16ZM113.182 71.536C114.526 71.608 124.39 71.608 125.854 71.536C125.998 70.936 125.998 68.584 125.854 68.128C125.326 68.104 123.67 68.08 121.75 68.08C121.75 67.48 121.726 66.88 121.678 66.304C120.862 66.184 118.462 66.184 117.622 66.304C117.574 66.88 117.574 67.48 117.574 68.08C115.486 68.08 113.71 68.104 113.182 68.128C113.014 68.656 113.014 71.008 113.182 71.536ZM113.374 76.408C113.374 79.144 115.39 80.728 119.662 80.728C123.934 80.728 125.95 79.144 125.95 76.408C125.95 73.672 123.934 72.088 119.662 72.088C115.39 72.088 113.374 73.672 113.374 76.408ZM114.262 87.136C115.99 87.232 129.334 87.232 130.966 87.136C131.11 86.344 131.11 84.184 130.966 83.368C129.91 83.32 119.446 83.32 118.342 83.368C118.39 82.72 118.366 82.072 118.342 81.28C117.502 81.136 115.078 81.136 114.262 81.28C114.142 82.72 114.166 85.504 114.262 87.136ZM116.998 76.408C116.998 75.688 117.814 75.136 119.662 75.136C121.51 75.136 122.326 75.688 122.326 76.408C122.326 77.128 121.51 77.68 119.662 77.68C117.814 77.68 116.998 77.128 116.998 76.408ZM126.742 81.856C127.678 81.952 130.03 81.952 130.726 81.856C130.774 81.424 130.822 79.576 130.846 77.296C131.686 77.296 132.502 77.248 132.91 77.2C132.982 76.672 132.982 74.128 132.91 73.624C132.502 73.576 131.686 73.528 130.846 73.528C130.846 70.36 130.798 67.384 130.726 66.832C129.91 66.688 127.558 66.688 126.742 66.832C126.646 68.032 126.646 80.68 126.742 81.856Z" fill="white"/>
<path d="M133.601 48.248C135.185 48.344 143.465 48.344 144.857 48.248C144.953 47.432 144.953 45.272 144.857 44.672C143.825 44.624 138.905 44.624 137.729 44.672C137.657 43.832 137.657 42.296 137.729 41.672C138.521 41.696 142.865 41.696 143.969 41.672C144.041 40.832 144.041 38.768 143.969 38.144C142.337 38.048 134.753 38.048 133.601 38.144C133.433 40.28 133.433 46.112 133.601 48.248ZM134.129 58.4C135.281 58.52 149.201 58.52 150.353 58.4C150.521 57.248 150.521 50.768 150.353 49.592C149.081 49.448 135.401 49.448 134.129 49.592C133.961 50.768 133.961 57.248 134.129 58.4ZM138.161 55.04C138.113 54.272 138.113 53.72 138.161 52.976C139.025 52.904 145.433 52.928 146.345 52.976C146.393 53.72 146.393 54.272 146.345 55.04C145.457 55.112 139.049 55.112 138.161 55.04ZM146.393 48.752C147.329 48.848 149.657 48.848 150.353 48.752C150.425 48.32 150.449 46.928 150.473 45.296C151.313 45.296 152.129 45.248 152.537 45.2C152.657 44.696 152.657 42.152 152.537 41.624C152.129 41.576 151.313 41.528 150.473 41.528C150.449 39.776 150.425 38.288 150.353 37.832C149.537 37.688 147.209 37.688 146.393 37.832C146.273 39.032 146.273 47.576 146.393 48.752ZM133.235 71.224C133.835 71.272 134.435 71.248 135.059 71.224C135.011 72.832 135.011 84.808 135.059 86.416C136.043 86.488 138.155 86.488 139.115 86.416C139.235 85.432 139.235 68.368 139.115 67.384C137.915 67.264 134.195 67.264 133.235 67.384C133.139 68.08 133.139 70.528 133.235 71.224ZM140.051 71.224C140.651 71.272 141.371 71.248 142.139 71.224C142.091 72.832 142.091 84.808 142.139 86.416C143.123 86.488 145.235 86.488 146.195 86.416C146.315 85.432 146.315 68.368 146.195 67.384C144.995 67.264 141.011 67.264 140.051 67.384C139.955 68.08 139.955 70.528 140.051 71.224ZM147.899 87.16C148.835 87.328 151.187 87.328 151.883 87.16C152.051 85.984 152.051 68.032 151.883 66.832C151.067 66.688 148.715 66.688 147.899 66.832C147.755 68.032 147.755 85.984 147.899 87.16Z" fill="#FFCD00"/>
<path d="M54.9454 6C54.9454 7.568 55.7134 8.688 57.0894 9.664C58.6894 10.8 58.1934 12.528 56.4654 12.576C55.8254 12.592 55.4254 12.576 55.0414 12.608C54.9614 13.408 54.9614 14.192 55.0414 15.088C55.5534 15.152 56.3694 15.152 57.1534 15.104C59.6334 14.944 60.8174 13.472 60.8174 11.84C60.8174 9.648 60.3214 8.576 58.3854 7.184C57.3134 6.416 57.6814 5.088 59.0414 5.008C59.4894 4.992 59.7294 4.992 60.0494 4.992C60.1294 4.176 60.1294 3.408 60.0494 2.512C59.6334 2.448 59.2654 2.448 58.6414 2.496C56.1774 2.672 54.9454 4.176 54.9454 6ZM61.8938 15.088C63.3018 15.184 67.1258 15.2 68.2298 15.088C68.2938 14.32 68.2938 13.136 68.2298 12.512C67.6538 12.496 65.3018 12.48 64.6778 12.512C64.6778 7.936 64.6778 2.96 64.6298 2.512C64.1498 2.4 62.5178 2.4 61.8938 2.512C61.7978 3.392 61.8138 13.872 61.8938 15.088ZM68.4164 8.8C68.4164 12.976 71.2324 15.296 74.7524 15.296C78.2724 15.296 81.0884 12.976 81.0884 8.8C81.0884 4.624 78.2724 2.304 74.7524 2.304C71.2324 2.304 68.4164 4.624 68.4164 8.8ZM71.2804 8.8C71.2804 6.448 72.4484 4.912 74.7524 4.912C77.0564 4.912 78.2244 6.448 78.2244 8.8C78.2244 11.152 77.0564 12.688 74.7524 12.688C72.4484 12.688 71.2804 11.152 71.2804 8.8ZM81.8695 8.8C81.8695 13.376 84.8295 15.312 89.1175 15.168C89.6295 15.152 90.1575 15.12 90.4455 15.056C90.5415 14.176 90.5255 8.176 90.4455 7.12C89.0855 7.024 87.1975 7.04 86.5735 7.136C86.5415 7.648 86.5415 9.184 86.5735 9.536C87.1495 9.552 87.5815 9.568 87.8855 9.536V12.576C85.7895 12.352 84.6375 10.992 84.6375 8.8C84.6375 6.208 86.2535 4.8 89.1975 5.04C89.2775 4.4 89.2775 3.008 89.1975 2.4C84.8295 2.176 81.8695 4.224 81.8695 8.8ZM91.3315 14.528C91.8275 14.784 93.2355 15.2 94.0035 15.248C94.1635 14.864 94.5795 13.728 95.0595 12.336C96.4515 12.352 98.5315 12.352 99.9555 12.336C100.436 13.728 100.852 14.864 101.012 15.248C101.78 15.2 103.188 14.784 103.684 14.528C103.236 13.072 100.164 4.464 99.3315 2.512C98.3395 2.368 96.7075 2.368 95.6835 2.512C94.8515 4.464 91.7795 13.072 91.3315 14.528ZM95.9395 9.824C96.5315 8.08 97.1395 6.336 97.5075 5.28C97.8755 6.336 98.4835 8.08 99.0755 9.824H95.9395ZM104.628 15.088C105.252 15.2 106.868 15.2 107.364 15.088C107.396 14.608 107.428 10.624 107.412 7.296C108.644 9.84 110.388 13.232 111.412 15.104C111.972 15.2 114.036 15.2 114.596 15.104C114.692 14.304 114.692 3.312 114.596 2.528C113.972 2.416 112.356 2.416 111.86 2.528C111.828 3.008 111.828 7.008 111.828 10.336C110.596 7.792 108.852 4.4 107.812 2.512C107.252 2.416 105.188 2.416 104.628 2.512C104.532 3.312 104.532 14.304 104.628 15.088Z" fill="#FFCD00"/>
</svg>
