<svg width="59" height="13" viewBox="0 0 59 13" fill="none" xmlns="http://www.w3.org/2000/svg">
<g clip-path="url(#clip0_667_776)">
<path d="M3.64931 0.187154C4.08733 0.143345 4.52855 0.143345 4.96657 0.187154C5.04571 1.01273 5.04571 1.84412 4.96657 2.6697H3.97862C3.71204 2.63999 3.44361 2.70597 3.22008 2.85613C2.99655 3.00629 2.83207 3.23113 2.75529 3.49151C2.67851 3.75188 2.69429 4.03129 2.79988 4.28109C2.90547 4.5309 3.09418 4.73526 3.33316 4.85861C4.13706 5.31412 4.79218 5.99759 5.21807 6.82508C5.64396 7.65258 5.82208 8.58809 5.73057 9.51673C5.73057 11.1451 4.55821 12.6132 2.10811 12.7734C1.41568 12.8349 0.719279 12.8349 0.0268493 12.7734C-0.0522894 11.9478 -0.0522894 11.1164 0.0268493 10.2908C0.408854 10.2908 0.804031 10.2908 1.43632 10.2908C3.13558 10.2908 3.63614 8.5157 2.05543 7.36785C1.41907 6.99722 0.888883 6.46512 0.517032 5.8239C0.145181 5.18268 -0.0555287 4.45442 -0.0653584 3.71077C-0.068425 3.22653 0.0274162 2.74689 0.216149 2.30201C0.404882 1.85712 0.682417 1.45662 1.0313 1.12567C1.38019 0.794728 1.79289 0.540507 2.24344 0.378991C2.69399 0.217475 3.17264 0.152161 3.64931 0.187154Z" fill="#FFCD00"/>
<path d="M6.86319 0.200367C7.73848 0.0985755 8.6224 0.0985755 9.4977 0.200367C9.4977 0.654166 9.4977 5.63261 9.4977 10.2106C10.1168 10.2106 12.4352 10.2106 13.0148 10.2106C13.0676 11.0685 13.0676 11.9288 13.0148 12.7866C11.9215 12.8934 8.14093 12.88 6.75781 12.7866C6.78416 11.572 6.7578 1.08127 6.86319 0.200367Z" fill="#FFCD00"/>
<path d="M19.5619 -0.000594416C20.4171 -0.0531727 21.2734 0.0810571 22.073 0.393003C22.8726 0.704949 23.5966 1.18733 24.1962 1.80748C24.7957 2.42764 25.2568 3.17108 25.5481 3.98748C25.8394 4.80389 25.9542 5.67418 25.8847 6.53945C25.8847 8.22088 25.2255 9.83344 24.0521 11.0224C22.8787 12.2113 21.2872 12.8793 19.6277 12.8793C17.9683 12.8793 16.3768 12.2113 15.2034 11.0224C14.03 9.83344 13.3707 8.22088 13.3707 6.53945C13.3031 5.68594 13.4148 4.8276 13.6984 4.021C13.982 3.21439 14.431 2.47785 15.016 1.85991C15.601 1.24196 16.3086 0.756649 17.0921 0.43596C17.8757 0.115271 18.7174 -0.0335176 19.5619 -0.000594416ZM19.5619 10.3834C21.8407 10.3834 22.9867 8.84848 22.9867 6.49941C22.9867 4.15033 21.8407 2.60208 19.5619 2.60208C17.283 2.60208 16.137 4.13699 16.137 6.49941C16.137 8.86183 17.283 10.3834 19.5619 10.3834Z" fill="#FFCD00"/>
<path d="M33.7874 0.0939423C33.868 0.981867 33.868 1.87542 33.7874 2.76335C30.8762 2.5231 29.2823 3.92454 29.2823 6.52721C29.2333 6.99097 29.2785 7.46 29.4152 7.90539C29.5518 8.35078 29.777 8.7631 30.0769 9.11697C30.3768 9.47083 30.745 9.75874 31.1588 9.96296C31.5727 10.1672 32.0234 10.2834 32.4833 10.3044V7.2346C32.1935 7.2346 31.7588 7.2346 31.166 7.2346C31.166 6.87423 31.166 5.33933 31.166 4.83214C32.4376 4.73552 33.7145 4.73552 34.9861 4.83214C35.0651 5.88655 35.0783 11.8927 34.9861 12.7736C34.5499 12.8392 34.1098 12.8749 33.6688 12.8804C29.4272 13.0272 26.5029 11.0919 26.5029 6.51386C26.5029 1.93583 29.5194 -0.132957 33.7874 0.0939423Z" fill="#FFCD00"/>
<path d="M40.242 0.200681C41.4371 0.0672211 42.643 0.0672211 43.8381 0.200681C44.668 2.16269 47.6977 10.7715 48.1456 12.213C47.3054 12.5781 46.4184 12.8207 45.5111 12.9337C45.353 12.5467 44.9446 11.4122 44.4704 10.0241H39.6361C39.1619 11.3588 38.7535 12.5467 38.5955 12.9337C37.6875 12.8238 36.8001 12.581 35.9609 12.213C36.422 10.7715 39.4122 2.16269 40.242 0.200681ZM43.5879 7.51485C43.0083 5.77974 42.4023 4.03128 42.0467 2.97686C41.6778 4.03128 41.0719 5.77974 40.4923 7.51485H43.5879Z" fill="#FFCD00"/>
<path d="M49.0811 0.199937C50.1285 0.106532 51.182 0.106532 52.2294 0.199937C53.2437 2.09521 54.9693 5.53875 56.1811 8.03464C56.1811 4.69789 56.1811 0.707124 56.1811 0.226631C57.0774 0.106412 57.9853 0.106412 58.8815 0.226631C58.9737 1.00076 58.9737 11.9987 58.8815 12.7995C57.8341 12.8929 56.7807 12.8929 55.7333 12.7995C54.7322 10.9309 53.0066 7.5408 51.7815 4.99152C51.7815 8.31493 51.7815 12.3057 51.7815 12.7862C50.9062 12.888 50.0223 12.888 49.147 12.7862C48.9889 11.9987 48.9889 1.00076 49.0811 0.199937Z" fill="#FFCD00"/>
</g>
<defs>
<clipPath id="clip0_667_776">
<rect width="59" height="13" fill="white"/>
</clipPath>
</defs>
</svg>
