<svg width="63" height="13" viewBox="0 0 63 13" fill="none" xmlns="http://www.w3.org/2000/svg">
<g clip-path="url(#clip0_665_731)">
<path d="M4.07207 0.241433C4.5829 0.185147 5.09925 0.185147 5.61008 0.241433C5.69799 1.07213 5.69799 1.90867 5.61008 2.73937H4.5115C4.21907 2.71338 3.92582 2.78084 3.6814 2.93032C3.43698 3.0798 3.2564 3.30213 3.17024 3.55966C3.08407 3.81719 3.09764 4.09411 3.20859 4.34354C3.31955 4.59297 3.52109 4.79959 3.77912 4.92841C4.67448 5.3862 5.4049 6.07334 5.88098 6.90577C6.35705 7.7382 6.55814 8.67982 6.45966 9.6154C6.45966 11.2538 5.15601 12.7445 2.43152 12.8923C1.66157 12.9545 0.887133 12.9545 0.117176 12.8923C0.0291747 12.0616 0.0291747 11.225 0.117176 10.3943C0.527313 10.3943 0.966742 10.3943 1.66983 10.3943C3.57404 10.3943 4.11601 8.60817 2.35828 7.46664C1.64871 7.09119 1.05724 6.55371 0.641412 5.90652C0.225582 5.25934 -0.000436895 4.52448 -0.0146484 3.77346C-0.0146484 1.9873 1.36223 0.429449 4.07207 0.241433Z" fill="#FFCD00"/>
<path d="M9.12489 0C9.52038 0.53719 11.2488 3.3843 12.1863 4.88843C13.1091 3.3843 14.8522 0.53719 15.2476 0C16.2241 0.266246 17.1557 0.654908 18.0161 1.15496C17.6792 1.79959 14.94 6.01653 13.7536 7.70868C13.7536 9.33368 13.7536 12.3017 13.7536 12.9194C12.7325 13.0404 11.6986 13.0404 10.6775 12.9194C10.5897 12.3017 10.6043 9.29339 10.6775 7.66839C9.47643 5.97624 6.75194 1.79959 6.42969 1.15496C7.26443 0.655776 8.17177 0.266963 9.12489 0V0Z" fill="#FFCD00"/>
<path d="M22.3963 0.241375C22.912 0.185167 23.4332 0.185167 23.949 0.241375C24.0369 1.07207 24.0369 1.90862 23.949 2.73931H22.8357C22.5447 2.71717 22.2542 2.78733 22.0129 2.93805C21.7716 3.08878 21.594 3.31093 21.5099 3.56733C21.4259 3.82373 21.4404 4.09882 21.5511 4.34657C21.6618 4.59433 21.8619 4.79971 22.118 4.92836C23.0119 5.38669 23.7404 6.07439 24.214 6.90702C24.6876 7.73964 24.8856 8.68095 24.7839 9.61534C24.7839 11.2538 23.4802 12.7445 20.7704 12.8922C19.9955 12.954 19.2163 12.954 18.4414 12.8922C18.3534 12.0615 18.3534 11.225 18.4414 10.3943C18.8662 10.3943 19.3056 10.3943 20.0087 10.3943C21.8983 10.3943 22.4549 8.60811 20.6972 7.46658C19.9903 7.08945 19.4018 6.55125 18.9886 5.90418C18.5754 5.2571 18.3516 4.52312 18.3389 3.7734C18.3389 1.98724 19.6865 0.429392 22.3963 0.241375Z" fill="#FFCD00"/>
<path d="M24.9605 0.268555C25.81 0.268555 33.2804 0.268555 34.3497 0.268555C34.4376 1.13514 34.4376 2.00734 34.3497 2.87392H31.2151C31.2151 5.55987 31.2151 12.2747 31.2151 12.8925C30.194 13.0135 29.1601 13.0135 28.139 12.8925C28.139 12.3016 28.0511 5.61359 28.139 2.87392H25.0191C24.8972 2.00994 24.8775 1.13641 24.9605 0.268555V0.268555Z" fill="#FFCD00"/>
<path d="M35.5057 0.241348C37.0584 0.14734 41.4674 0.160769 42.6831 0.241348C42.6831 0.751678 42.6831 2.45725 42.6831 2.81986C42.0533 2.81986 39.2409 2.81986 38.5525 2.81986V5.08949C40.1491 5.08949 42.1411 5.08949 42.4341 5.08949C42.5074 5.95665 42.5074 6.8277 42.4341 7.69486C41.98 7.69486 39.9733 7.69486 38.5525 7.69486V10.1928C39.2409 10.1928 42.273 10.1928 42.9468 10.1928C43.0084 11.0872 43.0084 11.9843 42.9468 12.8787C41.9654 12.9593 36.868 12.9593 35.5497 12.8787C35.4032 11.3075 35.4032 1.85292 35.5057 0.241348Z" fill="#FFCD00"/>
<path d="M44.2658 0.268112C45.4591 0.160629 46.6611 0.160629 47.8545 0.268112C49.0409 2.14828 52.6443 8.0708 53.5964 9.88381C54.5485 8.0708 58.1519 2.14828 59.3383 0.268112C60.5317 0.160629 61.7337 0.160629 62.927 0.268112C63.0296 1.0739 63.0296 12.14 62.927 12.9189C61.9547 13.0365 60.9698 13.0365 59.9975 12.9189C59.9975 12.4355 59.9975 8.2051 59.9975 4.75365C58.3569 7.74848 55.9107 11.9386 55.5006 12.6772C54.2844 12.8116 53.0549 12.8116 51.8387 12.6772C51.4139 11.952 48.9824 7.77534 47.3565 4.76708C47.3565 8.21852 47.3565 12.4355 47.3565 12.9189C46.3842 13.0365 45.3992 13.0365 44.4269 12.9189C44.1633 12.14 44.1633 1.0739 44.2658 0.268112Z" fill="#FFCD00"/>
</g>
<defs>
<clipPath id="clip0_665_731">
<rect width="63" height="13" fill="white"/>
</clipPath>
</defs>
</svg>
