<svg width="52" height="14" viewBox="0 0 52 14" fill="none" xmlns="http://www.w3.org/2000/svg">
<path d="M0.81625 1.024C1.21625 2.336 4.28825 11.792 4.84825 13.088C5.90425 13.216 7.15225 13.216 8.17625 13.088C8.51225 12.288 9.64825 8.352 10.7043 5.2C11.7443 8.352 12.8803 12.288 13.2163 13.088C14.2403 13.216 15.4883 13.216 16.5443 13.088C17.1042 11.792 20.1763 2.336 20.5763 1.024C19.9043 0.655999 18.5283 0.4 17.8083 0.351999C17.4243 1.28 15.7443 7.232 14.8803 9.76C14.0163 7.152 12.3363 1.52 12.0163 0.639999C11.3763 0.559999 10.0163 0.559999 9.37625 0.639999C9.05625 1.52 7.37625 7.152 6.51225 9.76C5.64825 7.232 3.96825 1.28 3.58425 0.351999C2.86425 0.4 1.48825 0.655999 0.81625 1.024ZM21.5344 13.088C22.1584 13.2 23.7904 13.2 24.2704 13.088C24.3024 12.736 24.3184 10.384 24.3344 7.808C25.3264 7.824 26.7024 7.824 27.7264 7.808C27.7424 10.384 27.7584 12.736 27.7904 13.088C28.4144 13.2 30.0464 13.2 30.5264 13.088C30.6224 12.304 30.6224 1.312 30.5264 0.511999C29.9824 0.415999 28.3504 0.415999 27.7904 0.511999C27.7584 0.832 27.7424 2.864 27.7264 5.184H24.3344C24.3184 2.864 24.3024 0.832 24.2704 0.511999C23.7264 0.415999 22.0944 0.415999 21.5344 0.511999C21.4384 1.312 21.4384 12.304 21.5344 13.088ZM31.4721 12.528C31.9681 12.784 33.3761 13.2 34.1441 13.248C34.3041 12.864 34.7201 11.728 35.2001 10.336C36.5921 10.352 38.6721 10.352 40.0961 10.336C40.5761 11.728 40.9921 12.864 41.1521 13.248C41.9201 13.2 43.3281 12.784 43.8241 12.528C43.3761 11.072 40.3041 2.464 39.4721 0.511999C38.4801 0.367999 36.8481 0.367999 35.8241 0.511999C34.9921 2.464 31.9201 11.072 31.4721 12.528ZM36.0801 7.824C36.6721 6.08 37.2801 4.336 37.6481 3.28C38.0161 4.336 38.6241 6.08 39.2161 7.824H36.0801ZM42.5373 3.104C42.8413 3.12 43.9933 3.136 45.3693 3.136C45.3213 5.856 45.3373 12.496 45.4013 13.088C46.0253 13.2 47.7213 13.2 48.2013 13.088C48.2653 12.496 48.2813 5.856 48.2333 3.136C49.5773 3.136 50.7292 3.12 51.0813 3.104C51.1613 2.704 51.1613 0.815999 51.0813 0.511999C50.1053 0.464 43.3053 0.464 42.5373 0.511999C42.4413 0.863999 42.4413 2.768 42.5373 3.104Z" fill="#FFCD00"/>
</svg>
