<svg width="42" height="14" viewBox="0 0 42 14" fill="none" xmlns="http://www.w3.org/2000/svg">
<path d="M0.402188 1.024C0.802188 2.336 3.87419 11.792 4.43419 13.088C5.49019 13.216 6.73819 13.216 7.76219 13.088C8.09819 12.288 9.23419 8.352 10.2902 5.2C11.3302 8.352 12.4662 12.288 12.8022 13.088C13.8262 13.216 15.0742 13.216 16.1302 13.088C16.6902 11.792 19.7622 2.336 20.1622 1.024C19.4902 0.655999 18.1142 0.4 17.3942 0.351999C17.0102 1.28 15.3302 7.232 14.4662 9.76C13.6022 7.152 11.9222 1.52 11.6022 0.639999C10.9622 0.559999 9.60219 0.559999 8.96219 0.639999C8.64219 1.52 6.96219 7.152 6.09819 9.76C5.23419 7.232 3.55419 1.28 3.17019 0.351999C2.45019 0.4 1.07419 0.655999 0.402188 1.024ZM21.1203 13.088C21.7443 13.2 23.3763 13.2 23.8563 13.088C23.8883 12.736 23.9043 10.384 23.9203 7.808C24.9123 7.824 26.2883 7.824 27.3123 7.808C27.3283 10.384 27.3443 12.736 27.3763 13.088C28.0003 13.2 29.6323 13.2 30.1123 13.088C30.2083 12.304 30.2083 1.312 30.1123 0.511999C29.5683 0.415999 27.9363 0.415999 27.3763 0.511999C27.3443 0.832 27.3283 2.864 27.3123 5.184H23.9203C23.9043 2.864 23.8883 0.832 23.8563 0.511999C23.3123 0.415999 21.6803 0.415999 21.1203 0.511999C21.0243 1.312 21.0243 12.304 21.1203 13.088ZM31.0261 1.392C31.3301 2.032 33.8101 6.192 34.8981 7.872C34.8661 9.488 34.8501 12.464 34.9301 13.088C35.5861 13.2 37.2341 13.2 37.7301 13.088C37.8101 12.464 37.7941 9.52 37.7621 7.904C38.8501 6.224 41.3461 2.032 41.6501 1.392C41.1861 1.04 39.7461 0.4 39.1221 0.256C38.7701 0.783999 37.1861 3.616 36.3381 5.104C35.4901 3.616 33.9061 0.783999 33.5541 0.256C32.9301 0.4 31.4901 1.04 31.0261 1.392Z" fill="#FFCD00"/>
</svg>
