<svg width="290" height="106" viewBox="0 0 290 106" fill="none" xmlns="http://www.w3.org/2000/svg">
<path d="M1.02844 34.32C3.66844 34.48 15.8684 34.48 18.1884 34.32C18.3884 32.88 18.3484 29.08 18.1884 28C16.4684 27.92 9.90844 27.92 7.94844 28C7.82844 26.56 7.82844 9.88 7.94844 8.8C9.26844 8.84 14.8684 8.84 16.7084 8.8C16.8684 7.32 16.8684 3.68 16.7084 2.56C13.9884 2.4 2.94844 2.4 1.02844 2.56C0.748438 6.32 0.748438 30.56 1.02844 34.32ZM20.7484 35.6C22.3084 35.88 26.2284 35.88 27.3884 35.6C27.5084 34.72 27.5884 28.2 27.5884 21.12C28.9884 21.12 30.3484 21.08 31.0284 21C31.2284 20.12 31.2284 15.6 31.0284 14.72C30.3484 14.64 28.9884 14.56 27.5884 14.56C27.5884 8.16 27.5084 2.56 27.3884 1.72C26.0284 1.48 22.1084 1.48 20.7484 1.72C20.5084 3.72 20.5084 33.64 20.7484 35.6ZM32.2188 34.72C34.1388 34.84 52.4988 34.84 54.8188 34.72C55.0588 33.28 55.0188 30.16 54.8188 28.56C53.9388 28.48 50.7788 28.44 47.0988 28.44V26.48C51.4588 25.56 54.0988 22.8 54.0988 18.92C54.0988 14.04 50.0588 11 43.6188 11C37.1788 11 33.1388 14.04 33.1388 18.92C33.1388 22.8 35.7788 25.56 40.1388 26.48V28.44C36.2588 28.44 32.9788 28.48 32.2188 28.56C31.9788 30.08 31.9788 33.16 32.2188 34.72ZM32.6588 10.04C34.8988 10.16 52.1388 10.16 54.5788 10.04C54.8188 9 54.8188 4.92 54.5788 4.12C53.6588 4.08 50.6188 4.04 47.0988 4.04C47.0988 3 47.0588 1.96 46.9788 0.959999C45.6188 0.759999 41.6188 0.759999 40.2188 0.959999C40.1388 1.96 40.1388 3 40.1388 4.04C36.5788 4.04 33.4988 4.08 32.6588 4.12C32.3788 5.04 32.3788 9.12 32.6588 10.04ZM39.3788 18.92C39.3788 17.24 41.0188 16.2 43.6188 16.2C46.1788 16.2 47.8188 17.24 47.8188 18.92C47.8188 20.56 46.1788 21.6 43.6188 21.6C41.0188 21.6 39.3788 20.56 39.3788 18.92ZM56.4188 35.6C57.9788 35.88 61.8988 35.88 63.0588 35.6C63.3388 33.64 63.3388 3.72 63.0588 1.72C61.6988 1.48 57.7788 1.48 56.4188 1.72C56.1788 3.72 56.1788 33.64 56.4188 35.6ZM65.8906 22.68C67.9306 22.76 91.1306 22.76 93.6106 22.68C93.8106 20.96 93.7706 18.68 93.6106 16.6C93.0506 16.56 91.4506 16.56 89.2506 16.52V13.44C91.9306 12.24 92.9706 10.32 92.9706 8C92.9706 3.88 89.6106 1.04 79.7706 1.04C69.9306 1.04 66.5706 3.88 66.5706 8C66.5706 10.32 67.6106 12.2 70.2506 13.44V16.52C68.0106 16.56 66.3706 16.56 65.8906 16.6C65.6906 18.64 65.6906 20.88 65.8906 22.68ZM66.1306 30.4C66.1306 34.64 69.7306 37.08 79.7306 37.08C89.7306 37.08 93.3306 34.64 93.3306 30.4C93.3306 26.16 89.7306 23.72 79.7306 23.72C69.7306 23.72 66.1306 26.16 66.1306 30.4ZM73.0106 30.4C73.0106 29.6 74.0906 29 79.7306 29C85.3706 29 86.4506 29.6 86.4506 30.4C86.4506 31.2 85.3706 31.8 79.7306 31.8C74.0906 31.8 73.0106 31.2 73.0106 30.4ZM73.7306 8C73.7306 7.16 74.6106 6.48 79.7706 6.48C84.9306 6.48 85.8106 7.16 85.8106 8C85.8106 8.84 84.9306 9.52 79.7706 9.52C74.6106 9.52 73.7306 8.84 73.7306 8ZM76.8106 16.52V14.88C77.7306 14.92 78.7306 14.96 79.7706 14.96C80.8106 14.96 81.7706 14.92 82.6906 14.88V16.52H76.8106ZM95.4581 9.16C97.2981 9.28 100.618 9.24 102.898 9.16C102.818 11.12 102.818 32.44 102.898 34.32C104.498 34.52 108.058 34.52 109.658 34.32C109.858 32.28 109.858 5.08 109.658 2.64C107.658 2.44 97.4581 2.44 95.4581 2.64C95.2581 3.8 95.2581 8 95.4581 9.16ZM112.578 35.6C114.138 35.88 118.058 35.88 119.218 35.6C119.498 33.64 119.498 3.72 119.218 1.72C117.858 1.48 113.938 1.48 112.578 1.72C112.338 3.72 112.338 33.64 112.578 35.6ZM128.859 22.52C129.739 22.56 134.139 22.6 138.899 22.6C138.899 23.96 138.899 25.52 138.979 27C140.419 27.2 144.379 27.2 145.739 27C145.819 25.52 145.819 23.92 145.819 22.6C148.899 22.6 151.379 22.56 152.139 22.52C152.339 20.28 152.379 18.08 152.139 16.16C149.779 16.04 130.779 16.04 128.859 16.16C128.619 18.16 128.619 20.32 128.859 22.52ZM129.019 10.84C129.939 11.96 132.699 14.44 134.059 15.28C135.739 13.6 139.139 9.6 140.499 7.92C141.859 9.6 145.259 13.6 146.939 15.28C148.299 14.44 151.059 11.96 151.979 10.84C150.699 9.2 146.179 4.16 143.659 1.76C141.899 1.56 139.099 1.56 137.339 1.76C134.819 4.16 130.299 9.2 129.019 10.84ZM129.499 35.92C131.499 36.08 149.699 36.08 151.699 35.92C151.859 34.76 151.859 30.88 151.699 29.76C149.899 29.68 139.739 29.68 136.299 29.76C136.379 28.4 136.379 26.32 136.299 24.96C134.659 24.8 131.139 24.8 129.499 24.96C129.219 26.64 129.219 34.24 129.499 35.92ZM154.133 27.16C156.053 27.28 174.853 27.32 177.253 27.16C177.413 25.8 177.453 23.2 177.253 21.72C176.333 21.68 173.013 21.64 169.173 21.64V20.68C174.093 20 176.413 17.92 176.413 14.96C176.413 11.36 172.973 9.08 165.613 9.08C158.253 9.08 154.813 11.36 154.813 14.96C154.813 17.92 157.133 20.04 162.093 20.68V21.6C158.173 21.64 154.893 21.64 154.133 21.72C153.893 23.12 153.893 25.76 154.133 27.16ZM154.493 8.28C157.213 8.36 174.053 8.36 176.533 8.28C176.813 7.4 176.813 3.56 176.533 2.64C175.613 2.56 172.613 2.56 169.133 2.52C169.133 1.8 169.093 1.08 169.013 0.439999C167.613 0.239999 163.613 0.239999 162.253 0.439999C162.173 1.08 162.133 1.8 162.133 2.52C158.573 2.56 155.533 2.56 154.493 2.64C154.213 3.68 154.213 7.52 154.493 8.28ZM155.933 36.4C158.813 36.56 183.053 36.56 185.773 36.4C186.013 35.12 186.013 31.88 185.773 30.56C184.013 30.48 164.693 30.48 162.853 30.56C162.933 29.92 162.933 29.16 162.853 28.32C161.453 28.16 157.293 28.16 155.933 28.32C155.733 30.44 155.773 33.8 155.933 36.4ZM161.293 14.96C161.293 14.32 162.333 13.92 165.613 13.92C168.893 13.92 169.933 14.32 169.933 14.96C169.933 15.6 168.893 16.04 165.613 16.04C162.333 16.04 161.293 15.6 161.293 14.96ZM178.733 28.6C180.293 28.76 184.213 28.76 185.373 28.6C185.493 27.72 185.573 22.88 185.573 17.52C186.973 17.52 188.333 17.44 189.013 17.36C189.213 16.52 189.213 12.28 189.013 11.4C188.333 11.32 186.973 11.24 185.573 11.24C185.533 6.52 185.493 2.52 185.373 1.72C184.013 1.48 180.093 1.48 178.733 1.72C178.573 3.72 178.573 26.64 178.733 28.6ZM196.183 32.56C197.343 33.24 201.143 34.4 202.623 34.52C203.103 33.44 205.783 23.6 208.063 14.4C210.423 23.36 213.103 33.16 213.583 34.2C215.183 34.04 218.943 32.8 220.023 32.16C219.623 30.36 213.023 8.2 211.183 2.68C209.903 2.48 206.023 2.48 204.743 2.68C202.903 8.28 196.423 30.8 196.183 32.56ZM217.543 17.6C218.583 17.72 221.823 17.76 224.263 17.72C224.223 26 224.303 34.6 224.423 35.6C225.983 35.88 229.903 35.88 231.063 35.6C231.343 33.64 231.343 3.72 231.063 1.72C229.703 1.48 225.783 1.48 224.423 1.72C224.343 2.4 224.303 6.36 224.263 11.36C221.823 11.32 218.583 11.36 217.543 11.48C217.343 12.36 217.343 16.72 217.543 17.6ZM234.738 34.44C237.018 34.68 249.578 34.64 251.498 34.44C251.658 31.84 251.658 6.08 251.498 2.48C250.218 2.28 246.418 2.28 244.978 2.48C244.938 3.8 244.938 7.04 244.938 10.8C243.818 10.8 242.458 10.8 241.338 10.84C241.338 7.08 241.338 3.8 241.298 2.48C239.938 2.28 235.898 2.28 234.738 2.48C234.538 6.12 234.498 31.12 234.738 34.44ZM241.298 28.36C241.298 27.84 241.338 22.68 241.338 17C242.458 17.04 243.818 17 244.938 17C244.938 22.64 244.978 27.84 244.978 28.36C244.098 28.44 242.178 28.44 241.298 28.36ZM254.098 35.6C255.658 35.88 259.578 35.88 260.738 35.6C261.018 33.64 261.018 3.72 260.738 1.72C259.378 1.48 255.458 1.48 254.098 1.72C253.858 3.72 253.858 33.64 254.098 35.6ZM263.626 35.52C265.266 35.68 286.786 35.68 288.786 35.52C289.106 34.08 289.066 30.96 288.786 29.36C286.786 29.2 265.266 29.16 263.626 29.36C263.346 30.88 263.346 33.96 263.626 35.52ZM263.746 23.2C264.586 24.12 268.466 25.52 270.026 25.84C270.866 24.2 275.546 13.16 276.226 11.24C276.866 13.16 281.586 24.2 282.426 25.84C283.946 25.52 287.866 24.12 288.666 23.2C286.786 18.28 280.826 5.28 279.066 1.88C277.906 1.76 274.506 1.76 273.346 1.88C271.586 5.28 265.626 18.28 263.746 23.2Z" fill="white"/>
<path d="M100.047 81.912C103.743 82.136 123.063 82.136 126.311 81.912C126.535 80.008 126.535 74.968 126.311 73.568C123.903 73.456 112.423 73.456 109.679 73.568C109.511 71.608 109.511 68.024 109.679 66.568C111.527 66.624 121.663 66.624 124.239 66.568C124.407 64.608 124.407 59.792 124.239 58.336C120.431 58.112 102.735 58.112 100.047 58.336C99.6554 63.32 99.6554 76.928 100.047 81.912ZM101.279 105.6C103.967 105.88 136.447 105.88 139.135 105.6C139.527 102.912 139.527 87.792 139.135 85.048C136.167 84.712 104.247 84.712 101.279 85.048C100.887 87.792 100.887 102.912 101.279 105.6ZM110.687 97.76C110.575 95.968 110.575 94.68 110.687 92.944C112.703 92.776 127.655 92.832 129.783 92.944C129.895 94.68 129.895 95.968 129.783 97.76C127.711 97.928 112.759 97.928 110.687 97.76ZM129.895 83.088C132.079 83.312 137.511 83.312 139.135 83.088C139.303 82.08 139.359 78.832 139.415 75.024C141.375 75.024 143.279 74.912 144.231 74.8C144.511 73.624 144.511 67.688 144.231 66.456C143.279 66.344 141.375 66.232 139.415 66.232C139.359 62.144 139.303 58.672 139.135 57.608C137.231 57.272 131.799 57.272 129.895 57.608C129.615 60.408 129.615 80.344 129.895 83.088ZM145.564 67.856C146.964 67.968 148.364 67.912 149.82 67.856C149.708 71.608 149.708 99.552 149.82 103.304C152.116 103.472 157.044 103.472 159.284 103.304C159.564 101.008 159.564 61.192 159.284 58.896C156.484 58.616 147.804 58.616 145.564 58.896C145.34 60.52 145.34 66.232 145.564 67.856ZM161.468 67.856C162.868 67.968 164.548 67.912 166.34 67.856C166.228 71.608 166.228 99.552 166.34 103.304C168.636 103.472 173.564 103.472 175.804 103.304C176.084 101.008 176.084 61.192 175.804 58.896C173.004 58.616 163.708 58.616 161.468 58.896C161.244 60.52 161.244 66.232 161.468 67.856ZM179.78 105.04C181.964 105.432 187.452 105.432 189.076 105.04C189.468 102.296 189.468 60.408 189.076 57.608C187.172 57.272 181.684 57.272 179.78 57.608C179.444 60.408 179.444 102.296 179.78 105.04Z" fill="#FFCD00"/>
</svg>
