<svg width="211" height="16" viewBox="0 0 211 16" fill="none" xmlns="http://www.w3.org/2000/svg">
<path d="M4.74832 0.559999H3.66032V12.896C3.03632 12.08 2.02832 11.024 1.03632 10.304L0.476315 11.264C1.88432 12.336 3.29232 13.936 4.20432 15.36C5.11632 13.936 6.52432 12.336 7.93232 11.264L7.37232 10.304C6.38032 11.024 5.37232 12.08 4.74832 12.896V0.559999ZM25.3723 8.048C22.8603 7.568 20.1403 5.392 20.1403 2.944V1.84H18.7643V2.944C18.7643 5.392 16.0603 7.552 13.5483 8.048L14.1403 9.136C16.3003 8.624 18.5403 7.088 19.4523 4.992C20.3643 7.104 22.6043 8.64 24.7803 9.136L25.3723 8.048ZM13.0043 12.176V13.264H26.0123V12.176H13.0043ZM28.8591 6.656L29.0511 7.744L37.7071 7.264C37.6271 8.368 37.4671 9.552 37.1631 10.928L38.4431 11.056C39.0671 8.112 39.0671 6.176 39.0671 4.048V2.288H29.2271V3.36H37.7871V4.048C37.7871 4.784 37.7871 5.52 37.7551 6.272L28.8591 6.656ZM27.6911 12.112V13.184H40.6671V12.112H27.6911ZM45.2258 12.736H53.7378V9.68H43.8978V10.624H52.4418V11.824H43.9298V15.024H54.1858V14.064H45.2258V12.736ZM49.5138 7.584V6.416H53.9458V5.472H45.3058V4.224H53.6898V1.232H43.9778V2.16H52.3938V3.328H44.0098V6.416H48.1858V7.584H42.3298V8.576H55.3538V7.584H49.5138ZM60.5686 10.768C59.4486 10.768 58.6646 9.856 58.6646 8.576C58.6646 7.328 59.4486 6.416 60.5686 6.416C61.6726 6.416 62.4726 7.328 62.4726 8.576C62.4726 9.856 61.6726 10.768 60.5686 10.768ZM60.5686 5.312C58.7926 5.312 57.4966 6.656 57.4966 8.576C57.4966 10.528 58.7926 11.856 60.5686 11.856C62.3446 11.856 63.6406 10.528 63.6406 8.576C63.6406 6.656 62.3446 5.312 60.5686 5.312ZM61.2086 1.248H59.9126V3.28H57.0006V4.352H64.1206V3.28H61.2086V1.248ZM67.9126 0.815999V6.88H66.0726V1.152H64.8406V14.48H66.0726V7.952H67.9126V15.168H69.1766V0.815999H67.9126ZM76.7113 2.064H75.3993V4.64C75.3993 7.296 73.7673 10.064 71.6873 11.104L72.4873 12.144C74.1033 11.28 75.4313 9.472 76.0553 7.344C76.7113 9.36 78.0233 11.072 79.6553 11.888L80.4233 10.848C78.3433 9.856 76.7113 7.248 76.7113 4.64V2.064ZM82.1993 0.832V5.696H78.8713V6.768H82.1993V15.2H83.5113V0.832H82.1993ZM98.1922 6.592C96.3202 6.96 94.6882 7.072 91.8562 7.072V2.848H96.8642V1.792H90.5442V8.16H91.6642C94.6722 8.16 96.3682 8.048 98.3362 7.648L98.1922 6.592ZM93.2962 10.768H99.7282V13.92H93.2962V10.768ZM92.0162 14.976H101.024V9.728H92.0162V14.976ZM103.152 4.336H101.024V0.815999H99.7122V8.96H101.024V5.424H103.152V4.336ZM105.071 2.384V3.472H107.727C107.567 6.352 106.655 8.976 104.559 11.152L105.599 11.92C108.159 9.184 108.991 5.808 108.991 2.384H105.071ZM109.455 2.384V3.472H111.743C111.615 6.48 110.927 9.632 108.767 12.176L109.855 12.896C112.431 9.792 112.975 5.808 112.975 2.384H109.455ZM115.007 0.832V15.184H116.335V0.832H115.007ZM135.128 8.048C132.616 7.568 129.896 5.392 129.896 2.944V1.84H128.52V2.944C128.52 5.392 125.816 7.552 123.304 8.048L123.896 9.136C126.056 8.624 128.296 7.088 129.208 4.992C130.12 7.104 132.36 8.64 134.536 9.136L135.128 8.048ZM122.76 12.176V13.264H135.768V12.176H122.76ZM144.583 12.32V9.36H148.967V8.288H140.423V6.128H148.503V5.088H140.423V3.072H148.823V2H139.095V9.36H143.271V12.32H137.415V13.408H150.455V12.32H144.583ZM154.245 7.296H159.541V2.16H152.885V3.232H158.213V6.224H152.933V11.728H154.117C156.581 11.728 158.757 11.632 161.349 11.2L161.221 10.128C158.709 10.528 156.597 10.64 154.245 10.64V7.296ZM162.565 0.815999V15.2H163.877V0.815999H162.565ZM173.134 5.488H180.462V8.128H173.134V5.488ZM177.454 12.272V9.184H181.742V1.856H180.462V4.416H173.134V1.856H171.838V9.184H176.126V12.272H170.302V13.344H183.31V12.272H177.454ZM185.821 2.384V3.44H191.213C190.941 6.848 189.021 9.6 185.165 11.44L185.869 12.512C190.637 10.176 192.541 6.528 192.541 2.384H185.821ZM195.437 0.832V15.184H196.749V0.832H195.437ZM207.34 0.559999H206.252V12.896C205.628 12.08 204.62 11.024 203.628 10.304L203.068 11.264C204.476 12.336 205.884 13.936 206.796 15.36C207.708 13.936 209.116 12.336 210.524 11.264L209.964 10.304C208.972 11.024 207.964 12.08 207.34 12.896V0.559999Z" fill="white"/>
</svg>
