<svg width="174" height="63" viewBox="0 0 174 63" fill="none" xmlns="http://www.w3.org/2000/svg">
<path d="M0.417063 21.392C2.00106 21.488 9.32106 21.488 10.7131 21.392C10.8331 20.528 10.8091 18.248 10.7131 17.6C9.68106 17.552 5.74506 17.552 4.56906 17.6C4.49706 16.736 4.49706 6.728 4.56906 6.08C5.36106 6.104 8.72106 6.104 9.82506 6.08C9.92106 5.192 9.92106 3.008 9.82506 2.336C8.19306 2.24 1.56906 2.24 0.417063 2.336C0.249063 4.592 0.249063 19.136 0.417063 21.392ZM12.2491 22.16C13.1851 22.328 15.5371 22.328 16.2331 22.16C16.3051 21.632 16.3531 17.72 16.3531 13.472C17.1931 13.472 18.0091 13.448 18.4171 13.4C18.5371 12.872 18.5371 10.16 18.4171 9.632C18.0091 9.584 17.1931 9.536 16.3531 9.536C16.3531 5.696 16.3051 2.336 16.2331 1.832C15.4171 1.688 13.0651 1.688 12.2491 1.832C12.1051 3.032 12.1051 20.984 12.2491 22.16ZM19.1313 21.632C20.2833 21.704 31.2993 21.704 32.6913 21.632C32.8353 20.768 32.8113 18.896 32.6913 17.936C32.1633 17.888 30.2673 17.864 28.0593 17.864V16.688C30.6753 16.136 32.2593 14.48 32.2593 12.152C32.2593 9.224 29.8353 7.4 25.9713 7.4C22.1073 7.4 19.6833 9.224 19.6833 12.152C19.6833 14.48 21.2673 16.136 23.8833 16.688V17.864C21.5553 17.864 19.5873 17.888 19.1313 17.936C18.9873 18.848 18.9873 20.696 19.1313 21.632ZM19.3953 6.824C20.7393 6.896 31.0833 6.896 32.5473 6.824C32.6913 6.2 32.6913 3.752 32.5473 3.272C31.9953 3.248 30.1713 3.224 28.0593 3.224C28.0593 2.6 28.0353 1.976 27.9873 1.376C27.1713 1.256 24.7713 1.256 23.9313 1.376C23.8833 1.976 23.8833 2.6 23.8833 3.224C21.7473 3.224 19.8993 3.248 19.3953 3.272C19.2273 3.824 19.2273 6.272 19.3953 6.824ZM23.4273 12.152C23.4273 11.144 24.4113 10.52 25.9713 10.52C27.5073 10.52 28.4913 11.144 28.4913 12.152C28.4913 13.136 27.5073 13.76 25.9713 13.76C24.4113 13.76 23.4273 13.136 23.4273 12.152ZM33.6513 22.16C34.5873 22.328 36.9393 22.328 37.6353 22.16C37.8033 20.984 37.8033 3.032 37.6353 1.832C36.8193 1.688 34.4673 1.688 33.6513 1.832C33.5073 3.032 33.5073 20.984 33.6513 22.16ZM39.3344 14.408C40.5584 14.456 54.4784 14.456 55.9664 14.408C56.0864 13.376 56.0624 12.008 55.9664 10.76C55.6304 10.736 54.6704 10.736 53.3504 10.712V8.864C54.9584 8.144 55.5824 6.992 55.5824 5.6C55.5824 3.128 53.5664 1.424 47.6624 1.424C41.7584 1.424 39.7424 3.128 39.7424 5.6C39.7424 6.992 40.3664 8.12 41.9504 8.864V10.712C40.6064 10.736 39.6224 10.736 39.3344 10.76C39.2144 11.984 39.2144 13.328 39.3344 14.408ZM39.4784 19.04C39.4784 21.584 41.6384 23.048 47.6384 23.048C53.6384 23.048 55.7984 21.584 55.7984 19.04C55.7984 16.496 53.6384 15.032 47.6384 15.032C41.6384 15.032 39.4784 16.496 39.4784 19.04ZM43.6064 19.04C43.6064 18.56 44.2544 18.2 47.6384 18.2C51.0224 18.2 51.6704 18.56 51.6704 19.04C51.6704 19.52 51.0224 19.88 47.6384 19.88C44.2544 19.88 43.6064 19.52 43.6064 19.04ZM44.0384 5.6C44.0384 5.096 44.5664 4.688 47.6624 4.688C50.7584 4.688 51.2864 5.096 51.2864 5.6C51.2864 6.104 50.7584 6.512 47.6624 6.512C44.5664 6.512 44.0384 6.104 44.0384 5.6ZM45.8864 10.712V9.728C46.4384 9.752 47.0384 9.776 47.6624 9.776C48.2864 9.776 48.8624 9.752 49.4144 9.728V10.712H45.8864ZM57.0749 6.296C58.1789 6.368 60.1709 6.344 61.5389 6.296C61.4909 7.472 61.4909 20.264 61.5389 21.392C62.4989 21.512 64.6349 21.512 65.5949 21.392C65.7149 20.168 65.7149 3.848 65.5949 2.384C64.3949 2.264 58.2749 2.264 57.0749 2.384C56.9549 3.08 56.9549 5.6 57.0749 6.296ZM67.3469 22.16C68.2829 22.328 70.6349 22.328 71.3309 22.16C71.4989 20.984 71.4989 3.032 71.3309 1.832C70.5149 1.688 68.1629 1.688 67.3469 1.832C67.2029 3.032 67.2029 20.984 67.3469 22.16ZM77.1156 14.312C77.6436 14.336 80.2836 14.36 83.1396 14.36C83.1396 15.176 83.1396 16.112 83.1876 17C84.0516 17.12 86.4276 17.12 87.2436 17C87.2916 16.112 87.2916 15.152 87.2916 14.36C89.1396 14.36 90.6276 14.336 91.0836 14.312C91.2036 12.968 91.2276 11.648 91.0836 10.496C89.6676 10.424 78.2676 10.424 77.1156 10.496C76.9716 11.696 76.9716 12.992 77.1156 14.312ZM77.2116 7.304C77.7636 7.976 79.4196 9.464 80.2356 9.968C81.2436 8.96 83.2836 6.56 84.0996 5.552C84.9156 6.56 86.9556 8.96 87.9636 9.968C88.7796 9.464 90.4356 7.976 90.9876 7.304C90.2196 6.32 87.5076 3.296 85.9956 1.856C84.9396 1.736 83.2596 1.736 82.2036 1.856C80.6916 3.296 77.9796 6.32 77.2116 7.304ZM77.4996 22.352C78.6996 22.448 89.6196 22.448 90.8196 22.352C90.9156 21.656 90.9156 19.328 90.8196 18.656C89.7396 18.608 83.6436 18.608 81.5796 18.656C81.6276 17.84 81.6276 16.592 81.5796 15.776C80.5956 15.68 78.4836 15.68 77.4996 15.776C77.3316 16.784 77.3316 21.344 77.4996 22.352ZM92.2797 17.096C93.4317 17.168 104.712 17.192 106.152 17.096C106.248 16.28 106.272 14.72 106.152 13.832C105.6 13.808 103.608 13.784 101.304 13.784V13.208C104.256 12.8 105.648 11.552 105.648 9.776C105.648 7.616 103.584 6.248 99.1677 6.248C94.7517 6.248 92.6877 7.616 92.6877 9.776C92.6877 11.552 94.0797 12.824 97.0557 13.208V13.76C94.7037 13.784 92.7357 13.784 92.2797 13.832C92.1357 14.672 92.1357 16.256 92.2797 17.096ZM92.4957 5.768C94.1277 5.816 104.232 5.816 105.72 5.768C105.888 5.24 105.888 2.936 105.72 2.384C105.168 2.336 103.368 2.336 101.28 2.312C101.28 1.88 101.256 1.448 101.208 1.064C100.368 0.943999 97.9677 0.943999 97.1517 1.064C97.1037 1.448 97.0797 1.88 97.0797 2.312C94.9437 2.336 93.1197 2.336 92.4957 2.384C92.3277 3.008 92.3277 5.312 92.4957 5.768ZM93.3597 22.64C95.0877 22.736 109.632 22.736 111.264 22.64C111.408 21.872 111.408 19.928 111.264 19.136C110.208 19.088 98.6157 19.088 97.5117 19.136C97.5597 18.752 97.5597 18.296 97.5117 17.792C96.6717 17.696 94.1757 17.696 93.3597 17.792C93.2397 19.064 93.2637 21.08 93.3597 22.64ZM96.5757 9.776C96.5757 9.392 97.1997 9.152 99.1677 9.152C101.136 9.152 101.76 9.392 101.76 9.776C101.76 10.16 101.136 10.424 99.1677 10.424C97.1997 10.424 96.5757 10.16 96.5757 9.776ZM107.04 17.96C107.976 18.056 110.328 18.056 111.024 17.96C111.096 17.432 111.144 14.528 111.144 11.312C111.984 11.312 112.8 11.264 113.208 11.216C113.328 10.712 113.328 8.168 113.208 7.64C112.8 7.592 111.984 7.544 111.144 7.544C111.12 4.712 111.096 2.312 111.024 1.832C110.208 1.688 107.856 1.688 107.04 1.832C106.944 3.032 106.944 16.784 107.04 17.96ZM117.51 20.336C118.206 20.744 120.486 21.44 121.374 21.512C121.662 20.864 123.27 14.96 124.638 9.44C126.054 14.816 127.662 20.696 127.95 21.32C128.91 21.224 131.166 20.48 131.814 20.096C131.574 19.016 127.614 5.72 126.51 2.408C125.742 2.288 123.414 2.288 122.646 2.408C121.542 5.768 117.654 19.28 117.51 20.336ZM130.326 11.36C130.95 11.432 132.894 11.456 134.358 11.432C134.334 16.4 134.382 21.56 134.454 22.16C135.39 22.328 137.742 22.328 138.438 22.16C138.606 20.984 138.606 3.032 138.438 1.832C137.622 1.688 135.27 1.688 134.454 1.832C134.406 2.24 134.382 4.616 134.358 7.616C132.894 7.592 130.95 7.616 130.326 7.688C130.206 8.216 130.206 10.832 130.326 11.36ZM140.643 21.464C142.011 21.608 149.547 21.584 150.699 21.464C150.795 19.904 150.795 4.448 150.699 2.288C149.931 2.168 147.651 2.168 146.787 2.288C146.763 3.08 146.763 5.024 146.763 7.28C146.091 7.28 145.275 7.28 144.603 7.304C144.603 5.048 144.603 3.08 144.579 2.288C143.763 2.168 141.339 2.168 140.643 2.288C140.523 4.472 140.499 19.472 140.643 21.464ZM144.579 17.816C144.579 17.504 144.603 14.408 144.603 11C145.275 11.024 146.091 11 146.763 11C146.763 14.384 146.787 17.504 146.787 17.816C146.259 17.864 145.107 17.864 144.579 17.816ZM152.259 22.16C153.195 22.328 155.547 22.328 156.243 22.16C156.411 20.984 156.411 3.032 156.243 1.832C155.427 1.688 153.075 1.688 152.259 1.832C152.115 3.032 152.115 20.984 152.259 22.16ZM157.976 22.112C158.96 22.208 171.872 22.208 173.072 22.112C173.264 21.248 173.24 19.376 173.072 18.416C171.872 18.32 158.96 18.296 157.976 18.416C157.808 19.328 157.808 21.176 157.976 22.112ZM158.048 14.72C158.552 15.272 160.88 16.112 161.816 16.304C162.32 15.32 165.128 8.696 165.536 7.544C165.92 8.696 168.752 15.32 169.256 16.304C170.168 16.112 172.52 15.272 173 14.72C171.872 11.768 168.296 3.968 167.24 1.928C166.544 1.856 164.504 1.856 163.808 1.928C162.752 3.968 159.176 11.768 158.048 14.72Z" fill="white"/>
<path d="M61.0985 48.664C63.2105 48.792 74.2505 48.792 76.1065 48.664C76.2345 47.576 76.2345 44.696 76.1065 43.896C74.7305 43.832 68.1705 43.832 66.6025 43.896C66.5065 42.776 66.5065 40.728 66.6025 39.896C67.6585 39.928 73.4505 39.928 74.9225 39.896C75.0185 38.776 75.0185 36.024 74.9225 35.192C72.7465 35.064 62.6345 35.064 61.0985 35.192C60.8745 38.04 60.8745 45.816 61.0985 48.664ZM61.8025 62.2C63.3385 62.36 81.8985 62.36 83.4345 62.2C83.6585 60.664 83.6585 52.024 83.4345 50.456C81.7385 50.264 63.4985 50.264 61.8025 50.456C61.5785 52.024 61.5785 60.664 61.8025 62.2ZM67.1785 57.72C67.1145 56.696 67.1145 55.96 67.1785 54.968C68.3305 54.872 76.8745 54.904 78.0905 54.968C78.1545 55.96 78.1545 56.696 78.0905 57.72C76.9065 57.816 68.3625 57.816 67.1785 57.72ZM78.1545 49.336C79.4025 49.464 82.5065 49.464 83.4345 49.336C83.5305 48.76 83.5625 46.904 83.5945 44.728C84.7145 44.728 85.8025 44.664 86.3465 44.6C86.5065 43.928 86.5065 40.536 86.3465 39.832C85.8025 39.768 84.7145 39.704 83.5945 39.704C83.5625 37.368 83.5305 35.384 83.4345 34.776C82.3465 34.584 79.2425 34.584 78.1545 34.776C77.9945 36.376 77.9945 47.768 78.1545 49.336ZM87.108 40.632C87.908 40.696 88.708 40.664 89.54 40.632C89.476 42.776 89.476 58.744 89.54 60.888C90.852 60.984 93.668 60.984 94.948 60.888C95.108 59.576 95.108 36.824 94.948 35.512C93.348 35.352 88.388 35.352 87.108 35.512C86.98 36.44 86.98 39.704 87.108 40.632ZM96.196 40.632C96.996 40.696 97.956 40.664 98.98 40.632C98.916 42.776 98.916 58.744 98.98 60.888C100.292 60.984 103.108 60.984 104.388 60.888C104.548 59.576 104.548 36.824 104.388 35.512C102.788 35.352 97.476 35.352 96.196 35.512C96.068 36.44 96.068 39.704 96.196 40.632ZM106.66 61.88C107.908 62.104 111.044 62.104 111.972 61.88C112.196 60.312 112.196 36.376 111.972 34.776C110.884 34.584 107.748 34.584 106.66 34.776C106.468 36.376 106.468 60.312 106.66 61.88Z" fill="#FFCD00"/>
</svg>
